<svg xmlns="http://www.w3.org/2000/svg" viewBox="0 0 160 120"><defs><style>.cls-1{fill:#231f20;}</style></defs><title>button_words</title><g id="Layer_2" data-name="Layer 2"><path class="cls-1" d="M53.4,51.33a4.07,4.07,0,0,1-1.17,2.06,6.17,6.17,0,0,1-2,1.42,6.73,6.73,0,0,1-2.63.65A4.3,4.3,0,0,1,44.16,54a3.47,3.47,0,0,1-1-2.3,1.5,1.5,0,0,1,0-.37l1.24-7.12a4.14,4.14,0,0,1,1.17-2.07,6.08,6.08,0,0,1,2-1.44A6.62,6.62,0,0,1,50.27,40a3.9,3.9,0,0,1,1.62.31s.17-.76.46-2.26c.14-.72.77-1.08,1.88-1.08a2.29,2.29,0,0,1,1,.24c.4.17.58.39.53.66Zm-3.34-.15,1.19-6.87c0-.27-.11-.55-.48-.82a1.74,1.74,0,0,0-1-.41,2.36,2.36,0,0,0-1.21.4,1.38,1.38,0,0,0-.74.85l-1.21,6.83c-.05.28.11.56.48.83a1.7,1.7,0,0,0,1,.41A2.42,2.42,0,0,0,49.3,52C49.76,51.74,50,51.46,50.06,51.18Z"/><path class="cls-1" d="M65.35,51.33a3.91,3.91,0,0,1-1.19,2,5.94,5.94,0,0,1-2,1.44,6.73,6.73,0,0,1-2.65.65A4.3,4.3,0,0,1,56.09,54a3.49,3.49,0,0,1-1-2.3,3.26,3.26,0,0,1,0-.37l1.24-7.12a4,4,0,0,1,1.2-2.07A7,7,0,0,1,62.2,40a6.82,6.82,0,0,1,1.12.11,3.9,3.9,0,0,1,2.3,1.37,3.54,3.54,0,0,1,1,2.33,1.14,1.14,0,0,1,0,.33ZM62,51.18l1.18-6.87c0-.27-.11-.55-.48-.82a1.77,1.77,0,0,0-1-.41,2.42,2.42,0,0,0-1.22.4,1.35,1.35,0,0,0-.74.85l-1.19,6.82A.89.89,0,0,0,59,52a1.75,1.75,0,0,0,1,.4,2.42,2.42,0,0,0,1.21-.4C61.7,51.74,62,51.46,62,51.18Z"/><path class="cls-1" d="M83.75,51.33a3.87,3.87,0,0,1-1.2,2,5.81,5.81,0,0,1-2,1.44,6.77,6.77,0,0,1-2.65.65,4.78,4.78,0,0,1-3.22-1.21,6.38,6.38,0,0,1-3.63,1.21A4.3,4.3,0,0,1,67.64,54a3.49,3.49,0,0,1-1-2.3,3.26,3.26,0,0,1,0-.37L68.48,41c0-.26.3-.49.76-.69a2.71,2.71,0,0,1,1.1-.26,2.29,2.29,0,0,1,.93.24c.44.2.64.43.59.69L70.07,51.17a.9.9,0,0,0,.38.82,1.58,1.58,0,0,0,1.12.41,2.42,2.42,0,0,0,1.21-.4c.46-.26.71-.55.75-.85L75.32,41c.05-.26.31-.49.77-.69A2.78,2.78,0,0,1,77.18,40a2.24,2.24,0,0,1,1,.24c.41.2.6.43.55.69l-1.8,10.22a.91.91,0,0,0,.39.82,1.59,1.59,0,0,0,1.13.41,2.45,2.45,0,0,0,1.21-.4c.45-.26.71-.54.75-.85L82.17,41c0-.26.31-.49.77-.69A2.78,2.78,0,0,1,84,40a2.24,2.24,0,0,1,1,.24c.41.2.6.43.55.69Z"/><path class="cls-1" d="M94.84,54.53c0,.28-.29.5-.74.69a2.71,2.71,0,0,1-1.11.24,2.17,2.17,0,0,1-1-.24c-.4-.18-.57-.42-.53-.71l1.78-10.18a.83.83,0,0,0-.43-.87,1.84,1.84,0,0,0-1.07-.38,2.31,2.31,0,0,0-1.17.39c-.48.27-.74.55-.79.84L88,54.53c0,.27-.29.5-.73.69a2.79,2.79,0,0,1-1.12.24,2.26,2.26,0,0,1-1-.24c-.4-.19-.57-.42-.52-.71l1.81-10.33a4,4,0,0,1,1.19-2.07,6.75,6.75,0,0,1,2-1.44A6.6,6.6,0,0,1,92.26,40a6.93,6.93,0,0,1,1.13.11,3.93,3.93,0,0,1,2.3,1.37,3.57,3.57,0,0,1,1,2.33,1.15,1.15,0,0,1,0,.33Z"/><path class="cls-1" d="M104.1,53.92a1.64,1.64,0,0,1-.93,1.36,4.54,4.54,0,0,1-1.58.18,10.23,10.23,0,0,1-1.76-.11A4.12,4.12,0,0,1,97.51,54a3.48,3.48,0,0,1-1-2.32,1.41,1.41,0,0,1,0-.35L98.9,37.92c0-.29.33-.53.84-.71a2.85,2.85,0,0,1,1-.22,2.34,2.34,0,0,1,1,.24c.4.17.57.39.53.67L100,51.18c0,.18.11.45.43.82s1.17.36,3,.4A.83.83,0,0,1,104,53,1.71,1.71,0,0,1,104.1,53.92Z"/><path class="cls-1" d="M115.79,51.33a3.91,3.91,0,0,1-1.19,2,5.85,5.85,0,0,1-2,1.44,6.73,6.73,0,0,1-2.64.65A4.31,4.31,0,0,1,106.53,54a3.54,3.54,0,0,1-1-2.3,3.26,3.26,0,0,1,0-.37l1.25-7.12A4,4,0,0,1,108,42.11a6.75,6.75,0,0,1,2-1.44,6.57,6.57,0,0,1,2.62-.65,6.71,6.71,0,0,1,1.12.11,4,4,0,0,1,2.31,1.37,3.57,3.57,0,0,1,1,2.33,1.14,1.14,0,0,1,0,.33Zm-3.35-.15,1.18-6.87c0-.27-.11-.55-.47-.82a1.82,1.82,0,0,0-1-.41,2.43,2.43,0,0,0-1.23.4,1.35,1.35,0,0,0-.74.85L109,51.15a.91.91,0,0,0,.47.85,1.75,1.75,0,0,0,1,.4,2.42,2.42,0,0,0,1.21-.4C112.14,51.74,112.39,51.46,112.44,51.18Z"/><path class="cls-1" d="M127.34,51.33a3.91,3.91,0,0,1-1.19,2,5.94,5.94,0,0,1-2,1.44,6.73,6.73,0,0,1-2.65.65,4.52,4.52,0,0,1-3.15-1.11,3.65,3.65,0,0,1-1.21-2.83,4.74,4.74,0,0,1,2.05-3.94,7.53,7.53,0,0,1,4.63-1.44,8.39,8.39,0,0,1,1,.06,5.21,5.21,0,0,0,.29-1.57c0-1-.48-1.55-1.43-1.55a2.1,2.1,0,0,0-1.17.37,1.79,1.79,0,0,0-.77.88,5.7,5.7,0,0,1-.26.75,2,2,0,0,1-1.72.69c-1,0-1.48-.33-1.48-1a3.5,3.5,0,0,1,.69-1.94,6.87,6.87,0,0,1,1.48-1.52,6.21,6.21,0,0,1,3.75-1.3,6.82,6.82,0,0,1,1.12.11,3.9,3.9,0,0,1,2.3,1.37,3.54,3.54,0,0,1,1,2.33,1.14,1.14,0,0,1,0,.33ZM124,51.18l.32-1.9h-2.1a1.53,1.53,0,0,0-1,.55,2,2,0,0,0-.62,1,1.19,1.19,0,0,0,.33,1.1,1.49,1.49,0,0,0,1.13.47,2.42,2.42,0,0,0,1.21-.4C123.69,51.74,123.94,51.46,124,51.18Z"/><path class="cls-1" d="M138.6,51.33a4.07,4.07,0,0,1-1.17,2.06,6.07,6.07,0,0,1-2,1.42,6.68,6.68,0,0,1-2.62.65A4.29,4.29,0,0,1,129.37,54a3.44,3.44,0,0,1-1-2.3,1.5,1.5,0,0,1,0-.37l1.24-7.12a4.14,4.14,0,0,1,1.17-2.07,6,6,0,0,1,2-1.44,6.62,6.62,0,0,1,2.65-.65,4,4,0,0,1,1.62.31s.17-.76.45-2.26c.15-.72.77-1.08,1.89-1.08a2.33,2.33,0,0,1,1,.24c.4.17.57.39.52.66Zm-3.33-.15,1.18-6.87c.05-.27-.11-.55-.47-.82a1.79,1.79,0,0,0-1-.41,2.34,2.34,0,0,0-1.21.4,1.35,1.35,0,0,0-.74.85l-1.21,6.83c-.05.28.11.56.47.83a1.75,1.75,0,0,0,1,.41,2.45,2.45,0,0,0,1.19-.4C135,51.74,135.22,51.46,135.27,51.18Z"/><path class="cls-1" d="M60,80.36c-.05.27-.29.51-.74.69a2.64,2.64,0,0,1-1.08.24,2.25,2.25,0,0,1-1-.22c-.38-.17-.54-.41-.49-.72l1.75-10.19a.89.89,0,0,0-.46-.86,1.76,1.76,0,0,0-1.05-.39,2.45,2.45,0,0,0-1.2.4c-.47.27-.72.54-.77.83L53.11,80.36c0,.27-.29.51-.74.69a2.75,2.75,0,0,1-1.12.24,2.2,2.2,0,0,1-1-.24c-.39-.18-.57-.42-.52-.71l1.78-10.18a.83.83,0,0,0-.43-.87A1.84,1.84,0,0,0,50,68.91a2.37,2.37,0,0,0-1.18.39c-.47.27-.74.55-.78.84l-1.8,10.22c0,.27-.29.5-.74.69a2.71,2.71,0,0,1-1.11.24,2.26,2.26,0,0,1-1-.24c-.4-.18-.57-.42-.53-.71L44.69,70a4,4,0,0,1,1.19-2.07,6.75,6.75,0,0,1,2-1.44,6.57,6.57,0,0,1,2.62-.65,4.38,4.38,0,0,1,3.22,1.21,6.71,6.71,0,0,1,3.63-1.21A6.82,6.82,0,0,1,58.5,66a3.9,3.9,0,0,1,2.3,1.37,3.54,3.54,0,0,1,1,2.34,1.51,1.51,0,0,1,0,.32Z"/><path class="cls-1" d="M71.89,80.21a4.1,4.1,0,0,1-1.17,2.07,6.17,6.17,0,0,1-2,1.42,6.69,6.69,0,0,1-2.62.64A4.62,4.62,0,0,1,63,83.25a3.48,3.48,0,0,1-1.27-2.76,3.87,3.87,0,0,1,0-.62c.14-.85.78-1.27,1.9-1.27a2.63,2.63,0,0,1,.88.17c.36.13.55.31.56.54V80a1.19,1.19,0,0,0,.49.87,1.64,1.64,0,0,0,1,.38,2.45,2.45,0,0,0,1.21-.41c.46-.27.71-.55.76-.84l.32-1.83q-.93,0-2.82-.15a3.92,3.92,0,0,1-2.3-1.36,3.49,3.49,0,0,1-1-2.34,1.73,1.73,0,0,1,0-.35L64,66.8c0-.27.33-.51.83-.71a2.94,2.94,0,0,1,1-.24,2.2,2.2,0,0,1,1,.24c.41.2.59.43.55.69l-1.23,7.1c0,.18.1.42.4.75a1.17,1.17,0,0,0,.75.48h2.1l1.46-8.31c0-.28.3-.52.74-.71a2.79,2.79,0,0,1,1.12-.24,2.24,2.24,0,0,1,1,.24c.41.2.6.43.55.69Z"/><path class="cls-1" d="M92.91,67.39a1.9,1.9,0,0,1-.56,1.19,2.15,2.15,0,0,1-1.33.33h-.86a3.69,3.69,0,0,0-1.43.31c-.56.24-.87.54-.93.92L86,80.36c0,.27-.29.5-.73.69a2.79,2.79,0,0,1-1.12.24,2.26,2.26,0,0,1-1-.24c-.4-.18-.57-.42-.53-.71L84.44,70a3.68,3.68,0,0,1,.81-1.59A6.82,6.82,0,0,1,91,65.85a5.41,5.41,0,0,1,1.36.11.88.88,0,0,1,.65.94A2.91,2.91,0,0,1,92.91,67.39Z"/><path class="cls-1" d="M100,80.06a6.33,6.33,0,0,1-3.66,1.23,4.3,4.3,0,0,1-3.41-1.49,3.49,3.49,0,0,1-1-2.3,3.26,3.26,0,0,1,0-.37L93.2,70a4,4,0,0,1,1.19-2.07A7,7,0,0,1,99,65.85,4.49,4.49,0,0,1,102.19,67a3.68,3.68,0,0,1,1.22,2.83,4.72,4.72,0,0,1-2.1,4,7.77,7.77,0,0,1-4.7,1.42H95.7a6.07,6.07,0,0,0-.26,1.58,1.29,1.29,0,0,0,1.43,1.48A2,2,0,0,0,98.8,77a4,4,0,0,1,.26-.75,1.92,1.92,0,0,1,1.72-.69c1,0,1.48.33,1.48,1a3.55,3.55,0,0,1-.71,2A6.17,6.17,0,0,1,100,80.06Zm0-9.58a1.22,1.22,0,0,0-.32-1.1,1.52,1.52,0,0,0-1.14-.47,2.42,2.42,0,0,0-1.22.4,1.35,1.35,0,0,0-.74.85L96.22,72h2.11a1.53,1.53,0,0,0,1-.56A2,2,0,0,0,100,70.48Z"/><path class="cls-1" d="M107.8,81.29a4.57,4.57,0,0,1-3.1-1.11,3.47,3.47,0,0,1-1.29-2.74,3.1,3.1,0,0,1,0-.63c.14-.85.77-1.27,1.9-1.27a2.52,2.52,0,0,1,.86.17c.38.13.58.3.6.5a7,7,0,0,0,.05.9,1.17,1.17,0,0,0,.45.76,1.64,1.64,0,0,0,1,.36,2.05,2.05,0,0,0,1.31-.46,1.73,1.73,0,0,0,.7-1.11,1.34,1.34,0,0,0-.21-1,1.25,1.25,0,0,0-.89-.53L108,75a6.77,6.77,0,0,1-1.31-.32,3.14,3.14,0,0,1-1.63-1.49,4.18,4.18,0,0,1-.52-2.06,4.88,4.88,0,0,1,2.12-3.88,6.13,6.13,0,0,1,3.84-1.36,4.63,4.63,0,0,1,3.12,1.1,3.48,3.48,0,0,1,1.27,2.76,3.87,3.87,0,0,1,0,.62c-.15.85-.78,1.27-1.91,1.27-.88,0-1.37-.23-1.48-.69v-.75a1.1,1.1,0,0,0-.45-.88,1.59,1.59,0,0,0-1-.37,2,2,0,0,0-1.3.47,1.9,1.9,0,0,0-.71,1.1,1.31,1.31,0,0,0,.22,1,1.1,1.1,0,0,0,.88.52l1.46.15a3.94,3.94,0,0,1,2.38,1.38,3.82,3.82,0,0,1,.89,2.49A4.8,4.8,0,0,1,112,79.7,6.19,6.19,0,0,1,107.8,81.29Z"/><path class="cls-1" d="M125.12,77.16a3.91,3.91,0,0,1-1.19,2,5.94,5.94,0,0,1-2,1.44,6.73,6.73,0,0,1-2.65.65,4.3,4.3,0,0,1-3.41-1.49,3.49,3.49,0,0,1-1-2.3,3.26,3.26,0,0,1,0-.37L116.7,66.8c0-.26.3-.49.76-.69a2.71,2.71,0,0,1,1.1-.26,2.29,2.29,0,0,1,.93.24c.44.2.64.43.59.69L118.29,77a.9.9,0,0,0,.38.82,1.61,1.61,0,0,0,1.13.41,2.42,2.42,0,0,0,1.21-.4c.46-.26.71-.54.76-.84l1.78-10.19c0-.26.3-.49.76-.69a2.83,2.83,0,0,1,1.1-.26,2.28,2.28,0,0,1,1,.24q.61.3.54.69Z"/><path class="cls-1" d="M143.06,80.36c0,.27-.29.51-.73.69a2.65,2.65,0,0,1-1.09.24,2.23,2.23,0,0,1-1-.22c-.38-.17-.55-.41-.5-.72l1.76-10.19a.9.9,0,0,0-.46-.86,1.76,1.76,0,0,0-1.06-.39,2.52,2.52,0,0,0-1.2.4c-.46.27-.72.54-.77.83l-1.78,10.22c-.05.27-.3.51-.74.69a2.79,2.79,0,0,1-1.12.24,2.2,2.2,0,0,1-1-.24c-.4-.18-.57-.42-.52-.71l1.78-10.18a.85.85,0,0,0-.43-.87,1.84,1.84,0,0,0-1.08-.38,2.31,2.31,0,0,0-1.17.39c-.48.27-.74.55-.79.84l-1.79,10.22c-.05.27-.3.5-.74.69a2.79,2.79,0,0,1-1.12.24,2.33,2.33,0,0,1-1-.24c-.39-.18-.57-.42-.52-.71L127.79,70a4,4,0,0,1,1.2-2.07,6.71,6.71,0,0,1,2-1.44,6.61,6.61,0,0,1,2.63-.65,4.4,4.4,0,0,1,3.22,1.21,6.71,6.71,0,0,1,3.63-1.21,6.92,6.92,0,0,1,1.12.11,3.93,3.93,0,0,1,2.3,1.37,3.53,3.53,0,0,1,1,2.34,1.57,1.57,0,0,1,0,.32Z"/><path class="cls-1" d="M153.08,80.06a6.28,6.28,0,0,1-3.65,1.23A4.3,4.3,0,0,1,146,79.8a3.49,3.49,0,0,1-1-2.3,3.26,3.26,0,0,1,0-.37L146.29,70a4,4,0,0,1,1.19-2.07,7,7,0,0,1,4.65-2.09A4.49,4.49,0,0,1,155.28,67a3.68,3.68,0,0,1,1.22,2.83,4.72,4.72,0,0,1-2.1,4,7.77,7.77,0,0,1-4.7,1.42h-.91a6.07,6.07,0,0,0-.26,1.58c0,1,.47,1.48,1.43,1.48A2,2,0,0,0,151.89,77a4,4,0,0,1,.26-.75,1.92,1.92,0,0,1,1.72-.69c1,0,1.48.33,1.48,1a3.55,3.55,0,0,1-.71,2A6.05,6.05,0,0,1,153.08,80.06Zm0-9.58a1.22,1.22,0,0,0-.32-1.1,1.52,1.52,0,0,0-1.14-.47,2.42,2.42,0,0,0-1.22.4,1.35,1.35,0,0,0-.74.85L149.31,72h2.11a1.53,1.53,0,0,0,1-.56A2,2,0,0,0,153.06,70.48Z"/></g></svg>