<svg id="Layer_1" data-name="Layer 1" xmlns="http://www.w3.org/2000/svg" viewBox="0 0 115.73 115.73"><defs><style>.cls-1{fill:none;stroke:#000;stroke-miterlimit:10;stroke-width:0.96px;}</style></defs><title>blackspin</title><polygon class="cls-1" points="115.02 57.86 106.73 65.61 112.24 75.53 101.95 80.32 104.11 91.47 92.84 92.84 91.46 104.11 80.32 101.95 75.53 112.24 65.61 106.73 57.86 115.02 50.12 106.73 40.2 112.24 35.41 101.95 24.26 104.11 22.89 92.84 11.62 91.46 13.78 80.32 3.49 75.53 9 65.61 0.7 57.86 9 50.12 3.49 40.2 13.78 35.41 11.62 24.26 22.89 22.89 24.26 11.62 35.41 13.78 40.2 3.49 50.12 9 57.86 0.7 65.61 9 75.53 3.49 80.32 13.78 91.47 11.62 92.84 22.89 104.11 24.26 101.95 35.41 112.24 40.2 106.73 50.12 115.02 57.86"/></svg>