<svg id="Layer_1" data-name="Layer 1" xmlns="http://www.w3.org/2000/svg" viewBox="0 0 186.31 138.29"><defs><style>.cls-1{fill:none;stroke:red;stroke-miterlimit:10;stroke-width:1.15px;}.cls-2{fill:red;}</style></defs><title>DownloadMyResume</title><polygon class="cls-1" points="137.45 69.14 127.54 78.4 134.12 90.26 121.83 95.98 124.41 109.3 110.94 110.94 109.3 124.41 95.98 121.83 90.26 134.12 78.4 127.54 69.14 137.45 59.89 127.54 48.03 134.12 42.31 121.83 28.99 124.41 27.35 110.94 13.88 109.3 16.46 95.98 4.17 90.26 10.76 78.4 0.84 69.14 10.76 59.89 4.17 48.03 16.46 42.31 13.88 28.99 27.35 27.35 28.99 13.88 42.31 16.46 48.03 4.17 59.89 10.76 69.14 0.84 78.4 10.76 90.26 4.17 95.98 16.46 109.3 13.88 110.94 27.35 124.41 28.99 121.83 42.31 134.12 48.03 127.54 59.89 137.45 69.14"/><path class="cls-2" d="M90.08,71.73a4.86,4.86,0,0,1-1.39,2.47,7.38,7.38,0,0,1-2.43,1.7,8.06,8.06,0,0,1-3.14.77,5.12,5.12,0,0,1-4.07-1.77,4.14,4.14,0,0,1-1.23-2.76,1.49,1.49,0,0,1,.06-.43l1.48-8.52a4.85,4.85,0,0,1,1.4-2.47A7.3,7.3,0,0,1,83.18,59a8,8,0,0,1,3.17-.77,4.73,4.73,0,0,1,1.94.36s.2-.9.54-2.7q.26-1.29,2.25-1.29a2.92,2.92,0,0,1,1.2.28c.47.21.68.48.63.8Zm-4-.18,1.42-8.2c0-.33-.14-.65-.57-1a2.06,2.06,0,0,0-1.22-.49,2.85,2.85,0,0,0-1.45.48,1.62,1.62,0,0,0-.88,1L82,71.53c-.06.34.13.68.57,1a2.09,2.09,0,0,0,1.25.49,2.94,2.94,0,0,0,1.42-.48C85.74,72.23,86,71.9,86.1,71.55Z" transform="translate(-26.97 -12.85)"/><path class="cls-2" d="M104.37,71.73a4.72,4.72,0,0,1-1.43,2.45,7.22,7.22,0,0,1-2.39,1.72,8.15,8.15,0,0,1-3.17.77A5.15,5.15,0,0,1,93.3,74.9a4.22,4.22,0,0,1-1.19-2.76,2.39,2.39,0,0,1,0-.43l1.48-8.52A4.81,4.81,0,0,1,95,60.72,8.25,8.25,0,0,1,97.47,59a7.9,7.9,0,0,1,3.13-.77,7.46,7.46,0,0,1,1.34.13A4.65,4.65,0,0,1,104.7,60a4.27,4.27,0,0,1,1.21,2.79,1.23,1.23,0,0,1-.06.39Zm-4-.18,1.42-8.2c.06-.33-.13-.65-.57-1a2.09,2.09,0,0,0-1.23-.49,2.88,2.88,0,0,0-1.46.48,1.58,1.58,0,0,0-.89,1l-1.42,8.16a1.05,1.05,0,0,0,.56,1A2.09,2.09,0,0,0,98,73a3,3,0,0,0,1.45-.48Q100.27,72.08,100.36,71.55Z" transform="translate(-26.97 -12.85)"/><path class="cls-2" d="M126.35,71.73a4.69,4.69,0,0,1-1.42,2.45,7.36,7.36,0,0,1-2.4,1.72,8.11,8.11,0,0,1-3.16.77,5.74,5.74,0,0,1-3.85-1.44,7.7,7.7,0,0,1-4.34,1.44,5.15,5.15,0,0,1-4.08-1.77,4.22,4.22,0,0,1-1.19-2.76,2.39,2.39,0,0,1,0-.43l2.16-12.35c.06-.31.36-.58.91-.82a3.17,3.17,0,0,1,1.32-.31,2.74,2.74,0,0,1,1.11.28c.53.24.77.52.71.82L110,71.55a1.11,1.11,0,0,0,.46,1,1.91,1.91,0,0,0,1.34.49,3,3,0,0,0,1.45-.48,1.6,1.6,0,0,0,.9-1l2.14-12.17c0-.31.36-.58.91-.82a3.23,3.23,0,0,1,1.31-.31,2.71,2.71,0,0,1,1.17.28c.49.24.71.52.65.82l-2.15,12.22a1.11,1.11,0,0,0,.46,1A2,2,0,0,0,120,73a2.94,2.94,0,0,0,1.45-.48,1.59,1.59,0,0,0,.91-1l2.12-12.17c.06-.31.36-.58.91-.82a3.31,3.31,0,0,1,1.31-.31,2.71,2.71,0,0,1,1.17.28c.5.24.72.52.66.82Z" transform="translate(-26.97 -12.85)"/><path class="cls-2" d="M139.61,75.57c-.06.32-.35.6-.88.82a3.32,3.32,0,0,1-1.34.28,2.6,2.6,0,0,1-1.19-.28c-.48-.22-.68-.51-.63-.85l2.13-12.17a1,1,0,0,0-.52-1,2.15,2.15,0,0,0-1.28-.45,2.84,2.84,0,0,0-1.4.46c-.57.33-.88.66-.94,1l-2.14,12.21c-.06.33-.36.6-.89.83a3.28,3.28,0,0,1-1.33.28,2.77,2.77,0,0,1-1.2-.28c-.47-.22-.68-.51-.62-.85l2.16-12.35A4.84,4.84,0,0,1,131,60.72,8.21,8.21,0,0,1,133.39,59a7.94,7.94,0,0,1,3.14-.77,7.46,7.46,0,0,1,1.34.13A4.63,4.63,0,0,1,140.62,60a4.22,4.22,0,0,1,1.21,2.79,1.6,1.6,0,0,1-.05.39Z" transform="translate(-26.97 -12.85)"/><path class="cls-2" d="M150.67,74.83a2,2,0,0,1-1.11,1.63,5.49,5.49,0,0,1-1.88.21,11.77,11.77,0,0,1-2.11-.13,4.92,4.92,0,0,1-2.77-1.64,4.14,4.14,0,0,1-1.2-2.78,1.4,1.4,0,0,1,.06-.41l2.8-16c0-.34.39-.63,1-.85a3.62,3.62,0,0,1,1.23-.26,2.79,2.79,0,0,1,1.21.29c.48.2.69.47.63.8l-2.8,15.87c0,.21.13.54.51,1,.23.27,1.4.43,3.52.48a1,1,0,0,1,.83.7A2,2,0,0,1,150.67,74.83Z" transform="translate(-26.97 -12.85)"/><path class="cls-2" d="M164.64,71.73a4.62,4.62,0,0,1-1.42,2.45,7.16,7.16,0,0,1-2.4,1.72,8.11,8.11,0,0,1-3.16.77,5.15,5.15,0,0,1-4.08-1.77,4.19,4.19,0,0,1-1.2-2.76,2.39,2.39,0,0,1,0-.43l1.48-8.52a4.84,4.84,0,0,1,1.43-2.47A8.21,8.21,0,0,1,157.74,59a7.94,7.94,0,0,1,3.14-.77,7.46,7.46,0,0,1,1.34.13A4.63,4.63,0,0,1,165,60a4.22,4.22,0,0,1,1.21,2.79,1.23,1.23,0,0,1-.05.39Zm-4-.18,1.42-8.2c.05-.33-.14-.65-.58-1a2.09,2.09,0,0,0-1.23-.49,2.91,2.91,0,0,0-1.46.48,1.56,1.56,0,0,0-.88,1l-1.43,8.16a1.07,1.07,0,0,0,.56,1,2.12,2.12,0,0,0,1.25.48,2.91,2.91,0,0,0,1.44-.48C160.28,72.23,160.58,71.9,160.64,71.55Z" transform="translate(-26.97 -12.85)"/><path class="cls-2" d="M178.44,71.73A4.62,4.62,0,0,1,177,74.18a7.16,7.16,0,0,1-2.4,1.72,8.11,8.11,0,0,1-3.16.77,5.4,5.4,0,0,1-3.77-1.32A4.41,4.41,0,0,1,166.24,72a5.66,5.66,0,0,1,2.45-4.7,9,9,0,0,1,5.53-1.73,9.67,9.67,0,0,1,1.2.08,6.1,6.1,0,0,0,.34-1.88c0-1.23-.57-1.85-1.71-1.85a2.56,2.56,0,0,0-1.39.44,2.18,2.18,0,0,0-.92,1,6.07,6.07,0,0,1-.31.9,2.36,2.36,0,0,1-2.05.83c-1.18,0-1.77-.4-1.77-1.19a4.06,4.06,0,0,1,.83-2.31,7.82,7.82,0,0,1,1.76-1.83,7.37,7.37,0,0,1,4.48-1.54,7.46,7.46,0,0,1,1.34.13A4.63,4.63,0,0,1,178.77,60,4.22,4.22,0,0,1,180,62.78a1.6,1.6,0,0,1,0,.39Zm-4-.18.4-2.26h-2.51a1.84,1.84,0,0,0-1.23.66,2.24,2.24,0,0,0-.74,1.19,1.41,1.41,0,0,0,.38,1.31,1.77,1.77,0,0,0,1.36.57,2.91,2.91,0,0,0,1.44-.48Q174.36,72.08,174.43,71.55Z" transform="translate(-26.97 -12.85)"/><path class="cls-2" d="M191.9,71.73a4.79,4.79,0,0,1-1.39,2.47,7.28,7.28,0,0,1-2.43,1.7,8.06,8.06,0,0,1-3.13.77,5.12,5.12,0,0,1-4.08-1.77,4.14,4.14,0,0,1-1.23-2.76,1.49,1.49,0,0,1,.06-.43l1.48-8.52a4.85,4.85,0,0,1,1.4-2.47A7.3,7.3,0,0,1,185,59a8,8,0,0,1,3.17-.77,4.73,4.73,0,0,1,1.94.36s.2-.9.54-2.7q.25-1.29,2.25-1.29a2.92,2.92,0,0,1,1.2.28c.47.21.68.48.63.8Zm-4-.18,1.42-8.2c0-.33-.14-.65-.57-1a2.06,2.06,0,0,0-1.22-.49,2.85,2.85,0,0,0-1.45.48,1.62,1.62,0,0,0-.88,1l-1.45,8.15c-.06.34.13.68.57,1a2.09,2.09,0,0,0,1.25.49,2.94,2.94,0,0,0,1.42-.48C187.56,72.23,187.87,71.9,187.92,71.55Z" transform="translate(-26.97 -12.85)"/><path class="cls-2" d="M97.92,106.43c0,.33-.34.6-.87.82a3.22,3.22,0,0,1-1.3.29,2.76,2.76,0,0,1-1.21-.26q-.69-.3-.6-.87L96,94.24a1.08,1.08,0,0,0-.55-1,2.11,2.11,0,0,0-1.26-.46,3.05,3.05,0,0,0-1.43.47c-.56.32-.86.65-.92,1l-2.14,12.22c-.06.33-.35.6-.88.82a3.33,3.33,0,0,1-1.34.29,2.77,2.77,0,0,1-1.19-.28c-.48-.23-.68-.51-.63-.85l2.13-12.17a1,1,0,0,0-.51-1A2.2,2.2,0,0,0,86,92.75a2.77,2.77,0,0,0-1.4.46c-.57.33-.88.66-.94,1l-2.14,12.22c-.06.33-.36.6-.89.82a3.29,3.29,0,0,1-1.33.29,2.78,2.78,0,0,1-1.2-.29c-.47-.22-.68-.5-.62-.84l2.16-12.35a4.8,4.8,0,0,1,1.43-2.47,8,8,0,0,1,2.42-1.72,7.77,7.77,0,0,1,3.14-.77,5.23,5.23,0,0,1,3.85,1.44,8,8,0,0,1,4.33-1.44,8.41,8.41,0,0,1,1.34.12,4.72,4.72,0,0,1,2.76,1.64,4.25,4.25,0,0,1,1.21,2.79,2,2,0,0,1,0,.38Z" transform="translate(-26.97 -12.85)"/><path class="cls-2" d="M112.18,106.25a4.85,4.85,0,0,1-1.4,2.47,7.38,7.38,0,0,1-2.42,1.7,8.06,8.06,0,0,1-3.14.77,5.54,5.54,0,0,1-3.72-1.31,4.18,4.18,0,0,1-1.52-3.29,5.54,5.54,0,0,1,0-.75c.17-1,.93-1.52,2.27-1.52a2.89,2.89,0,0,1,1,.21c.43.15.66.37.68.64v.88a1.38,1.38,0,0,0,.58,1,1.9,1.9,0,0,0,1.22.45,2.94,2.94,0,0,0,1.44-.49c.55-.33.85-.66.91-1l.38-2.18q-1.11,0-3.36-.18a4.69,4.69,0,0,1-2.76-1.62,4.19,4.19,0,0,1-1.21-2.8,2.34,2.34,0,0,1,0-.42l1.51-8.61c.06-.33.39-.61,1-.85A3.52,3.52,0,0,1,105,89.1a2.7,2.7,0,0,1,1.16.28c.49.24.71.51.65.82l-1.46,8.49c0,.2.12.5.47.89s.65.58.9.58h2.51L111,90.23c.05-.35.35-.63.88-.85a3.32,3.32,0,0,1,1.34-.28,2.71,2.71,0,0,1,1.17.28c.49.24.71.51.65.82Z" transform="translate(-26.97 -12.85)"/><path class="cls-2" d="M137.3,90.93a2.23,2.23,0,0,1-.67,1.42,2.56,2.56,0,0,1-1.58.4h-1a4.22,4.22,0,0,0-1.71.37c-.67.28-1,.65-1.12,1.09l-2.14,12.22c-.06.33-.35.6-.88.82a3.33,3.33,0,0,1-1.34.29,2.74,2.74,0,0,1-1.19-.29q-.72-.33-.63-.84l2.17-12.35a4.34,4.34,0,0,1,1-1.9A8.14,8.14,0,0,1,135,89.1a7,7,0,0,1,1.63.12,1.05,1.05,0,0,1,.77,1.12A3,3,0,0,1,137.3,90.93Z" transform="translate(-26.97 -12.85)"/><path class="cls-2" d="M145.77,106.07a7.54,7.54,0,0,1-4.36,1.47,5.1,5.1,0,0,1-4.08-1.78,4.17,4.17,0,0,1-1.2-2.75,2.51,2.51,0,0,1,0-.44l1.48-8.51a4.73,4.73,0,0,1,1.43-2.47,8,8,0,0,1,2.42-1.72,7.77,7.77,0,0,1,3.14-.77,5.37,5.37,0,0,1,3.76,1.32,4.37,4.37,0,0,1,1.46,3.38,5.68,5.68,0,0,1-2.51,4.74,9.31,9.31,0,0,1-5.62,1.69h-1.08a7,7,0,0,0-.32,1.88c0,1.18.57,1.78,1.71,1.78a2.39,2.39,0,0,0,2.31-1.5,5.31,5.31,0,0,1,.32-.9,2.27,2.27,0,0,1,2.05-.82c1.18,0,1.77.39,1.77,1.18a4.19,4.19,0,0,1-.86,2.37A7.08,7.08,0,0,1,145.77,106.07Zm0-11.44a1.44,1.44,0,0,0-.39-1.32,1.78,1.78,0,0,0-1.35-.56,3,3,0,0,0-1.46.47,1.61,1.61,0,0,0-.89,1l-.39,2.24h2.51a1.87,1.87,0,0,0,1.21-.67A2.44,2.44,0,0,0,145.74,94.63Z" transform="translate(-26.97 -12.85)"/><path class="cls-2" d="M155.09,107.54a5.44,5.44,0,0,1-3.7-1.33,4.13,4.13,0,0,1-1.54-3.28,5.5,5.5,0,0,1,.05-.74c.17-1,.93-1.52,2.28-1.52a2.83,2.83,0,0,1,1,.21c.46.15.69.35.71.59q0,.91.06,1.08a1.44,1.44,0,0,0,.54.9,2,2,0,0,0,1.2.44,2.52,2.52,0,0,0,1.57-.56,2,2,0,0,0,.82-1.32,1.56,1.56,0,0,0-.24-1.2,1.48,1.48,0,0,0-1.07-.63l-1.48-.2a8.72,8.72,0,0,1-1.57-.39,3.72,3.72,0,0,1-1.94-1.78,4.94,4.94,0,0,1-.62-2.46,5.81,5.81,0,0,1,2.53-4.63,7.31,7.31,0,0,1,4.59-1.62A5.5,5.5,0,0,1,162,90.41a4.17,4.17,0,0,1,1.52,3.29,4.38,4.38,0,0,1-.06.75c-.17,1-.93,1.51-2.28,1.51-1,0-1.63-.27-1.76-.82v-.9a1.32,1.32,0,0,0-.55-1,1.85,1.85,0,0,0-1.22-.44,2.47,2.47,0,0,0-1.56.56,2.28,2.28,0,0,0-.84,1.32,1.58,1.58,0,0,0,.26,1.18,1.32,1.32,0,0,0,1,.62l1.74.18a4.77,4.77,0,0,1,2.85,1.64,4.54,4.54,0,0,1,1.06,3,5.65,5.65,0,0,1-2.2,4.39A7.35,7.35,0,0,1,155.09,107.54Z" transform="translate(-26.97 -12.85)"/><path class="cls-2" d="M175.79,102.6a4.63,4.63,0,0,1-1.42,2.44,7.29,7.29,0,0,1-2.4,1.73,8.11,8.11,0,0,1-3.16.77,5.13,5.13,0,0,1-4.08-1.78,4.17,4.17,0,0,1-1.2-2.75,2.51,2.51,0,0,1,0-.44l2.17-12.34c.05-.31.36-.59.91-.83a3.23,3.23,0,0,1,1.31-.3,2.74,2.74,0,0,1,1.11.28c.53.24.77.51.71.82l-2.14,12.22a1.09,1.09,0,0,0,.46,1,2,2,0,0,0,1.35.49,2.91,2.91,0,0,0,1.44-.48,1.63,1.63,0,0,0,.91-1l2.12-12.17c.06-.31.37-.59.92-.83a3.38,3.38,0,0,1,1.31-.3,2.63,2.63,0,0,1,1.16.28c.5.24.72.51.66.82Z" transform="translate(-26.97 -12.85)"/><path class="cls-2" d="M197.23,106.43c0,.33-.34.6-.87.82a3.22,3.22,0,0,1-1.3.29,2.76,2.76,0,0,1-1.21-.26c-.46-.2-.65-.49-.6-.87l2.1-12.17a1.08,1.08,0,0,0-.55-1,2.11,2.11,0,0,0-1.26-.46,3.05,3.05,0,0,0-1.43.47c-.56.32-.86.65-.92,1l-2.14,12.22c-.06.33-.35.6-.88.82a3.33,3.33,0,0,1-1.34.29,2.77,2.77,0,0,1-1.19-.28c-.47-.23-.68-.51-.63-.85l2.13-12.17a1,1,0,0,0-.51-1,2.2,2.2,0,0,0-1.29-.45,2.77,2.77,0,0,0-1.4.46c-.57.33-.88.66-.94,1l-2.14,12.22c-.06.33-.36.6-.89.82a3.29,3.29,0,0,1-1.33.29,2.78,2.78,0,0,1-1.2-.29c-.47-.22-.68-.5-.62-.84L179,94.06a4.71,4.71,0,0,1,1.42-2.47,8,8,0,0,1,2.42-1.72A7.77,7.77,0,0,1,186,89.1a5.23,5.23,0,0,1,3.85,1.44,8,8,0,0,1,4.34-1.44,8.61,8.61,0,0,1,1.34.12,4.73,4.73,0,0,1,2.75,1.64,4.25,4.25,0,0,1,1.21,2.79,2,2,0,0,1,0,.38Z" transform="translate(-26.97 -12.85)"/><path class="cls-2" d="M209.21,106.07a7.54,7.54,0,0,1-4.36,1.47,5.13,5.13,0,0,1-4.08-1.78,4.17,4.17,0,0,1-1.2-2.75,2.51,2.51,0,0,1,0-.44l1.48-8.51a4.8,4.8,0,0,1,1.43-2.47,8,8,0,0,1,2.42-1.72,7.77,7.77,0,0,1,3.14-.77,5.37,5.37,0,0,1,3.76,1.32,4.37,4.37,0,0,1,1.46,3.38,5.68,5.68,0,0,1-2.51,4.74,9.31,9.31,0,0,1-5.62,1.69h-1.08a7,7,0,0,0-.32,1.88c0,1.18.57,1.78,1.71,1.78a2.39,2.39,0,0,0,2.31-1.5,5.31,5.31,0,0,1,.32-.9,2.27,2.27,0,0,1,2.05-.82c1.18,0,1.77.39,1.77,1.18a4.19,4.19,0,0,1-.86,2.37A7.08,7.08,0,0,1,209.21,106.07Zm0-11.44a1.42,1.42,0,0,0-.39-1.32,1.78,1.78,0,0,0-1.35-.56,3,3,0,0,0-1.46.47,1.64,1.64,0,0,0-.89,1l-.39,2.24h2.51a1.87,1.87,0,0,0,1.21-.67A2.44,2.44,0,0,0,209.18,94.63Z" transform="translate(-26.97 -12.85)"/></svg>