<svg version="1.1" id="Layer_1" xmlns="http://www.w3.org/2000/svg" xmlns:xlink="http://www.w3.org/1999/xlink" x="0" y="0" viewBox="0 0 100.2 84.2" xml:space="preserve"><style>.st0{fill:#fff;stroke:#231f20;stroke-width:.25;stroke-miterlimit:10}.st1,.st10,.st2,.st4,.st5,.st8,.st9{fill:none;stroke:#000;stroke-width:.21;stroke-miterlimit:10}.st10,.st2,.st4,.st5,.st8,.st9{fill:#00c6f6;stroke-width:.25}.st10,.st4,.st5,.st8,.st9{fill:none}.st10,.st5,.st8,.st9{fill:#080808;stroke:#080808}.st10,.st8,.st9{fill:#ffd43f;stroke:#000}.st10,.st9{fill:#fff;stroke-width:.21}.st10{fill:#33cfff;stroke-width:.25}</style><g id="Layer_2_1_"><g id="_01-01c"><g id="illustration"><path class="st0" d="M27.8 0v34.7c.2 3.6 2.1 6.8 5.1 8.8L8.8 59.8c-1.2.5-2.5.4-3.6-.4-1.5-.9-2.7-2.2-3.6-3.8-.9-1.5-1.4-3.2-1.5-5V16" id="_1a_grid-container"/><g id="_1b_grid-lines"><path class="st1" d="M35.5 39.5c-1.1.7-1.7 2-1.5 3.3.1 1.3-.4 2.5-1.5 3.3-1.1.5-2.5.4-3.5-.3-3-1.9-4.9-5.2-5.1-8.8V2.3"/><path class="st1" d="M31.6 41.8c-1.1.7-1.7 2-1.5 3.3.1 1.3-.4 2.5-1.5 3.3-1.2.5-2.6.4-3.6-.4-1.5-.9-2.7-2.2-3.6-3.8-.9-1.5-1.4-3.2-1.5-5V4.6"/><path class="st1" d="M27.6 44.1c-1.1.7-1.7 2-1.5 3.3.1 1.3-.4 2.5-1.5 3.3-1.2.5-2.6.4-3.6-.4-3-2-4.8-5.2-5-8.8V6.9"/><path class="st1" d="M23.7 46.4c-1.1.7-1.7 2-1.5 3.3.1 1.3-.4 2.6-1.5 3.3-1.2.5-2.5.4-3.6-.3-3-2-4.9-5.3-5.1-8.8V9.1"/><path class="st1" d="M16.7 55.2c-1.2.5-2.5.4-3.6-.4-1.5-.9-2.7-2.2-3.6-3.8-.9-1.5-1.5-3.2-1.5-5V11.4"/><path class="st1" d="M12.8 57.5c-1.2.5-2.5.4-3.6-.3-1.5-.9-2.7-2.2-3.6-3.8-.9-1.5-1.4-3.2-1.5-5V13.7M.1 22L27.8 6M.1 27.9l27.7-16M.1 33.9l27.7-16M.1 39.8l27.7-15.9M.1 45.8l27.7-16M.1 51.8l27.7-16M1.9 56.3l27.7-16M5.2 59.5l27.7-16"/></g><path id="_2a_grid-container-2" class="st2" d="M8.8 59.8c1.1-.7 1.6-2 1.5-3.3-.1-1.3.4-2.6 1.5-3.3l9.9-5.7c-1.1.7-1.7 2-1.5 3.3.1 1.3-.4 2.5-1.5 3.3l-9.9 5.7z"/><g id="_2b_grid-lines"><defs><path id="SVGID_1_" d="M8.8 59.8c1.1-.7 1.6-2 1.5-3.3-.1-1.3.4-2.6 1.5-3.3l9.9-5.7c-1.1.7-1.7 2-1.5 3.3.1 1.3-.4 2.5-1.5 3.3l-9.9 5.7z"/></defs><clipPath id="SVGID_2_"><use xlink:href="#SVGID_1_" overflow="visible"/></clipPath><g clip-path="url(#SVGID_2_)"><path class="st4" d="M19.7 48.7c-1.1.7-1.7 2-1.5 3.3.1 1.3-.4 2.5-1.5 3.3M15.8 50.9c-1.1.7-1.7 2-1.5 3.3.1 1.3-.4 2.5-1.5 3.3M10.2 57.3l14.5-8.4"/></g><path id="_2a_grid-container-3" class="st4" d="M8.8 59.8c1.1-.7 1.6-2 1.5-3.3-.1-1.3.4-2.6 1.5-3.3l9.9-5.7c-1.1.7-1.7 2-1.5 3.3.1 1.3-.4 2.5-1.5 3.3l-9.9 5.7z"/></g><path id="_3_browser" class="st2" d="M20.3 54.1l33.8-19.5c1.2-.8 1.9-2.1 1.9-3.6V7.1c0-1.4-.8-2-1.9-1.4L20.3 25.2c-1.2.8-1.8 2.2-1.9 3.6v23.9c0 1.3.9 2 1.9 1.4z"/><path class="st0" d="M42.9 75.8c-1.2.5-2.5.4-3.6-.4-3-2-4.9-5.2-5.1-8.8v-12c-.1-1.8-.6-3.5-1.4-5-.8-1.6-2-2.9-3.5-3.9-1.1-.8-2.4-1-3.6-.4l-13.9 8c1.2-.5 2.6-.4 3.7.4 1.5 1 2.7 2.3 3.6 3.9.9 1.5 1.4 3.3 1.5 5v12c.2 3.6 2.1 6.8 5.1 8.8 1 .8 2.4.9 3.6.4l13.6-8z" id="_4a_grid-container"/><g id="_4b_grid-lines"><path class="st1" d="M37 79.2c-1.2.5-2.5.4-3.6-.4-3-2-4.9-5.2-5.1-8.8V58c-.1-1.8-.6-3.5-1.4-5-.8-1.6-2-2.9-3.5-3.9-1-.8-2.4-1-3.6-.4"/><path class="st1" d="M33 81.5c-1.2.5-2.5.4-3.6-.3-3-2-4.9-5.2-5.1-8.8v-12c-.1-1.8-.6-3.5-1.4-5-.8-1.6-2-2.9-3.5-3.9-1.1-.8-2.4-1-3.6-.4"/><path class="st1" d="M29.1 83.8c-1.2.5-2.5.4-3.6-.4-3-2-4.9-5.2-5.1-8.8v-12c-.1-1.8-.5-3.5-1.4-5.1-.8-1.6-2-2.9-3.5-3.9-1.1-.8-2.5-1-3.7-.4M41 76.9c-1.2.5-2.5.4-3.6-.4-3-2-4.9-5.2-5.1-8.8v-12c-.1-1.8-.6-3.5-1.4-5-.8-1.6-2-2.9-3.5-3.9-1.1-.8-2.4-1-3.6-.4M11.9 53.2l11.8-6.8M15.5 53.5l11.7-6.8M19.2 57.9L30.9 51M20.5 62.9L32.3 56M20.5 68.5l11.8-6.8M20.5 74.2l11.8-6.9M21.7 79.1l11.8-6.9M24.8 82.9l11.7-6.8"/></g><path id="_5_browser" class="st5" d="M28.6 66.6l33.8-19.5c1.2-.8 1.8-2.2 1.9-3.6V19.6c0-1.4-.8-2-1.9-1.4L28.6 37.7c-1.2.8-1.9 2.2-1.9 3.6v23.9c.1 1.4.9 2 1.9 1.4z"/><path class="st2" d="M29.1 83.8c1.1-.7 1.6-2 1.5-3.3V61.6c-.1-1.3.4-2.5 1.5-3.3l27.7-16c-1.1.7-1.6 2-1.5 3.3v18.9c.1 1.3-.4 2.5-1.5 3.3l-27.7 16z" id="_6a_grid-container"/><g id="_6b_grid-lines"><defs><path id="SVGID_3_" d="M29.1 83.8c1.1-.7 1.6-2 1.5-3.3V61.6c-.1-1.3.4-2.5 1.5-3.3l27.7-16c-1.1.7-1.6 2-1.5 3.3v18.9c.1 1.3-.4 2.5-1.5 3.3l-27.7 16z"/></defs><clipPath id="SVGID_4_"><use xlink:href="#SVGID_3_" overflow="visible"/></clipPath><g clip-path="url(#SVGID_4_)"><path class="st4" d="M45.9 50.3c-1.1.7-1.6 2-1.5 3.3v18.9c.1 1.3-.4 2.5-1.5 3.3M43.9 51.5c-1.1.7-1.6 2-1.5 3.3v18.9c.1 1.3-.4 2.5-1.4 3.3M40 53.7c-1.1.7-1.6 2-1.5 3.3v18.9c.1 1.3-.4 2.5-1.5 3.3M36 56c-1.1.7-1.6 2-1.5 3.3v18.9c.1 1.3-.4 2.5-1.5 3.3M30.5 81.2L45 72.8M30.6 76.3L45 67.9M30.5 70.8l14.4-8.3M30.5 65.5l14.4-8.3M30.8 60.3l14.4-8.4"/></g><path class="st4" d="M29.1 83.8c1.1-.7 1.6-2 1.5-3.3V61.6c-.1-1.3.4-2.5 1.5-3.3l27.7-16c-1.1.7-1.6 2-1.5 3.3v18.9c.1 1.3-.4 2.5-1.5 3.3l-27.7 16z"/></g><path id="_7a_grid-container" class="st0" d="M32.1 58.3c1.2-.5 2.5-.4 3.6.3 3 2 4.9 5.2 5.1 8.8.2 3.6 2.1 6.8 5.1 8.8 1 .8 2.4.9 3.6.4 1.1-.7 1.6-2 1.5-3.3l18.1-19c-.3-.9-.5-1.9-.5-2.9-.2-3.6-2.1-6.8-5.1-8.8-1-.8-2.4-.9-3.6-.3l-27.8 16z"/><g id="_7b_grid-lines"><path class="st1" d="M68.9 54.3c-.3-.9-.5-1.9-.5-2.9-.2-3.6-2.1-6.8-5.1-8.8-1-.8-2.4-.9-3.6-.3M77.1 60.6c-1.2.5-2.5.4-3.6-.4-1.5-.9-2.7-2.2-3.6-3.8-.4-.7-.7-1.4-1-2.1"/><path class="st1" d="M76.1 49.3c-1 .8-1.6 2-1.5 3.3v7c.3 1.7-.8 3.3-2.4 3.6-.9.2-1.9-.1-2.6-.7-3-2-4.9-5.2-5.1-8.8-.2-3.5-2.1-6.8-5.1-8.7-1-.8-2.4-.9-3.6-.4"/><path class="st1" d="M74.1 50.4c-1.1.7-1.6 2-1.5 3.3v7M72.2 51.6c-1.1.7-1.6 2-1.5 3.3v7c.3 1.7-.7 3.3-2.4 3.6-1 .2-1.9-.1-2.7-.7-1.5-.9-2.7-2.2-3.6-3.8-.9-1.5-1.4-3.2-1.5-5-.2-3.6-2.1-6.8-5.1-8.8-1-.8-2.4-.9-3.6-.3"/><path class="st1" d="M68.2 53.8c-1.1.7-1.6 2-1.5 3.3v7c.3 1.7-.7 3.3-2.4 3.6-.9.2-1.9-.1-2.7-.7-3-2-4.9-5.2-5.1-8.8-.2-3.6-2.1-6.8-5.1-8.8-1-.8-2.4-.9-3.6-.4M60.7 70c-1 .2-2.1 0-3-.6-3-2-4.9-5.2-5.1-8.8-.2-3.6-2.1-6.8-5.1-8.8-1-.8-2.4-.9-3.6-.3M61.3 69.7c-.2.1-.4.2-.5.2"/><path class="st1" d="M64.2 56.1c-1.1.7-1.6 2-1.5 3.3v7c.1 1.3-.4 2.5-1.5 3.3M57.3 72c-1.2.5-2.5.4-3.6-.4-3-2-4.9-5.2-5.1-8.8-.2-3.6-2.1-6.8-5.1-8.8-1-.7-2.4-.9-3.6-.3M53.3 74.3c-1.2.6-2.5.4-3.6-.3-3-2-4.9-5.2-5.1-8.8-.2-3.6-2.1-6.8-5.1-8.8-1-.8-2.4-.9-3.6-.4M51.4 75.4c-.3.2-.7.3-1.1.3M49.4 76.6c-1.2.5-2.5.4-3.6-.4-3-2-4.9-5.2-5.1-8.8-.2-3.6-2.1-6.8-5.1-8.8-1-.8-2.4-.9-3.6-.3"/><path class="st1" d="M52.4 63c-1.1.7-1.6 2-1.5 3.3v7c.1 1.3-.4 2.5-1.5 3.3M32.1 58.3l27.7-16M35.3 58.5l27.7-16M39 62l27.7-16M40.7 67.2l27.7-16M42 71.6l27.7-16M44.8 75.4l28.1-15.8"/></g><path class="st2" d="M49.4 76.6c1.1-.7 1.6-2 1.5-3.3v-7c-.1-1.3.4-2.6 1.5-3.3l11.9-6.8c-1.1.7-1.6 2-1.5 3.3v7c.1 1.3-.4 2.5-1.5 3.3-.2.1-.4.2-.5.2l-11.4 6.6z" id="_8a_grid-container"/><g id="_8b_grid-lines"><defs><path id="SVGID_5_" d="M49.4 76.6c1.1-.7 1.6-2 1.5-3.3v-7c-.1-1.3.4-2.6 1.5-3.3l11.9-6.8c-1.1.7-1.6 2-1.5 3.3v7c.1 1.3-.4 2.5-1.5 3.3-.2.1-.4.2-.5.2l-11.4 6.6z"/></defs><clipPath id="SVGID_6_"><use xlink:href="#SVGID_5_" overflow="visible"/></clipPath><g clip-path="url(#SVGID_6_)"><path class="st4" d="M60.3 58.4c-1.1.7-1.6 2-1.5 3.3v7c.1 1.3-.4 2.5-1.5 3.3M56.3 60.7c-1.1.7-1.6 2-1.5 3.3v7c.1 1.3-.4 2.5-1.5 3.3M50.8 74.5l14.5-8.3M50.8 69.7l14.5-8.4M51.1 64.9l14.4-8.3"/></g><path class="st4" d="M49.4 76.6c1.1-.7 1.6-2 1.5-3.3v-7c-.1-1.3.4-2.6 1.5-3.3l11.9-6.8c-1.1.7-1.6 2-1.5 3.3v7c.1 1.3-.4 2.5-1.5 3.3-.2.1-.4.2-.5.2l-11.4 6.6z"/></g><path class="st0" d="M67.5 81.8l-.7-.4-.7-.4c-3-1.9-4.9-5.2-5.1-8.8-.2-3.6-2-6.8-5-8.8-1.1-.8-2.5-.9-3.6-.3l27.7-16c1.2-.5 2.5-.4 3.6.3 3 2 4.9 5.2 5.1 8.8.2 3.6 2.1 6.8 5.1 8.8l.7.4.7.4" id="_9a_grid-container"/><g id="_9b_grid-lines"><path class="st1" d="M91.3 68l-.7-.4-.7-.4c-3-2-4.9-5.2-5.1-8.8-.2-3.6-2.1-6.8-5.1-8.8-1-.8-2.4-.9-3.6-.4M87.3 70.3l-.7-.4-.7-.4c-3-2-4.9-5.2-5.1-8.8-.2-3.6-2.1-6.8-5.1-8.8-1-.8-2.4-.9-3.6-.3M83.4 72.6l-.7-.4-.7-.4c-3-2-4.9-5.2-5.1-8.8-.1-1.8-.6-3.5-1.5-5-.8-1.6-2.1-2.9-3.6-3.8-1-.8-2.4-.9-3.6-.4M79.4 74.9l-.7-.4-.7-.4c-3-2-4.9-5.2-5.1-8.8-.2-3.6-2.1-6.8-5.1-8.8-1-.8-2.4-.9-3.6-.3M75.4 77.2l-.7-.4-.7-.4c-3-2-4.9-5.2-5.1-8.8-.2-3.6-2.1-6.8-5.1-8.8-1-.8-2.4-.9-3.6-.4M71.5 79.5l-.7-.5-.7-.4c-3-1.9-4.9-5.2-5.1-8.8-.2-3.6-2.1-6.8-5.1-8.8-1-.8-2.4-.9-3.6-.3M67.5 81.8l-.7-.4-.7-.4c-3-1.9-4.9-5.2-5.1-8.8-.2-3.6-2-6.8-5-8.8-1.1-.8-2.5-.9-3.6-.3M55.1 63l27.7-16M59.1 66.4l27.7-16M61 71.5l27.7-16M62.3 76.7l27.7-16M65.1 80.4l27.7-16"/></g><g id="_10_browser"><path id="browser-container" class="st0" d="M35.2 50.6L69 31.1c1.2-.8 1.9-2.2 1.9-3.6V3.6c0-1.4-.8-2-1.9-1.4L35.2 21.7c-1.2.8-1.9 2.2-1.9 3.6v23.9c0 1.3.8 2 1.9 1.4z"/><path id="browser-title-bar" class="st0" d="M33.3 27.1L70.8 5.4V3.6c0-1.4-.8-2-1.9-1.4L35.2 21.7c-1.2.8-1.9 2.2-1.9 3.6v1.8z"/><g id="code"><path class="st5" d="M56.4 19.5l12.5-7.2V9.4l-12.5 7.2z"/><path class="st2" d="M47.7 24.6l7.5-4.4v-2.8l-7.5 4.3z"/><path class="st8" d="M52.5 34.8l15.4-8.9c.7-.5 1.1-1.2 1.1-2.1 0-.8-.5-1.2-1.1-.8l-15.4 8.9c-.7.5-1.1 1.3-1.1 2.1s.5 1.1 1.1.8z"/><path class="st5" d="M42.7 40.5l7.5-4.4v-2.9l-7.5 4.4z"/><path class="st9" d="M63.3 19.9l5.6-3.3v-2.9L63.3 17z"/><path class="st8" d="M50.6 27.2l10.3-6c.7-.5 1.1-1.2 1.1-2.1 0-.8-.5-1.2-1.1-.8l-10.3 6c-.7.5-1.1 1.2-1.1 2.1 0 .8.5 1.1 1.1.8z"/><path class="st5" d="M40.8 32.9l7.5-4.4v-2.8L40.8 30zM56.4 28.2L68.9 21v-2.9l-12.5 7.2z"/><path class="st2" d="M45.8 34.3l9.4-5.4V26l-9.4 5.4z"/><path class="st8" d="M36.9 39.5l6.6-3.8c.7-.5 1.1-1.2 1.1-2.1 0-.8-.5-1.2-1.1-.8l-6.6 3.8c-.7.5-1.1 1.2-1.1 2.1 0 .8.5 1.1 1.1.8z"/></g><g id="tab-options"><ellipse transform="rotate(-60 41.713 20.32)" class="st5" cx="41.7" cy="20.3" rx=".9" ry=".5"/><ellipse transform="rotate(-60 39.195 21.763)" class="st5" cx="39.2" cy="21.8" rx=".9" ry=".5"/><ellipse transform="rotate(-60 36.701 23.213)" class="st5" cx="36.7" cy="23.2" rx=".9" ry=".5"/></g></g><g id="_11a_magnifying_glass"><path id="stem" class="st10" d="M74.3 9.5l.1.9 6.1-4c.1-.1.2-.2.2-.4s-.1-.4-.3-.5c-.1-.1-.3-.1-.4 0l-6.1 4v.9"/><ellipse id="frame" transform="rotate(-63.263 69.088 13.075)" class="st10" cx="69.1" cy="13.1" rx="6.9" ry="4"/><ellipse id="lens" transform="rotate(-63.263 69.922 13.502)" class="st9" cx="69.9" cy="13.5" rx="6.9" ry="4"/></g><path id="_11b_focus-path" class="st0" d="M98.9 9.9L70 13.5l-.1.1 10.7 27.7z"/><g id="_11c_code-mark"><path id="code-container" class="st5" d="M98.9 32.4l-17.1 9.8c-.7.4-1.2 0-1.2-.9V22.1c0-.9.5-1.8 1.2-2.3L98.9 10c.7-.4 1.2 0 1.2.9v19.2c0 .9-.4 1.8-1.2 2.3z"/><g id="code-2"><path class="st9" d="M86.3 32.2c-.2 0-.3 0-.5-.1l-2.4-1.4c-.2-.1-.4-.3-.4-.6-.1-.2 0-.5.1-.7l2.4-4.2c.2-.5.8-.7 1.3-.5s.7.8.5 1.3l-.1.1-2 3.4 1.6.9c.4.3.6.8.3 1.3-.2.3-.5.5-.8.5zM94.4 27.5c-.2 0-.3 0-.5-.1-.4-.3-.6-.8-.3-1.3l2-3.4-1.6-1c-.5-.3-.6-.8-.3-1.3s.8-.6 1.3-.3l2.4 1.4c.4.3.6.8.3 1.3L95.2 27c-.1.3-.4.5-.8.5zM88.7 31.2c-.1 0-.2 0-.3-.1-.5-.2-.7-.7-.5-1.2l3.4-8.7c.2-.5.7-.7 1.2-.5.5.2.7.8.5 1.3l-3.4 8.7c-.2.3-.5.5-.9.5z"/></g></g></g></g></g></svg>