<?xml version="1.0" encoding="utf-8"?>
<!-- Generator: Adobe Illustrator 24.1.2, SVG Export Plug-In . SVG Version: 6.00 Build 0)  -->
<svg version="1.1" id="Layer_1" xmlns="http://www.w3.org/2000/svg" xmlns:xlink="http://www.w3.org/1999/xlink" x="0px" y="0px"
	 viewBox="0 0 115.7 115.7" style="enable-background:new 0 0 115.7 115.7;" xml:space="preserve">
<style type="text/css">
	.st0{fill:#FFFFFF;}
</style>
<polygon class="st0" points="115,57.9 106.7,65.6 112.2,75.5 101.9,80.3 104.1,91.5 92.8,92.8 91.5,104.1 80.3,101.9 75.5,112.2 
	65.6,106.7 57.9,115 50.1,106.7 40.2,112.2 35.4,101.9 24.3,104.1 22.9,92.8 11.6,91.5 13.8,80.3 3.5,75.5 9,65.6 0.7,57.9 9,50.1 
	3.5,40.2 13.8,35.4 11.6,24.3 22.9,22.9 24.3,11.6 35.4,13.8 40.2,3.5 50.1,9 57.9,0.7 65.6,9 75.5,3.5 80.3,13.8 91.5,11.6 
	92.8,22.9 104.1,24.3 101.9,35.4 112.2,40.2 106.7,50.1 "/>
</svg>
