<svg id="Layer_1" data-name="Layer 1" xmlns="http://www.w3.org/2000/svg" viewBox="0 0 420.17 116.59"><defs><style>.cls-1{fill:#231f20;}</style></defs><title>CaseyBLogo</title><path class="cls-1" d="M92.36,100.21q0,9.92-8.33,17.08a28.75,28.75,0,0,1-19.33,7.17,27.9,27.9,0,0,1-20.81-9q-7-7.11-7-13.53V63.37q0-5.59,4.39-11.08A26.09,26.09,0,0,1,51,44.36a32.17,32.17,0,0,1,13.7-3.49A28.67,28.67,0,0,1,84.09,48q8.26,7.17,8.27,17.08,0,6.87-9.17,6.88-7.11,0-8.53-3.73c-.52-2.8-.87-4.44-1-4.9a7.84,7.84,0,0,0-3.1-4.08,11,11,0,0,0-5.82-1.87,11.52,11.52,0,0,0-6.07,2.16c-2.24,1.44-3.36,2.93-3.36,4.49v37.19q0,2.68,3.36,4.78a11.25,11.25,0,0,0,6.07,1.87,9.29,9.29,0,0,0,5.82-2,9,9,0,0,0,3.36-4.78,29.16,29.16,0,0,1,.78-4.08q1.8-3.72,8.53-3.73Q92.35,93.33,92.36,100.21Z" transform="translate(-36.92 -24.43)"/><path class="cls-1" d="M149.75,102.08q-.92,5.48-6.47,11.07A32.6,32.6,0,0,1,132.43,121q-8,3.5-14.35,3.49-10.47,0-17.06-6a19.82,19.82,0,0,1-6.59-15.33q0-12.94,11.11-21.34Q116,74,130.62,74a43,43,0,0,1,5.43.35,28.1,28.1,0,0,0,1.55-8.51q0-8.4-7.76-8.4a11.65,11.65,0,0,0-6.33,2,9.82,9.82,0,0,0-4.14,4.78A34.11,34.11,0,0,1,118,68.27Q115.24,72,108.65,72q-8,0-8-5.37,0-5,3.75-10.49a36.28,36.28,0,0,1,8-8.28,33.45,33.45,0,0,1,20.3-7,35.72,35.72,0,0,1,6.07.58q7,1.17,12.47,7.4t5.5,12.65a5.78,5.78,0,0,1-.26,1.75Zm-18.18-.81L133.35,91H122c-1.73,0-3.58,1-5.57,3s-3.1,3.79-3.36,5.43a6.48,6.48,0,0,0,1.75,5.94,8.06,8.06,0,0,0,6.16,2.57,13.34,13.34,0,0,0,6.54-2.16C130,104.32,131.31,102.82,131.57,101.27Z" transform="translate(-36.92 -24.43)"/><path class="cls-1" d="M180.63,124.46a24.93,24.93,0,0,1-16.8-6,18.85,18.85,0,0,1-7-14.87,20.46,20.46,0,0,1,.26-3.38q1.17-6.87,10.34-6.88a12.89,12.89,0,0,1,4.65.94c2.07.7,3.15,1.59,3.24,2.68.08,2.8.17,4.43.25,4.89a6.28,6.28,0,0,0,2.46,4.08,8.74,8.74,0,0,0,5.43,2,11.37,11.37,0,0,0,7.11-2.51,9.18,9.18,0,0,0,3.74-6A7.21,7.21,0,0,0,193.24,94a6.71,6.71,0,0,0-4.85-2.85l-6.72-.93a36.08,36.08,0,0,1-7.11-1.75,16.66,16.66,0,0,1-8.79-8,22.76,22.76,0,0,1-2.84-11.19q0-11.89,11.5-21a33.08,33.08,0,0,1,20.81-7.34,25,25,0,0,1,16.87,5.94A18.9,18.9,0,0,1,219,61.74a20.46,20.46,0,0,1-.26,3.38Q217.61,72,208.42,72c-4.74,0-7.41-1.25-8-3.73V64.18A6,6,0,0,0,198,59.4a8.6,8.6,0,0,0-5.55-2A10.93,10.93,0,0,0,185.35,60a10,10,0,0,0-3.81,5.94,7.11,7.11,0,0,0,1.16,5.37,6,6,0,0,0,4.78,2.8l7.89.81a21.63,21.63,0,0,1,12.92,7.46,20.71,20.71,0,0,1,4.79,13.53q0,11.31-10,19.94A33.41,33.41,0,0,1,180.63,124.46Z" transform="translate(-36.92 -24.43)"/><path class="cls-1" d="M262.58,117.82q-9.57,6.65-19.78,6.64-11.51,0-18.48-8-5.43-6.18-5.43-12.48a11.24,11.24,0,0,1,.13-2l6.72-38.59c.6-3.65,2.76-7.39,6.46-11.19a36.35,36.35,0,0,1,11-7.82,35.54,35.54,0,0,1,14.22-3.49q10.45,0,17.06,6a19.82,19.82,0,0,1,6.59,15.33q0,13.06-11.38,21.46-10.59,7.7-25.46,7.69h-4.91a31.46,31.46,0,0,0-1.42,8.51q0,8.06,7.75,8,7.25,0,10.47-6.77a21.49,21.49,0,0,1,1.43-4.08q2.44-3.72,9.3-3.73,8,0,8,5.37,0,5.13-3.87,10.72A32.72,32.72,0,0,1,262.58,117.82Zm-.13-51.89A6.51,6.51,0,0,0,260.7,60a8.06,8.06,0,0,0-6.16-2.57,13.17,13.17,0,0,0-6.61,2.16c-2.42,1.43-3.76,3-4,4.6l-1.77,10.15h11.38q2.44,0,5.49-3C261,69.28,262.19,67.49,262.45,65.93Z" transform="translate(-36.92 -24.43)"/><path class="cls-1" d="M335,118.63q-1.05,5.72-6.34,11.2a33.45,33.45,0,0,1-11,7.69q-8,3.49-14.22,3.5a25,25,0,0,1-16.87-6,18.86,18.86,0,0,1-6.92-14.92,20.46,20.46,0,0,1,.26-3.38q1.16-6.88,10.27-6.88a13.31,13.31,0,0,1,4.75.93c2,.7,3,1.67,3.08,2.92v4a6.35,6.35,0,0,0,2.66,4.72,8.58,8.58,0,0,0,5.51,2,13.2,13.2,0,0,0,6.55-2.21q3.71-2.22,4.09-4.56l1.74-9.9q-5,0-15.25-.82-7-1.16-12.47-7.34t-5.5-12.71a10.39,10.39,0,0,1,.13-1.87l6.85-39c.26-1.48,1.75-2.76,4.49-3.85a16,16,0,0,1,5.52-1.28,12.21,12.21,0,0,1,5.25,1.27q3.35,1.63,2.95,3.72l-6.62,38.49c-.17.93.54,2.28,2.14,4S309,91,310.11,91H321.5l7.91-45q.39-2.34,4-3.85a15.07,15.07,0,0,1,6.07-1.28,12.3,12.3,0,0,1,5.3,1.28c2.23,1.09,3.23,2.33,3,3.73Z" transform="translate(-36.92 -24.43)"/><path class="cls-1" d="M450.11,102.08q-1,5.72-6.33,11.19a33.42,33.42,0,0,1-11,7.7q-8,3.5-14.22,3.49-11.51,0-18.48-8-5.55-6.18-5.56-12.48a7.46,7.46,0,0,1,.26-2l12.67-72.52c.26-1.55,1.78-2.84,4.55-3.85a16.33,16.33,0,0,1,5.59-1.16,12.81,12.81,0,0,1,5.46,1.28q3.26,1.41,2.86,3.63L423.6,42.63a27.56,27.56,0,0,1,9.66-1.76,34.86,34.86,0,0,1,5.93.58,21.66,21.66,0,0,1,12.49,7.4Q457.1,55,457.09,61.5a10.44,10.44,0,0,1-.13,1.75Zm-18.05-.81,6.43-37.2c.26-1.48-.6-2.95-2.57-4.43a9.42,9.42,0,0,0-5.53-2.22,13,13,0,0,0-6.57,2.16c-2.4,1.45-3.73,3-4,4.62l-6.59,37q-.39,2.32,2.58,4.54a9.59,9.59,0,0,0,5.67,2.21,13.44,13.44,0,0,0,6.44-2.16C430.43,104.32,431.8,102.82,432.06,101.27Z" transform="translate(-36.92 -24.43)"/></svg>