<?xml version="1.0" encoding="utf-8"?>
<!-- Generator: Adobe Illustrator 24.1.2, SVG Export Plug-In . SVG Version: 6.00 Build 0)  -->
<svg version="1.1" id="Layer_1" xmlns="http://www.w3.org/2000/svg" xmlns:xlink="http://www.w3.org/1999/xlink" x="0px" y="0px"
	 viewBox="0 0 400 400" style="enable-background:new 0 0 400 400;" xml:space="preserve">
<style type="text/css">
	.st0{fill:#BF271B;}
	.st1{fill:#FFFFFF;}
	.st2{fill:#212121;}
</style>
<g>
	<g>
		<path class="st0" d="M244.1,29.2c-46.5-1.7-93.4,9.4-134.3,31.7C53.4,91.8,7.3,149.9,9.4,214.2c2,60.5,45.9,113,98.2,143.4
			c45.6,26.5,100.1,39.8,152,30.2c51.9-9.7,100-44.3,119.6-93.3c22.5-56.4,5.5-120.3-15.3-177.4c-16.4-45-39.6-93.7-84.5-110.3
			c-6.2-2.3-13.1-3.9-19.5-2.2C248.3,7.8,241.8,21,242.4,33s6.9,22.9,13.3,33"/>
	</g>
</g>
</svg>
