<?xml version="1.0" encoding="utf-8"?>
<!-- Generator: Adobe Illustrator 24.3.0, SVG Export Plug-In . SVG Version: 6.00 Build 0)  -->
<svg version="1.1" id="Layer_1" xmlns="http://www.w3.org/2000/svg" xmlns:xlink="http://www.w3.org/1999/xlink" x="0px" y="0px"
	 viewBox="0 0 6000 1862.63" style="enable-background:new 0 0 6000 1862.63;" xml:space="preserve">
<style type="text/css">
	.st0{fill-rule:evenodd;clip-rule:evenodd;}
</style>
<path class="st0" d="M5625.93,790.35h-701.21v25.35c0,171.44,45.02,312.66,135.13,423.68c97.35,120.74,230.08,181.05,398.07,181.05
	c85.2,0,154.6-30.16,208.18-90.53c53.52-60.32,101-90.52,142.43-90.52c31.62,0,60.83,10.86,87.66,32.58
	c26.76,21.73,40.17,48.32,40.17,79.67c0,12.1-3.65,25.34-10.96,39.83c-58.43,115.88-146.08,207.65-262.95,275.21
	c-116.87,67.55-242.3,101.39-376.18,101.39c-226.42,0-409.04-74.23-547.82-222.7c-138.79-148.47-208.17-334.96-208.17-559.48
	c0-241.36,71.79-447.78,215.47-619.22c153.4-181.05,350.61-271.59,591.65-271.59c153.39,0,288.52,44.7,405.4,133.99
	c124.17,96.58,186.25,219.7,186.25,369.36c0,96.58-29.21,155.71-87.65,177.44C5817.05,785.54,5745.2,790.35,5625.93,790.35z
	 M5297.24,348.57c-60.88,0-120.53,18.1-178.96,54.32c-58.43,36.21-103.52,80.91-135.13,133.99h193.56c175.31,0,284.88-6,328.7-18.12
	v-14.47C5510.26,400.51,5440.87,348.57,5297.24,348.57z M4269.57,551.34c-36.52,0-79.15-13.86-127.83-41.64
	c-48.73-27.72-86.46-41.64-113.22-41.64c-70.64,0-105.91,92.97-105.91,278.83v898.06c0,48.27-24.36,72.42-73.04,72.42h-270.26
	c-48.73,0-73.04-24.15-73.04-72.42V547.73c0-43.46-23.74-79.66-71.21-108.64c-47.48-28.97-71.21-67.55-71.21-115.87
	c0-45.83,20.66-78.43,62.08-97.77c70.59-33.78,141.18-68.81,211.82-105.02c104.67-50.69,168-76.03,189.92-76.03h7.31
	c46.22,9.67,74.24,35.03,83.99,76.03c2.4,9.69,3.65,50.7,3.65,123.13c129.02-98.96,242.25-148.47,339.66-148.47
	c65.73,0,121.72,20.53,167.99,61.56c46.23,41.09,69.4,92.96,69.4,155.72c0,65.17-21.91,121.31-65.73,168.38
	C4390.09,527.81,4335.31,551.34,4269.57,551.34z M2429.54,1768.07c-238.65,0-435.24-77.29-589.83-231.75
	c-154.64-154.47-231.91-350.01-231.91-586.63c0-241.38,80.92-444.17,242.87-608.37c161.9-164.14,364.58-246.24,608.08-246.24
	c233.74,0,427.87,78.48,582.53,235.38c154.59,156.96,231.9,352.5,231.9,586.63c0,246.25-78.51,449.65-235.56,610.17
	C2880.58,1687.78,2677.89,1768.07,2429.54,1768.07z M2729.02,569.45c-70.65-147.22-175.31-220.89-314.09-220.89
	c-124.17,0-216.74,66.43-277.56,199.16c-46.28,99.02-69.39,217.27-69.39,354.88c0,149.72,29.22,281.26,87.65,394.71
	c70.59,144.85,174.05,217.27,310.43,217.27c126.56,0,219.13-62.75,277.56-188.3c46.22-94.15,69.39-211.22,69.39-351.25
	C2813.01,820.56,2784.99,685.33,2729.02,569.45z M1249.63,1659.44c-121.77,72.42-255.65,108.62-401.73,108.62
	c-233.74,0-423.08-74.22-567.91-222.69c-144.88-148.47-217.3-338.58-217.3-570.33c0-265.54,93.7-480.38,281.22-644.58
	c177.7-156.9,402.93-235.38,675.64-235.38c143.63,0,261.7,22.98,354.26,68.81c65.74,31.4,98.62,101.39,98.62,210.03
	c0,50.69-12.22,96.58-36.53,137.6c-31.67,45.88-70.65,68.81-116.86,68.81c-34.13,0-90.74-36.22-169.82-108.64
	c-79.15-72.42-161.33-108.63-246.53-108.63c-136.39,0-243.49,53.13-321.39,159.33c-73.05,94.16-109.57,211.27-109.57,351.26
	c0,149.71,48.68,278.26,146.08,385.66c97.35,107.44,220.32,161.14,368.86,161.14c90.05,0,163.1-19.3,219.13-57.94
	c21.91-14.48,54.78-49.45,98.61-105.01c31.62-36.21,63.29-54.32,94.95-54.32c31.62,0,61.46,12.1,89.48,36.22
	c27.96,24.16,42,51.94,42,83.28c0,12.11-2.45,22.98-7.31,32.59C1462.65,1485.62,1371.34,1587.01,1249.63,1659.44z"/>
</svg>
