<svg id="Layer_1" data-name="Layer 1" xmlns="http://www.w3.org/2000/svg" viewBox="0 0 1280 740"><defs><style>.cls-1{fill:#231f20;}</style></defs><path class="cls-1" d="M176.65,350.51c2.32,36.18,26.17,69.66,67,69.66,25,0,46.19-6.92,59.66-32.32l18.47,11.93c-15,28.09-47.73,42.72-76.21,42.72-61.58,0-95.07-44.65-95.07-99.69,0-55.42,40.81-97.37,92-97.37,48.5,0,83.52,41.18,83.52,87.75,0,6.16-.77,13.85-1.15,17.32Zm65.82-82.75c-36.18,0-59.66,25.4-65.05,60.42H300.2C298.67,296.62,274.42,267.76,242.47,267.76Z"/><path class="cls-1" d="M383.72,437.88H357.55V149.21h26.17Z"/><path class="cls-1" d="M458.78,437.88H432.61V149.21h26.17Z"/><path class="cls-1" d="M507.67,208.1V171.92h26.17V208.1Zm0,229.78V250.05h26.17V437.88Z"/><path class="cls-1" d="M608.89,250.05V274.3c14.24-18.86,37.33-28.86,60.43-28.86,55,0,96.22,44.26,96.22,97.76S724,442.5,668.93,442.5c-21.17,0-43.87-8.08-60-23.09V540.29H582.72V250.05Zm0,139c13.85,18.09,38.1,29.64,59.66,29.64,40.79,0,70.05-33.87,70.05-73.9,0-40.42-28.87-75.44-70.05-75.44-23.1,0-48.88,13.47-59.66,35.41Z"/><path class="cls-1" d="M884.86,281.23c-10.4-8.09-24.25-13.47-38.1-13.47-14.64,0-33.11,8.08-33.11,25.79,0,22.32,24.25,29.63,48.11,39.64,23.1,9.62,45.81,22.71,45.81,56.19,0,33.11-34.64,53.12-66.2,53.12a78.56,78.56,0,0,1-58.13-25.4L799,400.55c11.16,11.93,25.4,19.62,43.11,19.62,18.09,0,39.25-9.62,39.25-31.17s-20-29.25-41.18-37.72c-24.63-10-51.19-21.17-51.19-55.42,0-32.34,26.94-50.42,58.5-50.42,19.63,0,37,6.15,51.58,18.08Z"/><path class="cls-1" d="M944.52,208.1V171.92h26.17V208.1Zm0,229.78V250.05h26.17V437.88Z"/><path class="cls-1" d="M1107.33,281.23c-10.4-8.09-24.25-13.47-38.11-13.47-14.63,0-33.1,8.08-33.1,25.79,0,22.32,24.25,29.63,48.11,39.64,23.1,9.62,45.81,22.71,45.81,56.19,0,33.11-34.65,53.12-66.21,53.12a78.56,78.56,0,0,1-58.12-25.4l15.78-16.55c11.17,11.93,25.41,19.62,43.11,19.62,18.09,0,39.26-9.62,39.26-31.17s-20-29.25-41.18-37.72c-24.63-10-51.2-21.17-51.2-55.42,0-32.34,27-50.42,58.51-50.42,19.63,0,37,6.15,51.57,18.08Z"/><path class="cls-1" d="M717.63,590.09V553.26H676.92v36.83H661.48v-84h15.44v34.43h40.71V506.12h15.44v84Z"/><path class="cls-1" d="M758.38,590.09v-84h54.41v12.71h-39v21.72h39v12.71h-39v24.11h39v12.72Z"/><path class="cls-1" d="M862.48,506.12h12.83l33,84H890.62l-6.1-16.56H850.91l-6.23,16.56H827.76Zm-6.84,54.94h24.28L868,528.79h-.13Z"/><path class="cls-1" d="M925.28,590.09v-84h15.43v71.25h36.6v12.72Z"/><path class="cls-1" d="M1013.94,518.83v71.26H998.5V518.83H977.35V506.12h57.75v12.71Z"/><path class="cls-1" d="M1107.71,590.09V553.26H1067v36.83h-15.44v-84H1067v34.43h40.71V506.12h15.44v84Z"/><circle class="cls-1" cx="235.32" cy="547.99" r="42.11"/><circle class="cls-1" cx="362.43" cy="547.99" r="42.11"/><circle class="cls-1" cx="489.54" cy="547.99" r="42.11"/></svg>