<?xml version="1.0" encoding="utf-8"?>
<!-- Generator: Adobe Illustrator 24.3.0, SVG Export Plug-In . SVG Version: 6.00 Build 0)  -->
<svg version="1.1" id="Layer_1" xmlns="http://www.w3.org/2000/svg" xmlns:xlink="http://www.w3.org/1999/xlink" x="0px" y="0px"
	 viewBox="0 0 82 39" style="enable-background:new 0 0 82 39;" xml:space="preserve">
<g>
	<path d="M6.4-0.5h2.8L2.8,21H0L6.4-0.5z M12.3-0.5h2.8L8.7,21H5.8L12.3-0.5z"/>
</g>
<g>
	<path d="M18.1,21.1V6.4h7v2.2h-4.5v3.8H24v2.2h-3.4v6.5L18.1,21.1L18.1,21.1z M26.5,21.1V6.4H29v12.5h4v2.2L26.5,21.1z M36.8,21.1
		h-2.5l2.7-14.7h3.1l2.7,14.7h-2.5L40,17.8h-2.8C37.2,17.8,36.8,21.1,36.8,21.1z M37.6,15.6h2l-1-6.3h0L37.6,15.6z M44.9,8.6h-2.5
		V6.4h7.4v2.2h-2.5v12.5h-2.5C44.8,21.1,44.9,8.6,44.9,8.6z M50.9,21.1V6.4h2.5v14.7C53.4,21.1,50.9,21.1,50.9,21.1z M57.7,21.1
		h-2.5V6.4h3.5c2.8,0,4.3,1.2,4.3,4.3c0,2.3-0.9,3.3-1.8,3.7l2.1,6.7h-2.6L59,15.1c-0.3,0-0.8,0.1-1.3,0.1L57.7,21.1z M57.7,13h0.9
		c1.4,0,1.9-0.5,1.9-2.2S60,8.5,58.6,8.5h-0.9V13z M64.6,10c0-2.1,1.2-3.7,3.9-3.7c2.6,0,3.9,1.7,3.9,3.7v7.6c0,2.1-1.2,3.7-3.9,3.7
		c-2.6,0-3.9-1.7-3.9-3.7V10z M67.1,17.5c0,1.1,0.3,1.6,1.3,1.6s1.3-0.5,1.3-1.6V10c0-1.1-0.3-1.6-1.3-1.6s-1.3,0.5-1.3,1.6
		C67.1,10,67.1,17.5,67.1,17.5z M74,21.1V6.4h2.3l3.1,8.4h0V6.4h2.3v14.7h-2.2l-3.2-9.2h0v9.2C76.3,21.1,74,21.1,74,21.1z
		 M22.7,27.9c-0.1-1.3-0.8-1.6-1.3-1.6c-0.8,0-1.3,0.5-1.3,1.4c0,2.5,5.1,3.7,5.1,7.7c0,2.4-1.6,3.7-4,3.7c-2.3,0-3.7-1.9-3.8-4.1
		l2.4-0.4c0.1,1.5,0.7,2.2,1.5,2.2c0.9,0,1.5-0.5,1.5-1.3c0-2.9-5.1-3.7-5.1-7.9c0-2.3,1.4-3.6,3.9-3.6c2.1,0,3.3,1.5,3.5,3.6
		C25.1,27.7,22.7,27.9,22.7,27.9z M31.7,29.2v-1.1c0-1.2-0.6-1.8-1.2-1.8c-1,0-1.3,0.5-1.3,1.6v7.4c0,1.1,0.3,1.6,1.3,1.6
		c0.9,0,1.2-0.5,1.2-1.5v-1.8h2.5v1.7c0,2.1-1.2,3.7-3.7,3.7c-2.6,0-3.9-1.7-3.9-3.7v-7.6c0-2.1,1.2-3.7,3.9-3.7
		c2.5,0,3.7,1.8,3.7,4v1.1C34.2,29.2,31.7,29.2,31.7,29.2z M35.7,39V24.3h2.5v6H41v-6h2.5V39H41v-6.5h-2.7V39H35.7z M45.1,27.9
		c0-2.1,1.2-3.7,3.9-3.7s3.9,1.7,3.9,3.7v7.6c0,2.1-1.2,3.7-3.9,3.7s-3.9-1.7-3.9-3.7V27.9z M47.7,35.4c0,1.1,0.3,1.6,1.3,1.6
		s1.3-0.5,1.3-1.6v-7.4c0-1.1-0.3-1.6-1.3-1.6s-1.3,0.5-1.3,1.6V35.4z M54.5,27.9c0-2.1,1.2-3.7,3.9-3.7c2.6,0,3.9,1.7,3.9,3.7v7.6
		c0,2.1-1.2,3.7-3.9,3.7c-2.6,0-3.9-1.7-3.9-3.7V27.9z M57,35.4c0,1.1,0.3,1.6,1.3,1.6s1.3-0.5,1.3-1.6v-7.4c0-1.1-0.3-1.6-1.3-1.6
		S57,26.8,57,27.9V35.4z M63.8,39V24.3h2.5v12.5h4V39H63.8z"/>
</g>
</svg>
