<?xml version="1.0" encoding="utf-8"?>
<!-- Generator: Adobe Illustrator 25.0.1, SVG Export Plug-In . SVG Version: 6.00 Build 0)  -->
<svg version="1.1" id="Layer_1" xmlns="http://www.w3.org/2000/svg" xmlns:xlink="http://www.w3.org/1999/xlink" x="0px" y="0px"
	 viewBox="0 0 1080 241" style="enable-background:new 0 0 1080 241;" xml:space="preserve">
<style type="text/css">
	.st0{fill:#595959;}
</style>
<g>
	<g>
		<path class="st0" d="M213,157.5c-4.1,13.4-10.7,24.5-19.7,33.1c-9.1,8.7-19.9,15-32.4,19c-12.5,4-26.3,6-41.4,6
			c-21.6,0-40.2-3.9-56-11.8c-15.8-7.9-27.8-19.2-36.3-34c-8.4-14.8-12.6-32.6-12.6-53.4c0-20.8,4.2-38.6,12.6-53.4
			c8.4-14.8,20.5-26.1,36.3-34c15.7-7.9,34.3-11.8,55.7-11.8c14.9,0,28.6,1.9,41.1,5.7c12.5,3.8,23.1,9.6,31.7,17.4
			c8.6,7.8,14.8,17.8,18.4,30.1L161.5,88c-3-12.1-7.9-20.3-14.7-24.8c-6.8-4.5-15.4-6.7-25.7-6.7c-10.1,0-18.9,2.2-26.4,6.7
			c-7.4,4.5-13.2,11.1-17.2,20c-4,8.9-6,19.9-6,33.1c0,13,1.8,24,5.5,33c3.7,9,9.2,15.7,16.7,20.1c7.4,4.5,16.7,6.7,27.7,6.7
			c10.4,0,19.1-2.6,26.4-7.7c7.2-5.2,12.1-13.1,14.7-23.8L213,157.5z"/>
		<path class="st0" d="M221.7,212.7L296.8,20h66.7l74.8,192.7H381L339.2,88.9l-9.4-30.4h-0.6l-8.7,30.1l-42.7,124.1H221.7z
			 M270.6,169.2V135h118.8v34.2H270.6z"/>
		<path class="st0" d="M545.7,17.1c19.8,0,37.4,2.8,52.6,8.3s28.4,13.7,39.7,24.4l-26.9,32.4c-9.3-8.8-19.3-15.3-29.9-19.7
			c-10.7-4.4-22.8-6.6-36.4-6.6c-8,0-14.5,0.8-19.4,2.3c-5,1.6-8.5,3.7-10.7,6.4c-2.2,2.7-3.2,5.8-3.2,9.3c0,4.1,2.1,7.5,6.3,10.4
			c4.2,2.8,11.1,5.2,20.6,7.2l35.9,7.3c21.4,4.5,37,11,46.9,19.6c9.9,8.6,14.9,20,14.9,34.2c0,13.6-3.9,25.2-11.7,34.6
			c-7.8,9.4-18.4,16.5-32,21.3c-13.6,4.8-29.1,7.2-46.6,7.2c-14.2,0-27.8-1.4-40.8-4.2c-12.9-2.8-24.6-6.9-35-12.1
			c-10.4-5.3-19.1-11.3-26.2-18.1l26.9-33.6c5.4,5.6,12,10.7,19.9,15c7.9,4.4,16.5,7.8,25.9,10.4c9.4,2.5,18.9,3.8,28.6,3.8
			c7.6,0,13.9-0.7,18.9-2c5.1-1.4,8.8-3.4,11.2-6.1c2.4-2.7,3.6-5.9,3.6-9.6c0-4.1-1.6-7.5-4.9-10.4c-3.2-2.8-9.4-5.2-18.5-7.2
			l-39.5-7.9c-12.1-2.5-22.8-5.9-32.2-10.1c-9.4-4.2-16.8-9.8-22.2-16.9c-5.4-7.1-8.1-16-8.1-26.7c0-12.1,3.7-22.8,11-32.3
			c7.3-9.4,17.9-16.9,31.7-22.3C510,19.8,526.5,17.1,545.7,17.1z"/>
		<path class="st0" d="M671,212.7V20h166.4v38.8H726.6V98h88v36.5h-88v39.4h114.9v38.8H671z"/>
		<path class="st0" d="M1061,20l-75.4,122.3v70.4h-55.7v-70.4L854.5,20h57.6l30.1,52.9l15.9,32.1l16.2-32.1l30.1-52.9H1061z"/>
	</g>
</g>
</svg>
