<svg width="551" height="86" fill="none" xmlns="http://www.w3.org/2000/svg"><path stroke="#000" stroke-width="3" d="M1.5 1.5h547.4v83H1.5z"/><path fill="#000" d="M0 0h251.12v86H0z"/><path d="M38.184 32.06l-3.715-.446V29.48h10.733l4.093 14.792.963 4.025.826-4.025 4.06-14.792h10.629v2.133l-3.75.447 2.752 20.537 2.787.378v2.064H56.588v-2.064l3.027-.344-1.513-15.067-.654-6.295-1.273 5.297-4.988 17.407h-3.646L42.45 37.462l-1.755-6.192-.516 6.295-1.307 15.067 3.474.344v2.064h-9.563v-2.064l2.89-.344 2.511-20.571zM88.91 32.06l-2.752-.446V29.48h18.335l.448 5.779h-2.408l-1.136-3.406-7.43-.31v9.254l4.782-.103.55-2.82h2.202v8.324h-2.202l-.55-2.958-4.782-.103v9.7l8.325-.412 1.995-4.404 2.58.723-.894 6.295h-19.78v-2.064l2.717-.344V32.061zM128.686 32.06l-2.717-.446V29.48h7.808l10.252 15.48 1.926 3.921V32.061l-2.958-.447V29.48h8.531v2.133l-2.649.447V55.04h-4.162l-10.699-16.271-2.408-4.541v18.404l3.474.344v2.064h-9.115v-2.064l2.717-.344V32.061zM172.984 40.18v-.482c.275-.253.596-.757.963-1.514.39-.78.723-1.686.998-2.718.275-1.055.413-2.087.413-3.096 0-.298-.08-.561-.241-.79a8.484 8.484 0 00-.722-.86 7.746 7.746 0 01-.964-1.136c-.206-.344-.309-.791-.309-1.342 0-.688.218-1.25.653-1.685.459-.436 1.032-.654 1.72-.654s1.319.241 1.892.723c.574.481 1.021 1.135 1.342 1.96.344.803.516 1.686.516 2.65 0 1.513-.275 2.98-.826 4.402-.527 1.4-1.192 2.603-1.995 3.612-.78.986-1.513 1.663-2.201 2.03l-1.239-1.1zM210.093 55.418c-1.238 0-2.351-.103-3.337-.31a49.401 49.401 0 01-3.302-.825c-.803-.23-1.342-.355-1.617-.378l.31-6.364h2.786l.757 4.437c.298.322.825.608 1.582.86.78.253 1.663.379 2.649.379 1.536 0 2.683-.333 3.44-.998.78-.688 1.17-1.64 1.17-2.855 0-.803-.23-1.49-.688-2.064-.459-.596-1.09-1.124-1.893-1.582-.802-.482-1.903-1.032-3.302-1.652-1.903-.871-3.486-1.903-4.747-3.096-1.239-1.215-1.858-2.855-1.858-4.919 0-1.284.333-2.442.998-3.474.665-1.055 1.651-1.88 2.958-2.477 1.33-.62 2.947-.929 4.851-.929 1.123 0 2.11.08 2.958.241.872.16 1.812.378 2.821.654.596.16 1.043.263 1.342.31l-.207 6.02h-2.752l-.722-4.232c-.207-.206-.619-.401-1.239-.585-.619-.206-1.307-.31-2.064-.31-1.376 0-2.419.322-3.13.964-.688.619-1.032 1.456-1.032 2.511 0 .849.252 1.582.757 2.202a7.463 7.463 0 001.892 1.582c.734.413 1.892 1.01 3.474 1.789 1.284.619 2.385 1.227 3.302 1.823a8.515 8.515 0 012.374 2.34c.665.94.998 2.052.998 3.336 0 1.261-.321 2.465-.963 3.612-.62 1.147-1.652 2.098-3.096 2.855-1.422.757-3.246 1.135-5.47 1.135z" fill="#EFEFEF"/><path d="M281.014 32.06l-2.546-.446V29.48h10.458v2.133l-2.89.447v8.634h10.458v-8.634l-2.649-.447V29.48h10.32v2.133l-2.614.447v20.571l2.614.344v2.064h-10.354v-2.064l2.683-.344V43.31h-10.458v9.322l2.89.344v2.064h-10.527v-2.064l2.615-.344V32.061zM326.902 32.06l-2.752-.446V29.48h18.335l.447 5.779h-2.408l-1.135-3.406-7.43-.31v9.254l4.781-.103.551-2.82h2.201v8.324h-2.201l-.551-2.958-4.781-.103v9.7l8.325-.412 1.995-4.404 2.58.723-.895 6.295h-19.78v-2.064l2.718-.344V32.061zM371.975 29.343h5.264l7.946 23.289 1.995.344v2.064h-10.148v-2.064l2.58-.344-1.341-4.472h-8.91l-1.342 4.506 2.787.31v2.064h-8.772l-.035-2.064 2.064-.344 7.912-23.289zm2.374 5.814l-.619-2.683-.654 2.717-3.061 10.561h7.568l-3.234-10.595zM408.032 32.06l-2.649-.446V29.48h11.008v2.133l-3.302.447v20.537l7.361-.31 2.167-6.433 2.787.379-1.067 8.806h-19.023v-2.064l2.718-.344V32.061zM452.776 31.751l-4.919.172-1.342 7.5h-2.89l.585-9.942h22.188l.413 9.941h-2.718l-1.341-7.499-4.851-.172v20.881l4.816.344v2.064h-14.344v-2.064l4.403-.344v-20.88zM488.858 32.06l-2.545-.446V29.48h10.457v2.133l-2.889.447v8.634h10.457v-8.634l-2.648-.447V29.48h10.32v2.133l-2.615.447v20.571l2.615.344v2.064h-10.355v-2.064l2.683-.344V43.31h-10.457v9.322l2.889.344v2.064h-10.526v-2.064l2.614-.344V32.061z" fill="#000"/></svg>