<?xml version="1.0" encoding="utf-8"?>
<!-- Generator: Adobe Illustrator 25.2.0, SVG Export Plug-In . SVG Version: 6.00 Build 0)  -->
<svg version="1.1" id="Layer_1" xmlns="http://www.w3.org/2000/svg" xmlns:xlink="http://www.w3.org/1999/xlink" x="0px" y="0px"
	 viewBox="0 0 300 77" style="enable-background:new 0 0 300 77;" xml:space="preserve">
<g>
	<g>
		<path d="M296,69.1c-1,0.1-2,0.4-2.9,0.4c-6.9,0.1-13.7,0.1-20.6,0c-0.9,0-1.8-0.8-2.6-1.2c0.7-0.7,1.3-1.5,2-2.2
			c0.3-0.2,0.7-0.3,1.6-0.7c-3.3-4.4-6.4-8.7-9.6-12.8c-0.4-0.5-1.5-0.7-2.2-0.5c-0.4,0.1-0.7,1.1-0.8,1.8c-0.1,2.2,0,4.5-0.1,6.7
			c-0.1,3.1,0.4,5.7,4.4,5.9c0.6,0,1.1,1.6,2.1,3.1c-8.6,0-16.2,0.1-23.8-0.1c-0.7,0-1.5-1.3-2.2-2c0.2-0.3,0.4-0.5,0.5-0.8
			c0.8-0.1,1.5-0.3,2.3-0.4c2.7-0.2,3.7-1.7,3.7-4.3c0-8.9,0-17.7,0-26.6c0-5.5-0.1-11,0-16.5c0-2.1-0.5-3.7-2.5-4.8
			c-0.7-0.3-1.5-1.3-1.5-2c0-0.5,1.1-1.3,1.8-1.5c3.9-1.4,7.9-2.7,11.9-4.1c3-1,3.2-0.8,3.2,2.5c-0.1,12-0.1,24-0.1,36
			c0,3.6,1.6,4.8,4.6,2.5c3.4-2.5,6.3-5.9,10-9.5c-2.2-0.5-3.3-0.6-4.3-1.1c-0.7-0.3-1.1-1.1-1.7-1.7c0.6-0.5,1.2-1.3,1.9-1.4
			c6-0.5,12-0.8,18.1-1.1c0.8,0,1.6,0.7,2.4,1c-0.7,0.7-1.2,1.9-2,2c-5.8,1-9.9,4.7-14.1,8.3c-0.6,0.5-0.8,2.4-0.3,3
			c3.8,5.4,7.5,11,12,15.8c1.9,2,5.6,2.4,8.5,3.5C296,67.5,296,68.3,296,69.1z"/>
		<path d="M24.1,71c-4.6-9.5-9.3-19-13.8-28.5c-1.2-2.5-2.6-4.6-5.6-5.2c-0.6-0.1-1-1.2-1.4-1.9c0.6-0.4,1.2-1.2,1.8-1.2
			c15.8-0.1,31.5,0,47.3,0c0.2,0,0.4,0.2,0.7,0.3c0.8,4.4-4.2,2-5.4,4.9c2.2,4.9,4.7,10.3,7.1,15.7c0.3,0,0.6,0,0.8,0
			c1.9-5.1,3.9-10.2,5.7-15.3c0.7-2-1.2-1.8-2.2-2.5c-0.8-0.5-1.4-1.3-2-2c0.8-0.4,1.6-1.1,2.4-1.2C64.2,34,68.9,34,73.8,34
			c0.5,1.6,0.8,2.9-1.4,3.2c-2.8,0.4-4.2,2.1-5.3,4.5C63,50.3,59,58.8,55,67.2c-0.6,1.3-1.3,2.5-2,3.7c-1,0-2.1,0-3.1,0
			c-2.3-4.4-4.5-8.8-6.8-13.2c-1.3-2.5-2.6-5.1-4.1-8.1c-4,7.5-7.6,14.4-11.2,21.3C26.5,71,25.3,71,24.1,71z M30.5,56
			c1.4-2.8,2.5-4.7,3.5-6.7c1.4-3,3.5-6,1-9.4c-2.5-3.2-6.1-2.1-9.4-2.2c-0.2,0-0.4,0-0.6,0.1c-1.9,0.2-2.6,1.1-1.8,2.9
			C25.4,45.5,27.8,50.4,30.5,56z"/>
		<path d="M126.8,71c-3.1-6.3-6.2-12.5-9.3-18.8c-1.9-3.7-3.6-7.6-5.7-11.1c-0.9-1.5-2.8-2.4-4.2-3.6c-0.7-0.6-1.3-1.4-1.9-2.2
			c0.8-0.4,1.6-1.1,2.4-1.1c13.8-0.1,27.7,0,41.5-0.1c1.3,0,2.7-0.3,4-0.1c0.7,0.1,1.4,0.8,2,1.2c-0.5,0.7-0.9,1.4-1.5,1.9
			c-0.3,0.3-1,0.2-1.5,0.3c-2.2,0.3-2.9,1.4-1.9,3.6c2.2,4.6,4.2,9.2,6.5,14.3c0.6-0.9,1-1.4,1.2-2c1.6-4.2,3.2-8.3,4.9-12.5
			c0.8-1.9,0.4-3-1.7-3.6c-0.9-0.2-1.4-1.4-2.1-2.2c0.9-0.3,1.8-1,2.7-1c4-0.1,8-0.1,12,0c0.8,0,1.6,0.7,2.4,1.1
			c-0.6,0.7-1.1,1.8-1.8,1.9c-2.8,0.4-4.3,2.2-5.4,4.5c-4.1,8.7-8.2,17.5-12.3,26.2c-0.5,1.1-1.2,2-1.9,3.1c-0.8,0-1.6,0-2.5,0
			c-0.8-1.1-1.7-2.2-2.3-3.4c-2.9-5.9-5.8-11.8-8.9-18.3c-2,3.9-3.7,7.3-5.4,10.5c-2,3.7-4.1,7.4-6.1,11.2
			C128.9,71,127.8,71,126.8,71z M132.5,55.1c0.3,0,0.6,0,0.9,0c1.6-3.5,3.4-7,4.8-10.6c1-2.8-0.7-6.1-3.4-6.5
			c-2.6-0.5-5.2-0.3-7.9-0.2c-1.4,0-2.3,0.8-1.6,2.4C127.7,45.2,130.1,50.1,132.5,55.1z"/>
		<path d="M190.8,71c-2.4-0.6-5-1-7.3-1.8c-7-2.4-11.5-7.1-12.3-14.5c-0.8-7.6,1.9-13.9,8.6-17.9c8.9-5.2,18.2-5.3,27.2-0.4
			c7.1,3.9,9.3,10.5,8.4,18.2c-0.9,7.4-5.4,12.1-12.3,14.5c-2.6,0.9-5.3,1.3-7.9,1.9C193.7,71,192.2,71,190.8,71z M202.1,52.6
			c-1-3.6-1.7-8.1-3.6-12c-2.4-4.9-8.2-4.8-11.1-0.2c-3.5,5.6-2.8,18.6,1.4,23.6c3.5,4.3,9.3,3.6,11.3-1.6
			C201.1,59.6,201.3,56.5,202.1,52.6z"/>
		<path d="M85.6,71c-1.2-0.3-2.3-0.6-3.5-0.9c-8.6-2.4-13.9-9.2-13.7-17.6c0.2-9,6.4-16.6,15.3-18.7c4.5-1.1,8.9-1.1,13.3,0.6
			c4.7,1.8,7.6,5.1,8.3,10.1c0.4,3.2-0.3,4.2-3.5,4.3C96,49,90.1,48.9,84.3,48.9c-3.7,0-4.2,0.4-3.4,4.1c1,4.9,3.8,8.3,8.7,9.8
			c4.8,1.4,9.5,1.4,13.3-2.7c0.5-0.5,1.7-0.4,2.5-0.6c0,0.9,0.5,2,0.1,2.7c-2.8,4.7-7.1,7.5-12.5,8.5c-0.6,0.1-1.2,0.4-1.7,0.5
			C89.3,71,87.4,71,85.6,71z M86.9,44.7c1,0,2,0,3,0c1.9-0.1,4.2,0,4.2-2.8c0-2.5-1.3-4.2-3.9-4.6c-3.1-0.5-5.7,0.5-7.5,3
			c-0.7,1-0.9,2.4-1.3,3.5c1.1,0.3,2.2,0.7,3.3,0.9C85.5,44.8,86.2,44.7,86.9,44.7z"/>
		<path d="M230.7,31.6c0,2.3,0,3.8,0,6.1c1.5-1,2.5-1.8,3.7-2.3c1.8-0.9,3.6-1.9,5.6-2.3c2.5-0.5,5.1,0.2,5.8,2.7
			c0.5,1.9,0.1,4.6-1,6.1c-1.6,2.3-4.4,2.1-7,1.3c-0.4-0.1-0.7-0.5-1-0.7c-1.5-0.7-3.1-1.3-4.6-1.9c-0.5,1.7-1.3,3.4-1.3,5.1
			c-0.1,5.5-0.1,11,0,16.5c0.1,3.5,0.8,4.1,4.4,4.5c1,0.1,2,1.1,2.9,1.7c-1.1,0.5-2.1,1.3-3.2,1.3c-6.8,0.1-13.5,0.1-20.3,0
			c-0.9,0-1.8-0.9-2.8-1.4c0.8-0.6,1.5-1.5,2.4-1.6c2.4-0.3,3.5-1.4,3.5-3.7c0-6.4,0.1-12.8,0-19.2c0-1.2-1.2-2.3-1.9-3.5
			c-0.5-0.8-1.1-1.5-1.6-2.3c0.8-0.5,1.5-1.2,2.4-1.6c3.6-1.4,7.3-2.7,10.9-4C228.4,32.1,229.3,31.9,230.7,31.6z"/>
	</g>
</g>
</svg>
