<?xml version="1.0" encoding="utf-8"?>
<!-- Generator: Adobe Illustrator 24.3.0, SVG Export Plug-In . SVG Version: 6.00 Build 0)  -->
<svg version="1.1" id="Layer_1" xmlns="http://www.w3.org/2000/svg" xmlns:xlink="http://www.w3.org/1999/xlink" x="0px" y="0px"
	 viewBox="0 0 570.7 295.4" style="enable-background:new 0 0 570.7 295.4;" xml:space="preserve">
<style type="text/css">
	.st0{fill:#BF271B;}
	.st1{fill:#FFFFFF;}
</style>
<path class="st0" d="M335.7,5.8C253,2.3,170.3,14.6,92.2,42C58.6,53.8,23.1,71.2,9,104c-6.8,15.7-7.7,33.2-8.5,50.3
	c-2.1,43.2-0.5,94.3,35.1,118.9c18.9,13.1,43,15.1,65.9,16.5c42.7,2.6,85.4,4.7,128.2,5.5c64.9,1.1,131.2-0.9,192.5-22.2
	c37.2-13,71.7-32.6,105.9-52.1c12.6-7.2,25.7-14.8,34.3-26.5s11.7-28.9,3.2-40.7c-5.2-7.2-13.5-11.3-21.5-15.3
	c-74.4-36.6-123.4-65.7-185.4-120.9C347.6,7.8,335.7,5.8,335.7,5.8z"/>
<g>
	<g>
		<path class="st1" d="M413,246.3l-5.2-14.4l6.3-2.2c1.7-0.6,3.2-0.7,4.3-0.4s1.8,1.2,2.3,2.5c0.2,0.7,0.2,1.6,0,2.3
			c-0.2,0.7-0.9,1.4-1.7,1.8l0,0c1.1-0.2,2-0.1,2.7,0.4c0.7,0.4,1.2,1.1,1.6,2c0.5,1.2,0.4,2.3-0.4,3.4c-0.6,0.9-1.8,1.8-3.6,2.5
			L413,246.3z M412.9,236.9l3.1-1.1c1.6-0.6,2.2-1.5,1.7-2.7s-1.5-1.6-3.1-0.9l-3.1,1.1L412.9,236.9z M415,243l3.3-1.2
			c0.9-0.2,1.4-0.6,1.6-1.1c0.2-0.5,0.4-0.9,0.1-1.6c-0.2-0.6-0.6-0.9-1.1-1.2s-1.2-0.1-2,0.1l-3.3,1.2L415,243z"/>
		<path class="st1" d="M428.5,224.4c1.6-0.6,3.1-0.7,4.3-0.2s2.1,1.4,2.5,2.7c0.5,1.4,0.5,2.7-0.1,3.8c-0.6,1.1-1.8,2-3.4,2.5
			l-0.2,0.1l-3.1,1.2l2.1,5.5l-2.9,1.1l-5.4-14.3L428.5,224.4z M430.6,231.1c0.9-0.4,1.4-0.7,1.7-1.2c0.2-0.5,0.2-1.1,0-1.8
			s-0.6-1.1-1.2-1.4c-0.5-0.2-1.2-0.1-2.1,0.2l-3.1,1.1l1.6,4.1L430.6,231.1z M432.6,231.1l7.3,5.4l-3.4,1.2l-6.3-4.9L432.6,231.1z"
			/>
		<path class="st1" d="M440.6,236.2l-0.5-16.3l3.6-1.5l10.9,12.1l-3.1,1.2l-7.2-8.3l-1.5-1.8l0,0l0.2,2.3l0.6,11L440.6,236.2z
			 M442.3,231.5l-0.9-2.2l7.9-3.2l0.9,2.2L442.3,231.5z"/>
		<path class="st1" d="M462.5,210.3l6.1,14l-3.4,1.5l-8.6-6.1l-2.2-1.7l0,0l1.1,2.5l3.6,8.2l-2.7,1.1l-6.1-14l3.3-1.5l8.6,6.1
			l2.2,1.8l0,0l-1.1-2.5l-3.6-8.1L462.5,210.3z"/>
		<path class="st1" d="M470.9,206.4c2.2-0.9,4.1-1.2,5.9-0.6c1.7,0.7,3.2,2.1,4.3,4.3c1.1,2.2,1.2,4.1,0.6,6c-0.6,1.7-2,3.2-4.1,4.1
			l-5.4,2.5l-6.6-13.8L470.9,206.4z M476.3,218c1.4-0.6,2.1-1.5,2.5-2.5s0.1-2.5-0.6-3.9s-1.6-2.5-2.7-2.9c-1.1-0.5-2.2-0.4-3.6,0.2
			l-2.3,1.1l4.4,9.2L476.3,218z"/>
	</g>
</g>
<g>
	<path class="st1" d="M73.1,131.7c-0.6,2.1-1.6,3.9-3,5.4c-1.4,1.4-3,2.5-4.9,3.2s-3.9,1.1-6.2,1.1c-3.3,0-6.1-0.7-8.5-2.1
		c-2.4-1.4-4.2-3.3-5.5-5.9c-1.3-2.5-1.9-5.6-1.9-9.1s0.6-6.6,1.9-9.1c1.3-2.5,3.1-4.5,5.5-5.9s5.2-2.1,8.4-2.1
		c2.3,0,4.3,0.3,6.2,0.9c1.8,0.6,3.4,1.6,4.7,2.8c1.3,1.3,2.2,2.9,2.8,4.8l-6.3,2.7c-0.6-2-1.4-3.4-2.6-4.3
		c-1.2-0.9-2.7-1.3-4.5-1.3s-3.4,0.4-4.7,1.3c-1.4,0.9-2.4,2.1-3.1,3.8c-0.7,1.7-1.1,3.8-1.1,6.2c0,2.4,0.3,4.5,1,6.2s1.7,3,3,3.9
		s3,1.3,4.9,1.3c1.8,0,3.4-0.5,4.7-1.5c1.3-1,2.2-2.4,2.8-4.4L73.1,131.7z"/>
	<path class="st1" d="M78.3,140.8v-36h6.9V120c0.8-1.6,1.9-2.8,3.3-3.6c1.4-0.8,3-1.2,4.8-1.2c1.7,0,3.3,0.3,4.6,1
		c1.4,0.7,2.4,1.7,3.2,3c0.8,1.4,1.2,3,1.2,5.1v16.4h-6.9v-14.4c0-2.2-0.4-3.7-1.3-4.5c-0.8-0.8-1.9-1.2-3.2-1.2
		c-1,0-1.9,0.2-2.8,0.7s-1.6,1.2-2.2,2.2s-0.8,2.4-0.8,4v13.2h-6.8C78.3,140.7,78.3,140.8,78.3,140.8z"/>
	<path class="st1" d="M123.5,124.9c0-1.4-0.4-2.6-1.2-3.4c-0.8-0.8-1.9-1.2-3.2-1.2c-1.2,0-2.3,0.3-3.3,1c-0.9,0.6-1.6,1.7-2.1,3.2
		l-5.9-1.8c0.6-2.2,1.8-4,3.7-5.3c1.9-1.3,4.5-2,7.7-2c2.2,0,4.1,0.3,5.8,1c1.6,0.7,2.9,1.7,3.8,3.1c0.9,1.4,1.4,3.1,1.4,5.2v10.2
		c0,1.3,0.6,1.9,1.8,1.9c0.6,0,1.1-0.1,1.6-0.2l-0.4,4.3c-0.9,0.4-2,0.7-3.3,0.7c-1.2,0-2.2-0.2-3.2-0.6c-0.9-0.4-1.7-1-2.2-1.8
		s-0.8-1.8-0.8-3.1v-0.2l1.2-0.2c-0.2,1.3-0.8,2.3-1.7,3.2c-0.9,0.9-2,1.6-3.3,2c-1.3,0.5-2.6,0.7-4,0.7c-1.7,0-3.2-0.3-4.4-0.8
		c-1.2-0.5-2.2-1.3-2.9-2.3c-0.7-1-1-2.2-1-3.7c0-1.9,0.6-3.4,1.8-4.6c1.2-1.2,2.9-2,5.2-2.4l9.4-1.9l-0.1,4.3l-6,1.2
		c-1.1,0.2-2,0.5-2.6,0.9s-0.9,1-0.9,1.9c0,0.8,0.3,1.5,0.9,1.9s1.4,0.7,2.2,0.7c0.7,0,1.4-0.1,2.1-0.3s1.3-0.4,1.8-0.8
		c0.5-0.4,1-0.9,1.3-1.5s0.5-1.4,0.5-2.3v-7L123.5,124.9L123.5,124.9z"/>
	<path class="st1" d="M148,141.3c-2.5,0-4.8-0.5-6.9-1.4c-2.1-0.9-3.8-2.2-5.1-3.8l4-4c0.8,1.2,1.9,2.2,3.2,3s2.9,1.2,4.8,1.2
		c1.3,0,2.3-0.2,3.1-0.6c0.8-0.4,1.2-1,1.2-1.8c0-0.5-0.2-1-0.6-1.4c-0.4-0.4-1.1-0.7-2.2-0.9l-4.4-0.9c-2.9-0.6-5-1.5-6.2-2.7
		s-1.8-2.8-1.8-4.7c0-1.4,0.4-2.7,1.2-3.9c0.8-1.2,2-2.2,3.7-2.9c1.6-0.8,3.7-1.1,6.1-1.1c2.5,0,4.7,0.4,6.5,1.2
		c1.9,0.8,3.3,1.9,4.4,3.5l-4.1,4c-0.7-1.2-1.7-2.1-2.9-2.7s-2.4-0.9-3.7-0.9c-0.9,0-1.7,0.1-2.4,0.3s-1.2,0.5-1.5,0.8
		c-0.3,0.4-0.5,0.8-0.5,1.3s0.2,1,0.7,1.4s1.3,0.7,2.6,1l5.1,1.1c2.5,0.5,4.2,1.3,5.3,2.5s1.6,2.6,1.6,4.3c0,1.6-0.4,3-1.3,4.3
		c-0.9,1.3-2.1,2.2-3.8,3S150.4,141.3,148,141.3z"/>
	<path class="st1" d="M176.1,141.3c-2.6,0-4.9-0.5-6.9-1.6c-2-1-3.5-2.5-4.5-4.5c-1.1-1.9-1.6-4.3-1.6-7s0.5-5.1,1.6-7
		s2.6-3.4,4.5-4.5c1.9-1,4.1-1.6,6.6-1.6s4.7,0.5,6.5,1.5s3.1,2.4,4.1,4.2c0.9,1.8,1.4,3.7,1.4,6c0,0.7,0,1.3-0.1,1.9
		c0,0.6-0.1,1.1-0.1,1.6h-20v-4.8h17l-3.3,1.2c0-2.1-0.5-3.7-1.4-4.9c-1-1.1-2.3-1.7-4-1.7c-1.3,0-2.4,0.3-3.3,0.9
		c-0.9,0.6-1.6,1.5-2.1,2.7s-0.7,2.7-0.7,4.5s0.3,3.2,0.8,4.4s1.3,2,2.2,2.6c1,0.6,2.1,0.9,3.4,0.9c1.5,0,2.7-0.3,3.6-0.9
		s1.6-1.4,2.1-2.4l5.5,2.1c-0.5,1.3-1.3,2.4-2.4,3.4c-1.1,0.9-2.4,1.6-3.9,2.1C179.4,141.1,177.8,141.3,176.1,141.3z"/>
	<path class="st1" d="M221.5,107.3c3,0,5.6,0.5,7.9,1.6c2.3,1,4.2,2.6,5.8,4.6l-3.9,4.5c-1.4-1.7-2.9-3-4.5-3.8s-3.5-1.2-5.6-1.2
		c-1.4,0-2.6,0.2-3.5,0.6s-1.6,0.9-2,1.5s-0.6,1.3-0.6,2c0,0.9,0.4,1.7,1.1,2.3c0.7,0.6,1.9,1.1,3.6,1.5l6.2,1.4
		c3.3,0.7,5.6,1.8,7,3.3s2.1,3.3,2.1,5.6c0,2.2-0.6,4-1.7,5.6c-1.1,1.6-2.7,2.7-4.8,3.6c-2,0.8-4.4,1.2-7,1.2
		c-2.3,0-4.4-0.3-6.3-0.8c-1.9-0.6-3.6-1.3-5.1-2.3s-2.8-2.1-3.8-3.4l3.9-4.7c0.8,1.1,1.7,2,2.9,2.9c1.1,0.8,2.4,1.5,3.9,2
		s3,0.7,4.6,0.7c1.4,0,2.5-0.2,3.5-0.5s1.7-0.8,2.2-1.4c0.5-0.6,0.7-1.3,0.7-2.1c0-0.9-0.3-1.6-0.9-2.2c-0.6-0.6-1.7-1.1-3.2-1.4
		l-6.7-1.5c-1.9-0.5-3.6-1.1-5-1.8c-1.4-0.8-2.4-1.7-3.2-2.9c-0.7-1.2-1.1-2.6-1.1-4.2c0-2,0.5-3.7,1.6-5.3c1.1-1.6,2.6-2.8,4.6-3.7
		C216.3,107.8,218.7,107.3,221.5,107.3z"/>
	<path class="st1" d="M255,124.9c0-1.4-0.4-2.6-1.2-3.4s-1.9-1.2-3.2-1.2c-1.2,0-2.3,0.3-3.3,1c-0.9,0.6-1.6,1.7-2.1,3.2l-5.9-1.8
		c0.6-2.2,1.8-4,3.7-5.3s4.5-2,7.7-2c2.2,0,4.1,0.3,5.8,1c1.6,0.7,2.9,1.7,3.8,3.1s1.4,3.1,1.4,5.2v10.2c0,1.3,0.6,1.9,1.8,1.9
		c0.6,0,1.1-0.1,1.6-0.2l-0.4,4.3c-0.9,0.4-2,0.7-3.3,0.7c-1.2,0-2.2-0.2-3.2-0.6c-0.9-0.4-1.7-1-2.2-1.8c-0.5-0.8-0.8-1.8-0.8-3.1
		v-0.2l1.2-0.2c-0.2,1.3-0.8,2.3-1.7,3.2s-2,1.6-3.3,2c-1.3,0.5-2.6,0.7-4,0.7c-1.7,0-3.2-0.3-4.4-0.8s-2.2-1.3-2.9-2.3
		s-1-2.2-1-3.7c0-1.9,0.6-3.4,1.8-4.6c1.2-1.2,2.9-2,5.2-2.4l9.4-1.9l-0.1,4.3l-6,1.2c-1.1,0.2-2,0.5-2.6,0.9s-0.9,1-0.9,1.9
		c0,0.8,0.3,1.5,0.9,1.9c0.6,0.4,1.4,0.7,2.2,0.7c0.7,0,1.4-0.1,2.1-0.3c0.7-0.2,1.3-0.4,1.8-0.8c0.5-0.4,1-0.9,1.3-1.5
		s0.5-1.4,0.5-2.3v-7L255,124.9L255,124.9z"/>
	<path class="st1" d="M269.4,151.4v-35.5h6.2l0.4,8l-0.8-0.9c0.3-1.5,0.9-2.8,1.7-3.9c0.8-1.1,1.9-2,3.1-2.7c1.3-0.7,2.7-1,4.3-1
		c2,0,3.9,0.5,5.5,1.6c1.6,1,2.9,2.5,3.8,4.4s1.4,4.2,1.4,7c0,2.7-0.5,5.1-1.4,7c-0.9,2-2.2,3.4-3.8,4.5c-1.6,1-3.5,1.6-5.5,1.6
		c-2.2,0-4-0.6-5.5-1.9c-1.5-1.2-2.4-2.8-3-4.7l0.7-1.1v17.6L269.4,151.4L269.4,151.4z M282.1,136.1c1.8,0,3.3-0.7,4.3-2
		c1.1-1.3,1.6-3.2,1.6-5.8c0-2.5-0.5-4.5-1.5-5.8s-2.4-2-4.3-2c-1.2,0-2.2,0.3-3.1,0.9s-1.6,1.5-2.1,2.7s-0.8,2.5-0.8,4.2
		c0,1.6,0.2,3,0.7,4.2s1.1,2.1,2,2.7C279.9,135.8,280.9,136.1,282.1,136.1z"/>
	<path class="st1" d="M300.8,151.4v-35.5h6.2l0.5,8l-0.9-0.9c0.3-1.5,0.9-2.8,1.7-3.9c0.8-1.1,1.9-2,3.1-2.7c1.3-0.7,2.7-1,4.3-1
		c2,0,3.9,0.5,5.5,1.6c1.6,1,2.9,2.5,3.8,4.4s1.4,4.2,1.4,7c0,2.7-0.5,5.1-1.4,7s-2.2,3.4-3.8,4.5c-1.6,1-3.5,1.6-5.5,1.6
		c-2.2,0-4-0.6-5.5-1.9c-1.5-1.2-2.4-2.8-3-4.7l0.7-1.1v17.6L300.8,151.4L300.8,151.4z M313.5,136.1c1.8,0,3.3-0.7,4.3-2
		c1.1-1.3,1.6-3.2,1.6-5.8c0-2.5-0.5-4.5-1.5-5.8s-2.4-2-4.3-2c-1.2,0-2.2,0.3-3.1,0.9s-1.6,1.5-2.1,2.7s-0.8,2.5-0.8,4.2
		c0,1.6,0.2,3,0.7,4.2s1.1,2.1,2,2.7C311.3,135.8,312.3,136.1,313.5,136.1z"/>
	<path class="st1" d="M332.2,140.8v-36h6.9V120c0.8-1.6,1.9-2.8,3.3-3.6c1.4-0.8,3-1.2,4.8-1.2c1.7,0,3.3,0.3,4.6,1
		c1.4,0.7,2.4,1.7,3.2,3c0.8,1.4,1.2,3,1.2,5.1v16.4h-6.9v-14.4c0-2.2-0.4-3.7-1.3-4.5c-0.8-0.8-1.9-1.2-3.2-1.2
		c-1,0-1.9,0.2-2.8,0.7s-1.6,1.2-2.2,2.2s-0.8,2.4-0.8,4v13.2h-6.8L332.2,140.8L332.2,140.8z"/>
	<path class="st1" d="M366.6,112.2c-1.4,0-2.5-0.3-3.2-0.9s-1.1-1.5-1.1-2.7s0.4-2.2,1.1-2.8c0.7-0.6,1.8-0.9,3.2-0.9
		c1.4,0,2.5,0.3,3.2,0.9s1.1,1.5,1.1,2.8c0,1.2-0.3,2.1-1.1,2.7C369.1,111.9,368.1,112.2,366.6,112.2z M370,115.8v25h-6.9v-25H370z"
		/>
	<path class="st1" d="M377.3,140.8v-25h6l0.5,4.9c0.7-1.7,1.6-3.1,2.9-4s2.9-1.4,4.8-1.4c0.6,0,1.1,0,1.6,0.1s0.9,0.2,1.2,0.4
		l-0.8,5.8c-0.3-0.1-0.7-0.2-1.2-0.3c-0.5-0.1-1.1-0.1-1.9-0.1c-1,0-2,0.2-2.9,0.7s-1.7,1.2-2.3,2.2c-0.6,1-0.9,2.2-0.9,3.7v13
		L377.3,140.8L377.3,140.8z"/>
	<path class="st1" d="M409.5,141.3c-2.6,0-4.9-0.5-6.9-1.6c-2-1-3.5-2.5-4.5-4.5c-1.1-1.9-1.6-4.3-1.6-7s0.5-5.1,1.6-7
		s2.6-3.4,4.5-4.5c1.9-1,4.1-1.6,6.6-1.6s4.7,0.5,6.5,1.5s3.1,2.4,4.1,4.2c0.9,1.8,1.4,3.7,1.4,6c0,0.7,0,1.3,0,1.9
		s-0.1,1.1-0.2,1.6h-20v-4.8h17l-3.3,1.2c0-2.1-0.5-3.7-1.4-4.9c-1-1.1-2.3-1.7-4-1.7c-1.3,0-2.4,0.3-3.3,0.9s-1.6,1.5-2.1,2.7
		s-0.7,2.7-0.7,4.5s0.3,3.2,0.8,4.4s1.3,2,2.2,2.6s2.1,0.9,3.4,0.9c1.5,0,2.7-0.3,3.6-0.9s1.6-1.4,2.1-2.4l5.5,2.1
		c-0.5,1.3-1.3,2.4-2.4,3.4c-1.1,0.9-2.4,1.6-3.9,2.1C412.8,141.1,411.2,141.3,409.5,141.3z"/>
	<path class="st1" d="M59.4,167.9c3.7,0,6.7,0.9,8.8,2.7c2.1,1.8,3.2,4.2,3.2,7.3c0,3.2-1.1,5.7-3.2,7.4s-5.1,2.6-8.8,2.6l-0.7,0.4
		h-7.1V201h-6.8v-33L59.4,167.9L59.4,167.9z M58.6,183c1.9,0,3.4-0.4,4.3-1.2c1-0.8,1.4-2,1.4-3.6s-0.5-2.8-1.4-3.6
		c-1-0.8-2.4-1.2-4.3-1.2h-7v9.6H58.6z M62.6,184.4l10.7,16.5h-7.8l-8.9-14.5L62.6,184.4z"/>
	<path class="st1" d="M89.2,201.4c-2.6,0-4.9-0.5-6.9-1.6c-2-1-3.5-2.5-4.5-4.5c-1.1-1.9-1.6-4.3-1.6-7s0.5-5.1,1.6-7
		s2.6-3.4,4.5-4.5c1.9-1,4.1-1.6,6.6-1.6s4.7,0.5,6.5,1.5s3.1,2.4,4.1,4.2c0.9,1.8,1.4,3.7,1.4,6c0,0.7,0,1.3-0.1,1.9
		s-0.1,1.1-0.1,1.6h-20v-4.8h17l-3.3,1.2c0-2.1-0.5-3.7-1.4-4.9c-1-1.1-2.3-1.7-4-1.7c-1.3,0-2.4,0.3-3.3,0.9
		c-0.9,0.6-1.6,1.5-2.1,2.7s-0.7,2.7-0.7,4.5s0.3,3.2,0.8,4.4s1.3,2,2.2,2.6c1,0.6,2.1,0.9,3.4,0.9c1.5,0,2.7-0.3,3.6-0.9
		c0.9-0.6,1.6-1.4,2.1-2.4l5.5,2.1c-0.5,1.3-1.3,2.4-2.4,3.4c-1.1,0.9-2.4,1.6-3.9,2.1C92.5,201.2,90.9,201.4,89.2,201.4z"/>
	<path class="st1" d="M116.6,201.4c-2.5,0-4.8-0.5-6.9-1.4s-3.8-2.2-5.1-3.8l4-4c0.8,1.2,1.9,2.2,3.2,3c1.3,0.8,2.9,1.2,4.8,1.2
		c1.3,0,2.3-0.2,3.1-0.6c0.8-0.4,1.2-1,1.2-1.8c0-0.5-0.2-1-0.6-1.4s-1.1-0.7-2.2-0.9l-4.4-0.9c-2.9-0.6-5-1.5-6.2-2.7
		s-1.8-2.8-1.8-4.7c0-1.4,0.4-2.7,1.2-3.9c0.8-1.2,2-2.2,3.7-2.9c1.6-0.8,3.7-1.1,6.1-1.1c2.5,0,4.7,0.4,6.5,1.2s3.3,1.9,4.4,3.5
		l-4.1,4c-0.7-1.2-1.7-2.1-2.9-2.7c-1.2-0.6-2.4-0.9-3.7-0.9c-0.9,0-1.7,0.1-2.4,0.3s-1.2,0.5-1.5,0.8c-0.3,0.4-0.5,0.8-0.5,1.3
		s0.2,1,0.7,1.4s1.3,0.7,2.6,1l5.1,1.1c2.5,0.5,4.2,1.3,5.3,2.5c1.1,1.2,1.6,2.6,1.6,4.3c0,1.6-0.4,3-1.3,4.3s-2.1,2.2-3.8,3
		C121,201.1,119,201.4,116.6,201.4z"/>
	<path class="st1" d="M144.7,201.4c-2.6,0-4.9-0.5-6.9-1.6c-2-1-3.5-2.5-4.5-4.5c-1.1-1.9-1.6-4.3-1.6-7s0.5-5.1,1.6-7
		s2.6-3.4,4.5-4.5c1.9-1,4.1-1.6,6.6-1.6s4.7,0.5,6.5,1.5s3.1,2.4,4.1,4.2c0.9,1.8,1.4,3.7,1.4,6c0,0.7,0,1.3-0.1,1.9
		s-0.1,1.1-0.1,1.6h-20v-4.8h17l-3.3,1.2c0-2.1-0.5-3.7-1.4-4.9c-1-1.1-2.3-1.7-4-1.7c-1.3,0-2.4,0.3-3.3,0.9
		c-0.9,0.6-1.6,1.5-2.1,2.7s-0.7,2.7-0.7,4.5s0.3,3.2,0.8,4.4s1.3,2,2.2,2.6c1,0.6,2.1,0.9,3.4,0.9c1.5,0,2.7-0.3,3.6-0.9
		c0.9-0.6,1.6-1.4,2.1-2.4l5.5,2.1c-0.5,1.3-1.3,2.4-2.4,3.4c-1.1,0.9-2.4,1.6-3.9,2.1C148,201.2,146.4,201.4,144.7,201.4z"/>
	<path class="st1" d="M162,200.9v-25h6l0.5,4.9c0.7-1.7,1.6-3.1,2.9-4c1.3-0.9,2.9-1.4,4.8-1.4c0.6,0,1.1,0.1,1.6,0.2
		c0.5,0.1,0.9,0.2,1.2,0.4l-0.8,5.8c-0.3-0.1-0.7-0.2-1.2-0.3s-1.1-0.1-1.9-0.1c-1,0-2,0.2-2.9,0.7s-1.7,1.2-2.3,2.2
		s-0.9,2.2-0.9,3.7v13L162,200.9L162,200.9z"/>
	<path class="st1" d="M199.6,175.9h7.1l-9.5,25h-7.9l-9.5-25h7.3l6.2,19.8L199.6,175.9z"/>
	<path class="st1" d="M221.8,201.4c-2.6,0-4.9-0.5-6.9-1.6c-2-1-3.5-2.5-4.5-4.5c-1.1-1.9-1.6-4.3-1.6-7s0.5-5.1,1.6-7
		s2.6-3.4,4.5-4.5c1.9-1,4.1-1.6,6.6-1.6s4.7,0.5,6.5,1.5s3.1,2.4,4.1,4.2c0.9,1.8,1.4,3.7,1.4,6c0,0.7,0,1.3-0.1,1.9
		s-0.1,1.1-0.1,1.6h-20v-4.8h17l-3.3,1.2c0-2.1-0.5-3.7-1.4-4.9c-1-1.1-2.3-1.7-4-1.7c-1.3,0-2.4,0.3-3.3,0.9
		c-0.9,0.6-1.6,1.5-2.1,2.7s-0.7,2.7-0.7,4.5s0.3,3.2,0.8,4.4s1.3,2,2.2,2.6c1,0.6,2.1,0.9,3.4,0.9c1.5,0,2.7-0.3,3.6-0.9
		c0.9-0.6,1.6-1.4,2.1-2.4l5.5,2.1c-0.5,1.3-1.3,2.4-2.4,3.4c-1.1,0.9-2.4,1.6-3.9,2.1C225.1,201.2,223.5,201.4,221.8,201.4z"/>
</g>
</svg>
