<?xml version="1.0" encoding="utf-8"?>
<!-- Generator: Adobe Illustrator 25.0.1, SVG Export Plug-In . SVG Version: 6.00 Build 0)  -->
<svg version="1.1" id="Layer_1" xmlns="http://www.w3.org/2000/svg" xmlns:xlink="http://www.w3.org/1999/xlink" x="0px" y="0px"
	 viewBox="0 0 494 530.8" style="enable-background:new 0 0 494 530.8;" xml:space="preserve">
<style type="text/css">
	.st0{fill:#374550;}
	.st1{fill:#FFFFFF;}
</style>
<path class="st0" d="M236.2,61.5c-23.7-51.1-90.9-74-143.8-54.6S4.2,81.3,0.4,137.5c-3.1,46.5,12.6,92,17.2,138.3
	c4.5,45.5-1.2,93.8,19.2,134.8c17.6,35.4,51.9,59.1,85.7,79.6c28.9,17.6,59.4,34.4,93,39.2c31.7,4.5,63.7-1.9,95-8.4
	c59.9-12.4,125.5-28.9,160.3-79.2c27.1-39.2,28.7-92.1,13.8-137.4s-44.5-84.3-76.4-119.8C355.8,126,290,83.5,223.6,41.5"/>
<g>
	<path class="st1" d="M97,226.8l-10.6-36.6h8.1l7.2,30.2l7.3-30.2h7.3l7.4,30.2l7.2-30.2h7.8l-10.6,36.6h-8.6l-5.1-20l-1.7-8.6h-0.1
		l-1.7,8.6l-5,20L97,226.8L97,226.8z"/>
	<path class="st1" d="M147.7,195.1c-1.6,0-2.8-0.3-3.5-1c-0.8-0.7-1.2-1.7-1.2-3c0-1.4,0.4-2.4,1.2-3.1c0.8-0.7,2-1,3.5-1
		c1.6,0,2.8,0.3,3.5,1c0.8,0.7,1.2,1.7,1.2,3.1c0,1.3-0.4,2.3-1.2,3C150.5,194.7,149.3,195.1,147.7,195.1z M151.5,199v27.7h-7.6V199
		H151.5z"/>
	<path class="st1" d="M186,199l-10.7,15l-2.3-0.2l-8.1,13h-8.6l11.5-15.7l2.2,0.3l7.4-12.3h8.6V199z M165.7,199l7.3,12.1l2.1-0.1
		l11.1,15.6h-8.8l-7.6-12.4l-2.2-0.2l-10.8-15H165.7z"/>
	<path class="st1" d="M97,293.3l-10.6-36.6h8.1l7.2,30.2l7.3-30.2h7.3l7.4,30.2l7.2-30.2h7.8l-10.6,36.6h-8.6l-5.1-20l-1.7-8.6h-0.1
		l-1.7,8.6l-5,20H97z"/>
	<path class="st1" d="M154.2,293.8c-2.9,0-5.5-0.6-7.6-1.7c-2.2-1.1-3.8-2.8-5-4.9s-1.8-4.7-1.8-7.8c0-3,0.6-5.6,1.8-7.8
		c1.2-2.1,2.8-3.8,5-4.9c2.1-1.1,4.6-1.7,7.3-1.7c2.8,0,5.2,0.6,7.2,1.7s3.5,2.7,4.5,4.6s1.6,4.1,1.6,6.6c0,0.7,0,1.4-0.1,2.1
		c0,0.7-0.1,1.3-0.2,1.8h-22.1v-5.3h18.8l-3.7,1.3c0-2.3-0.5-4.1-1.6-5.4s-2.5-1.9-4.5-1.9c-1.4,0-2.6,0.3-3.6,1s-1.8,1.7-2.3,3
		s-0.8,3-0.8,5s0.3,3.6,0.9,4.9c0.6,1.3,1.4,2.2,2.4,2.9c1.1,0.6,2.3,0.9,3.8,0.9c1.6,0,2.9-0.3,3.9-0.9s1.8-1.5,2.3-2.6l6,2.3
		c-0.6,1.4-1.5,2.7-2.7,3.7s-2.6,1.8-4.3,2.4C157.8,293.6,156.1,293.8,154.2,293.8z"/>
	<path class="st1" d="M189.7,293.8c-1.7,0-3.2-0.4-4.6-1.1c-1.4-0.7-2.5-1.7-3.4-3s-1.5-2.7-1.9-4.3l0.8-1l-0.4,8.8h-6.7v-39.9h7.6
		v20l-0.7-1.2c0.6-2.1,1.7-3.8,3.4-5.2c1.7-1.4,3.8-2.1,6.3-2.1c2.2,0,4.2,0.6,5.9,1.7c1.8,1.1,3.2,2.8,4.2,4.9s1.5,4.7,1.5,7.8
		c0,3-0.5,5.6-1.5,7.7s-2.4,3.8-4.2,4.9C194.1,293.3,192,293.8,189.7,293.8z M187.5,288c2,0,3.6-0.7,4.8-2.2s1.7-3.6,1.7-6.4
		s-0.6-4.9-1.7-6.4c-1.1-1.5-2.7-2.2-4.8-2.2c-1.3,0-2.5,0.4-3.4,1.1c-1,0.7-1.7,1.7-2.2,3s-0.8,2.8-0.8,4.6c0,1.8,0.3,3.4,0.8,4.6
		c0.5,1.3,1.3,2.2,2.3,2.9C185.1,287.7,186.2,288,187.5,288z"/>
	<path class="st1" d="M219.3,293.8c-2.8,0-5.4-0.5-7.7-1.5s-4.2-2.4-5.6-4.2l4.4-4.4c0.9,1.3,2.1,2.4,3.5,3.3
		c1.5,0.9,3.2,1.3,5.3,1.3c1.4,0,2.6-0.2,3.5-0.6s1.3-1.1,1.3-2c0-0.6-0.2-1.1-0.6-1.5c-0.4-0.4-1.2-0.8-2.4-1l-4.9-1
		c-3.2-0.7-5.5-1.7-6.8-3s-2-3.1-2-5.2c0-1.5,0.5-2.9,1.4-4.3c0.9-1.3,2.3-2.4,4.1-3.2c1.8-0.8,4.1-1.2,6.8-1.2
		c2.8,0,5.2,0.4,7.2,1.3c2.1,0.9,3.7,2.2,4.9,3.9l-4.5,4.4c-0.8-1.3-1.9-2.3-3.2-3s-2.7-1-4.1-1c-1,0-1.9,0.1-2.7,0.3
		c-0.7,0.2-1.3,0.5-1.7,0.9s-0.6,0.9-0.6,1.5s0.3,1.1,0.8,1.5s1.5,0.8,2.8,1.1l5.7,1.2c2.7,0.6,4.7,1.5,5.9,2.8s1.8,2.9,1.8,4.7
		c0,1.8-0.5,3.4-1.4,4.7s-2.3,2.5-4.2,3.3C224.2,293.4,221.9,293.8,219.3,293.8z"/>
	<path class="st1" d="M241.4,261.6c-1.6,0-2.8-0.3-3.5-1c-0.8-0.7-1.2-1.7-1.2-3c0-1.4,0.4-2.4,1.2-3.1c0.8-0.7,2-1,3.5-1
		c1.6,0,2.8,0.3,3.5,1c0.8,0.7,1.2,1.7,1.2,3.1c0,1.3-0.4,2.3-1.2,3C244.2,261.2,243,261.6,241.4,261.6z M245.2,265.6v27.7h-7.6
		v-27.7H245.2z"/>
	<path class="st1" d="M271.9,265.6v5.7h-21.6v-5.7H271.9z M263.1,257.1v27.2c0,1.3,0.3,2.3,1,2.9s1.6,0.9,2.8,0.9
		c0.9,0,1.7-0.1,2.4-0.4s1.3-0.7,1.9-1.1l1.2,5c-0.9,0.7-2,1.3-3.3,1.7c-1.3,0.4-2.7,0.6-4.2,0.6c-1.8,0-3.5-0.3-4.9-0.8
		c-1.4-0.6-2.5-1.4-3.3-2.7s-1.2-2.8-1.2-4.9v-26.3L263.1,257.1z"/>
	<path class="st1" d="M290,293.8c-2.9,0-5.5-0.6-7.6-1.7s-3.8-2.8-5-4.9s-1.8-4.7-1.8-7.8c0-3,0.6-5.6,1.8-7.8
		c1.2-2.1,2.8-3.8,5-4.9c2.1-1.1,4.6-1.7,7.3-1.7c2.8,0,5.2,0.6,7.2,1.7s3.5,2.7,4.5,4.6s1.6,4.1,1.6,6.6c0,0.7,0,1.4-0.1,2.1
		c0,0.7-0.1,1.3-0.2,1.8h-22.1v-5.3h18.8l-3.7,1.3c0-2.3-0.5-4.1-1.6-5.4s-2.5-1.9-4.5-1.9c-1.4,0-2.6,0.3-3.6,1s-1.8,1.7-2.3,3
		s-0.8,3-0.8,5s0.3,3.6,0.9,4.9s1.4,2.2,2.4,2.9c1.1,0.6,2.3,0.9,3.8,0.9c1.6,0,2.9-0.3,3.9-0.9s1.8-1.5,2.3-2.6l6,2.3
		c-0.6,1.4-1.5,2.7-2.7,3.7s-2.6,1.8-4.3,2.4C293.6,293.6,291.8,293.8,290,293.8z"/>
	<path class="st1" d="M104.2,323.2c5.7,0,10.2,1.6,13.3,4.7c3.1,3.2,4.7,7.7,4.7,13.6c0,5.8-1.6,10.3-4.7,13.5s-7.6,4.8-13.3,4.8
		H90.1v-36.6H104.2z M103.9,353.7c3.5,0,6.1-1,7.8-3.1c1.8-2.1,2.6-5.1,2.6-9.1s-0.9-7-2.6-9.1c-1.8-2.1-4.4-3.1-7.8-3.1h-6.1v24.4
		L103.9,353.7L103.9,353.7z"/>
	<path class="st1" d="M142,360.4c-2.9,0-5.5-0.6-7.6-1.7c-2.2-1.1-3.8-2.8-5-4.9s-1.8-4.7-1.8-7.8c0-3,0.6-5.6,1.8-7.8
		c1.2-2.1,2.8-3.8,5-4.9c2.1-1.1,4.6-1.7,7.3-1.7c2.8,0,5.2,0.6,7.2,1.7s3.5,2.7,4.5,4.6s1.6,4.1,1.6,6.6c0,0.7,0,1.4-0.1,2.1
		c0,0.7-0.1,1.3-0.2,1.8h-22.1v-5.3h18.8l-3.7,1.3c0-2.3-0.5-4.1-1.6-5.4s-2.5-1.9-4.5-1.9c-1.4,0-2.6,0.3-3.6,1s-1.8,1.7-2.3,3
		s-0.8,3-0.8,5s0.3,3.6,0.9,4.9c0.6,1.3,1.4,2.2,2.4,2.9c1.1,0.6,2.3,0.9,3.8,0.9c1.6,0,2.9-0.3,3.9-0.9s1.8-1.5,2.3-2.6l6,2.3
		c-0.6,1.4-1.5,2.7-2.7,3.7s-2.6,1.8-4.3,2.4C145.7,360.1,143.9,360.4,142,360.4z"/>
	<path class="st1" d="M172.4,360.4c-2.8,0-5.4-0.5-7.7-1.5s-4.2-2.4-5.6-4.2l4.4-4.4c0.9,1.3,2.1,2.4,3.5,3.3
		c1.5,0.9,3.2,1.3,5.3,1.3c1.4,0,2.6-0.2,3.5-0.6s1.3-1.1,1.3-2c0-0.6-0.2-1.1-0.6-1.5c-0.4-0.4-1.2-0.8-2.4-1l-4.9-1
		c-3.2-0.7-5.5-1.7-6.8-3s-2-3.1-2-5.2c0-1.5,0.5-2.9,1.4-4.3c0.9-1.3,2.3-2.4,4.1-3.2c1.8-0.8,4.1-1.2,6.8-1.2
		c2.8,0,5.2,0.4,7.2,1.3c2.1,0.9,3.7,2.2,4.9,3.9l-4.5,4.4c-0.8-1.3-1.9-2.3-3.2-3s-2.7-1-4.1-1c-1,0-1.9,0.1-2.7,0.3
		c-0.7,0.2-1.3,0.5-1.7,0.9s-0.6,0.9-0.6,1.5s0.3,1.1,0.8,1.5s1.5,0.8,2.8,1.1l5.7,1.2c2.7,0.6,4.7,1.5,5.9,2.8s1.8,2.9,1.8,4.7
		c0,1.8-0.5,3.4-1.4,4.7s-2.3,2.5-4.2,3.3C177.3,360,175,360.4,172.4,360.4z"/>
	<path class="st1" d="M194.5,328.1c-1.6,0-2.8-0.3-3.5-1c-0.8-0.7-1.2-1.7-1.2-3c0-1.4,0.4-2.4,1.2-3.1s2-1,3.5-1
		c1.6,0,2.8,0.3,3.5,1c0.8,0.7,1.2,1.7,1.2,3.1c0,1.3-0.4,2.3-1.2,3C197.3,327.8,196.1,328.1,194.5,328.1z M198.3,332.1v27.7h-7.6
		v-27.7H198.3z"/>
	<path class="st1" d="M222.8,354.6c3,0,5.3,0.6,6.9,1.9c1.6,1.3,2.4,3.1,2.4,5.4c0,2.1-0.6,3.9-1.8,5.3s-2.9,2.6-5.1,3.3
		c-2.2,0.7-4.7,1.1-7.6,1.1c-4.8,0-8.3-0.7-10.4-2c-2.2-1.3-3.3-3.1-3.3-5.2c0-1.5,0.6-2.8,1.7-3.8s3.1-1.6,5.8-1.7l-0.3,0.9
		c-1.9-0.3-3.4-1-4.4-1.9s-1.5-2.2-1.5-3.9c0-1.7,0.7-3.1,2-4.2s3.1-1.7,5.3-1.9l3.3,1.6H215c-1.6,0.1-2.7,0.4-3.4,1
		c-0.6,0.5-1,1.1-1,1.8c0,0.8,0.3,1.4,0.9,1.7c0.6,0.4,1.5,0.6,2.6,0.6L222.8,354.6L222.8,354.6z M217.7,331.5
		c2.6,0,4.8,0.4,6.7,1.1c1.9,0.8,3.4,1.8,4.4,3.2c1,1.4,1.5,3.1,1.5,5s-0.5,3.6-1.5,5s-2.5,2.5-4.4,3.2c-1.9,0.8-4.1,1.1-6.7,1.1
		c-4.1,0-7.2-0.8-9.4-2.5s-3.2-4-3.2-6.8c0-2,0.5-3.6,1.5-5s2.5-2.5,4.4-3.2C212.8,331.9,215.1,331.5,217.7,331.5z M217.7,366.5
		c1.9,0,3.5-0.2,4.7-0.5s2.2-0.8,2.8-1.3s0.9-1.1,0.9-1.7c0-0.7-0.3-1.3-0.8-1.7s-1.6-0.6-3-0.6h-9.4c-0.9,0-1.6,0.2-2.2,0.7
		c-0.6,0.4-0.9,1.1-0.9,1.8c0,1,0.7,1.8,2.1,2.4C213.3,366.2,215.2,366.5,217.7,366.5z M217.7,336.3c-1.5,0-2.7,0.4-3.7,1.2
		c-1,0.8-1.4,1.9-1.4,3.4s0.5,2.6,1.4,3.4c1,0.8,2.2,1.2,3.7,1.2s2.7-0.4,3.6-1.2c0.9-0.8,1.4-2,1.4-3.4s-0.5-2.6-1.4-3.4
		C220.4,336.7,219.2,336.3,217.7,336.3z M231.9,325.5l0.9,5.4c-0.1,0-0.3,0-0.5,0s-0.3,0-0.5,0c-1.7,0-3,0.4-3.8,1.1
		c-0.9,0.8-1.3,1.8-1.3,3.1l-3.1-1.3c0-1.5,0.3-2.9,0.9-4.1c0.6-1.3,1.5-2.3,2.6-3.1c1.2-0.8,2.6-1.2,4.2-1.2c0.1,0,0.2,0,0.3,0
		S231.8,325.5,231.9,325.5z"/>
	<path class="st1" d="M236.8,359.8v-27.7h6.8l0.4,8.3l-0.9-0.9c0.4-1.8,1.1-3.3,2.1-4.5s2.1-2.1,3.5-2.6c1.4-0.6,2.9-0.9,4.6-0.9
		c1.9,0,3.6,0.4,5.1,1.1s2.7,1.9,3.5,3.4c0.9,1.5,1.3,3.4,1.3,5.6v18.2h-7.6v-16c0-2.4-0.5-4-1.4-4.9s-2.1-1.4-3.6-1.4
		c-1,0-2,0.2-3,0.7s-1.8,1.3-2.4,2.4c-0.6,1.1-0.9,2.6-0.9,4.4v14.7L236.8,359.8L236.8,359.8z"/>
</g>
<g>
	<path class="st1" d="M172.7,462.4l-3.7,7.3c-0.9,1.7-2,2.8-3.4,3.2c-1.4,0.4-3,0.1-4.8-0.8c-1.8-0.9-3-2-3.5-3.4
		c-0.5-1.3-0.3-2.9,0.6-4.6l3.7-7.3l3.2,1.6l-3.7,7.4c-0.4,0.9-0.6,1.6-0.4,2.3c0.2,0.6,0.6,1.1,1.4,1.5c0.8,0.4,1.5,0.5,2.1,0.2
		c0.6-0.2,1.1-0.8,1.6-1.7l3.7-7.4L172.7,462.4z"/>
	<path class="st1" d="M180.7,480.9l-4-1.7l-0.7-5.1l-4.1,3.1l-3.8-1.6l7.1-4.6l-1.4-8.1l3.9,1.7l0.5,4.8l3.9-3l3.6,1.5l-6.7,4.5
		L180.7,480.9z"/>
	<path class="st1" d="M195.4,470.3l-11.1,13.4l-3.1-1.1l11.1-13.4L195.4,470.3z"/>
	<path class="st1" d="M208.1,475.3l-2.3,7.9c-0.6,1.9-1.5,3.1-2.8,3.8c-1.3,0.6-2.9,0.7-4.9,0.1c-1.9-0.6-3.3-1.5-4-2.7
		c-0.7-1.2-0.8-2.8-0.3-4.7l2.3-7.9l3.5,1l-2.4,7.9c-0.3,1-0.3,1.7,0,2.3c0.3,0.6,0.8,1,1.6,1.3c0.8,0.2,1.5,0.2,2.1-0.1
		c0.5-0.3,1-1,1.2-2l2.4-7.9L208.1,475.3z"/>
	<path class="st1" d="M214,476.7l-3.3,13.5l-3.5-0.8l3.3-13.5L214,476.7z"/>
	<path class="st1" d="M216.2,487.6c0.5,0.1,0.9,0.3,1.2,0.6c0.3,0.3,0.5,0.7,0.5,1.1c0.1,0.4,0.1,0.8,0,1.3
		c-0.1,0.6-0.4,1.2-0.8,1.7c-0.4,0.5-0.8,0.9-1.4,1.3c-0.5,0.3-1.1,0.6-1.6,0.7l-1.2-1.3c0.4-0.1,0.8-0.2,1.2-0.4s0.7-0.4,1-0.6
		s0.5-0.5,0.7-0.7l-0.1-0.1c-0.1,0-0.2,0.1-0.3,0.1s-0.3,0-0.4,0c-0.2-0.1-0.5-0.2-0.7-0.3c-0.2-0.2-0.4-0.4-0.5-0.7
		c-0.1-0.3-0.1-0.6-0.1-1c0.1-0.4,0.3-0.8,0.5-1s0.6-0.4,0.9-0.5C215.5,487.6,215.8,487.6,216.2,487.6z"/>
	<path class="st1" d="M226.6,493.3l1.6-13.8l6.7,0.8c1.7,0.2,2.9,0.7,3.6,1.4c0.7,0.7,1,1.7,0.9,2.9c-0.1,0.8-0.4,1.4-0.9,1.9
		c-0.5,0.5-1.3,0.8-2.2,0.8l0,0c1,0.3,1.8,0.7,2.2,1.4c0.5,0.7,0.6,1.4,0.5,2.2c-0.1,1.2-0.7,2-1.6,2.6c-0.9,0.5-2.2,0.7-3.9,0.5
		L226.6,493.3z M230.4,491.2l2.9,0.4c0.7,0.1,1.2,0,1.5-0.2c0.4-0.2,0.6-0.6,0.6-1.1c0.1-0.5-0.1-0.9-0.3-1.2
		c-0.3-0.3-0.8-0.5-1.4-0.6l-2.9-0.4L230.4,491.2z M231.1,485.5l2.6,0.3c1.3,0.2,2-0.3,2.1-1.3c0.1-1-0.5-1.6-1.7-1.7l-2.6-0.3
		L231.1,485.5z"/>
	<path class="st1" d="M248.8,481.3c1.7,0.1,2.9,0.5,3.8,1.3s1.3,1.9,1.3,3.1c-0.1,1.4-0.5,2.5-1.5,3.2s-2.2,1-3.9,1l-0.3,0.2
		l-2.7-0.1l-0.2,5.1l-3.5-0.1l0.5-13.9L248.8,481.3z M248,487.5c0.7,0,1.2-0.1,1.6-0.4s0.6-0.7,0.6-1.3c0-0.6-0.1-1-0.5-1.3
		c-0.3-0.3-0.9-0.5-1.6-0.5l-2.6-0.1l-0.1,3.5L248,487.5z M250.1,488.4l4.2,7l-4-0.2L247,489L250.1,488.4z"/>
	<path class="st1" d="M255.4,495.4l4.2-14.1l4.3-0.2l5.5,13.6l-3.7,0.2l-3.1-8.8l-0.7-2.2l0,0l-0.5,2.2l-2.4,9L255.4,495.4z
		 M258.4,492.1l-0.1-2.5l7.7-0.4l0.1,2.5L258.4,492.1z"/>
	<path class="st1" d="M282.3,479l1.9,13.7l-4,0.6l-5.3-6.8l-1.3-1.9l0,0l0.4,2.5l1,6.9l-3.2,0.4l-1.9-13.7l4-0.6l5.3,6.8l1.3,1.9
		l0,0l-0.4-2.5l-1-6.9L282.3,479z"/>
	<path class="st1" d="M290.5,477.2c2.1-0.5,3.9-0.3,5.3,0.6c1.4,0.9,2.4,2.4,2.9,4.6c0.5,2.2,0.3,3.9-0.5,5.4
		c-0.8,1.4-2.3,2.4-4.4,2.9L288,492l-3.2-13.5L290.5,477.2z M292.7,488.1c1.1-0.3,1.9-0.8,2.3-1.6s0.4-1.9,0.1-3.2
		c-0.3-1.3-0.8-2.3-1.5-2.9c-0.7-0.6-1.6-0.7-2.7-0.4l-1.9,0.4l1.9,8.2L292.7,488.1z"/>
</g>
</svg>
