<?xml version="1.0" encoding="utf-8"?>
<!-- Generator: Adobe Illustrator 25.0.1, SVG Export Plug-In . SVG Version: 6.00 Build 0)  -->
<svg version="1.1" id="Layer_1" xmlns="http://www.w3.org/2000/svg" xmlns:xlink="http://www.w3.org/1999/xlink" x="0px" y="0px"
	 viewBox="0 0 376.5 351.1" style="enable-background:new 0 0 376.5 351.1;" xml:space="preserve">
<style type="text/css">
	.st0{fill:#E5892E;}
	.st1{fill:#FFFFFF;}
</style>
<path class="st0" d="M134,82.4c-47-9-102.7,6-124.6,48.6c-15.3,29.7-10.8,66.7,5,96.1s41.4,52.3,68.3,72
	c48.5,35.3,109.2,63,167.2,47.8c63.9-16.8,104.6-81.4,119.8-145.6c9.8-41.4,11.1-87.3-10.5-124C335.6,36.9,289,15.8,243.5,5.4
	c-28.9-6.6-61-9.4-86.6,5.6s-38,54-17.3,75.2"/>
<g>
	<path class="st1" d="M93.7,133.7H79.6v6.7h11.1v4.4H79.6v10.7h-5.5v-26.1h19.6V133.7z"/>
	<path class="st1" d="M103.1,127v22.4c0,0.9,0.2,1.6,0.5,1.9c0.3,0.4,0.8,0.6,1.6,0.6c0.4,0,0.8,0,1.1-0.1c0.3-0.1,0.7-0.2,1.1-0.3
		l-0.5,3.6c-0.4,0.3-1,0.5-1.7,0.6s-1.3,0.2-2,0.2c-1.9,0-3.3-0.5-4.2-1.4c-0.9-0.9-1.3-2.4-1.3-4.5v-23H103.1z"/>
	<path class="st1" d="M121.9,142.8c0-1.1-0.3-2-1-2.7c-0.6-0.6-1.5-0.9-2.6-0.9c-1,0-1.8,0.3-2.6,0.8c-0.7,0.5-1.3,1.3-1.6,2.5
		l-4.6-1.4c0.4-1.7,1.4-3.1,2.9-4.2c1.5-1.1,3.6-1.6,6.1-1.6c1.7,0,3.3,0.3,4.6,0.8s2.3,1.4,3,2.4c0.7,1.1,1.1,2.4,1.1,4.1v8
		c0,1,0.5,1.5,1.4,1.5c0.4,0,0.9-0.1,1.3-0.2l-0.3,3.4c-0.7,0.3-1.5,0.5-2.6,0.5c-0.9,0-1.8-0.2-2.5-0.5s-1.3-0.8-1.7-1.4
		c-0.4-0.6-0.6-1.5-0.6-2.4v-0.2l1-0.2c-0.2,1-0.6,1.9-1.3,2.6c-0.7,0.7-1.6,1.2-2.6,1.6c-1,0.4-2.1,0.6-3.1,0.6
		c-1.3,0-2.5-0.2-3.5-0.6c-1-0.4-1.7-1-2.3-1.8c-0.5-0.8-0.8-1.8-0.8-2.9c0-1.5,0.5-2.7,1.4-3.6c0.9-0.9,2.3-1.6,4.1-1.9l7.4-1.5
		v3.4l-4.8,1c-0.9,0.2-1.6,0.4-2,0.7c-0.5,0.3-0.7,0.8-0.7,1.5s0.2,1.2,0.7,1.5s1.1,0.5,1.8,0.5c0.6,0,1.1-0.1,1.6-0.2
		c0.5-0.1,1-0.3,1.4-0.6s0.8-0.7,1-1.2s0.4-1.1,0.4-1.8L121.9,142.8L121.9,142.8z"/>
	<path class="st1" d="M145.9,135.6v4h-15.4v-4H145.9z M139.5,129.6V149c0,0.9,0.2,1.6,0.7,2.1c0.5,0.4,1.2,0.7,2,0.7
		c0.7,0,1.2-0.1,1.7-0.3s1-0.5,1.3-0.8l0.9,3.6c-0.6,0.5-1.4,0.9-2.4,1.2s-2,0.4-3,0.4c-1.3,0-2.5-0.2-3.5-0.6c-1-0.4-1.8-1-2.4-1.9
		c-0.6-0.9-0.9-2-0.9-3.5v-18.8L139.5,129.6z"/>
	<path class="st1" d="M152.3,132.8c-1.1,0-2-0.2-2.5-0.7c-0.6-0.5-0.8-1.2-0.8-2.2s0.3-1.7,0.8-2.2c0.6-0.5,1.4-0.7,2.5-0.7
		s2,0.2,2.5,0.7c0.6,0.5,0.8,1.2,0.8,2.2c0,0.9-0.3,1.7-0.8,2.2C154.3,132.5,153.4,132.8,152.3,132.8z M155,135.6v19.8h-5.4v-19.8
		H155z"/>
	<path class="st1" d="M160.7,155.4v-19.8h4.7l0.4,3.9c0.5-1.4,1.3-2.4,2.3-3.2c1-0.7,2.3-1.1,3.8-1.1c0.4,0,0.9,0,1.2,0.1
		c0.4,0.1,0.7,0.2,0.9,0.3l-0.6,4.6c-0.3-0.1-0.6-0.2-1-0.2c-0.4-0.1-0.9-0.1-1.5-0.1c-0.8,0-1.6,0.2-2.3,0.6
		c-0.7,0.4-1.3,1-1.8,1.7c-0.5,0.8-0.7,1.8-0.7,2.9v10.3H160.7z"/>
	<path class="st1" d="M186,135.2c2,0,3.8,0.4,5.3,1.2s2.7,2,3.6,3.5c0.9,1.5,1.3,3.4,1.3,5.5s-0.4,4-1.3,5.5c-0.9,1.5-2,2.7-3.6,3.5
		c-1.5,0.8-3.3,1.2-5.3,1.2s-3.7-0.4-5.3-1.2c-1.5-0.8-2.7-2-3.6-3.5s-1.3-3.4-1.3-5.5c0-2.2,0.4-4,1.3-5.5c0.9-1.5,2.1-2.7,3.6-3.5
		C182.3,135.6,184.1,135.2,186,135.2z M186,139.3c-1,0-1.9,0.2-2.6,0.7c-0.7,0.5-1.2,1.2-1.6,2.1c-0.4,0.9-0.6,2.1-0.6,3.5
		s0.2,2.6,0.6,3.5c0.4,0.9,0.9,1.6,1.6,2.1c0.7,0.5,1.5,0.7,2.6,0.7c1,0,1.8-0.2,2.5-0.7s1.2-1.2,1.6-2.1c0.4-0.9,0.6-2.1,0.6-3.5
		s-0.2-2.6-0.6-3.5c-0.4-0.9-0.9-1.6-1.6-2.1C187.9,139.5,187,139.3,186,139.3z"/>
	<path class="st1" d="M200.7,155.4v-19.8h4.9l0.3,5.9l-0.7-0.6c0.3-1.3,0.8-2.4,1.5-3.2s1.5-1.5,2.5-1.9s2.1-0.6,3.3-0.6
		c1.4,0,2.6,0.3,3.7,0.8c1.1,0.5,1.9,1.3,2.5,2.4s0.9,2.4,0.9,4v13h-5.4V144c0-1.7-0.3-2.9-1-3.5s-1.5-1-2.6-1
		c-0.7,0-1.5,0.2-2.2,0.5c-0.7,0.4-1.3,0.9-1.7,1.7s-0.7,1.8-0.7,3.2v10.5H200.7z"/>
	<path class="st1" d="M83.6,176.4c2.4,0,4.5,0.4,6.3,1.2s3.3,2,4.6,3.6l-3,3.5c-1.1-1.4-2.3-2.4-3.5-3c-1.3-0.6-2.8-1-4.5-1
		c-1.1,0-2,0.1-2.8,0.4c-0.7,0.3-1.3,0.7-1.6,1.1c-0.3,0.5-0.5,1-0.5,1.6c0,0.7,0.3,1.3,0.8,1.8c0.6,0.5,1.5,0.9,2.9,1.2l4.9,1.1
		c2.6,0.6,4.4,1.4,5.6,2.6c1.1,1.1,1.7,2.6,1.7,4.5c0,1.7-0.4,3.2-1.3,4.4s-2.2,2.2-3.8,2.8c-1.6,0.6-3.5,1-5.5,1
		c-1.8,0-3.5-0.2-5-0.7c-1.5-0.4-2.9-1-4.1-1.8s-2.2-1.6-3-2.7l3.1-3.7c0.6,0.8,1.4,1.6,2.3,2.3s1.9,1.2,3.1,1.6
		c1.1,0.4,2.4,0.6,3.6,0.6c1.1,0,2-0.1,2.8-0.4s1.3-0.6,1.7-1.1c0.4-0.5,0.6-1,0.6-1.7s-0.2-1.3-0.7-1.8s-1.3-0.9-2.6-1.1l-5.3-1.2
		c-1.5-0.4-2.8-0.9-3.9-1.4c-1.1-0.6-1.9-1.4-2.5-2.3c-0.6-0.9-0.9-2.1-0.9-3.3c0-1.6,0.4-3,1.3-4.2c0.8-1.2,2.1-2.2,3.7-2.9
		C79.5,176.8,81.4,176.4,83.6,176.4z"/>
	<path class="st1" d="M108,182.7c1.8,0,3.3,0.3,4.5,0.8s2.2,1.2,3,2.1c0.8,0.9,1.3,1.9,1.6,2.9l-5.1,1.8c-0.3-1.2-0.7-2.1-1.3-2.7
		c-0.6-0.6-1.5-0.9-2.6-0.9c-1,0-1.9,0.2-2.6,0.7s-1.3,1.2-1.6,2.1s-0.6,2.1-0.6,3.5s0.2,2.6,0.6,3.5s0.9,1.6,1.7,2.1
		c0.7,0.4,1.6,0.7,2.6,0.7c0.8,0,1.5-0.1,2-0.4s1-0.7,1.4-1.2s0.6-1.2,0.7-1.9l4.9,1.6c-0.3,1.2-0.8,2.2-1.6,3.1
		c-0.8,0.9-1.8,1.6-3,2.1s-2.7,0.8-4.3,0.8c-2,0-3.8-0.4-5.4-1.2s-2.8-2-3.6-3.5c-0.8-1.5-1.3-3.4-1.3-5.5c0-2.2,0.4-4,1.3-5.5
		c0.8-1.5,2-2.7,3.6-3.5C104.3,183.1,106,182.7,108,182.7z"/>
	<path class="st1" d="M121.4,202.9v-28.5h5.4v12c0.6-1.3,1.5-2.2,2.6-2.8s2.4-0.9,3.8-0.9c1.4,0,2.6,0.3,3.7,0.8
		c1.1,0.5,1.9,1.3,2.5,2.4c0.6,1.1,0.9,2.4,0.9,4v13h-5.4v-11.4c0-1.7-0.3-2.9-1-3.5s-1.5-1-2.5-1c-0.8,0-1.5,0.2-2.2,0.5
		c-0.7,0.4-1.3,0.9-1.7,1.7s-0.7,1.9-0.7,3.2v10.5H121.4z"/>
	<path class="st1" d="M154.9,182.7c2,0,3.8,0.4,5.3,1.2s2.7,2,3.6,3.5c0.9,1.5,1.3,3.4,1.3,5.5s-0.4,4-1.3,5.5
		c-0.9,1.5-2,2.7-3.6,3.5s-3.3,1.2-5.3,1.2s-3.7-0.4-5.3-1.2c-1.5-0.8-2.7-2-3.6-3.5c-0.9-1.5-1.3-3.4-1.3-5.5c0-2.2,0.4-4,1.3-5.5
		c0.9-1.5,2.1-2.7,3.6-3.5C151.2,183.1,152.9,182.7,154.9,182.7z M154.9,186.8c-1,0-1.9,0.2-2.6,0.7c-0.7,0.5-1.2,1.2-1.6,2.1
		c-0.4,0.9-0.6,2.1-0.6,3.5s0.2,2.6,0.6,3.5c0.4,0.9,0.9,1.6,1.6,2.1c0.7,0.5,1.5,0.7,2.6,0.7c1,0,1.8-0.2,2.5-0.7s1.2-1.2,1.6-2.1
		c0.4-0.9,0.6-2.1,0.6-3.5s-0.2-2.6-0.6-3.5c-0.4-0.9-0.9-1.6-1.6-2.1C156.7,187,155.9,186.8,154.9,186.8z"/>
	<path class="st1" d="M178.6,182.7c2,0,3.8,0.4,5.3,1.2s2.7,2,3.6,3.5c0.9,1.5,1.3,3.4,1.3,5.5s-0.4,4-1.3,5.5
		c-0.9,1.5-2,2.7-3.6,3.5s-3.3,1.2-5.3,1.2s-3.7-0.4-5.3-1.2c-1.5-0.8-2.7-2-3.6-3.5s-1.3-3.4-1.3-5.5c0-2.2,0.4-4,1.3-5.5
		s2.1-2.7,3.6-3.5C174.9,183.1,176.6,182.7,178.6,182.7z M178.6,186.8c-1,0-1.9,0.2-2.6,0.7c-0.7,0.5-1.2,1.2-1.6,2.1
		c-0.4,0.9-0.6,2.1-0.6,3.5s0.2,2.6,0.6,3.5c0.4,0.9,0.9,1.6,1.6,2.1c0.7,0.5,1.5,0.7,2.6,0.7c1,0,1.8-0.2,2.5-0.7s1.2-1.2,1.6-2.1
		c0.4-0.9,0.6-2.1,0.6-3.5s-0.2-2.6-0.6-3.5c-0.4-0.9-0.9-1.6-1.6-2.1S179.6,186.8,178.6,186.8z"/>
	<path class="st1" d="M198.6,174.5v22.4c0,0.9,0.2,1.6,0.5,1.9c0.3,0.4,0.8,0.6,1.6,0.6c0.4,0,0.8,0,1.1-0.1s0.7-0.2,1.1-0.3
		l-0.5,3.6c-0.4,0.3-1,0.5-1.7,0.6s-1.3,0.2-2,0.2c-1.9,0-3.3-0.5-4.2-1.4s-1.3-2.4-1.3-4.5v-23H198.6z"/>
	<path class="st1" d="M102.5,224.3v26.1h-4.9v-13.6l0.3-7.6h-0.1l-7.2,21.3h-4.5l-7.2-21.3h-0.1l0.3,7.6v13.6h-4.9v-26.1h7.9
		l4.7,14.3l1.7,5.9h0.1l1.7-5.9l4.7-14.3H102.5z"/>
	<path class="st1" d="M119.9,237.8c0-1.1-0.3-2-1-2.7c-0.6-0.6-1.5-1-2.6-1c-1,0-1.8,0.3-2.6,0.8c-0.7,0.5-1.3,1.3-1.6,2.5l-4.6-1.4
		c0.4-1.7,1.4-3.1,2.9-4.2c1.5-1.1,3.6-1.6,6.1-1.6c1.7,0,3.3,0.3,4.6,0.8s2.3,1.4,3,2.4c0.7,1.1,1.1,2.4,1.1,4.1v8
		c0,1,0.5,1.5,1.4,1.5c0.4,0,0.9-0.1,1.3-0.2l-0.3,3.4c-0.7,0.3-1.5,0.5-2.6,0.5c-0.9,0-1.8-0.2-2.5-0.5s-1.3-0.8-1.7-1.4
		c-0.4-0.6-0.6-1.5-0.6-2.4v-0.2l1-0.2c-0.2,1-0.6,1.9-1.3,2.6c-0.7,0.7-1.6,1.2-2.6,1.6c-1,0.4-2.1,0.6-3.1,0.6
		c-1.3,0-2.5-0.2-3.5-0.6c-1-0.4-1.7-1-2.3-1.8c-0.5-0.8-0.8-1.8-0.8-2.9c0-1.5,0.5-2.7,1.4-3.6c0.9-0.9,2.3-1.6,4.1-1.9l7.4-1.5
		v3.4l-4.8,1c-0.9,0.2-1.6,0.4-2,0.7c-0.5,0.3-0.7,0.8-0.7,1.5s0.2,1.2,0.7,1.5s1.1,0.5,1.8,0.5c0.6,0,1.1-0.1,1.6-0.2
		c0.5-0.1,1-0.3,1.4-0.6s0.8-0.7,1-1.2s0.4-1.1,0.4-1.8L119.9,237.8L119.9,237.8z"/>
	<path class="st1" d="M131.3,250.4v-19.8h4.7l0.4,3.9c0.5-1.4,1.3-2.4,2.3-3.2c1-0.7,2.3-1.1,3.8-1.1c0.4,0,0.9,0,1.2,0.1
		c0.4,0.1,0.7,0.2,0.9,0.3l-0.6,4.6c-0.3-0.1-0.6-0.2-1-0.2c-0.4-0.1-0.9-0.1-1.5-0.1c-0.8,0-1.6,0.2-2.3,0.6
		c-0.7,0.4-1.3,1-1.8,1.7c-0.5,0.8-0.7,1.8-0.7,2.9v10.3H131.3z"/>
	<path class="st1" d="M153.5,222v28.5H148V222H153.5z M168.2,230.6l-9.1,9.5l-1.1,0.5l-5.9,6.4l-0.1-5.8l10.1-10.6L168.2,230.6
		L168.2,230.6z M159.8,236.9l8.9,13.5h-6.1l-6.5-10.3L159.8,236.9z"/>
	<path class="st1" d="M180.1,250.8c-2.1,0-3.9-0.4-5.4-1.2s-2.7-2-3.6-3.5c-0.8-1.5-1.3-3.4-1.3-5.5c0-2.2,0.4-4,1.3-5.5
		s2-2.7,3.5-3.5s3.3-1.2,5.2-1.2c2,0,3.7,0.4,5.1,1.2s2.5,1.9,3.2,3.3c0.7,1.4,1.1,3,1.1,4.7c0,0.5,0,1,0,1.5s-0.1,0.9-0.1,1.3
		h-15.8v-3.8h13.4l-2.6,0.9c0-1.7-0.4-2.9-1.1-3.8s-1.8-1.3-3.2-1.3c-1,0-1.9,0.2-2.6,0.7c-0.7,0.5-1.3,1.2-1.6,2.1
		c-0.4,0.9-0.6,2.1-0.6,3.5s0.2,2.6,0.6,3.5c0.4,0.9,1,1.6,1.7,2c0.8,0.4,1.7,0.7,2.7,0.7c1.2,0,2.1-0.2,2.8-0.7
		c0.7-0.4,1.3-1.1,1.7-1.9l4.3,1.7c-0.4,1-1.1,1.9-1.9,2.7c-0.9,0.7-1.9,1.3-3,1.7C182.7,250.6,181.5,250.8,180.1,250.8z"/>
	<path class="st1" d="M206.8,230.6v4h-15.4v-4H206.8z M200.5,224.6V244c0,1,0.2,1.6,0.7,2.1s1.2,0.7,2,0.7c0.7,0,1.2-0.1,1.7-0.3
		s1-0.5,1.3-0.8l0.9,3.6c-0.6,0.5-1.4,0.9-2.4,1.2s-2,0.4-3,0.4c-1.3,0-2.5-0.2-3.5-0.6c-1-0.4-1.8-1-2.4-1.9
		c-0.6-0.9-0.9-2-0.9-3.5v-18.8L200.5,224.6z"/>
	<path class="st1" d="M213.2,227.8c-1.1,0-2-0.2-2.5-0.7c-0.6-0.5-0.8-1.2-0.8-2.2s0.3-1.7,0.8-2.2c0.6-0.5,1.4-0.7,2.5-0.7
		s2,0.2,2.5,0.7c0.6,0.5,0.8,1.2,0.8,2.2s-0.3,1.7-0.8,2.2C215.2,227.5,214.4,227.8,213.2,227.8z M215.9,230.6v19.8h-5.4v-19.8
		H215.9z"/>
	<path class="st1" d="M221.7,250.4v-19.8h4.9l0.3,5.9l-0.7-0.6c0.3-1.3,0.8-2.4,1.5-3.2s1.5-1.5,2.5-1.9s2.1-0.6,3.3-0.6
		c1.4,0,2.6,0.3,3.7,0.8s1.9,1.3,2.5,2.4c0.6,1.1,0.9,2.4,0.9,4v13h-5.4V239c0-1.7-0.3-2.9-1-3.5s-1.5-1-2.6-1
		c-0.7,0-1.5,0.2-2.2,0.5c-0.7,0.4-1.3,0.9-1.7,1.7s-0.7,1.8-0.7,3.2v10.5H221.7z"/>
	<path class="st1" d="M257.9,246.7c2.1,0,3.8,0.5,4.9,1.4c1.2,0.9,1.7,2.2,1.7,3.9c0,1.5-0.4,2.8-1.3,3.8s-2.1,1.8-3.7,2.4
		c-1.6,0.5-3.4,0.8-5.4,0.8c-3.4,0-5.9-0.5-7.5-1.4c-1.6-1-2.4-2.2-2.4-3.7c0-1.1,0.4-2,1.2-2.7c0.8-0.7,2.2-1.1,4.1-1.2l-0.2,0.6
		c-1.4-0.2-2.4-0.7-3.1-1.4s-1.1-1.6-1.1-2.8s0.5-2.2,1.4-3s2.2-1.2,3.8-1.4l2.4,1.1h-0.6c-1.1,0.1-1.9,0.3-2.4,0.7
		s-0.7,0.8-0.7,1.3c0,0.6,0.2,1,0.7,1.2c0.4,0.3,1.1,0.4,1.9,0.4H257.9z M254.3,230.2c1.8,0,3.5,0.3,4.8,0.8
		c1.4,0.5,2.4,1.3,3.1,2.3s1.1,2.2,1.1,3.6c0,1.4-0.4,2.6-1.1,3.6s-1.8,1.8-3.1,2.3c-1.4,0.5-3,0.8-4.8,0.8c-2.9,0-5.2-0.6-6.7-1.8
		s-2.3-2.8-2.3-4.9c0-1.4,0.4-2.6,1.1-3.6s1.8-1.8,3.1-2.3C250.8,230.5,252.4,230.2,254.3,230.2z M254.2,255.2
		c1.4,0,2.5-0.1,3.4-0.4s1.5-0.5,2-0.9c0.4-0.4,0.7-0.8,0.7-1.2c0-0.5-0.2-0.9-0.6-1.2s-1.1-0.5-2.1-0.5h-6.7
		c-0.6,0-1.2,0.2-1.6,0.5s-0.6,0.8-0.6,1.3c0,0.7,0.5,1.3,1.5,1.7C251.1,255,252.5,255.2,254.2,255.2z M254.3,233.6
		c-1.1,0-1.9,0.3-2.6,0.9c-0.7,0.6-1,1.4-1,2.4s0.3,1.8,1,2.4c0.7,0.6,1.6,0.9,2.6,0.9s1.9-0.3,2.6-0.9s1-1.4,1-2.4s-0.3-1.8-1-2.4
		C256.2,233.9,255.3,233.6,254.3,233.6z M264.4,225.9l0.6,3.9c-0.1,0-0.2,0-0.3,0c-0.1,0-0.2,0-0.4,0c-1.2,0-2.1,0.3-2.7,0.8
		s-0.9,1.3-0.9,2.2l-2.2-0.9c0-1.1,0.2-2,0.6-2.9s1-1.6,1.9-2.2c0.8-0.6,1.8-0.8,3-0.8c0.1,0,0.1,0,0.2,0S264.3,225.9,264.4,225.9z"
		/>
</g>
<g>
	<path class="st1" d="M161.4,315.8l6.6,2.1l-0.8,2.7l-10.1-3.1l4.1-13.2l3.5,1.1L161.4,315.8z"/>
	<path class="st1" d="M169.9,321.2l3.1-13.5l10.5,2.4l-0.6,2.7l-7-1.6l-0.6,2.7l5.6,1.3l-0.6,2.6l-5.6-1.3l-0.6,2.8l7.3,1.7
		l-0.6,2.7L169.9,321.2z"/>
	<path class="st1" d="M182.1,324l6.8-13l4.3,0.6L196,326l-3.7-0.5l-1.4-9.2l-0.3-2.2l0,0l-0.9,2.1l-4,8.4L182.1,324z M185.7,321.4
		l0.4-2.4l7.6,1.1l-0.4,2.4L185.7,321.4z"/>
	<path class="st1" d="M205,312.6c2.2,0.1,3.8,0.8,4.9,2c1.1,1.3,1.6,3,1.5,5.2c-0.1,2.2-0.8,3.9-2,5s-2.9,1.7-5.1,1.6l-5.9-0.3
		l0.7-13.8L205,312.6z M204.1,323.8c1.2,0.1,2-0.3,2.6-0.9s0.9-1.7,1-3.1c0.1-1.4-0.2-2.4-0.7-3.2c-0.5-0.7-1.3-1.1-2.5-1.2
		l-1.9-0.1l-0.4,8.4L204.1,323.8z"/>
	<path class="st1" d="M214.4,326.7l-0.7-13.8l10.8-0.6l0.2,2.8l-7.2,0.4l0.2,2.8l5.7-0.3l0.1,2.6l-5.7,0.3l0.2,2.8l7.4-0.4l0.2,2.8
		L214.4,326.7z"/>
	<path class="st1" d="M232.8,311c1.6-0.3,3-0.1,4,0.5c1,0.6,1.7,1.6,1.9,2.8c0.2,1.4,0,2.5-0.8,3.4c-0.8,0.9-2,1.5-3.6,1.7l-0.3,0.2
		l-2.7,0.4l0.8,5l-3.5,0.6l-2.2-13.7L232.8,311z M233.3,317.3c0.7-0.1,1.2-0.3,1.5-0.7c0.3-0.3,0.4-0.8,0.3-1.4
		c-0.1-0.6-0.3-1-0.7-1.2c-0.4-0.2-0.9-0.3-1.6-0.2l-2.5,0.4l0.6,3.5L233.3,317.3z M235.5,317.7l5.5,6.1l-3.9,0.6l-4.5-5.4
		L235.5,317.7z"/>
	<path class="st1" d="M245.1,308c1.2-0.4,2.4-0.5,3.4-0.4c1.1,0.1,2,0.4,3,1l-1,2.7c-0.8-0.4-1.5-0.7-2.3-0.8
		c-0.8-0.1-1.6,0-2.4,0.2c-0.5,0.1-0.9,0.3-1.2,0.5c-0.3,0.2-0.5,0.4-0.5,0.6c-0.1,0.2-0.1,0.5,0,0.7c0.1,0.3,0.3,0.5,0.6,0.6
		c0.3,0.1,0.8,0.2,1.4,0.1l2.4-0.1c1.4-0.1,2.5,0.1,3.3,0.5c0.8,0.4,1.3,1.1,1.6,2.1c0.3,0.9,0.3,1.8,0,2.6s-0.8,1.5-1.6,2
		s-1.7,1-2.8,1.3c-0.9,0.3-1.8,0.4-2.6,0.4s-1.7,0-2.4-0.2c-0.8-0.2-1.4-0.4-2-0.8l1-2.8c0.4,0.3,1,0.5,1.5,0.7
		c0.6,0.2,1.2,0.2,1.8,0.3c0.6,0,1.3-0.1,1.9-0.3c0.5-0.1,0.9-0.3,1.1-0.5c0.3-0.2,0.5-0.4,0.6-0.6c0.1-0.2,0.1-0.5,0-0.7
		c-0.1-0.3-0.3-0.5-0.5-0.6c-0.3-0.1-0.7-0.2-1.3-0.2l-2.6,0.2c-0.8,0-1.5,0-2.2-0.1c-0.7-0.1-1.2-0.4-1.7-0.8s-0.8-1-1-1.7
		c-0.2-0.8-0.2-1.6,0-2.4s0.8-1.5,1.5-2.1C242.9,308.8,243.9,308.4,245.1,308z"/>
	<path class="st1" d="M255.6,304.6l5.5,12.7l-3.3,1.4l-5.5-12.7L255.6,304.6z M264.4,306.8l1.1,2.6l-8.3,3.6l-1.1-2.6L264.4,306.8z
		 M263.8,301.1l5.5,12.7l-3.3,1.4l-5.5-12.7L263.8,301.1z"/>
	<path class="st1" d="M269.2,298l6.7,12.1l-3.2,1.7l-6.7-12.1L269.2,298z"/>
	<path class="st1" d="M276.7,293.3c0.9-0.6,1.8-1,2.7-1.2s1.7,0,2.4,0.3s1.4,0.9,1.9,1.7c0.5,0.8,0.8,1.6,0.9,2.4
		c0,0.8-0.2,1.6-0.6,2.3s-1.2,1.4-2.1,2.1l-2.3,1.5l2.6,3.8l-3,2l-7.7-11.5L276.7,293.3z M279.9,299c0.6-0.4,1-0.9,1.2-1.3
		c0.1-0.5,0-1-0.3-1.5c-0.4-0.5-0.8-0.8-1.3-0.9s-1.1,0.1-1.7,0.6L276,297l2.1,3.2L279.9,299z"/>
	<path class="st1" d="M287.6,298c0.4-0.3,0.8-0.5,1.2-0.5c0.4,0,0.8,0.1,1.2,0.3s0.7,0.5,1,0.9c0.4,0.5,0.6,1.1,0.8,1.7
		c0.1,0.6,0.2,1.3,0.1,1.9c-0.1,0.6-0.3,1.2-0.5,1.7l-1.8,0c0.2-0.4,0.4-0.7,0.5-1.1s0.2-0.8,0.2-1.1c0-0.4,0-0.7-0.1-1l-0.1,0
		c0,0.1-0.1,0.2-0.1,0.3c-0.1,0.1-0.2,0.2-0.3,0.3c-0.2,0.2-0.4,0.3-0.7,0.3s-0.6,0-0.9-0.1c-0.3-0.1-0.6-0.3-0.8-0.6
		c-0.3-0.4-0.4-0.7-0.4-1.1s0-0.7,0.2-1C287.1,298.5,287.3,298.2,287.6,298z"/>
	<path class="st1" d="M298.9,293.5l-9.7-9.9l4.8-4.7c1.2-1.2,2.4-1.8,3.4-2c1-0.1,2,0.3,2.8,1.1c0.5,0.6,0.9,1.2,0.9,1.9
		s-0.2,1.5-0.8,2.3l0,0c0.9-0.6,1.7-0.9,2.5-0.9c0.8,0.1,1.5,0.4,2.1,1c0.8,0.8,1.2,1.8,1,2.9c-0.1,1.1-0.8,2.2-2,3.3L298.9,293.5z
		 M295.6,285.2l1.9-1.8c0.9-0.9,1-1.7,0.3-2.4s-1.5-0.6-2.4,0.3l-1.9,1.8L295.6,285.2z M299.6,289.2l2.1-2.1
		c0.5-0.5,0.7-0.9,0.8-1.3c0-0.4-0.1-0.8-0.5-1.2c-0.3-0.3-0.7-0.5-1.1-0.5s-0.9,0.3-1.3,0.8l-2.1,2.1L299.6,289.2z"/>
	<path class="st1" d="M303.2,268.7c1.1-1.3,2.2-2,3.4-2.2c1.2-0.2,2.3,0.1,3.3,0.9c1.1,0.9,1.6,1.9,1.6,3.1s-0.6,2.4-1.6,3.7
		l-0.1,0.4l-1.8,2.1l3.9,3.2l-2.3,2.7l-10.6-8.9L303.2,268.7z M307.7,273.1c0.4-0.5,0.7-1,0.7-1.5s-0.2-0.9-0.7-1.3
		c-0.5-0.4-0.9-0.5-1.4-0.4c-0.4,0.1-0.9,0.4-1.3,0.9l-1.6,2l2.7,2.2L307.7,273.1z M309.6,271.9l8.1,1l-2.6,3.1l-6.9-1.2
		L309.6,271.9z"/>
	<path class="st1" d="M318.4,272.1l-8.6-11.9l2.5-3.5l14.1,4l-2.1,3l-8.9-2.9l-2.1-0.8l0,0l1.4,1.7l5.7,7.4L318.4,272.1z
		 M317.7,267.7l-2-1.4l4.4-6.3l2,1.4L317.7,267.7z"/>
	<path class="st1" d="M322,240.8l12,7l-2,3.5l-8.6-0.1L321,251l0,0l2.3,1.2l6,3.5l-1.6,2.8l-12-7l2-3.5l8.6,0.1l2.3,0.1l0,0
		l-2.3-1.2l-6-3.5L322,240.8z"/>
	<path class="st1" d="M325.9,233.1c1-1.9,2.2-3.2,3.8-3.7c1.6-0.5,3.4-0.3,5.4,0.7c2,1,3.3,2.3,3.8,3.8c0.6,1.6,0.4,3.3-0.6,5.3
		l-2.6,5.3l-12.4-6.2L325.9,233.1z M335.7,238.4c0.5-1.1,0.6-2,0.2-2.8c-0.4-0.8-1.2-1.5-2.5-2.1c-1.2-0.6-2.3-0.8-3.2-0.7
		c-0.9,0.2-1.6,0.8-2.1,1.8l-0.9,1.7l7.5,3.7L335.7,238.4z"/>
</g>
</svg>
