<?xml version="1.0" encoding="utf-8"?>
<!-- Generator: Adobe Illustrator 24.3.0, SVG Export Plug-In . SVG Version: 6.00 Build 0)  -->
<svg version="1.1" id="Layer_1" xmlns="http://www.w3.org/2000/svg" xmlns:xlink="http://www.w3.org/1999/xlink" x="0px" y="0px"
	 viewBox="0 0 376.5 351.1" style="enable-background:new 0 0 376.5 351.1;" xml:space="preserve">
<style type="text/css">
	.st0{fill:#E5892E;}
	.st1{fill:#FFFFFF;}
</style>
<path class="st0" d="M134,82.4c-47-9-102.7,6-124.6,48.6c-15.3,29.7-10.8,66.7,5,96.1s41.4,52.3,68.3,72
	c48.5,35.3,109.2,63,167.2,47.8c63.9-16.8,104.6-81.4,119.8-145.6c9.8-41.4,11.1-87.3-10.5-124C335.6,36.9,289,15.8,243.5,5.4
	c-28.9-6.6-61-9.4-86.6,5.6s-38,54-17.3,75.2"/>
<g>
	<path class="st1" d="M85.8,154.2h13.7v4.4H80.4v-25.9h5.4V154.2z"/>
	<path class="st1" d="M106.1,136.1c-1.1,0-2-0.2-2.5-0.7s-0.8-1.2-0.8-2.1c0-1,0.3-1.7,0.8-2.2s1.4-0.7,2.5-0.7s2,0.2,2.5,0.7
		s0.8,1.2,0.8,2.2c0,0.9-0.3,1.7-0.8,2.1C108.1,135.9,107.2,136.1,106.1,136.1z M108.8,139v19.6h-5.4V139H108.8z"/>
	<path class="st1" d="M122.3,159c-2,0-3.8-0.4-5.4-1.1c-1.6-0.7-3-1.7-4-3l3.1-3.1c0.6,0.9,1.5,1.7,2.5,2.3s2.3,0.9,3.7,0.9
		c1,0,1.8-0.1,2.5-0.5c0.6-0.3,0.9-0.8,0.9-1.4c0-0.4-0.1-0.8-0.4-1.1s-0.9-0.5-1.7-0.7l-3.5-0.7c-2.3-0.5-3.9-1.2-4.8-2.1
		c-1-1-1.4-2.2-1.4-3.7c0-1.1,0.3-2.1,1-3s1.6-1.7,2.9-2.3s2.9-0.9,4.8-0.9c2,0,3.7,0.3,5.1,0.9c1.5,0.6,2.6,1.5,3.4,2.7l-3.2,3.1
		c-0.6-0.9-1.3-1.6-2.3-2.1c-0.9-0.5-1.9-0.7-2.9-0.7c-0.7,0-1.4,0.1-1.9,0.2c-0.5,0.2-0.9,0.4-1.2,0.6c-0.3,0.3-0.4,0.6-0.4,1
		s0.2,0.8,0.5,1.1c0.4,0.3,1,0.6,2,0.8l4,0.8c1.9,0.4,3.3,1.1,4.2,2c0.8,0.9,1.3,2,1.3,3.4c0,1.3-0.3,2.4-1,3.4s-1.6,1.8-2.9,2.3
		C125.8,158.7,124.2,159,122.3,159z"/>
	<path class="st1" d="M148.5,139v4h-15.3v-4H148.5z M142.3,132.9v19.2c0,0.9,0.2,1.6,0.7,2.1c0.5,0.4,1.1,0.6,2,0.6
		c0.7,0,1.2-0.1,1.7-0.3s0.9-0.5,1.3-0.8l0.9,3.6c-0.6,0.5-1.4,0.9-2.4,1.2s-1.9,0.4-3,0.4c-1.3,0-2.5-0.2-3.5-0.6
		c-1-0.4-1.8-1-2.4-1.9c-0.6-0.9-0.8-2-0.8-3.5v-18.6L142.3,132.9z"/>
	<path class="st1" d="M161.3,159c-2.1,0-3.9-0.4-5.4-1.2s-2.7-2-3.6-3.5c-0.8-1.5-1.3-3.3-1.3-5.5c0-2.1,0.4-4,1.3-5.5
		c0.8-1.5,2-2.7,3.5-3.5s3.2-1.2,5.2-1.2s3.7,0.4,5.1,1.2c1.4,0.8,2.4,1.9,3.2,3.3c0.7,1.4,1.1,2.9,1.1,4.7c0,0.5,0,1,0,1.5
		s-0.1,0.9-0.1,1.3h-15.7v-3.7h13.3l-2.6,0.9c0-1.6-0.4-2.9-1.1-3.8c-0.7-0.9-1.8-1.3-3.2-1.3c-1,0-1.9,0.2-2.6,0.7
		c-0.7,0.5-1.3,1.2-1.6,2.1c-0.4,0.9-0.5,2.1-0.5,3.5s0.2,2.5,0.6,3.4s1,1.6,1.7,2s1.6,0.7,2.7,0.7c1.2,0,2.1-0.2,2.8-0.7
		s1.3-1.1,1.6-1.8l4.3,1.6c-0.4,1-1.1,1.9-1.9,2.6c-0.9,0.7-1.9,1.3-3,1.7C163.9,158.8,162.6,159,161.3,159z"/>
	<path class="st1" d="M174.9,158.6V139h4.8l0.3,5.9l-0.7-0.6c0.3-1.3,0.8-2.3,1.5-3.2c0.7-0.8,1.5-1.5,2.5-1.9s2.1-0.6,3.2-0.6
		c1.4,0,2.6,0.3,3.6,0.8s1.9,1.3,2.5,2.4c0.6,1.1,0.9,2.4,0.9,4v12.9h-5.4v-11.3c0-1.7-0.3-2.8-1-3.5c-0.7-0.6-1.5-1-2.6-1
		c-0.7,0-1.4,0.2-2.1,0.5c-0.7,0.4-1.3,0.9-1.7,1.7s-0.6,1.8-0.6,3.1v10.4L174.9,158.6L174.9,158.6z"/>
	<path class="st1" d="M216.9,132.7V149c0,3.1-0.9,5.5-2.6,7.3c-1.8,1.8-4.2,2.6-7.5,2.6c-2.3,0-4.2-0.4-5.6-1.3
		c-1.4-0.8-2.4-2-3-3.5c-0.5-1.5-0.7-3.3-0.3-5.2l5.3-0.9c-0.3,2.3-0.2,4,0.4,5c0.6,1,1.7,1.5,3.3,1.5c1.7,0,2.9-0.5,3.6-1.6
		c0.7-1,1-2.6,1-4.7v-15.6L216.9,132.7L216.9,132.7z"/>
	<path class="st1" d="M233.5,146.1c0-1.1-0.3-2-1-2.6c-0.6-0.6-1.5-0.9-2.5-0.9s-1.8,0.2-2.6,0.7c-0.7,0.5-1.3,1.3-1.6,2.5l-4.6-1.4
		c0.4-1.7,1.4-3.1,2.9-4.2c1.5-1,3.5-1.6,6.1-1.6c1.7,0,3.2,0.3,4.5,0.8s2.3,1.3,3,2.4c0.7,1.1,1.1,2.4,1.1,4v8c0,1,0.5,1.5,1.4,1.5
		c0.4,0,0.9-0.1,1.3-0.2l-0.3,3.3c-0.7,0.3-1.5,0.5-2.6,0.5c-0.9,0-1.7-0.2-2.5-0.5c-0.7-0.3-1.3-0.8-1.7-1.4
		c-0.4-0.6-0.6-1.4-0.6-2.4v-0.2l0.9-0.2c-0.2,1-0.6,1.8-1.3,2.5s-1.6,1.2-2.6,1.6c-1,0.4-2,0.5-3.1,0.5c-1.3,0-2.5-0.2-3.5-0.6
		s-1.7-1-2.2-1.8s-0.8-1.8-0.8-2.9c0-1.5,0.5-2.7,1.4-3.6c0.9-0.9,2.3-1.6,4-1.9l7.4-1.5v3.3l-4.7,0.9c-0.9,0.2-1.6,0.4-2,0.7
		c-0.5,0.3-0.7,0.8-0.7,1.5s0.2,1.2,0.7,1.5s1.1,0.5,1.7,0.5c0.5,0,1.1-0.1,1.6-0.2c0.5-0.1,1-0.3,1.4-0.6s0.7-0.7,1-1.2
		c0.2-0.5,0.4-1.1,0.4-1.8v-5L233.5,146.1L233.5,146.1z"/>
	<path class="st1" d="M262.1,139l-7.9,20.8c-0.6,1.8-1.3,3.2-2.1,4.2s-1.7,1.8-2.7,2.3s-2.2,0.7-3.6,0.7c-1,0-2-0.1-2.8-0.4
		c-0.9-0.2-1.6-0.6-2.2-1l1.1-3.9c0.5,0.4,1,0.7,1.6,0.8c0.5,0.2,1.2,0.3,1.9,0.3s1.4-0.2,1.9-0.5s1-0.9,1.4-1.9l0.7-1.7l-2.2-5.1
		l-6-14.8h6l3.7,11.8l1,3.9l1.2-4.2l3.6-11.5h5.4L262.1,139L262.1,139z"/>
	<path class="st1" d="M102.6,179.8v25.9h-6.2l-9.1-15.2l-2.2-4.2l0,0l0.2,4.5v15h-4.9v-25.9h6.2l9.1,15.2l2.2,4.3H98l-0.2-4.5v-15
		h4.8C102.6,179.9,102.6,179.8,102.6,179.8z"/>
	<path class="st1" d="M117.7,206.1c-2.1,0-3.9-0.4-5.4-1.2s-2.7-2-3.6-3.5c-0.8-1.5-1.3-3.3-1.3-5.5c0-2.1,0.4-4,1.3-5.5
		c0.8-1.5,2-2.7,3.5-3.5s3.2-1.2,5.2-1.2s3.7,0.4,5.1,1.2s2.4,1.9,3.2,3.3c0.7,1.4,1.1,2.9,1.1,4.7c0,0.5,0,1,0,1.5
		s-0.1,0.9-0.1,1.3H111V194h13.3l-2.6,0.9c0-1.6-0.4-2.9-1.1-3.8c-0.7-0.9-1.8-1.3-3.2-1.3c-1,0-1.9,0.2-2.6,0.7s-1.3,1.2-1.6,2.1
		c-0.4,0.9-0.5,2.1-0.5,3.5s0.2,2.5,0.6,3.4s1,1.6,1.7,2s1.6,0.7,2.7,0.7c1.2,0,2.1-0.2,2.8-0.7c0.7-0.4,1.3-1.1,1.6-1.8l4.3,1.6
		c-0.4,1-1.1,1.9-1.9,2.6c-0.9,0.7-1.9,1.3-3,1.7C120.3,205.9,119.1,206.1,117.7,206.1z"/>
	<path class="st1" d="M156.1,186h5.7l-6.3,19.6h-6.2l-4.3-13.3l-4.1,13.3h-6.2l-6.3-19.6h5.7l3.9,15l4.4-15h5.3l4.4,15L156.1,186z"
		/>
	<path class="st1" d="M99.8,231.2h-14v6.6h11v4.4h-11v10.6h-5.4v-25.9h19.4V231.2z"/>
	<path class="st1" d="M110.9,253.2c-2.1,0-3.9-0.4-5.4-1.2s-2.7-2-3.6-3.5c-0.8-1.5-1.3-3.3-1.3-5.5c0-2.1,0.4-4,1.3-5.5
		c0.8-1.5,2-2.7,3.5-3.5s3.2-1.2,5.2-1.2s3.7,0.4,5.1,1.2s2.4,1.9,3.2,3.3c0.7,1.4,1.1,2.9,1.1,4.7c0,0.5,0,1,0,1.5
		s-0.1,0.9-0.1,1.3h-15.7v-3.7h13.3l-2.6,0.9c0-1.6-0.4-2.9-1.1-3.8c-0.7-0.9-1.8-1.3-3.2-1.3c-1,0-1.9,0.2-2.6,0.7
		s-1.3,1.2-1.6,2.1c-0.4,0.9-0.5,2.1-0.5,3.5s0.2,2.5,0.6,3.4s1,1.6,1.7,2s1.6,0.7,2.7,0.7c1.2,0,2.1-0.2,2.8-0.7
		c0.7-0.4,1.3-1.1,1.6-1.8l4.3,1.6c-0.4,1-1.1,1.9-1.9,2.6c-0.9,0.7-1.9,1.3-3,1.7C113.5,253,112.2,253.2,110.9,253.2z"/>
	<path class="st1" d="M135.7,240.3c0-1.1-0.3-2-1-2.6c-0.6-0.6-1.5-0.9-2.5-0.9s-1.8,0.2-2.6,0.7c-0.7,0.5-1.3,1.3-1.6,2.5l-4.6-1.4
		c0.4-1.7,1.4-3.1,2.9-4.2c1.5-1,3.5-1.6,6.1-1.6c1.7,0,3.2,0.3,4.5,0.8s2.3,1.3,3,2.4c0.7,1.1,1.1,2.4,1.1,4v8c0,1,0.5,1.5,1.4,1.5
		c0.4,0,0.9-0.1,1.3-0.2l-0.3,3.3c-0.7,0.3-1.5,0.5-2.6,0.5c-0.9,0-1.7-0.2-2.5-0.5c-0.7-0.3-1.3-0.8-1.7-1.4
		c-0.4-0.6-0.6-1.4-0.6-2.4v-0.2l0.9-0.2c-0.2,1-0.6,1.8-1.3,2.5s-1.6,1.2-2.6,1.6c-1,0.4-2,0.5-3.1,0.5c-1.3,0-2.5-0.2-3.5-0.6
		c-1-0.4-1.7-1-2.2-1.8s-0.8-1.8-0.8-2.9c0-1.5,0.5-2.7,1.4-3.6s2.3-1.6,4-1.9l7.4-1.5v3.3l-4.7,0.9c-0.9,0.2-1.6,0.4-2,0.7
		c-0.5,0.3-0.7,0.8-0.7,1.5s0.2,1.2,0.7,1.5s1.1,0.5,1.7,0.5c0.5,0,1.1-0.1,1.6-0.2c0.5-0.1,1-0.3,1.4-0.6s0.7-0.7,1-1.2
		c0.2-0.5,0.4-1.1,0.4-1.8v-5L135.7,240.3L135.7,240.3z"/>
	<path class="st1" d="M159.5,233.1v4h-15.3v-4H159.5z M153.2,227.1v19.2c0,0.9,0.2,1.6,0.7,2.1c0.5,0.4,1.1,0.6,2,0.6
		c0.7,0,1.2-0.1,1.7-0.3s0.9-0.5,1.3-0.8l0.9,3.6c-0.6,0.5-1.4,0.9-2.4,1.2c-0.9,0.3-1.9,0.4-3,0.4c-1.3,0-2.5-0.2-3.5-0.6
		c-1-0.4-1.8-1-2.4-1.9c-0.6-0.9-0.8-2-0.8-3.5v-18.6L153.2,227.1z"/>
	<path class="st1" d="M170,253.2c-1.3,0-2.5-0.2-3.5-0.7s-1.9-1.2-2.5-2.3c-0.6-1-0.9-2.4-0.9-4v-13h5.4v11.7c0,1.5,0.3,2.6,0.9,3.2
		c0.6,0.6,1.5,0.9,2.7,0.9c0.5,0,1.1-0.1,1.6-0.3s1-0.5,1.4-0.9s0.7-1,1-1.6c0.2-0.7,0.4-1.5,0.4-2.4v-10.6h5.4v19.6H177l-0.2-3.4
		c-0.7,1.3-1.6,2.3-2.7,2.9C172.9,252.9,171.6,253.2,170,253.2z"/>
	<path class="st1" d="M187.4,252.8v-19.6h4.7l0.4,3.8c0.5-1.4,1.3-2.4,2.3-3.1c1-0.7,2.3-1.1,3.8-1.1c0.4,0,0.8,0,1.2,0.1
		s0.7,0.2,0.9,0.3l-0.6,4.5c-0.3-0.1-0.6-0.2-1-0.2c-0.4-0.1-0.9-0.1-1.5-0.1c-0.8,0-1.5,0.2-2.3,0.6c-0.7,0.4-1.3,1-1.8,1.7
		s-0.7,1.7-0.7,2.9v10.2L187.4,252.8L187.4,252.8z"/>
	<path class="st1" d="M212.7,253.2c-2.1,0-3.9-0.4-5.4-1.2s-2.7-2-3.6-3.5c-0.8-1.5-1.3-3.3-1.3-5.5c0-2.1,0.4-4,1.3-5.5
		c0.8-1.5,2-2.7,3.5-3.5s3.2-1.2,5.2-1.2s3.7,0.4,5.1,1.2s2.4,1.9,3.2,3.3c0.7,1.4,1.1,2.9,1.1,4.7c0,0.5,0,1,0,1.5
		s-0.1,0.9-0.1,1.3H206v-3.7h13.3l-2.6,0.9c0-1.6-0.4-2.9-1.1-3.8c-0.7-0.9-1.8-1.3-3.2-1.3c-1,0-1.9,0.2-2.6,0.7
		c-0.7,0.5-1.3,1.2-1.6,2.1c-0.4,0.9-0.5,2.1-0.5,3.5s0.2,2.5,0.6,3.4c0.4,0.9,1,1.6,1.7,2s1.6,0.7,2.7,0.7c1.2,0,2.1-0.2,2.8-0.7
		c0.7-0.4,1.3-1.1,1.6-1.8l4.3,1.6c-0.4,1-1.1,1.9-1.9,2.6c-0.9,0.7-1.9,1.3-3,1.7C215.3,253,214,253.2,212.7,253.2z"/>
</g>
<g>
	<g>
		<path class="st1" d="M259.9,304.3l3.8,7.4c0.9,1.7,1.1,3.2,0.7,4.5c-0.5,1.3-1.5,2.5-3.2,3.3c-1.7,0.8-3.2,1.1-4.5,0.8
			c-1.3-0.3-2.5-1.5-3.3-3.1l-3.8-7.4l2.5-1.3l3.8,7.3c0.5,1,1.1,1.7,1.8,2c0.7,0.2,1.5,0.1,2.5-0.3c0.9-0.5,1.5-1.1,1.7-1.8
			c0.2-0.8,0-1.5-0.5-2.7l-3.8-7.3L259.9,304.3z"/>
		<path class="st1" d="M279.4,308.4l-2.8,1.8l-5.2-2.5l0.1,5.8l-2.8,1.8l0.2-8.5l-7.4-3.5l2.8-1.8l4.8,2.5l-0.1-5.5l2.7-1.7
			l-0.1,8.1L279.4,308.4z"/>
		<path class="st1" d="M278.3,290.1l5.3,16.9l-2.1,1.7l-5.3-16.9L278.3,290.1z"/>
		<path class="st1" d="M288.7,282l5.9,6.1c1.3,1.3,2,2.8,1.8,4.1c-0.1,1.3-0.8,2.8-2.2,4.1s-2.8,2-4.2,2.1s-2.8-0.7-4.1-2l-5.9-6.1
			l2.1-2l5.8,6c0.8,0.9,1.5,1.3,2.3,1.3s1.5-0.2,2.2-1c0.8-0.7,1.1-1.5,1-2.2c0-0.8-0.5-1.5-1.2-2.3l-5.8-6L288.7,282z"/>
		<path class="st1" d="M292.2,277.5l10.8,8.8l-1.8,2.2l-10.8-8.8L292.2,277.5z"/>
	</g>
</g>
</svg>
