<?xml version="1.0" encoding="utf-8"?>
<!-- Generator: Adobe Illustrator 24.3.0, SVG Export Plug-In . SVG Version: 6.00 Build 0)  -->
<svg version="1.1" id="Layer_1" xmlns="http://www.w3.org/2000/svg" xmlns:xlink="http://www.w3.org/1999/xlink" x="0px" y="0px"
	 viewBox="0 0 547.4 565.7" style="enable-background:new 0 0 547.4 565.7;" xml:space="preserve">
<style type="text/css">
	.st0{fill:#231F20;}
	.st1{fill:#0F2B41;}
	.st2{fill:#FFFFFF;}
</style>
<path class="st0" d="M244,462.6c3.2,0,3.2-5,0-5S240.8,462.6,244,462.6z"/>
<path class="st1" d="M291.9,2.9c-67.7-7.4-97.7-1.4-158.4,29.5C56.3,71.7,5.4,155.5,0.4,242s33.4,173.3,97.2,232.1
	s150.6,90.1,237.3,91.6c60.2,1.1,124.7-13.8,165.2-58.3c45-49.4,50.5-122.6,45.9-189.2c-3-43.1-9.8-87.8-34.8-123
	c-17.1-24.1-41.4-41.9-65.2-59.2L335,55.3C308.8,36.3,333.1,6,291.9,2.9"/>
<path class="st2" d="M118.5,203.9v35.8h-6.8V221l0.4-10.5H112l-9.9,29.1H96l-9.9-29.1H86l0.4,10.5v18.7h-6.8v-35.8h10.9l6.4,19.6
	l2.3,8.1h0.1l2.3-8L108,204h10.5V203.9z"/>
<path class="st2" d="M139.4,240.3c-2.6,0-5.2-0.5-7.5-1.7c-2.1-1.1-3.8-2.7-4.9-4.8c-1.2-2.3-1.8-5-1.7-7.6
	c-0.1-2.6,0.5-5.2,1.7-7.6c1.1-2,2.8-3.7,4.9-4.8c2.2-1.1,4.6-1.7,7.1-1.7c2.4-0.1,4.9,0.5,7,1.7c1.9,1,3.4,2.6,4.4,4.5
	c1,2,1.5,4.2,1.5,6.5c0,0.7,0,1.4-0.1,2.1c0,0.6-0.1,1.1-0.2,1.7H130v-5.2h18.4l-3.6,1.3c0.1-1.9-0.4-3.8-1.5-5.3
	c-1.1-1.2-2.7-1.9-4.4-1.8c-1.3-0.1-2.5,0.3-3.6,1c-1,0.7-1.8,1.7-2.3,2.9c-0.6,1.6-0.8,3.2-0.8,4.9c0,1.6,0.2,3.2,0.8,4.7
	c0.5,1.1,1.4,2.1,2.4,2.8c1.1,0.6,2.4,0.9,3.7,0.9c1.4,0.1,2.7-0.3,3.9-0.9c1-0.6,1.8-1.5,2.3-2.6l5.9,2.3c-0.6,1.4-1.5,2.6-2.6,3.6
	c-1.2,1-2.7,1.8-4.2,2.3C142.8,240,141.1,240.3,139.4,240.3z"/>
<path class="st2" d="M158.2,239.7v-27.1h6.7l0.4,8.1l-0.9-0.9c0.3-1.6,1-3.1,2.1-4.4c0.9-1.1,2.1-2,3.4-2.6c1.4-0.6,3-0.9,4.5-0.8
	c1.7,0,3.4,0.4,5,1.1c1.5,0.7,2.7,1.9,3.5,3.3c0.9,1.7,1.3,3.6,1.3,5.5v17.8h-7.4V224c0-2.3-0.5-3.9-1.4-4.8
	c-0.9-0.9-2.2-1.4-3.5-1.3c-1,0-2.1,0.2-3,0.7c-1,0.5-1.8,1.4-2.3,2.4c-0.7,1.3-1,2.8-0.9,4.3v14.4L158.2,239.7z"/>
<path class="st2" d="M193.4,202.1c2-0.1,3.9,1.1,4.6,3c0.4,1,0.6,2,0.6,3.1c0,1.5-0.3,2.9-0.9,4.3c-0.6,1.4-1.4,2.6-2.5,3.7
	c-1,1.1-2.2,1.9-3.6,2.5l-3.2-2.5c1-0.4,1.9-0.9,2.7-1.5s1.5-1.2,2.1-2c0.6-0.6,1-1.4,1.2-2.2l-0.3-0.2c-0.2,0.1-0.5,0.2-0.7,0.3
	c-0.4,0.1-0.7,0.1-1.1,0.1c-0.6,0-1.2-0.2-1.7-0.5c-0.6-0.3-1.1-0.8-1.5-1.4c-0.4-0.7-0.6-1.5-0.6-2.3c0-0.9,0.2-1.8,0.7-2.5
	c0.4-0.7,1-1.2,1.7-1.6C191.8,202.2,192.6,202.1,193.4,202.1z"/>
<path class="st2" d="M213.2,240.3c-2.6,0-5.1-0.5-7.5-1.5c-2.1-0.9-4-2.3-5.5-4.1l4.3-4.3c0.9,1.3,2.1,2.4,3.5,3.2
	c1.6,0.8,3.4,1.3,5.2,1.2c1.2,0,2.3-0.2,3.4-0.6c0.8-0.4,1.3-1.1,1.3-2c0-0.6-0.2-1.1-0.6-1.5c-0.7-0.6-1.5-0.9-2.4-1l-4.8-1
	c-3.1-0.7-5.4-1.6-6.7-3s-2.1-3.2-2-5.1c0-1.5,0.4-3,1.3-4.2c1-1.4,2.4-2.5,4-3.2c2.1-0.9,4.3-1.3,6.6-1.2c2.4-0.1,4.9,0.4,7.1,1.3
	c1.9,0.8,3.5,2.1,4.7,3.8l-4.4,4.3c-0.7-1.2-1.8-2.2-3.1-2.9c-1.2-0.7-2.6-1-4-1c-0.9,0-1.8,0.1-2.6,0.3c-0.6,0.1-1.2,0.4-1.6,0.9
	c-0.4,0.4-0.5,0.9-0.5,1.4c0,0.6,0.3,1.2,0.8,1.5c0.8,0.6,1.8,0.9,2.8,1.1l5.5,1.1c2.2,0.3,4.2,1.2,5.8,2.7c1.2,1.2,1.8,2.9,1.7,4.6
	c0,1.6-0.5,3.2-1.4,4.6c-1,1.4-2.4,2.6-4.1,3.2C217.9,239.8,215.6,240.3,213.2,240.3z"/>
<path class="st2" d="M256,203.9v35.8h-7.5v-35.8H256z M275.7,218.6v6h-23.4v-6H275.7z M279.3,203.9v35.8h-7.5v-35.8H279.3z"/>
<path class="st2" d="M300.2,240.3c-2.6,0-5.2-0.5-7.5-1.7c-2.1-1.1-3.8-2.7-4.9-4.8c-1.2-2.3-1.8-5-1.7-7.6
	c-0.1-2.6,0.5-5.2,1.7-7.6c1.1-2,2.8-3.7,4.9-4.8c2.2-1.1,4.6-1.7,7.1-1.7c2.4-0.1,4.9,0.5,7,1.7c1.9,1,3.4,2.6,4.4,4.5
	c1,2,1.5,4.2,1.5,6.5c0,0.7,0,1.4-0.1,2.1c-0.1,0.7-0.1,1.2-0.2,1.7h-21.6v-5.2h18.4l-3.6,1.3c0.1-1.9-0.4-3.8-1.5-5.3
	c-1.1-1.2-2.7-1.9-4.4-1.8c-1.3-0.1-2.5,0.3-3.6,1c-1,0.7-1.8,1.7-2.3,2.9c-0.6,1.6-0.8,3.2-0.8,4.9c0,1.6,0.2,3.2,0.8,4.7
	c0.5,1.1,1.4,2.1,2.4,2.8c1.1,0.6,2.4,0.9,3.7,0.9c1.4,0.1,2.7-0.3,3.9-0.9c1-0.6,1.8-1.5,2.3-2.6l5.9,2.3c-0.6,1.4-1.5,2.6-2.6,3.6
	c-1.2,1-2.7,1.8-4.2,2.3C303.6,240,301.9,240.3,300.2,240.3z"/>
<path class="st2" d="M334.5,222.4c0.1-1.3-0.4-2.6-1.3-3.6c-0.9-0.9-2.2-1.4-3.5-1.3c-1.2,0-2.5,0.3-3.5,1c-1.1,0.8-1.9,2-2.2,3.4
	l-6.3-2c0.6-2.3,2-4.4,4-5.8c2.5-1.5,5.4-2.3,8.4-2.2c2.1,0,4.2,0.3,6.2,1.1c1.7,0.7,3.2,1.8,4.2,3.3c1.1,1.7,1.6,3.6,1.5,5.6v11
	c-0.2,1,0.5,1.9,1.5,2.1c0.2,0,0.3,0,0.5,0c0.6,0,1.2-0.1,1.7-0.3l-0.4,4.6c-1.1,0.5-2.3,0.8-3.5,0.7c-1.2,0-2.3-0.2-3.4-0.7
	c-1-0.4-1.8-1.1-2.4-2c-0.6-1-0.9-2.1-0.9-3.3v-0.2l1.3-0.2c-0.2,1.3-0.8,2.6-1.8,3.5c-1,1-2.2,1.7-3.6,2.2s-2.8,0.8-4.3,0.8
	c-1.6,0-3.3-0.3-4.8-0.8c-1.3-0.5-2.3-1.4-3.1-2.5c-0.7-1.2-1.1-2.6-1.1-4c0-1.9,0.7-3.7,2-5c1.6-1.4,3.5-2.3,5.6-2.6l10.2-2.1
	l-0.1,4.6l-6.5,1.3c-1,0.2-1.9,0.5-2.8,1c-0.6,0.5-1,1.2-0.9,2c-0.1,0.8,0.3,1.6,1,2.1s1.5,0.7,2.4,0.7c0.7,0,1.5-0.1,2.2-0.3
	s1.4-0.5,2-0.9s1.1-1,1.4-1.6c0.3-0.8,0.5-1.6,0.5-2.5v-7.1H334.5z"/>
<path class="st2" d="M357.5,200.7v30.7c-0.1,1,0.1,1.9,0.7,2.7c0.6,0.6,1.4,0.9,2.2,0.8c0.5,0,1,0,1.5-0.1c0.4-0.1,0.9-0.2,1.5-0.4
	l-0.7,4.9c-0.7,0.4-1.5,0.7-2.3,0.8c-0.9,0.2-1.8,0.3-2.7,0.3c-2.6,0-4.6-0.6-5.8-1.9s-1.8-3.3-1.8-6.2v-31.5h7.4L357.5,200.7z"/>
<path class="st2" d="M384.7,212.6v5.5h-21.1v-5.5H384.7z M376.1,204.3v26.6c-0.1,1,0.2,2.1,1,2.8c0.8,0.6,1.7,0.9,2.7,0.9
	c0.8,0,1.6-0.1,2.4-0.4c0.7-0.2,1.3-0.6,1.8-1.1l1.2,4.9c-1,0.7-2.1,1.3-3.3,1.6c-1.3,0.4-2.7,0.6-4.1,0.6c-1.6,0-3.3-0.3-4.8-0.8
	c-1.4-0.5-2.5-1.4-3.3-2.6c-0.9-1.4-1.3-3.1-1.2-4.8v-25.7L376.1,204.3z"/>
<path class="st2" d="M390.2,239.7v-39h7.4v16.5c0.8-1.6,2.1-3,3.6-3.9c1.6-0.9,3.4-1.3,5.2-1.3c1.7,0,3.4,0.4,5,1.1
	c1.5,0.7,2.7,1.9,3.5,3.3c0.9,1.7,1.4,3.6,1.3,5.5v17.8h-7.4v-15.6c0-2.4-0.5-4-1.4-4.9s-2.2-1.4-3.5-1.3c-1,0-2.1,0.2-3,0.7
	c-1,0.5-1.8,1.4-2.3,2.4c-0.7,1.4-1,2.9-0.9,4.4v14.3H390.2z"/>
<path class="st2" d="M87.1,269v35.8h-7.5V269H87.1z M106.7,283.7v6H83.3v-6H106.7z M110.3,269v35.8h-7.5V269H110.3z"/>
<path class="st2" d="M131,277.2c2.5,0,5,0.5,7.2,1.7c2.1,1.1,3.8,2.8,4.9,4.8c1.3,2.3,1.9,5,1.8,7.6c0.1,2.6-0.6,5.3-1.8,7.6
	c-1.2,2.1-2.8,3.7-4.9,4.9c-4.5,2.3-9.9,2.3-14.4,0c-2.1-1.1-3.8-2.8-4.9-4.9c-2.4-4.8-2.4-10.4,0-15.2c1.1-2,2.8-3.7,4.9-4.8
	C126,277.7,128.5,277.1,131,277.2z M131,282.7c-1.2,0-2.4,0.3-3.5,0.9c-1,0.7-1.8,1.7-2.2,2.8c-1.1,3.1-1.1,6.5,0,9.6
	c0.4,1.2,1.2,2.2,2.2,2.8c1.1,0.6,2.3,0.9,3.5,0.9s2.4-0.3,3.4-0.9c1-0.7,1.8-1.7,2.2-2.8c1.1-3.1,1.1-6.5,0-9.6
	c-0.4-1.2-1.2-2.2-2.2-2.8C133.4,282.9,132.2,282.6,131,282.7z"/>
<path class="st2" d="M160.6,305.4c-1.7,0-3.4-0.3-4.9-1c-1.4-0.7-2.6-1.7-3.4-3.1c-1-1.7-1.4-3.6-1.3-5.6v-18h7.4v16.2
	c0,2.1,0.4,3.6,1.3,4.4c1,0.9,2.4,1.3,3.7,1.2c0.8,0,1.5-0.1,2.2-0.4s1.4-0.7,1.9-1.3c0.6-0.6,1.1-1.4,1.3-2.3
	c0.3-1.1,0.5-2.2,0.5-3.3v-14.6h7.4v27.1h-6.6l-0.3-4.7c-0.8,1.7-2.1,3.1-3.7,4C164.5,304.9,162.6,305.4,160.6,305.4z"/>
<path class="st2" d="M195.5,305.4c-2.6,0-5.1-0.5-7.5-1.5c-2.1-0.9-4-2.3-5.5-4.1l4.3-4.3c0.9,1.3,2.1,2.4,3.5,3.2
	c1.6,0.8,3.4,1.3,5.2,1.2c1.2,0,2.3-0.2,3.4-0.6c0.8-0.4,1.3-1.1,1.3-2c0-0.6-0.2-1.1-0.6-1.5c-0.7-0.6-1.5-0.9-2.4-1l-4.8-1
	c-3.1-0.7-5.4-1.6-6.7-3s-2.1-3.2-2-5.1c0-1.5,0.4-3,1.3-4.2c1-1.4,2.4-2.5,4-3.2c2.1-0.9,4.3-1.3,6.6-1.2c2.4-0.1,4.9,0.4,7.1,1.3
	c1.9,0.8,3.5,2.1,4.7,3.8l-4.4,4.3c-0.7-1.2-1.8-2.2-3.1-2.9c-1.2-0.7-2.6-1-4-1c-0.9,0-1.8,0.1-2.6,0.3c-0.6,0.1-1.2,0.4-1.6,0.9
	c-0.4,0.4-0.5,0.9-0.5,1.4c0,0.6,0.3,1.2,0.8,1.5c0.8,0.6,1.8,0.9,2.8,1.1l5.5,1.1c2.2,0.3,4.2,1.2,5.8,2.7c1.2,1.2,1.8,2.9,1.7,4.6
	c0,1.6-0.5,3.2-1.4,4.6c-1,1.4-2.5,2.5-4.1,3.2C200.2,304.9,197.9,305.4,195.5,305.4z"/>
<path class="st2" d="M231.7,277.7v5.5h-21.1v-5.5H231.7z M223.1,269.4V296c-0.1,1,0.2,2.1,1,2.8c0.8,0.6,1.7,0.9,2.7,0.9
	c0.8,0,1.6-0.1,2.4-0.4c0.7-0.2,1.3-0.6,1.8-1.1l1.2,4.9c-1,0.7-2.1,1.3-3.3,1.6c-1.3,0.4-2.7,0.6-4.1,0.6c-1.6,0-3.3-0.3-4.8-0.8
	c-1.4-0.5-2.5-1.4-3.3-2.6c-0.9-1.4-1.3-3.1-1.2-4.8v-25.6L223.1,269.4z"/>
<path class="st2" d="M249.2,277.2c2.5,0,5,0.5,7.2,1.7c2.1,1.1,3.8,2.8,4.9,4.8c1.3,2.3,1.9,5,1.8,7.6c0.1,2.6-0.6,5.3-1.8,7.6
	c-1.2,2.1-2.8,3.7-4.9,4.9c-4.5,2.3-9.9,2.3-14.4,0c-2.1-1.1-3.8-2.8-4.9-4.9c-2.4-4.8-2.4-10.4,0-15.2c1.1-2,2.8-3.7,4.9-4.8
	C244.2,277.7,246.7,277.1,249.2,277.2z M249.2,282.7c-1.2,0-2.4,0.3-3.5,0.9c-1,0.7-1.8,1.7-2.2,2.8c-1.1,3.1-1.1,6.5,0,9.6
	c0.4,1.2,1.2,2.2,2.2,2.8c1.1,0.6,2.3,0.9,3.5,0.9s2.4-0.3,3.4-0.9c1-0.7,1.8-1.7,2.2-2.8c1.1-3.1,1.1-6.5,0-9.6
	c-0.4-1.2-1.2-2.2-2.2-2.8C251.6,282.9,250.4,282.6,249.2,282.7z"/>
<path class="st2" d="M269.3,304.8v-27.1h6.7l0.4,8.1l-0.9-0.9c0.3-1.6,1-3.1,2.1-4.4c0.9-1.1,2.1-2,3.4-2.6c1.4-0.6,3-0.9,4.5-0.8
	c1.7,0,3.4,0.4,5,1.1c1.5,0.7,2.7,1.9,3.5,3.3c0.9,1.7,1.4,3.6,1.3,5.5v17.8h-7.4v-15.7c0-2.3-0.5-3.9-1.4-4.8s-2.2-1.4-3.5-1.3
	c-1,0-2.1,0.2-3,0.7c-1,0.5-1.8,1.4-2.3,2.4c-0.7,1.3-1,2.8-0.9,4.3v14.4H269.3z"/>
<path class="st2" d="M95.4,334.1c4.1,0,7.2,1,9.5,2.9c4.4,4.1,4.7,11,0.6,15.4c-0.2,0.2-0.4,0.4-0.6,0.6c-2.3,1.9-5.5,2.8-9.5,2.8
	l-0.8,0.4h-7.7v13.7h-7.4v-35.8H95.4z M94.5,350.5c2.1,0,3.7-0.4,4.7-1.3c1.1-1,1.6-2.4,1.5-3.9c0.1-1.5-0.4-2.9-1.5-3.9
	c-1.4-0.9-3-1.4-4.7-1.3h-7.6v10.4L94.5,350.5L94.5,350.5z M98.9,352.1l11.6,17.8h-8.4l-9.6-15.7L98.9,352.1z"/>
<path class="st2" d="M127.7,370.5c-2.6,0-5.2-0.5-7.5-1.7c-2.1-1.1-3.8-2.7-4.9-4.8c-1.2-2.3-1.8-5-1.7-7.6
	c-0.1-2.6,0.5-5.2,1.7-7.6c1.1-2,2.8-3.7,4.9-4.8c2.2-1.1,4.6-1.7,7.1-1.7c2.4-0.1,4.9,0.5,7,1.7c1.9,1,3.4,2.6,4.4,4.5
	c1,2,1.5,4.2,1.5,6.5c0,0.7,0,1.4-0.1,2.1c0,0.6-0.1,1.1-0.2,1.7h-21.6v-5.2h18.4l-3.6,1.3c0.1-1.9-0.4-3.8-1.5-5.3
	c-1.1-1.2-2.7-1.9-4.4-1.8c-1.3-0.1-2.5,0.3-3.6,1c-1,0.7-1.8,1.7-2.3,2.9c-0.6,1.6-0.8,3.2-0.8,4.9c0,1.6,0.2,3.2,0.8,4.7
	c0.5,1.1,1.4,2.1,2.4,2.8c1.1,0.6,2.4,0.9,3.7,0.9c1.4,0.1,2.7-0.3,3.9-0.9c1-0.6,1.8-1.5,2.3-2.5l5.9,2.3c-0.6,1.4-1.5,2.6-2.6,3.6
	c-1.2,1-2.7,1.8-4.2,2.3C131.1,370.3,129.4,370.5,127.7,370.5z"/>
<path class="st2" d="M156.8,370.5c-2.1,0-4.2-0.6-6-1.7c-1.8-1.2-3.2-2.8-4.1-4.8c-1.1-2.4-1.6-4.9-1.5-7.5
	c-0.1-2.7,0.5-5.3,1.6-7.7c0.9-2,2.4-3.7,4.3-4.8c1.8-1.1,3.9-1.7,6-1.7c2.2-0.1,4.3,0.7,5.9,2.1c1.6,1.4,2.7,3.2,3,5.3l-0.7,0.9
	V331h7.4v39H166l-0.5-8.2l0.9,0.4c-0.2,1.6-0.8,3.1-1.7,4.4c-0.9,1.2-2.1,2.2-3.4,2.9C159.9,370.1,158.4,370.4,156.8,370.5z
	 M158.9,364.8c1.2,0,2.4-0.3,3.4-1c1-0.8,1.8-1.8,2.2-3c0.5-1.5,0.8-3.1,0.8-4.7c0-1.5-0.2-3-0.8-4.4c-0.4-1.1-1.2-2.1-2.2-2.8
	c-1-0.7-2.1-1.1-3.3-1c-1.8-0.1-3.6,0.7-4.7,2.1c-1.1,1.4-1.7,3.5-1.7,6.3c-0.1,2.2,0.5,4.4,1.7,6.3
	C155.4,364,157.1,364.8,158.9,364.8z"/>
<path class="st2" d="M193.1,370.5c-2.6,0-5.2-0.5-7.5-1.7c-2.1-1.1-3.8-2.7-4.9-4.8c-1.2-2.3-1.8-5-1.7-7.6
	c-0.1-2.6,0.5-5.2,1.7-7.6c1.1-2,2.8-3.7,4.9-4.8c2.2-1.1,4.6-1.7,7.1-1.7c2.4-0.1,4.9,0.5,7,1.7c1.9,1,3.4,2.6,4.4,4.5
	c1,2,1.5,4.2,1.5,6.5c0,0.7,0,1.4-0.1,2.1c0,0.6-0.1,1.1-0.2,1.7h-21.6v-5.2h18.4l-3.6,1.3c0.1-1.9-0.4-3.8-1.5-5.3
	c-1.1-1.2-2.7-1.9-4.4-1.8c-1.3-0.1-2.5,0.3-3.6,1c-1,0.7-1.8,1.7-2.3,2.9c-0.6,1.6-0.8,3.2-0.8,4.9c0,1.6,0.2,3.2,0.8,4.7
	c0.5,1.1,1.4,2.1,2.4,2.8c1.1,0.6,2.4,0.9,3.7,0.9c1.4,0.1,2.7-0.3,3.9-0.9c1-0.6,1.8-1.5,2.3-2.5l5.9,2.3c-0.6,1.4-1.5,2.6-2.6,3.6
	c-1.2,1-2.7,1.8-4.2,2.3C196.5,370.3,194.8,370.5,193.1,370.5z"/>
<path class="st2" d="M222.8,370.5c-2.6,0-5.1-0.5-7.5-1.5c-2.1-0.9-4-2.3-5.5-4.1l4.3-4.3c0.9,1.3,2.1,2.4,3.5,3.2
	c1.6,0.8,3.4,1.3,5.2,1.2c1.2,0,2.3-0.2,3.4-0.6c0.8-0.4,1.3-1.1,1.3-2c0-0.6-0.2-1.1-0.6-1.5c-0.7-0.6-1.5-0.9-2.4-1l-4.8-1
	c-3.1-0.7-5.4-1.6-6.7-3s-2.1-3.2-2-5.1c0-1.5,0.4-3,1.3-4.2c1-1.4,2.4-2.5,4-3.2c2.1-0.9,4.3-1.3,6.6-1.2c2.4-0.1,4.9,0.4,7.1,1.3
	c1.9,0.8,3.5,2.1,4.7,3.8l-4.4,4.3c-0.7-1.2-1.8-2.2-3.1-2.9c-1.2-0.7-2.6-1-4-1c-0.9,0-1.8,0.1-2.6,0.3c-0.6,0.1-1.2,0.4-1.6,0.9
	c-0.4,0.4-0.5,0.9-0.5,1.4c0,0.6,0.3,1.2,0.8,1.5c0.8,0.6,1.8,0.9,2.8,1.1l5.5,1.1c2.2,0.3,4.2,1.2,5.8,2.7c1.2,1.2,1.8,2.9,1.7,4.6
	c0,1.6-0.5,3.2-1.4,4.6c-1,1.4-2.5,2.5-4.1,3.2C227.5,370,225.2,370.5,222.8,370.5z"/>
<path class="st2" d="M244.5,338.9c-1.3,0.1-2.5-0.2-3.5-1c-0.8-0.8-1.2-1.9-1.1-3c-0.1-1.1,0.3-2.2,1.1-3c2.1-1.3,4.9-1.3,7,0
	c0.8,0.8,1.2,1.9,1.1,3c0.1,1.1-0.3,2.2-1.1,3C247,338.6,245.8,339,244.5,338.9z M248.2,342.8v27.1h-7.4v-27.1H248.2z"/>
<path class="st2" d="M272.2,364.8c2.9,0,5.2,0.6,6.8,1.9c1.6,1.3,2.5,3.3,2.4,5.3c0.1,1.9-0.6,3.7-1.8,5.2c-1.3,1.5-3.1,2.6-5,3.2
	c-2.4,0.8-5,1.1-7.5,1.1c-4.7,0-8.1-0.7-10.2-2c-2-1-3.2-2.9-3.2-5.1c0-1.4,0.6-2.8,1.7-3.7c1.1-1,3-1.6,5.7-1.7l-0.3,0.9
	c-1.6-0.2-3.1-0.9-4.3-1.9c-1-1-1.6-2.4-1.5-3.8c-0.1-1.6,0.6-3.1,1.9-4.1c1.5-1.2,3.3-1.8,5.2-1.9l3.3,1.5h-0.8
	c-1.2,0-2.3,0.3-3.3,0.9c-0.6,0.4-0.9,1.1-0.9,1.8c0,0.7,0.3,1.3,0.9,1.7c0.8,0.4,1.7,0.7,2.6,0.6h8.3L272.2,364.8z M267.2,342.3
	c2.2,0,4.5,0.3,6.6,1.1c1.7,0.6,3.2,1.7,4.3,3.2c2,3,2,6.8,0,9.8c-1.1,1.5-2.6,2.6-4.3,3.2c-2.1,0.8-4.4,1.1-6.6,1.1
	c-4,0-7.1-0.8-9.2-2.5c-2.1-1.6-3.3-4.1-3.2-6.7c-0.1-1.8,0.5-3.5,1.5-4.9c1.1-1.5,2.6-2.6,4.3-3.2
	C262.7,342.5,265,342.2,267.2,342.3z M267.1,376.5c1.5,0,3.1-0.1,4.6-0.5c1-0.2,1.9-0.6,2.7-1.2c0.5-0.4,0.9-1,0.9-1.7
	s-0.3-1.3-0.8-1.7c-0.9-0.5-1.9-0.7-2.9-0.6h-9.2c-0.8-0.1-1.5,0.2-2.1,0.7c-0.6,0.4-0.9,1.1-0.8,1.8c0,1,0.7,1.8,2,2.4
	C263.3,376.2,265.2,376.5,267.1,376.5L267.1,376.5z M267.2,346.9c-1.3,0-2.6,0.4-3.6,1.2c-1.8,1.8-1.9,4.7-0.1,6.5l0.1,0.1
	c1,0.8,2.3,1.3,3.6,1.2c1.3,0,2.6-0.4,3.6-1.2c1-0.8,1.5-2,1.4-3.3c0-1.3-0.5-2.5-1.4-3.3C269.8,347.3,268.5,346.8,267.2,346.9z
	 M281.1,336.4l0.9,5.3h-1c-1.3-0.1-2.6,0.3-3.7,1.1c-0.8,0.8-1.3,1.9-1.2,3.1l-3-1.2c0-1.4,0.3-2.8,0.9-4c1.2-2.6,3.8-4.2,6.7-4.1
	h0.3C281.1,336.6,281,336.4,281.1,336.4L281.1,336.4z"/>
<path class="st2" d="M285.8,369.9v-27.1h6.7l0.4,8.1L292,350c0.3-1.6,1-3.1,2.1-4.4c0.9-1.1,2.1-2,3.4-2.6c1.4-0.6,3-0.9,4.5-0.8
	c1.7,0,3.4,0.4,5,1.1c1.5,0.7,2.7,1.9,3.5,3.3c0.9,1.7,1.4,3.6,1.3,5.5v17.8h-7.4v-15.7c0-2.3-0.5-3.9-1.4-4.8s-2.2-1.4-3.5-1.3
	c-1,0-2.1,0.2-3,0.7c-1,0.5-1.8,1.4-2.3,2.4c-0.7,1.3-1,2.8-0.9,4.3v14.4H285.8z"/>
<path class="st2" d="M298,510.6l-0.8,9.4c0,1.8-0.8,3.5-2.1,4.6c-3.1,1.9-7.1,1.5-9.9-0.8c-1.1-1.4-1.6-3.2-1.3-4.9l0.8-9.4l3.2,0.2
	l-0.8,9.3c-0.2,1,0.1,2.1,0.6,2.9c1.4,1.4,3.6,1.5,5.1,0.4c0.7-0.8,1.1-1.8,1.1-2.9l0.8-9.3L298,510.6z"/>
<path class="st2" d="M313.1,527l-3.9-0.2l-3.2-5.7l-3.6,5.4l-3.7-0.2l5.7-7.7l-4.6-8l3.8,0.2l2.9,5.4l3.4-5.1l3.6,0.2l-5.3,7.4
	L313.1,527z"/>
<path class="st2" d="M324,510.2l-7.2,18.6h-3l7.2-18.6H324z"/>
<path class="st2" d="M338.9,511.4l0.2,9.4c0.2,1.8-0.5,3.6-1.6,4.8c-2.9,2.2-7,2.2-10,0.2c-1.2-1.2-1.9-3-1.8-4.8l-0.2-9.5h3.2
	l0.2,9.4c-0.1,1,0.2,2.1,0.9,2.9c0.7,0.7,1.6,1,2.6,0.9c0.9,0.1,1.9-0.3,2.5-1c0.6-0.9,0.9-1.9,0.8-2.9l-0.2-9.4L338.9,511.4z"/>
<path class="st2" d="M345.6,511l0.7,15.6l-3.2,0.2l-0.7-15.6L345.6,511z"/>
<path class="st2" d="M351.6,522.7c0.5,0,0.9,0.1,1.2,0.3c0.4,0.2,0.6,0.5,0.9,0.9c0.2,0.4,0.3,0.9,0.4,1.3c0.1,0.6-0.1,1.3-0.3,1.9
	c-0.2,0.6-0.5,1.2-1,1.7c-0.4,0.5-0.9,0.9-1.5,1.2l-1.5-1c0.4-0.2,0.8-0.5,1.2-0.7c0.3-0.2,0.6-0.5,0.9-0.9c0.2-0.3,0.4-0.6,0.5-1
	h-0.2c-0.1,0.1-0.2,0.1-0.3,0.2c-0.2,0.1-0.3,0.1-0.5,0.1c-0.2,0-0.5-0.1-0.8-0.2c-0.3-0.2-0.5-0.3-0.7-0.5
	c-0.2-0.3-0.3-0.6-0.3-0.9c0-0.4,0.1-0.8,0.2-1.1c0.2-0.3,0.4-0.5,0.7-0.8C350.8,522.9,351.2,522.8,351.6,522.7z"/>
<path class="st2" d="M365,525.2l-1.9-15.5l6.8-0.8c1.5-0.3,2.9-0.1,4.3,0.6c1,0.7,1.6,1.8,1.7,3c0.1,0.8-0.1,1.6-0.5,2.3
	c-0.5,0.8-1.2,1.2-2.1,1.5l0,0c0.9,0,1.9,0.3,2.6,0.9c0.6,0.5,1.1,1.4,1.2,2.2c0.2,1.2-0.2,2.5-1.1,3.3c-1.2,1-2.6,1.5-4.1,1.6
	L365,525.2z M367.1,515.9l3.2-0.4c1.7-0.2,2.5-1,2.3-2.3c-0.2-1.3-1.1-1.9-2.8-1.7l-3.2,0.4L367.1,515.9z M367.8,522.5l3.6-0.4
	c0.7,0,1.4-0.3,1.9-0.8c0.4-0.5,0.5-1,0.5-1.5c0-0.5-0.3-1.1-0.9-1.4c-0.6-0.3-1.3-0.5-2-0.3l-3.6,0.4L367.8,522.5z"/>
<path class="st2" d="M385.4,506.6c1.5-0.3,3-0.2,4.3,0.5c2.2,1.5,2.8,4.4,1.4,6.6c-0.1,0.1-0.1,0.2-0.2,0.2c-1,1.1-2.4,1.7-3.9,1.9
	l-0.3,0.2l-3.3,0.5l1,5.9l-3.2,0.5l-2.6-15.4L385.4,506.6z M386.2,513.8c0.7-0.1,1.4-0.4,1.9-0.9c0.4-0.5,0.5-1.2,0.4-1.8
	c-0.1-0.6-0.4-1.2-0.9-1.5c-0.7-0.3-1.4-0.4-2.1-0.2l-3.2,0.5l0.8,4.5L386.2,513.8z M388.2,514.1l6.3,6.8l-3.6,0.6l-5.3-6
	L388.2,514.1z"/>
<path class="st2" d="M396,520.7l2-16.5l3.8-0.9l9.1,13.9l-3.3,0.8l-5.9-9.5l-1.2-2.2l0,0l-0.2,2.4l-1.1,11.2L396,520.7z
	 M398.4,516.2l-0.5-2.3l8.3-1.9l0.5,2.3L398.4,516.2z"/>
<path class="st2" d="M422.1,497.5l4.6,14.9l-3.6,1.1l-7.9-7.1l-2-2l0,0l0.9,2.5l2.6,8.7l-2.8,0.9l-4.6-14.9l3.6-1.1l7.9,7.2l2,2.1
	l0,0l-0.9-2.5l-2.6-8.7L422.1,497.5z"/>
<path class="st2" d="M431.1,494.1c1.9-0.9,4.1-0.9,6-0.2c3.7,2.2,5.5,6.6,4.3,10.7c-0.9,1.9-2.6,3.3-4.6,3.9l-5.6,2.2l-5.7-14.5
	L431.1,494.1z M435.8,506.3c1.2-0.4,2.2-1.3,2.6-2.5c0.5-2.8-0.5-5.6-2.9-7.2c-1.2-0.5-2.5-0.5-3.6,0l-2.5,0.9l3.8,9.7L435.8,506.3z
	"/>
</svg>
