<?xml version="1.0" encoding="utf-8"?>
<!-- Generator: Adobe Illustrator 24.3.0, SVG Export Plug-In . SVG Version: 6.00 Build 0)  -->
<svg version="1.1" id="Layer_1" xmlns="http://www.w3.org/2000/svg" xmlns:xlink="http://www.w3.org/1999/xlink" x="0px" y="0px"
	 viewBox="0 0 483.1 463.6" style="enable-background:new 0 0 483.1 463.6;" xml:space="preserve">
<style type="text/css">
	.st0{fill:#346C63;}
	.st1{fill:#FFFFFF;}
</style>
<path class="st0" d="M317.7,65.6L181.1,9.9c-31-9.2-64.9-17.8-92.9,2.9c-18.9,14-32,39.3-42.7,65.3C16.2,149.1,0.4,231,0,313.1
	c-0.1,19.8,1.1,41,9.8,56.5c7.5,13.4,19.3,20.2,30.6,26.1c128.9,66.5,269.5,71.7,406.8,66.2c7.2-0.3,14.8-0.8,20.8-6.2
	c9.1-8.1,12.1-24.6,13.5-39.6C492.6,297,430.3,138.8,334.6,75.7"/>
<g>
	<path class="st1" d="M56,235.7v-37.5h28.1v6.3H63.8v9.3h16v6h-16v9.5h21.1v6.3L56,235.7L56,235.7z"/>
	<path class="st1" d="M103.4,206.7c2.5,0,4.7,0.4,6.4,1.1c1.8,0.7,3.2,1.7,4.3,3c1.1,1.3,1.8,2.7,2.3,4.2l-7.3,2.6
		c-0.4-1.7-1-3-1.9-3.9s-2.1-1.3-3.7-1.3c-1.4,0-2.7,0.3-3.7,1s-1.8,1.7-2.3,3s-0.8,3-0.8,5s0.3,3.7,0.8,5s1.3,2.3,2.4,3
		c1,0.6,2.3,1,3.7,1c1.1,0,2.1-0.2,2.9-0.6c0.8-0.4,1.4-1,2-1.7c0.5-0.8,0.9-1.7,1.1-2.7l7,2.3c-0.4,1.7-1.2,3.2-2.3,4.5
		c-1.1,1.3-2.6,2.3-4.4,3s-3.8,1.1-6.2,1.1c-2.9,0-5.5-0.6-7.7-1.8s-4-2.9-5.2-5.1c-1.2-2.2-1.8-4.8-1.8-8c0-3.1,0.6-5.8,1.8-8
		c1.2-2.2,2.9-3.9,5.1-5.1C98,207.3,100.5,206.7,103.4,206.7z"/>
	<path class="st1" d="M135.5,206.7c2.9,0,5.4,0.6,7.6,1.8c2.2,1.2,3.9,2.9,5.1,5.1c1.2,2.2,1.8,4.8,1.8,8c0,3.1-0.6,5.7-1.8,7.9
		s-2.9,3.9-5.1,5.1c-2.2,1.2-4.7,1.8-7.6,1.8c-2.8,0-5.4-0.6-7.6-1.8c-2.2-1.2-3.9-2.9-5.1-5.1c-1.2-2.2-1.8-4.9-1.8-7.9
		c0-3.1,0.6-5.8,1.8-8c1.2-2.2,2.9-3.9,5.1-5.1C130.1,207.3,132.6,206.7,135.5,206.7z M135.5,212.5c-1.4,0-2.7,0.3-3.7,1
		s-1.8,1.7-2.3,3s-0.8,3-0.8,5s0.3,3.7,0.8,5s1.3,2.3,2.3,3s2.2,1,3.7,1c1.4,0,2.6-0.3,3.6-1s1.8-1.7,2.3-3s0.8-3,0.8-5
		s-0.3-3.7-0.8-5s-1.3-2.3-2.3-3S136.9,212.5,135.5,212.5z"/>
	<path class="st1" d="M156.6,235.7v-28.4h7l0.3,5.1c0.9-1.9,2.2-3.3,3.9-4.3c1.6-0.9,3.5-1.4,5.5-1.4s3.9,0.5,5.5,1.4
		s2.9,2.3,3.7,4.2c0.6-1.2,1.4-2.3,2.4-3.1s2.2-1.5,3.4-1.9s2.5-0.6,3.8-0.6c1.9,0,3.6,0.4,5.1,1.1c1.5,0.8,2.8,1.9,3.7,3.4
		s1.4,3.4,1.4,5.8v18.6h-7.8v-17.1c0-2.1-0.5-3.6-1.4-4.4c-0.9-0.9-2.1-1.3-3.5-1.3c-1.1,0-2.2,0.3-3.2,0.9c-1,0.6-1.7,1.4-2.3,2.5
		c-0.5,1.1-0.8,2.5-0.8,4.2v15.3h-7.8v-17.1c0-2.1-0.5-3.6-1.4-4.4c-0.9-0.9-2.1-1.3-3.6-1.3c-1,0-2,0.3-2.9,0.8
		c-1,0.5-1.8,1.4-2.4,2.5c-0.6,1.1-0.9,2.6-0.9,4.5v15.1h-7.7V235.7z"/>
	<path class="st1" d="M210.2,235.7v-28.4h7l0.3,5.1c0.9-1.9,2.2-3.3,3.9-4.3c1.6-0.9,3.5-1.4,5.5-1.4s3.9,0.5,5.5,1.4
		s2.9,2.3,3.7,4.2c0.6-1.2,1.4-2.3,2.4-3.1s2.2-1.5,3.4-1.9s2.5-0.6,3.8-0.6c1.9,0,3.6,0.4,5.1,1.1c1.5,0.8,2.8,1.9,3.7,3.4
		s1.4,3.4,1.4,5.8v18.6h-7.8v-17.1c0-2.1-0.5-3.6-1.4-4.4c-0.9-0.9-2.1-1.3-3.5-1.3c-1.1,0-2.2,0.3-3.2,0.9c-1,0.6-1.7,1.4-2.3,2.5
		s-0.8,2.5-0.8,4.2v15.3h-7.8v-17.1c0-2.1-0.5-3.6-1.4-4.4c-0.9-0.9-2.1-1.3-3.5-1.3c-1,0-2,0.3-2.9,0.8c-1,0.5-1.8,1.4-2.4,2.5
		c-0.6,1.1-0.9,2.6-0.9,4.5v15.1h-7.8V235.7z"/>
	<path class="st1" d="M277.1,236.2c-3,0-5.6-0.6-7.8-1.8c-2.2-1.2-3.9-2.9-5.1-5.1c-1.2-2.2-1.8-4.8-1.8-8c0-3.1,0.6-5.8,1.8-8
		c1.2-2.2,2.9-3.9,5.1-5.1c2.2-1.2,4.7-1.8,7.5-1.8c2.9,0,5.3,0.6,7.3,1.7c2,1.2,3.5,2.7,4.6,4.7s1.6,4.3,1.6,6.8
		c0,0.8,0,1.5-0.1,2.2c0,0.7-0.1,1.3-0.2,1.8h-22.7v-5.4h19.3l-3.8,1.4c0-2.4-0.5-4.2-1.6-5.5s-2.6-1.9-4.6-1.9
		c-1.4,0-2.7,0.3-3.7,1s-1.8,1.7-2.4,3c-0.5,1.3-0.8,3-0.8,5.1c0,2,0.3,3.7,0.9,5s1.4,2.3,2.5,2.9c1.1,0.6,2.4,1,3.9,1
		c1.7,0,3-0.3,4-1c1-0.6,1.8-1.5,2.4-2.7l6.2,2.4c-0.6,1.5-1.5,2.7-2.8,3.8c-1.2,1.1-2.7,1.9-4.4,2.4S279,236.2,277.1,236.2z"/>
	<path class="st1" d="M296.8,235.7v-28.4h6.8l0.5,5.6c0.8-2,1.9-3.5,3.3-4.5c1.5-1.1,3.3-1.6,5.5-1.6c0.6,0,1.2,0.1,1.8,0.2
		c0.5,0.1,1,0.3,1.3,0.5l-0.9,6.5c-0.4-0.2-0.8-0.3-1.4-0.3c-0.5-0.1-1.3-0.1-2.1-0.1c-1.1,0-2.2,0.3-3.3,0.8
		c-1.1,0.5-1.9,1.4-2.6,2.5s-1,2.5-1,4.2v14.7L296.8,235.7L296.8,235.7z"/>
	<path class="st1" d="M333.1,206.7c2.5,0,4.7,0.4,6.4,1.1c1.8,0.7,3.2,1.7,4.3,3c1.1,1.3,1.8,2.7,2.3,4.2l-7.3,2.6
		c-0.4-1.7-1-3-1.9-3.9s-2.1-1.3-3.7-1.3c-1.4,0-2.7,0.3-3.7,1s-1.8,1.7-2.3,3s-0.8,3-0.8,5s0.3,3.7,0.8,5s1.3,2.3,2.4,3
		c1,0.6,2.3,1,3.7,1c1.1,0,2.1-0.2,2.9-0.6c0.8-0.4,1.4-1,2-1.7c0.5-0.8,0.9-1.7,1.1-2.7l7,2.3c-0.4,1.7-1.2,3.2-2.3,4.5
		c-1.1,1.3-2.6,2.3-4.4,3s-3.8,1.1-6.2,1.1c-2.9,0-5.5-0.6-7.7-1.8s-4-2.9-5.2-5.1c-1.2-2.2-1.8-4.8-1.8-8c0-3.1,0.6-5.8,1.8-8
		c1.2-2.2,2.9-3.9,5.1-5.1C327.8,207.3,330.3,206.7,333.1,206.7z"/>
	<path class="st1" d="M365.4,236.2c-3,0-5.6-0.6-7.8-1.8c-2.2-1.2-3.9-2.9-5.1-5.1c-1.2-2.2-1.8-4.8-1.8-8c0-3.1,0.6-5.8,1.8-8
		c1.2-2.2,2.9-3.9,5.1-5.1c2.2-1.2,4.7-1.8,7.5-1.8c2.9,0,5.3,0.6,7.3,1.7c2,1.2,3.5,2.7,4.6,4.7s1.6,4.3,1.6,6.8
		c0,0.8,0,1.5-0.1,2.2c0,0.7-0.1,1.3-0.2,1.8h-22.7v-5.4h19.3l-3.8,1.4c0-2.4-0.5-4.2-1.6-5.5s-2.6-1.9-4.6-1.9
		c-1.4,0-2.7,0.3-3.7,1s-1.8,1.7-2.4,3c-0.5,1.3-0.8,3-0.8,5.1c0,2,0.3,3.7,0.9,5s1.4,2.3,2.5,2.9c1.1,0.6,2.4,1,3.9,1
		c1.7,0,3-0.3,4-1c1-0.6,1.8-1.5,2.4-2.7l6.2,2.4c-0.6,1.5-1.5,2.7-2.8,3.8c-1.2,1.1-2.7,1.9-4.4,2.4S367.4,236.2,365.4,236.2z"/>
	<path class="st1" d="M88.1,293.5c-0.7,2.4-1.9,4.5-3.4,6.1c-1.6,1.6-3.4,2.8-5.5,3.6c-2.1,0.8-4.5,1.2-7,1.2
		c-3.7,0-6.9-0.8-9.6-2.3c-2.7-1.6-4.8-3.8-6.2-6.6c-1.5-2.9-2.2-6.3-2.2-10.3s0.7-7.5,2.2-10.3c1.5-2.9,3.5-5.1,6.2-6.6
		c2.7-1.6,5.9-2.3,9.5-2.3c2.6,0,4.9,0.4,7,1.1s3.9,1.8,5.3,3.2c1.5,1.4,2.5,3.3,3.2,5.5l-7.1,3c-0.6-2.3-1.6-3.9-3-4.9
		c-1.3-1-3-1.4-5.1-1.4c-2,0-3.8,0.5-5.4,1.5c-1.5,1-2.7,2.4-3.6,4.3c-0.8,1.9-1.2,4.3-1.2,7.1c0,2.8,0.4,5.1,1.2,7
		c0.8,1.9,1.9,3.4,3.4,4.4s3.4,1.5,5.6,1.5c2,0,3.8-0.5,5.3-1.6s2.5-2.8,3.2-5L88.1,293.5z"/>
	<path class="st1" d="M110.2,285.7c0-1.6-0.5-2.9-1.4-3.8s-2.1-1.4-3.7-1.4c-1.4,0-2.6,0.4-3.7,1.1s-1.8,1.9-2.3,3.6l-6.6-2
		c0.6-2.5,2.1-4.5,4.2-6c2.2-1.5,5.1-2.3,8.8-2.3c2.5,0,4.7,0.4,6.5,1.2c1.9,0.8,3.3,1.9,4.3,3.5s1.6,3.5,1.6,5.9V297
		c0,1.4,0.7,2.2,2,2.2c0.6,0,1.2-0.1,1.8-0.3l-0.5,4.8c-1,0.5-2.2,0.7-3.7,0.7c-1.3,0-2.5-0.2-3.6-0.7s-1.9-1.1-2.5-2.1
		c-0.6-0.9-0.9-2.1-0.9-3.5v-0.2l1.4-0.2c-0.2,1.4-0.9,2.7-1.9,3.7s-2.3,1.8-3.7,2.3c-1.5,0.5-3,0.8-4.5,0.8c-1.9,0-3.6-0.3-5-0.9
		s-2.5-1.4-3.2-2.6c-0.8-1.1-1.1-2.5-1.1-4.2c0-2.1,0.7-3.9,2-5.2c1.4-1.3,3.3-2.3,5.9-2.8l10.7-2.2l-0.1,4.8l-6.8,1.4
		c-1.3,0.3-2.3,0.6-2.9,1.1c-0.7,0.4-1,1.1-1,2.1c0,0.9,0.3,1.7,1.1,2.2c0.7,0.5,1.5,0.7,2.5,0.7c0.8,0,1.6-0.1,2.3-0.3
		c0.8-0.2,1.4-0.5,2-0.9s1.1-1,1.4-1.7s0.5-1.6,0.5-2.6L110.2,285.7L110.2,285.7z"/>
	<path class="st1" d="M138,304.4c-2.9,0-5.5-0.5-7.9-1.5c-2.4-1-4.3-2.5-5.8-4.3l4.5-4.5c0.9,1.4,2.1,2.5,3.6,3.4s3.3,1.3,5.4,1.3
		c1.5,0,2.7-0.2,3.6-0.7c0.9-0.4,1.3-1.1,1.3-2.1c0-0.6-0.2-1.1-0.6-1.6c-0.4-0.4-1.2-0.8-2.5-1.1l-5-1c-3.3-0.7-5.6-1.7-7-3.1
		c-1.4-1.4-2.1-3.2-2.1-5.4c0-1.6,0.5-3,1.4-4.4s2.3-2.5,4.2-3.3c1.9-0.9,4.2-1.3,6.9-1.3c2.8,0,5.3,0.4,7.4,1.3
		c2.1,0.9,3.8,2.2,5,3.9l-4.7,4.5c-0.8-1.3-1.9-2.3-3.3-3c-1.3-0.7-2.8-1.1-4.2-1.1c-1.1,0-2,0.1-2.7,0.3c-0.8,0.2-1.3,0.5-1.7,0.9
		s-0.6,0.9-0.6,1.5s0.3,1.1,0.8,1.6c0.5,0.4,1.5,0.8,2.9,1.1l5.8,1.2c2.8,0.6,4.8,1.5,6,2.9c1.2,1.3,1.8,3,1.8,4.9
		c0,1.8-0.5,3.4-1.4,4.9c-1,1.4-2.4,2.5-4.3,3.4C143,304,140.7,304.4,138,304.4z"/>
	<path class="st1" d="M169.8,304.4c-3,0-5.6-0.6-7.8-1.8c-2.2-1.2-3.9-2.9-5.1-5.1c-1.2-2.2-1.8-4.8-1.8-8c0-3.1,0.6-5.8,1.8-8
		s2.9-3.9,5.1-5.1c2.2-1.2,4.7-1.8,7.5-1.8c2.9,0,5.3,0.6,7.3,1.7c2,1.2,3.5,2.7,4.6,4.7s1.6,4.3,1.6,6.8c0,0.8,0,1.5-0.1,2.2
		c0,0.7-0.1,1.3-0.2,1.8H160v-5.4h19.3l-3.7,1.4c0-2.4-0.5-4.2-1.6-5.5s-2.6-1.9-4.6-1.9c-1.4,0-2.7,0.3-3.7,1s-1.8,1.7-2.4,3
		c-0.5,1.3-0.8,3-0.8,5.1c0,2,0.3,3.7,0.9,5c0.6,1.3,1.4,2.3,2.5,2.9s2.4,1,3.9,1c1.7,0,3-0.3,4-1c1-0.6,1.8-1.5,2.4-2.7l6.2,2.4
		c-0.6,1.5-1.5,2.7-2.8,3.8c-1.2,1.1-2.7,1.9-4.4,2.4C173.6,304.1,171.8,304.4,169.8,304.4z"/>
	<path class="st1" d="M221.4,265.8c3.4,0,6.4,0.6,9,1.8c2.6,1.2,4.8,2.9,6.6,5.2l-4.4,5.1c-1.6-2-3.2-3.4-5.1-4.3
		c-1.8-0.9-4-1.4-6.4-1.4c-1.6,0-2.9,0.2-3.9,0.6s-1.8,1-2.3,1.6c-0.5,0.7-0.7,1.4-0.7,2.3c0,1,0.4,1.9,1.2,2.6s2.2,1.3,4.1,1.7
		l7,1.6c3.7,0.8,6.4,2.1,8,3.7s2.4,3.8,2.4,6.4c0,2.5-0.6,4.6-1.9,6.3c-1.3,1.8-3.1,3.1-5.4,4c-2.3,0.9-5,1.4-8,1.4
		c-2.6,0-5-0.3-7.2-0.9s-4.1-1.5-5.8-2.6s-3.1-2.4-4.3-3.8l4.4-5.3c0.9,1.2,1.9,2.3,3.2,3.2c1.3,0.9,2.8,1.7,4.4,2.2
		c1.6,0.5,3.4,0.8,5.2,0.8c1.6,0,2.9-0.2,3.9-0.5c1.1-0.4,1.9-0.9,2.4-1.5c0.5-0.7,0.8-1.5,0.8-2.4c0-1-0.3-1.8-1-2.5
		s-1.9-1.2-3.7-1.6l-7.6-1.7c-2.2-0.5-4.1-1.2-5.7-2.1c-1.6-0.9-2.8-2-3.6-3.3s-1.2-2.9-1.2-4.8c0-2.2,0.6-4.2,1.8-6s3-3.2,5.3-4.2
		C215.5,266.3,218.2,265.8,221.4,265.8z"/>
	<path class="st1" d="M262.7,275.4v5.8h-22.1v-5.8H262.7z M253.6,266.7v27.8c0,1.4,0.3,2.4,1.1,3c0.7,0.6,1.7,0.9,2.9,0.9
		c0.9,0,1.8-0.1,2.5-0.4s1.4-0.7,1.9-1.2l1.2,5.2c-0.9,0.7-2,1.3-3.4,1.7s-2.8,0.6-4.3,0.6c-1.9,0-3.6-0.3-5-0.9s-2.6-1.5-3.4-2.7
		c-0.8-1.2-1.2-2.9-1.2-5v-26.9L253.6,266.7z"/>
	<path class="st1" d="M277.8,304.4c-1.9,0-3.6-0.3-5.1-1s-2.7-1.8-3.6-3.3s-1.3-3.4-1.3-5.8v-18.9h7.8v17c0,2.2,0.5,3.7,1.4,4.6
		s2.2,1.3,3.9,1.3c0.8,0,1.6-0.1,2.3-0.4s1.4-0.7,2-1.3c0.6-0.6,1.1-1.4,1.4-2.4s0.5-2.1,0.5-3.4v-15.3h7.8v28.4H288l-0.3-4.9
		c-0.9,1.9-2.2,3.3-3.9,4.2C282.1,303.9,280.1,304.4,277.8,304.4z"/>
	<path class="st1" d="M313.8,304.4c-2.3,0-4.4-0.6-6.3-1.8c-1.8-1.2-3.3-2.9-4.3-5.1s-1.6-4.8-1.6-7.9s0.5-5.8,1.6-8
		s2.6-3.9,4.5-5.1s4-1.7,6.3-1.7c2.5,0,4.6,0.7,6.2,2.2c1.6,1.4,2.7,3.3,3.2,5.6l-0.7,0.9V263h7.8v40.8h-7l-0.5-8.6l1,0.5
		c-0.3,1.8-0.9,3.3-1.8,4.6c-0.9,1.3-2.1,2.3-3.6,3S315.5,304.4,313.8,304.4z M316.1,298.4c1.4,0,2.5-0.3,3.5-1.1
		c1-0.7,1.8-1.7,2.3-3.1s0.8-3,0.8-4.9c0-1.8-0.3-3.4-0.8-4.6c-0.5-1.3-1.3-2.2-2.3-2.9c-1-0.7-2.1-1-3.5-1c-2.1,0-3.8,0.7-5,2.2
		s-1.8,3.7-1.8,6.6s0.6,5.1,1.8,6.6C312.4,297.7,314,298.4,316.1,298.4z"/>
	<path class="st1" d="M365.4,275.4l-11.5,30.2c-0.9,2.6-1.9,4.6-3,6.1s-2.4,2.6-3.9,3.3s-3.2,1-5.2,1c-1.5,0-2.8-0.2-4.1-0.5
		c-1.2-0.4-2.3-0.8-3.2-1.4l1.6-5.6c0.7,0.6,1.5,1,2.3,1.2s1.7,0.4,2.7,0.4c1.1,0,2-0.2,2.8-0.7s1.4-1.4,2-2.7l1-2.4l-3.1-7.4
		l-8.7-21.4h8.6l5.4,17l1.5,5.7l1.8-6l5.2-16.7h7.8L365.4,275.4L365.4,275.4z"/>
</g>
<g>
	<path class="st1" d="M186.5,404.8l-1.9,8.7c-0.5,2-1.3,3.3-2.5,4.1c-1.3,0.7-2.9,0.9-4.9,0.5c-2-0.5-3.4-1.3-4.3-2.5
		s-1.1-2.9-0.6-4.7l1.9-8.7l3.1,0.6l-1.9,8.6c-0.2,1.2-0.2,2.1,0.2,2.9c0.4,0.7,1.2,1.2,2.2,1.4s1.9,0.2,2.6-0.4
		c0.6-0.5,1.1-1.3,1.3-2.5l1.9-8.6L186.5,404.8z"/>
	<path class="st1" d="M198.7,422.3l-3.6-0.7l-2.1-5.8l-4.1,4.6l-3.4-0.7l6.3-6.3l-3.3-8.1l3.6,0.7l2,5.4l3.9-4.3l3.3,0.6l-6,6.1
		L198.7,422.3z"/>
	<path class="st1" d="M211.6,408.1l-9.6,16.3l-2.9-0.5l9.4-16.3L211.6,408.1z"/>
	<path class="st1" d="M225.5,411.7l-1.4,8.8c-0.4,2-1.1,3.4-2.4,4.3c-1.2,0.9-2.9,1.1-4.9,0.7c-2-0.4-3.6-1.1-4.3-2.2
		c-0.9-1.2-1.2-2.7-0.9-4.7l1.4-8.8l3.1,0.5l-1.4,8.7c-0.2,1.2-0.2,2.1,0.4,2.9c0.5,0.7,1.2,1.1,2.2,1.3c1.1,0.2,1.9,0,2.5-0.5
		c0.6-0.5,1.1-1.4,1.2-2.6l1.4-8.7L225.5,411.7z"/>
	<path class="st1" d="M231.8,412.6l-2.1,14.6l-3.1-0.5l2.1-14.6L231.8,412.6z"/>
	<path class="st1" d="M235.2,424.5c0.5,0.2,0.9,0.2,1.2,0.5c0.2,0.2,0.5,0.6,0.6,1.1c0.2,0.4,0.2,0.9,0.2,1.3
		c-0.2,0.6-0.2,1.2-0.6,1.6c-0.4,0.6-0.7,0.9-1.2,1.4c-0.5,0.4-1.1,0.7-1.6,0.9l-1.2-1.2c0.5-0.2,0.9-0.2,1.2-0.5
		c0.4-0.2,0.7-0.5,0.9-0.7c0.2-0.2,0.5-0.6,0.6-0.9l-0.2-0.2c-0.2,0-0.2,0.2-0.2,0.2c-0.2,0-0.2,0-0.5,0c-0.2,0-0.5-0.2-0.7-0.2
		c-0.2-0.2-0.4-0.4-0.5-0.6c-0.2-0.2-0.2-0.6-0.2-0.9c0-0.3,0.2-0.7,0.4-0.9c0.2-0.2,0.5-0.5,0.9-0.6
		C234.5,424.5,234.8,424.5,235.2,424.5z"/>
	<path class="st1" d="M246.5,429.5l1.5-14.8l6.5,0.7c1.8,0.2,3.1,0.7,3.9,1.4c0.9,0.9,1.1,1.8,0.9,3.1c-0.2,0.9-0.4,1.4-0.9,2
		c-0.6,0.6-1.3,0.9-2.2,0.9l0,0c1.1,0.2,1.8,0.7,2.2,1.4c0.5,0.7,0.7,1.4,0.6,2.4c-0.2,1.3-0.7,2.2-1.6,2.9s-2.4,0.9-4.1,0.7
		L246.5,429.5z M249.6,427.4l3.4,0.4c0.9,0.2,1.4,0,1.9-0.4c0.5-0.4,0.7-0.7,0.7-1.4c0.2-0.6-0.2-1.1-0.5-1.5
		c-0.4-0.4-0.9-0.6-1.8-0.7l-3.4-0.4L249.6,427.4z M250.2,421.2l3.1,0.4c1.6,0.2,2.5-0.4,2.6-1.6c0.2-1.3-0.6-2-2.2-2.1l-3.1-0.4
		L250.2,421.2z"/>
	<path class="st1" d="M268.9,416.6c1.6,0.2,2.9,0.6,3.9,1.5c0.9,0.9,1.3,2,1.2,3.3c-0.2,1.4-0.7,2.5-1.6,3.2c-1.1,0.7-2.4,0.9-4,0.9
		l-0.4,0.2l-3.2-0.2l-0.5,5.6l-3.1-0.2l1.1-14.8L268.9,416.6z M268,423.3c0.9,0.2,1.5-0.2,2-0.4c0.5-0.4,0.7-0.9,0.7-1.5
		c0-0.7-0.2-1.3-0.5-1.6c-0.3-0.3-1.1-0.6-1.9-0.7l-3.1-0.2l-0.4,4.3L268,423.3z M269.8,424.1l4.3,7.7l-3.4-0.2l-3.6-6.7
		L269.8,424.1z"/>
	<path class="st1" d="M274.8,431.9l6-14.5l3.6,0.2l4.9,15l-3.2-0.2l-2.9-10.1l-0.6-2.2l0,0l-0.7,2.1l-3.8,9.9L274.8,431.9z
		 M278.1,428.4l0.2-2.2l8.1,0.4l-0.2,2.2L278.1,428.4z"/>
	<path class="st1" d="M304.3,417.6v14.8h-3.6l-5.2-8.7l-1.3-2.5l0,0l0.2,2.6v8.6h-2.9v-14.8h3.6l5.2,8.6l1.3,2.5l0,0l-0.2-2.6v-8.6
		L304.3,417.6z"/>
	<path class="st1" d="M313.5,417.3c2.4-0.2,4.1,0.4,5.4,1.6c1.3,1.2,2.1,2.9,2.2,5.3c0.2,2.4-0.4,4.3-1.6,5.6
		c-1.3,1.3-2.9,2.1-5.3,2.2l-5.6,0.4l-0.9-14.8L313.5,417.3z M314.1,429.5c1.4-0.2,2.5-0.6,3.1-1.4c0.7-0.9,0.9-2.1,0.9-3.8
		c-0.2-1.6-0.5-2.9-1.3-3.6c-0.7-0.9-1.9-1.2-3.2-1.1l-2.5,0.2l0.6,9.8L314.1,429.5z"/>
</g>
</svg>
