<?xml version="1.0" encoding="utf-8"?>
<!-- Generator: Adobe Illustrator 25.0.1, SVG Export Plug-In . SVG Version: 6.00 Build 0)  -->
<svg version="1.1" id="Layer_1" xmlns="http://www.w3.org/2000/svg" xmlns:xlink="http://www.w3.org/1999/xlink" x="0px" y="0px"
	 viewBox="0 0 482.8 463.5" style="enable-background:new 0 0 482.8 463.5;" xml:space="preserve">
<style type="text/css">
	.st0{fill:#346C63;}
	.st1{fill:#FFFFFF;}
</style>
<path class="st0" d="M317.7,65.5L181.1,9.9c-31-9.2-64.9-17.8-92.9,2.9c-18.9,14-32,39.3-42.7,65.3C16.2,149.1,0.4,231,0,313.1
	c-0.1,19.8,1.1,41,9.8,56.5c7.5,13.4,19.3,20.2,30.6,26.1c128.9,66.5,269.5,71.7,406.8,66.2c7.2-0.3,14.8-0.8,20.8-6.2
	c9.1-8.1,12.1-24.6,13.5-39.6C492.6,297,430.4,138.7,334.6,75.7"/>
<g>
	<path class="st1" d="M79.8,178.3c3,0,5.6,0.5,7.8,1.5c2.2,1,3.8,2.5,5,4.4s1.8,4.2,1.8,6.8c0,2.7-0.6,5-1.8,6.8
		c-1.2,1.9-2.8,3.3-5,4.4c-2.2,1-4.7,1.5-7.8,1.5h-8.3v14h-8.2v-39.4L79.8,178.3L79.8,178.3z M78.6,197.2c2.5,0,4.3-0.5,5.6-1.6
		c1.2-1.1,1.9-2.6,1.9-4.6c0-2.1-0.6-3.6-1.9-4.7c-1.2-1-3.1-1.6-5.6-1.6h-7.1v12.4h7.1V197.2z"/>
	<path class="st1" d="M113.9,187.2c3,0,5.7,0.6,8,1.9c2.3,1.2,4.1,3,5.4,5.3s1.9,5.1,1.9,8.4c0,3.2-0.6,6-1.9,8.3
		c-1.3,2.3-3.1,4.1-5.4,5.3s-5,1.9-8,1.9s-5.6-0.6-7.9-1.9c-2.3-1.2-4.1-3-5.4-5.3s-1.9-5.1-1.9-8.3c0-3.3,0.6-6.1,1.9-8.4
		c1.3-2.3,3.1-4.1,5.4-5.3C108.2,187.9,110.9,187.2,113.9,187.2z M113.9,193.3c-1.5,0-2.8,0.3-3.9,1s-1.9,1.7-2.4,3.1
		c-0.6,1.4-0.8,3.1-0.8,5.3c0,2.1,0.3,3.9,0.8,5.3c0.6,1.4,1.4,2.4,2.4,3.1c1.1,0.7,2.3,1,3.9,1c1.5,0,2.7-0.3,3.8-1
		c1.1-0.7,1.9-1.7,2.4-3.1c0.6-1.4,0.8-3.1,0.8-5.3c0-2.1-0.3-3.9-0.8-5.3c-0.6-1.4-1.4-2.4-2.4-3.1
		C116.6,193.7,115.4,193.3,113.9,193.3z"/>
	<path class="st1" d="M136.1,217.7v-29.9h7.1l0.5,5.9c0.8-2.1,2-3.7,3.5-4.8s3.5-1.7,5.8-1.7c0.7,0,1.3,0.1,1.9,0.2
		c0.6,0.1,1,0.3,1.4,0.5l-1,6.9c-0.4-0.2-0.9-0.3-1.5-0.4c-0.6-0.1-1.3-0.1-2.2-0.1c-1.2,0-2.4,0.3-3.5,0.9c-1.1,0.6-2,1.5-2.7,2.6
		c-0.7,1.2-1.1,2.7-1.1,4.5v15.5L136.1,217.7L136.1,217.7z"/>
	<path class="st1" d="M180.3,187.8v6.1H157v-6.1H180.3z M170.7,178.7V208c0,1.4,0.4,2.5,1.1,3.1c0.7,0.7,1.7,1,3,1
		c1,0,1.9-0.1,2.6-0.4c0.8-0.3,1.4-0.7,2-1.2l1.3,5.4c-1,0.8-2.2,1.4-3.6,1.8c-1.4,0.4-2.9,0.7-4.5,0.7c-2,0-3.8-0.3-5.3-0.9
		c-1.5-0.6-2.7-1.6-3.6-2.9c-0.9-1.3-1.3-3.1-1.3-5.3V181L170.7,178.7z"/>
	<path class="st1" d="M204.5,187.8v6.1H182v-6.1H204.5z M198.4,174.1c1.4,0,2.7,0.1,3.8,0.4c1.1,0.3,2,0.7,2.5,1.1l-1.1,5.4
		c-0.4-0.3-0.9-0.5-1.5-0.7s-1.2-0.2-2-0.2c-1.6,0-2.8,0.3-3.7,1s-1.4,1.9-1.4,3.6v4.1l0.4,1.6v27.1h-8.2V184c0-1.7,0.3-3.1,0.8-4.4
		c0.6-1.3,1.3-2.3,2.3-3.2c1-0.8,2.2-1.5,3.6-1.9C195.4,174.4,196.8,174.1,198.4,174.1z"/>
	<path class="st1" d="M222.5,187.2c3,0,5.7,0.6,8,1.9c2.3,1.2,4.1,3,5.4,5.3c1.3,2.3,1.9,5.1,1.9,8.4c0,3.2-0.6,6-1.9,8.3
		c-1.3,2.3-3.1,4.1-5.4,5.3c-2.3,1.2-5,1.9-8,1.9s-5.6-0.6-7.9-1.9c-2.3-1.2-4.1-3-5.4-5.3c-1.3-2.3-1.9-5.1-1.9-8.3
		c0-3.3,0.6-6.1,1.9-8.4c1.3-2.3,3.1-4.1,5.4-5.3S219.5,187.2,222.5,187.2z M222.5,193.3c-1.5,0-2.8,0.3-3.9,1
		c-1.1,0.7-1.9,1.7-2.4,3.1c-0.6,1.4-0.8,3.1-0.8,5.3c0,2.1,0.3,3.9,0.8,5.3c0.6,1.4,1.4,2.4,2.4,3.1c1.1,0.7,2.3,1,3.9,1
		c1.5,0,2.7-0.3,3.8-1s1.9-1.7,2.4-3.1c0.6-1.4,0.8-3.1,0.8-5.3c0-2.1-0.3-3.9-0.8-5.3c-0.6-1.4-1.4-2.4-2.4-3.1
		C225.3,193.7,224,193.3,222.5,193.3z"/>
	<path class="st1" d="M252.8,174.7v33.8c0,1.4,0.2,2.4,0.7,2.9c0.5,0.6,1.3,0.8,2.4,0.8c0.7,0,1.2,0,1.7-0.1c0.4-0.1,1-0.2,1.7-0.4
		l-0.7,5.4c-0.7,0.4-1.5,0.7-2.5,0.9s-2,0.3-3,0.3c-2.9,0-5-0.7-6.4-2.1c-1.3-1.4-2-3.7-2-6.8v-34.7L252.8,174.7L252.8,174.7z"/>
	<path class="st1" d="M267.9,183.5c-1.7,0-3-0.4-3.8-1.1c-0.8-0.7-1.3-1.8-1.3-3.3s0.4-2.6,1.3-3.3c0.8-0.7,2.1-1.1,3.8-1.1
		c1.7,0,3,0.4,3.8,1.1c0.8,0.7,1.3,1.8,1.3,3.3c0,1.4-0.4,2.5-1.3,3.3C270.9,183.2,269.6,183.5,267.9,183.5z M271.9,187.8v29.9h-8.2
		v-29.9H271.9z"/>
	<path class="st1" d="M294.2,187.2c3,0,5.7,0.6,8,1.9c2.3,1.2,4.1,3,5.4,5.3s1.9,5.1,1.9,8.4c0,3.2-0.6,6-1.9,8.3s-3.1,4.1-5.4,5.3
		s-5,1.9-8,1.9s-5.6-0.6-7.9-1.9c-2.3-1.2-4.1-3-5.4-5.3s-1.9-5.1-1.9-8.3c0-3.3,0.6-6.1,1.9-8.4c1.3-2.3,3.1-4.1,5.4-5.3
		S291.2,187.2,294.2,187.2z M294.2,193.3c-1.5,0-2.8,0.3-3.9,1s-1.9,1.7-2.4,3.1c-0.6,1.4-0.8,3.1-0.8,5.3c0,2.1,0.3,3.9,0.8,5.3
		c0.6,1.4,1.4,2.4,2.4,3.1c1.1,0.7,2.3,1,3.9,1c1.5,0,2.7-0.3,3.8-1c1.1-0.7,1.9-1.7,2.4-3.1c0.6-1.4,0.8-3.1,0.8-5.3
		c0-2.1-0.3-3.9-0.8-5.3c-0.6-1.4-1.4-2.4-2.4-3.1C297,193.7,295.7,193.3,294.2,193.3z"/>
	<path class="st1" d="M78.5,250c6.2,0,11,1.7,14.3,5.1c3.4,3.4,5.1,8.3,5.1,14.6c0,6.3-1.7,11.2-5.1,14.6s-8.2,5.1-14.3,5.1H63.3
		V250H78.5z M78.1,282.8c3.7,0,6.6-1.1,8.5-3.4s2.8-5.5,2.8-9.8s-0.9-7.5-2.8-9.8c-1.9-2.2-4.7-3.4-8.5-3.4h-6.6v26.3L78.1,282.8
		L78.1,282.8z"/>
	<path class="st1" d="M119.3,290c-3.1,0-5.9-0.6-8.2-1.9c-2.3-1.2-4.1-3-5.4-5.3s-1.9-5.1-1.9-8.4s0.6-6.1,1.9-8.4s3.1-4.1,5.3-5.3
		c2.3-1.2,4.9-1.9,7.9-1.9s5.6,0.6,7.7,1.8c2.1,1.2,3.7,2.9,4.8,5s1.7,4.5,1.7,7.1c0,0.8,0,1.6-0.1,2.3c0,0.7-0.1,1.4-0.2,1.9H109
		v-5.7h20.3l-3.9,1.4c0-2.5-0.6-4.4-1.7-5.8s-2.7-2-4.8-2c-1.5,0-2.8,0.4-3.9,1.1s-1.9,1.8-2.5,3.2c-0.6,1.4-0.8,3.2-0.8,5.3
		c0,2.1,0.3,3.9,0.9,5.2c0.6,1.4,1.5,2.4,2.6,3.1s2.5,1,4.1,1c1.8,0,3.2-0.3,4.2-1s1.9-1.6,2.5-2.8l6.5,2.5c-0.6,1.6-1.6,2.9-2.9,4
		c-1.3,1.1-2.8,2-4.6,2.5C123.2,289.7,121.3,290,119.3,290z"/>
	<path class="st1" d="M151.9,290c-3,0-5.8-0.5-8.3-1.6s-4.5-2.6-6.1-4.5l4.7-4.8c1,1.4,2.2,2.6,3.8,3.5s3.5,1.4,5.7,1.4
		c1.6,0,2.8-0.2,3.7-0.7s1.4-1.2,1.4-2.2c0-0.6-0.2-1.2-0.7-1.6c-0.4-0.5-1.3-0.8-2.6-1.1l-5.3-1.1c-3.5-0.7-5.9-1.8-7.4-3.3
		s-2.2-3.3-2.2-5.6c0-1.6,0.5-3.2,1.5-4.6s2.4-2.6,4.4-3.5s4.4-1.3,7.3-1.3c3,0,5.6,0.5,7.8,1.4s4,2.3,5.2,4.2l-4.9,4.8
		c-0.9-1.4-2-2.5-3.4-3.2s-2.9-1.1-4.5-1.1c-1.1,0-2.1,0.1-2.9,0.4c-0.8,0.2-1.4,0.6-1.8,1c-0.4,0.4-0.6,0.9-0.6,1.6
		c0,0.6,0.3,1.2,0.8,1.6c0.6,0.5,1.6,0.8,3,1.2l6.1,1.3c2.9,0.6,5.1,1.6,6.3,3c1.3,1.4,1.9,3.1,1.9,5.1c0,1.9-0.5,3.6-1.5,5.1
		s-2.5,2.7-4.5,3.5C157.2,289.6,154.8,290,151.9,290z"/>
	<path class="st1" d="M175.8,255.2c-1.7,0-3-0.4-3.8-1.1c-0.8-0.7-1.3-1.8-1.3-3.3s0.4-2.6,1.3-3.3c0.8-0.7,2.1-1.1,3.8-1.1
		s3,0.4,3.8,1.1c0.8,0.7,1.3,1.8,1.3,3.3c0,1.4-0.4,2.5-1.3,3.3C178.8,254.9,177.6,255.2,175.8,255.2z M179.9,259.5v29.9h-8.2v-29.9
		H179.9z"/>
	<path class="st1" d="M206.3,283.8c3.2,0,5.7,0.7,7.5,2.1s2.6,3.3,2.6,5.9c0,2.3-0.7,4.2-2,5.8c-1.3,1.6-3.2,2.8-5.5,3.6
		c-2.4,0.8-5.1,1.2-8.2,1.2c-5.1,0-8.9-0.7-11.3-2.2c-2.4-1.4-3.6-3.3-3.6-5.6c0-1.6,0.6-3,1.9-4.1s3.3-1.7,6.2-1.9l-0.3,1
		c-2.1-0.4-3.7-1-4.8-2.1c-1.1-1-1.6-2.4-1.6-4.2c0-1.8,0.7-3.3,2.1-4.5c1.4-1.2,3.3-1.9,5.8-2.1l3.6,1.7H198
		c-1.7,0.1-2.9,0.5-3.6,1c-0.7,0.6-1,1.2-1,1.9c0,0.8,0.3,1.5,1,1.9s1.6,0.6,2.8,0.6L206.3,283.8L206.3,283.8z M200.8,258.9
		c2.8,0,5.2,0.4,7.3,1.2c2.1,0.8,3.6,2,4.7,3.5c1.1,1.5,1.6,3.3,1.6,5.4s-0.5,3.9-1.6,5.4s-2.7,2.7-4.7,3.5
		c-2.1,0.8-4.5,1.2-7.3,1.2c-4.4,0-7.8-0.9-10.1-2.7s-3.5-4.3-3.5-7.4c0-2.1,0.5-3.9,1.6-5.4s2.7-2.7,4.7-3.5
		C195.6,259.4,198,258.9,200.8,258.9z M200.8,296.7c2.1,0,3.8-0.2,5.1-0.5c1.3-0.4,2.3-0.8,3-1.4s1-1.2,1-1.9c0-0.8-0.3-1.4-0.9-1.8
		c-0.6-0.5-1.7-0.7-3.2-0.7h-10.1c-1,0-1.7,0.2-2.4,0.7c-0.6,0.5-0.9,1.1-0.9,2c0,1.1,0.7,2,2.2,2.6
		C196.1,296.3,198.1,296.7,200.8,296.7z M200.8,264.1c-1.6,0-2.9,0.4-3.9,1.3s-1.6,2.1-1.6,3.6c0,1.6,0.5,2.8,1.6,3.7
		c1,0.9,2.4,1.3,3.9,1.3c1.6,0,2.9-0.4,3.9-1.3s1.5-2.1,1.5-3.7s-0.5-2.8-1.5-3.6C203.7,264.5,202.4,264.1,200.8,264.1z
		 M216.1,252.4l1,5.9c-0.2,0-0.3,0-0.5,0s-0.4,0-0.6,0c-1.8,0-3.2,0.4-4.1,1.2c-0.9,0.8-1.4,1.9-1.4,3.4l-3.3-1.4
		c0-1.6,0.3-3.1,1-4.5c0.6-1.4,1.6-2.5,2.8-3.3c1.3-0.8,2.8-1.3,4.5-1.3c0.1,0,0.2,0,0.3,0S216,252.4,216.1,252.4z"/>
	<path class="st1" d="M221.4,289.4v-29.9h7.4l0.5,9l-1-1c0.5-2,1.2-3.6,2.3-4.8c1-1.3,2.3-2.2,3.8-2.8c1.5-0.6,3.1-0.9,4.9-0.9
		c2.1,0,3.9,0.4,5.5,1.2s2.9,2,3.8,3.6c0.9,1.6,1.4,3.6,1.4,6.1v19.6h-8.2v-17.3c0-2.5-0.5-4.3-1.5-5.3s-2.3-1.5-3.9-1.5
		c-1.1,0-2.2,0.3-3.3,0.8s-1.9,1.4-2.6,2.6s-1,2.8-1,4.8v15.8L221.4,289.4L221.4,289.4z"/>
</g>
<g>
	<path class="st1" d="M156.2,391.8l-2.2,10.8c-0.5,2.6-1.6,4.4-3.2,5.4c-1.6,1-3.8,1.2-6.5,0.7c-2.7-0.5-4.6-1.6-5.7-3.1
		c-1.1-1.6-1.4-3.6-0.9-6.2l2.2-10.8l4.8,1l-2.2,10.8c-0.3,1.3-0.2,2.3,0.3,3.1s1.2,1.2,2.3,1.5c1.1,0.2,2.1,0.1,2.7-0.5
		c0.7-0.5,1.2-1.4,1.4-2.8l2.2-10.8L156.2,391.8z"/>
	<path class="st1" d="M172.2,413.8l-5.7-1.1l-2.3-6.5l-4.4,5.2l-5.4-1l8-7.9l-4.1-10.2l5.6,1.1l2,6.2l4.2-5l5.2,1l-7.6,7.8
		L172.2,413.8z"/>
	<path class="st1" d="M188.7,396.6l-11.8,20.1l-4.4-0.8l11.8-20.1L188.7,396.6z"/>
	<path class="st1" d="M206.7,401.4l-2,10.8c-0.5,2.6-1.5,4.4-3.1,5.4c-1.6,1-3.8,1.3-6.4,0.8c-2.7-0.5-4.6-1.5-5.7-3s-1.5-3.6-1-6.2
		l2-10.8l4.8,0.9l-2,10.9c-0.2,1.3-0.1,2.3,0.3,3.1c0.4,0.7,1.2,1.2,2.3,1.4c1.1,0.2,2.1,0,2.7-0.5c0.7-0.5,1.1-1.5,1.4-2.8l2-10.9
		L206.7,401.4z"/>
	<path class="st1" d="M215,402.9l-3.3,18.2l-4.8-0.9l3.3-18.2L215,402.9z"/>
	<path class="st1" d="M218.5,417.5c0.7,0.1,1.2,0.4,1.6,0.8c0.4,0.4,0.6,0.9,0.8,1.4c0.1,0.5,0.1,1.1,0,1.8c-0.1,0.8-0.5,1.6-1,2.3
		c-0.5,0.7-1.1,1.3-1.8,1.8c-0.7,0.5-1.4,0.8-2.1,1l-1.7-1.7c0.6-0.1,1.1-0.3,1.6-0.5c0.5-0.2,0.9-0.5,1.3-0.8
		c0.4-0.3,0.7-0.6,0.9-1l-0.1-0.1c-0.1,0.1-0.2,0.1-0.4,0.1c-0.2,0-0.4,0-0.6,0c-0.3-0.1-0.7-0.2-1-0.4c-0.3-0.2-0.6-0.5-0.7-0.9
		c-0.2-0.4-0.2-0.8-0.1-1.3c0.1-0.6,0.3-1.1,0.6-1.4c0.3-0.3,0.7-0.6,1.2-0.7C217.5,417.4,218,417.4,218.5,417.5z"/>
	<path class="st1" d="M231.6,424.7l3.1-18.3l8.9,1.5c2.2,0.4,3.8,1.1,4.8,2.1c0.9,1,1.3,2.3,1,3.9c-0.2,1-0.6,1.9-1.4,2.5
		c-0.7,0.6-1.7,1-3,1l0,0c1.4,0.4,2.3,1.1,2.9,2c0.6,0.9,0.7,1.9,0.6,3c-0.3,1.6-1,2.7-2.3,3.4s-3,0.8-5.2,0.5L231.6,424.7z
		 M236.8,422.1l3.9,0.7c0.9,0.1,1.5,0.1,2-0.2c0.5-0.3,0.8-0.8,0.9-1.4c0.1-0.6,0-1.2-0.4-1.6s-1-0.7-1.9-0.8l-3.9-0.7L236.8,422.1z
		 M238,414.6l3.5,0.6c1.7,0.3,2.7-0.2,2.9-1.6c0.2-1.3-0.5-2.1-2.2-2.4l-3.5-0.6L238,414.6z"/>
	<path class="st1" d="M262.2,410.9c2.2,0.3,3.8,1.1,4.8,2.3c1,1.2,1.4,2.7,1.2,4.4c-0.3,1.9-1.1,3.2-2.5,4c-1.4,0.8-3.1,1-5.3,0.7
		l-0.5,0.2l-3.6-0.6l-1.1,6.7l-4.7-0.7l2.9-18.3L262.2,410.9z M260.2,419c0.9,0.1,1.6,0.1,2.2-0.2c0.5-0.3,0.8-0.9,1-1.7
		c0.1-0.8,0-1.4-0.4-1.9s-1.1-0.7-2-0.9l-3.4-0.5l-0.7,4.6L260.2,419z M262.9,420.5l4.4,10l-5.3-0.8l-3.4-8.8L262.9,420.5z"/>
	<path class="st1" d="M267.7,430.5l9.2-17.4l5.7,0.8l3.7,19.3l-4.9-0.7l-1.8-12.3l-0.4-3l-0.1,0l-1.2,2.8l-5.4,11.3L267.7,430.5z
		 M272.5,427l0.5-3.3l10.2,1.5l-0.5,3.2L272.5,427z"/>
	<path class="st1" d="M307.4,417.4l-2.5,18.4l-5.3-0.7l-4.4-10.7l-1-2.9l0,0l-0.3,3.4l-1.2,9.3l-4.2-0.6l2.5-18.4l5.3,0.7l4.4,10.7
		l1,2.9l0,0l0.3-3.4l1.2-9.3L307.4,417.4z"/>
	<path class="st1" d="M318.9,418.8c2.9,0.3,5,1.4,6.3,3.2c1.3,1.8,1.9,4.1,1.5,7.1c-0.3,2.9-1.4,5.1-3.1,6.5c-1.7,1.4-4,2-6.9,1.6
		l-7.8-0.9l2.1-18.4L318.9,418.8z M316.7,433.5c1.6,0.2,2.8-0.2,3.6-1c0.8-0.9,1.3-2.2,1.6-4c0.2-1.8,0-3.3-0.6-4.3
		c-0.6-1-1.7-1.6-3.3-1.8l-2.5-0.3l-1.3,11.2L316.7,433.5z"/>
</g>
</svg>
