<?xml version="1.0" encoding="utf-8"?>
<!-- Generator: Adobe Illustrator 24.0.1, SVG Export Plug-In . SVG Version: 6.00 Build 0)  -->
<svg version="1.1" id="Layer_1" xmlns="http://www.w3.org/2000/svg" xmlns:xlink="http://www.w3.org/1999/xlink" x="0px" y="0px"
	 viewBox="0 0 903.8 536.9" style="enable-background:new 0 0 903.8 536.9;" xml:space="preserve">
<style type="text/css">
	.st0{fill:#231F20;}
	.st1{fill:#FFFFFF;}
	.st2{font-family:'AnonymousPro-Bold';}
	.st3{font-size:47.6316px;}
</style>
<g>
	<path class="st0" d="M71.2,239.3c38.9-18.1,78.2-35.5,117.7-52.2c47.6-20.2,95.8-39.5,146-51.6c85.9-20.7,177.6-19.7,261.8,7.3
		s160.4,80.5,210.7,153.2c14.9,21.4,27.4,50.7,12.8,72.4c-4.9,7.3-12.4,12.5-20,16.9c-38.9,22.4-85.7,27.1-130.5,24
		s-88.7-13.3-133.2-18.9c-116.6-14.7-234.6,2.9-352.1,0.2c-22.2-0.5-46.4-2.5-62.7-17.6c-10.4-9.6-16-23.2-21.1-36.4
		c-10.4-27.2-19.7-54.7-28-82.6"/>
</g>
<text transform="matrix(1 0 0 1 318.7093 279.1485)" class="st1 st2 st3">About Me</text>
</svg>
