<?xml version="1.0" encoding="utf-8"?>
<!-- Generator: Adobe Illustrator 24.0.1, SVG Export Plug-In . SVG Version: 6.00 Build 0)  -->
<svg version="1.1" id="Layer_1" xmlns="http://www.w3.org/2000/svg" xmlns:xlink="http://www.w3.org/1999/xlink" x="0px" y="0px"
	 viewBox="0 0 903.8 536.9" style="enable-background:new 0 0 903.8 536.9;" xml:space="preserve">
<style type="text/css">
	.st0{fill:#231F20;}
	.st1{enable-background:new    ;}
	.st2{fill:#FFFFFF;}
</style>
<g>
	<path class="st0" d="M71.2,239.3c38.9-18.1,78.2-35.5,117.7-52.2c47.6-20.2,95.8-39.5,146-51.6c85.9-20.7,177.6-19.7,261.8,7.3
		S757.1,223.3,807.4,296c14.9,21.4,27.4,50.7,12.8,72.4c-4.9,7.3-12.4,12.5-20,16.9c-38.9,22.4-85.7,27.1-130.5,24
		S581,396,536.5,390.4c-116.6-14.7-234.6,2.9-352.1,0.2c-22.2-0.5-46.4-2.5-62.7-17.6c-10.4-9.6-16-23.2-21.1-36.4
		c-10.4-27.2-19.7-54.7-28-82.6"/>
</g>
<g class="st1">
	<path class="st2" d="M336.8,279.1l-2.2-7.2h-10l-2.1,7.2h-5l9.5-30.4h5.5l9.5,30.4H336.8z M325.8,267.7h7.5l-3.7-12.5L325.8,267.7z
		"/>
	<path class="st2" d="M345.9,248.8h4.8v10.6c0.9-0.8,1.8-1.4,2.8-1.8c0.9-0.4,2-0.6,3.2-0.6c1.4,0,2.7,0.3,3.9,0.8
		c1.2,0.6,2.2,1.3,3.1,2.3s1.5,2.2,2,3.6s0.7,2.9,0.7,4.6c0,1.7-0.2,3.2-0.7,4.6s-1.2,2.6-2,3.6s-1.9,1.8-3.1,2.3
		c-1.2,0.6-2.5,0.8-3.9,0.8c-1.2,0-2.3-0.2-3.2-0.6c-0.9-0.4-1.9-1.1-2.8-1.9v2h-4.8V248.8z M350.7,273.4c0.6,0.6,1.3,1.1,2.2,1.5
		s1.7,0.5,2.6,0.5c1.8,0,3.3-0.6,4.4-1.9s1.7-3,1.7-5.1s-0.6-3.8-1.7-5.1s-2.6-2-4.4-2c-0.8,0-1.7,0.2-2.6,0.5s-1.6,0.8-2.2,1.5
		V273.4z"/>
	<path class="st2" d="M392.9,268.3c0,1.7-0.3,3.2-0.8,4.6c-0.5,1.4-1.3,2.6-2.3,3.6s-2.2,1.8-3.6,2.3c-1.4,0.6-3,0.8-4.7,0.8
		c-1.7,0-3.2-0.3-4.6-0.8c-1.4-0.6-2.6-1.3-3.6-2.3s-1.8-2.2-2.3-3.6c-0.5-1.4-0.8-2.9-0.8-4.6c0-1.6,0.3-3.2,0.8-4.6
		c0.5-1.4,1.3-2.6,2.3-3.6s2.2-1.8,3.6-2.3c1.4-0.5,2.9-0.8,4.6-0.8c1.7,0,3.3,0.3,4.7,0.8c1.4,0.6,2.6,1.3,3.6,2.3s1.8,2.2,2.3,3.6
		C392.7,265.2,392.9,266.7,392.9,268.3z M388.1,268.3c0-1-0.2-1.9-0.5-2.8c-0.3-0.9-0.7-1.6-1.3-2.2c-0.6-0.6-1.3-1.1-2.1-1.5
		c-0.8-0.4-1.7-0.5-2.7-0.5c-1,0-1.9,0.2-2.7,0.5c-0.8,0.4-1.5,0.9-2,1.5c-0.6,0.6-1,1.4-1.3,2.2c-0.3,0.9-0.5,1.8-0.5,2.8
		c0,1,0.2,2,0.5,2.8s0.7,1.6,1.3,2.2c0.6,0.6,1.2,1.1,2,1.5c0.8,0.3,1.7,0.5,2.7,0.5c1,0,1.9-0.2,2.7-0.5c0.8-0.3,1.5-0.8,2.1-1.5
		c0.6-0.6,1-1.4,1.3-2.2S388.1,269.4,388.1,268.3z"/>
	<path class="st2" d="M397.9,257.5h4.8v13.4c0,1.7,0.3,2.8,1,3.5c0.6,0.7,1.6,1,2.8,1c1.8,0,3.2-0.7,4.3-2.2c1.1-1.4,1.7-3.4,1.7-6
		v-9.7h4.8v21.7h-4.8v-5.4c-0.5,1.9-1.4,3.3-2.7,4.4c-1.3,1.1-2.9,1.6-4.8,1.6c-2.2,0-4-0.7-5.2-2.2c-1.3-1.4-1.9-3.7-1.9-6.6V257.5
		z"/>
	<path class="st2" d="M444.6,272.3c-0.2,2.3-1.1,4.1-2.7,5.4c-1.5,1.3-3.5,2-5.8,2c-1.3,0-2.4-0.2-3.5-0.6s-2-1-2.7-1.7
		s-1.3-1.6-1.7-2.7c-0.4-1-0.6-2.2-0.6-3.4v-9.4h-4.9v-4.3h4.9v-8.7h4.8v8.7h9.1v4.3h-9.1v9.4c0,1.4,0.3,2.4,1,3.1
		c0.7,0.7,1.6,1,2.7,1c1.4,0,2.4-0.4,3-1.2c0.7-0.8,1.1-1.7,1.2-2.9L444.6,272.3z"/>
	<path class="st2" d="M495.3,279.1h-4.8v-20.5l-3,10.9h-3.7l-3-10.9v20.5h-4.8v-30.4h5.7l4,13.7l4-13.7h5.8V279.1z"/>
	<path class="st2" d="M505.1,270.1c0.2,1.5,0.9,2.7,2.1,3.7s2.8,1.5,4.8,1.5c1.6,0,2.9-0.2,4.1-0.7c1.2-0.5,2.2-1.1,3-1.9l2.5,3.4
		c-1.4,1.4-2.9,2.3-4.4,2.8c-1.6,0.5-3.3,0.8-5.1,0.8c-1.7,0-3.2-0.3-4.7-0.8c-1.4-0.6-2.7-1.3-3.7-2.3c-1.1-1-1.9-2.2-2.5-3.6
		c-0.6-1.4-0.9-2.9-0.9-4.6c0-1.6,0.3-3.2,0.8-4.5s1.3-2.6,2.3-3.6c1-1,2.2-1.8,3.6-2.4c1.4-0.6,2.9-0.8,4.6-0.8
		c1.8,0,3.3,0.3,4.8,0.9c1.4,0.6,2.6,1.5,3.7,2.6c1,1.1,1.8,2.5,2.4,4.2c0.6,1.6,0.9,3.5,0.9,5.5H505.1z M517.9,265.9
		c-0.2-1.4-1-2.5-2.2-3.4c-1.2-0.8-2.6-1.3-4.1-1.3s-2.9,0.4-4.1,1.3c-1.2,0.8-1.9,2-2.2,3.4H517.9z"/>
</g>
</svg>
