<?xml version="1.0" encoding="utf-8"?>
<!-- Generator: Adobe Illustrator 23.0.3, SVG Export Plug-In . SVG Version: 6.00 Build 0)  -->
<svg version="1.1" id="Layer_1" xmlns="http://www.w3.org/2000/svg" xmlns:xlink="http://www.w3.org/1999/xlink" x="0px" y="0px"
	 viewBox="0 0 494 530.8" style="enable-background:new 0 0 494 530.8;" xml:space="preserve">
<style type="text/css">
	.st0{fill:#A56779;}
	.st1{fill:#FFFFFF;}
</style>
<title>FlatironSchoolStyleGuide</title>
<path class="st0" d="M236.2,61.5c-23.7-51.1-90.9-74-143.8-54.6S4.2,81.3,0.4,137.5C-2.7,184,13,229.5,17.6,275.8
	c4.5,45.5-1.2,93.8,19.2,134.8c17.6,35.4,51.9,59.1,85.7,79.6c28.9,17.6,59.4,34.4,93,39.2c31.7,4.5,63.7-1.9,95-8.4
	c59.9-12.4,125.5-28.9,160.3-79.2c27.1-39.2,28.7-92.1,13.8-137.4s-44.5-84.3-76.4-119.8C355.8,126,295.8,74.2,229.4,32.2"/>
<g>
	<path class="st1" d="M110.3,288.6l-2.2-7.3H98l-2.2,7.3h-5.1l9.6-30.7h5.6l9.6,30.7H110.3z M99.3,277h7.6l-3.8-12.6L99.3,277z"/>
	<path class="st1" d="M119.5,257.9h4.9v10.7c0.9-0.8,1.9-1.5,2.8-1.9s2-0.6,3.3-0.6c1.4,0,2.7,0.3,3.9,0.9c1.2,0.6,2.2,1.4,3.1,2.4
		c0.9,1,1.5,2.2,2,3.6c0.5,1.4,0.8,3,0.8,4.6c0,1.7-0.3,3.2-0.8,4.6c-0.5,1.4-1.2,2.6-2,3.6c-0.9,1-1.9,1.8-3.1,2.4
		s-2.5,0.8-3.9,0.8c-1.2,0-2.3-0.2-3.3-0.7c-0.9-0.4-1.9-1.1-2.8-1.9v2h-4.9V257.9z M124.4,282.8c0.6,0.6,1.3,1.1,2.2,1.5
		c0.9,0.3,1.8,0.5,2.6,0.5c1.8,0,3.3-0.7,4.5-2c1.2-1.3,1.7-3,1.7-5.1c0-2.1-0.6-3.8-1.7-5.2c-1.2-1.3-2.6-2-4.5-2
		c-0.8,0-1.7,0.2-2.6,0.5c-0.9,0.3-1.6,0.8-2.2,1.5V282.8z"/>
	<path class="st1" d="M167.1,277.7c0,1.7-0.3,3.3-0.8,4.7c-0.5,1.4-1.3,2.6-2.3,3.6c-1,1-2.2,1.8-3.6,2.4s-3,0.8-4.7,0.8
		c-1.7,0-3.3-0.3-4.7-0.8s-2.6-1.4-3.6-2.4s-1.8-2.2-2.3-3.6c-0.5-1.4-0.8-2.9-0.8-4.7c0-1.7,0.3-3.2,0.8-4.6
		c0.5-1.4,1.3-2.6,2.3-3.7s2.2-1.8,3.6-2.4c1.4-0.6,3-0.8,4.7-0.8c1.7,0,3.3,0.3,4.7,0.8c1.4,0.6,2.6,1.3,3.6,2.4
		c1,1,1.8,2.2,2.3,3.7C166.9,274.5,167.1,276,167.1,277.7z M162.3,277.7c0-1-0.2-1.9-0.5-2.8c-0.3-0.9-0.7-1.6-1.3-2.3
		c-0.6-0.6-1.3-1.1-2.1-1.5c-0.8-0.4-1.7-0.6-2.8-0.6c-1,0-2,0.2-2.8,0.6c-0.8,0.4-1.5,0.9-2.1,1.5c-0.6,0.6-1,1.4-1.3,2.3
		c-0.3,0.9-0.5,1.8-0.5,2.8c0,1,0.2,2,0.5,2.8c0.3,0.8,0.7,1.6,1.3,2.2c0.6,0.6,1.2,1.1,2.1,1.5c0.8,0.4,1.7,0.5,2.8,0.5
		c1,0,1.9-0.2,2.8-0.5c0.8-0.4,1.5-0.9,2.1-1.5c0.6-0.6,1-1.4,1.3-2.2C162.1,279.7,162.3,278.7,162.3,277.7z"/>
	<path class="st1" d="M172.1,266.7h4.9v13.6c0,1.7,0.3,2.9,1,3.5c0.6,0.7,1.6,1,2.8,1c1.8,0,3.3-0.7,4.4-2.2c1.1-1.5,1.7-3.5,1.7-6
		v-9.8h4.9v21.9h-4.9v-5.5c-0.5,1.9-1.4,3.4-2.7,4.4c-1.3,1.1-2.9,1.6-4.9,1.6c-2.2,0-4-0.7-5.3-2.2c-1.3-1.5-1.9-3.7-1.9-6.7V266.7
		z"/>
	<path class="st1" d="M219.4,281.7c-0.3,2.3-1.2,4.1-2.7,5.5s-3.5,2-5.8,2c-1.3,0-2.5-0.2-3.5-0.6s-2-1-2.7-1.8
		c-0.8-0.8-1.3-1.7-1.8-2.7c-0.4-1.1-0.6-2.2-0.6-3.5v-9.5h-5v-4.4h5v-8.8h4.9v8.8h9.2v4.4h-9.2v9.5c0,1.4,0.3,2.5,1,3.2
		c0.7,0.7,1.6,1,2.7,1c1.4,0,2.4-0.4,3.1-1.2c0.7-0.8,1.1-1.8,1.2-2.9L219.4,281.7z"/>
</g>
</svg>
