<?xml version="1.0" encoding="utf-8"?>
<!-- Generator: Adobe Illustrator 24.1.2, SVG Export Plug-In . SVG Version: 6.00 Build 0)  -->
<svg version="1.1" id="Layer_1" xmlns="http://www.w3.org/2000/svg" xmlns:xlink="http://www.w3.org/1999/xlink" x="0px" y="0px"
	 viewBox="0 0 903.8 536.9" style="enable-background:new 0 0 903.8 536.9;" xml:space="preserve">
<style type="text/css">
	.st0{fill:#0F2B41;}
	.st1{fill:#FFFFFF;}
</style>
<g>
	<path class="st0" d="M71.2,239.3c38.9-18.1,78.2-35.5,117.7-52.2c47.6-20.2,95.8-39.5,146-51.6c85.9-20.7,177.6-19.7,261.8,7.3
		S757.1,223.3,807.4,296c14.9,21.4,27.4,50.7,12.8,72.4c-4.9,7.3-12.4,12.5-20,16.9c-38.9,22.4-85.7,27.1-130.5,24
		S581,396,536.5,390.4c-116.6-14.7-234.6,2.9-352.1,0.2c-22.2-0.5-46.4-2.5-62.7-17.6c-10.4-9.6-16-23.2-21.1-36.4
		c-10.4-27.2-19.7-54.7-28-82.6"/>
</g>
<g>
	<path class="st1" d="M312.1,276.9l11.1-30.5h7.6l11.1,30.5h-6.6l-7-20.7l-1.4-4.6h-0.1l-1.3,4.5l-7,20.8H312.1z M318.6,269.4v-4.7
		h16.7v4.7H318.6z"/>
	<path class="st1" d="M359.4,277.3c-1.4,0-2.7-0.3-3.9-0.9c-1.2-0.6-2.1-1.4-2.9-2.5c-0.8-1.1-1.3-2.3-1.5-3.6l0.6-0.8l-0.4,7.3
		h-5.6v-33.2h6.3v16.6l-0.6-1c0.5-1.7,1.4-3.2,2.8-4.3c1.4-1.1,3.1-1.7,5.2-1.7c1.8,0,3.5,0.5,4.9,1.4c1.5,1,2.6,2.3,3.5,4.1
		c0.8,1.8,1.3,4,1.3,6.5c0,2.5-0.4,4.6-1.3,6.4c-0.8,1.8-2,3.2-3.5,4.1C363,276.8,361.3,277.3,359.4,277.3z M357.5,272.5
		c1.7,0,3-0.6,4-1.8c1-1.2,1.5-3,1.5-5.3c0-2.3-0.5-4.1-1.4-5.3c-1-1.2-2.3-1.8-4-1.8c-1.1,0-2.1,0.3-2.9,0.9
		c-0.8,0.6-1.4,1.4-1.9,2.5c-0.4,1.1-0.7,2.4-0.7,3.8c0,1.5,0.2,2.8,0.7,3.9c0.4,1.1,1.1,1.9,1.9,2.4
		C355.5,272.2,356.4,272.5,357.5,272.5z"/>
	<path class="st1" d="M385.3,253.3c2.3,0,4.4,0.5,6.2,1.4c1.8,1,3.2,2.3,4.2,4.1c1,1.8,1.5,3.9,1.5,6.5c0,2.5-0.5,4.6-1.5,6.4
		c-1,1.8-2.4,3.2-4.2,4.1c-1.8,1-3.8,1.4-6.2,1.4c-2.3,0-4.4-0.5-6.1-1.4c-1.8-1-3.2-2.3-4.2-4.1c-1-1.8-1.5-3.9-1.5-6.4
		c0-2.5,0.5-4.7,1.5-6.5c1-1.8,2.4-3.2,4.2-4.1C380.9,253.8,383,253.3,385.3,253.3z M385.3,258c-1.2,0-2.2,0.3-3,0.8
		c-0.8,0.5-1.4,1.3-1.9,2.4c-0.4,1.1-0.6,2.4-0.6,4.1c0,1.6,0.2,3,0.6,4.1c0.4,1.1,1.1,1.9,1.9,2.4c0.8,0.5,1.8,0.8,3,0.8
		c1.1,0,2.1-0.3,2.9-0.8c0.8-0.5,1.4-1.3,1.9-2.4c0.4-1.1,0.6-2.4,0.6-4.1c0-1.6-0.2-3-0.6-4.1c-0.4-1.1-1.1-1.9-1.9-2.4
		C387.4,258.3,386.4,258,385.3,258z"/>
	<path class="st1" d="M410.4,277.3c-1.5,0-2.9-0.3-4.2-0.8c-1.2-0.6-2.2-1.4-2.9-2.7c-0.7-1.2-1.1-2.8-1.1-4.7v-15.3h6.3v13.8
		c0,1.8,0.4,3,1.1,3.7s1.8,1,3.2,1c0.6,0,1.3-0.1,1.9-0.3c0.6-0.2,1.2-0.6,1.6-1.1c0.5-0.5,0.9-1.1,1.1-1.9c0.3-0.8,0.4-1.7,0.4-2.8
		v-12.4h6.3v23.1h-5.6l-0.2-4c-0.8,1.5-1.8,2.7-3.2,3.4C413.9,277,412.3,277.3,410.4,277.3z"/>
	<path class="st1" d="M446.5,253.8v4.7h-18v-4.7H446.5z M439.1,246.7v22.6c0,1.1,0.3,1.9,0.9,2.4s1.3,0.8,2.3,0.8
		c0.8,0,1.4-0.1,2-0.3c0.6-0.2,1.1-0.5,1.6-0.9l1,4.2c-0.7,0.6-1.7,1-2.8,1.4c-1.1,0.3-2.3,0.5-3.5,0.5c-1.5,0-2.9-0.2-4.1-0.7
		c-1.2-0.5-2.1-1.2-2.8-2.2c-0.7-1-1-2.4-1-4.1v-21.9L439.1,246.7z"/>
	<path class="st1" d="M498.7,246.4v30.5h-5.8V261l0.3-8.9h-0.1l-8.4,24.8h-5.2l-8.4-24.8H471l0.3,8.9v15.9h-5.8v-30.5h9.2l5.5,16.6
		l1.9,6.9h0.1l2-6.8l5.4-16.7H498.7z"/>
	<path class="st1" d="M516.5,277.3c-2.4,0-4.5-0.5-6.3-1.4c-1.8-1-3.2-2.3-4.2-4.1c-1-1.8-1.5-3.9-1.5-6.5c0-2.5,0.5-4.7,1.5-6.5
		c1-1.8,2.4-3.2,4.1-4.1c1.8-1,3.8-1.4,6.1-1.4c2.3,0,4.3,0.5,6,1.4c1.6,0.9,2.9,2.2,3.7,3.8s1.3,3.5,1.3,5.5c0,0.6,0,1.2,0,1.8
		c0,0.6-0.1,1-0.1,1.5h-18.4v-4.4h15.6l-3,1.1c0-1.9-0.4-3.4-1.3-4.5c-0.9-1-2.1-1.6-3.7-1.6c-1.2,0-2.2,0.3-3,0.8s-1.5,1.4-1.9,2.5
		c-0.4,1.1-0.6,2.5-0.6,4.1c0,1.6,0.2,3,0.7,4c0.5,1.1,1.2,1.9,2,2.4c0.9,0.5,1.9,0.8,3.2,0.8c1.4,0,2.4-0.3,3.3-0.8
		c0.8-0.5,1.5-1.2,1.9-2.2l5,1.9c-0.5,1.2-1.2,2.2-2.2,3.1c-1,0.9-2.2,1.5-3.6,2C519.5,277.1,518,277.3,516.5,277.3z"/>
</g>
</svg>
