<?xml version="1.0" encoding="utf-8"?>
<!-- Generator: Adobe Illustrator 24.1.2, SVG Export Plug-In . SVG Version: 6.00 Build 0)  -->
<svg version="1.1" id="Layer_1" xmlns="http://www.w3.org/2000/svg" xmlns:xlink="http://www.w3.org/1999/xlink" x="0px" y="0px"
	 viewBox="0 0 494 530.8" style="enable-background:new 0 0 494 530.8;" xml:space="preserve">
<style type="text/css">
	.st0{fill:#4E7FFF;}
	.st1{fill:#FFFFFF;}
</style>
<path class="st0" d="M236.2,61.5c-23.7-51.1-90.9-74-143.8-54.6S4.2,81.3,0.4,137.5c-3.1,46.5,12.6,92,17.2,138.3
	c4.5,45.5-1.2,93.8,19.2,134.8c17.6,35.4,51.9,59.1,85.7,79.6c28.9,17.6,59.4,34.4,93,39.2c31.7,4.5,63.7-1.9,95-8.4
	c59.9-12.4,125.5-28.9,160.3-79.2c27.1-39.2,28.7-92.1,13.8-137.4s-44.5-84.3-76.4-119.8C355.8,126,290,83.5,223.6,41.5"/>
<g>
	<path class="st1" d="M75.6,281l11.2-30.7h7.7l11.2,30.7h-6.7l-7-20.9l-1.4-4.6h-0.1l-1.3,4.6l-7.1,21H75.6z M82.2,273.5v-4.7h16.8
		v4.7H82.2z"/>
	<path class="st1" d="M123.3,281.4c-1.4,0-2.7-0.3-3.9-0.9c-1.2-0.6-2.1-1.4-2.9-2.5c-0.8-1.1-1.3-2.3-1.6-3.6l0.7-0.8l-0.4,7.4
		h-5.6v-33.4h6.4v16.7l-0.6-1c0.5-1.7,1.4-3.2,2.8-4.3s3.1-1.7,5.3-1.7c1.8,0,3.5,0.5,5,1.4c1.5,1,2.7,2.3,3.5,4.1
		c0.9,1.8,1.3,4,1.3,6.6c0,2.5-0.4,4.7-1.3,6.5s-2,3.2-3.5,4.1S125.2,281.4,123.3,281.4z M121.4,276.5c1.7,0,3-0.6,4-1.8
		s1.5-3,1.5-5.4c0-2.4-0.5-4.1-1.4-5.4c-1-1.2-2.3-1.8-4-1.8c-1.1,0-2.1,0.3-2.9,0.9c-0.8,0.6-1.4,1.4-1.9,2.5
		c-0.5,1.1-0.7,2.4-0.7,3.9c0,1.5,0.2,2.8,0.7,3.9c0.4,1.1,1.1,1.9,1.9,2.4C119.4,276.3,120.3,276.5,121.4,276.5z"/>
	<path class="st1" d="M149.4,257.2c2.4,0,4.4,0.5,6.2,1.4c1.8,1,3.2,2.3,4.2,4.1c1,1.8,1.5,4,1.5,6.5c0,2.5-0.5,4.7-1.5,6.5
		s-2.4,3.2-4.2,4.2c-1.8,1-3.9,1.4-6.2,1.4c-2.3,0-4.4-0.5-6.2-1.4s-3.2-2.3-4.2-4.2c-1-1.8-1.5-4-1.5-6.5c0-2.5,0.5-4.7,1.5-6.5
		c1-1.8,2.4-3.2,4.2-4.1C145,257.7,147.1,257.2,149.4,257.2z M149.4,262c-1.2,0-2.2,0.3-3,0.8c-0.8,0.5-1.4,1.4-1.9,2.4
		c-0.4,1.1-0.7,2.4-0.7,4.1c0,1.6,0.2,3,0.7,4.1c0.4,1.1,1.1,1.9,1.9,2.4c0.8,0.5,1.8,0.8,3,0.8c1.1,0,2.1-0.3,3-0.8
		c0.8-0.5,1.4-1.4,1.9-2.4c0.4-1.1,0.7-2.4,0.7-4.1c0-1.6-0.2-3-0.7-4.1c-0.4-1.1-1.1-1.9-1.9-2.4C151.5,262.3,150.5,262,149.4,262z
		"/>
	<path class="st1" d="M174.7,281.4c-1.6,0-2.9-0.3-4.2-0.8c-1.2-0.6-2.2-1.4-3-2.7c-0.7-1.2-1.1-2.8-1.1-4.8v-15.4h6.4v13.9
		c0,1.8,0.4,3,1.1,3.7c0.7,0.7,1.8,1,3.2,1c0.7,0,1.3-0.1,1.9-0.3s1.2-0.6,1.7-1.1c0.5-0.5,0.9-1.1,1.1-1.9c0.3-0.8,0.4-1.7,0.4-2.8
		v-12.5h6.4V281H183l-0.2-4c-0.8,1.6-1.8,2.7-3.2,3.4C178.2,281.1,176.6,281.4,174.7,281.4z"/>
	<path class="st1" d="M211,257.7v4.7H193v-4.7H211z M203.6,250.6v22.8c0,1.1,0.3,1.9,0.9,2.4c0.6,0.5,1.4,0.8,2.3,0.8
		c0.8,0,1.5-0.1,2-0.3c0.6-0.2,1.1-0.5,1.6-1l1,4.2c-0.7,0.6-1.7,1.1-2.8,1.4c-1.1,0.3-2.3,0.5-3.5,0.5c-1.6,0-2.9-0.2-4.1-0.7
		c-1.2-0.5-2.1-1.2-2.8-2.2c-0.7-1-1-2.4-1-4.1v-22L203.6,250.6z"/>
	<path class="st1" d="M263.6,250.3V281h-5.8v-16l0.3-9h-0.1l-8.5,25h-5.3l-8.5-25h-0.1l0.3,9v16h-5.8v-30.7h9.3l5.5,16.7l2,6.9h0.1
		l2-6.9l5.5-16.8H263.6z"/>
	<path class="st1" d="M281.5,281.4c-2.4,0-4.6-0.5-6.4-1.4c-1.8-1-3.2-2.3-4.2-4.1s-1.5-4-1.5-6.5s0.5-4.7,1.5-6.5
		c1-1.8,2.4-3.2,4.2-4.1c1.8-1,3.8-1.4,6.1-1.4c2.4,0,4.4,0.5,6,1.4c1.6,0.9,2.9,2.2,3.8,3.9c0.9,1.6,1.3,3.5,1.3,5.6
		c0,0.6,0,1.2,0,1.8c0,0.6-0.1,1.1-0.1,1.5h-18.6v-4.4h15.8l-3.1,1.1c0-2-0.4-3.5-1.3-4.5c-0.9-1.1-2.1-1.6-3.7-1.6
		c-1.2,0-2.2,0.3-3,0.8s-1.5,1.4-1.9,2.5c-0.4,1.1-0.7,2.5-0.7,4.2c0,1.6,0.2,3,0.7,4.1s1.2,1.9,2,2.4c0.9,0.5,1.9,0.8,3.2,0.8
		c1.4,0,2.5-0.3,3.3-0.8c0.8-0.5,1.5-1.3,2-2.2l5.1,2c-0.5,1.2-1.2,2.2-2.3,3.1s-2.2,1.5-3.6,2C284.6,281.2,283.1,281.4,281.5,281.4
		z"/>
</g>
</svg>
