<svg id="Layer_1" data-name="Layer 1" xmlns="http://www.w3.org/2000/svg" viewBox="0 0 483.13 463.62"><defs><style>.cls-1{fill:#273f83;}.cls-2{fill:#fff;}.cls-3{fill:#62a7db;}</style></defs><title>ChangeThingsVideo_v2</title><path class="cls-1" d="M438,27.91,266.78-22.78c-31-9.18-64.93-17.83-92.93,2.89-18.86,14-32,39.35-42.68,65.26-29.3,71.09-45.15,153-45.5,235.13-.08,19.78,1.07,41,9.77,56.53,7.48,13.36,19.26,20.24,30.61,26.1C255,429.67,395.51,434.84,532.8,429.32c7.18-.29,14.75-.76,20.81-6.16,9.1-8.11,12.06-24.62,13.46-39.63,11.14-119.1-32.35-244.79-105.93-306.12-26.68-22.24-59.47-40.78-69.67-81.92" transform="translate(-85.67 32.65)"/><path class="cls-2" d="M268.24,171.93a17.83,17.83,0,0,1-1.4,3.79,10.58,10.58,0,0,1-2.13,2.9,8.67,8.67,0,0,1-2.92,1.84,10.35,10.35,0,0,1-3.83.66,9.7,9.7,0,0,1-5.07-1.24,10.28,10.28,0,0,1-3.4-3.29,14.49,14.49,0,0,1-1.91-4.72,26.51,26.51,0,0,1,0-11,14.3,14.3,0,0,1,1.88-4.7,10.3,10.3,0,0,1,3.31-3.26,9.26,9.26,0,0,1,4.92-1.23,7.79,7.79,0,0,1,1.9.24,6.54,6.54,0,0,1,1.79.73,5.89,5.89,0,0,1,1.46,1.21,4.22,4.22,0,0,1,.88,1.66v-3.36h4.06v10.78h-4.06a10.65,10.65,0,0,0-.33-2.63,6.61,6.61,0,0,0-1-2.3,5.73,5.73,0,0,0-1.82-1.64,5.64,5.64,0,0,0-5.71.31,6.75,6.75,0,0,0-2,2.47,12.29,12.29,0,0,0-1,3.43,25.76,25.76,0,0,0-.29,3.82,26.26,26.26,0,0,0,.29,3.85,12.48,12.48,0,0,0,1,3.44,6.55,6.55,0,0,0,2,2.46,5.16,5.16,0,0,0,3.17.94,5.28,5.28,0,0,0,4.27-1.77,13.34,13.34,0,0,0,2.39-4.76Z" transform="translate(-85.67 32.65)"/><path class="cls-2" d="M291.12,180.61H286.6V168.06a4.68,4.68,0,0,0-.9-3.29,3.48,3.48,0,0,0-2.6-.92,5,5,0,0,0-4.09,2,8.93,8.93,0,0,0-1.58,5.61v9.12h-4.52V152.13h4.52v13.25a7.52,7.52,0,0,1,2.51-4.12,7,7,0,0,1,4.52-1.47,6.16,6.16,0,0,1,4.89,2q1.77,2,1.77,6.24Z" transform="translate(-85.67 32.65)"/><path class="cls-2" d="M296.16,174.76a5.26,5.26,0,0,1,1-3.13,7.94,7.94,0,0,1,2.52-2.24,12.86,12.86,0,0,1,3.58-1.34,18.89,18.89,0,0,1,4.11-.45c.78,0,1.44,0,2,.05s1.11.07,1.68.13V167a2.64,2.64,0,0,0-1.23-2.38,6,6,0,0,0-3.24-.78,14.39,14.39,0,0,0-3.74.51,15.29,15.29,0,0,0-3.6,1.49l-1.83-3.53a19.18,19.18,0,0,1,4.31-1.82,17.19,17.19,0,0,1,4.86-.67,14.3,14.3,0,0,1,3.26.37,8.85,8.85,0,0,1,2.88,1.22,6.4,6.4,0,0,1,2,2.22,6.8,6.8,0,0,1,.77,3.37v13.64H311v-3a6.9,6.9,0,0,1-3.15,2.58,10.91,10.91,0,0,1-4.49.93,9.48,9.48,0,0,1-2.8-.41,6.39,6.39,0,0,1-2.28-1.21,5.89,5.89,0,0,1-1.54-2A6.1,6.1,0,0,1,296.16,174.76Zm8.36,2.3a9.15,9.15,0,0,0,2.5-.34,7.21,7.21,0,0,0,2.06-.94,4.5,4.5,0,0,0,1.41-1.44,3.58,3.58,0,0,0,.51-1.87v-.76a14.85,14.85,0,0,0-2-.2l-1.66,0a11.31,11.31,0,0,0-5,.87c-1.12.58-1.69,1.3-1.69,2.15Q300.63,177.06,304.52,177.06Z" transform="translate(-85.67 32.65)"/><path class="cls-2" d="M339.92,180.61h-4.51V168.06a4.68,4.68,0,0,0-.9-3.29,3.48,3.48,0,0,0-2.6-.92,5,5,0,0,0-4.09,2,8.93,8.93,0,0,0-1.58,5.61v9.12h-4.52V160.27h4.52v5.11a7.52,7.52,0,0,1,2.51-4.12,7,7,0,0,1,4.52-1.47,6.16,6.16,0,0,1,4.89,2q1.75,2,1.76,6.24Z" transform="translate(-85.67 32.65)"/><path class="cls-2" d="M364.33,180.4a9.19,9.19,0,0,1-.72,3.73,7.91,7.91,0,0,1-2,2.77,9,9,0,0,1-3.06,1.74,12.08,12.08,0,0,1-3.92.6,13.5,13.5,0,0,1-9.06-3.21l2.15-3.49a10.34,10.34,0,0,0,6.91,2.68,5.81,5.81,0,0,0,3.77-1.15,4.33,4.33,0,0,0,1.43-3.59V178.3a11.44,11.44,0,0,1-2.69,1.78,7.28,7.28,0,0,1-3,.58,8.14,8.14,0,0,1-3.64-.83,8.86,8.86,0,0,1-2.89-2.26,10.67,10.67,0,0,1-1.9-3.33,11.74,11.74,0,0,1-.69-4,11.88,11.88,0,0,1,.69-4,10.51,10.51,0,0,1,1.9-3.32,8.87,8.87,0,0,1,2.89-2.22,8.13,8.13,0,0,1,3.64-.82,7.49,7.49,0,0,1,3,.58,10.05,10.05,0,0,1,2.64,1.73v-1.83h4.52Zm-4.52-14.72a5.14,5.14,0,0,0-2.09-1.36,7.19,7.19,0,0,0-2.47-.47,5.27,5.27,0,0,0-4.14,1.79,6.59,6.59,0,0,0-1.58,4.56,7.5,7.5,0,0,0,.42,2.55,6.35,6.35,0,0,0,1.18,2,5.51,5.51,0,0,0,1.81,1.35,5.56,5.56,0,0,0,2.31.49,7,7,0,0,0,2.47-.49,5.29,5.29,0,0,0,2.09-1.39Z" transform="translate(-85.67 32.65)"/><path class="cls-2" d="M373.61,172.17a5.47,5.47,0,0,0,2,3.49,6.78,6.78,0,0,0,4.49,1.4,9.77,9.77,0,0,0,3.83-.69,9.21,9.21,0,0,0,2.8-1.82l2.32,3.18a10.68,10.68,0,0,1-4.16,2.67,15.27,15.27,0,0,1-4.79.72,12.14,12.14,0,0,1-4.39-.79,10.53,10.53,0,0,1-3.51-2.19,10.14,10.14,0,0,1-2.33-3.35,10.82,10.82,0,0,1-.84-4.33,11.57,11.57,0,0,1,.77-4.26,10.1,10.1,0,0,1,2.19-3.39,9.9,9.9,0,0,1,3.37-2.22,12.27,12.27,0,0,1,8.82,0,9.54,9.54,0,0,1,3.44,2.43,11.63,11.63,0,0,1,2.24,3.9,15.92,15.92,0,0,1,.8,5.21Zm11.93-4a4.76,4.76,0,0,0-2-3.15,6.51,6.51,0,0,0-3.82-1.19,6.6,6.6,0,0,0-3.85,1.19,4.73,4.73,0,0,0-2.05,3.15Z" transform="translate(-85.67 32.65)"/><path class="cls-2" d="M267.76,216.14H263.7v-6.31h-3.84V230.2h4.52v4.06H250.84V230.2h4.5V209.83h-3.89v6.31h-4V205.77h20.32Z" transform="translate(-85.67 32.65)"/><path class="cls-2" d="M291.12,234.26H286.6V221.71a4.69,4.69,0,0,0-.9-3.3,3.47,3.47,0,0,0-2.6-.91,4.94,4.94,0,0,0-4.09,2,8.93,8.93,0,0,0-1.58,5.61v9.12h-4.52V205.77h4.52V219a7.46,7.46,0,0,1,2.51-4.11,7,7,0,0,1,4.52-1.47,6.13,6.13,0,0,1,4.89,2q1.77,2,1.77,6.24Z" transform="translate(-85.67 32.65)"/><path class="cls-2" d="M313.31,234.26H299.65V230.2h4.5V218h-4.5v-4.06h9V230.2h4.64Zm-4.14-23h-5.5v-5.5h5.5Z" transform="translate(-85.67 32.65)"/><path class="cls-2" d="M339.92,234.26h-4.51V221.71a4.69,4.69,0,0,0-.9-3.3,3.47,3.47,0,0,0-2.6-.91,4.94,4.94,0,0,0-4.09,2,8.93,8.93,0,0,0-1.58,5.61v9.12h-4.52V213.92h4.52V219a7.46,7.46,0,0,1,2.51-4.11,7,7,0,0,1,4.52-1.47,6.13,6.13,0,0,1,4.89,2q1.75,2,1.76,6.24Z" transform="translate(-85.67 32.65)"/><path class="cls-2" d="M364.33,234a9.16,9.16,0,0,1-.72,3.73,7.85,7.85,0,0,1-2,2.78,9.19,9.19,0,0,1-3.06,1.73,12.08,12.08,0,0,1-3.92.6,13.5,13.5,0,0,1-9.06-3.21l2.15-3.49a10.35,10.35,0,0,0,6.91,2.69,5.87,5.87,0,0,0,3.77-1.15,4.33,4.33,0,0,0,1.43-3.59V232a11.07,11.07,0,0,1-2.69,1.77,7.12,7.12,0,0,1-3,.58,8,8,0,0,1-3.64-.83,8.72,8.72,0,0,1-2.89-2.26,10.74,10.74,0,0,1-1.9-3.32,12.2,12.2,0,0,1,0-8.09,10.51,10.51,0,0,1,1.9-3.32,8.9,8.9,0,0,1,2.89-2.23,8.26,8.26,0,0,1,3.64-.81,7.67,7.67,0,0,1,3,.57,10.36,10.36,0,0,1,2.64,1.74v-1.83h4.52Zm-4.52-14.71a5.15,5.15,0,0,0-2.09-1.37,7.17,7.17,0,0,0-2.47-.46,5.24,5.24,0,0,0-4.14,1.79,6.59,6.59,0,0,0-1.58,4.56,7.48,7.48,0,0,0,.42,2.54,6.4,6.4,0,0,0,1.18,2,5.48,5.48,0,0,0,1.81,1.34,5.41,5.41,0,0,0,2.31.49,6.78,6.78,0,0,0,2.47-.49,5.38,5.38,0,0,0,2.09-1.38Z" transform="translate(-85.67 32.65)"/><path class="cls-2" d="M389.26,228.17a5.39,5.39,0,0,1-.9,3.23,6.78,6.78,0,0,1-2.3,2,10.18,10.18,0,0,1-3.15,1.06,20.79,20.79,0,0,1-3.39.29A19.76,19.76,0,0,1,374,234a18,18,0,0,1-4.76-2.11l1.88-3.7a19.55,19.55,0,0,0,4.4,2,14.13,14.13,0,0,0,4,.58,10,10,0,0,0,4-.58,1.78,1.78,0,0,0,1.25-1.6,1.08,1.08,0,0,0-.35-.83,3.41,3.41,0,0,0-1.16-.61,19,19,0,0,0-2.13-.54c-.88-.18-2-.38-3.28-.58-1.05-.18-2-.39-3-.65a8.35,8.35,0,0,1-2.48-1.08,5.36,5.36,0,0,1-1.71-1.77,5.13,5.13,0,0,1-.65-2.69,4.89,4.89,0,0,1,.85-2.85,6.77,6.77,0,0,1,2.21-2,10.37,10.37,0,0,1,3.08-1.13,16.36,16.36,0,0,1,3.4-.35,17.23,17.23,0,0,1,4.66.62,13.05,13.05,0,0,1,4,1.78l-1.78,3.49a11.11,11.11,0,0,0-3.31-1.45,15,15,0,0,0-3.53-.38c-.54,0-1.1,0-1.68.08a7.17,7.17,0,0,0-1.61.34,3.59,3.59,0,0,0-1.24.68,1.34,1.34,0,0,0-.49,1c0,.54.48,1,1.43,1.33a28.17,28.17,0,0,0,4.87,1,31,31,0,0,1,3.42.67,9.67,9.67,0,0,1,2.66,1.09,5,5,0,0,1,1.73,1.77A5.22,5.22,0,0,1,389.26,228.17Z" transform="translate(-85.67 32.65)"/><path class="cls-2" d="M269.07,259.42l-8.88,28.49H255l-8.88-28.49h4.74L257.63,282l6.7-22.55Z" transform="translate(-85.67 32.65)"/><path class="cls-2" d="M288.91,287.91H275.25v-4.07h4.49V271.62h-4.49v-4.06h9v16.28h4.65Zm-4.15-23h-5.5v-5.5h5.5Z" transform="translate(-85.67 32.65)"/><path class="cls-2" d="M315.52,287.91H311V286a10.84,10.84,0,0,1-2.64,1.76,7.32,7.32,0,0,1-3,.61,8.52,8.52,0,0,1-6.54-3,10.34,10.34,0,0,1-1.9-3.37,13.71,13.71,0,0,1,0-8.59,10.33,10.33,0,0,1,1.9-3.39,8.65,8.65,0,0,1,2.89-2.2,8.44,8.44,0,0,1,3.65-.8,7.48,7.48,0,0,1,3,.58,9.89,9.89,0,0,1,2.64,1.73v-5.91h-3.93v-4.06h8.45ZM311,273a5.08,5.08,0,0,0-2.08-1.37,7.16,7.16,0,0,0-2.44-.47,5.26,5.26,0,0,0-4.16,1.84,7.05,7.05,0,0,0-1.6,4.79,7,7,0,0,0,1.6,4.76,5.3,5.3,0,0,0,4.16,1.82,7.16,7.16,0,0,0,2.44-.47,5.18,5.18,0,0,0,2.08-1.37Z" transform="translate(-85.67 32.65)"/><path class="cls-2" d="M324.8,279.46a5.56,5.56,0,0,0,2,3.5,6.85,6.85,0,0,0,4.49,1.39,9.74,9.74,0,0,0,3.83-.69,9.39,9.39,0,0,0,2.81-1.82l2.31,3.18a10.68,10.68,0,0,1-4.16,2.67,15.27,15.27,0,0,1-4.79.72,12,12,0,0,1-4.39-.79,10.53,10.53,0,0,1-3.51-2.19,10.14,10.14,0,0,1-2.33-3.35,10.82,10.82,0,0,1-.84-4.33,11.37,11.37,0,0,1,.78-4.26,10,10,0,0,1,2.18-3.39,9.9,9.9,0,0,1,3.37-2.22,12.27,12.27,0,0,1,8.82,0,9.36,9.36,0,0,1,3.44,2.44,11.48,11.48,0,0,1,2.24,3.89,15.65,15.65,0,0,1,.81,5.21Zm11.94-4a4.77,4.77,0,0,0-2-3.16,6.76,6.76,0,0,0-7.66,0,4.74,4.74,0,0,0-2.06,3.16Z" transform="translate(-85.67 32.65)"/><path class="cls-2" d="M365.92,277.75a12,12,0,0,1-.75,4.33,9.57,9.57,0,0,1-2.16,3.35,9.87,9.87,0,0,1-3.38,2.19,12.45,12.45,0,0,1-8.73,0,9.82,9.82,0,0,1-3.37-2.19,9.57,9.57,0,0,1-2.16-3.35,12.73,12.73,0,0,1,0-8.61,9.49,9.49,0,0,1,5.53-5.61,12.6,12.6,0,0,1,8.73,0,9.47,9.47,0,0,1,5.54,5.61A11.92,11.92,0,0,1,365.92,277.75Zm-4.52,0a8.13,8.13,0,0,0-.42-2.62,5.7,5.7,0,0,0-3.18-3.49,6.56,6.56,0,0,0-5.12,0,5.68,5.68,0,0,0-1.91,1.38,6,6,0,0,0-1.21,2.11,8.13,8.13,0,0,0-.43,2.62,7.78,7.78,0,0,0,.43,2.62,6.25,6.25,0,0,0,1.21,2.08,5.45,5.45,0,0,0,1.91,1.39,6.93,6.93,0,0,0,5.12,0,5.7,5.7,0,0,0,1.95-1.39,6.13,6.13,0,0,0,1.23-2.08A7.78,7.78,0,0,0,361.4,277.77Z" transform="translate(-85.67 32.65)"/><path class="cls-3" d="M521.28,300.28l21.44,3.29v3.5l-9.24,1.9,9.25,1.85v3.5l-21.44,3.34v-3.53l14.44-2-8.31-1.55v-3.25l8.31-1.52-14.44-2Z" transform="translate(-85.67 32.65)"/><path class="cls-3" d="M536,294.33a4.15,4.15,0,0,0,2.46-1.77,5.06,5.06,0,0,0,.69-3.46,7.48,7.48,0,0,0-.82-2.82,6.91,6.91,0,0,0-1.58-1.95l2.2-2a8,8,0,0,1,2.33,2.9,11.66,11.66,0,0,1,.91,3.53,9.24,9.24,0,0,1-.24,3.34,8.18,8.18,0,0,1-1.37,2.81,7.53,7.53,0,0,1-2.33,2,8.19,8.19,0,0,1-3.16,1,8.78,8.78,0,0,1-3.26-.24,7.44,7.44,0,0,1-4.64-3.72,8.54,8.54,0,0,1-.93-3.19,8.74,8.74,0,0,1,.27-3.42,7.25,7.25,0,0,1,1.55-2.76,8.55,8.55,0,0,1,2.74-2,11.64,11.64,0,0,1,3.84-1Zm-3.91-8.62a3.64,3.64,0,0,0-2.21,1.77,5.07,5.07,0,0,0,.61,5.73A3.54,3.54,0,0,0,533,294.5Z" transform="translate(-85.67 32.65)"/><path class="cls-3" d="M516.09,265.48l21.66-1.25.73,3.43-8.64,3.78,9.43-.12.73,3.42-20.27,7.74L519,279l13.71-4.95-8.46.21-.68-3.17,7.82-3.23-14.55,1.05Z" transform="translate(-85.67 32.65)"/><path class="cls-3" d="M524,245a8.86,8.86,0,0,1,3.26-.49,7.17,7.17,0,0,1,2.91.75,7.44,7.44,0,0,1,2.37,1.88,9,9,0,0,1,1.6,2.95,8.53,8.53,0,0,1,.47,3.29,7.18,7.18,0,0,1-2.64,5.27,9,9,0,0,1-2.91,1.57,9.24,9.24,0,0,1-3.24.48,7.34,7.34,0,0,1-3-.74,7.23,7.23,0,0,1-2.37-1.88,9.54,9.54,0,0,1-2.08-6.24,7.14,7.14,0,0,1,2.69-5.28A9.13,9.13,0,0,1,524,245Zm1.08,3.23a5.85,5.85,0,0,0-1.77.92,4.5,4.5,0,0,0-1.21,1.38,4.33,4.33,0,0,0-.53,1.72,4.8,4.8,0,0,0,.24,2,4.62,4.62,0,0,0,1,1.71,4.25,4.25,0,0,0,1.44,1,4.42,4.42,0,0,0,1.8.36,6.14,6.14,0,0,0,2-.31,6,6,0,0,0,1.77-.93,4.8,4.8,0,0,0,1.19-1.36,3.82,3.82,0,0,0,.54-1.69,4.66,4.66,0,0,0-.26-2,4.59,4.59,0,0,0-1-1.71,4.06,4.06,0,0,0-1.45-1.06,4.86,4.86,0,0,0-1.78-.39A5.94,5.94,0,0,0,525.1,248.24Z" transform="translate(-85.67 32.65)"/><path class="cls-3" d="M512.89,229.92a5.79,5.79,0,0,0,.12,1.32,6.09,6.09,0,0,0,.47,1.38,6.5,6.5,0,0,0,1.21,1.78,4.61,4.61,0,0,0,1.64,1.13,4.46,4.46,0,0,0,2,.3,6.35,6.35,0,0,0,2.33-.64l3.45-1.62-1.45-3.11,2.76-1.3,4.37,9.33-2.76,1.3-1.47-3.14-8.32,3.89,1.47,3.14L515.94,245,513,238.77l3.48-1.63a5.94,5.94,0,0,1-4-.86,8.12,8.12,0,0,1-3-4.52,5.58,5.58,0,0,1-.17-1.59Z" transform="translate(-85.67 32.65)"/><path class="cls-3" d="M513,207.37l2.35,3.72-2.51,7.64,2.16.47,3.91-2.46,1.81,2.87L502.6,231.05l-1.81-2.88,10.67-6.73-8.75-1.72-2.49-3.95,9.71,2.23Z" transform="translate(-85.67 32.65)"/></svg>