<svg id="Layer_1" data-name="Layer 1" xmlns="http://www.w3.org/2000/svg" viewBox="0 0 689.22 396.26"><defs><style>.cls-2{fill:#fff}.cls-3{fill:#62a8dc}</style></defs><path d="M137.41 274.54C98.69 270 63 238.29 51.12 197.92s1-86.84 30.93-112.21c31-26.29 75.75-28.71 114.49-15.48s72.57 40.15 103.78 68.77c16.87 15.5 34.11 32.18 55.28 38.44 17.18 5.09 35.16 2.73 52.52 0a1516 1516 0 0 0 169-36.18c28.82-7.92 58.3-16.76 88.22-12.75s60.81 24.48 68.69 56.07c6 24-2.38 49.16-15.32 68.86-29 44.18-78.27 66.65-125.88 84.74-141.55 53.79-289.74 86.56-437.41 119.17-4.62 1-9.53 2-14 .19-5.6-2.26-9.13-8.28-11.9-14-25.61-53.37-21.22-121 10.9-167.58" transform="translate(-46.75 -62.38)" fill="#273f84"/><path class="cls-2" d="M227.68 238.71a7.9 7.9 0 0 0-1.68-.47 14 14 0 0 0-2.22-.15 10.08 10.08 0 0 0-3.61.67A7.87 7.87 0 0 0 217 241a11.35 11.35 0 0 0-2.2 4 19.12 19.12 0 0 0-.83 6 19.35 19.35 0 0 0 .74 5.63 11.87 11.87 0 0 0 2.07 4A8.31 8.31 0 0 0 220 263a10.28 10.28 0 0 0 4.15.81 11.36 11.36 0 0 0 2.17-.2 10.8 10.8 0 0 0 1.87-.56v-4.47h3.3v6l.05.09a11.5 11.5 0 0 1-3.4 1.72 15.86 15.86 0 0 1-5 .69 13.82 13.82 0 0 1-5.2-1 10.75 10.75 0 0 1-4.14-2.93 13.59 13.59 0 0 1-2.7-5 24.49 24.49 0 0 1-1-7.27 22.5 22.5 0 0 1 1.07-7.44 13.87 13.87 0 0 1 2.9-5 11.12 11.12 0 0 1 4.27-2.84 15.16 15.16 0 0 1 5.21-.89c1 0 1.89 0 2.64.11a15.43 15.43 0 0 1 2 .31 7.62 7.62 0 0 1 1.49.52 11.5 11.5 0 0 1 1.28.71v7.07h-3.31zM234.21 235.31h7V247h.22a9.79 9.79 0 0 1 3.22-2.44 10.6 10.6 0 0 1 4.56-.87 13.76 13.76 0 0 1 3.73.45 5.3 5.3 0 0 1 2.59 1.56 7.19 7.19 0 0 1 1.5 3.06 20.59 20.59 0 0 1 .49 4.94v12.88H254V254.4a21.85 21.85 0 0 0-.22-3.35 5.89 5.89 0 0 0-.87-2.39 4 4 0 0 0-1.76-1.45 7 7 0 0 0-2.85-.5 6.88 6.88 0 0 0-2.36.43 7.79 7.79 0 0 0-2.12 1.16 7.24 7.24 0 0 0-1.65 1.79 6.56 6.56 0 0 0-.95 2.3v14.22h-3.45v-28.3h-3.53zM265.68 246a14.13 14.13 0 0 1 4.34-1.61 23.56 23.56 0 0 1 4.74-.49 8.55 8.55 0 0 1 3.73.71 6.06 6.06 0 0 1 2.28 1.86 6.63 6.63 0 0 1 1.12 2.59 15.24 15.24 0 0 1 .29 2.93c0 1.13 0 2.34-.09 3.62s-.11 2.56-.13 3.85a31.87 31.87 0 0 0 .26 4.24h3v2.91h-5.91l-.39-3.36h-.23a10.26 10.26 0 0 1-.81 1 7.31 7.31 0 0 1-1.41 1.23 8.46 8.46 0 0 1-2.13 1.05 8.77 8.77 0 0 1-3 .45 7.65 7.65 0 0 1-5.24-1.7 5.86 5.86 0 0 1-1.93-4.65 6.69 6.69 0 0 1 1-3.8 6.29 6.29 0 0 1 2.89-2.32 13.17 13.17 0 0 1 4.55-.94 30.53 30.53 0 0 1 6 .36 15.37 15.37 0 0 0 .06-3.42 4.67 4.67 0 0 0-.71-2.17 3 3 0 0 0-1.57-1.14 7.84 7.84 0 0 0-2.49-.34 13.25 13.25 0 0 0-3.86.56c-1.23.38-2.32.76-3.28 1.14zm6.62 18a6.5 6.5 0 0 0 2.32-.41 7.06 7.06 0 0 0 1.88-1 6.62 6.62 0 0 0 1.34-1.36 6.48 6.48 0 0 0 .81-1.41v-3.13a26.16 26.16 0 0 0-4.3-.4 11.69 11.69 0 0 0-3.39.43 4.75 4.75 0 0 0-2.24 1.31 3.4 3.4 0 0 0-.8 2.33 3.68 3.68 0 0 0 1 2.57 4.43 4.43 0 0 0 3.38 1.07zM291.83 252.08v-1.05c0-.43 0-.88-.07-1.34s-.06-.92-.11-1.37-.09-.83-.15-1.16h-3v-2.9h6l.4 3.62h.23a7.53 7.53 0 0 1 1.18-1.5 9.21 9.21 0 0 1 3.91-2.3 8.93 8.93 0 0 1 2.55-.36 13.45 13.45 0 0 1 3.65.45 5.49 5.49 0 0 1 2.63 1.58 7.39 7.39 0 0 1 1.59 3.09 18.81 18.81 0 0 1 .54 4.94v12.83h-3.54v-12.13a10.47 10.47 0 0 0-1.2-5.58q-1.2-1.87-4.36-1.87a5.47 5.47 0 0 0-2.25.47 7.94 7.94 0 0 0-2 1.22 8.44 8.44 0 0 0-1.55 1.76 7.14 7.14 0 0 0-1 2.12v14h-3.45zM337.92 267.73a8 8 0 0 1-.8 3.68 7.3 7.3 0 0 1-2.21 2.62 10.09 10.09 0 0 1-3.29 1.54 15.48 15.48 0 0 1-4.07.52 17.44 17.44 0 0 1-4.6-.54 13.63 13.63 0 0 1-3.4-1.39l1.69-3.17a5 5 0 0 0 1.05.69 11.13 11.13 0 0 0 1.49.63 13.67 13.67 0 0 0 1.81.47 10.24 10.24 0 0 0 1.89.18 12.66 12.66 0 0 0 3.28-.36 4.88 4.88 0 0 0 2.12-1.12 4.4 4.4 0 0 0 1.16-2 10.79 10.79 0 0 0 .35-2.95v-2.5h-.18a7 7 0 0 1-2.63 2.28 9.2 9.2 0 0 1-4.14.8q-5.08 0-7.47-2.83t-2.39-8.83c0-3.82 1-6.7 3-8.65s5-2.93 9-2.93a25.36 25.36 0 0 1 4.72.38 23.1 23.1 0 0 1 3.55 1zm-10-3.58a6.13 6.13 0 0 0 4.27-1.41 7.89 7.89 0 0 0 2.17-4.31v-10.6a12.94 12.94 0 0 0-5.46-.94 7.43 7.43 0 0 0-5.59 2.1c-1.37 1.41-2 3.55-2 6.44a15.91 15.91 0 0 0 .36 3.51 8 8 0 0 0 1.13 2.75 5.32 5.32 0 0 0 2 1.81 6.87 6.87 0 0 0 3.2.65zM365 263.79a10.82 10.82 0 0 1-1.9 1.34 14.1 14.1 0 0 1-2.39 1.08 19.54 19.54 0 0 1-2.71.69 16.84 16.84 0 0 1-2.84.24 12.64 12.64 0 0 1-4.73-.82A9.1 9.1 0 0 1 347 264a10.46 10.46 0 0 1-2.1-3.69 15.42 15.42 0 0 1-.71-4.83 14.93 14.93 0 0 1 .78-5 9.57 9.57 0 0 1 2.26-3.66 9.81 9.81 0 0 1 3.57-2.26 13.43 13.43 0 0 1 4.7-.78 14.16 14.16 0 0 1 3.71.49 7.36 7.36 0 0 1 3.24 1.86 8.88 8.88 0 0 1 2.17 3.75 17.64 17.64 0 0 1 .53 6.19h-17.3c0 2.69.72 4.69 2.16 6a8.22 8.22 0 0 0 5.77 2 9.66 9.66 0 0 0 2.39-.3 18.49 18.49 0 0 0 2.25-.69 11.6 11.6 0 0 0 1.9-.89 8.36 8.36 0 0 0 1.27-.9zm-9.41-17.12a12 12 0 0 0-2.79.31 6.34 6.34 0 0 0-2.31 1.05 5.76 5.76 0 0 0-1.65 1.93 7.73 7.73 0 0 0-.83 2.92h13.86a6.91 6.91 0 0 0-1.87-4.58 6 6 0 0 0-4.44-1.63zM396.75 235.31H420v8.19h-3.31v-4.88h-6.48v24.68h4.92v3.31h-13.55v-3.31h4.92v-24.68h-6.44v4.88h-3.31zM422 235.31h7V247h.22a10 10 0 0 1 3.22-2.44 10.6 10.6 0 0 1 4.56-.87 13.83 13.83 0 0 1 3.74.45 5.35 5.35 0 0 1 2.59 1.56 7.19 7.19 0 0 1 1.5 3.06 21.12 21.12 0 0 1 .49 4.94v12.88h-3.53V254.4a21.74 21.74 0 0 0-.23-3.35 5.89 5.89 0 0 0-.87-2.39 4 4 0 0 0-1.75-1.45 7.12 7.12 0 0 0-2.86-.5 6.93 6.93 0 0 0-2.36.43 7.88 7.88 0 0 0-2.11 1.16 7.24 7.24 0 0 0-1.65 1.79 6.77 6.77 0 0 0-1 2.3v14.22h-3.46v-28.3H422zM453.3 266.61v-3h7.78v-16.36h-7.78v-3h11.31v19.35h7.6v3zm6.53-28.7a2.94 2.94 0 0 1 .81-2.08 2.66 2.66 0 0 1 2.05-.87 2.94 2.94 0 0 1 2.17.87 2.83 2.83 0 0 1 .87 2.08 2.56 2.56 0 0 1-.87 2 3.06 3.06 0 0 1-2.17.81 2.76 2.76 0 0 1-2.05-.81 2.65 2.65 0 0 1-.81-2zM479.59 252.08v-1.05c0-.43 0-.88-.07-1.34s-.07-.92-.11-1.37-.1-.83-.16-1.16h-3v-2.9h6l.4 3.62h.22a7.6 7.6 0 0 1 1.19-1.5 9.21 9.21 0 0 1 3.91-2.3 8.83 8.83 0 0 1 2.55-.36 13.38 13.38 0 0 1 3.64.45 5.47 5.47 0 0 1 2.64 1.58 7.39 7.39 0 0 1 1.59 3.09 19.3 19.3 0 0 1 .53 4.94v12.83h-3.53v-12.13a10.47 10.47 0 0 0-1.2-5.58Q493 247 489.8 247a5.54 5.54 0 0 0-2.25.47 7.71 7.71 0 0 0-2 1.22 8.78 8.78 0 0 0-1.56 1.76 7.68 7.68 0 0 0-1 2.12v14h-3.44zM525.68 267.73a8.08 8.08 0 0 1-.8 3.68 7.32 7.32 0 0 1-2.22 2.62 10 10 0 0 1-3.28 1.54 15.53 15.53 0 0 1-4.07.52 17.52 17.52 0 0 1-4.61-.54 13.55 13.55 0 0 1-3.39-1.39L509 271a5 5 0 0 0 1.05.69 11.13 11.13 0 0 0 1.49.63 13.28 13.28 0 0 0 1.81.47 10.16 10.16 0 0 0 1.89.18 12.66 12.66 0 0 0 3.28-.36 4.84 4.84 0 0 0 2.11-1.12 4.31 4.31 0 0 0 1.16-2 10.38 10.38 0 0 0 .36-2.95v-2.5H522a7 7 0 0 1-2.63 2.28 9.21 9.21 0 0 1-4.15.8q-5.09 0-7.47-2.83t-2.38-8.83q0-5.73 3-8.65c2-2 5-2.93 9-2.93a25.36 25.36 0 0 1 4.72.38 23.42 23.42 0 0 1 3.55 1zm-10-3.58a6.1 6.1 0 0 0 4.26-1.41 7.9 7.9 0 0 0 2.18-4.31v-10.6a13 13 0 0 0-5.46-.94 7.45 7.45 0 0 0-5.6 2.1c-1.36 1.41-2 3.55-2 6.44a16.56 16.56 0 0 0 .35 3.51 8 8 0 0 0 1.14 2.75 5.25 5.25 0 0 0 2 1.81 6.84 6.84 0 0 0 3.16.65zM548.61 260.57a2.55 2.55 0 0 0-1.11-2.21 9.15 9.15 0 0 0-2.76-1.25c-1.1-.31-2.3-.61-3.59-.87a20.4 20.4 0 0 1-3.59-1.08 7.89 7.89 0 0 1-2.76-1.81 4.34 4.34 0 0 1-1.12-3.19 5.49 5.49 0 0 1 .74-2.91 6.25 6.25 0 0 1 1.94-2 9 9 0 0 1 2.82-1.16 14.7 14.7 0 0 1 3.35-.38 16.58 16.58 0 0 1 5.39.78 18.2 18.2 0 0 1 3.6 1.63l-1.43 2.88c-1-.54-2-1-3.18-1.54a11 11 0 0 0-4.3-.74 9.6 9.6 0 0 0-1.94.2 7 7 0 0 0-1.74.6 3.49 3.49 0 0 0-1.25 1.05 2.69 2.69 0 0 0-.47 1.59 2 2 0 0 0 1.12 1.79 11.22 11.22 0 0 0 2.76 1c1.1.28 2.3.55 3.59.81a17.09 17.09 0 0 1 3.59 1.09 8.13 8.13 0 0 1 2.76 1.92 4.66 4.66 0 0 1 1.11 3.27 6.33 6.33 0 0 1-2.43 5.09c-1.63 1.34-4.06 2-7.31 2a15.75 15.75 0 0 1-2.91-.26 17.48 17.48 0 0 1-2.68-.72 16 16 0 0 1-2.28-1 9.81 9.81 0 0 1-1.7-1.13l1.79-2.91a7.7 7.7 0 0 0 1.38 1.09 13.4 13.4 0 0 0 4.26 1.73 12.12 12.12 0 0 0 2.47.26A11.35 11.35 0 0 0 545 264a6.49 6.49 0 0 0 1.85-.62 3.47 3.47 0 0 0 1.27-1.12 2.86 2.86 0 0 0 .49-1.69zM220.71 315.65h.49l8.5-26.65h3.71l-10.51 31.25h-4.34L207.84 289h4.06zM238.73 320.25v-3h7.77V300.9h-7.77v-3H250v19.36h7.6v3zm6.52-28.7a3 3 0 0 1 .81-2.08 2.66 2.66 0 0 1 2.05-.87 2.94 2.94 0 0 1 2.17.87 2.87 2.87 0 0 1 .87 2.08 2.58 2.58 0 0 1-.87 2 3 3 0 0 1-2.17.8 2.75 2.75 0 0 1-2.05-.8 2.67 2.67 0 0 1-.81-2zM276.41 289h7.29v24.65c0 .4.07.83.11 1.28s.1.89.16 1.32.12.81.18 1.14h3v2.9h-6l-.45-3.44h-.18a7.9 7.9 0 0 1-2.92 2.84 8.68 8.68 0 0 1-4.48 1.14q-5 0-7.43-2.84t-2.38-8.83a14.37 14.37 0 0 1 .8-5 9.61 9.61 0 0 1 2.3-3.62 9.9 9.9 0 0 1 3.59-2.22 13.75 13.75 0 0 1 4.68-.76h1.67c.49 0 .94.07 1.36.13a8.19 8.19 0 0 1 1.18.25l1.23.33V292h-3.76zm-2.66 28.83a6.15 6.15 0 0 0 4.28-1.4 7.59 7.59 0 0 0 2.14-4.23v-10.41a6.91 6.91 0 0 0-2.21-1 13.37 13.37 0 0 0-3.23-.32 7.54 7.54 0 0 0-5.61 2.08q-2.06 2.08-2.05 6.55a16.82 16.82 0 0 0 .33 3.42 7.65 7.65 0 0 0 1.12 2.75 5.39 5.39 0 0 0 2.07 1.83 6.74 6.74 0 0 0 3.16.69zM311.33 317.44a12 12 0 0 1-1.9 1.34 14.19 14.19 0 0 1-2.4 1.07 16.68 16.68 0 0 1-2.7.69 16 16 0 0 1-2.84.25 12.65 12.65 0 0 1-4.74-.83 9.06 9.06 0 0 1-3.44-2.37 10.18 10.18 0 0 1-2.1-3.68 15.17 15.17 0 0 1-.72-4.83 14.64 14.64 0 0 1 .79-5 9.8 9.8 0 0 1 2.25-3.67 9.92 9.92 0 0 1 3.58-2.25 13.37 13.37 0 0 1 4.69-.79 14.12 14.12 0 0 1 3.71.5 7.14 7.14 0 0 1 3.24 1.85 8.75 8.75 0 0 1 2.17 3.76 17.36 17.36 0 0 1 .54 6.19H294.2c0 2.68.72 4.69 2.17 6a8.16 8.16 0 0 0 5.77 2 10.21 10.21 0 0 0 2.39-.29 19.64 19.64 0 0 0 2.25-.69 11.88 11.88 0 0 0 1.89-.9 7.32 7.32 0 0 0 1.27-.89zm-9.42-17.12a11.84 11.84 0 0 0-2.78.31 6.39 6.39 0 0 0-2.32 1.05 5.73 5.73 0 0 0-1.65 1.92 7.79 7.79 0 0 0-.82 2.93h13.86a6.85 6.85 0 0 0-1.9-4.58 6 6 0 0 0-4.39-1.63zM317.05 309.08q0-5.41 2.81-8.56c1.88-2.1 4.56-3.16 8.05-3.16a11.76 11.76 0 0 1 4.85.92 9.58 9.58 0 0 1 3.38 2.48 10.36 10.36 0 0 1 2 3.71 16 16 0 0 1 .64 4.61 15.64 15.64 0 0 1-.71 4.85 10.29 10.29 0 0 1-2.1 3.69 9.39 9.39 0 0 1-3.42 2.34 12.25 12.25 0 0 1-4.63.83 11.79 11.79 0 0 1-4.83-.92 9.45 9.45 0 0 1-3.4-2.48 10.11 10.11 0 0 1-2-3.71 15.55 15.55 0 0 1-.64-4.6zm3.71 0a13 13 0 0 0 .38 3.13 8.57 8.57 0 0 0 1.22 2.81 6.28 6.28 0 0 0 2.21 2 6.65 6.65 0 0 0 3.32.76 6.53 6.53 0 0 0 5.37-2.21q1.8-2.2 1.8-6.5a12.7 12.7 0 0 0-.38-3.15 8.33 8.33 0 0 0-1.24-2.8 6.37 6.37 0 0 0-5.55-2.77 6.49 6.49 0 0 0-5.35 2.19q-1.78 2.2-1.78 6.54z" transform="translate(-46.75 -62.38)"/><path class="cls-3" d="M610.5 274.54l5.59 21-3.2 1.4-5.45-7.71 2 9.22-3.21 1.41-11.66-18.3 3.23-1.42 7.62 12.43-1.92-8.24 3-1.31 4.73 7-4-14zM621.85 285.63a4.21 4.21 0 0 0 2.61 1.55 5.09 5.09 0 0 0 3.45-.76 7.26 7.26 0 0 0 2.25-1.88 6.76 6.76 0 0 0 1.16-2.24l2.7 1.22a8 8 0 0 1-1.73 3.3 11.4 11.4 0 0 1-2.86 2.25 9 9 0 0 1-3.17 1.12 8.08 8.08 0 0 1-3.11-.12 7.63 7.63 0 0 1-2.77-1.33 8.17 8.17 0 0 1-2.16-2.51 8.81 8.81 0 0 1-1.08-3.08 7.49 7.49 0 0 1 .17-3 7.24 7.24 0 0 1 1.37-2.71 8.55 8.55 0 0 1 2.55-2.14 8.77 8.77 0 0 1 3.24-1.12 7.14 7.14 0 0 1 3.15.31 8.73 8.73 0 0 1 2.92 1.72 11.85 11.85 0 0 1 2.46 3.1zm6.33-7a3.57 3.57 0 0 0-2.5-1.31 4.86 4.86 0 0 0-2.94.64 5 5 0 0 0-2.07 2.21 3.59 3.59 0 0 0-.17 2.83zM640.3 255.83l9.83 19.34-2.84 2-6.94-6.4 3.9 8.59-2.84 2.05L626.19 266l2.87-2.06 10 10.57-3.58-7.66 2.64-1.9 6.08 5.86-6.8-12.9zM662.23 254.88a8.77 8.77 0 0 1 1.76 2.79 7.28 7.28 0 0 1 .48 3 7.4 7.4 0 0 1-.78 2.93 8.86 8.86 0 0 1-2.05 2.65 8.61 8.61 0 0 1-2.83 1.75 7.42 7.42 0 0 1-3 .48 7.22 7.22 0 0 1-2.9-.78 8.93 8.93 0 0 1-2.6-2 9.24 9.24 0 0 1-1.74-2.78 7.17 7.17 0 0 1 .26-5.92 9.08 9.08 0 0 1 2-2.62 8.8 8.8 0 0 1 2.84-1.78 7.13 7.13 0 0 1 3-.47 7.35 7.35 0 0 1 2.92.81 8.8 8.8 0 0 1 2.64 1.94zm-2.52 2.28a5.77 5.77 0 0 0-1.56-1.24 4.27 4.27 0 0 0-1.75-.56 4.35 4.35 0 0 0-1.78.2 4.69 4.69 0 0 0-1.69 1 4.61 4.61 0 0 0-1.18 1.59 4.46 4.46 0 0 0-.37 1.74 4.81 4.81 0 0 0 .39 1.78 6.17 6.17 0 0 0 1.08 1.68 5.84 5.84 0 0 0 1.57 1.25 4.68 4.68 0 0 0 1.72.55 4 4 0 0 0 1.77-.19 5.22 5.22 0 0 0 2.86-2.58 4.18 4.18 0 0 0 .39-1.76 4.83 4.83 0 0 0-.36-1.78 6 6 0 0 0-1.09-1.68zM671.58 238.63a6.41 6.41 0 0 0-1.15.64 6.07 6.07 0 0 0-1.08 1 6.56 6.56 0 0 0-1.15 1.82 4.68 4.68 0 0 0-.37 2 4.53 4.53 0 0 0 .53 2 6.31 6.31 0 0 0 1.53 1.88l2.86 2.51 2.25-2.68 2.3 2-6.79 7.74-2.3-2 2.28-2.61-6.9-6.05-2.29 2.6-2.31-2 4.53-5.17 2.89 2.54a5.9 5.9 0 0 1-.82-4 8.31 8.31 0 0 1 2.93-4.56 5.75 5.75 0 0 1 1.39-.79zM692.3 229.7l-2.47 3.65-8 .77.44 2.16 3.82 2.59-1.9 2.82-17.75-12 1.9-2.82 10.45 7.08-1.94-8.71 2.62-3.87 1.86 9.8z" transform="translate(-46.75 -62.38)"/></svg>