<?xml version="1.0" encoding="utf-8"?>
<!-- Generator: Adobe Illustrator 24.1.2, SVG Export Plug-In . SVG Version: 6.00 Build 0)  -->
<svg version="1.1" id="Layer_1" xmlns="http://www.w3.org/2000/svg" xmlns:xlink="http://www.w3.org/1999/xlink" x="0px" y="0px"
	 viewBox="0 0 483.1 463.6" style="enable-background:new 0 0 483.1 463.6;" xml:space="preserve">
<style type="text/css">
	.st0{fill:#E5892E;}
	.st1{fill:#FFFFFF;}
</style>
<path class="st0" d="M352.3,60.6L181.1,9.9c-31-9.2-64.9-17.8-92.9,2.9c-18.9,14-32,39.3-42.7,65.3C16.2,149.1,0.4,231,0,313.1
	c-0.1,19.8,1.1,41,9.8,56.5c7.5,13.4,19.3,20.2,30.6,26.1c128.9,66.5,269.5,71.7,406.8,66.2c7.2-0.3,14.8-0.8,20.8-6.2
	c9.1-8.1,12.1-24.6,13.5-39.6C492.6,297,449.2,171.3,375.6,110c-26.7-22.2-59.5-40.8-69.7-81.9"/>
<g>
	<path class="st1" d="M106.3,198.9c-0.6,2.2-1.7,4-3.1,5.5c-1.4,1.5-3,2.6-4.9,3.3c-1.9,0.7-4,1.1-6.3,1.1c-3.3,0-6.2-0.7-8.6-2.1
		c-2.4-1.4-4.3-3.4-5.6-6c-1.3-2.6-2-5.7-2-9.3c0-3.6,0.7-6.7,2-9.3c1.3-2.6,3.2-4.6,5.6-6c2.4-1.4,5.3-2.1,8.5-2.1
		c2.3,0,4.4,0.3,6.3,0.9c1.9,0.6,3.5,1.6,4.8,2.9c1.3,1.3,2.3,2.9,2.9,4.9l-6.4,2.7c-0.6-2-1.5-3.5-2.7-4.4
		c-1.2-0.9-2.7-1.3-4.6-1.3c-1.8,0-3.4,0.4-4.8,1.3c-1.4,0.9-2.4,2.2-3.2,3.9c-0.7,1.7-1.1,3.8-1.1,6.4c0,2.5,0.3,4.6,1,6.3
		c0.7,1.7,1.7,3,3.1,3.9c1.4,0.9,3,1.3,5,1.3c1.8,0,3.4-0.5,4.8-1.5c1.3-1,2.3-2.5,2.8-4.5L106.3,198.9z"/>
	<path class="st1" d="M111.6,208.2v-36.7h7V187c0.8-1.6,1.9-2.8,3.4-3.6c1.4-0.8,3-1.2,4.8-1.2c1.8,0,3.3,0.3,4.7,1
		c1.4,0.7,2.5,1.7,3.3,3.1c0.8,1.4,1.2,3.1,1.2,5.2v16.7h-7v-14.7c0-2.2-0.4-3.7-1.3-4.6c-0.9-0.8-1.9-1.2-3.3-1.2
		c-1,0-1.9,0.2-2.8,0.7c-0.9,0.5-1.6,1.2-2.2,2.2c-0.6,1-0.8,2.4-0.8,4.1v13.5H111.6z"/>
	<path class="st1" d="M157.7,191.9c0-1.5-0.4-2.6-1.2-3.4c-0.8-0.8-1.9-1.2-3.3-1.2c-1.3,0-2.4,0.3-3.3,1c-1,0.6-1.6,1.7-2.1,3.2
		l-6-1.8c0.6-2.2,1.8-4,3.8-5.4c2-1.4,4.6-2,7.9-2c2.2,0,4.2,0.3,5.9,1c1.7,0.7,3,1.7,3.9,3.1c0.9,1.4,1.4,3.1,1.4,5.3V202
		c0,1.3,0.6,1.9,1.8,1.9c0.6,0,1.1-0.1,1.6-0.3l-0.4,4.3c-0.9,0.4-2,0.7-3.3,0.7c-1.2,0-2.3-0.2-3.2-0.6c-1-0.4-1.7-1-2.2-1.9
		c-0.5-0.8-0.8-1.9-0.8-3.1v-0.2l1.2-0.2c-0.2,1.3-0.8,2.4-1.7,3.3c-0.9,0.9-2,1.6-3.3,2.1c-1.3,0.5-2.7,0.7-4.1,0.7
		c-1.7,0-3.2-0.3-4.5-0.8c-1.3-0.5-2.2-1.3-2.9-2.3c-0.7-1-1-2.3-1-3.8c0-1.9,0.6-3.5,1.8-4.7c1.2-1.2,3-2,5.3-2.5l9.6-1.9l-0.1,4.3
		l-6.1,1.2c-1.2,0.2-2,0.6-2.6,0.9c-0.6,0.4-0.9,1-0.9,1.9c0,0.9,0.3,1.5,0.9,1.9c0.6,0.4,1.4,0.7,2.3,0.7c0.7,0,1.4-0.1,2.1-0.3
		c0.7-0.2,1.3-0.4,1.8-0.8c0.5-0.4,1-0.9,1.3-1.5c0.3-0.6,0.5-1.4,0.5-2.3V191.9z"/>
	<path class="st1" d="M182.7,208.7c-2.6,0-4.9-0.5-7.1-1.4c-2.1-0.9-3.9-2.2-5.2-3.9l4-4.1c0.8,1.2,1.9,2.2,3.3,3
		c1.4,0.8,3,1.2,4.8,1.2c1.3,0,2.4-0.2,3.2-0.6c0.8-0.4,1.2-1,1.2-1.9c0-0.5-0.2-1-0.6-1.4c-0.4-0.4-1.1-0.7-2.2-0.9l-4.5-0.9
		c-3-0.6-5.1-1.5-6.3-2.8c-1.2-1.2-1.9-2.8-1.9-4.8c0-1.4,0.4-2.7,1.2-3.9c0.8-1.2,2.1-2.2,3.7-3c1.7-0.8,3.7-1.1,6.2-1.1
		c2.6,0,4.8,0.4,6.7,1.2c1.9,0.8,3.4,2,4.5,3.5l-4.2,4.1c-0.7-1.2-1.7-2.1-2.9-2.7c-1.2-0.6-2.5-0.9-3.8-0.9c-1,0-1.8,0.1-2.4,0.3
		c-0.7,0.2-1.2,0.5-1.5,0.8c-0.3,0.4-0.5,0.8-0.5,1.4c0,0.5,0.2,1,0.7,1.4c0.5,0.4,1.3,0.7,2.6,1l5.2,1.1c2.5,0.5,4.3,1.4,5.4,2.6
		c1.1,1.2,1.6,2.7,1.6,4.4c0,1.6-0.4,3.1-1.3,4.4s-2.1,2.3-3.8,3C187.2,208.3,185.1,208.7,182.7,208.7z"/>
	<path class="st1" d="M211.3,208.7c-2.7,0-5-0.5-7-1.6c-2-1.1-3.5-2.6-4.6-4.5c-1.1-2-1.6-4.4-1.6-7.1c0-2.8,0.5-5.2,1.6-7.1
		c1.1-2,2.6-3.5,4.6-4.5c2-1.1,4.2-1.6,6.7-1.6c2.6,0,4.8,0.5,6.6,1.6c1.8,1,3.2,2.4,4.1,4.2c1,1.8,1.4,3.8,1.4,6.1
		c0,0.7,0,1.3-0.1,1.9c0,0.6-0.1,1.2-0.2,1.6h-20.4v-4.8h17.3l-3.4,1.2c0-2.1-0.5-3.8-1.5-4.9c-1-1.2-2.3-1.7-4.1-1.7
		c-1.3,0-2.4,0.3-3.3,0.9c-0.9,0.6-1.6,1.5-2.1,2.7c-0.5,1.2-0.7,2.7-0.7,4.6c0,1.8,0.3,3.3,0.8,4.5c0.5,1.2,1.3,2,2.2,2.6
		c1,0.6,2.1,0.9,3.5,0.9c1.5,0,2.7-0.3,3.6-0.9c0.9-0.6,1.6-1.4,2.1-2.4l5.6,2.1c-0.5,1.3-1.4,2.5-2.5,3.4c-1.1,1-2.4,1.7-3.9,2.2
		C214.6,208.4,213,208.7,211.3,208.7z"/>
	<path class="st1" d="M89.8,235.2c3.1,0,5.7,0.5,8.1,1.6c2.3,1.1,4.3,2.6,5.9,4.7l-3.9,4.5c-1.4-1.8-2.9-3.1-4.6-3.9
		c-1.6-0.8-3.6-1.2-5.7-1.2c-1.4,0-2.6,0.2-3.5,0.6c-0.9,0.4-1.6,0.9-2,1.5c-0.4,0.6-0.6,1.3-0.6,2c0,0.9,0.4,1.7,1.1,2.3
		c0.7,0.6,1.9,1.1,3.7,1.6l6.3,1.4c3.3,0.7,5.7,1.9,7.2,3.3c1.4,1.5,2.2,3.4,2.2,5.7c0,2.2-0.6,4.1-1.7,5.7
		c-1.2,1.6-2.8,2.8-4.8,3.6c-2.1,0.8-4.5,1.2-7.1,1.2c-2.3,0-4.5-0.3-6.5-0.8c-2-0.6-3.7-1.3-5.2-2.3s-2.8-2.1-3.8-3.4l4-4.7
		c0.8,1.1,1.8,2.1,2.9,2.9c1.2,0.9,2.5,1.5,4,2c1.5,0.5,3,0.7,4.7,0.7c1.4,0,2.6-0.2,3.5-0.5c1-0.3,1.7-0.8,2.2-1.4
		c0.5-0.6,0.7-1.3,0.7-2.2c0-0.9-0.3-1.6-0.9-2.3c-0.6-0.6-1.7-1.1-3.3-1.5l-6.8-1.5c-2-0.5-3.7-1.1-5.1-1.9c-1.4-0.8-2.5-1.8-3.2-3
		c-0.7-1.2-1.1-2.6-1.1-4.3c0-2,0.5-3.8,1.6-5.4c1.1-1.6,2.7-2.9,4.7-3.8C84.4,235.7,86.9,235.2,89.8,235.2z"/>
	<path class="st1" d="M123.9,253.1c0-1.5-0.4-2.6-1.2-3.4c-0.8-0.8-1.9-1.2-3.3-1.2c-1.3,0-2.4,0.3-3.3,1c-1,0.6-1.6,1.7-2.1,3.2
		l-6-1.8c0.6-2.2,1.8-4,3.8-5.4c2-1.4,4.6-2,7.9-2c2.2,0,4.2,0.3,5.9,1c1.7,0.7,3,1.7,3.9,3.1c0.9,1.4,1.4,3.1,1.4,5.3v10.4
		c0,1.3,0.6,1.9,1.8,1.9c0.6,0,1.1-0.1,1.6-0.3l-0.4,4.3c-0.9,0.4-2,0.7-3.3,0.7c-1.2,0-2.3-0.2-3.2-0.6c-1-0.4-1.7-1-2.2-1.9
		c-0.5-0.8-0.8-1.9-0.8-3.1V264l1.2-0.2c-0.2,1.3-0.8,2.4-1.7,3.3c-0.9,0.9-2,1.6-3.3,2.1c-1.3,0.5-2.7,0.7-4.1,0.7
		c-1.7,0-3.2-0.3-4.5-0.8c-1.3-0.5-2.2-1.3-2.9-2.3c-0.7-1-1-2.3-1-3.8c0-1.9,0.6-3.5,1.8-4.7c1.2-1.2,3-2,5.3-2.5l9.6-1.9l-0.1,4.3
		l-6.1,1.2c-1.2,0.2-2,0.6-2.6,0.9c-0.6,0.4-0.9,1-0.9,1.9c0,0.9,0.3,1.5,0.9,1.9c0.6,0.4,1.4,0.7,2.3,0.7c0.7,0,1.4-0.1,2.1-0.3
		c0.7-0.2,1.3-0.4,1.8-0.8s1-0.9,1.3-1.5c0.3-0.6,0.5-1.4,0.5-2.3V253.1z"/>
	<path class="st1" d="M138.6,280.1v-36.2h6.3l0.5,8.1l-0.9-0.9c0.3-1.5,0.9-2.8,1.7-4c0.8-1.2,1.9-2.1,3.2-2.7c1.3-0.7,2.7-1,4.3-1
		c2.1,0,3.9,0.5,5.6,1.6c1.6,1.1,2.9,2.6,3.9,4.5c0.9,2,1.4,4.3,1.4,7.1c0,2.8-0.5,5.2-1.4,7.2c-1,2-2.3,3.5-3.9,4.6
		c-1.6,1.1-3.5,1.6-5.6,1.6c-2.2,0-4.1-0.6-5.6-1.9c-1.5-1.3-2.5-2.8-3-4.7l0.7-1.1v17.9H138.6z M151.5,264.5c1.9,0,3.3-0.7,4.4-2
		c1.1-1.3,1.6-3.3,1.6-5.9c0-2.6-0.5-4.5-1.6-5.9c-1-1.3-2.5-2-4.4-2c-1.2,0-2.2,0.3-3.1,0.9c-0.9,0.6-1.6,1.5-2.1,2.7
		c-0.5,1.2-0.8,2.6-0.8,4.3c0,1.6,0.2,3,0.7,4.2c0.5,1.2,1.2,2.1,2.1,2.7C149.3,264.2,150.3,264.5,151.5,264.5z"/>
	<path class="st1" d="M170.6,280.1v-36.2h6.3l0.5,8.1l-0.9-0.9c0.3-1.5,0.9-2.8,1.7-4c0.8-1.2,1.9-2.1,3.2-2.7c1.3-0.7,2.7-1,4.3-1
		c2.1,0,3.9,0.5,5.6,1.6c1.6,1.1,2.9,2.6,3.9,4.5c0.9,2,1.4,4.3,1.4,7.1c0,2.8-0.5,5.2-1.4,7.2c-1,2-2.3,3.5-3.9,4.6
		c-1.6,1.1-3.5,1.6-5.6,1.6c-2.2,0-4.1-0.6-5.6-1.9c-1.5-1.3-2.5-2.8-3-4.7l0.7-1.1v17.9H170.6z M183.5,264.5c1.9,0,3.3-0.7,4.4-2
		c1.1-1.3,1.6-3.3,1.6-5.9c0-2.6-0.5-4.5-1.6-5.9c-1-1.3-2.5-2-4.4-2c-1.2,0-2.2,0.3-3.1,0.9c-0.9,0.6-1.6,1.5-2.1,2.7
		c-0.5,1.2-0.8,2.6-0.8,4.3c0,1.6,0.2,3,0.7,4.2c0.5,1.2,1.2,2.1,2.1,2.7C181.2,264.2,182.3,264.5,183.5,264.5z"/>
	<path class="st1" d="M202.6,269.4v-36.7h7v15.5c0.8-1.6,1.9-2.8,3.4-3.6c1.4-0.8,3-1.2,4.8-1.2c1.8,0,3.3,0.3,4.7,1
		c1.4,0.7,2.5,1.7,3.3,3.1c0.8,1.4,1.2,3.1,1.2,5.2v16.7h-7v-14.7c0-2.2-0.4-3.7-1.3-4.6c-0.9-0.8-1.9-1.2-3.3-1.2
		c-1,0-1.9,0.2-2.8,0.7c-0.9,0.5-1.6,1.2-2.2,2.2c-0.6,1-0.8,2.4-0.8,4.1v13.5H202.6z"/>
	<path class="st1" d="M237.7,240.2c-1.5,0-2.6-0.3-3.3-0.9c-0.7-0.6-1.1-1.6-1.1-2.8c0-1.3,0.4-2.2,1.1-2.8c0.7-0.6,1.8-0.9,3.3-0.9
		c1.5,0,2.6,0.3,3.3,0.9c0.7,0.6,1.1,1.6,1.1,2.8c0,1.2-0.4,2.2-1.1,2.8C240.2,239.9,239.1,240.2,237.7,240.2z M241.1,243.9v25.5h-7
		v-25.5H241.1z"/>
	<path class="st1" d="M248.5,269.4v-25.5h6.1l0.5,5c0.7-1.8,1.7-3.1,3-4.1c1.3-1,2.9-1.4,4.9-1.4c0.6,0,1.1,0.1,1.6,0.2
		c0.5,0.1,0.9,0.2,1.2,0.4l-0.8,5.9c-0.3-0.1-0.8-0.2-1.2-0.3s-1.1-0.1-1.9-0.1c-1,0-2,0.2-3,0.7c-1,0.5-1.7,1.2-2.3,2.2
		s-0.9,2.3-0.9,3.8v13.2H248.5z"/>
	<path class="st1" d="M281.4,269.9c-2.7,0-5-0.5-7-1.6c-2-1.1-3.5-2.6-4.6-4.5c-1.1-2-1.6-4.4-1.6-7.1c0-2.8,0.5-5.2,1.6-7.1
		c1.1-2,2.6-3.5,4.6-4.5c2-1.1,4.2-1.6,6.7-1.6c2.6,0,4.8,0.5,6.6,1.6c1.8,1,3.2,2.4,4.1,4.2c1,1.8,1.4,3.8,1.4,6.1
		c0,0.7,0,1.3-0.1,1.9c0,0.6-0.1,1.2-0.2,1.6h-20.4V254h17.3l-3.4,1.2c0-2.1-0.5-3.8-1.5-4.9c-1-1.2-2.3-1.7-4.1-1.7
		c-1.3,0-2.4,0.3-3.3,0.9c-0.9,0.6-1.6,1.5-2.1,2.7s-0.7,2.7-0.7,4.6c0,1.8,0.3,3.3,0.8,4.5c0.5,1.2,1.3,2,2.2,2.6
		c1,0.6,2.1,0.9,3.5,0.9c1.5,0,2.7-0.3,3.6-0.9c0.9-0.6,1.6-1.4,2.1-2.4l5.6,2.1c-0.5,1.3-1.4,2.5-2.5,3.4c-1.1,1-2.4,1.7-3.9,2.2
		C284.7,269.7,283.1,269.9,281.4,269.9z"/>
	<path class="st1" d="M92.3,296.9c3.8,0,6.8,0.9,9,2.8c2.2,1.8,3.3,4.3,3.3,7.4c0,3.3-1.1,5.8-3.3,7.6c-2.2,1.8-5.2,2.6-8.9,2.6
		l-0.7,0.4h-7.2v12.9h-6.9v-33.7H92.3z M91.5,312.3c2,0,3.4-0.4,4.4-1.2s1.5-2,1.5-3.7s-0.5-2.9-1.5-3.7s-2.4-1.2-4.4-1.2h-7.1v9.8
		H91.5z M95.6,313.8l10.9,16.8h-7.9l-9-14.7L95.6,313.8z"/>
	<path class="st1" d="M122.7,331.1c-2.7,0-5-0.5-7-1.6c-2-1.1-3.5-2.6-4.6-4.5c-1.1-2-1.6-4.4-1.6-7.1c0-2.8,0.5-5.2,1.6-7.1
		c1.1-2,2.6-3.5,4.6-4.5c2-1.1,4.2-1.6,6.7-1.6c2.6,0,4.8,0.5,6.6,1.6c1.8,1,3.2,2.4,4.1,4.2c1,1.8,1.4,3.8,1.4,6.1
		c0,0.7,0,1.3-0.1,1.9c0,0.6-0.1,1.2-0.2,1.6H114v-4.8h17.3l-3.4,1.2c0-2.1-0.5-3.8-1.5-4.9c-1-1.2-2.3-1.7-4.1-1.7
		c-1.3,0-2.4,0.3-3.3,0.9c-0.9,0.6-1.6,1.5-2.1,2.7c-0.5,1.2-0.7,2.7-0.7,4.6c0,1.8,0.3,3.3,0.8,4.5c0.5,1.2,1.3,2,2.2,2.6
		c1,0.6,2.1,0.9,3.5,0.9c1.5,0,2.7-0.3,3.6-0.9c0.9-0.6,1.6-1.4,2.1-2.4l5.6,2.1c-0.5,1.3-1.4,2.5-2.5,3.4c-1.1,1-2.4,1.7-3.9,2.2
		C126.1,330.9,124.5,331.1,122.7,331.1z"/>
	<path class="st1" d="M150.6,331.1c-2.6,0-4.9-0.5-7.1-1.4c-2.1-0.9-3.9-2.2-5.2-3.9l4-4.1c0.8,1.2,1.9,2.2,3.3,3
		c1.4,0.8,3,1.2,4.8,1.2c1.3,0,2.4-0.2,3.2-0.6c0.8-0.4,1.2-1,1.2-1.9c0-0.5-0.2-1-0.6-1.4c-0.4-0.4-1.1-0.7-2.2-0.9l-4.5-0.9
		c-3-0.6-5.1-1.5-6.3-2.8c-1.2-1.2-1.9-2.8-1.9-4.8c0-1.4,0.4-2.7,1.2-3.9c0.8-1.2,2.1-2.2,3.7-3c1.7-0.8,3.7-1.1,6.2-1.1
		c2.6,0,4.8,0.4,6.7,1.2c1.9,0.8,3.4,2,4.5,3.5l-4.2,4.1c-0.7-1.2-1.7-2.1-2.9-2.7c-1.2-0.6-2.5-0.9-3.8-0.9c-1,0-1.8,0.1-2.4,0.3
		c-0.7,0.2-1.2,0.5-1.5,0.8c-0.3,0.4-0.5,0.8-0.5,1.4s0.2,1,0.7,1.4c0.5,0.4,1.3,0.7,2.6,1l5.2,1.1c2.5,0.5,4.3,1.4,5.4,2.6
		c1.1,1.2,1.6,2.7,1.6,4.4c0,1.6-0.4,3.1-1.3,4.4c-0.9,1.3-2.1,2.3-3.8,3C155.2,330.7,153.1,331.1,150.6,331.1z"/>
	<path class="st1" d="M179.3,331.1c-2.7,0-5-0.5-7-1.6c-2-1.1-3.5-2.6-4.6-4.5c-1.1-2-1.6-4.4-1.6-7.1c0-2.8,0.5-5.2,1.6-7.1
		c1.1-2,2.6-3.5,4.6-4.5c2-1.1,4.2-1.6,6.7-1.6c2.6,0,4.8,0.5,6.6,1.6c1.8,1,3.2,2.4,4.1,4.2c1,1.8,1.4,3.8,1.4,6.1
		c0,0.7,0,1.3-0.1,1.9c0,0.6-0.1,1.2-0.2,1.6h-20.4v-4.8h17.3l-3.4,1.2c0-2.1-0.5-3.8-1.5-4.9c-1-1.2-2.3-1.7-4.1-1.7
		c-1.3,0-2.4,0.3-3.3,0.9c-0.9,0.6-1.6,1.5-2.1,2.7c-0.5,1.2-0.7,2.7-0.7,4.6c0,1.8,0.3,3.3,0.8,4.5c0.5,1.2,1.3,2,2.2,2.6
		c1,0.6,2.1,0.9,3.5,0.9c1.5,0,2.7-0.3,3.6-0.9c0.9-0.6,1.6-1.4,2.1-2.4l5.6,2.1c-0.5,1.3-1.4,2.5-2.5,3.4c-1.1,1-2.4,1.7-3.9,2.2
		C182.6,330.9,181,331.1,179.3,331.1z"/>
	<path class="st1" d="M197,330.6v-25.5h6.1l0.5,5c0.7-1.8,1.7-3.1,3-4.1c1.3-1,2.9-1.4,4.9-1.4c0.6,0,1.1,0.1,1.6,0.2
		c0.5,0.1,0.9,0.2,1.2,0.4l-0.8,5.9c-0.3-0.1-0.8-0.2-1.2-0.3c-0.5-0.1-1.1-0.1-1.9-0.1c-1,0-2,0.2-3,0.7c-1,0.5-1.7,1.2-2.3,2.2
		c-0.6,1-0.9,2.3-0.9,3.8v13.2H197z"/>
	<path class="st1" d="M235.2,305.1h7.2l-9.7,25.5h-8.1l-9.7-25.5h7.4l6.3,20.1L235.2,305.1z"/>
	<path class="st1" d="M257.9,331.1c-2.7,0-5-0.5-7-1.6c-2-1.1-3.5-2.6-4.6-4.5c-1.1-2-1.6-4.4-1.6-7.1c0-2.8,0.5-5.2,1.6-7.1
		c1.1-2,2.6-3.5,4.6-4.5c2-1.1,4.2-1.6,6.7-1.6c2.6,0,4.8,0.5,6.6,1.6c1.8,1,3.2,2.4,4.1,4.2s1.4,3.8,1.4,6.1c0,0.7,0,1.3-0.1,1.9
		s-0.1,1.2-0.2,1.6h-20.4v-4.8h17.3l-3.4,1.2c0-2.1-0.5-3.8-1.5-4.9c-1-1.2-2.3-1.7-4.1-1.7c-1.3,0-2.4,0.3-3.3,0.9
		c-0.9,0.6-1.6,1.5-2.1,2.7s-0.7,2.7-0.7,4.6c0,1.8,0.3,3.3,0.8,4.5c0.5,1.2,1.3,2,2.2,2.6c1,0.6,2.1,0.9,3.5,0.9
		c1.5,0,2.7-0.3,3.6-0.9c0.9-0.6,1.6-1.4,2.1-2.4l5.6,2.1c-0.5,1.3-1.4,2.5-2.5,3.4c-1.1,1-2.4,1.7-3.9,2.2
		C261.2,330.9,259.6,331.1,257.9,331.1z"/>
</g>
</svg>
