<?xml version="1.0" encoding="utf-8"?>
<!-- Generator: Adobe Illustrator 23.0.3, SVG Export Plug-In . SVG Version: 6.00 Build 0)  -->
<svg version="1.1" id="Layer_1" xmlns="http://www.w3.org/2000/svg" xmlns:xlink="http://www.w3.org/1999/xlink" x="0px" y="0px"
	 viewBox="0 0 708.5 420.9" style="enable-background:new 0 0 708.5 420.9;" xml:space="preserve">
<style type="text/css">
	.st0{fill:#62A8DC;}
	.st1{enable-background:new    ;}
	.st2{fill:#FFFFFF;}
</style>
<title>ChaseSapphire</title>
<path class="st0" d="M455.4,190.3c-36.9-38-71.4-78.5-111.5-113.1c-40-34.7-86.7-63.7-138.7-73.7S95.2,4.9,57.3,41.8
	C27.1,71.2,12.4,113.1,4.9,154.6c-5.5,30.5-7.6,62.3,0.4,92.3c17.8,66.8,83.2,112,150.5,127.7s137.6,7.6,206.6,2.3
	s140.7-7.3,204.5,19.2c29,12.1,58.9,30.2,89.6,23.3c34.8-7.9,55.2-47.6,51.6-83.1s-25.6-66.5-50.3-92.2
	c-49.7-51.6-117.5-90.4-189.1-88.3c-20.6,0.6-46.5,11-45.2,31.5"/>
<g class="st1">
	<path class="st2" d="M233.6,246c-0.3,1.2-0.7,2.4-1.2,3.3c-0.5,1-1.1,1.8-1.8,2.6c-0.7,0.7-1.6,1.2-2.6,1.6c-1,0.4-2.1,0.6-3.3,0.6
		c-1.8,0-3.3-0.4-4.5-1.1c-1.2-0.7-2.2-1.7-3-2.9c-0.8-1.2-1.3-2.6-1.7-4.1c-0.4-1.6-0.5-3.2-0.5-4.8s0.2-3.3,0.5-4.8
		s0.9-2.9,1.7-4.1c0.8-1.2,1.8-2.1,2.9-2.9c1.1-0.8,2.6-1.1,4.3-1.1c0.5,0,1.1,0.1,1.7,0.2c0.5,0.2,1.1,0.4,1.6,0.6
		c0.5,0.3,0.9,0.6,1.3,1.1c0.4,0.4,0.6,0.9,0.8,1.5v-3h3.6v9.5h-3.6c0-0.8-0.1-1.6-0.3-2.3c-0.2-0.8-0.5-1.4-0.9-2
		c-0.4-0.6-1-1.1-1.6-1.4c-0.6-0.4-1.4-0.5-2.3-0.5c-1.1,0-2,0.3-2.7,0.8c-0.7,0.5-1.3,1.2-1.8,2.2c-0.4,0.9-0.7,1.9-0.9,3
		c-0.2,1.1-0.3,2.2-0.3,3.3s0.1,2.3,0.3,3.3c0.2,1.1,0.4,2.1,0.9,3s1,1.6,1.8,2.2c0.7,0.5,1.7,0.8,2.8,0.8c1.6,0,2.9-0.5,3.8-1.6
		c0.9-1.1,1.6-2.5,2.1-4.2L233.6,246z"/>
	<path class="st2" d="M253.8,253.6h-4v-11.1c0-1.4-0.3-2.4-0.8-2.9c-0.5-0.5-1.3-0.8-2.3-0.8c-1.5,0-2.6,0.6-3.6,1.8
		c-1,1.2-1.4,2.8-1.4,4.9v8h-4v-25.1h4v11.6c0.4-1.6,1.1-2.7,2.2-3.6c1.1-0.9,2.4-1.3,4-1.3c1.8,0,3.3,0.6,4.3,1.8
		c1.1,1.2,1.6,3,1.6,5.5L253.8,253.6L253.8,253.6z"/>
	<path class="st2" d="M258.2,248.4c0-1.1,0.3-1.9,0.9-2.7c0.5-0.8,1.3-1.4,2.2-1.9c0.9-0.5,1.9-0.9,3.2-1.1c1.1-0.3,2.4-0.4,3.6-0.4
		c0.7,0,1.2,0,1.8,0c0.5,0,1,0.1,1.5,0.1v-0.7c0-1-0.4-1.7-1.1-2.1c-0.7-0.4-1.7-0.7-2.8-0.7c-1.1,0-2.2,0.2-3.3,0.4
		c-1.1,0.3-2.2,0.7-3.2,1.3l-1.6-3.1c1.1-0.7,2.5-1.2,3.8-1.6c1.3-0.4,2.8-0.6,4.3-0.6c1,0,1.9,0.1,2.9,0.4c1,0.2,1.8,0.6,2.6,1.1
		c0.8,0.5,1.3,1.1,1.8,1.9s0.7,1.8,0.7,3v12h-4.1V251c-0.6,1-1.6,1.8-2.8,2.3c-1.2,0.5-2.6,0.8-4,0.8c-0.9,0-1.7-0.1-2.5-0.4
		c-0.8-0.3-1.4-0.6-2-1.1c-0.5-0.4-1.1-1.1-1.3-1.8C258.4,250.2,258.2,249.3,258.2,248.4z M265.6,250.5c0.8,0,1.5-0.1,2.2-0.3
		c0.7-0.2,1.3-0.4,1.8-0.8c0.5-0.4,1-0.8,1.2-1.2c0.3-0.5,0.4-1.1,0.4-1.7v-0.7c-0.6-0.1-1.2-0.2-1.8-0.2c-0.5,0-1.1,0-1.5,0
		c-1.9,0-3.4,0.3-4.4,0.8c-1,0.5-1.5,1.1-1.5,1.9C262.1,249.7,263.3,250.5,265.6,250.5z"/>
	<path class="st2" d="M297.2,248.3c0,1.1-0.3,2.1-0.8,2.8c-0.5,0.7-1.2,1.3-2,1.8c-0.8,0.4-1.8,0.8-2.7,1c-1.1,0.2-2,0.3-3,0.3
		c-1.6,0-3.3-0.3-4.8-0.7s-3-1.1-4.2-1.8l1.7-3.3c1.4,0.8,2.7,1.4,3.9,1.8s2.4,0.5,3.5,0.5c1.6,0,2.7-0.2,3.5-0.5
		c0.7-0.4,1.1-0.8,1.1-1.4c0-0.3-0.1-0.5-0.3-0.7c-0.2-0.2-0.5-0.4-1.1-0.5c-0.4-0.2-1.1-0.4-1.8-0.4c-0.8-0.1-1.8-0.4-2.9-0.5
		c-0.9-0.2-1.8-0.4-2.6-0.5c-0.8-0.3-1.6-0.5-2.2-1c-0.6-0.4-1.1-1-1.5-1.6c-0.4-0.6-0.5-1.4-0.5-2.4c0-1,0.3-1.8,0.7-2.6
		c0.5-0.7,1.1-1.3,1.9-1.8s1.7-0.8,2.7-1c1-0.2,2-0.3,3-0.3c1.4,0,2.8,0.2,4.1,0.5c1.3,0.4,2.5,0.9,3.5,1.6l-1.6,3.1
		c-1-0.6-1.9-1.1-2.9-1.3c-1-0.3-1.9-0.4-3.1-0.4c-0.4,0-1,0-1.5,0.1c-0.5,0.1-1,0.2-1.4,0.3c-0.4,0.2-0.8,0.4-1.1,0.6
		c-0.3,0.3-0.4,0.5-0.4,0.9c0,0.4,0.4,0.9,1.2,1.1c0.8,0.3,2.3,0.6,4.3,0.9c1.1,0.2,2.1,0.4,3,0.6c0.9,0.3,1.7,0.5,2.4,1
		c0.6,0.4,1.1,0.9,1.5,1.6C297.1,246.7,297.2,247.3,297.2,248.3z"/>
	<path class="st2" d="M304.9,246.1c0.2,1.2,0.8,2.3,1.8,3.1c1,0.8,2.3,1.2,4,1.2c1.3,0,2.4-0.2,3.3-0.6c1-0.4,1.8-1,2.5-1.6l2,2.8
		c-1.1,1.1-2.4,1.9-3.7,2.4s-2.7,0.6-4.2,0.6c-1.4,0-2.6-0.3-3.9-0.7c-1.2-0.4-2.2-1.1-3.1-1.9c-0.9-0.8-1.6-1.8-2-2.9
		c-0.4-1.1-0.7-2.4-0.7-3.8c0-1.3,0.3-2.6,0.7-3.8c0.4-1.1,1.1-2.1,1.9-3s1.8-1.5,3-1.9c1.1-0.4,2.5-0.7,3.8-0.7
		c1.4,0,2.7,0.3,4,0.7c1.1,0.5,2.2,1.2,3,2.1c0.9,1,1.5,2.1,1.9,3.4s0.7,2.9,0.7,4.6H304.9z M315.4,242.6c-0.2-1.1-0.8-2.1-1.8-2.8
		c-1-0.7-2.1-1.1-3.3-1.1c-1.2,0-2.4,0.4-3.3,1.1c-1,0.7-1.6,1.6-1.8,2.8H315.4z"/>
	<path class="st2" d="M361.4,246.7c0,1.1-0.2,2.2-0.6,3.1c-0.4,0.9-0.9,1.7-1.6,2.3s-1.5,1.1-2.4,1.4c-1,0.4-1.9,0.5-3,0.5
		c-1.1,0-2.2-0.2-3.2-0.6s-1.8-1.1-2.5-2.1v2.3h-3.6v-8.2h3.6c0,0.8,0.2,1.6,0.4,2.2c0.3,0.6,0.7,1.1,1.1,1.6s1.1,0.8,1.7,1
		c0.6,0.3,1.3,0.4,2,0.4c1.2,0,2.1-0.3,2.9-0.8c0.7-0.5,1.1-1.4,1.1-2.6c0-0.6-0.1-1.1-0.4-1.6c-0.3-0.4-0.5-0.9-1-1.2
		c-0.4-0.4-1-0.7-1.5-0.9c-0.6-0.3-1.3-0.5-2-0.8c-0.9-0.3-1.8-0.6-2.7-1.1c-0.9-0.4-1.8-0.9-2.5-1.4c-0.7-0.5-1.3-1.2-1.8-2.1
		c-0.4-0.8-0.7-1.8-0.7-3.1c0-1.1,0.2-2,0.6-2.9c0.4-0.8,1-1.5,1.6-2.1c0.7-0.5,1.5-1,2.4-1.2c0.9-0.3,1.8-0.4,2.8-0.4
		c1.1,0,2.1,0.3,3,0.7s1.5,1.1,1.9,1.9v-2.3h3.6v7.8h-3.6c0-1.5-0.4-2.6-1.1-3.4s-1.8-1.2-3.1-1.2c-1.1,0-2.1,0.3-2.9,0.8
		c-0.8,0.5-1.1,1.3-1.1,2.3c0,0.5,0.1,1,0.3,1.3c0.2,0.4,0.5,0.7,0.9,1c0.4,0.3,0.9,0.5,1.4,0.8c0.6,0.3,1.2,0.5,2,0.8
		c1,0.4,1.8,0.7,2.8,1.1s1.8,1,2.6,1.6c0.7,0.6,1.3,1.3,1.8,2.2C361.2,244.4,361.4,245.4,361.4,246.7z"/>
	<path class="st2" d="M365.5,248.4c0-1.1,0.3-1.9,0.9-2.7c0.6-0.8,1.3-1.4,2.2-1.9c0.9-0.5,1.9-0.9,3.2-1.1c1.1-0.3,2.4-0.4,3.6-0.4
		c0.7,0,1.2,0,1.8,0c0.5,0,1,0.1,1.5,0.1v-0.7c0-1-0.4-1.7-1.1-2.1c-0.7-0.4-1.7-0.7-2.8-0.7c-1.1,0-2.2,0.2-3.3,0.4
		c-1.1,0.3-2.2,0.7-3.2,1.3l-1.6-3.1c1.1-0.7,2.5-1.2,3.8-1.6c1.3-0.4,2.8-0.6,4.3-0.6c1,0,1.9,0.1,2.9,0.4c1,0.2,1.8,0.6,2.6,1.1
		c0.8,0.5,1.3,1.1,1.8,1.9s0.7,1.8,0.7,3v12h-4.1V251c-0.6,1-1.6,1.8-2.8,2.3c-1.2,0.5-2.6,0.8-4,0.8c-0.9,0-1.7-0.1-2.5-0.4
		c-0.8-0.3-1.4-0.6-2-1.1c-0.5-0.4-1.1-1.1-1.3-1.8S365.5,249.3,365.5,248.4z M372.9,250.5c0.8,0,1.5-0.1,2.2-0.3
		c0.7-0.2,1.3-0.4,1.8-0.8c0.5-0.4,1-0.8,1.2-1.2c0.3-0.5,0.4-1.1,0.4-1.7v-0.7c-0.6-0.1-1.2-0.2-1.8-0.2s-1.1,0-1.5,0
		c-1.9,0-3.4,0.3-4.4,0.8c-1,0.5-1.5,1.1-1.5,1.9C369.5,249.7,370.6,250.5,372.9,250.5z"/>
	<path class="st2" d="M388,235.7h4v1.6c0.8-0.7,1.5-1.1,2.3-1.5c0.8-0.4,1.7-0.5,2.6-0.5c1.1,0,2.2,0.3,3.2,0.7
		c1,0.4,1.8,1.1,2.6,1.9s1.2,1.8,1.7,3s0.6,2.4,0.6,3.8c0,1.4-0.2,2.6-0.6,3.8s-1,2.1-1.7,3c-0.7,0.8-1.6,1.5-2.6,1.9
		c-1,0.4-2,0.7-3.2,0.7c-1,0-1.8-0.2-2.6-0.5c-0.8-0.4-1.6-0.9-2.3-1.6v8.8h-4V235.7z M392,248.8c0.4,0.5,1.1,1,1.8,1.2
		c0.8,0.3,1.4,0.4,2.1,0.4c1.5,0,2.7-0.5,3.7-1.6c1-1.1,1.4-2.5,1.4-4.2c0-1.8-0.4-3.2-1.4-4.2c-1-1.1-2.2-1.6-3.7-1.6
		c-0.7,0-1.4,0.2-2.1,0.4c-0.7,0.3-1.3,0.7-1.8,1.2V248.8z"/>
	<path class="st2" d="M409.5,235.7h4v1.6c0.8-0.7,1.5-1.1,2.3-1.5c0.8-0.4,1.7-0.5,2.6-0.5c1.1,0,2.2,0.3,3.2,0.7s1.8,1.1,2.6,1.9
		s1.2,1.8,1.7,3s0.6,2.4,0.6,3.8c0,1.4-0.2,2.6-0.6,3.8s-1,2.1-1.7,3c-0.7,0.8-1.6,1.5-2.6,1.9s-2,0.7-3.2,0.7c-1,0-1.8-0.2-2.6-0.5
		c-0.8-0.4-1.6-0.9-2.3-1.6v8.8h-4V235.7z M413.4,248.8c0.4,0.5,1.1,1,1.8,1.2c0.8,0.3,1.4,0.4,2.1,0.4c1.5,0,2.7-0.5,3.7-1.6
		s1.4-2.5,1.4-4.2c0-1.8-0.4-3.2-1.4-4.2c-1-1.1-2.2-1.6-3.7-1.6c-0.7,0-1.4,0.2-2.1,0.4c-0.7,0.3-1.3,0.7-1.8,1.2V248.8z"/>
	<path class="st2" d="M446.9,253.6h-4v-11.1c0-1.4-0.3-2.4-0.8-2.9c-0.5-0.5-1.3-0.8-2.3-0.8c-1.5,0-2.6,0.6-3.6,1.8
		c-1,1.2-1.4,2.8-1.4,4.9v8h-4v-25.1h4v11.6c0.4-1.6,1.1-2.7,2.2-3.6c1.1-0.9,2.4-1.3,4-1.3c1.8,0,3.3,0.6,4.3,1.8
		c1.1,1.1,1.6,3,1.6,5.5L446.9,253.6L446.9,253.6z"/>
	<path class="st2" d="M466.5,253.6h-12.1V250h4v-10.7h-4v-3.6h7.9V250h4L466.5,253.6L466.5,253.6z M462.9,233.4H458v-4.8h4.8V233.4z
		"/>
	<path class="st2" d="M490.4,239.9c-0.4-0.3-1-0.4-1.4-0.5c-0.5-0.1-1.1-0.2-1.7-0.2c-0.9,0-1.7,0.1-2.5,0.4c-0.8,0.3-1.4,0.6-2,1.1
		c-0.5,0.5-1,1.1-1.3,1.9c-0.4,0.8-0.4,1.8-0.4,2.8v4.5h4v3.6h-12.1V250h4v-10.7h-4v-3.6h8v4.5c0.6-1.8,1.6-3.1,2.9-3.8
		c1.2-0.7,2.8-1.1,4.6-1.1c0.5,0,1.1,0.1,1.8,0.2c0.6,0.1,1.2,0.4,1.8,0.6L490.4,239.9z"/>
	<path class="st2" d="M498,246.1c0.2,1.2,0.8,2.3,1.8,3.1c1,0.8,2.3,1.2,4,1.2c1.3,0,2.4-0.2,3.3-0.6c1-0.4,1.8-1,2.5-1.6l2,2.8
		c-1.1,1.1-2.4,1.9-3.7,2.4c-1.3,0.4-2.7,0.6-4.2,0.6c-1.4,0-2.6-0.3-3.9-0.7c-1.2-0.4-2.2-1.1-3.1-1.9c-0.9-0.8-1.6-1.8-2-2.9
		c-0.5-1.1-0.7-2.4-0.7-3.8c0-1.3,0.3-2.6,0.7-3.8c0.4-1.1,1.1-2.1,1.9-3s1.8-1.5,3-1.9c1.1-0.4,2.5-0.7,3.8-0.7
		c1.4,0,2.7,0.3,4,0.7c1.2,0.4,2.2,1.2,3,2.1c0.8,0.9,1.5,2.1,1.9,3.4c0.4,1.3,0.7,2.9,0.7,4.6H498z M508.5,242.6
		c-0.2-1.1-0.8-2.1-1.8-2.8c-1-0.7-2.1-1.1-3.3-1.1c-1.2,0-2.4,0.4-3.3,1.1c-1,0.7-1.6,1.6-1.8,2.8H508.5z"/>
</g>
<g class="st1">
	<path class="st2" d="M233.6,300.8h-5l-6.5-10.1h-1.8v10.1h-4v-25.1h8.3c2.7,0,4.9,0.6,6.4,1.9c1.5,1.2,2.3,3.2,2.3,5.6
		c0,1.1-0.2,2.1-0.5,2.9c-0.4,0.9-0.8,1.6-1.4,2.2c-0.6,0.6-1.3,1.1-2.2,1.4c-0.8,0.4-1.8,0.6-2.6,0.7L233.6,300.8z M229.2,283.2
		c0-1.3-0.4-2.2-1.2-2.9c-0.9-0.6-2-1-3.4-1h-4.3v7.7h4.3c1.5,0,2.6-0.4,3.4-1C228.9,285.5,229.2,284.5,229.2,283.2z"/>
	<path class="st2" d="M240.5,293.4c0.2,1.2,0.8,2.3,1.8,3.1c1,0.8,2.3,1.2,4,1.2c1.3,0,2.4-0.2,3.3-0.6c1-0.4,1.8-1,2.5-1.6l2,2.8
		c-1.1,1.1-2.4,1.9-3.7,2.4c-1.3,0.4-2.7,0.6-4.2,0.6c-1.4,0-2.6-0.3-3.9-0.7s-2.2-1.1-3.1-1.9c-0.9-0.8-1.6-1.8-2-2.9
		c-0.4-1.1-0.7-2.4-0.7-3.8c0-1.3,0.3-2.6,0.7-3.8s1.1-2.1,1.9-3c0.9-0.9,1.8-1.5,3-1.9s2.5-0.7,3.8-0.7c1.4,0,2.7,0.3,4,0.7
		c1.1,0.5,2.2,1.2,3,2.1c0.9,1,1.5,2.1,1.9,3.4c0.4,1.3,0.7,2.9,0.7,4.6L240.5,293.4L240.5,293.4z M251,289.9
		c-0.2-1.1-0.8-2.1-1.8-2.8c-1-0.7-2.1-1.1-3.3-1.1c-1.2,0-2.4,0.4-3.3,1.1c-1,0.7-1.6,1.6-1.8,2.8H251z"/>
	<path class="st2" d="M275.7,295.4c0,1.1-0.3,2.1-0.8,2.8c-0.5,0.7-1.2,1.3-2,1.8c-0.8,0.4-1.8,0.8-2.7,1c-1.1,0.2-2,0.3-3,0.3
		c-1.6,0-3.3-0.3-4.8-0.7c-1.6-0.4-3-1.1-4.2-1.8l1.7-3.3c1.4,0.8,2.7,1.4,3.9,1.8c1.1,0.4,2.4,0.5,3.5,0.5c1.6,0,2.7-0.2,3.5-0.5
		c0.7-0.4,1.1-0.8,1.1-1.4c0-0.3-0.1-0.5-0.3-0.7c-0.2-0.2-0.5-0.4-1.1-0.5c-0.4-0.2-1.1-0.4-1.8-0.4c-0.8-0.2-1.8-0.4-2.9-0.5
		c-0.9-0.2-1.8-0.4-2.6-0.5c-0.8-0.3-1.6-0.5-2.2-1c-0.6-0.4-1.1-1-1.5-1.6c-0.4-0.6-0.5-1.4-0.5-2.4c0-1,0.3-1.8,0.7-2.6
		c0.5-0.7,1.1-1.3,1.9-1.8c0.8-0.4,1.7-0.8,2.7-1c1-0.2,2-0.3,3-0.3c1.4,0,2.8,0.2,4.1,0.5c1.3,0.4,2.5,0.9,3.5,1.6l-1.6,3.1
		c-1-0.6-1.9-1.1-2.9-1.3c-1-0.3-1.9-0.4-3.1-0.4c-0.4,0-1,0-1.5,0.1c-0.5,0.1-1,0.2-1.4,0.3c-0.4,0.2-0.8,0.4-1.1,0.6
		c-0.3,0.3-0.4,0.5-0.4,0.9c0,0.4,0.4,0.9,1.2,1.1c0.8,0.3,2.3,0.6,4.3,0.9c1.1,0.2,2.1,0.4,3,0.6s1.7,0.5,2.4,1s1.1,0.9,1.5,1.6
		C275.5,293.7,275.7,294.5,275.7,295.4z"/>
	<path class="st2" d="M283.4,293.4c0.2,1.2,0.8,2.3,1.8,3.1c1,0.8,2.3,1.2,4,1.2c1.3,0,2.4-0.2,3.3-0.6s1.8-1,2.5-1.6l2,2.8
		c-1.1,1.1-2.4,1.9-3.7,2.4c-1.3,0.4-2.7,0.6-4.2,0.6c-1.4,0-2.6-0.3-3.9-0.7c-1.2-0.4-2.2-1.1-3.1-1.9c-0.9-0.8-1.6-1.8-2-2.9
		c-0.4-1.1-0.7-2.4-0.7-3.8c0-1.3,0.3-2.6,0.7-3.8s1.1-2.1,1.9-3s1.8-1.5,3-1.9c1.1-0.4,2.5-0.7,3.8-0.7c1.4,0,2.7,0.3,4,0.7
		c1.1,0.5,2.2,1.2,3,2.1c0.9,1,1.5,2.1,1.9,3.4c0.4,1.3,0.7,2.9,0.7,4.6L283.4,293.4L283.4,293.4z M293.9,289.9
		c-0.2-1.1-0.8-2.1-1.8-2.8c-1-0.7-2.1-1.1-3.3-1.1c-1.2,0-2.4,0.4-3.3,1.1c-1,0.7-1.6,1.6-1.8,2.8H293.9z"/>
	<path class="st2" d="M318.7,287.1c-0.4-0.3-1-0.4-1.4-0.5c-0.5-0.1-1.1-0.2-1.7-0.2c-0.9,0-1.7,0.1-2.5,0.4c-0.8,0.3-1.4,0.6-2,1.1
		c-0.5,0.5-1,1.1-1.3,1.9c-0.4,0.8-0.4,1.8-0.4,2.8v4.5h4v3.6h-12.2v-3.6h4v-10.7h-4v-3.6h8v4.5c0.6-1.8,1.6-3.1,2.9-3.8
		c1.2-0.7,2.8-1.1,4.6-1.1c0.5,0,1.1,0.1,1.8,0.2c0.6,0.1,1.2,0.4,1.8,0.6L318.7,287.1z"/>
	<path class="st2" d="M340.6,282.9l-6.6,17.9h-4.7l-6.6-17.9h4.2l4.7,13.5l4.7-13.5H340.6z"/>
	<path class="st2" d="M347.8,293.4c0.2,1.2,0.8,2.3,1.8,3.1c1,0.8,2.3,1.2,4,1.2c1.3,0,2.4-0.2,3.3-0.6c1-0.4,1.8-1,2.5-1.6l2,2.8
		c-1.1,1.1-2.4,1.9-3.7,2.4s-2.7,0.6-4.2,0.6c-1.4,0-2.6-0.3-3.9-0.7c-1.2-0.4-2.2-1.1-3.1-1.9c-0.9-0.8-1.6-1.8-2-2.9
		c-0.5-1.1-0.7-2.4-0.7-3.8c0-1.3,0.3-2.6,0.7-3.8s1.1-2.1,1.9-3s1.8-1.5,3-1.9s2.5-0.7,3.8-0.7c1.4,0,2.7,0.3,4,0.7
		c1.1,0.5,2.2,1.2,3,2.1c0.9,1,1.5,2.1,1.9,3.4c0.4,1.3,0.7,2.9,0.7,4.6L347.8,293.4L347.8,293.4z M358.3,289.9
		c-0.2-1.1-0.8-2.1-1.8-2.8c-1-0.7-2.1-1.1-3.3-1.1c-1.2,0-2.4,0.4-3.3,1.1c-1,0.7-1.6,1.6-1.8,2.8H358.3z"/>
</g>
</svg>
