<?xml version="1.0" encoding="utf-8"?>
<!-- Generator: Adobe Illustrator 24.0.1, SVG Export Plug-In . SVG Version: 6.00 Build 0)  -->
<svg version="1.1" id="Layer_1" xmlns="http://www.w3.org/2000/svg" xmlns:xlink="http://www.w3.org/1999/xlink" x="0px" y="0px"
	 viewBox="0 0 483.1 463.6" style="enable-background:new 0 0 483.1 463.6;" xml:space="preserve">
<style type="text/css">
	.st0{fill:#F38B20;}
	.st1{fill:#FFFFFF;}
</style>
<title>ChangeThingsVideo_v2</title>
<path class="st0" d="M352.3,60.6L181.1,9.9c-31-9.2-64.9-17.8-92.9,2.9c-18.9,14-32,39.3-42.7,65.3C16.2,149.1,0.4,231,0,313.1
	c-0.1,19.8,1.1,41,9.8,56.5c7.5,13.4,19.3,20.2,30.6,26.1c128.9,66.5,269.5,71.7,406.8,66.2c7.2-0.3,14.8-0.8,20.8-6.2
	c9.1-8.1,12.1-24.6,13.5-39.6C492.6,297,449.2,171.3,375.6,110c-26.7-22.2-59.5-40.8-69.7-81.9"/>
<g>
	<path class="st1" d="M101.3,194.4c-0.4,1.6-1,3.1-1.6,4.4c-0.7,1.3-1.5,2.5-2.5,3.4c-1,0.9-2.1,1.6-3.4,2.2
		c-1.3,0.5-2.8,0.8-4.5,0.8c-2.3,0-4.3-0.5-5.9-1.4c-1.6-1-2.9-2.2-4-3.9c-1-1.6-1.8-3.4-2.2-5.5c-0.5-2.1-0.7-4.2-0.7-6.4
		c0-2.2,0.2-4.4,0.7-6.5c0.5-2.1,1.2-3.9,2.2-5.5c1-1.6,2.3-2.9,3.9-3.8c1.6-1,3.5-1.4,5.7-1.4c0.7,0,1.5,0.1,2.2,0.3
		c0.7,0.2,1.4,0.5,2.1,0.9s1.2,0.9,1.7,1.4c0.5,0.6,0.8,1.2,1,1.9v-3.9h4.7v12.6h-4.7c0-1-0.1-2.1-0.4-3.1c-0.3-1-0.7-1.9-1.2-2.7
		c-0.6-0.8-1.3-1.4-2.1-1.9c-0.9-0.5-1.9-0.7-3-0.7c-1.5,0-2.7,0.4-3.7,1.1c-1,0.7-1.7,1.7-2.3,2.9c-0.6,1.2-1,2.5-1.2,4
		s-0.3,3-0.3,4.5c0,1.5,0.1,3,0.3,4.5s0.6,2.8,1.2,4s1.3,2.1,2.3,2.9c1,0.7,2.2,1.1,3.7,1.1c2.2,0,3.8-0.7,5-2.1s2.1-3.2,2.8-5.6
		L101.3,194.4z"/>
	<path class="st1" d="M128.1,204.6h-5.3v-14.7c0-1.9-0.3-3.1-1-3.9c-0.7-0.7-1.7-1.1-3-1.1c-2,0-3.5,0.8-4.8,2.4
		c-1.2,1.6-1.8,3.8-1.8,6.6v10.7h-5.3v-33.3h5.3v15.5c0.5-2.1,1.5-3.7,2.9-4.8c1.4-1.1,3.2-1.7,5.3-1.7c2.4,0,4.3,0.8,5.7,2.4
		c1.4,1.6,2.1,4,2.1,7.3V204.6z"/>
	<path class="st1" d="M134,197.7c0-1.4,0.4-2.6,1.1-3.7s1.7-1.9,2.9-2.6c1.2-0.7,2.6-1.2,4.2-1.6c1.6-0.3,3.2-0.5,4.8-0.5
		c0.9,0,1.7,0,2.3,0.1s1.3,0.1,2,0.2v-0.9c0-1.2-0.5-2.2-1.4-2.8s-2.2-0.9-3.8-0.9c-1.4,0-2.9,0.2-4.4,0.6c-1.5,0.4-2.9,1-4.2,1.7
		l-2.1-4.1c1.6-0.9,3.2-1.6,5-2.1c1.8-0.5,3.7-0.8,5.7-0.8c1.3,0,2.6,0.1,3.8,0.4c1.2,0.3,2.4,0.8,3.4,1.4s1.8,1.5,2.4,2.6
		s0.9,2.4,0.9,3.9v15.9h-5.2v-3.5c-0.8,1.3-2.1,2.3-3.7,3s-3.4,1.1-5.2,1.1c-1.2,0-2.2-0.2-3.3-0.5c-1-0.3-1.9-0.8-2.7-1.4
		c-0.7-0.6-1.3-1.4-1.8-2.3C134.2,200,134,199,134,197.7z M143.7,200.4c1,0,2-0.1,2.9-0.4c0.9-0.3,1.7-0.6,2.4-1.1
		c0.7-0.5,1.2-1,1.6-1.7c0.4-0.7,0.6-1.4,0.6-2.2v-0.9c-0.8-0.1-1.6-0.2-2.3-0.2s-1.4,0-1.9,0c-2.6,0-4.5,0.3-5.9,1
		c-1.3,0.7-2,1.5-2,2.5C139.2,199.4,140.7,200.4,143.7,200.4z"/>
	<path class="st1" d="M185.7,197.5c0,1.5-0.3,2.8-1,3.8c-0.7,1-1.6,1.8-2.7,2.3c-1.1,0.6-2.3,1-3.7,1.2s-2.7,0.3-4,0.3
		c-2.2,0-4.3-0.3-6.5-0.9s-4-1.4-5.6-2.5l2.2-4.3c1.9,1.1,3.6,1.9,5.1,2.3c1.6,0.5,3.1,0.7,4.7,0.7c2.1,0,3.7-0.2,4.6-0.7
		c1-0.5,1.5-1.1,1.5-1.9c0-0.4-0.1-0.7-0.4-1c-0.3-0.3-0.7-0.5-1.4-0.7c-0.6-0.2-1.5-0.4-2.5-0.6c-1-0.2-2.3-0.4-3.8-0.7
		c-1.2-0.2-2.4-0.5-3.5-0.8c-1.1-0.3-2.1-0.7-2.9-1.3s-1.5-1.2-2-2.1s-0.8-1.9-0.8-3.1c0-1.3,0.3-2.4,1-3.3s1.5-1.7,2.6-2.3
		c1.1-0.6,2.3-1.1,3.6-1.3c1.3-0.3,2.7-0.4,4-0.4c1.9,0,3.7,0.2,5.4,0.7c1.8,0.5,3.3,1.2,4.6,2.1l-2.1,4.1c-1.3-0.8-2.6-1.4-3.9-1.7
		c-1.2-0.3-2.6-0.4-4.1-0.4c-0.6,0-1.3,0-2,0.1c-0.7,0.1-1.3,0.2-1.9,0.4s-1.1,0.5-1.4,0.8c-0.4,0.3-0.6,0.7-0.6,1.2
		c0,0.6,0.6,1.1,1.7,1.5c1.1,0.4,3,0.8,5.7,1.2c1.5,0.2,2.8,0.5,4,0.8c1.2,0.3,2.2,0.7,3.1,1.3c0.9,0.5,1.5,1.2,2,2.1
		C185.5,195.2,185.7,196.2,185.7,197.5z"/>
	<path class="st1" d="M195.9,194.7c0.3,1.6,1,3,2.3,4.1c1.3,1.1,3,1.6,5.2,1.6c1.7,0,3.2-0.3,4.5-0.8c1.3-0.5,2.4-1.2,3.3-2.1
		l2.7,3.7c-1.5,1.5-3.1,2.6-4.9,3.1c-1.7,0.6-3.6,0.8-5.6,0.8c-1.8,0-3.5-0.3-5.1-0.9s-2.9-1.5-4.1-2.6c-1.2-1.1-2.1-2.4-2.7-3.9
		s-1-3.2-1-5c0-1.8,0.3-3.5,0.9-5c0.6-1.5,1.5-2.8,2.5-4s2.4-2,3.9-2.6s3.2-0.9,5.1-0.9c1.9,0,3.7,0.3,5.2,1c1.6,0.7,2.9,1.6,4,2.8
		c1.1,1.2,2,2.8,2.6,4.6s0.9,3.8,0.9,6.1H195.9z M209.9,190.1c-0.3-1.5-1.1-2.8-2.4-3.7c-1.3-0.9-2.8-1.4-4.5-1.4
		c-1.7,0-3.2,0.5-4.5,1.4s-2.1,2.2-2.4,3.7H209.9z"/>
	<path class="st1" d="M100,258.1c0,1.5-0.3,2.9-0.8,4.1c-0.5,1.2-1.2,2.2-2.1,3s-2,1.5-3.2,1.9c-1.2,0.4-2.5,0.7-3.9,0.7
		c-1.6,0-3-0.3-4.2-0.8c-1.3-0.6-2.3-1.5-3.2-2.8v3.1h-4.7v-10.9h4.7c0,1.1,0.2,2,0.6,2.9c0.4,0.8,0.9,1.5,1.5,2.1
		c0.6,0.6,1.4,1,2.2,1.3c0.8,0.3,1.7,0.4,2.7,0.4c1.6,0,2.9-0.4,3.8-1.1c1-0.7,1.5-1.9,1.5-3.5c0-0.8-0.1-1.5-0.4-2.1
		c-0.3-0.6-0.7-1.1-1.3-1.6c-0.6-0.5-1.2-0.9-2-1.2c-0.8-0.3-1.7-0.7-2.7-1.1c-1.2-0.4-2.4-0.9-3.6-1.4c-1.2-0.5-2.3-1.1-3.2-1.9
		c-1-0.7-1.7-1.7-2.3-2.8c-0.6-1.1-0.9-2.5-0.9-4.1c0-1.5,0.3-2.7,0.8-3.8s1.2-2,2.1-2.8c0.9-0.7,1.9-1.3,3.1-1.7
		c1.2-0.4,2.4-0.6,3.8-0.6c1.5,0,2.8,0.3,3.9,1c1.1,0.6,1.9,1.5,2.5,2.6v-3h4.7v10.4h-4.7c0-2-0.5-3.5-1.5-4.6
		c-1-1.1-2.4-1.6-4.1-1.6c-1.5,0-2.8,0.4-3.8,1.1c-1,0.7-1.5,1.7-1.5,3c0,0.7,0.1,1.2,0.4,1.7c0.3,0.5,0.6,0.9,1.1,1.3
		s1.1,0.7,1.9,1.1c0.8,0.3,1.6,0.7,2.7,1.1c1.3,0.4,2.5,0.9,3.7,1.5c1.2,0.6,2.4,1.2,3.3,2.1c1,0.8,1.8,1.8,2.4,3
		C99.7,255,100,256.4,100,258.1z"/>
	<path class="st1" d="M105.5,260.4c0-1.4,0.4-2.6,1.1-3.7c0.7-1,1.7-1.9,2.9-2.6c1.2-0.7,2.6-1.2,4.2-1.6c1.6-0.3,3.2-0.5,4.8-0.5
		c0.9,0,1.7,0,2.3,0.1s1.3,0.1,2,0.2v-0.9c0-1.2-0.5-2.2-1.4-2.8s-2.2-0.9-3.8-0.9c-1.4,0-2.9,0.2-4.4,0.6s-2.9,1-4.2,1.7l-2.1-4.1
		c1.6-0.9,3.2-1.6,5-2.1c1.8-0.5,3.7-0.8,5.7-0.8c1.3,0,2.6,0.1,3.8,0.4s2.4,0.8,3.4,1.4s1.8,1.5,2.4,2.6s0.9,2.4,0.9,3.9v15.9h-5.2
		v-3.5c-0.8,1.3-2.1,2.3-3.7,3s-3.4,1.1-5.2,1.1c-1.2,0-2.2-0.2-3.3-0.5c-1-0.3-1.9-0.8-2.7-1.4s-1.3-1.4-1.8-2.3
		C105.7,262.7,105.5,261.6,105.5,260.4z M115.2,263.1c1,0,2-0.1,2.9-0.4c0.9-0.3,1.7-0.6,2.4-1.1c0.7-0.5,1.2-1,1.6-1.7
		c0.4-0.7,0.6-1.4,0.6-2.2v-0.9c-0.8-0.1-1.6-0.2-2.3-0.2s-1.4,0-1.9,0c-2.6,0-4.5,0.3-5.9,1c-1.3,0.7-2,1.5-2,2.5
		C110.7,262.1,112.2,263.1,115.2,263.1z"/>
	<path class="st1" d="M135.3,243.5h5.3v2.1c1-0.9,2-1.6,3-2c1-0.5,2.2-0.7,3.5-0.7c1.5,0,2.9,0.3,4.3,0.9c1.3,0.6,2.4,1.5,3.4,2.6
		c0.9,1.1,1.7,2.4,2.2,4c0.5,1.5,0.8,3.2,0.8,5c0,1.8-0.3,3.5-0.8,5c-0.5,1.5-1.3,2.8-2.2,3.9c-0.9,1.1-2.1,2-3.4,2.6
		c-1.3,0.6-2.7,0.9-4.3,0.9c-1.3,0-2.5-0.2-3.5-0.7c-1-0.5-2-1.2-3-2.1v11.7h-5.3V243.5z M140.6,260.9c0.6,0.7,1.4,1.2,2.4,1.6
		c1,0.4,1.9,0.6,2.8,0.6c2,0,3.6-0.7,4.9-2.1c1.2-1.4,1.9-3.3,1.9-5.6c0-2.3-0.6-4.2-1.9-5.6c-1.2-1.4-2.9-2.1-4.9-2.1
		c-0.9,0-1.8,0.2-2.8,0.5s-1.8,0.9-2.4,1.6V260.9z"/>
	<path class="st1" d="M163.8,243.5h5.3v2.1c1-0.9,2-1.6,3-2c1-0.5,2.2-0.7,3.5-0.7c1.5,0,2.9,0.3,4.3,0.9c1.3,0.6,2.4,1.5,3.4,2.6
		c0.9,1.1,1.7,2.4,2.2,4c0.5,1.5,0.8,3.2,0.8,5c0,1.8-0.3,3.5-0.8,5c-0.5,1.5-1.3,2.8-2.2,3.9c-0.9,1.1-2.1,2-3.4,2.6
		c-1.3,0.6-2.7,0.9-4.3,0.9c-1.3,0-2.5-0.2-3.5-0.7c-1-0.5-2-1.2-3-2.1v11.7h-5.3V243.5z M169.1,260.9c0.6,0.7,1.4,1.2,2.4,1.6
		c1,0.4,1.9,0.6,2.8,0.6c2,0,3.6-0.7,4.9-2.1c1.2-1.4,1.9-3.3,1.9-5.6c0-2.3-0.6-4.2-1.9-5.6c-1.2-1.4-2.9-2.1-4.9-2.1
		c-0.9,0-1.8,0.2-2.8,0.5s-1.8,0.9-2.4,1.6V260.9z"/>
	<path class="st1" d="M213.6,267.3h-5.3v-14.7c0-1.9-0.3-3.1-1-3.9c-0.7-0.7-1.7-1.1-3-1.1c-2,0-3.5,0.8-4.8,2.4
		c-1.2,1.6-1.8,3.8-1.8,6.6v10.7h-5.3V234h5.3v15.5c0.5-2.1,1.5-3.7,2.9-4.8s3.2-1.7,5.3-1.7c2.4,0,4.3,0.8,5.7,2.4
		c1.4,1.6,2.1,4,2.1,7.3V267.3z"/>
	<path class="st1" d="M239.5,267.3h-16v-4.7h5.3v-14.3h-5.3v-4.7h10.5v19h5.4V267.3z M234.7,240.4h-6.4V234h6.4V240.4z"/>
	<path class="st1" d="M271.3,249.1c-0.6-0.3-1.3-0.5-1.9-0.7c-0.7-0.2-1.4-0.2-2.3-0.2c-1.2,0-2.3,0.2-3.3,0.5
		c-1,0.3-1.9,0.9-2.7,1.6s-1.3,1.6-1.7,2.6c-0.4,1-0.6,2.3-0.6,3.7v5.9h5.3v4.7h-16v-4.7h5.4v-14.3h-5.4v-4.8h10.7v6
		c0.9-2.4,2.1-4.1,3.8-5s3.7-1.5,6-1.5c0.7,0,1.5,0.1,2.3,0.2s1.6,0.4,2.3,0.8L271.3,249.1z"/>
	<path class="st1" d="M281.5,257.4c0.3,1.6,1,3,2.3,4.1c1.3,1.1,3,1.6,5.2,1.6c1.7,0,3.2-0.3,4.5-0.8s2.4-1.2,3.3-2.1l2.7,3.7
		c-1.5,1.5-3.1,2.6-4.9,3.1c-1.7,0.6-3.6,0.8-5.6,0.8c-1.8,0-3.5-0.3-5.1-0.9c-1.6-0.6-2.9-1.5-4.1-2.6s-2.1-2.4-2.7-3.9s-1-3.2-1-5
		c0-1.8,0.3-3.5,0.9-5c0.6-1.5,1.5-2.8,2.5-4s2.4-2,3.9-2.6c1.5-0.6,3.2-0.9,5.1-0.9c1.9,0,3.7,0.3,5.2,1c1.6,0.7,2.9,1.6,4,2.8
		c1.1,1.2,2,2.8,2.6,4.6c0.6,1.8,0.9,3.8,0.9,6.1H281.5z M295.4,252.7c-0.3-1.5-1.1-2.8-2.4-3.7c-1.3-0.9-2.8-1.4-4.5-1.4
		s-3.2,0.5-4.5,1.4c-1.3,0.9-2.1,2.2-2.4,3.7H295.4z"/>
	<path class="st1" d="M101.3,329.9h-6.7L86,316.5h-2.4v13.5h-5.3v-33.3h11c3.7,0,6.5,0.8,8.5,2.5c2,1.7,3,4.2,3,7.4
		c0,1.5-0.2,2.8-0.7,3.9c-0.5,1.1-1.1,2.1-1.9,2.9c-0.8,0.8-1.8,1.4-2.9,1.9c-1.1,0.5-2.3,0.8-3.6,1L101.3,329.9z M95.5,306.5
		c0-1.7-0.6-3-1.7-3.8c-1.1-0.8-2.6-1.3-4.6-1.3h-5.7v10.3h5.7c2,0,3.5-0.4,4.6-1.3C95,309.5,95.5,308.2,95.5,306.5z"/>
	<path class="st1" d="M110.4,320.1c0.3,1.6,1,3,2.3,4.1c1.3,1.1,3,1.6,5.2,1.6c1.7,0,3.2-0.3,4.5-0.8c1.3-0.5,2.4-1.2,3.3-2.1
		l2.7,3.7c-1.5,1.5-3.1,2.6-4.9,3.1s-3.6,0.8-5.6,0.8c-1.8,0-3.5-0.3-5.1-0.9c-1.6-0.6-2.9-1.5-4.1-2.6s-2.1-2.4-2.7-3.9s-1-3.2-1-5
		c0-1.8,0.3-3.5,0.9-5c0.6-1.5,1.5-2.8,2.5-4s2.4-2,3.9-2.6c1.5-0.6,3.2-0.9,5.1-0.9c1.9,0,3.7,0.3,5.2,1c1.6,0.7,2.9,1.6,4,2.8
		c1.1,1.2,2,2.8,2.6,4.6c0.6,1.8,0.9,3.8,0.9,6.1H110.4z M124.4,315.4c-0.3-1.5-1.1-2.8-2.4-3.7c-1.3-0.9-2.8-1.4-4.5-1.4
		c-1.7,0-3.2,0.5-4.5,1.4c-1.3,0.9-2.1,2.2-2.4,3.7H124.4z"/>
	<path class="st1" d="M157.2,322.8c0,1.5-0.3,2.8-1,3.8c-0.7,1-1.6,1.8-2.7,2.3c-1.1,0.6-2.3,1-3.7,1.2s-2.7,0.3-4,0.3
		c-2.2,0-4.3-0.3-6.5-0.9c-2.1-0.6-4-1.4-5.6-2.5l2.2-4.3c1.9,1.1,3.6,1.9,5.1,2.3s3.1,0.7,4.7,0.7c2.1,0,3.7-0.2,4.6-0.7
		c1-0.5,1.5-1.1,1.5-1.9c0-0.4-0.1-0.7-0.4-1c-0.3-0.3-0.7-0.5-1.4-0.7c-0.6-0.2-1.5-0.4-2.5-0.6c-1-0.2-2.3-0.4-3.8-0.7
		c-1.2-0.2-2.4-0.5-3.5-0.8c-1.1-0.3-2.1-0.7-2.9-1.3c-0.8-0.5-1.5-1.2-2-2.1c-0.5-0.8-0.8-1.9-0.8-3.1c0-1.3,0.3-2.4,1-3.3
		c0.7-0.9,1.5-1.7,2.6-2.3c1.1-0.6,2.3-1.1,3.6-1.3c1.3-0.3,2.7-0.4,4-0.4c1.9,0,3.7,0.2,5.4,0.7c1.8,0.5,3.3,1.2,4.6,2.1l-2.1,4.1
		c-1.3-0.8-2.6-1.4-3.9-1.7c-1.2-0.3-2.6-0.4-4.1-0.4c-0.6,0-1.3,0-2,0.1c-0.7,0.1-1.3,0.2-1.9,0.4c-0.6,0.2-1.1,0.5-1.4,0.8
		c-0.4,0.3-0.6,0.7-0.6,1.2c0,0.6,0.6,1.1,1.7,1.5s3,0.8,5.7,1.2c1.5,0.2,2.8,0.5,4,0.8c1.2,0.3,2.2,0.7,3.1,1.3
		c0.9,0.5,1.5,1.2,2,2.1C157,320.5,157.2,321.6,157.2,322.8z"/>
	<path class="st1" d="M167.4,320.1c0.3,1.6,1,3,2.3,4.1c1.3,1.1,3,1.6,5.2,1.6c1.7,0,3.2-0.3,4.5-0.8c1.3-0.5,2.4-1.2,3.3-2.1
		l2.7,3.7c-1.5,1.5-3.1,2.6-4.9,3.1s-3.6,0.8-5.6,0.8c-1.8,0-3.5-0.3-5.1-0.9c-1.6-0.6-2.9-1.5-4.1-2.6s-2.1-2.4-2.7-3.9s-1-3.2-1-5
		c0-1.8,0.3-3.5,0.9-5c0.6-1.5,1.5-2.8,2.5-4s2.4-2,3.9-2.6c1.5-0.6,3.2-0.9,5.1-0.9c1.9,0,3.7,0.3,5.2,1c1.6,0.7,2.9,1.6,4,2.8
		c1.1,1.2,2,2.8,2.6,4.6c0.6,1.8,0.9,3.8,0.9,6.1H167.4z M181.4,315.4c-0.3-1.5-1.1-2.8-2.4-3.7c-1.3-0.9-2.8-1.4-4.5-1.4
		c-1.7,0-3.2,0.5-4.5,1.4c-1.3,0.9-2.1,2.2-2.4,3.7H181.4z"/>
	<path class="st1" d="M214.3,311.8c-0.6-0.3-1.3-0.5-1.9-0.7c-0.7-0.2-1.4-0.2-2.3-0.2c-1.2,0-2.3,0.2-3.3,0.5
		c-1,0.3-1.9,0.9-2.7,1.6c-0.7,0.7-1.3,1.6-1.7,2.6c-0.4,1-0.6,2.3-0.6,3.7v5.9h5.3v4.7h-16v-4.7h5.4v-14.3h-5.4v-4.8h10.7v6
		c0.9-2.4,2.1-4.1,3.8-5c1.7-1,3.7-1.5,6-1.5c0.7,0,1.5,0.1,2.3,0.2s1.6,0.4,2.3,0.8L214.3,311.8z"/>
	<path class="st1" d="M243.4,306.2l-8.8,23.8h-6.2l-8.8-23.8h5.6l6.3,18l6.2-18H243.4z"/>
	<path class="st1" d="M253,320.1c0.3,1.6,1,3,2.3,4.1c1.3,1.1,3,1.6,5.2,1.6c1.7,0,3.2-0.3,4.5-0.8s2.4-1.2,3.3-2.1l2.7,3.7
		c-1.5,1.5-3.1,2.6-4.9,3.1c-1.7,0.6-3.6,0.8-5.6,0.8c-1.8,0-3.5-0.3-5.1-0.9c-1.6-0.6-2.9-1.5-4.1-2.6s-2.1-2.4-2.7-3.9s-1-3.2-1-5
		c0-1.8,0.3-3.5,0.9-5c0.6-1.5,1.5-2.8,2.5-4s2.4-2,3.9-2.6c1.5-0.6,3.2-0.9,5.1-0.9c1.9,0,3.7,0.3,5.2,1c1.6,0.7,2.9,1.6,4,2.8
		c1.1,1.2,2,2.8,2.6,4.6c0.6,1.8,0.9,3.8,0.9,6.1H253z M266.9,315.4c-0.3-1.5-1.1-2.8-2.4-3.7c-1.3-0.9-2.8-1.4-4.5-1.4
		s-3.2,0.5-4.5,1.4c-1.3,0.9-2.1,2.2-2.4,3.7H266.9z"/>
</g>
</svg>
