<svg id="Layer_1" data-name="Layer 1" xmlns="http://www.w3.org/2000/svg" viewBox="0 0 570.73 290.22"><defs><style>.cls-1{fill:#bf271b;}.cls-2{fill:#fff;}</style></defs><path class="cls-1" d="M335.7,5.8A652.48,652.48,0,0,0,92.2,42C58.6,53.8,23.1,71.2,9,104,2.2,119.7,1.3,137.2.5,154.3c-2.1,43.2-.5,94.3,35.1,118.9,18.9,13.1,43,15.1,65.9,16.5,42.7,2.6,85.4,4.7,128.2,5.5,64.9,1.1,131.2-.9,192.5-22.2,37.2-13,71.7-32.6,105.9-52.1,12.6-7.2,25.7-14.8,34.3-26.5s11.7-28.9,3.2-40.7c-5.2-7.2-13.5-11.3-21.5-15.3C469.7,101.8,420.7,72.7,358.7,17.5A51.79,51.79,0,0,0,335.7,5.8Z" transform="translate(0.1 -5.22)"/><path class="cls-2" d="M73.08,131.74a12.64,12.64,0,0,1-7.85,8.56,17.43,17.43,0,0,1-6.16,1,16.72,16.72,0,0,1-8.48-2,13.7,13.7,0,0,1-5.51-5.86,22.47,22.47,0,0,1,0-18.22,13.67,13.67,0,0,1,5.51-5.85A16.53,16.53,0,0,1,59,107.31a19.2,19.2,0,0,1,6.16.93,12.08,12.08,0,0,1,4.68,2.83,11.38,11.38,0,0,1,2.82,4.8l-6.25,2.66a7.64,7.64,0,0,0-2.61-4.28,7.45,7.45,0,0,0-4.5-1.28,8.54,8.54,0,0,0-4.73,1.3,8.45,8.45,0,0,0-3.13,3.83,15.68,15.68,0,0,0-1.1,6.23,16.54,16.54,0,0,0,1,6.21,7.94,7.94,0,0,0,3,3.85,8.75,8.75,0,0,0,4.9,1.3A7.68,7.68,0,0,0,64,134.24a7.76,7.76,0,0,0,2.78-4.4Z" transform="translate(0.1 -5.22)"/><path class="cls-2" d="M78.29,140.85v-36h6.86v15.22a8.11,8.11,0,0,1,3.3-3.58,9.52,9.52,0,0,1,4.76-1.18,10.46,10.46,0,0,1,4.63,1,7.53,7.53,0,0,1,3.2,3,10,10,0,0,1,1.18,5.08v16.42H95.36V126.43c0-2.16-.42-3.66-1.25-4.48a4.42,4.42,0,0,0-3.21-1.22,6,6,0,0,0-2.77.67A5.07,5.07,0,0,0,86,123.61a8.46,8.46,0,0,0-.82,4v13.21Z" transform="translate(0.1 -5.22)"/><path class="cls-2" d="M123.54,124.88a4.47,4.47,0,0,0-1.23-3.35,4.42,4.42,0,0,0-3.23-1.2,5.67,5.67,0,0,0-3.25,1,5.45,5.45,0,0,0-2,3.15l-5.86-1.8a9.08,9.08,0,0,1,3.73-5.31,13.36,13.36,0,0,1,7.73-2,14.74,14.74,0,0,1,5.76,1,8.38,8.38,0,0,1,3.83,3.08,9,9,0,0,1,1.37,5.15v10.16c0,1.27.61,1.9,1.81,1.9a5,5,0,0,0,1.6-.25l-.4,4.26a7.31,7.31,0,0,1-3.26.65,7.93,7.93,0,0,1-3.15-.6,4.82,4.82,0,0,1-2.2-1.83,5.47,5.47,0,0,1-.8-3.08v-.2l1.2-.2a5.63,5.63,0,0,1-1.65,3.23,9,9,0,0,1-3.28,2,11.51,11.51,0,0,1-4,.7,11.27,11.27,0,0,1-4.4-.78A6.15,6.15,0,0,1,109,138.3a6.52,6.52,0,0,1-1-3.71,6.16,6.16,0,0,1,1.8-4.58,9.89,9.89,0,0,1,5.16-2.43l9.41-1.9,0,4.26-6,1.2a7.69,7.69,0,0,0-2.58.92,2.09,2.09,0,0,0-.87,1.88,2.18,2.18,0,0,0,.92,1.9,3.74,3.74,0,0,0,2.23.65,8.22,8.22,0,0,0,2-.25,5.38,5.38,0,0,0,1.81-.8,3.63,3.63,0,0,0,1.25-1.5,5.33,5.33,0,0,0,.45-2.3Z" transform="translate(0.1 -5.22)"/><path class="cls-2" d="M148,141.35a17.34,17.34,0,0,1-6.93-1.35,12.8,12.8,0,0,1-5.08-3.81l3.95-4a9.24,9.24,0,0,0,8,4.1,7.23,7.23,0,0,0,3.13-.57,1.92,1.92,0,0,0,1.18-1.83,1.94,1.94,0,0,0-.55-1.37,4.33,4.33,0,0,0-2.21-.93l-4.4-.9q-4.35-.9-6.18-2.73a6.39,6.39,0,0,1-1.83-4.73,6.69,6.69,0,0,1,1.23-3.85,8.62,8.62,0,0,1,3.68-2.93,14.6,14.6,0,0,1,6.1-1.13,16.52,16.52,0,0,1,6.53,1.18A9.75,9.75,0,0,1,159,120l-4.1,4A7.34,7.34,0,0,0,152,121.3a8,8,0,0,0-3.73-.92,8.45,8.45,0,0,0-2.4.3,3.33,3.33,0,0,0-1.5.82,1.83,1.83,0,0,0-.5,1.33,1.74,1.74,0,0,0,.7,1.38,6.35,6.35,0,0,0,2.55,1l5.11,1a9.54,9.54,0,0,1,5.3,2.53,6.17,6.17,0,0,1,1.6,4.28,7.44,7.44,0,0,1-1.27,4.28,8.39,8.39,0,0,1-3.76,3A15.17,15.17,0,0,1,148,141.35Z" transform="translate(0.1 -5.22)"/><path class="cls-2" d="M176.09,141.35a14.55,14.55,0,0,1-6.88-1.55,10.94,10.94,0,0,1-4.53-4.46,16.13,16.13,0,0,1,0-14,11,11,0,0,1,4.48-4.46,13.69,13.69,0,0,1,6.58-1.55,12.73,12.73,0,0,1,6.46,1.53,10.3,10.3,0,0,1,4.05,4.15,12.45,12.45,0,0,1,1.4,6c0,.67,0,1.31-.05,1.91s-.08,1.13-.15,1.6h-20v-4.76h17l-3.3,1.2a7.35,7.35,0,0,0-1.43-4.85,5,5,0,0,0-4-1.7,5.86,5.86,0,0,0-3.28.9,5.46,5.46,0,0,0-2.07,2.68,12.21,12.21,0,0,0-.7,4.48,10.71,10.71,0,0,0,.77,4.38,5.5,5.5,0,0,0,2.2,2.57,7.61,7.61,0,0,0,7,0,5.71,5.71,0,0,0,2.1-2.35l5.45,2.1a8.83,8.83,0,0,1-2.42,3.36,11.12,11.12,0,0,1-3.86,2.12A15.15,15.15,0,0,1,176.09,141.35Z" transform="translate(0.1 -5.22)"/><path class="cls-2" d="M221.54,107.31a18.83,18.83,0,0,1,7.91,1.56,15.45,15.45,0,0,1,5.8,4.6l-3.85,4.45a13.53,13.53,0,0,0-4.48-3.82,12.32,12.32,0,0,0-5.63-1.23,9.41,9.41,0,0,0-3.48.55,4.3,4.3,0,0,0-2,1.45,3.42,3.42,0,0,0-.63,2,2.93,2.93,0,0,0,1,2.28,8.54,8.54,0,0,0,3.61,1.53l6.15,1.4c3.27.73,5.62,1.83,7,3.28a7.75,7.75,0,0,1,2.12,5.63,9.15,9.15,0,0,1-1.7,5.58,10.56,10.56,0,0,1-4.75,3.55,18.66,18.66,0,0,1-7,1.23,22.93,22.93,0,0,1-6.33-.83,19.34,19.34,0,0,1-5.13-2.27,15.31,15.31,0,0,1-3.76-3.36l3.91-4.65a12.84,12.84,0,0,0,2.85,2.85,13.91,13.91,0,0,0,3.88,2,14.49,14.49,0,0,0,4.58.72,11,11,0,0,0,3.48-.47,4.63,4.63,0,0,0,2.15-1.35,3.28,3.28,0,0,0,.73-2.13,3.15,3.15,0,0,0-.88-2.23,6.29,6.29,0,0,0-3.23-1.42l-6.7-1.51a20.42,20.42,0,0,1-5-1.82A8.09,8.09,0,0,1,209.1,122a8,8,0,0,1-1.07-4.23,9.2,9.2,0,0,1,1.6-5.3,10.82,10.82,0,0,1,4.63-3.73A17.45,17.45,0,0,1,221.54,107.31Z" transform="translate(0.1 -5.22)"/><path class="cls-2" d="M255,124.88a4.19,4.19,0,0,0-4.46-4.55,5.67,5.67,0,0,0-3.25,1,5.5,5.5,0,0,0-2.06,3.15l-5.85-1.8a9.08,9.08,0,0,1,3.73-5.31,13.34,13.34,0,0,1,7.73-2,14.78,14.78,0,0,1,5.76,1,8.38,8.38,0,0,1,3.83,3.08,9.08,9.08,0,0,1,1.37,5.15v10.16c0,1.27.6,1.9,1.8,1.9a5,5,0,0,0,1.61-.25l-.4,4.26a7.34,7.34,0,0,1-3.26.65,7.9,7.9,0,0,1-3.15-.6,4.77,4.77,0,0,1-2.2-1.83,5.47,5.47,0,0,1-.8-3.08v-.2l1.2-.2a5.63,5.63,0,0,1-1.65,3.23,9.09,9.09,0,0,1-3.28,2,11.51,11.51,0,0,1-4,.7,11.36,11.36,0,0,1-4.41-.78,6.18,6.18,0,0,1-2.85-2.27,6.52,6.52,0,0,1-1-3.71,6.16,6.16,0,0,1,1.8-4.58,9.89,9.89,0,0,1,5.16-2.43l9.41-1.9-.05,4.26-6,1.2a7.61,7.61,0,0,0-2.58.92,2.09,2.09,0,0,0-.87,1.88,2.15,2.15,0,0,0,.92,1.9,3.74,3.74,0,0,0,2.23.65,8.28,8.28,0,0,0,2.05-.25,5.24,5.24,0,0,0,1.8-.8,3.56,3.56,0,0,0,1.25-1.5,5.18,5.18,0,0,0,.46-2.3Z" transform="translate(0.1 -5.22)"/><path class="cls-2" d="M269.44,151.36V115.82h6.16l.45,8-.85-.9a9.92,9.92,0,0,1,1.67-3.9A8.64,8.64,0,0,1,280,116.3a9.22,9.22,0,0,1,4.26-1,9.86,9.86,0,0,1,5.45,1.55,10.64,10.64,0,0,1,3.78,4.43,18.31,18.31,0,0,1,0,14,10.63,10.63,0,0,1-3.82,4.48,10.1,10.1,0,0,1-5.53,1.55,8.21,8.21,0,0,1-5.49-1.85,9.34,9.34,0,0,1-3-4.66l.65-1.05v17.57Zm12.66-15.27a5.22,5.22,0,0,0,4.33-2,9.13,9.13,0,0,0,1.58-5.78,9.34,9.34,0,0,0-1.53-5.79,5.11,5.11,0,0,0-4.28-2,5.33,5.33,0,0,0-3.08.92,6.16,6.16,0,0,0-2.07,2.66,10.45,10.45,0,0,0-.75,4.18,11.1,11.1,0,0,0,.7,4.15,5.7,5.7,0,0,0,2,2.68A5.2,5.2,0,0,0,282.1,136.09Z" transform="translate(0.1 -5.22)"/><path class="cls-2" d="M300.82,151.36V115.82H307l.45,8-.85-.9a9.93,9.93,0,0,1,1.68-3.9,8.61,8.61,0,0,1,3.12-2.68,9.22,9.22,0,0,1,4.26-1,9.86,9.86,0,0,1,5.45,1.55,10.5,10.5,0,0,1,3.78,4.43,18.37,18.37,0,0,1,0,14A10.65,10.65,0,0,1,321,139.8a10.08,10.08,0,0,1-5.53,1.55A8.19,8.19,0,0,1,310,139.5a9.36,9.36,0,0,1-3-4.66l.65-1.05v17.57Zm12.67-15.27a5.23,5.23,0,0,0,4.33-2,9.13,9.13,0,0,0,1.57-5.78,9.41,9.41,0,0,0-1.52-5.79,5.12,5.12,0,0,0-4.28-2,5.28,5.28,0,0,0-3.08.92,6.11,6.11,0,0,0-2.08,2.66,10.45,10.45,0,0,0-.75,4.18,11.1,11.1,0,0,0,.7,4.15,5.77,5.77,0,0,0,2,2.68A5.21,5.21,0,0,0,313.49,136.09Z" transform="translate(0.1 -5.22)"/><path class="cls-2" d="M332.21,140.85v-36h6.85v15.22a8.13,8.13,0,0,1,3.31-3.58,9.48,9.48,0,0,1,4.75-1.18,10.4,10.4,0,0,1,4.63,1,7.55,7.55,0,0,1,3.21,3,10,10,0,0,1,1.17,5.08v16.42h-6.86V126.43c0-2.16-.41-3.66-1.25-4.48a4.4,4.4,0,0,0-3.2-1.22,6.06,6.06,0,0,0-2.78.67,5.11,5.11,0,0,0-2.15,2.21,8.45,8.45,0,0,0-.83,4v13.21Z" transform="translate(0.1 -5.22)"/><path class="cls-2" d="M366.64,112.22a4.72,4.72,0,0,1-3.2-.93,3.43,3.43,0,0,1-1.05-2.73,3.49,3.49,0,0,1,1.05-2.77,6,6,0,0,1,6.41,0,3.49,3.49,0,0,1,1,2.77,3.43,3.43,0,0,1-1,2.73A4.73,4.73,0,0,1,366.64,112.22Zm3.41,3.6v25h-6.86v-25Z" transform="translate(0.1 -5.22)"/><path class="cls-2" d="M377.3,140.85v-25h6l.45,4.91a8.62,8.62,0,0,1,2.93-4,8,8,0,0,1,4.83-1.4,7.41,7.41,0,0,1,1.55.15,4.38,4.38,0,0,1,1.15.4l-.8,5.76a5.53,5.53,0,0,0-1.23-.3,13.62,13.62,0,0,0-1.87-.1,6.32,6.32,0,0,0-2.91.72,5.86,5.86,0,0,0-2.3,2.21,7,7,0,0,0-.9,3.73v13Z" transform="translate(0.1 -5.22)"/><path class="cls-2" d="M409.54,141.35a14.52,14.52,0,0,1-6.88-1.55,10.9,10.9,0,0,1-4.54-4.46,16.13,16.13,0,0,1,0-14,11,11,0,0,1,4.49-4.46,13.67,13.67,0,0,1,6.58-1.55,12.7,12.7,0,0,1,6.45,1.53A10.39,10.39,0,0,1,419.7,121a12.57,12.57,0,0,1,1.4,6c0,.67,0,1.31-.05,1.91s-.08,1.13-.15,1.6h-20v-4.76h17l-3.31,1.2a7.34,7.34,0,0,0-1.42-4.85,5,5,0,0,0-4-1.7,5.86,5.86,0,0,0-3.28.9,5.47,5.47,0,0,0-2.08,2.68,12.21,12.21,0,0,0-.7,4.48,10.7,10.7,0,0,0,.78,4.38,5.44,5.44,0,0,0,2.2,2.57,7.59,7.59,0,0,0,7,0,5.71,5.71,0,0,0,2.1-2.35l5.46,2.1a8.85,8.85,0,0,1-2.43,3.36,11.07,11.07,0,0,1-3.85,2.12A15.19,15.19,0,0,1,409.54,141.35Z" transform="translate(0.1 -5.22)"/><path class="cls-2" d="M59.37,167.88c3.74,0,6.67.9,8.81,2.7a10,10,0,0,1,0,14.69q-3.21,2.58-8.76,2.58l-.7.4H51.61v12.66h-6.8v-33ZM58.57,183a6.74,6.74,0,0,0,4.33-1.17,5.32,5.32,0,0,0,0-7.26,6.74,6.74,0,0,0-4.33-1.18h-7V183Zm4,1.45,10.71,16.47H65.58l-8.86-14.46Z" transform="translate(0.1 -5.22)"/><path class="cls-2" d="M89.2,201.41a14.43,14.43,0,0,1-6.88-1.55,10.91,10.91,0,0,1-4.53-4.45,16.16,16.16,0,0,1,0-14,11,11,0,0,1,4.48-4.45,13.58,13.58,0,0,1,6.58-1.56,12.73,12.73,0,0,1,6.46,1.53,10.26,10.26,0,0,1,4,4.16,12.42,12.42,0,0,1,1.4,6c0,.67,0,1.3-.05,1.9s-.08,1.13-.15,1.6h-20V185.8h17l-3.3,1.2a7.39,7.39,0,0,0-1.43-4.86,5,5,0,0,0-4-1.7,5.86,5.86,0,0,0-3.28.9A5.46,5.46,0,0,0,83.45,184a12.25,12.25,0,0,0-.7,4.48,10.68,10.68,0,0,0,.77,4.38,5.57,5.57,0,0,0,2.2,2.58,7.61,7.61,0,0,0,7,0,5.8,5.8,0,0,0,2.1-2.36l5.45,2.11a8.72,8.72,0,0,1-2.42,3.35A11.3,11.3,0,0,1,94,200.69,15.44,15.44,0,0,1,89.2,201.41Z" transform="translate(0.1 -5.22)"/><path class="cls-2" d="M116.58,201.41a17.27,17.27,0,0,1-6.93-1.35,12.87,12.87,0,0,1-5.08-3.8l4-4a9.22,9.22,0,0,0,8,4.11,7.11,7.11,0,0,0,3.13-.58,2,2,0,0,0,.62-3.2,4.47,4.47,0,0,0-2.2-.93l-4.4-.9q-4.36-.9-6.18-2.73a6.37,6.37,0,0,1-1.83-4.73,6.72,6.72,0,0,1,1.23-3.85,8.65,8.65,0,0,1,3.67-2.93,14.65,14.65,0,0,1,6.11-1.13,16.73,16.73,0,0,1,6.53,1.18,10,10,0,0,1,4.38,3.48l-4.1,4a7.45,7.45,0,0,0-2.88-2.67,7.93,7.93,0,0,0-3.73-.93,8.45,8.45,0,0,0-2.4.3,3.34,3.34,0,0,0-1.5.83,1.81,1.81,0,0,0-.5,1.32,1.71,1.71,0,0,0,.7,1.38,6.35,6.35,0,0,0,2.55,1l5.11,1.05a9.57,9.57,0,0,1,5.3,2.52,6.18,6.18,0,0,1,1.6,4.28,7.41,7.41,0,0,1-1.27,4.28,8.53,8.53,0,0,1-3.76,3A15.39,15.39,0,0,1,116.58,201.41Z" transform="translate(0.1 -5.22)"/><path class="cls-2" d="M144.66,201.41a14.4,14.4,0,0,1-6.88-1.55,10.91,10.91,0,0,1-4.53-4.45,16.16,16.16,0,0,1,0-14,11,11,0,0,1,4.48-4.45,13.58,13.58,0,0,1,6.58-1.56,12.73,12.73,0,0,1,6.46,1.53,10.26,10.26,0,0,1,4,4.16,12.54,12.54,0,0,1,1.4,6c0,.67,0,1.3-.05,1.9s-.08,1.13-.15,1.6h-20V185.8h17l-3.3,1.2a7.39,7.39,0,0,0-1.43-4.86,5,5,0,0,0-4-1.7,5.86,5.86,0,0,0-3.28.9A5.47,5.47,0,0,0,138.9,184a12.46,12.46,0,0,0-.7,4.48,10.67,10.67,0,0,0,.78,4.38,5.57,5.57,0,0,0,2.2,2.58,7.59,7.59,0,0,0,7,0,5.82,5.82,0,0,0,2.11-2.36l5.45,2.11a8.64,8.64,0,0,1-2.43,3.35,11.25,11.25,0,0,1-3.85,2.13A15.44,15.44,0,0,1,144.66,201.41Z" transform="translate(0.1 -5.22)"/><path class="cls-2" d="M162,200.91v-25H168l.46,4.9a8.57,8.57,0,0,1,2.92-4,8,8,0,0,1,4.83-1.41,7.31,7.31,0,0,1,1.55.16,4.12,4.12,0,0,1,1.16.4l-.8,5.75a5.83,5.83,0,0,0-1.23-.3,15.62,15.62,0,0,0-1.88-.1,6.15,6.15,0,0,0-2.9.73,5.77,5.77,0,0,0-2.3,2.2,7.06,7.06,0,0,0-.9,3.73v13Z" transform="translate(0.1 -5.22)"/><path class="cls-2" d="M199.57,175.89h7.11l-9.51,25h-7.91l-9.51-25h7.3l6.21,19.77Z" transform="translate(0.1 -5.22)"/><path class="cls-2" d="M221.79,201.41a14.4,14.4,0,0,1-6.88-1.55,10.91,10.91,0,0,1-4.53-4.45,16.16,16.16,0,0,1,0-14,11,11,0,0,1,4.48-4.45,13.58,13.58,0,0,1,6.58-1.56,12.73,12.73,0,0,1,6.46,1.53,10.26,10.26,0,0,1,4,4.16,12.42,12.42,0,0,1,1.4,6c0,.67,0,1.3,0,1.9s-.08,1.13-.15,1.6h-20V185.8h17l-3.3,1.2a7.39,7.39,0,0,0-1.43-4.86,5,5,0,0,0-4-1.7,5.86,5.86,0,0,0-3.28.9A5.47,5.47,0,0,0,216,184a12.46,12.46,0,0,0-.7,4.48,10.67,10.67,0,0,0,.78,4.38,5.57,5.57,0,0,0,2.2,2.58,7.59,7.59,0,0,0,7,0,5.75,5.75,0,0,0,2.11-2.36l5.45,2.11a8.64,8.64,0,0,1-2.43,3.35,11.16,11.16,0,0,1-3.85,2.13A15.44,15.44,0,0,1,221.79,201.41Z" transform="translate(0.1 -5.22)"/></svg>