<?xml version="1.0" encoding="utf-8"?>
<!-- Generator: Adobe Illustrator 24.1.2, SVG Export Plug-In . SVG Version: 6.00 Build 0)  -->
<svg version="1.1" id="Layer_1" xmlns="http://www.w3.org/2000/svg" xmlns:xlink="http://www.w3.org/1999/xlink" x="0px" y="0px"
	 viewBox="0 0 903.8 536.9" style="enable-background:new 0 0 903.8 536.9;" xml:space="preserve">
<style type="text/css">
	.st0{fill:#346C63;}
	.st1{fill:#FFFFFF;}
</style>
<path class="st0" d="M322.9,242.8C370,194.4,414,142.7,465.1,98.5s110.6-81.3,177-94s140.3,1.8,188.7,49
	c38.5,37.5,57.3,90.9,66.8,143.8c7,38.9,9.7,79.5-0.5,117.7C874.3,400.1,790.9,457.8,705,477.8s-175.5,9.7-263.5,3
	s-179.5-9.3-260.9,24.5c-37,15.4-75.1,38.6-114.3,29.7C22,525-4.1,474.2,0.5,428.9s32.6-84.8,64.2-117.7
	C128,245.4,214.6,195.9,306,198.6c26.2,0.8,59.4,14,57.6,40.2"/>
<g>
	<path class="st1" d="M389.9,297.2c-0.6,2-1.5,3.6-2.8,5c-1.3,1.3-2.8,2.3-4.5,3c-1.7,0.7-3.6,1-5.7,1c-3,0-5.7-0.6-7.9-1.9
		s-3.9-3.1-5.1-5.4c-1.2-2.4-1.8-5.2-1.8-8.5s0.6-6.1,1.8-8.5c1.2-2.4,2.9-4.2,5.1-5.4s4.8-1.9,7.8-1.9c2.1,0,4,0.3,5.7,0.9
		c1.7,0.6,3.2,1.4,4.3,2.6c1.2,1.2,2.1,2.7,2.6,4.5l-5.8,2.5c-0.5-1.9-1.3-3.2-2.4-4c-1.1-0.8-2.5-1.2-4.2-1.2
		c-1.7,0-3.1,0.4-4.4,1.2c-1.3,0.8-2.2,2-2.9,3.6c-0.7,1.6-1,3.5-1,5.8c0,2.3,0.3,4.2,1,5.8c0.6,1.6,1.6,2.8,2.8,3.6
		c1.2,0.8,2.8,1.2,4.6,1.2c1.7,0,3.1-0.4,4.3-1.3c1.2-0.9,2.1-2.3,2.6-4.1L389.9,297.2z"/>
	<path class="st1" d="M394.7,305.6v-33.4h6.4v14.1c0.7-1.5,1.8-2.6,3.1-3.3c1.3-0.7,2.8-1.1,4.4-1.1c1.6,0,3,0.3,4.3,0.9
		c1.3,0.6,2.2,1.6,3,2.8s1.1,2.8,1.1,4.7v15.3h-6.4v-13.4c0-2-0.4-3.4-1.2-4.2c-0.8-0.8-1.8-1.1-3-1.1c-0.9,0-1.8,0.2-2.6,0.6
		c-0.8,0.4-1.5,1.1-2,2s-0.8,2.2-0.8,3.7v12.3H394.7z"/>
	<path class="st1" d="M436.7,290.8c0-1.3-0.4-2.4-1.1-3.1s-1.8-1.1-3-1.1c-1.1,0-2.2,0.3-3,0.9c-0.9,0.6-1.5,1.6-1.9,2.9l-5.4-1.7
		c0.5-2,1.7-3.7,3.5-4.9c1.8-1.2,4.2-1.9,7.2-1.9c2,0,3.8,0.3,5.3,1c1.5,0.6,2.7,1.6,3.6,2.9c0.9,1.3,1.3,2.9,1.3,4.8v9.4
		c0,1.2,0.6,1.8,1.7,1.8c0.5,0,1-0.1,1.5-0.2l-0.4,4c-0.8,0.4-1.8,0.6-3,0.6c-1.1,0-2.1-0.2-2.9-0.6c-0.9-0.4-1.6-0.9-2-1.7
		c-0.5-0.8-0.7-1.7-0.7-2.9v-0.2l1.1-0.2c-0.2,1.2-0.7,2.2-1.5,3s-1.9,1.5-3,1.9s-2.4,0.7-3.7,0.7c-1.6,0-2.9-0.2-4.1-0.7
		c-1.1-0.5-2-1.2-2.7-2.1c-0.6-0.9-0.9-2.1-0.9-3.4c0-1.7,0.6-3.2,1.7-4.3c1.1-1.1,2.7-1.9,4.8-2.3l8.7-1.8l0,4l-5.6,1.1
		c-1.1,0.2-1.9,0.5-2.4,0.9c-0.5,0.4-0.8,0.9-0.8,1.7c0,0.8,0.3,1.4,0.9,1.8c0.6,0.4,1.3,0.6,2.1,0.6c0.7,0,1.3-0.1,1.9-0.2
		c0.6-0.2,1.2-0.4,1.7-0.7c0.5-0.3,0.9-0.8,1.2-1.4c0.3-0.6,0.4-1.3,0.4-2.1V290.8z"/>
	<path class="st1" d="M459.5,306.1c-2.4,0-4.5-0.4-6.4-1.3c-1.9-0.8-3.5-2-4.7-3.5l3.7-3.7c0.7,1.1,1.7,2,3,2.7s2.7,1.1,4.4,1.1
		c1.2,0,2.2-0.2,2.9-0.5s1.1-0.9,1.1-1.7c0-0.5-0.2-0.9-0.5-1.3c-0.3-0.4-1-0.6-2-0.9l-4.1-0.8c-2.7-0.6-4.6-1.4-5.7-2.5
		c-1.1-1.1-1.7-2.6-1.7-4.4c0-1.3,0.4-2.5,1.1-3.6c0.8-1.1,1.9-2,3.4-2.7c1.5-0.7,3.4-1,5.7-1c2.3,0,4.3,0.4,6.1,1.1
		s3.1,1.8,4.1,3.2l-3.8,3.7c-0.7-1.1-1.6-1.9-2.7-2.5c-1.1-0.6-2.3-0.9-3.5-0.9c-0.9,0-1.6,0.1-2.2,0.3c-0.6,0.2-1.1,0.4-1.4,0.8
		c-0.3,0.3-0.5,0.7-0.5,1.2c0,0.5,0.2,0.9,0.7,1.3c0.4,0.4,1.2,0.7,2.4,0.9l4.7,1c2.3,0.5,3.9,1.2,4.9,2.3c1,1.1,1.5,2.4,1.5,4
		c0,1.5-0.4,2.8-1.2,4s-2,2.1-3.5,2.7C463.6,305.8,461.7,306.1,459.5,306.1z"/>
	<path class="st1" d="M485.6,306.1c-2.4,0-4.6-0.5-6.4-1.4c-1.8-1-3.2-2.3-4.2-4.1c-1-1.8-1.5-4-1.5-6.5c0-2.5,0.5-4.7,1.5-6.5
		c1-1.8,2.4-3.2,4.2-4.1c1.8-1,3.8-1.4,6.1-1.4c2.4,0,4.4,0.5,6,1.4c1.6,0.9,2.9,2.2,3.8,3.9c0.9,1.6,1.3,3.5,1.3,5.6
		c0,0.6,0,1.2,0,1.8s-0.1,1.1-0.1,1.5h-18.6v-4.4h15.8l-3.1,1.1c0-2-0.4-3.5-1.3-4.5c-0.9-1.1-2.1-1.6-3.7-1.6c-1.2,0-2.2,0.3-3,0.8
		c-0.9,0.6-1.5,1.4-1.9,2.5c-0.4,1.1-0.7,2.5-0.7,4.2c0,1.6,0.2,3,0.7,4.1s1.2,1.9,2,2.4c0.9,0.5,1.9,0.8,3.2,0.8
		c1.4,0,2.5-0.3,3.3-0.8s1.5-1.3,2-2.2l5.1,2c-0.5,1.2-1.2,2.2-2.3,3.1c-1,0.9-2.2,1.5-3.6,2S487.2,306.1,485.6,306.1z"/>
	<path class="st1" d="M527.8,274.5c2.8,0,5.2,0.5,7.3,1.4c2.1,1,3.9,2.4,5.4,4.3l-3.6,4.1c-1.3-1.6-2.7-2.8-4.2-3.6
		s-3.2-1.1-5.2-1.1c-1.3,0-2.4,0.2-3.2,0.5s-1.5,0.8-1.9,1.3c-0.4,0.6-0.6,1.2-0.6,1.9c0,0.8,0.3,1.5,1,2.1c0.7,0.6,1.8,1,3.3,1.4
		l5.7,1.3c3,0.7,5.2,1.7,6.5,3s2,3.1,2,5.2c0,2-0.5,3.7-1.6,5.2c-1.1,1.4-2.5,2.5-4.4,3.3c-1.9,0.8-4.1,1.1-6.5,1.1
		c-2.1,0-4.1-0.3-5.9-0.8c-1.8-0.5-3.4-1.2-4.8-2.1c-1.4-0.9-2.6-1.9-3.5-3.1l3.6-4.3c0.7,1,1.6,1.9,2.7,2.7
		c1.1,0.8,2.3,1.4,3.6,1.8c1.3,0.4,2.8,0.7,4.3,0.7c1.3,0,2.3-0.1,3.2-0.4c0.9-0.3,1.6-0.7,2-1.3c0.4-0.5,0.7-1.2,0.7-2
		c0-0.8-0.3-1.5-0.8-2.1c-0.5-0.6-1.5-1-3-1.3l-6.2-1.4c-1.8-0.4-3.3-1-4.6-1.7s-2.3-1.6-2.9-2.7c-0.7-1.1-1-2.4-1-3.9
		c0-1.8,0.5-3.5,1.5-4.9c1-1.5,2.4-2.6,4.3-3.5C522.9,274.9,525.2,274.5,527.8,274.5z"/>
	<path class="st1" d="M558.9,290.8c0-1.3-0.4-2.4-1.1-3.1s-1.8-1.1-3-1.1c-1.1,0-2.2,0.3-3,0.9c-0.9,0.6-1.5,1.6-1.9,2.9l-5.4-1.7
		c0.5-2,1.7-3.7,3.5-4.9c1.8-1.2,4.2-1.9,7.2-1.9c2,0,3.8,0.3,5.3,1c1.5,0.6,2.7,1.6,3.6,2.9c0.9,1.3,1.3,2.9,1.3,4.8v9.4
		c0,1.2,0.6,1.8,1.7,1.8c0.5,0,1-0.1,1.5-0.2l-0.4,4c-0.8,0.4-1.8,0.6-3,0.6c-1.1,0-2.1-0.2-2.9-0.6c-0.9-0.4-1.6-0.9-2-1.7
		c-0.5-0.8-0.7-1.7-0.7-2.9v-0.2l1.1-0.2c-0.2,1.2-0.7,2.2-1.5,3c-0.8,0.8-1.9,1.5-3,1.9s-2.4,0.7-3.7,0.7c-1.6,0-2.9-0.2-4.1-0.7
		s-2-1.2-2.7-2.1c-0.6-0.9-0.9-2.1-0.9-3.4c0-1.7,0.6-3.2,1.7-4.3c1.1-1.1,2.7-1.9,4.8-2.3l8.7-1.8l0,4l-5.6,1.1
		c-1.1,0.2-1.9,0.5-2.4,0.9c-0.5,0.4-0.8,0.9-0.8,1.7c0,0.8,0.3,1.4,0.9,1.8c0.6,0.4,1.3,0.6,2.1,0.6c0.7,0,1.3-0.1,1.9-0.2
		c0.6-0.2,1.2-0.4,1.7-0.7c0.5-0.3,0.9-0.8,1.2-1.4c0.3-0.6,0.4-1.3,0.4-2.1V290.8z"/>
	<path class="st1" d="M572.3,315.4v-33h5.7l0.4,7.4l-0.8-0.8c0.3-1.4,0.8-2.6,1.6-3.6c0.8-1.1,1.7-1.9,2.9-2.5s2.5-0.9,4-0.9
		c1.9,0,3.6,0.5,5.1,1.4c1.5,1,2.7,2.3,3.5,4.1c0.9,1.8,1.3,3.9,1.3,6.5s-0.4,4.7-1.3,6.5c-0.9,1.8-2.1,3.2-3.6,4.2
		c-1.5,1-3.2,1.4-5.1,1.4c-2,0-3.7-0.6-5.1-1.7c-1.3-1.1-2.3-2.6-2.8-4.3l0.6-1v16.3H572.3z M584.1,301.2c1.7,0,3-0.6,4-1.8
		s1.5-3,1.5-5.4c0-2.4-0.5-4.1-1.4-5.4c-0.9-1.2-2.3-1.8-4-1.8c-1.1,0-2,0.3-2.9,0.9c-0.8,0.6-1.5,1.4-1.9,2.5
		c-0.5,1.1-0.7,2.4-0.7,3.9c0,1.5,0.2,2.8,0.7,3.9c0.4,1.1,1.1,1.9,1.9,2.5C582,300.9,583,301.2,584.1,301.2z"/>
	<path class="st1" d="M601.5,315.4v-33h5.7l0.4,7.4l-0.8-0.8c0.3-1.4,0.8-2.6,1.6-3.6c0.8-1.1,1.7-1.9,2.9-2.5
		c1.2-0.6,2.5-0.9,4-0.9c1.9,0,3.6,0.5,5.1,1.4c1.5,1,2.7,2.3,3.5,4.1c0.9,1.8,1.3,3.9,1.3,6.5s-0.4,4.7-1.3,6.5
		c-0.9,1.8-2.1,3.2-3.6,4.2s-3.2,1.4-5.1,1.4c-2,0-3.7-0.6-5.1-1.7c-1.3-1.1-2.3-2.6-2.8-4.3l0.6-1v16.3H601.5z M613.2,301.2
		c1.7,0,3-0.6,4-1.8s1.5-3,1.5-5.4c0-2.4-0.5-4.1-1.4-5.4s-2.3-1.8-4-1.8c-1.1,0-2,0.3-2.9,0.9c-0.8,0.6-1.5,1.4-1.9,2.5
		s-0.7,2.4-0.7,3.9c0,1.5,0.2,2.8,0.7,3.9c0.4,1.1,1.1,1.9,1.9,2.5C611.2,300.9,612.1,301.2,613.2,301.2z"/>
	<path class="st1" d="M630.6,305.6v-33.4h6.4v14.1c0.7-1.5,1.8-2.6,3.1-3.3s2.8-1.1,4.4-1.1c1.6,0,3,0.3,4.3,0.9s2.2,1.6,3,2.8
		s1.1,2.8,1.1,4.7v15.3h-6.4v-13.4c0-2-0.4-3.4-1.2-4.2s-1.8-1.1-3-1.1c-0.9,0-1.8,0.2-2.6,0.6c-0.8,0.4-1.5,1.1-2,2
		s-0.8,2.2-0.8,3.7v12.3H630.6z"/>
	<path class="st1" d="M662.6,279c-1.3,0-2.3-0.3-3-0.9c-0.7-0.6-1-1.4-1-2.5c0-1.1,0.3-2,1-2.6c0.7-0.6,1.6-0.9,3-0.9
		c1.3,0,2.3,0.3,3,0.9c0.7,0.6,1,1.4,1,2.6c0,1.1-0.3,2-1,2.5C664.9,278.8,663.9,279,662.6,279z M665.8,282.4v23.3h-6.4v-23.3H665.8
		z"/>
	<path class="st1" d="M672.5,305.6v-23.3h5.5l0.4,4.6c0.6-1.6,1.5-2.9,2.7-3.7c1.2-0.9,2.7-1.3,4.5-1.3c0.5,0,1,0,1.4,0.1
		c0.4,0.1,0.8,0.2,1.1,0.4l-0.7,5.3c-0.3-0.1-0.7-0.2-1.1-0.3c-0.4-0.1-1-0.1-1.7-0.1c-0.9,0-1.8,0.2-2.7,0.7s-1.6,1.1-2.1,2
		c-0.6,0.9-0.8,2.1-0.8,3.5v12H672.5z"/>
	<path class="st1" d="M702.5,306.1c-2.4,0-4.6-0.5-6.4-1.4s-3.2-2.3-4.2-4.1c-1-1.8-1.5-4-1.5-6.5c0-2.5,0.5-4.7,1.5-6.5
		c1-1.8,2.4-3.2,4.2-4.1c1.8-1,3.8-1.4,6.1-1.4c2.4,0,4.4,0.5,6,1.4c1.6,0.9,2.9,2.2,3.8,3.9s1.3,3.5,1.3,5.6c0,0.6,0,1.2,0,1.8
		s-0.1,1.1-0.1,1.5h-18.6v-4.4h15.8l-3.1,1.1c0-2-0.4-3.5-1.3-4.5s-2.1-1.6-3.7-1.6c-1.2,0-2.2,0.3-3,0.8c-0.9,0.6-1.5,1.4-1.9,2.5
		c-0.4,1.1-0.7,2.5-0.7,4.2c0,1.6,0.2,3,0.7,4.1s1.2,1.9,2,2.4s1.9,0.8,3.2,0.8c1.4,0,2.5-0.3,3.3-0.8c0.8-0.5,1.5-1.3,2-2.2l5.1,2
		c-0.5,1.2-1.2,2.2-2.3,3.1c-1,0.9-2.2,1.5-3.6,2C705.5,305.9,704,306.1,702.5,306.1z"/>
	<path class="st1" d="M377.1,330.7c3.5,0,6.2,0.8,8.2,2.5c2,1.7,3,3.9,3,6.7c0,3-1,5.3-3,6.9c-2,1.6-4.7,2.4-8.1,2.4l-0.7,0.4h-6.6
		v11.8h-6.3v-30.7H377.1z M376.4,344.8c1.8,0,3.1-0.4,4-1.1c0.9-0.7,1.3-1.9,1.3-3.4c0-1.5-0.4-2.6-1.3-3.4c-0.9-0.7-2.2-1.1-4-1.1
		h-6.5v8.9H376.4z M380.2,346.1l10,15.3h-7.2l-8.2-13.4L380.2,346.1z"/>
	<path class="st1" d="M404.8,361.9c-2.4,0-4.6-0.5-6.4-1.4c-1.8-1-3.2-2.3-4.2-4.1s-1.5-4-1.5-6.5c0-2.5,0.5-4.7,1.5-6.5
		s2.4-3.2,4.2-4.1c1.8-1,3.8-1.4,6.1-1.4c2.4,0,4.4,0.5,6,1.4c1.6,0.9,2.9,2.2,3.8,3.9c0.9,1.6,1.3,3.5,1.3,5.6c0,0.6,0,1.2,0,1.8
		c0,0.6-0.1,1.1-0.1,1.5h-18.6v-4.4h15.8l-3.1,1.1c0-2-0.4-3.5-1.3-4.5c-0.9-1.1-2.1-1.6-3.7-1.6c-1.2,0-2.2,0.3-3,0.8
		s-1.5,1.4-1.9,2.5c-0.4,1.1-0.7,2.5-0.7,4.2c0,1.6,0.2,3,0.7,4.1s1.2,1.9,2,2.4c0.9,0.5,1.9,0.8,3.2,0.8c1.4,0,2.5-0.3,3.3-0.8
		c0.8-0.5,1.5-1.3,2-2.2l5.1,2c-0.5,1.2-1.2,2.2-2.3,3.1c-1,0.9-2.2,1.5-3.6,2C407.9,361.7,406.4,361.9,404.8,361.9z"/>
	<path class="st1" d="M430.3,361.9c-2.4,0-4.5-0.4-6.4-1.3c-1.9-0.8-3.5-2-4.7-3.5l3.7-3.7c0.7,1.1,1.7,2,3,2.7
		c1.2,0.7,2.7,1.1,4.4,1.1c1.2,0,2.2-0.2,2.9-0.5s1.1-0.9,1.1-1.7c0-0.5-0.2-0.9-0.5-1.3c-0.3-0.4-1-0.6-2-0.9l-4.1-0.8
		c-2.7-0.6-4.6-1.4-5.7-2.5c-1.1-1.1-1.7-2.6-1.7-4.4c0-1.3,0.4-2.5,1.1-3.6c0.8-1.1,1.9-2,3.4-2.7c1.5-0.7,3.4-1,5.7-1
		c2.3,0,4.3,0.4,6.1,1.1c1.7,0.7,3.1,1.8,4.1,3.2l-3.8,3.7c-0.7-1.1-1.6-1.9-2.7-2.5c-1.1-0.6-2.3-0.9-3.5-0.9
		c-0.9,0-1.6,0.1-2.2,0.3c-0.6,0.2-1.1,0.4-1.4,0.8c-0.3,0.3-0.5,0.7-0.5,1.2c0,0.5,0.2,0.9,0.7,1.3c0.4,0.4,1.2,0.7,2.4,0.9l4.7,1
		c2.3,0.5,3.9,1.2,4.9,2.3c1,1.1,1.5,2.4,1.5,4c0,1.5-0.4,2.8-1.2,4c-0.8,1.2-2,2.1-3.5,2.7C434.4,361.6,432.5,361.9,430.3,361.9z"
		/>
	<path class="st1" d="M456.4,361.9c-2.4,0-4.6-0.5-6.4-1.4c-1.8-1-3.2-2.3-4.2-4.1s-1.5-4-1.5-6.5c0-2.5,0.5-4.7,1.5-6.5
		s2.4-3.2,4.2-4.1c1.8-1,3.8-1.4,6.1-1.4c2.4,0,4.4,0.5,6,1.4s2.9,2.2,3.8,3.9c0.9,1.6,1.3,3.5,1.3,5.6c0,0.6,0,1.2,0,1.8
		c0,0.6-0.1,1.1-0.1,1.5h-18.6v-4.4h15.8l-3.1,1.1c0-2-0.4-3.5-1.3-4.5c-0.9-1.1-2.1-1.6-3.7-1.6c-1.2,0-2.2,0.3-3,0.8
		c-0.9,0.6-1.5,1.4-1.9,2.5c-0.4,1.1-0.7,2.5-0.7,4.2c0,1.6,0.2,3,0.7,4.1s1.2,1.9,2,2.4c0.9,0.5,1.9,0.8,3.2,0.8
		c1.4,0,2.5-0.3,3.3-0.8s1.5-1.3,2-2.2l5.1,2c-0.5,1.2-1.2,2.2-2.3,3.1c-1,0.9-2.2,1.5-3.6,2S458,361.9,456.4,361.9z"/>
	<path class="st1" d="M472.5,361.4v-23.3h5.5l0.4,4.6c0.6-1.6,1.5-2.9,2.7-3.7c1.2-0.9,2.7-1.3,4.5-1.3c0.5,0,1,0,1.4,0.1
		c0.4,0.1,0.8,0.2,1.1,0.4l-0.7,5.3c-0.3-0.1-0.7-0.2-1.1-0.3c-0.5-0.1-1-0.1-1.7-0.1c-0.9,0-1.8,0.2-2.7,0.7
		c-0.9,0.5-1.6,1.1-2.1,2c-0.6,0.9-0.8,2.1-0.8,3.5v12H472.5z"/>
	<path class="st1" d="M507.4,338.2h6.6l-8.8,23.3h-7.3l-8.8-23.3h6.8l5.8,18.4L507.4,338.2z"/>
	<path class="st1" d="M528,361.9c-2.4,0-4.6-0.5-6.4-1.4c-1.8-1-3.2-2.3-4.2-4.1s-1.5-4-1.5-6.5c0-2.5,0.5-4.7,1.5-6.5
		s2.4-3.2,4.2-4.1c1.8-1,3.8-1.4,6.1-1.4c2.4,0,4.4,0.5,6,1.4s2.9,2.2,3.8,3.9c0.9,1.6,1.3,3.5,1.3,5.6c0,0.6,0,1.2,0,1.8
		c0,0.6-0.1,1.1-0.1,1.5H520v-4.4h15.8l-3.1,1.1c0-2-0.4-3.5-1.3-4.5c-0.9-1.1-2.1-1.6-3.7-1.6c-1.2,0-2.2,0.3-3,0.8
		c-0.9,0.6-1.5,1.4-1.9,2.5s-0.7,2.5-0.7,4.2c0,1.6,0.2,3,0.7,4.1s1.2,1.9,2,2.4c0.9,0.5,1.9,0.8,3.2,0.8c1.4,0,2.5-0.3,3.3-0.8
		s1.5-1.3,2-2.2l5.1,2c-0.5,1.2-1.2,2.2-2.3,3.1c-1,0.9-2.2,1.5-3.6,2S529.6,361.9,528,361.9z"/>
</g>
</svg>
