<?xml version="1.0" encoding="utf-8"?>
<!-- Generator: Adobe Illustrator 24.1.2, SVG Export Plug-In . SVG Version: 6.00 Build 0)  -->
<svg version="1.1" id="Layer_1" xmlns="http://www.w3.org/2000/svg" xmlns:xlink="http://www.w3.org/1999/xlink" x="0px" y="0px"
	 viewBox="0 0 494 530.8" style="enable-background:new 0 0 494 530.8;" xml:space="preserve">
<style type="text/css">
	.st0{fill:#4E7FFF;}
	.st1{fill:#FFFFFF;}
</style>
<path class="st0" d="M236.2,61.5c-23.7-51.1-90.9-74-143.8-54.6S4.2,81.3,0.4,137.5c-3.1,46.5,12.6,92,17.2,138.3
	c4.5,45.5-1.2,93.8,19.2,134.8c17.6,35.4,51.9,59.1,85.7,79.6c28.9,17.6,59.4,34.4,93,39.2c31.7,4.5,63.7-1.9,95-8.4
	c59.9-12.4,125.5-28.9,160.3-79.2c27.1-39.2,28.7-92.1,13.8-137.4s-44.5-84.3-76.4-119.8C355.8,126,290,83.5,223.6,41.5"/>
<g>
	<path class="st1" d="M120.9,230.6c-0.7,2.3-1.8,4.2-3.2,5.7c-1.5,1.5-3.2,2.7-5.2,3.4c-2,0.8-4.2,1.1-6.6,1.1
		c-3.5,0-6.5-0.7-9.1-2.2c-2.6-1.5-4.5-3.6-5.9-6.3c-1.4-2.7-2.1-6-2.1-9.8c0-3.8,0.7-7.1,2.1-9.8c1.4-2.7,3.3-4.8,5.9-6.3
		c2.6-1.5,5.6-2.2,9-2.2c2.4,0,4.6,0.3,6.6,1c2,0.7,3.6,1.7,5,3c1.4,1.4,2.4,3.1,3,5.2l-6.7,2.8c-0.6-2.1-1.5-3.7-2.8-4.6
		c-1.3-0.9-2.9-1.4-4.8-1.4c-1.9,0-3.6,0.5-5.1,1.4c-1.5,0.9-2.6,2.3-3.4,4.1c-0.8,1.8-1.2,4-1.2,6.7c0,2.6,0.4,4.8,1.1,6.7
		s1.8,3.2,3.2,4.1c1.4,0.9,3.2,1.4,5.3,1.4c1.9,0,3.6-0.5,5-1.6c1.4-1,2.4-2.6,3-4.7L120.9,230.6z"/>
	<path class="st1" d="M126.5,240.4v-38.6h7.4v16.3c0.9-1.7,2-3,3.5-3.8c1.5-0.8,3.2-1.3,5.1-1.3c1.9,0,3.5,0.4,5,1.1
		c1.5,0.7,2.6,1.8,3.4,3.2c0.8,1.5,1.3,3.3,1.3,5.5v17.6h-7.4V225c0-2.3-0.4-3.9-1.3-4.8c-0.9-0.9-2-1.3-3.4-1.3c-1,0-2,0.2-3,0.7
		c-0.9,0.5-1.7,1.3-2.3,2.4c-0.6,1.1-0.9,2.5-0.9,4.3v14.2H126.5z"/>
	<path class="st1" d="M175,223.3c0-1.5-0.4-2.7-1.3-3.6c-0.9-0.9-2-1.3-3.5-1.3c-1.3,0-2.5,0.3-3.5,1c-1,0.7-1.7,1.8-2.2,3.4
		l-6.3-1.9c0.6-2.4,1.9-4.3,4-5.7c2.1-1.4,4.8-2.1,8.3-2.1c2.4,0,4.4,0.4,6.2,1.1c1.8,0.7,3.1,1.8,4.1,3.3c1,1.5,1.5,3.3,1.5,5.5
		v10.9c0,1.4,0.6,2,1.9,2c0.6,0,1.2-0.1,1.7-0.3l-0.4,4.6c-0.9,0.5-2.1,0.7-3.5,0.7c-1.3,0-2.4-0.2-3.4-0.6c-1-0.4-1.8-1.1-2.4-2
		c-0.6-0.9-0.9-2-0.9-3.3v-0.2l1.3-0.2c-0.2,1.4-0.8,2.5-1.8,3.5c-1,0.9-2.1,1.7-3.5,2.2c-1.4,0.5-2.8,0.8-4.3,0.8
		c-1.8,0-3.4-0.3-4.7-0.8c-1.3-0.6-2.3-1.4-3.1-2.4c-0.7-1.1-1.1-2.4-1.1-4c0-2,0.6-3.6,1.9-4.9c1.3-1.3,3.1-2.1,5.5-2.6l10.1-2
		l-0.1,4.6l-6.4,1.3c-1.2,0.3-2.1,0.6-2.8,1c-0.6,0.4-0.9,1.1-0.9,2c0,0.9,0.3,1.6,1,2c0.7,0.5,1.5,0.7,2.4,0.7
		c0.8,0,1.5-0.1,2.2-0.3c0.7-0.2,1.4-0.5,1.9-0.9c0.6-0.4,1-0.9,1.3-1.6c0.3-0.7,0.5-1.5,0.5-2.5V223.3z"/>
	<path class="st1" d="M201.3,241c-2.7,0-5.2-0.5-7.4-1.5c-2.2-1-4.1-2.3-5.5-4.1l4.2-4.3c0.9,1.3,2,2.3,3.4,3.2
		c1.4,0.8,3.1,1.2,5.1,1.2c1.4,0,2.5-0.2,3.4-0.6c0.8-0.4,1.3-1.1,1.3-2c0-0.6-0.2-1.1-0.6-1.5c-0.4-0.4-1.2-0.7-2.4-1l-4.7-1
		c-3.1-0.6-5.3-1.6-6.6-2.9c-1.3-1.3-2-3-2-5.1c0-1.5,0.4-2.8,1.3-4.1c0.9-1.3,2.2-2.3,3.9-3.1c1.8-0.8,3.9-1.2,6.6-1.2
		c2.7,0,5,0.4,7,1.3c2,0.8,3.6,2.1,4.7,3.7l-4.4,4.3c-0.8-1.3-1.8-2.2-3.1-2.9c-1.3-0.7-2.6-1-4-1c-1,0-1.9,0.1-2.6,0.3
		c-0.7,0.2-1.3,0.5-1.6,0.9c-0.4,0.4-0.5,0.9-0.5,1.4s0.2,1.1,0.8,1.5c0.5,0.4,1.4,0.8,2.7,1l5.5,1.1c2.6,0.5,4.5,1.4,5.7,2.7
		c1.1,1.3,1.7,2.8,1.7,4.6c0,1.7-0.5,3.2-1.4,4.6s-2.3,2.4-4,3.2S203.9,241,201.3,241z"/>
	<path class="st1" d="M231.4,241c-2.8,0-5.3-0.6-7.4-1.7c-2.1-1.1-3.7-2.7-4.9-4.8c-1.1-2.1-1.7-4.6-1.7-7.5c0-2.9,0.6-5.4,1.7-7.5
		c1.1-2.1,2.7-3.7,4.8-4.8c2.1-1.1,4.4-1.7,7.1-1.7c2.7,0,5,0.5,6.9,1.6c1.9,1.1,3.3,2.6,4.4,4.5s1.5,4,1.5,6.4c0,0.7,0,1.4-0.1,2
		c0,0.6-0.1,1.2-0.2,1.7h-21.4v-5.1h18.2l-3.5,1.3c0-2.3-0.5-4-1.5-5.2c-1-1.2-2.5-1.8-4.3-1.8c-1.4,0-2.5,0.3-3.5,1
		c-1,0.6-1.7,1.6-2.2,2.9c-0.5,1.3-0.8,2.9-0.8,4.8c0,1.9,0.3,3.5,0.8,4.7c0.6,1.2,1.3,2.2,2.4,2.8c1,0.6,2.2,0.9,3.7,0.9
		c1.6,0,2.8-0.3,3.8-0.9c1-0.6,1.7-1.5,2.3-2.5l5.9,2.3c-0.6,1.4-1.4,2.6-2.6,3.6c-1.2,1-2.5,1.8-4.1,2.3
		C235,240.7,233.3,241,231.4,241z"/>
	<path class="st1" d="M103.5,268.9c3.2,0,6.1,0.6,8.5,1.7c2.4,1.1,4.5,2.8,6.2,4.9l-4.1,4.8c-1.5-1.9-3.1-3.2-4.8-4.1
		c-1.7-0.9-3.8-1.3-6-1.3c-1.5,0-2.7,0.2-3.7,0.6c-1,0.4-1.7,0.9-2.1,1.6c-0.4,0.6-0.7,1.4-0.7,2.1c0,1,0.4,1.8,1.1,2.4
		c0.8,0.7,2,1.2,3.9,1.6l6.6,1.5c3.5,0.8,6,2,7.5,3.5c1.5,1.6,2.3,3.6,2.3,6c0,2.3-0.6,4.3-1.8,6c-1.2,1.7-2.9,2.9-5.1,3.8
		c-2.2,0.9-4.7,1.3-7.5,1.3c-2.5,0-4.7-0.3-6.8-0.9c-2.1-0.6-3.9-1.4-5.5-2.4c-1.6-1-3-2.2-4-3.6l4.2-5c0.8,1.1,1.8,2.2,3.1,3.1
		c1.2,0.9,2.6,1.6,4.2,2.1c1.6,0.5,3.2,0.8,4.9,0.8c1.5,0,2.7-0.2,3.7-0.5c1-0.3,1.8-0.8,2.3-1.5c0.5-0.6,0.8-1.4,0.8-2.3
		c0-0.9-0.3-1.7-0.9-2.4c-0.6-0.7-1.8-1.2-3.5-1.5l-7.2-1.6c-2.1-0.5-3.9-1.2-5.3-2c-1.5-0.8-2.6-1.8-3.4-3.1
		c-0.8-1.3-1.2-2.8-1.2-4.5c0-2.1,0.6-4,1.7-5.7c1.1-1.7,2.8-3,5-4C97.9,269.4,100.5,268.9,103.5,268.9z"/>
	<path class="st1" d="M139.4,287.7c0-1.5-0.4-2.7-1.3-3.6c-0.9-0.9-2-1.3-3.5-1.3c-1.3,0-2.5,0.3-3.5,1c-1,0.7-1.7,1.8-2.2,3.4
		l-6.3-1.9c0.6-2.4,1.9-4.3,4-5.7c2.1-1.4,4.8-2.1,8.3-2.1c2.4,0,4.4,0.4,6.2,1.1c1.8,0.7,3.1,1.8,4.1,3.3c1,1.5,1.5,3.3,1.5,5.5
		v10.9c0,1.4,0.6,2,1.9,2c0.6,0,1.2-0.1,1.7-0.3l-0.4,4.6c-0.9,0.5-2.1,0.7-3.5,0.7c-1.3,0-2.4-0.2-3.4-0.6c-1-0.4-1.8-1.1-2.4-2
		c-0.6-0.9-0.9-2-0.9-3.3v-0.2l1.3-0.2c-0.2,1.4-0.8,2.5-1.8,3.5c-1,0.9-2.1,1.7-3.5,2.2c-1.4,0.5-2.8,0.8-4.3,0.8
		c-1.8,0-3.4-0.3-4.7-0.8c-1.3-0.6-2.3-1.4-3.1-2.4c-0.7-1.1-1.1-2.4-1.1-4c0-2,0.6-3.6,1.9-4.9c1.3-1.3,3.1-2.1,5.5-2.6l10.1-2
		l-0.1,4.6l-6.4,1.3c-1.2,0.3-2.1,0.6-2.8,1c-0.6,0.4-0.9,1.1-0.9,2c0,0.9,0.3,1.6,1,2c0.7,0.5,1.5,0.7,2.4,0.7
		c0.8,0,1.5-0.1,2.2-0.3c0.7-0.2,1.4-0.5,1.9-0.9c0.6-0.4,1-0.9,1.3-1.6c0.3-0.7,0.5-1.5,0.5-2.5V287.7z"/>
	<path class="st1" d="M154.9,316.1V278h6.6l0.5,8.5l-0.9-1c0.3-1.6,0.9-3,1.8-4.2c0.9-1.2,2-2.2,3.4-2.9c1.4-0.7,2.9-1,4.6-1
		c2.2,0,4.1,0.6,5.9,1.7c1.7,1.1,3.1,2.7,4.1,4.8c1,2.1,1.5,4.6,1.5,7.5c0,2.9-0.5,5.5-1.5,7.5c-1,2.1-2.4,3.7-4.1,4.8
		c-1.7,1.1-3.7,1.7-5.9,1.7c-2.4,0-4.3-0.7-5.9-2c-1.6-1.3-2.6-3-3.2-5l0.7-1.1v18.9H154.9z M168.5,299.8c2,0,3.5-0.7,4.6-2.1
		c1.1-1.4,1.7-3.5,1.7-6.2c0-2.7-0.5-4.8-1.6-6.2c-1.1-1.4-2.6-2.1-4.6-2.1c-1.3,0-2.4,0.3-3.3,1c-0.9,0.7-1.7,1.6-2.2,2.8
		c-0.5,1.2-0.8,2.7-0.8,4.5c0,1.7,0.2,3.2,0.8,4.5c0.5,1.3,1.2,2.2,2.2,2.9C166.1,299.4,167.2,299.8,168.5,299.8z"/>
	<path class="st1" d="M188.6,316.1V278h6.6l0.5,8.5l-0.9-1c0.3-1.6,0.9-3,1.8-4.2c0.9-1.2,2-2.2,3.4-2.9c1.4-0.7,2.9-1,4.6-1
		c2.2,0,4.1,0.6,5.9,1.7c1.7,1.1,3.1,2.7,4.1,4.8c1,2.1,1.5,4.6,1.5,7.5c0,2.9-0.5,5.5-1.5,7.5c-1,2.1-2.4,3.7-4.1,4.8
		c-1.7,1.1-3.7,1.7-5.9,1.7c-2.4,0-4.3-0.7-5.9-2c-1.6-1.3-2.6-3-3.2-5l0.7-1.1v18.9H188.6z M202.2,299.8c2,0,3.5-0.7,4.6-2.1
		c1.1-1.4,1.7-3.5,1.7-6.2c0-2.7-0.5-4.8-1.6-6.2c-1.1-1.4-2.6-2.1-4.6-2.1c-1.3,0-2.4,0.3-3.3,1c-0.9,0.7-1.7,1.6-2.2,2.8
		c-0.5,1.2-0.8,2.7-0.8,4.5c0,1.7,0.2,3.2,0.8,4.5c0.5,1.3,1.2,2.2,2.2,2.9C199.8,299.4,200.9,299.8,202.2,299.8z"/>
	<path class="st1" d="M222.3,304.9v-38.6h7.4v16.3c0.9-1.7,2-3,3.5-3.8c1.5-0.8,3.2-1.3,5.1-1.3c1.9,0,3.5,0.4,5,1.1
		c1.5,0.7,2.6,1.8,3.4,3.2c0.8,1.5,1.3,3.3,1.3,5.5v17.6h-7.4v-15.5c0-2.3-0.4-3.9-1.3-4.8c-0.9-0.9-2-1.3-3.4-1.3c-1,0-2,0.2-3,0.7
		c-0.9,0.5-1.7,1.3-2.3,2.4c-0.6,1.1-0.9,2.5-0.9,4.3v14.2H222.3z"/>
	<path class="st1" d="M259.2,274.1c-1.5,0-2.7-0.3-3.4-1c-0.8-0.7-1.1-1.6-1.1-2.9c0-1.3,0.4-2.3,1.1-3c0.8-0.7,1.9-1,3.4-1
		c1.5,0,2.7,0.3,3.4,1c0.8,0.7,1.1,1.7,1.1,3c0,1.3-0.4,2.3-1.1,2.9C261.9,273.8,260.7,274.1,259.2,274.1z M262.9,278v26.9h-7.4V278
		H262.9z"/>
	<path class="st1" d="M270.6,304.9V278h6.4l0.5,5.3c0.7-1.9,1.8-3.3,3.1-4.3c1.4-1,3.1-1.5,5.2-1.5c0.6,0,1.2,0.1,1.7,0.2
		s0.9,0.3,1.2,0.4l-0.9,6.2c-0.4-0.1-0.8-0.2-1.3-0.3c-0.5-0.1-1.2-0.1-2-0.1c-1.1,0-2.1,0.3-3.1,0.8c-1,0.5-1.8,1.3-2.5,2.4
		c-0.6,1.1-1,2.4-1,4v13.9H270.6z"/>
	<path class="st1" d="M305.2,305.4c-2.8,0-5.3-0.6-7.4-1.7c-2.1-1.1-3.7-2.7-4.9-4.8c-1.1-2.1-1.7-4.6-1.7-7.5
		c0-2.9,0.6-5.4,1.7-7.5c1.1-2.1,2.7-3.7,4.8-4.8c2.1-1.1,4.4-1.7,7.1-1.7c2.7,0,5,0.5,6.9,1.6c1.9,1.1,3.3,2.6,4.3,4.5
		c1,1.9,1.5,4,1.5,6.4c0,0.7,0,1.4-0.1,2c0,0.6-0.1,1.2-0.2,1.7H296v-5.1h18.2l-3.5,1.3c0-2.3-0.5-4-1.5-5.2c-1-1.2-2.5-1.8-4.3-1.8
		c-1.4,0-2.5,0.3-3.5,1c-1,0.6-1.7,1.6-2.2,2.9c-0.5,1.3-0.8,2.9-0.8,4.8c0,1.9,0.3,3.5,0.8,4.7c0.6,1.2,1.3,2.2,2.4,2.8
		c1,0.6,2.2,0.9,3.7,0.9c1.6,0,2.8-0.3,3.8-0.9c1-0.6,1.7-1.5,2.3-2.5l5.9,2.3c-0.6,1.4-1.4,2.6-2.6,3.6c-1.2,1-2.5,1.8-4.1,2.3
		C308.8,305.1,307.1,305.4,305.2,305.4z"/>
	<path class="st1" d="M106.2,333.9c4,0,7.2,1,9.5,2.9c2.3,1.9,3.4,4.5,3.4,7.8c0,3.5-1.1,6.1-3.4,8c-2.3,1.8-5.4,2.8-9.4,2.8
		l-0.8,0.4h-7.6v13.6h-7.3v-35.4H106.2z M105.3,350.1c2.1,0,3.6-0.4,4.6-1.3c1-0.8,1.5-2.1,1.5-3.9s-0.5-3.1-1.5-3.9
		c-1-0.8-2.6-1.3-4.6-1.3h-7.5v10.3H105.3z M109.7,351.6l11.5,17.7h-8.3l-9.5-15.5L109.7,351.6z"/>
	<path class="st1" d="M138.2,369.9c-2.8,0-5.3-0.6-7.4-1.7c-2.1-1.1-3.7-2.7-4.9-4.8c-1.1-2.1-1.7-4.6-1.7-7.5
		c0-2.9,0.6-5.4,1.7-7.5c1.1-2.1,2.7-3.7,4.8-4.8c2.1-1.1,4.4-1.7,7.1-1.7c2.7,0,5,0.5,6.9,1.6c1.9,1.1,3.3,2.6,4.4,4.5
		s1.5,4,1.5,6.4c0,0.7,0,1.4-0.1,2c0,0.6-0.1,1.2-0.2,1.7H129v-5.1h18.2l-3.5,1.3c0-2.3-0.5-4-1.5-5.2c-1-1.2-2.5-1.8-4.3-1.8
		c-1.4,0-2.5,0.3-3.5,1c-1,0.6-1.7,1.6-2.2,2.9c-0.5,1.3-0.8,2.9-0.8,4.8c0,1.9,0.3,3.5,0.8,4.7c0.6,1.2,1.3,2.2,2.4,2.8
		c1,0.6,2.2,0.9,3.7,0.9c1.6,0,2.8-0.3,3.8-0.9c1-0.6,1.7-1.5,2.3-2.5l5.9,2.3c-0.6,1.4-1.4,2.6-2.6,3.6c-1.2,1-2.5,1.8-4.1,2.3
		C141.7,369.6,140,369.9,138.2,369.9z"/>
	<path class="st1" d="M167.6,369.9c-2.7,0-5.2-0.5-7.4-1.5c-2.2-1-4.1-2.3-5.5-4.1l4.2-4.3c0.9,1.3,2,2.3,3.4,3.2
		c1.4,0.8,3.1,1.2,5.1,1.2c1.4,0,2.5-0.2,3.4-0.6c0.8-0.4,1.3-1.1,1.3-2c0-0.6-0.2-1.1-0.6-1.5c-0.4-0.4-1.2-0.7-2.4-1l-4.7-1
		c-3.1-0.6-5.3-1.6-6.6-2.9c-1.3-1.3-2-3-2-5.1c0-1.5,0.4-2.8,1.3-4.1c0.9-1.3,2.2-2.3,3.9-3.1c1.8-0.8,3.9-1.2,6.6-1.2
		c2.7,0,5,0.4,7,1.3c2,0.8,3.6,2.1,4.7,3.7l-4.4,4.3c-0.8-1.3-1.8-2.2-3.1-2.9c-1.3-0.7-2.6-1-4-1c-1,0-1.9,0.1-2.6,0.3
		c-0.7,0.2-1.3,0.5-1.6,0.9c-0.4,0.4-0.5,0.9-0.5,1.4c0,0.6,0.2,1.1,0.8,1.5c0.5,0.4,1.4,0.8,2.7,1l5.5,1.1c2.6,0.5,4.5,1.4,5.7,2.7
		c1.1,1.3,1.7,2.8,1.7,4.6c0,1.7-0.5,3.2-1.4,4.6s-2.3,2.4-4,3.2S170.2,369.9,167.6,369.9z"/>
	<path class="st1" d="M197.7,369.9c-2.8,0-5.3-0.6-7.4-1.7c-2.1-1.1-3.7-2.7-4.9-4.8c-1.1-2.1-1.7-4.6-1.7-7.5
		c0-2.9,0.6-5.4,1.7-7.5c1.1-2.1,2.7-3.7,4.8-4.8c2.1-1.1,4.4-1.7,7.1-1.7c2.7,0,5,0.5,6.9,1.6c1.9,1.1,3.3,2.6,4.4,4.5
		s1.5,4,1.5,6.4c0,0.7,0,1.4-0.1,2c0,0.6-0.1,1.2-0.2,1.7h-21.4v-5.1h18.2l-3.5,1.3c0-2.3-0.5-4-1.5-5.2c-1-1.2-2.5-1.8-4.3-1.8
		c-1.4,0-2.5,0.3-3.5,1c-1,0.6-1.7,1.6-2.2,2.9c-0.5,1.3-0.8,2.9-0.8,4.8c0,1.9,0.3,3.5,0.8,4.7c0.6,1.2,1.3,2.2,2.4,2.8
		c1,0.6,2.2,0.9,3.7,0.9c1.6,0,2.8-0.3,3.8-0.9c1-0.6,1.7-1.5,2.3-2.5l5.9,2.3c-0.6,1.4-1.4,2.6-2.6,3.6c-1.2,1-2.5,1.8-4.1,2.3
		C201.2,369.6,199.5,369.9,197.7,369.9z"/>
	<path class="st1" d="M216.3,369.3v-26.9h6.4l0.5,5.3c0.7-1.9,1.8-3.3,3.1-4.3c1.4-1,3.1-1.5,5.2-1.5c0.6,0,1.2,0.1,1.7,0.2
		c0.5,0.1,0.9,0.3,1.2,0.4l-0.9,6.2c-0.4-0.1-0.8-0.2-1.3-0.3c-0.5-0.1-1.2-0.1-2-0.1c-1.1,0-2.1,0.3-3.1,0.8
		c-1,0.5-1.8,1.3-2.5,2.4c-0.6,1.1-1,2.4-1,4v13.9H216.3z"/>
	<path class="st1" d="M256.6,342.5h7.6L254,369.3h-8.5l-10.2-26.9h7.8l6.7,21.2L256.6,342.5z"/>
	<path class="st1" d="M280.5,369.9c-2.8,0-5.3-0.6-7.4-1.7c-2.1-1.1-3.7-2.7-4.9-4.8c-1.1-2.1-1.7-4.6-1.7-7.5
		c0-2.9,0.6-5.4,1.7-7.5c1.1-2.1,2.7-3.7,4.8-4.8c2.1-1.1,4.4-1.7,7.1-1.7c2.7,0,5,0.5,6.9,1.6c1.9,1.1,3.3,2.6,4.3,4.5
		c1,1.9,1.5,4,1.5,6.4c0,0.7,0,1.4-0.1,2s-0.1,1.2-0.2,1.7h-21.4v-5.1h18.2l-3.5,1.3c0-2.3-0.5-4-1.5-5.2c-1-1.2-2.5-1.8-4.3-1.8
		c-1.4,0-2.5,0.3-3.5,1c-1,0.6-1.7,1.6-2.2,2.9c-0.5,1.3-0.8,2.9-0.8,4.8c0,1.9,0.3,3.5,0.8,4.7c0.6,1.2,1.3,2.2,2.4,2.8
		c1,0.6,2.2,0.9,3.7,0.9c1.6,0,2.8-0.3,3.8-0.9c1-0.6,1.7-1.5,2.3-2.5l5.9,2.3c-0.6,1.4-1.4,2.6-2.6,3.6c-1.2,1-2.5,1.8-4.1,2.3
		C284,369.6,282.3,369.9,280.5,369.9z"/>
</g>
</svg>
