<svg id="Layer_1" xmlns="http://www.w3.org/2000/svg" viewBox="0 0 708.5 420.9"><style>.st1{enable-background:new}.st2{fill:#fff}</style><path d="M455.4 190.3c-36.9-38-71.4-78.5-111.5-113.1-40-34.7-86.7-63.7-138.7-73.7S95.2 4.9 57.3 41.8C27.1 71.2 12.4 113.1 4.9 154.6c-5.5 30.5-7.6 62.3.4 92.3 17.8 66.8 83.2 112 150.5 127.7s137.6 7.6 206.6 2.3 140.7-7.3 204.5 19.2c29 12.1 58.9 30.2 89.6 23.3 34.8-7.9 55.2-47.6 51.6-83.1s-25.6-66.5-50.3-92.2c-49.7-51.6-117.5-90.4-189.1-88.3-20.6.6-46.5 11-45.2 31.5" fill="#62a8dc"/><g class="st1"><path class="st2" d="M236.2 248.4c-.3 1.4-.8 2.7-1.4 3.8s-1.3 2.1-2.1 2.9c-.8.8-1.8 1.4-2.9 1.8-1.1.4-2.4.7-3.8.7-2 0-3.7-.4-5.1-1.2-1.4-.8-2.5-1.9-3.4-3.3s-1.5-2.9-1.9-4.7c-.4-1.8-.6-3.6-.6-5.5s.2-3.7.6-5.5 1-3.3 1.9-4.7c.9-1.4 2-2.4 3.3-3.3s3-1.2 4.9-1.2c.6 0 1.3.1 1.9.2.6.2 1.2.4 1.8.7.6.3 1 .7 1.5 1.2s.7 1 .9 1.7v-3.4h4.1v10.8h-4.1c0-.9-.1-1.8-.3-2.6-.2-.9-.6-1.6-1-2.3-.5-.7-1.1-1.2-1.8-1.6s-1.6-.6-2.6-.6c-1.3 0-2.3.3-3.1.9-.8.6-1.5 1.4-2 2.5-.5 1-.8 2.2-1 3.4-.2 1.3-.3 2.5-.3 3.8s.1 2.6.3 3.8c.2 1.3.5 2.4 1 3.4s1.1 1.8 2 2.5c.8.6 1.9.9 3.2.9 1.8 0 3.3-.6 4.3-1.8 1-1.2 1.8-2.8 2.4-4.8l3.3 1.5zM259.1 257.1h-4.5v-12.6c0-1.6-.3-2.7-.9-3.3s-1.5-.9-2.6-.9c-1.7 0-3 .7-4.1 2-1.1 1.4-1.6 3.2-1.6 5.6v9.1h-4.5v-28.5h4.5v13.2c.5-1.8 1.3-3.1 2.5-4.1 1.2-1 2.7-1.5 4.5-1.5 2.1 0 3.7.7 4.9 2 1.2 1.4 1.8 3.4 1.8 6.2v12.8zM264.1 251.2c0-1.2.3-2.2 1-3.1.6-.9 1.5-1.6 2.5-2.2 1-.6 2.2-1 3.6-1.3 1.3-.3 2.7-.4 4.1-.4h2c.6 0 1.1.1 1.7.1v-.8c0-1.1-.4-1.9-1.2-2.4-.8-.5-1.9-.8-3.2-.8-1.2 0-2.5.2-3.7.5s-2.5.8-3.6 1.5l-1.8-3.5c1.3-.8 2.8-1.4 4.3-1.8 1.5-.4 3.2-.7 4.9-.7 1.1 0 2.2.1 3.3.4 1.1.2 2 .7 2.9 1.2.9.6 1.5 1.3 2 2.2s.8 2 .8 3.4v13.6H279v-3c-.7 1.1-1.8 2-3.2 2.6-1.4.6-2.9.9-4.5.9-1 0-1.9-.1-2.8-.4s-1.6-.7-2.3-1.2c-.6-.5-1.2-1.2-1.5-2-.4-.8-.6-1.8-.6-2.8zm8.4 2.3c.9 0 1.7-.1 2.5-.3s1.5-.5 2.1-.9c.6-.4 1.1-.9 1.4-1.4.3-.6.5-1.2.5-1.9v-.8c-.7-.1-1.4-.2-2-.2h-1.7c-2.2 0-3.9.3-5 .9-1.1.6-1.7 1.3-1.7 2.2 0 1.6 1.3 2.4 3.9 2.4zM308.4 251c0 1.3-.3 2.4-.9 3.2-.6.8-1.4 1.5-2.3 2s-2 .9-3.1 1.1c-1.2.2-2.3.3-3.4.3-1.8 0-3.7-.3-5.5-.8-1.8-.5-3.4-1.2-4.8-2.1l1.9-3.7c1.6.9 3.1 1.6 4.4 2 1.3.4 2.7.6 4 .6 1.8 0 3.1-.2 4-.6.8-.4 1.2-.9 1.2-1.6 0-.3-.1-.6-.3-.8-.2-.2-.6-.4-1.2-.6-.5-.2-1.2-.4-2.1-.5s-2-.4-3.3-.6l-3-.6c-.9-.3-1.8-.6-2.5-1.1-.7-.5-1.3-1.1-1.7-1.8-.4-.7-.6-1.6-.6-2.7s.3-2 .8-2.9c.6-.8 1.3-1.5 2.2-2 .9-.5 1.9-.9 3.1-1.1 1.1-.2 2.3-.3 3.4-.3 1.6 0 3.2.2 4.7.6 1.5.4 2.8 1 4 1.8l-1.8 3.5c-1.1-.7-2.2-1.2-3.3-1.5-1.1-.3-2.2-.4-3.5-.4-.5 0-1.1 0-1.7.1-.6.1-1.1.2-1.6.3-.5.2-.9.4-1.2.7-.3.3-.5.6-.5 1 0 .5.5 1 1.4 1.3s2.6.7 4.9 1c1.2.2 2.4.4 3.4.7 1 .3 1.9.6 2.7 1.1.7.5 1.3 1 1.7 1.8s.5 1.5.5 2.6zM317.2 248.6c.2 1.4.9 2.6 2 3.5 1.1.9 2.6 1.4 4.5 1.4 1.5 0 2.7-.2 3.8-.7 1.1-.5 2-1.1 2.8-1.8l2.3 3.2c-1.3 1.3-2.7 2.2-4.2 2.7s-3.1.7-4.8.7c-1.6 0-3-.3-4.4-.8-1.4-.5-2.5-1.3-3.5-2.2-1-.9-1.8-2.1-2.3-3.3s-.8-2.7-.8-4.3c0-1.5.3-3 .8-4.3.5-1.3 1.2-2.4 2.2-3.4s2.1-1.7 3.4-2.2 2.8-.8 4.3-.8c1.6 0 3.1.3 4.5.8 1.3.6 2.5 1.4 3.4 2.4 1 1.1 1.7 2.4 2.2 3.9.5 1.5.8 3.3.8 5.2h-17zm11.9-4c-.2-1.3-.9-2.4-2-3.2-1.1-.8-2.4-1.2-3.8-1.2s-2.7.4-3.8 1.2c-1.1.8-1.8 1.8-2.1 3.2h11.7zM381.5 249.2c0 1.3-.2 2.5-.7 3.5-.4 1-1 1.9-1.8 2.6s-1.7 1.3-2.7 1.6c-1.1.4-2.2.6-3.4.6-1.3 0-2.5-.2-3.6-.7s-2-1.3-2.8-2.4v2.6h-4.1v-9.3h4.1c0 .9.2 1.8.5 2.5s.8 1.3 1.3 1.8 1.2.9 1.9 1.1c.7.3 1.5.4 2.3.4 1.4 0 2.4-.3 3.3-.9.8-.6 1.2-1.6 1.2-3 0-.7-.1-1.3-.4-1.8-.3-.5-.6-1-1.1-1.4-.5-.4-1.1-.8-1.7-1-.7-.3-1.5-.6-2.3-.9-1-.3-2.1-.7-3.1-1.2s-2-1-2.8-1.6c-.8-.6-1.5-1.4-2-2.4-.5-.9-.8-2.1-.8-3.5 0-1.2.2-2.3.7-3.3.5-.9 1.1-1.7 1.8-2.4.8-.6 1.7-1.1 2.7-1.4 1-.3 2.1-.5 3.2-.5 1.3 0 2.4.3 3.4.8s1.7 1.3 2.2 2.2v-2.6h4.1v8.9h-4.1c0-1.7-.4-3-1.3-3.9-.9-.9-2.1-1.4-3.5-1.4-1.3 0-2.4.3-3.3.9-.9.6-1.3 1.5-1.3 2.6 0 .6.1 1.1.3 1.5s.6.8 1 1.1c.4.3 1 .6 1.6.9.7.3 1.4.6 2.3.9 1.1.4 2.1.8 3.2 1.3s2 1.1 2.9 1.8c.8.7 1.5 1.5 2.1 2.5.4.9.7 2.1.7 3.5zM386.1 251.2c0-1.2.3-2.2 1-3.1s1.5-1.6 2.5-2.2c1-.6 2.2-1 3.6-1.3 1.3-.3 2.7-.4 4.1-.4h2c.6 0 1.1.1 1.7.1v-.8c0-1.1-.4-1.9-1.2-2.4-.8-.5-1.9-.8-3.2-.8-1.2 0-2.5.2-3.7.5-1.3.3-2.5.8-3.6 1.5l-1.8-3.5c1.3-.8 2.8-1.4 4.3-1.8 1.5-.4 3.2-.7 4.9-.7 1.1 0 2.2.1 3.3.4 1.1.2 2 .7 2.9 1.2.9.6 1.5 1.3 2 2.2.5.9.8 2 .8 3.4v13.6H401v-3c-.7 1.1-1.8 2-3.2 2.6-1.4.6-2.9.9-4.5.9-1 0-1.9-.1-2.8-.4-.9-.3-1.6-.7-2.3-1.2-.6-.5-1.2-1.2-1.5-2s-.6-1.8-.6-2.8zm8.4 2.3c.9 0 1.7-.1 2.5-.3s1.5-.5 2.1-.9 1.1-.9 1.4-1.4c.3-.6.5-1.2.5-1.9v-.8c-.7-.1-1.4-.2-2-.2h-1.7c-2.2 0-3.9.3-5 .9-1.1.6-1.7 1.3-1.7 2.2 0 1.6 1.3 2.4 3.9 2.4zM411.7 236.7h4.5v1.8c.9-.8 1.7-1.3 2.6-1.7s1.9-.6 3-.6c1.3 0 2.5.3 3.6.8s2.1 1.3 2.9 2.2c.8.9 1.4 2.1 1.9 3.4.5 1.3.7 2.7.7 4.3 0 1.6-.2 3-.7 4.3-.5 1.3-1.1 2.4-1.9 3.4-.8.9-1.8 1.7-2.9 2.2-1.1.5-2.3.8-3.6.8-1.1 0-2.1-.2-3-.6-.9-.4-1.8-1-2.6-1.8v10h-4.5v-28.5zm4.5 14.9c.5.6 1.2 1.1 2.1 1.4s1.6.5 2.4.5c1.7 0 3.1-.6 4.2-1.8 1.1-1.2 1.6-2.8 1.6-4.8s-.5-3.6-1.6-4.8c-1.1-1.2-2.5-1.8-4.2-1.8-.8 0-1.6.2-2.4.5-.8.3-1.5.8-2.1 1.4v9.4zM436.1 236.7h4.5v1.8c.9-.8 1.7-1.3 2.6-1.7s1.9-.6 3-.6c1.3 0 2.5.3 3.6.8s2.1 1.3 2.9 2.2c.8.9 1.4 2.1 1.9 3.4.5 1.3.7 2.7.7 4.3 0 1.6-.2 3-.7 4.3-.5 1.3-1.1 2.4-1.9 3.4-.8.9-1.8 1.7-2.9 2.2-1.1.5-2.3.8-3.6.8-1.1 0-2.1-.2-3-.6-.9-.4-1.8-1-2.6-1.8v10h-4.5v-28.5zm4.5 14.9c.5.6 1.2 1.1 2.1 1.4s1.6.5 2.4.5c1.7 0 3.1-.6 4.2-1.8 1.1-1.2 1.6-2.8 1.6-4.8s-.5-3.6-1.6-4.8c-1.1-1.2-2.5-1.8-4.2-1.8-.8 0-1.6.2-2.4.5-.8.3-1.5.8-2.1 1.4v9.4zM478.7 257.1h-4.5v-12.6c0-1.6-.3-2.7-.9-3.3s-1.5-.9-2.6-.9c-1.7 0-3 .7-4.1 2-1.1 1.4-1.6 3.2-1.6 5.6v9.1h-4.5v-28.5h4.5v13.2c.5-1.8 1.3-3.1 2.5-4.1s2.7-1.5 4.5-1.5c2.1 0 3.7.7 4.9 2s1.8 3.4 1.8 6.2v12.8zM500.9 257.1h-13.7V253h4.5v-12.2h-4.5v-4.1h9V253h4.6v4.1zm-4.1-23h-5.5v-5.5h5.5v5.5zM528.1 241.5c-.5-.3-1.1-.5-1.6-.6-.6-.1-1.2-.2-1.9-.2-1 0-1.9.1-2.8.4s-1.6.7-2.3 1.3c-.6.6-1.1 1.3-1.5 2.2-.4.9-.5 2-.5 3.2v5.1h4.6v4.1h-13.7v-4h4.6v-12.2h-4.6v-4.1h9.1v5.1c.7-2 1.8-3.5 3.3-4.3 1.4-.8 3.2-1.3 5.2-1.3.6 0 1.3.1 2 .2s1.4.4 2 .7l-1.9 4.4zM536.8 248.6c.2 1.4.9 2.6 2 3.5 1.1.9 2.6 1.4 4.5 1.4 1.5 0 2.7-.2 3.8-.7 1.1-.5 2-1.1 2.8-1.8l2.3 3.2c-1.3 1.3-2.7 2.2-4.2 2.7s-3.1.7-4.8.7c-1.6 0-3-.3-4.4-.8-1.4-.5-2.5-1.3-3.5-2.2-1-.9-1.8-2.1-2.3-3.3-.6-1.3-.8-2.7-.8-4.3 0-1.5.3-3 .8-4.3.5-1.3 1.2-2.4 2.2-3.4s2.1-1.7 3.4-2.2 2.8-.8 4.3-.8c1.6 0 3.1.3 4.5.8s2.5 1.4 3.4 2.4 1.7 2.4 2.2 3.9.8 3.3.8 5.2h-17zm11.9-4c-.2-1.3-.9-2.4-2-3.2-1.1-.8-2.4-1.2-3.8-1.2s-2.7.4-3.8 1.2c-1.1.8-1.8 1.8-2.1 3.2h11.7z"/></g><g class="st1"><path class="st2" d="M236.2 310.7h-5.7l-7.4-11.5H221v11.5h-4.5v-28.5h9.4c3.1 0 5.6.7 7.3 2.2 1.7 1.4 2.6 3.6 2.6 6.4 0 1.3-.2 2.4-.6 3.3-.4 1-.9 1.8-1.6 2.5-.7.7-1.5 1.2-2.5 1.6-.9.4-2 .7-3 .8l8.1 11.7zm-5-20c0-1.5-.5-2.5-1.4-3.3-1-.7-2.3-1.1-3.9-1.1H221v8.8h4.9c1.7 0 3-.4 3.9-1.1 1-.7 1.4-1.8 1.4-3.3zM244 302.3c.2 1.4.9 2.6 2 3.5 1.1.9 2.6 1.4 4.5 1.4 1.5 0 2.7-.2 3.8-.7 1.1-.5 2-1.1 2.8-1.8l2.3 3.2c-1.3 1.3-2.7 2.2-4.2 2.7s-3.1.7-4.8.7c-1.6 0-3-.3-4.4-.8-1.4-.5-2.5-1.3-3.5-2.2-1-.9-1.8-2.1-2.3-3.3s-.8-2.7-.8-4.3c0-1.5.3-3 .8-4.3.5-1.3 1.2-2.4 2.2-3.4s2.1-1.7 3.4-2.2 2.8-.8 4.3-.8c1.6 0 3.1.3 4.5.8 1.3.6 2.5 1.4 3.4 2.4 1 1.1 1.7 2.4 2.2 3.9.5 1.5.8 3.3.8 5.2h-17zm11.9-4c-.2-1.3-.9-2.4-2-3.2-1.1-.8-2.4-1.2-3.8-1.2s-2.7.4-3.8 1.2c-1.1.8-1.8 1.8-2.1 3.2h11.7zM284 304.6c0 1.3-.3 2.4-.9 3.2s-1.4 1.5-2.3 2c-.9.5-2 .9-3.1 1.1-1.2.2-2.3.3-3.4.3-1.8 0-3.7-.3-5.5-.8-1.8-.5-3.4-1.2-4.8-2.1l1.9-3.7c1.6.9 3.1 1.6 4.4 2 1.3.4 2.7.6 4 .6 1.8 0 3.1-.2 4-.6.8-.4 1.2-.9 1.2-1.6 0-.3-.1-.6-.3-.8-.2-.2-.6-.4-1.2-.6-.5-.2-1.2-.4-2.1-.5-.9-.2-2-.4-3.3-.6l-3-.6c-.9-.3-1.8-.6-2.5-1.1-.7-.5-1.3-1.1-1.7-1.8s-.6-1.6-.6-2.7.3-2 .8-2.9c.6-.8 1.3-1.5 2.2-2s1.9-.9 3.1-1.1c1.1-.2 2.3-.3 3.4-.3 1.6 0 3.2.2 4.7.6s2.8 1 4 1.8l-1.8 3.5c-1.1-.7-2.2-1.2-3.3-1.5-1.1-.3-2.2-.4-3.5-.4-.5 0-1.1 0-1.7.1-.6.1-1.1.2-1.6.3-.5.2-.9.4-1.2.7-.3.3-.5.6-.5 1 0 .5.5 1 1.4 1.3s2.6.7 4.9 1c1.2.2 2.4.4 3.4.7 1 .3 1.9.6 2.7 1.1s1.3 1 1.7 1.8c.3.7.5 1.6.5 2.6zM292.8 302.3c.2 1.4.9 2.6 2 3.5 1.1.9 2.6 1.4 4.5 1.4 1.5 0 2.7-.2 3.8-.7 1.1-.5 2-1.1 2.8-1.8l2.3 3.2c-1.3 1.3-2.7 2.2-4.2 2.7s-3.1.7-4.8.7c-1.6 0-3-.3-4.4-.8-1.4-.5-2.5-1.3-3.5-2.2-1-.9-1.8-2.1-2.3-3.3s-.8-2.7-.8-4.3c0-1.5.3-3 .8-4.3.5-1.3 1.2-2.4 2.2-3.4s2.1-1.7 3.4-2.2 2.8-.8 4.3-.8c1.6 0 3.1.3 4.5.8 1.3.6 2.5 1.4 3.4 2.4 1 1.1 1.7 2.4 2.2 3.9.5 1.5.8 3.3.8 5.2h-17zm11.9-4c-.2-1.3-.9-2.4-2-3.2-1.1-.8-2.4-1.2-3.8-1.2s-2.7.4-3.8 1.2c-1.1.8-1.8 1.8-2.1 3.2h11.7zM332.9 295.2c-.5-.3-1.1-.5-1.6-.6-.6-.1-1.2-.2-1.9-.2-1 0-1.9.1-2.8.4-.9.3-1.6.7-2.3 1.3-.6.6-1.1 1.3-1.5 2.2-.4.9-.5 2-.5 3.2v5.1h4.6v4.1H313v-4.1h4.6v-12.2H313v-4.1h9.1v5.1c.7-2 1.8-3.5 3.3-4.3 1.4-.8 3.2-1.3 5.2-1.3.6 0 1.3.1 2 .2s1.4.4 2 .7l-1.7 4.5zM357.8 290.4l-7.5 20.3H345l-7.5-20.3h4.8l5.4 15.4 5.3-15.4h4.8zM366 302.3c.2 1.4.9 2.6 2 3.5 1.1.9 2.6 1.4 4.5 1.4 1.5 0 2.7-.2 3.8-.7s2-1.1 2.8-1.8l2.3 3.2c-1.3 1.3-2.7 2.2-4.2 2.7s-3.1.7-4.8.7c-1.6 0-3-.3-4.4-.8-1.4-.5-2.5-1.3-3.5-2.2s-1.8-2.1-2.3-3.3c-.6-1.3-.8-2.7-.8-4.3 0-1.5.3-3 .8-4.3.5-1.3 1.2-2.4 2.2-3.4s2.1-1.7 3.4-2.2 2.8-.8 4.3-.8c1.6 0 3.1.3 4.5.8 1.3.6 2.5 1.4 3.4 2.4 1 1.1 1.7 2.4 2.2 3.9s.8 3.3.8 5.2h-17zm11.9-4c-.2-1.3-.9-2.4-2-3.2-1.1-.8-2.4-1.2-3.8-1.2s-2.7.4-3.8 1.2c-1.1.8-1.8 1.8-2.1 3.2h11.7z"/></g></svg>