<?xml version="1.0" encoding="utf-8"?>
<!-- Generator: Adobe Illustrator 25.0.1, SVG Export Plug-In . SVG Version: 6.00 Build 0)  -->
<svg version="1.1" id="Layer_1" xmlns="http://www.w3.org/2000/svg" xmlns:xlink="http://www.w3.org/1999/xlink" x="0px" y="0px"
	 viewBox="0 0 372.2 424.6" style="enable-background:new 0 0 372.2 424.6;" xml:space="preserve">
<style type="text/css">
	.st0{fill:#4E7FFF;}
	.st1{fill:#FFFFFF;}
</style>
<path class="st0" d="M188.5,347.2C108.8,324,41.6,261.4,12.6,183.7C-3.6,140.1-7.1,87.9,19.7,49.9c18.5-26.2,49.2-42,80.8-47.5
	c70-12.3,142.5,23.4,188.3,77.8s68.2,124.9,79.5,195.1c6.3,39.2,8,83.7-17.9,113.8c-16.2,18.8-40.7,28.5-65.2,32.7
	C180.3,440.1,80.5,370,62.2,265.1c-0.3-1.5-0.5-2.9-0.7-4.4"/>
<g>
	<path class="st1" d="M98.9,137.9c4.5,0,8,1.2,10.5,3.7c2.5,2.5,3.7,6.1,3.7,10.7c0,4.6-1.2,8.2-3.7,10.7c-2.5,2.5-6,3.8-10.5,3.8
		H87.8v-28.8H98.9z M98.6,161.9c2.7,0,4.8-0.8,6.2-2.5c1.4-1.6,2.1-4,2.1-7.1c0-3.1-0.7-5.5-2.1-7.1c-1.4-1.6-3.4-2.5-6.2-2.5h-4.8
		v19.2H98.6z"/>
	<path class="st1" d="M128.7,167.2c-2.3,0-4.3-0.5-6-1.4c-1.7-0.9-3-2.2-4-3.9c-0.9-1.7-1.4-3.7-1.4-6.1c0-2.4,0.5-4.4,1.4-6.1
		c0.9-1.7,2.2-3,3.9-3.9c1.7-0.9,3.6-1.4,5.7-1.4c2.2,0,4.1,0.4,5.6,1.3c1.5,0.9,2.7,2.1,3.5,3.6c0.8,1.5,1.2,3.3,1.2,5.2
		c0,0.6,0,1.1,0,1.7c0,0.5-0.1,1-0.1,1.4h-17.4v-4.2H136l-2.9,1c0-1.8-0.4-3.2-1.2-4.2c-0.8-1-2-1.5-3.5-1.5c-1.1,0-2.1,0.3-2.9,0.8
		c-0.8,0.5-1.4,1.3-1.8,2.3c-0.4,1-0.6,2.3-0.6,3.9c0,1.5,0.2,2.8,0.7,3.8c0.5,1,1.1,1.8,1.9,2.2c0.8,0.5,1.8,0.7,3,0.7
		c1.3,0,2.3-0.2,3.1-0.7c0.8-0.5,1.4-1.2,1.8-2.1l4.8,1.8c-0.5,1.1-1.2,2.1-2.1,2.9c-0.9,0.8-2.1,1.4-3.4,1.9
		C131.6,166.9,130.2,167.2,128.7,167.2z"/>
	<path class="st1" d="M152.6,167.2c-2.2,0-4.2-0.4-6.1-1.2c-1.8-0.8-3.3-1.9-4.4-3.3l3.5-3.5c0.7,1,1.6,1.9,2.8,2.6
		c1.2,0.7,2.5,1,4.2,1c1.1,0,2-0.2,2.7-0.5c0.7-0.3,1-0.9,1-1.6c0-0.5-0.2-0.9-0.5-1.2c-0.3-0.3-1-0.6-1.9-0.8l-3.8-0.8
		c-2.5-0.5-4.3-1.3-5.4-2.4c-1.1-1.1-1.6-2.4-1.6-4.1c0-1.2,0.4-2.3,1.1-3.4c0.7-1,1.8-1.9,3.2-2.6s3.2-1,5.3-1c2.2,0,4.1,0.3,5.7,1
		c1.6,0.7,2.9,1.7,3.8,3l-3.6,3.5c-0.6-1-1.5-1.8-2.5-2.3c-1-0.5-2.1-0.8-3.3-0.8c-0.8,0-1.5,0.1-2.1,0.3c-0.6,0.2-1,0.4-1.3,0.7
		c-0.3,0.3-0.4,0.7-0.4,1.2c0,0.5,0.2,0.9,0.6,1.2c0.4,0.3,1.1,0.6,2.2,0.9l4.5,0.9c2.2,0.4,3.7,1.2,4.6,2.2c0.9,1,1.4,2.3,1.4,3.7
		c0,1.4-0.4,2.6-1.1,3.7s-1.8,2-3.3,2.6S154.7,167.2,152.6,167.2z"/>
	<path class="st1" d="M170.1,141.7c-1.3,0-2.2-0.3-2.8-0.8c-0.6-0.5-0.9-1.3-0.9-2.4c0-1.1,0.3-1.9,0.9-2.4c0.6-0.5,1.5-0.8,2.8-0.8
		s2.2,0.3,2.8,0.8c0.6,0.5,0.9,1.3,0.9,2.4c0,1-0.3,1.8-0.9,2.4C172.3,141.5,171.3,141.7,170.1,141.7z M173.1,144.9v21.8h-6v-21.8
		H173.1z"/>
	<path class="st1" d="M192.4,162.6c2.4,0,4.2,0.5,5.5,1.5c1.3,1,1.9,2.4,1.9,4.3c0,1.7-0.5,3.1-1.4,4.2c-1,1.2-2.3,2-4,2.6
		c-1.7,0.6-3.7,0.9-6,0.9c-3.8,0-6.5-0.5-8.2-1.6c-1.7-1-2.6-2.4-2.6-4.1c0-1.2,0.5-2.2,1.4-3c0.9-0.8,2.4-1.3,4.6-1.4l-0.2,0.7
		c-1.5-0.3-2.7-0.8-3.5-1.5c-0.8-0.7-1.2-1.8-1.2-3.1c0-1.3,0.5-2.4,1.6-3.3c1-0.9,2.4-1.4,4.2-1.5l2.6,1.2h-0.6
		c-1.3,0.1-2.1,0.3-2.6,0.8c-0.5,0.4-0.8,0.9-0.8,1.4c0,0.6,0.2,1.1,0.7,1.4c0.5,0.3,1.2,0.5,2.1,0.5H192.4z M188.3,144.4
		c2,0,3.8,0.3,5.3,0.9c1.5,0.6,2.7,1.4,3.5,2.6c0.8,1.1,1.2,2.4,1.2,4c0,1.5-0.4,2.8-1.2,3.9c-0.8,1.1-2,2-3.5,2.6
		c-1.5,0.6-3.3,0.9-5.3,0.9c-3.2,0-5.7-0.7-7.4-2c-1.7-1.3-2.6-3.1-2.6-5.4c0-1.5,0.4-2.9,1.2-4c0.8-1.1,1.9-2,3.4-2.6
		C184.5,144.7,186.3,144.4,188.3,144.4z M188.3,172c1.5,0,2.8-0.1,3.7-0.4c1-0.3,1.7-0.6,2.2-1c0.5-0.4,0.7-0.9,0.7-1.4
		c0-0.6-0.2-1-0.7-1.3c-0.4-0.3-1.2-0.5-2.4-0.5h-7.4c-0.7,0-1.3,0.2-1.7,0.5c-0.5,0.3-0.7,0.8-0.7,1.4c0,0.8,0.5,1.5,1.6,1.9
		C184.9,171.8,186.4,172,188.3,172z M188.3,148.2c-1.2,0-2.1,0.3-2.9,1c-0.8,0.6-1.1,1.5-1.1,2.7c0,1.1,0.4,2,1.1,2.7s1.7,1,2.9,1
		c1.2,0,2.1-0.3,2.9-1s1.1-1.6,1.1-2.7c0-1.1-0.4-2-1.1-2.7C190.5,148.5,189.5,148.2,188.3,148.2z M199.5,139.7l0.7,4.3
		c-0.1,0-0.2,0-0.4,0c-0.1,0-0.3,0-0.4,0c-1.3,0-2.3,0.3-3,0.9c-0.7,0.6-1,1.4-1,2.5l-2.4-1c0-1.2,0.2-2.3,0.7-3.3
		c0.5-1,1.2-1.8,2.1-2.4c0.9-0.6,2-0.9,3.3-0.9c0.1,0,0.1,0,0.2,0C199.4,139.7,199.4,139.7,199.5,139.7z"/>
	<path class="st1" d="M203.4,166.7v-21.8h5.4l0.3,6.6l-0.7-0.7c0.3-1.4,0.9-2.6,1.7-3.5c0.8-0.9,1.7-1.6,2.8-2.1
		c1.1-0.5,2.3-0.7,3.6-0.7c1.5,0,2.9,0.3,4,0.9c1.2,0.6,2.1,1.5,2.8,2.6c0.7,1.2,1,2.7,1,4.4v14.3h-6v-12.6c0-1.9-0.4-3.2-1.1-3.9
		c-0.7-0.7-1.7-1.1-2.8-1.1c-0.8,0-1.6,0.2-2.4,0.6s-1.4,1-1.9,1.9c-0.5,0.9-0.7,2-0.7,3.5v11.6H203.4z"/>
	<path class="st1" d="M233.4,141.7c-1.3,0-2.2-0.3-2.8-0.8c-0.6-0.5-0.9-1.3-0.9-2.4c0-1.1,0.3-1.9,0.9-2.4c0.6-0.5,1.5-0.8,2.8-0.8
		c1.3,0,2.2,0.3,2.8,0.8c0.6,0.5,0.9,1.3,0.9,2.4c0,1-0.3,1.8-0.9,2.4C235.6,141.5,234.7,141.7,233.4,141.7z M236.4,144.9v21.8h-6
		v-21.8H236.4z"/>
	<path class="st1" d="M242.7,166.7v-21.8h5.4l0.3,6.6l-0.7-0.7c0.3-1.4,0.9-2.6,1.7-3.5c0.8-0.9,1.7-1.6,2.8-2.1
		c1.1-0.5,2.3-0.7,3.6-0.7c1.5,0,2.9,0.3,4,0.9c1.2,0.6,2.1,1.5,2.8,2.6c0.7,1.2,1,2.7,1,4.4v14.3h-6v-12.6c0-1.9-0.4-3.2-1.1-3.9
		c-0.7-0.7-1.7-1.1-2.8-1.1c-0.8,0-1.6,0.2-2.4,0.6s-1.4,1-1.9,1.9c-0.5,0.9-0.7,2-0.7,3.5v11.6H242.7z"/>
	<path class="st1" d="M282.8,162.6c2.4,0,4.2,0.5,5.5,1.5c1.3,1,1.9,2.4,1.9,4.3c0,1.7-0.5,3.1-1.4,4.2c-1,1.2-2.3,2-4,2.6
		c-1.7,0.6-3.7,0.9-6,0.9c-3.8,0-6.5-0.5-8.2-1.6s-2.6-2.4-2.6-4.1c0-1.2,0.5-2.2,1.4-3c0.9-0.8,2.4-1.3,4.6-1.4l-0.2,0.7
		c-1.5-0.3-2.7-0.8-3.5-1.5s-1.2-1.8-1.2-3.1c0-1.3,0.5-2.4,1.6-3.3c1-0.9,2.4-1.4,4.2-1.5l2.6,1.2h-0.6c-1.3,0.1-2.1,0.3-2.6,0.8
		c-0.5,0.4-0.8,0.9-0.8,1.4c0,0.6,0.2,1.1,0.7,1.4c0.5,0.3,1.2,0.5,2.1,0.5H282.8z M278.7,144.4c2,0,3.8,0.3,5.3,0.9
		c1.5,0.6,2.7,1.4,3.5,2.6c0.8,1.1,1.2,2.4,1.2,4c0,1.5-0.4,2.8-1.2,3.9c-0.8,1.1-2,2-3.5,2.6c-1.5,0.6-3.3,0.9-5.3,0.9
		c-3.2,0-5.7-0.7-7.4-2c-1.7-1.3-2.6-3.1-2.6-5.4c0-1.5,0.4-2.9,1.2-4c0.8-1.1,1.9-2,3.4-2.6C274.9,144.7,276.7,144.4,278.7,144.4z
		 M278.7,172c1.5,0,2.8-0.1,3.7-0.4s1.7-0.6,2.2-1c0.5-0.4,0.7-0.9,0.7-1.4c0-0.6-0.2-1-0.7-1.3c-0.4-0.3-1.2-0.5-2.4-0.5h-7.4
		c-0.7,0-1.3,0.2-1.7,0.5c-0.5,0.3-0.7,0.8-0.7,1.4c0,0.8,0.5,1.5,1.6,1.9C275.3,171.8,276.8,172,278.7,172z M278.7,148.2
		c-1.2,0-2.1,0.3-2.9,1c-0.8,0.6-1.1,1.5-1.1,2.7c0,1.1,0.4,2,1.1,2.7c0.8,0.7,1.7,1,2.9,1c1.2,0,2.1-0.3,2.9-1
		c0.7-0.7,1.1-1.6,1.1-2.7c0-1.1-0.4-2-1.1-2.7C280.9,148.5,279.9,148.2,278.7,148.2z M289.9,139.7l0.7,4.3c-0.1,0-0.2,0-0.4,0
		c-0.1,0-0.3,0-0.4,0c-1.3,0-2.3,0.3-3,0.9c-0.7,0.6-1,1.4-1,2.5l-2.4-1c0-1.2,0.2-2.3,0.7-3.3s1.2-1.8,2.1-2.4
		c0.9-0.6,2-0.9,3.3-0.9c0.1,0,0.1,0,0.2,0C289.8,139.7,289.8,139.7,289.9,139.7z"/>
	<path class="st1" d="M101.3,197.3v4.5H84.9v-4.5H101.3z M96.9,187.3c1,0,1.9,0.1,2.8,0.3c0.8,0.2,1.4,0.5,1.9,0.8l-0.8,4
		c-0.3-0.2-0.7-0.4-1.1-0.5c-0.4-0.1-0.9-0.2-1.4-0.2c-1.1,0-2,0.3-2.7,0.8c-0.7,0.5-1,1.4-1,2.6v3l0.3,1.2v19.8h-6v-24.5
		c0-1.2,0.2-2.3,0.6-3.2c0.4-0.9,1-1.7,1.7-2.3c0.7-0.6,1.6-1.1,2.6-1.4C94.6,187.5,95.7,187.3,96.9,187.3z"/>
	<path class="st1" d="M114.5,196.9c2.2,0,4.2,0.5,5.8,1.4c1.7,0.9,3,2.2,3.9,3.9c0.9,1.7,1.4,3.7,1.4,6.1c0,2.4-0.5,4.4-1.4,6.1
		c-0.9,1.7-2.3,3-3.9,3.9c-1.7,0.9-3.6,1.4-5.8,1.4c-2.2,0-4.1-0.5-5.8-1.4c-1.7-0.9-3-2.2-4-3.9c-0.9-1.7-1.4-3.7-1.4-6.1
		c0-2.4,0.5-4.4,1.4-6.1c0.9-1.7,2.3-3,4-3.9C110.4,197.3,112.3,196.9,114.5,196.9z M114.5,201.3c-1.1,0-2,0.3-2.8,0.8
		c-0.8,0.5-1.4,1.3-1.8,2.3c-0.4,1-0.6,2.3-0.6,3.8s0.2,2.8,0.6,3.8c0.4,1,1,1.8,1.8,2.3c0.8,0.5,1.7,0.8,2.8,0.8
		c1.1,0,2-0.3,2.8-0.8c0.8-0.5,1.4-1.3,1.8-2.3c0.4-1,0.6-2.3,0.6-3.8s-0.2-2.8-0.6-3.8c-0.4-1-1-1.8-1.8-2.3
		C116.5,201.6,115.6,201.3,114.5,201.3z"/>
	<path class="st1" d="M130.7,219.2v-21.8h5.2l0.4,4.3c0.6-1.5,1.4-2.7,2.6-3.5c1.1-0.8,2.5-1.2,4.2-1.2c0.5,0,0.9,0,1.4,0.1
		c0.4,0.1,0.7,0.2,1,0.3l-0.7,5c-0.3-0.1-0.6-0.2-1.1-0.3c-0.4-0.1-1-0.1-1.6-0.1c-0.9,0-1.7,0.2-2.5,0.6c-0.8,0.4-1.5,1.1-2,1.9
		c-0.5,0.9-0.8,1.9-0.8,3.3v11.3H130.7z"/>
	<path class="st1" d="M185.9,190.3l-10.5,28.8h-7l-10.5-28.8h6.4l6.1,18.4l1.7,5.7l1.6-5.6l6.1-18.4H185.9z"/>
	<path class="st1" d="M197.3,196.9c2.2,0,4.2,0.5,5.8,1.4c1.7,0.9,3,2.2,3.9,3.9c0.9,1.7,1.4,3.7,1.4,6.1c0,2.4-0.5,4.4-1.4,6.1
		c-0.9,1.7-2.3,3-3.9,3.9c-1.7,0.9-3.6,1.4-5.8,1.4c-2.2,0-4.1-0.5-5.8-1.4c-1.7-0.9-3-2.2-4-3.9c-0.9-1.7-1.4-3.7-1.4-6.1
		c0-2.4,0.5-4.4,1.4-6.1c0.9-1.7,2.3-3,4-3.9S195.1,196.9,197.3,196.9z M197.3,201.3c-1.1,0-2,0.3-2.8,0.8c-0.8,0.5-1.4,1.3-1.8,2.3
		c-0.4,1-0.6,2.3-0.6,3.8s0.2,2.8,0.6,3.8c0.4,1,1,1.8,1.8,2.3c0.8,0.5,1.7,0.8,2.8,0.8c1.1,0,2-0.3,2.8-0.8
		c0.8-0.5,1.4-1.3,1.8-2.3c0.4-1,0.6-2.3,0.6-3.8s-0.2-2.8-0.6-3.8c-0.4-1-1-1.8-1.8-2.3C199.3,201.6,198.3,201.3,197.3,201.3z"/>
	<path class="st1" d="M216.5,194.2c-1.3,0-2.2-0.3-2.8-0.8c-0.6-0.5-0.9-1.3-0.9-2.4c0-1.1,0.3-1.9,0.9-2.4c0.6-0.5,1.5-0.8,2.8-0.8
		c1.3,0,2.2,0.3,2.8,0.8c0.6,0.5,0.9,1.3,0.9,2.4c0,1-0.3,1.8-0.9,2.4C218.7,193.9,217.7,194.2,216.5,194.2z M219.5,197.3v21.8h-6
		v-21.8H219.5z"/>
	<path class="st1" d="M235.7,196.9c2,0,3.6,0.3,5,0.9c1.4,0.6,2.4,1.3,3.3,2.3c0.8,1,1.4,2.1,1.8,3.3l-5.6,2c-0.3-1.3-0.8-2.3-1.5-3
		c-0.7-0.7-1.6-1-2.8-1c-1.1,0-2.1,0.3-2.8,0.8c-0.8,0.5-1.4,1.3-1.8,2.3c-0.4,1-0.6,2.3-0.6,3.9c0,1.5,0.2,2.8,0.6,3.8
		c0.4,1,1,1.8,1.8,2.3c0.8,0.5,1.7,0.7,2.8,0.7c0.9,0,1.6-0.2,2.2-0.5c0.6-0.3,1.1-0.8,1.5-1.3c0.4-0.6,0.7-1.3,0.8-2.1l5.4,1.7
		c-0.3,1.3-0.9,2.5-1.8,3.5s-2,1.8-3.4,2.3c-1.4,0.6-3,0.8-4.8,0.8c-2.2,0-4.2-0.5-5.9-1.4c-1.7-0.9-3-2.2-4-3.9
		c-0.9-1.7-1.4-3.7-1.4-6.1c0-2.4,0.5-4.4,1.4-6.1c0.9-1.7,2.2-3,3.9-3.9S233.5,196.9,235.7,196.9z"/>
	<path class="st1" d="M260.6,219.6c-2.3,0-4.3-0.5-6-1.4c-1.7-0.9-3-2.2-4-3.9c-0.9-1.7-1.4-3.7-1.4-6.1c0-2.4,0.5-4.4,1.4-6.1
		c0.9-1.7,2.2-3,3.9-3.9c1.7-0.9,3.6-1.4,5.7-1.4c2.2,0,4.1,0.4,5.6,1.3c1.5,0.9,2.7,2.1,3.5,3.6c0.8,1.5,1.2,3.3,1.2,5.2
		c0,0.6,0,1.1,0,1.7c0,0.5-0.1,1-0.1,1.4h-17.4V206h14.8l-2.9,1c0-1.8-0.4-3.2-1.2-4.2c-0.8-1-2-1.5-3.5-1.5c-1.1,0-2.1,0.3-2.9,0.8
		c-0.8,0.5-1.4,1.3-1.8,2.3c-0.4,1-0.6,2.3-0.6,3.9c0,1.5,0.2,2.8,0.7,3.8c0.5,1,1.1,1.8,1.9,2.2c0.8,0.5,1.8,0.7,3,0.7
		c1.3,0,2.3-0.2,3.1-0.7c0.8-0.5,1.4-1.2,1.8-2.1l4.8,1.8c-0.5,1.1-1.2,2.1-2.1,2.9c-0.9,0.8-2.1,1.4-3.4,1.9
		C263.4,219.4,262.1,219.6,260.6,219.6z"/>
	<path class="st1" d="M93.8,242.8v28.8h-6v-28.8H93.8z"/>
	<path class="st1" d="M100.6,271.6v-21.8h5.4l0.3,6.6l-0.7-0.7c0.3-1.4,0.9-2.6,1.7-3.5c0.8-0.9,1.7-1.6,2.8-2.1
		c1.1-0.5,2.3-0.7,3.6-0.7c1.5,0,2.9,0.3,4,0.9c1.2,0.6,2.1,1.5,2.8,2.6c0.7,1.2,1,2.7,1,4.4v14.3h-6V259c0-1.9-0.4-3.2-1.1-3.9
		c-0.7-0.7-1.7-1.1-2.8-1.1c-0.8,0-1.6,0.2-2.4,0.6c-0.8,0.4-1.4,1-1.9,1.9s-0.7,2-0.7,3.5v11.6H100.6z"/>
	<path class="st1" d="M127.6,280.8v-31h5.4l0.4,6.9l-0.7-0.8c0.3-1.3,0.7-2.4,1.5-3.4c0.7-1,1.6-1.8,2.7-2.3
		c1.1-0.6,2.3-0.9,3.7-0.9c1.8,0,3.4,0.5,4.8,1.4c1.4,0.9,2.5,2.2,3.3,3.9c0.8,1.7,1.2,3.7,1.2,6.1s-0.4,4.4-1.2,6.1
		c-0.8,1.7-1.9,3-3.3,3.9c-1.4,0.9-3,1.4-4.8,1.4c-1.9,0-3.5-0.5-4.8-1.6c-1.3-1.1-2.1-2.4-2.6-4.1l0.6-0.9v15.3H127.6z
		 M138.7,267.4c1.6,0,2.9-0.6,3.8-1.7c0.9-1.2,1.4-2.8,1.4-5c0-2.2-0.4-3.9-1.3-5c-0.9-1.2-2.1-1.7-3.7-1.7c-1,0-1.9,0.3-2.7,0.8
		c-0.8,0.5-1.4,1.3-1.8,2.3s-0.7,2.2-0.7,3.6c0,1.4,0.2,2.6,0.6,3.6c0.4,1,1,1.8,1.8,2.3C136.7,267.2,137.6,267.4,138.7,267.4z"/>
	<path class="st1" d="M162.6,272c-1.5,0-2.8-0.3-3.9-0.8c-1.2-0.5-2.1-1.4-2.8-2.5c-0.7-1.2-1-2.6-1-4.5v-14.5h6v13.1
		c0,1.7,0.3,2.9,1,3.5c0.7,0.7,1.7,1,3,1c0.6,0,1.2-0.1,1.8-0.3c0.6-0.2,1.1-0.6,1.6-1c0.5-0.5,0.8-1.1,1.1-1.8
		c0.3-0.7,0.4-1.6,0.4-2.6v-11.8h6v21.8h-5.3l-0.2-3.8c-0.7,1.5-1.7,2.5-3,3.2C165.9,271.7,164.4,272,162.6,272z"/>
	<path class="st1" d="M196.7,249.7v4.5h-17v-4.5H196.7z M189.7,243.1v21.4c0,1,0.3,1.8,0.8,2.3c0.5,0.5,1.3,0.7,2.2,0.7
		c0.7,0,1.4-0.1,1.9-0.3c0.6-0.2,1-0.5,1.5-0.9l1,4c-0.7,0.6-1.6,1-2.6,1.3s-2.2,0.5-3.3,0.5c-1.5,0-2.7-0.2-3.9-0.7
		c-1.1-0.4-2-1.1-2.6-2.1c-0.6-1-0.9-2.2-0.9-3.8v-20.7L189.7,243.1z"/>
</g>
</svg>
