<?xml version="1.0" encoding="utf-8"?>
<!-- Generator: Adobe Illustrator 24.1.2, SVG Export Plug-In . SVG Version: 6.00 Build 0)  -->
<svg version="1.1" id="Layer_1" xmlns="http://www.w3.org/2000/svg" xmlns:xlink="http://www.w3.org/1999/xlink" x="0px" y="0px"
	 viewBox="0 0 372.2 424.6" style="enable-background:new 0 0 372.2 424.6;" xml:space="preserve">
<style type="text/css">
	.st0{fill:#4E7FFF;}
	.st1{fill:#FFFFFF;}
</style>
<path class="st0" d="M188.5,347.2C108.8,324,41.6,261.4,12.6,183.7C-3.6,140.1-7.1,87.9,19.7,49.9c18.5-26.2,49.2-42,80.8-47.5
	c70-12.3,142.5,23.4,188.3,77.8s68.2,124.9,79.5,195.1c6.3,39.2,8,83.7-17.9,113.8c-16.2,18.8-40.7,28.5-65.2,32.7
	C180.3,440.1,80.5,370,62.2,265.1c-0.3-1.5-0.5-2.9-0.7-4.4"/>
<g>
	<path class="st1" d="M94.4,151.1h14.4v4.6H88.6v-27.4h5.7V151.1z"/>
	<path class="st1" d="M124.8,142.4c0-1.2-0.3-2.1-1-2.8c-0.7-0.7-1.6-1-2.7-1c-1,0-1.9,0.3-2.7,0.8c-0.8,0.5-1.3,1.4-1.7,2.6
		l-4.9-1.5c0.5-1.8,1.5-3.3,3.1-4.4c1.6-1.1,3.7-1.7,6.4-1.7c1.8,0,3.4,0.3,4.8,0.9c1.4,0.6,2.4,1.4,3.2,2.6
		c0.8,1.1,1.1,2.6,1.1,4.3v8.4c0,1.1,0.5,1.6,1.5,1.6c0.5,0,0.9-0.1,1.3-0.2l-0.3,3.5c-0.7,0.4-1.6,0.5-2.7,0.5
		c-1,0-1.8-0.2-2.6-0.5c-0.8-0.3-1.4-0.8-1.8-1.5c-0.4-0.7-0.7-1.5-0.7-2.6v-0.2l1-0.2c-0.2,1.1-0.6,1.9-1.4,2.7
		c-0.7,0.7-1.7,1.3-2.7,1.7c-1.1,0.4-2.2,0.6-3.3,0.6c-1.4,0-2.6-0.2-3.7-0.6c-1-0.4-1.8-1.1-2.4-1.9c-0.6-0.8-0.8-1.9-0.8-3.1
		c0-1.5,0.5-2.8,1.5-3.8c1-1,2.4-1.7,4.3-2l7.8-1.6l0,3.5l-5,1c-0.9,0.2-1.7,0.5-2.1,0.8c-0.5,0.3-0.7,0.8-0.7,1.6
		c0,0.7,0.3,1.2,0.8,1.6c0.5,0.4,1.1,0.5,1.8,0.5c0.6,0,1.1-0.1,1.7-0.2c0.6-0.1,1.1-0.4,1.5-0.7c0.4-0.3,0.8-0.7,1-1.2
		c0.2-0.5,0.4-1.2,0.4-1.9V142.4z"/>
	<path class="st1" d="M144.6,156.1c-1.7,0-3.2-0.4-4.6-1.3c-1.3-0.9-2.4-2.1-3.2-3.7c-0.8-1.6-1.1-3.5-1.1-5.8
		c0-2.3,0.4-4.3,1.2-5.9c0.8-1.6,1.9-2.8,3.3-3.7c1.4-0.8,2.9-1.3,4.6-1.3c1.8,0,3.3,0.5,4.5,1.6c1.2,1.1,2,2.4,2.3,4.1l-0.5,0.7
		v-15h5.7v29.8h-5.1l-0.4-6.3l0.7,0.3c-0.2,1.3-0.6,2.4-1.3,3.4c-0.7,1-1.6,1.7-2.6,2.2C147,155.8,145.9,156.1,144.6,156.1z
		 M146.2,151.7c1,0,1.9-0.3,2.6-0.8c0.7-0.5,1.3-1.3,1.7-2.3c0.4-1,0.6-2.2,0.6-3.6c0-1.3-0.2-2.5-0.6-3.4c-0.4-0.9-0.9-1.6-1.7-2.1
		c-0.7-0.5-1.6-0.7-2.5-0.7c-1.5,0-2.8,0.5-3.6,1.6c-0.9,1.1-1.3,2.7-1.3,4.8c0,2.1,0.4,3.7,1.3,4.8
		C143.5,151.2,144.7,151.7,146.2,151.7z"/>
	<path class="st1" d="M170.6,156.1c-1.7,0-3.2-0.4-4.6-1.3c-1.3-0.9-2.4-2.1-3.2-3.7c-0.8-1.6-1.1-3.5-1.1-5.8
		c0-2.3,0.4-4.3,1.2-5.9c0.8-1.6,1.9-2.8,3.3-3.7c1.4-0.8,2.9-1.3,4.6-1.3c1.8,0,3.3,0.5,4.5,1.6c1.2,1.1,2,2.4,2.3,4.1l-0.5,0.7
		v-15h5.7v29.8h-5.1l-0.4-6.3l0.7,0.3c-0.2,1.3-0.6,2.4-1.3,3.4c-0.7,1-1.6,1.7-2.6,2.2C173,155.8,171.9,156.1,170.6,156.1z
		 M172.3,151.7c1,0,1.9-0.3,2.6-0.8c0.7-0.5,1.3-1.3,1.7-2.3c0.4-1,0.6-2.2,0.6-3.6c0-1.3-0.2-2.5-0.6-3.4c-0.4-0.9-0.9-1.6-1.7-2.1
		c-0.7-0.5-1.6-0.7-2.5-0.7c-1.5,0-2.8,0.5-3.6,1.6c-0.9,1.1-1.3,2.7-1.3,4.8c0,2.1,0.4,3.7,1.3,4.8
		C169.6,151.2,170.7,151.7,172.3,151.7z"/>
	<path class="st1" d="M198.4,156.1c-2.2,0-4.1-0.4-5.7-1.3c-1.6-0.9-2.9-2.1-3.8-3.7c-0.9-1.6-1.3-3.5-1.3-5.8
		c0-2.3,0.4-4.2,1.3-5.8c0.9-1.6,2.1-2.8,3.7-3.7c1.6-0.9,3.4-1.3,5.5-1.3c2.1,0,3.9,0.4,5.4,1.3c1.5,0.8,2.6,2,3.4,3.4
		c0.8,1.5,1.2,3.1,1.2,5c0,0.6,0,1.1,0,1.6s-0.1,0.9-0.1,1.3h-16.6v-3.9h14.1l-2.7,1c0-1.7-0.4-3.1-1.2-4c-0.8-0.9-1.9-1.4-3.3-1.4
		c-1.1,0-2,0.2-2.7,0.7c-0.8,0.5-1.3,1.2-1.7,2.2c-0.4,1-0.6,2.2-0.6,3.7c0,1.5,0.2,2.7,0.6,3.6c0.4,1,1,1.7,1.8,2.1
		c0.8,0.5,1.7,0.7,2.8,0.7c1.2,0,2.2-0.2,2.9-0.7c0.7-0.5,1.3-1.1,1.7-2l4.5,1.7c-0.4,1.1-1.1,2-2,2.8c-0.9,0.8-2,1.4-3.2,1.8
		C201.2,155.9,199.8,156.1,198.4,156.1z"/>
	<path class="st1" d="M212.8,155.7v-20.8h4.9l0.4,4.1c0.6-1.4,1.4-2.5,2.4-3.3c1.1-0.8,2.4-1.2,4-1.2c0.5,0,0.9,0,1.3,0.1
		s0.7,0.2,1,0.3l-0.7,4.8c-0.3-0.1-0.6-0.2-1-0.2c-0.4-0.1-0.9-0.1-1.6-0.1c-0.8,0-1.6,0.2-2.4,0.6c-0.8,0.4-1.4,1-1.9,1.8
		c-0.5,0.8-0.7,1.8-0.7,3.1v10.7H212.8z"/>
	<path class="st1" d="M238.1,156.1c-2.1,0-4-0.4-5.7-1.1c-1.7-0.7-3.1-1.8-4.2-3.2l3.3-3.3c0.7,1,1.5,1.8,2.7,2.4
		c1.1,0.6,2.4,1,3.9,1c1.1,0,1.9-0.2,2.6-0.5c0.7-0.3,1-0.8,1-1.5c0-0.4-0.2-0.8-0.5-1.1c-0.3-0.3-0.9-0.6-1.8-0.8l-3.7-0.7
		c-2.4-0.5-4.1-1.3-5.1-2.3c-1-1-1.5-2.3-1.5-3.9c0-1.1,0.3-2.2,1-3.2c0.7-1,1.7-1.8,3.1-2.4c1.4-0.6,3-0.9,5.1-0.9
		c2.1,0,3.9,0.3,5.4,1c1.5,0.7,2.7,1.6,3.6,2.9l-3.4,3.3c-0.6-1-1.4-1.7-2.4-2.2c-1-0.5-2-0.8-3.1-0.8c-0.8,0-1.4,0.1-2,0.2
		c-0.6,0.2-1,0.4-1.2,0.7c-0.3,0.3-0.4,0.7-0.4,1.1c0,0.4,0.2,0.8,0.6,1.1c0.4,0.3,1.1,0.6,2.1,0.8l4.2,0.9c2,0.4,3.5,1.1,4.4,2.1
		c0.9,1,1.3,2.2,1.3,3.5c0,1.3-0.4,2.5-1.1,3.5c-0.7,1-1.7,1.9-3.1,2.4C241.8,155.8,240.1,156.1,238.1,156.1z"/>
	<path class="st1" d="M88.6,205.5v-27.4h20.5v4.6H94.4v6.8H106v4.4H94.4v7h15.4v4.6H88.6z"/>
	<path class="st1" d="M120.6,200.9h14.4v4.6h-20.2v-27.4h5.7V200.9z"/>
	<path class="st1" d="M150.8,177.7c2.7,0,5,0.6,7,1.7c2,1.1,3.5,2.8,4.5,4.9c1.1,2.1,1.6,4.6,1.6,7.6c0,2.9-0.5,5.5-1.6,7.6
		c-1.1,2.1-2.6,3.7-4.5,4.9c-2,1.1-4.3,1.7-7,1.7c-2.7,0-5.1-0.6-7-1.7c-2-1.1-3.5-2.8-4.6-4.9c-1.1-2.1-1.6-4.6-1.6-7.6
		c0-2.9,0.5-5.5,1.6-7.6c1.1-2.1,2.6-3.7,4.6-4.9C145.7,178.2,148.1,177.7,150.8,177.7z M150.8,182.4c-1.5,0-2.9,0.4-3.9,1.1
		c-1.1,0.7-1.9,1.8-2.5,3.2c-0.6,1.4-0.9,3.1-0.9,5.2c0,2,0.3,3.7,0.9,5.1c0.6,1.4,1.4,2.5,2.5,3.2c1.1,0.7,2.4,1.1,3.9,1.1
		c1.5,0,2.8-0.4,3.9-1.1c1.1-0.7,1.9-1.8,2.5-3.2c0.6-1.4,0.9-3.1,0.9-5.1c0-2-0.3-3.8-0.9-5.2c-0.6-1.4-1.4-2.5-2.5-3.2
		C153.6,182.7,152.3,182.4,150.8,182.4z"/>
	<path class="st1" d="M110.3,227.9v4.6h-9.2v22.8h-5.7v-22.8h-9.2v-4.6H110.3z"/>
	<path class="st1" d="M111.7,255.3v-20.8h4.9l0.4,4.1c0.6-1.4,1.4-2.5,2.4-3.3c1.1-0.8,2.4-1.2,4-1.2c0.5,0,0.9,0,1.3,0.1
		c0.4,0.1,0.7,0.2,1,0.3l-0.7,4.8c-0.3-0.1-0.6-0.2-1-0.2c-0.4-0.1-0.9-0.1-1.6-0.1c-0.8,0-1.6,0.2-2.4,0.6c-0.8,0.4-1.4,1-1.9,1.8
		c-0.5,0.8-0.7,1.8-0.7,3.1v10.8H111.7z"/>
	<path class="st1" d="M140.6,242c0-1.2-0.3-2.1-1-2.8c-0.7-0.7-1.6-1-2.7-1c-1,0-1.9,0.3-2.7,0.8c-0.8,0.5-1.3,1.4-1.7,2.6l-4.9-1.5
		c0.5-1.8,1.5-3.3,3.1-4.4c1.6-1.1,3.7-1.7,6.4-1.7c1.8,0,3.4,0.3,4.8,0.9c1.4,0.6,2.4,1.4,3.2,2.6c0.8,1.1,1.1,2.6,1.1,4.3v8.4
		c0,1.1,0.5,1.6,1.5,1.6c0.5,0,0.9-0.1,1.3-0.2l-0.3,3.5c-0.7,0.4-1.6,0.5-2.7,0.5c-1,0-1.8-0.2-2.6-0.5c-0.8-0.3-1.4-0.8-1.8-1.5
		c-0.4-0.7-0.7-1.5-0.7-2.6v-0.2l1-0.2c-0.2,1.1-0.6,1.9-1.4,2.7s-1.7,1.3-2.7,1.7c-1.1,0.4-2.2,0.6-3.3,0.6c-1.4,0-2.6-0.2-3.7-0.6
		c-1-0.4-1.8-1.1-2.4-1.9c-0.6-0.8-0.8-1.9-0.8-3.1c0-1.5,0.5-2.8,1.5-3.8s2.4-1.7,4.3-2l7.8-1.6l0,3.5l-5,1
		c-0.9,0.2-1.7,0.5-2.1,0.8c-0.5,0.3-0.7,0.8-0.7,1.6c0,0.7,0.3,1.2,0.8,1.6c0.5,0.4,1.1,0.5,1.8,0.5c0.6,0,1.1-0.1,1.7-0.2
		c0.6-0.1,1.1-0.4,1.5-0.7c0.4-0.3,0.8-0.7,1-1.2c0.2-0.5,0.4-1.2,0.4-1.9V242z"/>
	<path class="st1" d="M162,234.1c1.9,0,3.4,0.3,4.7,0.8c1.3,0.5,2.3,1.3,3.1,2.2c0.8,0.9,1.3,2,1.7,3.1l-5.3,1.9
		c-0.3-1.2-0.7-2.2-1.4-2.8c-0.7-0.6-1.6-1-2.7-1c-1.1,0-2,0.2-2.7,0.7s-1.3,1.2-1.7,2.2c-0.4,1-0.6,2.2-0.6,3.7
		c0,1.5,0.2,2.7,0.6,3.7c0.4,1,1,1.7,1.7,2.2c0.8,0.5,1.7,0.7,2.7,0.7c0.8,0,1.5-0.1,2.1-0.4c0.6-0.3,1.1-0.7,1.4-1.3
		c0.4-0.6,0.6-1.2,0.8-2l5.1,1.7c-0.3,1.2-0.9,2.3-1.7,3.3c-0.8,0.9-1.9,1.7-3.2,2.2c-1.3,0.5-2.8,0.8-4.5,0.8c-2.1,0-4-0.4-5.6-1.3
		c-1.6-0.9-2.9-2.1-3.8-3.7c-0.9-1.6-1.3-3.5-1.3-5.8c0-2.3,0.4-4.2,1.3-5.8c0.9-1.6,2.1-2.8,3.7-3.7
		C158.1,234.5,159.9,234.1,162,234.1z"/>
	<path class="st1" d="M181.7,225.4v29.8H176v-29.8H181.7z M197.1,234.5l-9.6,10l-1.1,0.5l-6.2,6.7l-0.1-6.1l10.5-11.2H197.1z
		 M188.3,241.1l9.3,14.2h-6.4l-6.8-10.8L188.3,241.1z"/>
	<path class="st1" d="M209.6,255.7c-2.2,0-4.1-0.4-5.7-1.3c-1.6-0.9-2.9-2.1-3.8-3.7c-0.9-1.6-1.3-3.5-1.3-5.8
		c0-2.3,0.4-4.2,1.3-5.8c0.9-1.6,2.1-2.8,3.7-3.7c1.6-0.9,3.4-1.3,5.5-1.3c2.1,0,3.9,0.4,5.4,1.3c1.5,0.8,2.6,2,3.4,3.4
		c0.8,1.5,1.2,3.1,1.2,5c0,0.6,0,1.1,0,1.6s-0.1,0.9-0.1,1.3h-16.6v-3.9h14.1l-2.7,1c0-1.7-0.4-3.1-1.2-4c-0.8-0.9-1.9-1.4-3.3-1.4
		c-1.1,0-2,0.2-2.7,0.7s-1.3,1.2-1.7,2.2c-0.4,1-0.6,2.2-0.6,3.7c0,1.5,0.2,2.7,0.6,3.6c0.4,1,1,1.7,1.8,2.1
		c0.8,0.5,1.7,0.7,2.8,0.7c1.2,0,2.2-0.2,2.9-0.7c0.7-0.5,1.3-1.1,1.7-2l4.5,1.7c-0.4,1.1-1.1,2-2,2.8c-0.9,0.8-2,1.4-3.2,1.8
		C212.3,255.5,211,255.7,209.6,255.7z"/>
	<path class="st1" d="M224,255.3v-20.8h4.9l0.4,4.1c0.6-1.4,1.4-2.5,2.4-3.3s2.4-1.2,4-1.2c0.5,0,0.9,0,1.3,0.1s0.7,0.2,1,0.3
		l-0.7,4.8c-0.3-0.1-0.6-0.2-1-0.2s-0.9-0.1-1.6-0.1c-0.8,0-1.6,0.2-2.4,0.6c-0.8,0.4-1.4,1-1.9,1.8c-0.5,0.8-0.7,1.8-0.7,3.1v10.8
		H224z"/>
</g>
</svg>
