<?xml version="1.0" encoding="utf-8"?>
<!-- Generator: Adobe Illustrator 24.1.2, SVG Export Plug-In . SVG Version: 6.00 Build 0)  -->
<svg version="1.1" id="Layer_1" xmlns="http://www.w3.org/2000/svg" xmlns:xlink="http://www.w3.org/1999/xlink" x="0px" y="0px"
	 viewBox="0 0 562.3 571.9" style="enable-background:new 0 0 562.3 571.9;" xml:space="preserve">
<style type="text/css">
	.st0{fill:#BF271B;}
	.st1{fill:#FFFFFF;}
</style>
<path class="st0" d="M347,37.2C277.9,34.8,209.3,50.9,148.6,84C65.2,129.8-3,215.6,0.1,310.7c2.9,89.4,67.8,167,145.2,212
	c67.4,39.2,148,58.9,224.6,44.6s147.8-65.5,176.7-138c33.2-83.4,8.2-177.8-22.6-262.1c-24.2-66.4-58.5-138.4-124.9-163
	c-9.2-3.4-19.3-5.7-28.8-3.2c-17.1,4.5-26.8,24.1-25.8,41.8s10.2,33.8,19.7,48.8"/>
<g>
	<path class="st1" d="M188,271h17.9v5.7h-25v-33.9h7.1V271z"/>
	<path class="st1" d="M225.7,260.4c0-1.5-0.4-2.6-1.3-3.4c-0.8-0.8-1.9-1.2-3.3-1.2c-1.3,0-2.4,0.3-3.3,1s-1.7,1.7-2.1,3.2l-6-1.8
		c0.6-2.3,1.9-4.1,3.8-5.4c2-1.4,4.6-2.1,7.9-2.1c2.3,0,4.2,0.4,5.9,1.1c1.7,0.7,3,1.8,3.9,3.2c0.9,1.4,1.4,3.2,1.4,5.3v10.4
		c0,1.3,0.6,2,1.8,2c0.6,0,1.1-0.1,1.6-0.3l-0.4,4.4c-0.9,0.4-2,0.7-3.3,0.7c-1.2,0-2.3-0.2-3.2-0.6c-1-0.4-1.7-1-2.3-1.9
		c-0.5-0.8-0.8-1.9-0.8-3.2v-0.2l1.2-0.2c-0.2,1.3-0.8,2.4-1.7,3.3c-0.9,0.9-2,1.6-3.4,2.1c-1.3,0.5-2.7,0.7-4.1,0.7
		c-1.7,0-3.3-0.3-4.5-0.8s-2.2-1.3-2.9-2.3c-0.7-1-1-2.3-1-3.8c0-1.9,0.6-3.5,1.8-4.7c1.2-1.2,3-2,5.3-2.5l9.7-2l-0.1,4.4l-6.2,1.2
		c-1.2,0.2-2,0.6-2.6,0.9c-0.6,0.4-0.9,1-0.9,1.9c0,0.9,0.3,1.5,1,2c0.6,0.4,1.4,0.7,2.3,0.7c0.7,0,1.4-0.1,2.1-0.3
		c0.7-0.2,1.3-0.4,1.8-0.8c0.5-0.4,1-0.9,1.3-1.5c0.3-0.6,0.5-1.4,0.5-2.4V260.4z"/>
	<path class="st1" d="M250.1,277.2c-2.1,0-4-0.5-5.7-1.6c-1.7-1.1-3-2.6-3.9-4.6c-0.9-2-1.4-4.4-1.4-7.1c0-2.8,0.5-5.3,1.5-7.3
		c1-2,2.3-3.5,4-4.6c1.7-1,3.6-1.6,5.7-1.6c2.3,0,4.1,0.7,5.6,2s2.4,3,2.9,5l-0.7,0.8v-18.5h7v36.9h-6.3l-0.5-7.8l0.9,0.4
		c-0.2,1.6-0.8,3-1.6,4.2s-1.9,2.1-3.2,2.7C253.1,276.9,251.7,277.2,250.1,277.2z M252.2,271.9c1.2,0,2.3-0.3,3.2-1
		c0.9-0.6,1.6-1.6,2.1-2.8c0.5-1.2,0.7-2.7,0.7-4.4c0-1.6-0.2-3-0.7-4.2c-0.5-1.1-1.2-2-2.1-2.6c-0.9-0.6-1.9-0.9-3.1-0.9
		c-1.9,0-3.4,0.7-4.5,2c-1.1,1.4-1.6,3.3-1.6,5.9c0,2.6,0.5,4.6,1.6,5.9C248.8,271.2,250.3,271.9,252.2,271.9z"/>
	<path class="st1" d="M282.3,277.2c-2.1,0-4-0.5-5.7-1.6c-1.7-1.1-3-2.6-3.9-4.6c-0.9-2-1.4-4.4-1.4-7.1c0-2.8,0.5-5.3,1.5-7.3
		c1-2,2.3-3.5,4-4.6c1.7-1,3.6-1.6,5.7-1.6c2.3,0,4.1,0.7,5.6,2s2.4,3,2.9,5l-0.7,0.8v-18.5h7v36.9h-6.3l-0.5-7.8l0.9,0.4
		c-0.2,1.6-0.8,3-1.6,4.2s-1.9,2.1-3.2,2.7C285.3,276.9,283.9,277.2,282.3,277.2z M284.4,271.9c1.2,0,2.3-0.3,3.2-1
		c0.9-0.6,1.6-1.6,2.1-2.8c0.5-1.2,0.7-2.7,0.7-4.4c0-1.6-0.2-3-0.7-4.2c-0.5-1.1-1.2-2-2.1-2.6c-0.9-0.6-1.9-0.9-3.1-0.9
		c-1.9,0-3.4,0.7-4.5,2c-1.1,1.4-1.6,3.3-1.6,5.9c0,2.6,0.5,4.6,1.6,5.9C281,271.2,282.5,271.9,284.4,271.9z"/>
	<path class="st1" d="M316.7,277.2c-2.7,0-5.1-0.5-7.1-1.6c-2-1.1-3.6-2.6-4.6-4.6c-1.1-2-1.6-4.4-1.6-7.2c0-2.8,0.5-5.2,1.6-7.2
		c1.1-2,2.6-3.5,4.6-4.6c2-1.1,4.2-1.6,6.8-1.6c2.6,0,4.8,0.5,6.6,1.6c1.8,1,3.2,2.5,4.2,4.3c1,1.8,1.4,3.8,1.4,6.1
		c0,0.7,0,1.3-0.1,2s-0.1,1.2-0.2,1.6h-20.5v-4.9h17.4l-3.4,1.2c0-2.2-0.5-3.8-1.5-5c-1-1.2-2.4-1.7-4.1-1.7c-1.3,0-2.4,0.3-3.4,0.9
		s-1.7,1.5-2.1,2.7s-0.7,2.7-0.7,4.6c0,1.8,0.3,3.3,0.8,4.5c0.5,1.2,1.3,2.1,2.3,2.6s2.1,0.9,3.5,0.9c1.5,0,2.7-0.3,3.6-0.9
		c0.9-0.6,1.6-1.4,2.2-2.4l5.6,2.2c-0.5,1.3-1.4,2.5-2.5,3.4c-1.1,1-2.4,1.7-4,2.2C320.1,277,318.5,277.2,316.7,277.2z"/>
	<path class="st1" d="M334.5,276.7v-25.7h6.1l0.5,5c0.7-1.8,1.7-3.1,3-4.1c1.3-1,3-1.4,5-1.4c0.6,0,1.1,0.1,1.6,0.2
		c0.5,0.1,0.9,0.2,1.2,0.4L351,257c-0.3-0.1-0.8-0.2-1.3-0.3c-0.5-0.1-1.1-0.1-1.9-0.1c-1,0-2,0.2-3,0.7c-1,0.5-1.7,1.2-2.4,2.3
		s-0.9,2.3-0.9,3.8v13.3H334.5z"/>
	<path class="st1" d="M365.8,277.2c-2.6,0-5-0.5-7.1-1.4c-2.1-0.9-3.9-2.2-5.2-3.9l4.1-4.1c0.8,1.2,1.9,2.2,3.3,3
		c1.4,0.8,3,1.2,4.9,1.2c1.3,0,2.4-0.2,3.2-0.6s1.2-1,1.2-1.9c0-0.5-0.2-1-0.6-1.4c-0.4-0.4-1.1-0.7-2.3-1l-4.5-0.9
		c-3-0.6-5.1-1.5-6.3-2.8c-1.2-1.2-1.9-2.9-1.9-4.9c0-1.4,0.4-2.7,1.3-4c0.8-1.2,2.1-2.2,3.8-3s3.8-1.2,6.3-1.2
		c2.6,0,4.8,0.4,6.7,1.2c1.9,0.8,3.4,2,4.5,3.6l-4.2,4.1c-0.8-1.2-1.7-2.1-3-2.7c-1.2-0.6-2.5-1-3.8-1c-1,0-1.8,0.1-2.5,0.3
		c-0.7,0.2-1.2,0.5-1.5,0.8c-0.3,0.4-0.5,0.8-0.5,1.4s0.2,1,0.7,1.4s1.4,0.7,2.6,1l5.2,1.1c2.5,0.5,4.3,1.4,5.4,2.6
		c1.1,1.2,1.6,2.7,1.6,4.4c0,1.6-0.4,3.1-1.3,4.4c-0.9,1.3-2.2,2.3-3.9,3C370.4,276.9,368.3,277.2,365.8,277.2z"/>
	<path class="st1" d="M195.1,304.5c2.6,0,4.8,0.4,6.7,1.3s3.3,2.1,4.3,3.7c1,1.6,1.5,3.6,1.5,5.9c0,2.3-0.5,4.3-1.5,5.9
		c-1,1.6-2.4,2.9-4.3,3.7s-4.1,1.3-6.7,1.3H188v12h-7.1v-33.9H195.1z M194.1,320.7c2.1,0,3.7-0.5,4.8-1.4c1.1-0.9,1.6-2.2,1.6-4
		c0-1.8-0.5-3.1-1.6-4c-1.1-0.9-2.7-1.3-4.8-1.3H188v10.7H194.1z"/>
	<path class="st1" d="M213.4,338.3v-25.7h6.1l0.5,5c0.7-1.8,1.7-3.1,3-4.1c1.3-1,3-1.4,5-1.4c0.6,0,1.1,0.1,1.6,0.2
		c0.5,0.1,0.9,0.2,1.2,0.4l-0.8,5.9c-0.3-0.1-0.8-0.2-1.3-0.3c-0.5-0.1-1.1-0.1-1.9-0.1c-1,0-2,0.2-3,0.7c-1,0.5-1.7,1.2-2.4,2.3
		s-0.9,2.3-0.9,3.8v13.3H213.4z"/>
	<path class="st1" d="M246.2,312.2c2.6,0,4.9,0.5,6.9,1.6c2,1.1,3.5,2.6,4.6,4.6c1.1,2,1.7,4.4,1.7,7.2c0,2.8-0.6,5.2-1.7,7.2
		c-1.1,2-2.7,3.5-4.6,4.6c-2,1.1-4.3,1.6-6.9,1.6c-2.6,0-4.8-0.5-6.8-1.6c-2-1.1-3.5-2.6-4.6-4.6s-1.7-4.4-1.7-7.2
		c0-2.8,0.6-5.2,1.7-7.2c1.1-2,2.7-3.5,4.6-4.6C241.4,312.7,243.7,312.2,246.2,312.2z M246.2,317.4c-1.3,0-2.4,0.3-3.3,0.9
		c-0.9,0.6-1.6,1.5-2.1,2.7c-0.5,1.2-0.7,2.7-0.7,4.5c0,1.8,0.2,3.3,0.7,4.5c0.5,1.2,1.2,2.1,2.1,2.7s2,0.9,3.3,0.9
		c1.3,0,2.4-0.3,3.3-0.9s1.6-1.5,2.1-2.7c0.5-1.2,0.7-2.7,0.7-4.5c0-1.8-0.2-3.3-0.7-4.5c-0.5-1.2-1.2-2.1-2.1-2.7
		C248.6,317.7,247.5,317.4,246.2,317.4z"/>
	<path class="st1" d="M275,338.9c-2.1,0-4-0.5-5.7-1.6c-1.7-1.1-3-2.6-3.9-4.6c-0.9-2-1.4-4.4-1.4-7.1c0-2.8,0.5-5.3,1.5-7.3
		c1-2,2.3-3.5,4-4.6c1.7-1,3.6-1.6,5.7-1.6c2.3,0,4.1,0.7,5.6,2s2.4,3,2.9,5L283,320v-18.5h7v36.9h-6.3l-0.5-7.8l0.9,0.4
		c-0.2,1.6-0.8,3-1.6,4.2s-1.9,2.1-3.2,2.7C278,338.5,276.6,338.9,275,338.9z M277,333.5c1.2,0,2.3-0.3,3.2-1
		c0.9-0.6,1.6-1.6,2.1-2.8c0.5-1.2,0.7-2.7,0.7-4.4c0-1.6-0.2-3-0.7-4.2c-0.5-1.1-1.2-2-2.1-2.6c-0.9-0.6-1.9-0.9-3.1-0.9
		c-1.9,0-3.4,0.7-4.5,2c-1.1,1.4-1.6,3.3-1.6,5.9c0,2.6,0.5,4.6,1.6,5.9C273.7,332.8,275.2,333.5,277,333.5z"/>
	<path class="st1" d="M306.4,338.9c-1.7,0-3.3-0.3-4.6-0.9s-2.5-1.6-3.3-3c-0.8-1.4-1.2-3.1-1.2-5.3v-17h7V328c0,2,0.4,3.4,1.2,4.1
		c0.8,0.8,2,1.2,3.5,1.2c0.7,0,1.4-0.1,2.1-0.4c0.7-0.3,1.3-0.7,1.8-1.2c0.5-0.5,1-1.3,1.3-2.1c0.3-0.9,0.5-1.9,0.5-3.1v-13.8h7
		v25.7h-6.3l-0.3-4.5c-0.9,1.7-2,3-3.5,3.8S308.5,338.9,306.4,338.9z"/>
	<path class="st1" d="M340.9,312.2c2.3,0,4.2,0.3,5.8,1c1.6,0.7,2.9,1.6,3.9,2.7c1,1.1,1.7,2.4,2.1,3.8l-6.6,2.4
		c-0.3-1.5-0.9-2.7-1.7-3.5c-0.8-0.8-1.9-1.2-3.3-1.2c-1.3,0-2.4,0.3-3.3,0.9c-0.9,0.6-1.6,1.5-2.1,2.7c-0.5,1.2-0.7,2.7-0.7,4.5
		s0.2,3.3,0.7,4.5s1.2,2.1,2.2,2.7s2,0.9,3.3,0.9c1,0,1.9-0.2,2.6-0.5s1.3-0.9,1.8-1.6c0.5-0.7,0.8-1.5,1-2.5l6.4,2.1
		c-0.4,1.5-1.1,2.9-2.1,4.1c-1,1.2-2.3,2.1-4,2.7c-1.6,0.6-3.5,1-5.6,1c-2.6,0-5-0.5-7-1.6c-2-1.1-3.6-2.6-4.7-4.6
		c-1.1-2-1.6-4.4-1.6-7.2c0-2.8,0.5-5.2,1.6-7.2c1.1-2,2.6-3.5,4.6-4.6C336,312.7,338.3,312.2,340.9,312.2z"/>
	<path class="st1" d="M375.5,312.7v5.2h-20v-5.2H375.5z M367.3,304.8V330c0,1.2,0.3,2.1,1,2.7c0.6,0.6,1.5,0.8,2.6,0.8
		c0.9,0,1.6-0.1,2.3-0.4c0.6-0.3,1.2-0.6,1.7-1.1l1.1,4.7c-0.8,0.7-1.8,1.2-3.1,1.5c-1.2,0.4-2.5,0.6-3.9,0.6
		c-1.7,0-3.2-0.3-4.5-0.8c-1.3-0.5-2.3-1.3-3.1-2.5c-0.7-1.1-1.1-2.6-1.1-4.5v-24.3L367.3,304.8z"/>
	<path class="st1" d="M194,366.1c5.3,0,9.4,1.5,12.3,4.4c2.9,2.9,4.4,7.1,4.4,12.6c0,5.4-1.5,9.6-4.4,12.5c-2.9,2.9-7,4.4-12.3,4.4
		h-13.1v-33.9H194z M193.6,394.3c3.2,0,5.6-1,7.3-2.9s2.4-4.7,2.4-8.4c0-3.7-0.8-6.5-2.4-8.4c-1.6-1.9-4-2.9-7.3-2.9H188v22.6H193.6
		z"/>
	<path class="st1" d="M229,400.5c-2.7,0-5.1-0.5-7.1-1.6c-2-1.1-3.6-2.6-4.6-4.6c-1.1-2-1.6-4.4-1.6-7.2c0-2.8,0.5-5.2,1.6-7.2
		c1.1-2,2.6-3.5,4.6-4.6c2-1.1,4.2-1.6,6.8-1.6c2.6,0,4.8,0.5,6.6,1.6c1.8,1,3.2,2.5,4.2,4.3c1,1.8,1.4,3.8,1.4,6.1
		c0,0.7,0,1.3-0.1,2s-0.1,1.2-0.2,1.6h-20.5v-4.9h17.4l-3.4,1.2c0-2.2-0.5-3.8-1.5-5c-1-1.2-2.4-1.7-4.1-1.7c-1.3,0-2.4,0.3-3.4,0.9
		s-1.7,1.5-2.1,2.7s-0.7,2.7-0.7,4.6c0,1.8,0.3,3.3,0.8,4.5c0.5,1.2,1.3,2.1,2.3,2.6s2.1,0.9,3.5,0.9c1.5,0,2.7-0.3,3.6-0.9
		c0.9-0.6,1.6-1.4,2.2-2.4l5.6,2.2c-0.5,1.3-1.4,2.5-2.5,3.4c-1.1,1-2.4,1.7-4,2.2C232.4,400.2,230.8,400.5,229,400.5z"/>
	<path class="st1" d="M257.1,400.5c-2.6,0-5-0.5-7.1-1.4c-2.1-0.9-3.9-2.2-5.2-3.9l4.1-4.1c0.8,1.2,1.9,2.2,3.3,3
		c1.4,0.8,3,1.2,4.9,1.2c1.3,0,2.4-0.2,3.2-0.6s1.2-1,1.2-1.9c0-0.5-0.2-1-0.6-1.4c-0.4-0.4-1.1-0.7-2.3-1l-4.5-0.9
		c-3-0.6-5.1-1.5-6.3-2.8c-1.2-1.2-1.9-2.9-1.9-4.9c0-1.4,0.4-2.7,1.3-4c0.8-1.2,2.1-2.2,3.8-3s3.8-1.2,6.3-1.2
		c2.6,0,4.8,0.4,6.7,1.2c1.9,0.8,3.4,2,4.5,3.6l-4.2,4.1c-0.8-1.2-1.7-2.1-3-2.7c-1.2-0.6-2.5-1-3.8-1c-1,0-1.8,0.1-2.5,0.3
		c-0.7,0.2-1.2,0.5-1.5,0.8c-0.3,0.4-0.5,0.8-0.5,1.4s0.2,1,0.7,1.4s1.4,0.7,2.6,1l5.2,1.1c2.5,0.5,4.3,1.4,5.4,2.6
		c1.1,1.2,1.6,2.7,1.6,4.4c0,1.6-0.4,3.1-1.3,4.4c-0.9,1.3-2.2,2.3-3.9,3C261.7,400.1,259.6,400.5,257.1,400.5z"/>
	<path class="st1" d="M277.7,370.6c-1.5,0-2.6-0.3-3.3-1c-0.7-0.6-1.1-1.6-1.1-2.8c0-1.3,0.4-2.2,1.1-2.8c0.7-0.6,1.8-1,3.3-1
		c1.5,0,2.6,0.3,3.3,1s1.1,1.6,1.1,2.8c0,1.2-0.4,2.2-1.1,2.8C280.2,370.3,279.1,370.6,277.7,370.6z M281.1,374.3V400h-7v-25.7
		H281.1z"/>
	<path class="st1" d="M303.8,395.1c2.8,0,4.9,0.6,6.4,1.8c1.5,1.2,2.3,2.9,2.3,5c0,2-0.6,3.6-1.7,5c-1.1,1.4-2.7,2.4-4.7,3.1
		c-2,0.7-4.4,1-7.1,1c-4.4,0-7.6-0.6-9.7-1.8c-2-1.2-3.1-2.8-3.1-4.8c0-1.4,0.5-2.6,1.6-3.5s2.9-1.5,5.4-1.6L293,400
		c-1.8-0.3-3.1-0.9-4.1-1.8c-0.9-0.9-1.4-2.1-1.4-3.6c0-1.6,0.6-2.9,1.8-3.9c1.2-1,2.9-1.6,5-1.8l3.1,1.4h-0.7
		c-1.5,0.1-2.5,0.4-3.1,0.9c-0.6,0.5-0.9,1.1-0.9,1.7c0,0.7,0.3,1.3,0.8,1.6c0.6,0.4,1.4,0.5,2.4,0.5H303.8z M299.1,373.8
		c2.4,0,4.5,0.4,6.2,1.1c1.8,0.7,3.1,1.7,4.1,3s1.4,2.9,1.4,4.7c0,1.8-0.5,3.3-1.4,4.6c-0.9,1.3-2.3,2.3-4.1,3
		c-1.8,0.7-3.8,1.1-6.2,1.1c-3.8,0-6.7-0.8-8.7-2.3c-2-1.6-3-3.7-3-6.3c0-1.8,0.5-3.4,1.4-4.7s2.3-2.3,4-3
		C294.6,374.1,296.7,373.8,299.1,373.8z M299.1,406.2c1.8,0,3.2-0.2,4.4-0.5c1.1-0.3,2-0.7,2.6-1.2c0.6-0.5,0.8-1,0.8-1.6
		c0-0.7-0.3-1.2-0.8-1.6c-0.5-0.4-1.4-0.6-2.8-0.6h-8.7c-0.8,0-1.5,0.2-2,0.6c-0.5,0.4-0.8,1-0.8,1.7c0,1,0.6,1.7,1.9,2.3
		C295,405.9,296.8,406.2,299.1,406.2z M299.1,378.2c-1.4,0-2.5,0.4-3.4,1.1c-0.9,0.8-1.3,1.8-1.3,3.1s0.4,2.4,1.3,3.2
		c0.9,0.8,2,1.2,3.4,1.2s2.5-0.4,3.4-1.2c0.9-0.8,1.3-1.8,1.3-3.2s-0.4-2.4-1.3-3.1C301.6,378.6,300.5,378.2,299.1,378.2z
		 M312.3,368.2l0.8,5c-0.1,0-0.3,0-0.4,0c-0.2,0-0.3,0-0.5,0c-1.6,0-2.8,0.4-3.5,1.1c-0.8,0.7-1.2,1.7-1.2,2.9l-2.9-1.2
		c0-1.4,0.3-2.6,0.8-3.8c0.5-1.2,1.4-2.1,2.4-2.8c1.1-0.7,2.4-1.1,3.9-1.1c0.1,0,0.2,0,0.3,0S312.2,368.2,312.3,368.2z"/>
	<path class="st1" d="M316.8,400v-25.7h6.3l0.4,7.7l-0.9-0.8c0.4-1.7,1.1-3.1,2-4.2c0.9-1.1,2-1.9,3.3-2.4c1.3-0.5,2.7-0.8,4.2-0.8
		c1.8,0,3.4,0.3,4.8,1c1.4,0.7,2.5,1.7,3.3,3.1c0.8,1.4,1.2,3.1,1.2,5.2V400h-7v-14.8c0-2.2-0.4-3.7-1.3-4.5c-0.9-0.8-2-1.3-3.3-1.3
		c-1,0-1.9,0.2-2.8,0.7s-1.6,1.2-2.2,2.2c-0.6,1-0.8,2.4-0.8,4.1V400H316.8z"/>
</g>
</svg>
