<svg id="Layer_1" data-name="Layer 1" xmlns="http://www.w3.org/2000/svg" viewBox="0 0 562.34 571.91"><defs><style>.cls-1{fill:#a56779;}.cls-2{fill:#fff;}</style></defs><title>ELO-2</title><path class="cls-1" d="M347,37.3A385.53,385.53,0,0,0,148.6,84.1C65.2,129.8-3,215.7.1,310.7c2.9,89.4,67.8,167,145.2,212,67.4,39.2,148,58.9,224.6,44.6s147.8-65.5,176.7-138c33.2-83.4,8.2-177.8-22.6-262.1C499.8,100.8,465.5,28.8,399.1,4.3c-9.2-3.4-19.3-5.7-28.8-3.2-17.1,4.5-26.8,24.1-25.8,41.8s10.2,33.8,19.7,48.8" transform="translate(0 -0.05)"/><path class="cls-2" d="M199.45,286.1H172v-43h27.46v6.13H178.81v11.91H194.9v6.12H178.81V280h20.64Z" transform="translate(0 -0.05)"/><path class="cls-2" d="M236.25,286.1H208.79v-43h6.82V280h20.64Z" transform="translate(0 -0.05)"/><path class="cls-2" d="M242.9,264.6a37.29,37.29,0,0,1,.92-8.32,22.47,22.47,0,0,1,2.86-7.08,15,15,0,0,1,5.09-4.92,16.42,16.42,0,0,1,15.18,0,15.22,15.22,0,0,1,5.11,4.92,21.37,21.37,0,0,1,2.87,7.08,39.33,39.33,0,0,1,0,16.64A22.72,22.72,0,0,1,272.1,280a15.74,15.74,0,0,1-20.4,5,15.06,15.06,0,0,1-5.1-5,22.25,22.25,0,0,1-2.83-7.11A39.07,39.07,0,0,1,242.9,264.6Zm6.81,0a37.67,37.67,0,0,0,.45,5.8,19,19,0,0,0,1.51,5.19,9.75,9.75,0,0,0,2.93,3.71,8.67,8.67,0,0,0,9.51,0,9.75,9.75,0,0,0,2.93-3.71,19,19,0,0,0,1.52-5.19,39,39,0,0,0,.44-5.8,38.56,38.56,0,0,0-.44-5.77,19.16,19.16,0,0,0-1.52-5.17,9.52,9.52,0,0,0-3-3.72,7.63,7.63,0,0,0-4.72-1.42,7.86,7.86,0,0,0-7.18,4.25Q249.72,257.05,249.71,264.62Z" transform="translate(0 -0.05)"/><path class="cls-2" d="M201,339.68H194.9v-9.51h-5.79v30.71h6.81V367H175.51v-6.12h6.78V330.17h-5.85v9.51h-6.06V324H201Z" transform="translate(0 -0.05)"/><path class="cls-2" d="M237.1,343.6a12.36,12.36,0,0,0-2.48-.91,12.19,12.19,0,0,0-2.91-.31,13.22,13.22,0,0,0-4.27.67,9.43,9.43,0,0,0-3.44,2,9.24,9.24,0,0,0-2.25,3.37,12.88,12.88,0,0,0-.81,4.79v7.64h6.88V367H207.18v-6.12h6.95v-18.4h-6.95v-6.16h13.76V344a11.81,11.81,0,0,1,5-6.51,15.08,15.08,0,0,1,7.78-1.91,16.37,16.37,0,0,1,3,.29,11.29,11.29,0,0,1,3,1.06Z" transform="translate(0 -0.05)"/><path class="cls-2" d="M243.85,358.18a7.87,7.87,0,0,1,1.45-4.72,11.86,11.86,0,0,1,3.8-3.38,19.1,19.1,0,0,1,5.4-2,28.61,28.61,0,0,1,6.21-.68c1.16,0,2.16,0,3,.07s1.68.11,2.54.2v-1.22a4,4,0,0,0-1.86-3.59,9,9,0,0,0-4.89-1.19,21.39,21.39,0,0,0-5.63.78,22.64,22.64,0,0,0-5.43,2.25l-2.77-5.33a29.53,29.53,0,0,1,6.5-2.75,26.27,26.27,0,0,1,7.33-1,21.34,21.34,0,0,1,4.92.56,13,13,0,0,1,4.35,1.84,9.65,9.65,0,0,1,3.07,3.34,10.27,10.27,0,0,1,1.16,5.09V367h-6.75v-4.54a10.52,10.52,0,0,1-4.76,3.91,16.49,16.49,0,0,1-6.76,1.39,14.18,14.18,0,0,1-4.23-.61,9.54,9.54,0,0,1-3.44-1.83,8.9,8.9,0,0,1-2.32-3A9.19,9.19,0,0,1,243.85,358.18Zm12.61,3.46a13.47,13.47,0,0,0,3.77-.51,11.21,11.21,0,0,0,3.11-1.41,6.87,6.87,0,0,0,2.12-2.18,5.3,5.3,0,0,0,.78-2.82v-1.15a24.61,24.61,0,0,0-3-.3l-2.5,0q-5,0-7.56,1.31c-1.7.88-2.55,2-2.55,3.25Q250.6,361.64,256.46,361.64Z" transform="translate(0 -0.05)"/><path class="cls-2" d="M310.32,362.65a16.05,16.05,0,0,1-6.24,4,22.57,22.57,0,0,1-7.1,1.08,20.14,20.14,0,0,1-7-1.15,15,15,0,0,1-5.33-3.25,13.9,13.9,0,0,1-3.36-5.05,17.86,17.86,0,0,1-1.17-6.62,17.5,17.5,0,0,1,1.17-6.46,15.79,15.79,0,0,1,3.15-5.11,14.45,14.45,0,0,1,4.69-3.32,13.87,13.87,0,0,1,5.72-1.2,11.09,11.09,0,0,1,5.49,1.31,7.7,7.7,0,0,1,3.38,3.86v-4.45h6.12v14.29h-6.12a9.23,9.23,0,0,0-2.21-6.47,7.47,7.47,0,0,0-5.76-2.42,8.79,8.79,0,0,0-5.82,2.37,9.71,9.71,0,0,0-2.14,3.1,10.88,10.88,0,0,0-.86,4.52,11.1,11.1,0,0,0,.82,4.44,8.61,8.61,0,0,0,5.31,4.88,12,12,0,0,0,3.77.61,14.79,14.79,0,0,0,5.77-1,13.69,13.69,0,0,0,4.22-2.75Z" transform="translate(0 -0.05)"/><path class="cls-2" d="M348.2,367h-8.82l-10.27-12.41L326,357.75V367H319.2V324H326v25.28l12.28-13h9.34l-14.15,14.09Z" transform="translate(0 -0.05)"/><path class="cls-2" d="M360.65,354.26a8.34,8.34,0,0,0,3,5.28,10.22,10.22,0,0,0,6.76,2.1,14.77,14.77,0,0,0,5.78-1,13.62,13.62,0,0,0,4.23-2.75l3.49,4.8a15.86,15.86,0,0,1-6.27,4,23.13,23.13,0,0,1-7.23,1.08,18.14,18.14,0,0,1-6.61-1.19,16.05,16.05,0,0,1-5.3-3.3,15.32,15.32,0,0,1-3.51-5.06,16.31,16.31,0,0,1-1.26-6.52,17.26,17.26,0,0,1,1.16-6.43,14.86,14.86,0,0,1,8.38-8.46,18.53,18.53,0,0,1,13.3.07,14.16,14.16,0,0,1,5.19,3.67,17.28,17.28,0,0,1,3.37,5.87,23.69,23.69,0,0,1,1.22,7.85Zm18-6a7.2,7.2,0,0,0-3.06-4.76,9.76,9.76,0,0,0-5.76-1.79,9.9,9.9,0,0,0-5.79,1.79,7.19,7.19,0,0,0-3.1,4.76Z" transform="translate(0 -0.05)"/><path class="cls-2" d="M421.12,343.6a12.23,12.23,0,0,0-2.49-.91,12.08,12.08,0,0,0-2.91-.31,13.2,13.2,0,0,0-4.26.67,9.34,9.34,0,0,0-3.44,2,9.14,9.14,0,0,0-2.26,3.37,12.89,12.89,0,0,0-.8,4.79v7.64h6.88V367H391.2v-6.12h6.94v-18.4H391.2v-6.16H405V344a11.84,11.84,0,0,1,5-6.51,15.12,15.12,0,0,1,7.79-1.91,16.37,16.37,0,0,1,3,.29,11.29,11.29,0,0,1,3,1.06Z" transform="translate(0 -0.05)"/></svg>