<?xml version="1.0" encoding="utf-8"?>
<!-- Generator: Adobe Illustrator 24.0.1, SVG Export Plug-In . SVG Version: 6.00 Build 0)  -->
<svg version="1.1" id="Layer_1" xmlns="http://www.w3.org/2000/svg" xmlns:xlink="http://www.w3.org/1999/xlink" x="0px" y="0px"
	 viewBox="0 0 562.3 571.9" style="enable-background:new 0 0 562.3 571.9;" xml:space="preserve">
<style type="text/css">
	.st0{fill:#A56779;}
	.st1{fill:#FFFFFF;}
</style>
<title>ELO-2</title>
<path class="st0" d="M347,37.2C277.9,34.8,209.3,50.9,148.6,84C65.2,129.8-3,215.6,0.1,310.7c2.9,89.4,67.8,167,145.2,212
	c67.4,39.2,148,58.9,224.6,44.6s147.8-65.5,176.7-138c33.2-83.4,8.2-177.8-22.6-262.1C499.8,100.8,465.5,28.8,399.1,4.2
	c-9.2-3.4-19.3-5.7-28.8-3.2c-17.1,4.5-26.8,24.1-25.8,41.8s10.2,33.8,19.7,48.8"/>
<path class="st1" d="M194.4,278.5h-22.7v-35.6h22.7v5.1h-17.1v9.9h13.3v5.1h-13.3v10.5h17.1V278.5z"/>
<path class="st1" d="M224.9,278.5h-22.7v-35.6h5.6v30.5h17.1V278.5z"/>
<path class="st1" d="M230.4,260.7c0-2.3,0.2-4.6,0.8-6.9c0.4-2.1,1.2-4.1,2.4-5.9c1.1-1.7,2.5-3.1,4.2-4.1c3.9-2.1,8.6-2.1,12.6,0
	c1.7,1,3.2,2.4,4.2,4.1c1.1,1.8,1.9,3.8,2.4,5.9c1,4.5,1,9.2,0,13.8c-0.4,2.1-1.2,4.1-2.3,5.9c-3.7,5.5-11,7.3-16.9,4.1
	c-1.7-1-3.2-2.4-4.2-4.1c-1.1-1.8-1.9-3.8-2.3-5.9C230.6,265.3,230.4,263,230.4,260.7z M236,260.7c0,1.6,0.1,3.2,0.4,4.8
	c0.2,1.5,0.6,2.9,1.2,4.3c0.5,1.2,1.4,2.3,2.4,3.1c2.4,1.6,5.5,1.6,7.9,0c1-0.8,1.9-1.9,2.4-3.1c0.6-1.4,1-2.8,1.3-4.3
	c0.2-1.6,0.4-3.2,0.4-4.8c0-1.6-0.1-3.2-0.4-4.8c-0.2-1.5-0.6-2.9-1.3-4.3c-0.6-1.2-1.4-2.3-2.5-3.1c-1.1-0.8-2.5-1.2-3.9-1.2
	c-2.5-0.1-4.8,1.3-5.9,3.5C236.7,253.3,236,256.6,236,260.7L236,260.7z"/>
<path class="st1" d="M195.7,322.8h-5V315h-4.8v25.4h5.6v5.1h-16.9v-5.1h5.6V315h-4.8v7.9h-5v-13h25.3V322.8z"/>
<path class="st1" d="M225.6,326.1c-0.7-0.3-1.3-0.6-2.1-0.8c-0.8-0.2-1.6-0.3-2.4-0.3c-1.2,0-2.4,0.2-3.5,0.6
	c-1.1,0.3-2,0.9-2.8,1.7c-0.8,0.8-1.5,1.7-1.9,2.8c-0.5,1.3-0.7,2.6-0.7,4v6.3h5.7v5.1h-17.1v-5.1h5.7v-15.2h-5.7V320h11.4v6.4
	c0.7-2.2,2.2-4.1,4.1-5.4c2-1.1,4.2-1.6,6.4-1.6c0.8,0,1.7,0.1,2.5,0.2c0.9,0.2,1.7,0.5,2.5,0.9L225.6,326.1z"/>
<path class="st1" d="M231.2,338.1c0-1.4,0.4-2.8,1.2-3.9c0.8-1.1,1.9-2.1,3.1-2.8c1.4-0.8,2.9-1.3,4.5-1.7c1.7-0.4,3.4-0.6,5.1-0.6
	c1,0,1.8,0,2.5,0.1c0.7,0.1,1.4,0.1,2.1,0.2v-1c0.1-1.2-0.5-2.3-1.5-3c-1.2-0.7-2.6-1-4-1c-1.6,0-3.1,0.2-4.7,0.6
	c-1.6,0.4-3.1,1-4.5,1.9l-2.3-4.4c1.7-1,3.5-1.7,5.4-2.3c2-0.6,4-0.8,6.1-0.8c1.4,0,2.7,0.2,4.1,0.5c1.3,0.3,2.5,0.8,3.6,1.5
	c1.1,0.7,1.9,1.7,2.5,2.8c0.7,1.3,1,2.7,1,4.2v17h-5.6v-3.8c-1,1.4-2.3,2.6-3.9,3.2c-1.8,0.8-3.7,1.2-5.6,1.1
	c-1.2,0-2.4-0.2-3.5-0.5c-1-0.3-2-0.8-2.8-1.5c-0.8-0.7-1.5-1.5-1.9-2.5C231.4,340.5,231.1,339.3,231.2,338.1z M241.6,341
	c1.1,0,2.1-0.1,3.1-0.4c0.9-0.3,1.8-0.6,2.6-1.2c0.7-0.5,1.3-1.1,1.8-1.8c0.4-0.7,0.7-1.5,0.6-2.3v-1c-0.8-0.1-1.7-0.2-2.5-0.2h-2.1
	c-2.8,0-4.8,0.4-6.3,1.1c-1.4,0.7-2.1,1.7-2.1,2.7C236.7,339.9,238.4,341,241.6,341L241.6,341z"/>
<path class="st1" d="M286.1,341.8c-1.4,1.5-3.2,2.6-5.2,3.3c-1.9,0.6-3.9,0.9-5.9,0.9c-2,0-3.9-0.3-5.8-1c-1.6-0.6-3.1-1.5-4.4-2.7
	c-1.2-1.2-2.2-2.6-2.8-4.2c-0.7-1.7-1-3.6-1-5.5c0-1.8,0.3-3.6,1-5.3c0.6-1.6,1.5-3,2.6-4.2c1.1-1.2,2.4-2.1,3.9-2.7
	c1.5-0.7,3.1-1,4.7-1c1.6,0,3.1,0.3,4.5,1.1c1.3,0.7,2.3,1.8,2.8,3.2V320h5.1v11.8h-5.1c0.1-2-0.6-3.9-1.8-5.4c-1.2-1.3-3-2.1-4.8-2
	c-1.8,0-3.5,0.7-4.8,2c-0.8,0.7-1.4,1.6-1.8,2.6c-0.5,1.2-0.7,2.5-0.7,3.7c0,1.3,0.2,2.5,0.7,3.7c0.8,1.9,2.4,3.4,4.4,4
	c1,0.3,2.1,0.5,3.1,0.5c1.6,0,3.3-0.2,4.8-0.8c1.3-0.5,2.5-1.3,3.5-2.3L286.1,341.8z"/>
<path class="st1" d="M317.5,345.4h-7.3l-8.5-10.3l-2.6,2.6v7.7h-5.6v-35.6h5.6v20.9l10.2-10.8h7.7l-11.7,11.7L317.5,345.4z"/>
<path class="st1" d="M327.8,334.9c0.2,1.7,1.1,3.3,2.5,4.4c1.6,1.2,3.6,1.8,5.6,1.7c1.6,0,3.3-0.2,4.8-0.8c1.3-0.5,2.5-1.3,3.5-2.3
	l2.9,4c-1.4,1.5-3.2,2.6-5.2,3.3c-1.9,0.6-4,0.9-6,0.9c-1.9,0-3.7-0.3-5.5-1c-1.6-0.6-3.1-1.5-4.4-2.7c-1.2-1.2-2.2-2.6-2.9-4.2
	c-0.7-1.7-1.1-3.5-1-5.4c0-1.8,0.3-3.6,1-5.3c1.2-3.2,3.7-5.7,6.9-7c3.5-1.3,7.5-1.3,11,0.1c1.6,0.7,3.1,1.7,4.3,3
	c1.2,1.4,2.2,3.1,2.8,4.9c0.7,2.1,1,4.3,1,6.5L327.8,334.9z M342.7,329.9c-0.3-1.6-1.2-3-2.5-3.9c-1.4-1-3.1-1.5-4.8-1.5
	c-1.7,0-3.4,0.5-4.8,1.5c-1.4,0.9-2.3,2.3-2.6,3.9H342.7z"/>
<path class="st1" d="M377.8,326.1c-0.7-0.3-1.3-0.6-2.1-0.8c-0.8-0.2-1.6-0.3-2.4-0.3c-1.2,0-2.4,0.2-3.5,0.6
	c-1.1,0.3-2,0.9-2.8,1.7c-0.8,0.8-1.5,1.7-1.9,2.8c-0.5,1.3-0.7,2.6-0.7,4v6.3h5.7v5.1H353v-5.1h5.7v-15.2H353V320h11.4v6.4
	c0.7-2.2,2.2-4.1,4.1-5.4c2-1.1,4.2-1.6,6.4-1.6c0.8,0,1.7,0.1,2.5,0.2c0.9,0.2,1.7,0.5,2.5,0.9L377.8,326.1z"/>
</svg>
