<svg id="Layer_1" xmlns="http://www.w3.org/2000/svg" viewBox="0 0 547.3 589.3"><style>.st0{fill:#231f20}.st1{enable-background:new}.st2{fill:#fff}.st3{fill:#606161}</style><path class="st0" d="M244.1 486.1c3.2 0 3.2-5 0-5s-3.2 5 0 5z"/><path class="st0" d="M333.2 29.5c-67.7-7.4-138.9-4.5-199.6 26.4C56.4 95.2 5.5 179 .5 265.5s33.4 173.3 97.2 232.1 150.6 90.1 237.3 91.6c60.2 1.1 124.7-13.8 165.2-58.3 45-49.4 50.5-122.6 45.9-189.2-3-43.1-9.8-87.8-34.8-123-17.1-24.1-41.4-41.9-65.2-59.2l-111-80.7C308.9 59.8 279.6 28.4 295 0"/><g class="st1"><path class="st2" d="M84.3 247H70.6v7.9h10.7v4.1H70.6v12.5h-4.5V243h18.2v4zM106.6 271.4H92.9v-4.1h4.5V247h-4.5v-4.1h9v24.4h4.7v4.1zM113.8 265.5c0-1.2.3-2.2 1-3.1.6-.9 1.5-1.6 2.5-2.2 1-.6 2.2-1 3.6-1.3 1.3-.3 2.7-.4 4.1-.4h2c.6 0 1.1.1 1.7.1v-.8c0-1.1-.4-1.9-1.2-2.4-.8-.5-1.9-.8-3.2-.8-1.2 0-2.5.2-3.7.5s-2.5.8-3.6 1.5l-1.8-3.5c1.3-.8 2.8-1.4 4.3-1.8 1.5-.4 3.2-.7 4.9-.7 1.1 0 2.2.1 3.3.4 1.1.2 2 .7 2.9 1.2.9.6 1.5 1.3 2 2.2.5.9.8 2 .8 3.4v13.6h-4.5v-3c-.7 1.1-1.8 2-3.2 2.6-1.4.6-2.9.9-4.5.9-1 0-1.9-.1-2.8-.4-.9-.3-1.6-.7-2.3-1.2-.6-.5-1.2-1.2-1.5-2-.6-.8-.8-1.7-.8-2.8zm8.3 2.3c.9 0 1.7-.1 2.5-.3s1.5-.5 2.1-.9c.6-.4 1.1-.9 1.4-1.4.3-.6.5-1.2.5-1.9v-.8c-.7-.1-1.4-.2-2-.2h-1.7c-2.2 0-3.9.3-5 .9-1.1.6-1.7 1.3-1.7 2.2 0 1.6 1.3 2.4 3.9 2.4zM158.8 264.9c-.2 2.1-1.1 3.8-2.5 5.1-1.4 1.3-3.3 1.9-5.4 1.9-1.2 0-2.3-.2-3.3-.6-1-.4-1.8-.9-2.5-1.6-.7-.7-1.2-1.5-1.6-2.5-.4-1-.6-2.1-.6-3.2v-8.8h-4.6V251h4.6v-8.1h4.5v8.1h8.5v4.1h-8.5v8.8c0 1.3.3 2.3 1 2.9s1.5 1 2.5 1c1.3 0 2.2-.4 2.9-1.1s1-1.6 1.1-2.7l3.9.9zM179.7 271.4H166v-4.1h4.5v-12.2H166V251h9v16.3h4.6v4.1zm-4.1-23h-5.5v-5.5h5.5v5.5zM206.9 255.9c-.5-.3-1.1-.5-1.6-.6-.6-.1-1.2-.2-1.9-.2-1 0-1.9.1-2.8.4-.9.3-1.6.7-2.3 1.3-.6.6-1.1 1.3-1.5 2.2-.4.9-.5 2-.5 3.2v5.1h4.6v4.1h-13.7v-4.1h4.6v-12.2h-4.6V251h9.1v5.1c.7-2 1.8-3.5 3.3-4.3 1.4-.8 3.2-1.3 5.2-1.3.6 0 1.3.1 2 .2s1.4.4 2 .7l-1.9 4.5zM232.3 261.2c0 1.6-.3 3-.8 4.3s-1.2 2.4-2.2 3.3-2.1 1.7-3.4 2.2c-1.3.5-2.8.8-4.4.8-1.6 0-3-.3-4.3-.8-1.3-.5-2.4-1.3-3.4-2.2-.9-.9-1.7-2.1-2.2-3.3s-.8-2.7-.8-4.3c0-1.5.3-3 .8-4.3.5-1.3 1.2-2.5 2.2-3.4.9-1 2.1-1.7 3.4-2.2s2.8-.8 4.3-.8c1.6 0 3.1.3 4.4.8s2.4 1.3 3.4 2.2 1.7 2.1 2.2 3.4c.6 1.4.8 2.8.8 4.3zm-4.5.1c0-.9-.1-1.8-.4-2.6s-.7-1.5-1.2-2.1-1.2-1-1.9-1.4c-.8-.3-1.6-.5-2.6-.5s-1.8.2-2.6.5-1.4.8-1.9 1.4c-.5.6-.9 1.3-1.2 2.1s-.4 1.7-.4 2.6c0 1 .1 1.8.4 2.6s.7 1.5 1.2 2.1c.5.6 1.2 1.1 1.9 1.4s1.6.5 2.6.5c.9 0 1.8-.2 2.6-.5s1.4-.8 1.9-1.4.9-1.3 1.2-2.1.4-1.7.4-2.6zM255.1 271.4h-4.5v-12.5c0-1.6-.3-2.7-.9-3.3s-1.5-.9-2.6-.9c-1.7 0-3 .7-4.1 2-1.1 1.4-1.6 3.2-1.6 5.6v9.1h-4.5V251h4.5v5.1c.5-1.8 1.3-3.1 2.5-4.1 1.2-1 2.7-1.5 4.5-1.5 2.1 0 3.7.7 4.9 2 1.2 1.4 1.8 3.4 1.8 6.2v12.7z"/></g><g class="st1"><path class="st2" d="M84.7 317.2c0 1.3-.2 2.5-.7 3.5-.4 1-1 1.9-1.8 2.6-.8.7-1.7 1.3-2.7 1.6s-2.2.6-3.4.6c-1.3 0-2.5-.2-3.6-.7-1.1-.5-2-1.3-2.8-2.4v2.6h-4.1v-9.3h4.1c0 .9.2 1.8.5 2.5s.8 1.3 1.3 1.8 1.2.9 1.9 1.1c.7.3 1.5.4 2.3.4 1.4 0 2.4-.3 3.3-.9.8-.6 1.2-1.6 1.2-3 0-.7-.1-1.3-.4-1.8-.3-.5-.6-1-1.1-1.4-.5-.4-1.1-.7-1.7-1-.7-.3-1.5-.6-2.3-.9-1-.3-2.1-.7-3.1-1.2s-2-1-2.8-1.6-1.5-1.4-2-2.4c-.5-.9-.8-2.1-.8-3.5 0-1.3.2-2.3.7-3.3.5-.9 1.1-1.7 1.8-2.4.8-.6 1.7-1.1 2.7-1.5s2.1-.5 3.2-.5c1.3 0 2.4.3 3.4.8s1.7 1.3 2.2 2.2v-2.6h4v8.9h-4.1c0-1.7-.4-3-1.3-3.9-.9-.9-2.1-1.4-3.5-1.4-1.3 0-2.4.3-3.3.9-.9.6-1.3 1.5-1.3 2.6 0 .6.1 1.1.3 1.5.2.4.6.8 1 1.1.4.3 1 .6 1.6.9.7.3 1.4.6 2.3.9 1.1.4 2.1.8 3.2 1.3s2 1.1 2.9 1.8c.8.7 1.5 1.5 2.1 2.5.5 1 .8 2.2.8 3.6zM109 322.2c-1.3 1.3-2.7 2.2-4.1 2.7-1.4.5-3 .7-4.7.7-1.7 0-3.2-.3-4.6-.8-1.4-.5-2.6-1.2-3.5-2.2-1-.9-1.7-2-2.2-3.3-.5-1.3-.8-2.8-.8-4.4 0-1.5.3-3 .8-4.3.5-1.3 1.2-2.4 2.1-3.4.9-.9 1.9-1.7 3.1-2.2 1.2-.5 2.5-.8 3.8-.8 1.4 0 2.6.3 3.6.9s1.8 1.4 2.2 2.6v-2.9h4.1v9.5h-4.1c0-1.8-.5-3.2-1.5-4.3-1-1.1-2.3-1.6-3.8-1.6-.6 0-1.3.1-2 .4-.7.3-1.3.7-1.9 1.2-.6.5-1 1.2-1.4 2.1-.4.8-.6 1.8-.6 3 0 1.1.2 2.1.5 2.9.4.8.8 1.5 1.4 2 .6.5 1.3.9 2.1 1.2.8.3 1.6.4 2.5.4 1.5 0 2.7-.2 3.8-.7 1.1-.5 2-1.1 2.8-1.8l2.4 3.1zM133.1 325h-4.5v-12.5c0-1.6-.3-2.7-.9-3.3s-1.5-.9-2.6-.9c-1.7 0-3 .7-4.1 2-1.1 1.4-1.6 3.2-1.6 5.6v9.1h-4.5v-28.5h4.5v13.2c.5-1.8 1.3-3.1 2.5-4.1 1.2-1 2.7-1.5 4.5-1.5 2.1 0 3.7.7 4.9 2 1.2 1.4 1.8 3.4 1.8 6.2V325zM159.1 314.9c0 1.6-.3 3-.8 4.3s-1.2 2.4-2.2 3.3-2.1 1.7-3.4 2.2c-1.3.5-2.8.8-4.4.8-1.6 0-3-.3-4.3-.8-1.3-.5-2.4-1.3-3.4-2.2-.9-.9-1.7-2.1-2.2-3.3s-.8-2.7-.8-4.3c0-1.5.3-3 .8-4.3.5-1.3 1.2-2.5 2.2-3.4.9-1 2.1-1.7 3.4-2.2s2.8-.8 4.3-.8c1.6 0 3.1.3 4.4.8s2.4 1.3 3.4 2.2 1.7 2.1 2.2 3.4c.6 1.3.8 2.7.8 4.3zm-4.5 0c0-.9-.1-1.8-.4-2.6s-.7-1.5-1.2-2.1-1.2-1-1.9-1.4c-.8-.3-1.6-.5-2.6-.5s-1.8.2-2.6.5-1.4.8-1.9 1.4c-.5.6-.9 1.3-1.2 2.1s-.4 1.7-.4 2.6c0 1 .1 1.8.4 2.6s.7 1.5 1.2 2.1c.5.6 1.2 1.1 1.9 1.4s1.6.5 2.6.5c.9 0 1.8-.2 2.6-.5s1.4-.8 1.9-1.4.9-1.3 1.2-2.1.4-1.6.4-2.6zM183.5 314.9c0 1.6-.3 3-.8 4.3s-1.2 2.4-2.2 3.3-2.1 1.7-3.4 2.2c-1.3.5-2.8.8-4.4.8-1.6 0-3-.3-4.3-.8-1.3-.5-2.4-1.3-3.4-2.2-.9-.9-1.7-2.1-2.2-3.3s-.8-2.7-.8-4.3c0-1.5.3-3 .8-4.3.5-1.3 1.2-2.5 2.2-3.4.9-1 2.1-1.7 3.4-2.2s2.8-.8 4.3-.8c1.6 0 3.1.3 4.4.8s2.4 1.3 3.4 2.2 1.7 2.1 2.2 3.4c.6 1.3.8 2.7.8 4.3zm-4.5 0c0-.9-.1-1.8-.4-2.6s-.7-1.5-1.2-2.1-1.2-1-1.9-1.4c-.8-.3-1.6-.5-2.6-.5s-1.8.2-2.6.5-1.4.8-1.9 1.4c-.5.6-.9 1.3-1.2 2.1s-.4 1.7-.4 2.6c0 1 .1 1.8.4 2.6s.7 1.5 1.2 2.1c.5.6 1.2 1.1 1.9 1.4s1.6.5 2.6.5c.9 0 1.8-.2 2.6-.5s1.4-.8 1.9-1.4.9-1.3 1.2-2.1.4-1.6.4-2.6zM204.2 325h-13.7v-4h4.5v-20.4h-4.5v-4.1h9V321h4.7v4z"/></g><g class="st1"><path class="st2" d="M84.3 378.7h-4.5v-19.3l-2.9 10.2h-3.5l-2.8-10.2v19.3h-4.5v-28.5h5.4l3.7 12.9 3.7-12.9h5.4v28.5zM89.4 372.8c0-1.2.3-2.2 1-3.1.6-.9 1.5-1.6 2.5-2.2 1-.6 2.2-1 3.6-1.3 1.3-.3 2.7-.4 4.1-.4h2c.6 0 1.1.1 1.7.1v-.9c0-1.1-.4-1.9-1.2-2.4-.8-.5-1.9-.8-3.2-.8-1.2 0-2.5.2-3.7.5s-2.5.8-3.6 1.5l-1.8-3.5c1.3-.8 2.8-1.4 4.3-1.8 1.5-.4 3.2-.7 4.9-.7 1.1 0 2.2.1 3.3.4 1.1.2 2 .7 2.9 1.2.9.6 1.5 1.3 2 2.2.5.9.8 2 .8 3.4v13.6h-4.5v-3c-.7 1.1-1.8 2-3.2 2.6-1.4.6-2.9.9-4.5.9-1 0-1.9-.1-2.8-.4-.9-.3-1.6-.7-2.3-1.2-.6-.5-1.2-1.2-1.5-2-.6-.7-.8-1.6-.8-2.7zm8.3 2.3c.9 0 1.7-.1 2.5-.3s1.5-.5 2.1-.9c.6-.4 1.1-.9 1.4-1.4.3-.6.5-1.2.5-1.9v-.8c-.7-.1-1.4-.2-2-.2h-1.7c-2.2 0-3.9.3-5 .9-1.1.6-1.7 1.3-1.7 2.2 0 1.6 1.3 2.4 3.9 2.4zM133.7 363.2c-.5-.3-1.1-.5-1.6-.6-.6-.1-1.2-.2-1.9-.2-1 0-1.9.1-2.8.4-.9.3-1.6.7-2.3 1.3-.6.6-1.1 1.3-1.5 2.2-.4.9-.5 2-.5 3.2v5.1h4.6v4.1H114v-4.1h4.6v-12.2H114v-4.1h9.1v5.1c.7-2 1.8-3.5 3.3-4.3 1.4-.8 3.2-1.3 5.2-1.3.6 0 1.3.1 2 .2s1.4.4 2 .7l-1.9 4.5zM158.6 378.7h-5.8l-6.8-8.2-2.1 2.1v6.1h-4.5v-28.5h4.5V367l8.1-8.6h6.2l-9.4 9.3 9.8 11zM166.8 370.2c.2 1.4.9 2.6 2 3.5 1.1.9 2.6 1.4 4.5 1.4 1.5 0 2.7-.2 3.8-.7 1.1-.5 2-1.1 2.8-1.8l2.3 3.2c-1.3 1.3-2.7 2.2-4.2 2.7s-3.1.7-4.8.7c-1.6 0-3-.3-4.4-.8-1.4-.5-2.5-1.3-3.5-2.2-1-.9-1.8-2.1-2.3-3.3s-.8-2.7-.8-4.3c0-1.5.3-3 .8-4.3.5-1.3 1.2-2.4 2.2-3.4s2.1-1.7 3.4-2.2 2.8-.8 4.3-.8c1.6 0 3.1.3 4.5.8 1.3.6 2.5 1.4 3.4 2.4 1 1.1 1.7 2.4 2.2 3.9.5 1.5.8 3.3.8 5.2h-17zm11.9-3.9c-.2-1.3-.9-2.4-2-3.2-1.1-.8-2.4-1.2-3.8-1.2s-2.7.4-3.8 1.2c-1.1.8-1.8 1.8-2.1 3.2h11.7zM207.6 372.2c-.2 2.1-1.1 3.8-2.5 5.1-1.4 1.3-3.3 1.9-5.4 1.9-1.2 0-2.3-.2-3.3-.6-1-.4-1.8-.9-2.5-1.6-.7-.7-1.2-1.5-1.6-2.5-.4-1-.6-2.1-.6-3.2v-8.8h-4.6v-4.1h4.6v-8.1h4.5v8.1h8.5v4.1h-8.5v8.8c0 1.3.3 2.3 1 2.9s1.5 1 2.5 1c1.3 0 2.2-.4 2.9-1.1s1-1.6 1.1-2.7l3.9.8zM228.5 378.7h-13.7v-4.1h4.5v-12.2h-4.5v-4.1h9v16.3h4.6v4.1zm-4.1-23h-5.5v-5.5h5.5v5.5zM255.1 378.7h-4.5v-12.5c0-1.6-.3-2.7-.9-3.3s-1.5-.9-2.6-.9c-1.7 0-3 .7-4.1 2-1.1 1.4-1.6 3.2-1.6 5.6v9.1h-4.5v-20.3h4.5v5.1c.5-1.8 1.3-3.1 2.5-4.1 1.2-1 2.7-1.5 4.5-1.5 2.1 0 3.7.7 4.9 2 1.2 1.4 1.8 3.4 1.8 6.2v12.6zM279.5 378.5c0 1.4-.2 2.6-.7 3.7-.5 1.1-1.2 2-2 2.8-.9.8-1.9 1.3-3.1 1.7-1.2.4-2.5.6-3.9.6-3.5 0-6.6-1.1-9.1-3.2l2.1-3.5c2.1 1.8 4.4 2.7 6.9 2.7 1.6 0 2.8-.4 3.8-1.1 1-.8 1.4-2 1.4-3.6v-2.2c-.9.8-1.8 1.4-2.7 1.8-.9.4-1.9.6-3 .6-1.3 0-2.5-.3-3.6-.8-1.1-.6-2.1-1.3-2.9-2.3-.8-1-1.4-2.1-1.9-3.3-.5-1.3-.7-2.6-.7-4s.2-2.8.7-4c.5-1.3 1.1-2.4 1.9-3.3.8-.9 1.8-1.7 2.9-2.2s2.3-.8 3.6-.8c1.1 0 2.1.2 3 .6.9.4 1.8 1 2.6 1.7v-1.8h4.5v19.9zm-4.5-14.7c-.5-.6-1.2-1.1-2.1-1.4-.9-.3-1.7-.5-2.5-.5-1.7 0-3.1.6-4.1 1.8s-1.6 2.7-1.6 4.6c0 .9.1 1.8.4 2.5s.7 1.5 1.2 2 1.1 1 1.8 1.3c.7.3 1.5.5 2.3.5.8 0 1.6-.2 2.5-.5.9-.3 1.5-.8 2.1-1.4v-8.9z"/></g><g class="st1"><path class="st3" d="M200.6 483.9l-14.9 19.9-3.5-1.9 3.1-10.4-6.9 8.4-3.5-1.9 8.2-23.5 3.6 1.9-5.8 15.7 6.1-7.6 3.3 1.8-2.9 9.2L197 482l3.6 1.9z"/></g><g class="st1"><path class="st3" d="M198.3 502c-.3 1.2-.2 2.3.4 3.4.6 1.1 1.6 2 3 2.6 1.2.5 2.2.8 3.2.8s2-.1 2.8-.5l.7 3.3c-1.5.6-2.9.8-4.2.7-1.3-.1-2.7-.5-4-1.1-1.2-.5-2.3-1.3-3.2-2.1-.9-.9-1.5-1.9-2-2.9-.5-1.1-.7-2.2-.7-3.4 0-1.2.3-2.4.8-3.7.5-1.2 1.2-2.2 2.1-3.1s1.8-1.5 2.9-1.9c1.1-.4 2.2-.6 3.4-.6 1.2 0 2.4.3 3.7.9 1.3.6 2.4 1.3 3.2 2.2.9.9 1.5 1.9 1.9 3.1.4 1.2.5 2.4.4 3.8-.1 1.4-.5 2.8-1.2 4.4l-13.2-5.9zm10.8 1c.3-1.1.1-2.2-.5-3.2s-1.5-1.8-2.6-2.3c-1.1-.5-2.3-.6-3.4-.4-1.2.2-2.1.8-2.7 1.8l9.2 4.1z"/></g><g class="st1"><path class="st3" d="M238.4 499.3l-11.9 21.9-3.8-1.4 1.5-10.7-5.6 9.3-3.6-1.4 4.7-24.4 3.8 1.4-3.5 16.4 4.9-8.4 3.5 1.3-1.6 9.6 7.8-14.8 3.8 1.2z"/></g><g class="st1"><path class="st3" d="M253 520c-.4 1.3-.9 2.5-1.6 3.4-.7 1-1.6 1.7-2.6 2.3-1 .6-2.1.9-3.3 1-1.2.1-2.5 0-3.8-.4-1.3-.4-2.5-.9-3.4-1.7-1-.7-1.7-1.6-2.3-2.6-.6-1-.9-2.1-1-3.3-.1-1.2 0-2.4.4-3.8.4-1.3.9-2.4 1.6-3.4.7-1 1.6-1.7 2.6-2.3s2.1-.9 3.3-1c1.2-.1 2.5 0 3.8.4 1.3.4 2.5.9 3.5 1.7 1 .7 1.7 1.6 2.3 2.6.6 1 .9 2.1 1 3.3 0 1.3-.1 2.5-.5 3.8zm-3.7-1c.2-.8.3-1.5.3-2.3 0-.7-.2-1.4-.5-2-.3-.6-.7-1.1-1.3-1.6-.6-.5-1.2-.8-2-1-.8-.2-1.5-.3-2.2-.2-.7.1-1.3.3-1.9.7-.6.4-1.1.9-1.5 1.5-.4.6-.7 1.3-1 2.1-.2.8-.3 1.6-.3 2.3.1.7.2 1.4.5 2s.7 1.1 1.3 1.6c.5.4 1.2.8 2 1 .8.2 1.5.3 2.2.2.7-.1 1.4-.3 1.9-.7.6-.4 1.1-.8 1.5-1.4.5-.7.8-1.4 1-2.2z"/></g><g class="st1"><path class="st3" d="M274.2 520c-.4-.3-.8-.6-1.3-.8-.4-.2-1-.4-1.6-.5-.8-.2-1.7-.2-2.5-.1s-1.5.3-2.2.7c-.6.4-1.2.9-1.7 1.6-.5.7-.8 1.6-1 2.6l-.9 4.3 3.9.8-.7 3.4-11.6-2.4.7-3.4 3.9.8 2.2-10.3-3.9-.8.7-3.4 7.7 1.6-.9 4.3c1-1.6 2.2-2.6 3.5-3.1s2.9-.5 4.6-.2c.5.1 1.1.3 1.6.5s1.1.5 1.6.9l-2.1 3.5z"/></g><g class="st1"><path class="st3" d="M293.8 536.5l-5-.7-4.8-7.8-2 1.5-.7 5.2-3.9-.5 3.4-24.3 3.9.5-2 14.3 8-6.4 5.3.7-9.1 6.9 6.9 10.6z"/></g></svg>