<?xml version="1.0" encoding="utf-8"?>
<!-- Generator: Adobe Illustrator 24.1.2, SVG Export Plug-In . SVG Version: 6.00 Build 0)  -->
<svg version="1.1" id="Layer_1" xmlns="http://www.w3.org/2000/svg" xmlns:xlink="http://www.w3.org/1999/xlink" x="0px" y="0px"
	 viewBox="0 0 376.5 351.1" style="enable-background:new 0 0 376.5 351.1;" xml:space="preserve">
<style type="text/css">
	.st0{fill:#E5892E;}
	.st1{fill:#FFFFFF;}
</style>
<path class="st0" d="M134,82.4c-47-9-102.7,6-124.6,48.6c-15.3,29.7-10.8,66.7,5,96.1s41.4,52.3,68.3,72
	c48.5,35.3,109.2,63,167.2,47.8c63.9-16.8,104.6-81.4,119.8-145.6c9.8-41.4,11.1-87.3-10.5-124C335.6,36.9,289,15.8,243.5,5.4
	c-28.9-6.6-61-9.4-86.6,5.6s-38,54-17.3,75.2"/>
<g>
	<path class="st1" d="M64.6,150.5H52.5v5.7H62v3.7h-9.5v9.1h-4.7v-22.3h16.7V150.5z"/>
	<path class="st1" d="M72.7,144.7v19.1c0,0.7,0.1,1.3,0.4,1.7c0.3,0.3,0.7,0.5,1.4,0.5c0.4,0,0.7,0,0.9-0.1c0.3-0.1,0.6-0.2,0.9-0.3
		l-0.4,3.1c-0.4,0.2-0.8,0.4-1.4,0.6c-0.6,0.1-1.1,0.2-1.7,0.2c-1.7,0-2.9-0.4-3.6-1.2c-0.7-0.8-1.2-2-1.2-3.8v-19.6H72.7z"/>
	<path class="st1" d="M88.7,158.2c0-0.9-0.3-1.8-0.8-2.2c-0.6-0.6-1.3-0.8-2.1-0.8s-1.6,0.2-2.2,0.7c-0.7,0.5-1.1,1.1-1.4,2.1
		l-4-1.2c0.4-1.5,1.2-2.7,2.5-3.6s3.1-1.4,5.2-1.4c1.5,0,2.8,0.2,3.9,0.7c1.1,0.5,2,1.1,2.6,2c0.7,0.9,0.9,2,0.9,3.4v6.9
		c0,0.8,0.4,1.3,1.2,1.3c0.4,0,0.7-0.1,1.1-0.2l-0.3,2.9c-0.6,0.3-1.3,0.5-2.2,0.5c-0.7,0-1.5-0.1-2.1-0.4c-0.7-0.3-1.1-0.7-1.5-1.2
		c-0.4-0.6-0.6-1.2-0.6-2v-0.1l0.8-0.1c-0.1,0.8-0.5,1.6-1.1,2.1c-0.7,0.6-1.3,1-2.2,1.4c-0.8,0.3-1.8,0.5-2.7,0.5
		c-1.1,0-2.1-0.2-3-0.6c-0.8-0.4-1.5-0.8-2-1.6c-0.5-0.7-0.7-1.5-0.7-2.5c0-1.3,0.4-2.3,1.2-3.1c0.8-0.8,2-1.3,3.4-1.7l6.3-1.3v2.9
		l-4.1,0.8c-0.7,0.2-1.3,0.4-1.8,0.7c-0.4,0.3-0.6,0.7-0.6,1.3c0,0.6,0.2,1,0.7,1.3c0.4,0.3,0.9,0.5,1.5,0.5c0.5,0,0.9-0.1,1.4-0.2
		c0.5-0.1,0.8-0.3,1.2-0.6c0.4-0.3,0.7-0.6,0.8-1c0.2-0.5,0.3-0.9,0.3-1.6v-4.6H88.7z"/>
	<path class="st1" d="M109.2,152.1v3.4H96v-3.4H109.2z M103.8,146.9v16.6c0,0.8,0.2,1.4,0.7,1.8c0.4,0.4,1,0.6,1.7,0.6
		c0.6,0,1-0.1,1.5-0.3c0.5-0.2,0.8-0.4,1.1-0.7l0.7,3.1c-0.6,0.5-1.2,0.7-2,1c-0.8,0.3-1.7,0.4-2.6,0.4c-1.1,0-2.1-0.2-3-0.5
		c-0.8-0.4-1.6-0.8-2-1.6c-0.5-0.7-0.7-1.8-0.7-3v-16L103.8,146.9z"/>
	<path class="st1" d="M114.6,149.6c-0.9,0-1.7-0.2-2.1-0.7c-0.5-0.4-0.7-1-0.7-1.9c0-0.8,0.3-1.5,0.7-1.9s1.2-0.7,2.1-0.7
		c0.9,0,1.7,0.2,2.1,0.7c0.5,0.4,0.7,1,0.7,1.9c0,0.8-0.3,1.4-0.7,1.9C116.3,149.4,115.7,149.6,114.6,149.6z M117,152.1v16.9h-4.7
		v-16.9H117z"/>
	<path class="st1" d="M121.9,169v-16.8h4l0.3,3.3c0.5-1.2,1.1-2,2-2.7c0.8-0.7,2-0.9,3.3-0.9c0.4,0,0.7,0,1,0.1
		c0.3,0.1,0.6,0.2,0.7,0.3l-0.6,3.9c-0.2-0.1-0.5-0.2-0.8-0.2c-0.4,0-0.7-0.1-1.3-0.1c-0.7,0-1.3,0.2-2,0.5
		c-0.7,0.4-1.1,0.8-1.6,1.5c-0.4,0.7-0.7,1.5-0.7,2.5v8.7L121.9,169L121.9,169z"/>
	<path class="st1" d="M143.5,151.8c1.7,0,3.3,0.4,4.6,1c1.3,0.7,2.3,1.7,3.1,3c0.7,1.3,1.1,2.9,1.1,4.7s-0.4,3.4-1.1,4.7
		s-1.8,2.3-3.1,3.1c-1.3,0.7-2.8,1-4.6,1c-1.7,0-3.2-0.4-4.5-1c-1.3-0.7-2.3-1.7-3.1-3.1c-0.7-1.3-1.1-2.9-1.1-4.7s0.4-3.4,1.1-4.7
		c0.7-1.3,1.8-2.3,3.1-3S141.8,151.8,143.5,151.8z M143.5,155.2c-0.8,0-1.6,0.2-2.1,0.6c-0.6,0.4-1,1-1.4,1.8
		c-0.3,0.7-0.5,1.8-0.5,3s0.2,2.2,0.5,3c0.3,0.7,0.7,1.4,1.4,1.8c0.6,0.4,1.3,0.6,2.1,0.6c0.8,0,1.6-0.2,2.1-0.6
		c0.6-0.4,1-1,1.4-1.8c0.3-0.7,0.5-1.8,0.5-3s-0.2-2.2-0.5-3c-0.3-0.7-0.7-1.4-1.4-1.8C145.1,155.4,144.3,155.2,143.5,155.2z"/>
	<path class="st1" d="M156.1,169v-16.8h4.2l0.3,5.1l-0.6-0.6c0.3-1.1,0.7-2,1.3-2.7c0.6-0.7,1.3-1.3,2.1-1.6
		c0.8-0.4,1.8-0.6,2.8-0.6c1.2,0,2.2,0.2,3.2,0.7c0.9,0.5,1.7,1.1,2.1,2c0.6,0.9,0.8,2,0.8,3.4v11.1h-4.7v-9.8c0-1.5-0.3-2.4-0.8-3
		c-0.6-0.6-1.3-0.8-2.2-0.8c-0.7,0-1.2,0.2-1.9,0.5c-0.7,0.3-1.1,0.8-1.5,1.5c-0.4,0.7-0.6,1.6-0.6,2.7v8.9L156.1,169L156.1,169z"/>
	<path class="st1" d="M196,146.4c2,0,3.8,0.4,5.3,1c1.5,0.7,2.9,1.8,3.9,3.1l-2.6,3c-0.9-1.2-2-2-3.1-2.6s-2.3-0.8-3.8-0.8
		c-0.9,0-1.8,0.1-2.3,0.4c-0.7,0.3-1.1,0.6-1.4,1c-0.3,0.4-0.5,0.8-0.5,1.4c0,0.7,0.3,1.1,0.7,1.6c0.5,0.4,1.3,0.7,2.4,1l4.2,0.9
		c2.2,0.5,3.8,1.2,4.7,2.2c0.9,1,1.4,2.2,1.4,3.8c0,1.5-0.4,2.7-1.1,3.8c-0.7,1.1-1.9,1.9-3.3,2.4s-3,0.8-4.7,0.8
		c-1.6,0-3-0.2-4.3-0.6c-1.3-0.4-2.4-0.9-3.4-1.6c-1-0.7-1.9-1.4-2.5-2.2l2.6-3.2c0.6,0.7,1.1,1.4,2,2c0.7,0.6,1.7,1,2.6,1.3
		c1,0.4,2,0.5,3.1,0.5c0.9,0,1.7-0.1,2.3-0.3c0.7-0.2,1.1-0.6,1.5-0.9c0.3-0.4,0.5-0.8,0.5-1.4c0-0.6-0.2-1.1-0.6-1.5
		c-0.4-0.4-1.1-0.7-2.1-0.9l-4.6-1c-1.3-0.3-2.4-0.7-3.3-1.2c-0.9-0.5-1.7-1.1-2.1-2c-0.5-0.8-0.7-1.8-0.7-2.9
		c0-1.3,0.4-2.5,1.1-3.6c0.7-1,1.8-1.9,3.2-2.5C192.4,146.6,194,146.4,196,146.4z"/>
	<path class="st1" d="M216.8,151.8c1.5,0,2.8,0.2,3.8,0.7c1,0.5,1.9,1,2.5,1.8c0.7,0.7,1.1,1.6,1.4,2.5l-4.4,1.6
		c-0.2-1-0.7-1.8-1.1-2.3c-0.6-0.6-1.3-0.7-2.2-0.7c-0.8,0-1.6,0.2-2.2,0.6c-0.7,0.4-1.1,1-1.4,1.8c-0.3,0.8-0.5,1.8-0.5,3
		s0.2,2.2,0.5,3c0.4,0.7,0.8,1.4,1.4,1.8c0.7,0.4,1.3,0.6,2.1,0.6c0.7,0,1.2-0.1,1.8-0.4c0.6-0.3,0.8-0.6,1.2-1
		c0.3-0.5,0.6-1,0.7-1.6l4.2,1.4c-0.3,1-0.7,1.9-1.4,2.7c-0.7,0.7-1.6,1.4-2.6,1.8c-1,0.5-2.3,0.7-3.7,0.7c-1.8,0-3.3-0.4-4.6-1
		c-1.3-0.7-2.3-1.7-3.1-3c-0.7-1.3-1.1-2.9-1.1-4.7s0.4-3.4,1.1-4.7c0.7-1.3,1.8-2.3,3.1-3C213.7,152.1,215.1,151.8,216.8,151.8z"/>
	<path class="st1" d="M228.2,169v-24.3h4.7v10.2c0.6-1.1,1.3-1.9,2.2-2.4c0.9-0.6,2-0.8,3.3-0.8s2.2,0.2,3.2,0.7
		c0.9,0.5,1.7,1.1,2.1,2c0.5,0.9,0.8,2,0.8,3.4v11.1h-4.7v-9.8c0-1.5-0.3-2.5-0.8-3.1c-0.6-0.6-1.3-0.8-2.1-0.8
		c-0.7,0-1.3,0.2-1.9,0.5c-0.6,0.3-1.1,0.8-1.5,1.5c-0.4,0.7-0.6,1.6-0.6,2.7v8.9h-4.7V169z"/>
	<path class="st1" d="M256.8,151.8c1.7,0,3.3,0.4,4.6,1c1.3,0.7,2.3,1.7,3.1,3c0.7,1.3,1.1,2.9,1.1,4.7s-0.4,3.4-1.1,4.7
		c-0.7,1.3-1.8,2.3-3.1,3.1c-1.3,0.7-2.8,1-4.6,1c-1.7,0-3.2-0.4-4.5-1c-1.3-0.7-2.3-1.7-3.1-3.1c-0.7-1.3-1.1-2.9-1.1-4.7
		s0.4-3.4,1.1-4.7c0.7-1.3,1.8-2.3,3.1-3S255.2,151.8,256.8,151.8z M256.8,155.2c-0.8,0-1.6,0.2-2.1,0.6c-0.6,0.4-1,1-1.4,1.8
		c-0.3,0.7-0.5,1.8-0.5,3s0.2,2.2,0.5,3c0.3,0.7,0.7,1.4,1.4,1.8c0.6,0.4,1.3,0.6,2.1,0.6c0.8,0,1.6-0.2,2.1-0.6
		c0.6-0.4,1-1,1.4-1.8c0.3-0.7,0.5-1.8,0.5-3s-0.2-2.2-0.5-3c-0.3-0.7-0.7-1.4-1.4-1.8C258.4,155.4,257.7,155.2,256.8,155.2z"/>
	<path class="st1" d="M277.1,151.8c1.7,0,3.3,0.4,4.6,1c1.3,0.7,2.3,1.7,3.1,3c0.7,1.3,1.1,2.9,1.1,4.7s-0.4,3.4-1.1,4.7
		c-0.7,1.3-1.8,2.3-3.1,3.1s-2.8,1-4.6,1c-1.7,0-3.2-0.4-4.5-1c-1.3-0.7-2.3-1.7-3.1-3.1c-0.7-1.3-1.1-2.9-1.1-4.7s0.4-3.4,1.1-4.7
		c0.7-1.3,1.8-2.3,3.1-3C274,152.1,275.4,151.8,277.1,151.8z M277.1,155.2c-0.8,0-1.6,0.2-2.1,0.6c-0.6,0.4-1,1-1.4,1.8
		c-0.3,0.7-0.5,1.8-0.5,3s0.2,2.2,0.5,3c0.3,0.7,0.7,1.4,1.4,1.8c0.6,0.4,1.3,0.6,2.1,0.6c0.8,0,1.6-0.2,2.1-0.6
		c0.6-0.4,1-1,1.4-1.8c0.3-0.7,0.5-1.8,0.5-3s-0.2-2.2-0.5-3s-0.7-1.4-1.4-1.8C278.7,155.4,278,155.2,277.1,155.2z"/>
	<path class="st1" d="M294.2,144.7v19.1c0,0.7,0.1,1.3,0.4,1.7c0.3,0.3,0.7,0.5,1.4,0.5c0.4,0,0.7,0,0.9-0.1
		c0.3-0.1,0.6-0.2,0.9-0.3l-0.4,3.1c-0.4,0.2-0.8,0.4-1.4,0.6c-0.6,0.1-1.1,0.2-1.7,0.2c-1.7,0-2.9-0.4-3.6-1.2
		c-0.7-0.8-1.1-2-1.1-3.8v-19.6H294.2z"/>
	<path class="st1" d="M72.1,187.3v22.3h-4.2V198l0.3-6.5h-0.1l-6.2,18.1h-3.8l-6.1-18.1h-0.1l0.3,6.5v11.6h-4.2v-22.3h6.8l4,12.2
		l1.4,5h0.1l1.5-5l4-12.2H72.1z"/>
	<path class="st1" d="M87,198.8c0-0.9-0.3-1.8-0.8-2.2c-0.6-0.6-1.3-0.8-2.1-0.8c-0.8,0-1.6,0.2-2.2,0.7c-0.7,0.5-1.1,1.1-1.4,2.1
		l-4-1.2c0.4-1.5,1.2-2.7,2.5-3.6s3.1-1.4,5.2-1.4c1.5,0,2.8,0.2,3.9,0.7c1.1,0.5,2,1.1,2.6,2c0.7,0.9,0.9,2,0.9,3.4v6.9
		c0,0.8,0.4,1.3,1.2,1.3c0.4,0,0.7-0.1,1.1-0.2l-0.3,2.9c-0.6,0.3-1.3,0.5-2.2,0.5c-0.7,0-1.5-0.1-2.1-0.4c-0.7-0.3-1.1-0.7-1.5-1.2
		s-0.6-1.2-0.6-2v-0.1L88,206c-0.1,0.8-0.5,1.6-1.1,2.1c-0.7,0.6-1.3,1-2.2,1.4c-0.8,0.3-1.8,0.5-2.7,0.5c-1.1,0-2.1-0.2-3-0.6
		c-0.8-0.4-1.5-0.8-2-1.6c-0.5-0.7-0.7-1.5-0.7-2.5c0-1.3,0.4-2.3,1.2-3.1c0.8-0.8,2-1.3,3.4-1.7l6.3-1.3v2.9l-4.1,0.8
		c-0.7,0.2-1.3,0.4-1.8,0.7c-0.4,0.3-0.6,0.7-0.6,1.3c0,0.6,0.2,1,0.7,1.3c0.4,0.3,0.9,0.5,1.5,0.5c0.5,0,0.9-0.1,1.4-0.2
		c0.5-0.1,0.8-0.3,1.2-0.6c0.4-0.3,0.7-0.6,0.8-1c0.2-0.5,0.3-0.9,0.3-1.6v-4.6H87z"/>
	<path class="st1" d="M96.8,209.6v-16.9h4l0.3,3.3c0.5-1.2,1.1-2,2-2.7s2-0.9,3.3-0.9c0.4,0,0.7,0,1,0.1c0.3,0.1,0.6,0.2,0.7,0.3
		l-0.6,3.9c-0.2-0.1-0.5-0.2-0.8-0.2s-0.7-0.1-1.3-0.1c-0.7,0-1.3,0.2-2,0.5c-0.7,0.4-1.1,0.8-1.6,1.5c-0.4,0.7-0.7,1.5-0.7,2.5v8.7
		L96.8,209.6L96.8,209.6z"/>
	<path class="st1" d="M115.7,185.3v24.3H111v-24.3H115.7z M128.2,192.7l-7.8,8.2l-0.9,0.5l-5.1,5.5l-0.1-4.9l8.6-9.1L128.2,192.7
		L128.2,192.7z M121.1,198.1l7.5,11.5h-5.2l-5.5-8.8L121.1,198.1z"/>
	<path class="st1" d="M138.5,209.9c-1.8,0-3.3-0.4-4.7-1c-1.3-0.7-2.3-1.7-3.1-3c-0.7-1.3-1.1-2.9-1.1-4.7s0.4-3.4,1.1-4.7
		c0.7-1.3,1.8-2.3,3.1-3c1.3-0.7,2.8-1,4.5-1s3.2,0.4,4.4,1s2.1,1.6,2.7,2.8c0.7,1.2,0.9,2.5,0.9,4c0,0.5,0,0.8,0,1.3
		c0,0.4-0.1,0.7-0.1,1.1h-13.5v-3.3h11.4l-2.2,0.8c0-1.4-0.3-2.5-0.9-3.3c-0.7-0.7-1.6-1.1-2.7-1.1c-0.8,0-1.6,0.2-2.2,0.7
		c-0.7,0.4-1.1,1-1.4,1.8c-0.3,0.8-0.5,1.8-0.5,3.1c0,1.2,0.2,2.1,0.6,3c0.4,0.7,0.8,1.4,1.5,1.8c0.7,0.4,1.4,0.6,2.3,0.6
		c1,0,1.8-0.2,2.4-0.6c0.7-0.4,1.1-0.9,1.4-1.6l3.7,1.4c-0.4,0.8-0.9,1.7-1.7,2.2c-0.7,0.7-1.6,1.1-2.6,1.4
		C140.7,209.7,139.6,209.9,138.5,209.9z"/>
	<path class="st1" d="M161.3,192.7v3.4h-13.1v-3.4H161.3z M155.9,187.5v16.6c0,0.8,0.2,1.4,0.7,1.8c0.4,0.4,1,0.6,1.7,0.6
		c0.6,0,1-0.1,1.5-0.3c0.5-0.2,0.8-0.4,1.1-0.7l0.7,3.1c-0.6,0.5-1.2,0.7-2,1c-0.8,0.3-1.7,0.4-2.6,0.4c-1.1,0-2.1-0.2-3-0.5
		c-0.8-0.4-1.6-0.8-2-1.6c-0.5-0.7-0.7-1.8-0.7-3v-16L155.9,187.5z"/>
	<path class="st1" d="M166.8,190.3c-0.9,0-1.7-0.2-2.1-0.7c-0.5-0.4-0.7-1-0.7-1.9s0.3-1.5,0.7-1.9s1.2-0.7,2.1-0.7
		c0.9,0,1.7,0.2,2.1,0.7c0.5,0.4,0.7,1,0.7,1.9s-0.3,1.4-0.7,1.9C168.4,190,167.7,190.3,166.8,190.3z M169.1,192.7v16.9h-4.7v-16.9
		H169.1z"/>
	<path class="st1" d="M173.9,209.6v-16.9h4.2l0.3,5.1l-0.6-0.6c0.3-1.1,0.7-2,1.3-2.7c0.6-0.7,1.3-1.3,2.1-1.6
		c0.8-0.4,1.8-0.6,2.8-0.6c1.2,0,2.2,0.2,3.2,0.7c0.9,0.5,1.7,1.1,2.1,2c0.6,0.9,0.8,2,0.8,3.4v11.1h-4.7v-9.8c0-1.4-0.3-2.4-0.8-3
		s-1.3-0.8-2.2-0.8c-0.7,0-1.2,0.2-1.9,0.5c-0.7,0.3-1.1,0.8-1.5,1.5c-0.4,0.7-0.6,1.6-0.6,2.7v8.9H173.9z"/>
	<path class="st1" d="M204.9,206.4c1.9,0,3.3,0.4,4.2,1.2c1,0.7,1.5,1.9,1.5,3.3c0,1.3-0.4,2.3-1.1,3.3c-0.7,0.9-1.8,1.6-3.2,2
		c-1.3,0.5-2.9,0.7-4.7,0.7c-2.9,0-5-0.4-6.4-1.2c-1.3-0.8-2-1.9-2-3.2c0-0.9,0.4-1.7,1-2.3c0.7-0.7,1.9-1,3.5-1l-0.2,0.6
		c-1.2-0.2-2-0.6-2.7-1.2c-0.7-0.6-0.9-1.4-0.9-2.4s0.4-1.9,1.2-2.5s1.9-1,3.3-1.2l2,0.9h-0.3c-0.9,0.1-1.7,0.3-2,0.6
		c-0.4,0.3-0.6,0.7-0.6,1.1s0.2,0.8,0.6,1c0.4,0.3,0.9,0.4,1.6,0.4H204.9z M201.8,192.3c1.6,0,3,0.2,4.1,0.7c1.1,0.5,2,1.1,2.7,2
		c0.7,0.8,0.9,1.9,0.9,3.1s-0.3,2.2-0.9,3.1c-0.7,0.8-1.5,1.5-2.7,2c-1.1,0.5-2.5,0.7-4.1,0.7c-2.5,0-4.4-0.6-5.8-1.6
		c-1.3-1-2-2.4-2-4.2c0-1.2,0.3-2.2,0.9-3.1c0.7-0.8,1.5-1.5,2.7-2C198.9,192.6,200.3,192.3,201.8,192.3z M201.8,213.7
		c1.2,0,2.1-0.1,2.9-0.3s1.3-0.5,1.7-0.7c0.4-0.3,0.6-0.7,0.6-1c0-0.5-0.2-0.7-0.5-1c-0.4-0.3-0.9-0.4-1.9-0.4H199
		c-0.6,0-1,0.1-1.3,0.4s-0.6,0.7-0.6,1.1c0,0.7,0.5,1.1,1.3,1.5C199.1,213.6,200.3,213.7,201.8,213.7z M201.8,195.2
		c-0.9,0-1.7,0.3-2.2,0.7c-0.6,0.5-0.8,1.2-0.8,2s0.3,1.6,0.8,2c0.6,0.5,1.3,0.7,2.2,0.7c0.9,0,1.7-0.3,2.2-0.7
		c0.6-0.5,0.8-1.2,0.8-2s-0.3-1.6-0.8-2C203.5,195.5,202.8,195.2,201.8,195.2z M210.5,188.7l0.6,3.3c-0.1,0-0.2,0-0.3,0
		c-0.1,0-0.2,0-0.3,0c-1,0-1.9,0.2-2.3,0.7c-0.6,0.5-0.7,1.1-0.7,2l-1.9-0.7c0-0.9,0.2-1.8,0.6-2.5c0.4-0.7,0.9-1.4,1.6-1.9
		c0.7-0.5,1.6-0.7,2.5-0.7C210.2,188.8,210.3,188.8,210.5,188.7C210.4,188.7,210.4,188.7,210.5,188.7z"/>
	<path class="st1" d="M232.9,187.3c3.5,0,6.2,0.9,8.1,2.9c2,2,2.9,4.7,2.9,8.3c0,3.5-0.9,6.3-2.9,8.3c-2,2-4.7,2.9-8.1,2.9h-8.7
		v-22.3H232.9z M232.6,205.9c2.1,0,3.7-0.7,4.7-2c1.1-1.3,1.6-3.1,1.6-5.5c0-2.4-0.6-4.3-1.6-5.5c-1.1-1.3-2.7-2-4.7-2h-3.7v14.9
		H232.6z"/>
	<path class="st1" d="M256,209.9c-1.8,0-3.3-0.4-4.7-1c-1.3-0.7-2.3-1.7-3.1-3c-0.7-1.3-1.1-2.9-1.1-4.7s0.4-3.4,1.1-4.7
		c0.7-1.3,1.8-2.3,3.1-3c1.3-0.7,2.8-1,4.5-1c1.7,0,3.2,0.4,4.4,1c1.2,0.7,2.1,1.6,2.7,2.8c0.6,1.2,0.9,2.5,0.9,4c0,0.5,0,0.8,0,1.3
		c0,0.4-0.1,0.7-0.1,1.1h-13.5v-3.3h11.4l-2.2,0.8c0-1.4-0.3-2.5-0.9-3.3s-1.6-1.1-2.7-1.1c-0.8,0-1.6,0.2-2.2,0.7
		c-0.7,0.4-1.1,1-1.4,1.8c-0.3,0.7-0.5,1.8-0.5,3.1c0,1.2,0.2,2.1,0.6,3c0.4,0.7,0.8,1.4,1.5,1.8c0.7,0.4,1.4,0.6,2.3,0.6
		c1,0,1.8-0.2,2.4-0.6s1.1-0.9,1.4-1.6l3.7,1.4c-0.4,0.8-0.9,1.7-1.7,2.2c-0.7,0.7-1.6,1.1-2.6,1.4
		C258.2,209.7,257.1,209.9,256,209.9z"/>
	<path class="st1" d="M274.5,209.9c-1.7,0-3.3-0.3-4.7-0.9s-2.5-1.5-3.4-2.6l2.7-2.7c0.6,0.8,1.3,1.5,2.1,2c0.9,0.6,2,0.7,3.3,0.7
		c0.8,0,1.6-0.1,2.1-0.4c0.6-0.3,0.8-0.7,0.8-1.2c0-0.4-0.1-0.7-0.4-0.9c-0.3-0.3-0.7-0.5-1.5-0.7l-3-0.7c-2-0.4-3.3-1-4.2-1.9
		c-0.8-0.8-1.2-1.9-1.2-3.2c0-0.9,0.3-1.8,0.8-2.6c0.6-0.8,1.4-1.5,2.5-2c1.1-0.5,2.5-0.7,4.1-0.7c1.7,0,3.2,0.3,4.4,0.8
		c1.2,0.6,2.2,1.3,3,2.3l-2.8,2.7c-0.5-0.7-1.1-1.4-2-1.8c-0.8-0.4-1.7-0.7-2.5-0.7c-0.7,0-1.2,0.1-1.6,0.2c-0.4,0.1-0.7,0.3-1,0.6
		c-0.2,0.3-0.4,0.6-0.4,0.9s0.2,0.7,0.5,0.9c0.3,0.3,0.9,0.5,1.8,0.7l3.4,0.7c1.7,0.4,2.9,0.9,3.6,1.7c0.7,0.8,1.1,1.8,1.1,2.9
		c0,1.1-0.3,2-0.8,2.9c-0.6,0.8-1.4,1.5-2.5,2C277.5,209.7,276.1,209.9,274.5,209.9z"/>
	<path class="st1" d="M288,190.3c-0.9,0-1.7-0.2-2.1-0.7c-0.5-0.4-0.7-1-0.7-1.9s0.3-1.5,0.7-1.9s1.2-0.7,2.1-0.7
		c0.9,0,1.7,0.2,2.1,0.7c0.5,0.5,0.7,1,0.7,1.9s-0.3,1.4-0.7,1.9C289.7,190,289,190.3,288,190.3z M290.3,192.7v16.9h-4.7v-16.9
		H290.3z"/>
	<path class="st1" d="M305.3,206.4c1.9,0,3.3,0.4,4.2,1.2c1,0.7,1.5,1.9,1.5,3.3c0,1.3-0.4,2.3-1.1,3.3c-0.7,0.9-1.8,1.6-3.2,2
		c-1.3,0.5-2.9,0.7-4.7,0.7c-2.9,0-5-0.4-6.4-1.2c-1.3-0.8-2-1.9-2-3.2c0-0.9,0.4-1.7,1-2.3c0.7-0.7,1.9-1,3.5-1l-0.2,0.6
		c-1.2-0.2-2-0.6-2.7-1.2c-0.7-0.6-0.9-1.4-0.9-2.4s0.4-1.9,1.2-2.5c0.8-0.7,1.9-1,3.3-1.2l2,0.9h-0.5c-0.9,0.1-1.7,0.3-2,0.6
		c-0.4,0.3-0.6,0.7-0.6,1.1s0.2,0.8,0.6,1c0.4,0.3,0.9,0.4,1.6,0.4H305.3z M302.1,192.3c1.6,0,3,0.2,4.1,0.7c1.1,0.5,2,1.1,2.7,2
		c0.7,0.8,0.9,1.9,0.9,3.1s-0.3,2.2-0.9,3.1c-0.7,0.8-1.5,1.5-2.7,2c-1.1,0.5-2.5,0.7-4.1,0.7c-2.5,0-4.4-0.6-5.8-1.6
		c-1.3-1-2-2.4-2-4.2c0-1.2,0.3-2.2,0.9-3.1c0.7-0.8,1.5-1.5,2.7-2C299.2,192.6,300.6,192.3,302.1,192.3z M302.1,213.7
		c1.2,0,2.1-0.1,2.9-0.3s1.3-0.5,1.7-0.7c0.4-0.3,0.6-0.7,0.6-1c0-0.5-0.2-0.7-0.5-1c-0.4-0.3-0.9-0.4-1.9-0.4h-5.7
		c-0.6,0-1,0.1-1.3,0.4s-0.6,0.7-0.6,1.1c0,0.7,0.5,1.1,1.3,1.5C299.4,213.6,300.7,213.7,302.1,213.7z M302.1,195.2
		c-0.9,0-1.7,0.3-2.2,0.7c-0.6,0.5-0.8,1.2-0.8,2s0.3,1.6,0.8,2c0.6,0.5,1.3,0.7,2.2,0.7s1.7-0.3,2.2-0.7c0.6-0.5,0.8-1.2,0.8-2
		s-0.3-1.6-0.8-2C303.8,195.5,303.1,195.2,302.1,195.2z M310.8,188.7l0.6,3.3c-0.1,0-0.2,0-0.3,0c-0.1,0-0.2,0-0.3,0
		c-1,0-1.9,0.2-2.3,0.7c-0.6,0.5-0.7,1.1-0.7,2l-1.9-0.7c0-0.9,0.2-1.8,0.6-2.5c0.4-0.7,0.9-1.4,1.6-1.9c0.7-0.5,1.6-0.7,2.5-0.7
		C310.5,188.8,310.6,188.8,310.8,188.7C310.7,188.7,310.7,188.7,310.8,188.7z"/>
	<path class="st1" d="M313.8,209.6v-16.9h4.2l0.3,5.1l-0.6-0.6c0.3-1.1,0.7-2,1.3-2.7c0.6-0.7,1.3-1.3,2.1-1.6
		c0.8-0.4,1.8-0.6,2.8-0.6c1.2,0,2.2,0.2,3.2,0.7c0.9,0.5,1.7,1.1,2.1,2c0.5,0.9,0.8,2,0.8,3.4v11.1h-4.7v-9.8c0-1.4-0.3-2.4-0.8-3
		s-1.3-0.8-2.2-0.8c-0.7,0-1.2,0.2-1.9,0.5c-0.6,0.3-1.1,0.8-1.5,1.5c-0.4,0.7-0.6,1.6-0.6,2.7v8.9H313.8z"/>
</g>
</svg>
