<?xml version="1.0" encoding="utf-8"?>
<!-- Generator: Adobe Illustrator 22.0.1, SVG Export Plug-In . SVG Version: 6.00 Build 0)  -->
<svg version="1.1" id="Layer_1" xmlns="http://www.w3.org/2000/svg" xmlns:xlink="http://www.w3.org/1999/xlink" x="0px" y="0px"
	 viewBox="0 0 547.3 589.3" style="enable-background:new 0 0 547.3 589.3;" xml:space="preserve">
<style type="text/css">
	.st0{fill:#231F20;}
	.st1{enable-background:new    ;}
	.st2{fill:#FFFFFF;}
	.st3{fill:#606161;}
</style>
<title>FISMarketing</title>
<path class="st0" d="M244.1,486.1c3.2,0,3.2-5,0-5S240.9,486.1,244.1,486.1z"/>
<path class="st0" d="M333.2,29.5c-67.7-7.4-138.9-4.5-199.6,26.4C56.4,95.2,5.5,179,0.5,265.5s33.4,173.3,97.2,232.1
	s150.6,90.1,237.3,91.6c60.2,1.1,124.7-13.8,165.2-58.3c45-49.4,50.5-122.6,45.9-189.2c-3-43.1-9.8-87.8-34.8-123
	c-17.1-24.1-41.4-41.9-65.2-59.2L335.1,78.8C308.9,59.8,279.6,28.4,295,0"/>
<g class="st1">
	<path class="st2" d="M84.3,247H70.6v7.9h10.7v4.1H70.6v12.5h-4.5v-28.5h18.2V247z"/>
	<path class="st2" d="M106.6,271.4H92.9v-4.1h4.5V247h-4.5v-4.1h9v24.4h4.7V271.4z"/>
	<path class="st2" d="M113.8,265.5c0-1.2,0.3-2.2,1-3.1c0.6-0.9,1.5-1.6,2.5-2.2c1-0.6,2.2-1,3.6-1.3c1.3-0.3,2.7-0.4,4.1-0.4
		c0.8,0,1.4,0,2,0c0.6,0,1.1,0.1,1.7,0.1v-0.8c0-1.1-0.4-1.9-1.2-2.4c-0.8-0.5-1.9-0.8-3.2-0.8c-1.2,0-2.5,0.2-3.7,0.5
		s-2.5,0.8-3.6,1.5l-1.8-3.5c1.3-0.8,2.8-1.4,4.3-1.8c1.5-0.4,3.2-0.7,4.9-0.7c1.1,0,2.2,0.1,3.3,0.4c1.1,0.2,2,0.7,2.9,1.2
		c0.9,0.6,1.5,1.3,2,2.2c0.5,0.9,0.8,2,0.8,3.4v13.6h-4.5v-3c-0.7,1.1-1.8,2-3.2,2.6c-1.4,0.6-2.9,0.9-4.5,0.9c-1,0-1.9-0.1-2.8-0.4
		c-0.9-0.3-1.6-0.7-2.3-1.2c-0.6-0.5-1.2-1.2-1.5-2C114,267.5,113.8,266.6,113.8,265.5z M122.1,267.8c0.9,0,1.7-0.1,2.5-0.3
		s1.5-0.5,2.1-0.9c0.6-0.4,1.1-0.9,1.4-1.4c0.3-0.6,0.5-1.2,0.5-1.9v-0.8c-0.7-0.1-1.4-0.2-2-0.2c-0.6,0-1.2,0-1.7,0
		c-2.2,0-3.9,0.3-5,0.9c-1.1,0.6-1.7,1.3-1.7,2.2C118.2,267,119.5,267.8,122.1,267.8z"/>
	<path class="st2" d="M158.8,264.9c-0.2,2.1-1.1,3.8-2.5,5.1c-1.4,1.3-3.3,1.9-5.4,1.9c-1.2,0-2.3-0.2-3.3-0.6
		c-1-0.4-1.8-0.9-2.5-1.6c-0.7-0.7-1.2-1.5-1.6-2.5c-0.4-1-0.6-2.1-0.6-3.2v-8.8h-4.6V251h4.6v-8.1h4.5v8.1h8.5v4.1h-8.5v8.8
		c0,1.3,0.3,2.3,1,2.9s1.5,1,2.5,1c1.3,0,2.2-0.4,2.9-1.1s1-1.6,1.1-2.7L158.8,264.9z"/>
	<path class="st2" d="M179.7,271.4h-13.7v-4.1h4.5v-12.2h-4.5V251h9v16.3h4.6V271.4z M175.6,248.4h-5.5v-5.5h5.5V248.4z"/>
	<path class="st2" d="M206.9,255.9c-0.5-0.3-1.1-0.5-1.6-0.6c-0.6-0.1-1.2-0.2-1.9-0.2c-1,0-1.9,0.1-2.8,0.4
		c-0.9,0.3-1.6,0.7-2.3,1.3c-0.6,0.6-1.1,1.3-1.5,2.2c-0.4,0.9-0.5,2-0.5,3.2v5.1h4.6v4.1h-13.7v-4.1h4.6v-12.2h-4.6V251h9.1v5.1
		c0.7-2,1.8-3.5,3.3-4.3c1.4-0.8,3.2-1.3,5.2-1.3c0.6,0,1.3,0.1,2,0.2s1.4,0.4,2,0.7L206.9,255.9z"/>
	<path class="st2" d="M232.3,261.2c0,1.6-0.3,3-0.8,4.3s-1.2,2.4-2.2,3.3s-2.1,1.7-3.4,2.2c-1.3,0.5-2.8,0.8-4.4,0.8
		c-1.6,0-3-0.3-4.3-0.8c-1.3-0.5-2.4-1.3-3.4-2.2c-0.9-0.9-1.7-2.1-2.2-3.3s-0.8-2.7-0.8-4.3c0-1.5,0.3-3,0.8-4.3
		c0.5-1.3,1.2-2.5,2.2-3.4c0.9-1,2.1-1.7,3.4-2.2s2.8-0.8,4.3-0.8c1.6,0,3.1,0.3,4.4,0.8s2.4,1.3,3.4,2.2s1.7,2.1,2.2,3.4
		C232.1,258.3,232.3,259.7,232.3,261.2z M227.8,261.3c0-0.9-0.1-1.8-0.4-2.6s-0.7-1.5-1.2-2.1s-1.2-1-1.9-1.4
		c-0.8-0.3-1.6-0.5-2.6-0.5c-1,0-1.8,0.2-2.6,0.5c-0.8,0.3-1.4,0.8-1.9,1.4c-0.5,0.6-0.9,1.3-1.2,2.1s-0.4,1.7-0.4,2.6
		c0,1,0.1,1.8,0.4,2.6s0.7,1.5,1.2,2.1c0.5,0.6,1.2,1.1,1.9,1.4s1.6,0.5,2.6,0.5c0.9,0,1.8-0.2,2.6-0.5s1.4-0.8,1.9-1.4
		s0.9-1.3,1.2-2.1S227.8,262.2,227.8,261.3z"/>
	<path class="st2" d="M255.1,271.4h-4.5v-12.5c0-1.6-0.3-2.7-0.9-3.3s-1.5-0.9-2.6-0.9c-1.7,0-3,0.7-4.1,2c-1.1,1.4-1.6,3.2-1.6,5.6
		v9.1h-4.5V251h4.5v5.1c0.5-1.8,1.3-3.1,2.5-4.1c1.2-1,2.7-1.5,4.5-1.5c2.1,0,3.7,0.7,4.9,2c1.2,1.4,1.8,3.4,1.8,6.2V271.4z"/>
</g>
<g class="st1">
	<path class="st2" d="M84.7,317.2c0,1.3-0.2,2.5-0.7,3.5c-0.4,1-1,1.9-1.8,2.6c-0.8,0.7-1.7,1.3-2.7,1.6s-2.2,0.6-3.4,0.6
		c-1.3,0-2.5-0.2-3.6-0.7c-1.1-0.5-2-1.3-2.8-2.4v2.6h-4.1v-9.3h4.1c0,0.9,0.2,1.8,0.5,2.5c0.3,0.7,0.8,1.3,1.3,1.8
		c0.5,0.5,1.2,0.9,1.9,1.1c0.7,0.3,1.5,0.4,2.3,0.4c1.4,0,2.4-0.3,3.3-0.9c0.8-0.6,1.2-1.6,1.2-3c0-0.7-0.1-1.3-0.4-1.8
		c-0.3-0.5-0.6-1-1.1-1.4c-0.5-0.4-1.1-0.7-1.7-1c-0.7-0.3-1.5-0.6-2.3-0.9c-1-0.3-2.1-0.7-3.1-1.2s-2-1-2.8-1.6s-1.5-1.4-2-2.4
		c-0.5-0.9-0.8-2.1-0.8-3.5c0-1.3,0.2-2.3,0.7-3.3c0.5-0.9,1.1-1.7,1.8-2.4c0.8-0.6,1.7-1.1,2.7-1.5s2.1-0.5,3.2-0.5
		c1.3,0,2.4,0.3,3.4,0.8s1.7,1.3,2.2,2.2v-2.6H84v8.9h-4.1c0-1.7-0.4-3-1.3-3.9c-0.9-0.9-2.1-1.4-3.5-1.4c-1.3,0-2.4,0.3-3.3,0.9
		c-0.9,0.6-1.3,1.5-1.3,2.6c0,0.6,0.1,1.1,0.3,1.5c0.2,0.4,0.6,0.8,1,1.1c0.4,0.3,1,0.6,1.6,0.9c0.7,0.3,1.4,0.6,2.3,0.9
		c1.1,0.4,2.1,0.8,3.2,1.3s2,1.1,2.9,1.8c0.8,0.7,1.5,1.5,2.1,2.5C84.4,314.6,84.7,315.8,84.7,317.2z"/>
	<path class="st2" d="M109,322.2c-1.3,1.3-2.7,2.2-4.1,2.7c-1.4,0.5-3,0.7-4.7,0.7c-1.7,0-3.2-0.3-4.6-0.8c-1.4-0.5-2.6-1.2-3.5-2.2
		c-1-0.9-1.7-2-2.2-3.3c-0.5-1.3-0.8-2.8-0.8-4.4c0-1.5,0.3-3,0.8-4.3c0.5-1.3,1.2-2.4,2.1-3.4c0.9-0.9,1.9-1.7,3.1-2.2
		c1.2-0.5,2.5-0.8,3.8-0.8c1.4,0,2.6,0.3,3.6,0.9s1.8,1.4,2.2,2.6v-2.9h4.1v9.5h-4.1c0-1.8-0.5-3.2-1.5-4.3c-1-1.1-2.3-1.6-3.8-1.6
		c-0.6,0-1.3,0.1-2,0.4c-0.7,0.3-1.3,0.7-1.9,1.2c-0.6,0.5-1,1.2-1.4,2.1c-0.4,0.8-0.6,1.8-0.6,3c0,1.1,0.2,2.1,0.5,2.9
		c0.4,0.8,0.8,1.5,1.4,2c0.6,0.5,1.3,0.9,2.1,1.2c0.8,0.3,1.6,0.4,2.5,0.4c1.5,0,2.7-0.2,3.8-0.7c1.1-0.5,2-1.1,2.8-1.8L109,322.2z"
		/>
	<path class="st2" d="M133.1,325h-4.5v-12.5c0-1.6-0.3-2.7-0.9-3.3s-1.5-0.9-2.6-0.9c-1.7,0-3,0.7-4.1,2c-1.1,1.4-1.6,3.2-1.6,5.6
		v9.1h-4.5v-28.5h4.5v13.2c0.5-1.8,1.3-3.1,2.5-4.1c1.2-1,2.7-1.5,4.5-1.5c2.1,0,3.7,0.7,4.9,2c1.2,1.4,1.8,3.4,1.8,6.2V325z"/>
	<path class="st2" d="M159.1,314.9c0,1.6-0.3,3-0.8,4.3s-1.2,2.4-2.2,3.3s-2.1,1.7-3.4,2.2c-1.3,0.5-2.8,0.8-4.4,0.8
		c-1.6,0-3-0.3-4.3-0.8c-1.3-0.5-2.4-1.3-3.4-2.2c-0.9-0.9-1.7-2.1-2.2-3.3s-0.8-2.7-0.8-4.3c0-1.5,0.3-3,0.8-4.3
		c0.5-1.3,1.2-2.5,2.2-3.4c0.9-1,2.1-1.7,3.4-2.2s2.8-0.8,4.3-0.8c1.6,0,3.1,0.3,4.4,0.8s2.4,1.3,3.4,2.2s1.7,2.1,2.2,3.4
		C158.9,311.9,159.1,313.3,159.1,314.9z M154.6,314.9c0-0.9-0.1-1.8-0.4-2.6s-0.7-1.5-1.2-2.1s-1.2-1-1.9-1.4
		c-0.8-0.3-1.6-0.5-2.6-0.5c-1,0-1.8,0.2-2.6,0.5c-0.8,0.3-1.4,0.8-1.9,1.4c-0.5,0.6-0.9,1.3-1.2,2.1s-0.4,1.7-0.4,2.6
		c0,1,0.1,1.8,0.4,2.6s0.7,1.5,1.2,2.1c0.5,0.6,1.2,1.1,1.9,1.4s1.6,0.5,2.6,0.5c0.9,0,1.8-0.2,2.6-0.5s1.4-0.8,1.9-1.4
		s0.9-1.3,1.2-2.1S154.6,315.9,154.6,314.9z"/>
	<path class="st2" d="M183.5,314.9c0,1.6-0.3,3-0.8,4.3s-1.2,2.4-2.2,3.3s-2.1,1.7-3.4,2.2c-1.3,0.5-2.8,0.8-4.4,0.8
		c-1.6,0-3-0.3-4.3-0.8c-1.3-0.5-2.4-1.3-3.4-2.2c-0.9-0.9-1.7-2.1-2.2-3.3s-0.8-2.7-0.8-4.3c0-1.5,0.3-3,0.8-4.3
		c0.5-1.3,1.2-2.5,2.2-3.4c0.9-1,2.1-1.7,3.4-2.2s2.8-0.8,4.3-0.8c1.6,0,3.1,0.3,4.4,0.8s2.4,1.3,3.4,2.2s1.7,2.1,2.2,3.4
		C183.3,311.9,183.5,313.3,183.5,314.9z M179,314.9c0-0.9-0.1-1.8-0.4-2.6s-0.7-1.5-1.2-2.1s-1.2-1-1.9-1.4
		c-0.8-0.3-1.6-0.5-2.6-0.5c-1,0-1.8,0.2-2.6,0.5c-0.8,0.3-1.4,0.8-1.9,1.4c-0.5,0.6-0.9,1.3-1.2,2.1s-0.4,1.7-0.4,2.6
		c0,1,0.1,1.8,0.4,2.6s0.7,1.5,1.2,2.1c0.5,0.6,1.2,1.1,1.9,1.4s1.6,0.5,2.6,0.5c0.9,0,1.8-0.2,2.6-0.5s1.4-0.8,1.9-1.4
		s0.9-1.3,1.2-2.1S179,315.9,179,314.9z"/>
	<path class="st2" d="M204.2,325h-13.7V321h4.5v-20.4h-4.5v-4.1h9V321h4.7V325z"/>
</g>
<g class="st1">
	<path class="st2" d="M84.3,378.7h-4.5v-19.3l-2.9,10.2h-3.5l-2.8-10.2v19.3h-4.5v-28.5h5.4l3.7,12.9l3.7-12.9h5.4V378.7z"/>
	<path class="st2" d="M89.4,372.8c0-1.2,0.3-2.2,1-3.1c0.6-0.9,1.5-1.6,2.5-2.2c1-0.6,2.2-1,3.6-1.3c1.3-0.3,2.7-0.4,4.1-0.4
		c0.8,0,1.4,0,2,0c0.6,0,1.1,0.1,1.7,0.1V365c0-1.1-0.4-1.9-1.2-2.4c-0.8-0.5-1.9-0.8-3.2-0.8c-1.2,0-2.5,0.2-3.7,0.5
		s-2.5,0.8-3.6,1.5l-1.8-3.5c1.3-0.8,2.8-1.4,4.3-1.8c1.5-0.4,3.2-0.7,4.9-0.7c1.1,0,2.2,0.1,3.3,0.4c1.1,0.2,2,0.7,2.9,1.2
		c0.9,0.6,1.5,1.3,2,2.2c0.5,0.9,0.8,2,0.8,3.4v13.6h-4.5v-3c-0.7,1.1-1.8,2-3.2,2.6c-1.4,0.6-2.9,0.9-4.5,0.9c-1,0-1.9-0.1-2.8-0.4
		c-0.9-0.3-1.6-0.7-2.3-1.2c-0.6-0.5-1.2-1.2-1.5-2C89.6,374.8,89.4,373.9,89.4,372.8z M97.7,375.1c0.9,0,1.7-0.1,2.5-0.3
		s1.5-0.5,2.1-0.9c0.6-0.4,1.1-0.9,1.4-1.4c0.3-0.6,0.5-1.2,0.5-1.9v-0.8c-0.7-0.1-1.4-0.2-2-0.2c-0.6,0-1.2,0-1.7,0
		c-2.2,0-3.9,0.3-5,0.9c-1.1,0.6-1.7,1.3-1.7,2.2C93.8,374.3,95.1,375.1,97.7,375.1z"/>
	<path class="st2" d="M133.7,363.2c-0.5-0.3-1.1-0.5-1.6-0.6c-0.6-0.1-1.2-0.2-1.9-0.2c-1,0-1.9,0.1-2.8,0.4
		c-0.9,0.3-1.6,0.7-2.3,1.3c-0.6,0.6-1.1,1.3-1.5,2.2c-0.4,0.9-0.5,2-0.5,3.2v5.1h4.6v4.1h-13.7v-4.1h4.6v-12.2h-4.6v-4.1h9.1v5.1
		c0.7-2,1.8-3.5,3.3-4.3c1.4-0.8,3.2-1.3,5.2-1.3c0.6,0,1.3,0.1,2,0.2s1.4,0.4,2,0.7L133.7,363.2z"/>
	<path class="st2" d="M158.6,378.7h-5.8l-6.8-8.2l-2.1,2.1v6.1h-4.5v-28.5h4.5V367l8.1-8.6h6.2l-9.4,9.3L158.6,378.7z"/>
	<path class="st2" d="M166.8,370.2c0.2,1.4,0.9,2.6,2,3.5c1.1,0.9,2.6,1.4,4.5,1.4c1.5,0,2.7-0.2,3.8-0.7c1.1-0.5,2-1.1,2.8-1.8
		l2.3,3.2c-1.3,1.3-2.7,2.2-4.2,2.7c-1.5,0.5-3.1,0.7-4.8,0.7c-1.6,0-3-0.3-4.4-0.8c-1.4-0.5-2.5-1.3-3.5-2.2
		c-1-0.9-1.8-2.1-2.3-3.3s-0.8-2.7-0.8-4.3c0-1.5,0.3-3,0.8-4.3c0.5-1.3,1.2-2.4,2.2-3.4s2.1-1.7,3.4-2.2s2.8-0.8,4.3-0.8
		c1.6,0,3.1,0.3,4.5,0.8c1.3,0.6,2.5,1.4,3.4,2.4c1,1.1,1.7,2.4,2.2,3.9c0.5,1.5,0.8,3.3,0.8,5.2H166.8z M178.7,366.3
		c-0.2-1.3-0.9-2.4-2-3.2c-1.1-0.8-2.4-1.2-3.8-1.2c-1.4,0-2.7,0.4-3.8,1.2c-1.1,0.8-1.8,1.8-2.1,3.2H178.7z"/>
	<path class="st2" d="M207.6,372.2c-0.2,2.1-1.1,3.8-2.5,5.1c-1.4,1.3-3.3,1.9-5.4,1.9c-1.2,0-2.3-0.2-3.3-0.6
		c-1-0.4-1.8-0.9-2.5-1.6c-0.7-0.7-1.2-1.5-1.6-2.5c-0.4-1-0.6-2.1-0.6-3.2v-8.8h-4.6v-4.1h4.6v-8.1h4.5v8.1h8.5v4.1h-8.5v8.8
		c0,1.3,0.3,2.3,1,2.9s1.5,1,2.5,1c1.3,0,2.2-0.4,2.9-1.1s1-1.6,1.1-2.7L207.6,372.2z"/>
	<path class="st2" d="M228.5,378.7h-13.7v-4.1h4.5v-12.2h-4.5v-4.1h9v16.3h4.6V378.7z M224.4,355.7h-5.5v-5.5h5.5V355.7z"/>
	<path class="st2" d="M255.1,378.7h-4.5v-12.5c0-1.6-0.3-2.7-0.9-3.3s-1.5-0.9-2.6-0.9c-1.7,0-3,0.7-4.1,2c-1.1,1.4-1.6,3.2-1.6,5.6
		v9.1h-4.5v-20.3h4.5v5.1c0.5-1.8,1.3-3.1,2.5-4.1c1.2-1,2.7-1.5,4.5-1.5c2.1,0,3.7,0.7,4.9,2c1.2,1.4,1.8,3.4,1.8,6.2V378.7z"/>
	<path class="st2" d="M279.5,378.5c0,1.4-0.2,2.6-0.7,3.7c-0.5,1.1-1.2,2-2,2.8c-0.9,0.8-1.9,1.3-3.1,1.7c-1.2,0.4-2.5,0.6-3.9,0.6
		c-3.5,0-6.6-1.1-9.1-3.2l2.1-3.5c2.1,1.8,4.4,2.7,6.9,2.7c1.6,0,2.8-0.4,3.8-1.1c1-0.8,1.4-2,1.4-3.6v-2.2
		c-0.9,0.8-1.8,1.4-2.7,1.8c-0.9,0.4-1.9,0.6-3,0.6c-1.3,0-2.5-0.3-3.6-0.8c-1.1-0.6-2.1-1.3-2.9-2.3c-0.8-1-1.4-2.1-1.9-3.3
		c-0.5-1.3-0.7-2.6-0.7-4s0.2-2.8,0.7-4c0.5-1.3,1.1-2.4,1.9-3.3c0.8-0.9,1.8-1.7,2.9-2.2s2.3-0.8,3.6-0.8c1.1,0,2.1,0.2,3,0.6
		c0.9,0.4,1.8,1,2.6,1.7v-1.8h4.5V378.5z M275,363.8c-0.5-0.6-1.2-1.1-2.1-1.4c-0.9-0.3-1.7-0.5-2.5-0.5c-1.7,0-3.1,0.6-4.1,1.8
		s-1.6,2.7-1.6,4.6c0,0.9,0.1,1.8,0.4,2.5s0.7,1.5,1.2,2s1.1,1,1.8,1.3c0.7,0.3,1.5,0.5,2.3,0.5c0.8,0,1.6-0.2,2.5-0.5
		c0.9-0.3,1.5-0.8,2.1-1.4V363.8z"/>
</g>
<g class="st1">
	<path class="st3" d="M200.6,483.9l-14.9,19.9l-3.5-1.9l3.1-10.4l-6.9,8.4l-3.5-1.9l8.2-23.5l3.6,1.9l-5.8,15.7l6.1-7.6l3.3,1.8
		l-2.9,9.2L197,482L200.6,483.9z"/>
</g>
<g class="st1">
	<path class="st3" d="M198.3,502c-0.3,1.2-0.2,2.3,0.4,3.4c0.6,1.1,1.6,2,3,2.6c1.2,0.5,2.2,0.8,3.2,0.8c1,0,2-0.1,2.8-0.5l0.7,3.3
		c-1.5,0.6-2.9,0.8-4.2,0.7c-1.3-0.1-2.7-0.5-4-1.1c-1.2-0.5-2.3-1.3-3.2-2.1c-0.9-0.9-1.5-1.9-2-2.9c-0.5-1.1-0.7-2.2-0.7-3.4
		c0-1.2,0.3-2.4,0.8-3.7c0.5-1.2,1.2-2.2,2.1-3.1s1.8-1.5,2.9-1.9c1.1-0.4,2.2-0.6,3.4-0.6c1.2,0,2.4,0.3,3.7,0.9
		c1.3,0.6,2.4,1.3,3.2,2.2c0.9,0.9,1.5,1.9,1.9,3.1c0.4,1.2,0.5,2.4,0.4,3.8c-0.1,1.4-0.5,2.8-1.2,4.4L198.3,502z M209.1,503
		c0.3-1.1,0.1-2.2-0.5-3.2c-0.6-1-1.5-1.8-2.6-2.3c-1.1-0.5-2.3-0.6-3.4-0.4c-1.2,0.2-2.1,0.8-2.7,1.8L209.1,503z"/>
</g>
<g class="st1">
	<path class="st3" d="M238.4,499.3l-11.9,21.9l-3.8-1.4l1.5-10.7l-5.6,9.3L215,517l4.7-24.4l3.8,1.4l-3.5,16.4l4.9-8.4l3.5,1.3
		l-1.6,9.6l7.8-14.8L238.4,499.3z"/>
</g>
<g class="st1">
	<path class="st3" d="M253,520c-0.4,1.3-0.9,2.5-1.6,3.4c-0.7,1-1.6,1.7-2.6,2.3c-1,0.6-2.1,0.9-3.3,1c-1.2,0.1-2.5,0-3.8-0.4
		c-1.3-0.4-2.5-0.9-3.4-1.7c-1-0.7-1.7-1.6-2.3-2.6c-0.6-1-0.9-2.1-1-3.3c-0.1-1.2,0-2.4,0.4-3.8c0.4-1.3,0.9-2.4,1.6-3.4
		c0.7-1,1.6-1.7,2.6-2.3s2.1-0.9,3.3-1c1.2-0.1,2.5,0,3.8,0.4c1.3,0.4,2.5,0.9,3.5,1.7c1,0.7,1.7,1.6,2.3,2.6c0.6,1,0.9,2.1,1,3.3
		C253.5,517.5,253.4,518.7,253,520z M249.3,519c0.2-0.8,0.3-1.5,0.3-2.3c0-0.7-0.2-1.4-0.5-2c-0.3-0.6-0.7-1.1-1.3-1.6
		c-0.6-0.5-1.2-0.8-2-1c-0.8-0.2-1.5-0.3-2.2-0.2c-0.7,0.1-1.3,0.3-1.9,0.7c-0.6,0.4-1.1,0.9-1.5,1.5c-0.4,0.6-0.7,1.3-1,2.1
		c-0.2,0.8-0.3,1.6-0.3,2.3c0.1,0.7,0.2,1.4,0.5,2s0.7,1.1,1.3,1.6c0.5,0.4,1.2,0.8,2,1c0.8,0.2,1.5,0.3,2.2,0.2
		c0.7-0.1,1.4-0.3,1.9-0.7c0.6-0.4,1.1-0.8,1.5-1.4C248.8,520.5,249.1,519.8,249.3,519z"/>
</g>
<g class="st1">
	<path class="st3" d="M274.2,520c-0.4-0.3-0.8-0.6-1.3-0.8c-0.4-0.2-1-0.4-1.6-0.5c-0.8-0.2-1.7-0.2-2.5-0.1
		c-0.8,0.1-1.5,0.3-2.2,0.7c-0.6,0.4-1.2,0.9-1.7,1.6c-0.5,0.7-0.8,1.6-1,2.6l-0.9,4.3l3.9,0.8l-0.7,3.4l-11.6-2.4l0.7-3.4l3.9,0.8
		l2.2-10.3l-3.9-0.8l0.7-3.4l7.7,1.6l-0.9,4.3c1-1.6,2.2-2.6,3.5-3.1s2.9-0.5,4.6-0.2c0.5,0.1,1.1,0.3,1.6,0.5s1.1,0.5,1.6,0.9
		L274.2,520z"/>
</g>
<g class="st1">
	<path class="st3" d="M293.8,536.5l-5-0.7L284,528l-2,1.5l-0.7,5.2l-3.9-0.5l3.4-24.3l3.9,0.5l-2,14.3l8-6.4l5.3,0.7l-9.1,6.9
		L293.8,536.5z"/>
</g>
</svg>
