<?xml version="1.0" encoding="utf-8"?>
<!-- Generator: Adobe Illustrator 24.0.1, SVG Export Plug-In . SVG Version: 6.00 Build 0)  -->
<svg version="1.1" id="Layer_1" xmlns="http://www.w3.org/2000/svg" xmlns:xlink="http://www.w3.org/1999/xlink" x="0px" y="0px"
	 viewBox="0 0 376.5 351.1" style="enable-background:new 0 0 376.5 351.1;" xml:space="preserve">
<style type="text/css">
	.st0{fill:#F38B20;}
	.st1{fill:#FFFFFF;}
	.st2{font-family:'AnonymousPro-Bold';}
	.st3{font-size:35.6406px;}
</style>
<title>MusicalRug</title>
<path class="st0" d="M134,82.4c-47-9-102.7,6-124.6,48.6c-15.3,29.7-10.8,66.7,5,96.1s41.4,52.3,68.3,72
	c48.5,35.3,109.2,63,167.2,47.8c63.9-16.8,104.6-81.4,119.8-145.6c9.8-41.4,11.1-87.3-10.5-124C335.6,36.9,289,15.8,243.5,5.4
	c-28.9-6.6-61-9.4-86.6,5.6s-38,54-17.3,75.2"/>
<text transform="matrix(1 0 0 1 37.0004 170.3526)"><tspan x="0" y="0" class="st1 st2 st3">Flatiron School</tspan><tspan x="0" y="42.8" class="st1 st2 st3">Marketing Design</tspan></text>
</svg>
