<?xml version="1.0" encoding="utf-8"?>
<!-- Generator: Adobe Illustrator 24.0.1, SVG Export Plug-In . SVG Version: 6.00 Build 0)  -->
<svg version="1.1" id="Layer_1" xmlns="http://www.w3.org/2000/svg" xmlns:xlink="http://www.w3.org/1999/xlink" x="0px" y="0px"
	 viewBox="0 0 376.5 351.1" style="enable-background:new 0 0 376.5 351.1;" xml:space="preserve">
<style type="text/css">
	.st0{fill:#F38B20;}
	.st1{enable-background:new    ;}
	.st2{fill:#FFFFFF;}
</style>
<title>MusicalRug</title>
<path class="st0" d="M134,82.4c-47-9-102.7,6-124.6,48.6c-15.3,29.7-10.8,66.7,5,96.1s41.4,52.3,68.3,72
	c48.5,35.3,109.2,63,167.2,47.8c63.9-16.8,104.6-81.4,119.8-145.6c9.8-41.4,11.1-87.3-10.5-124C335.6,36.9,289,15.8,243.5,5.4
	c-28.9-6.6-61-9.4-86.6,5.6s-38,54-17.3,75.2"/>
<g class="st1">
	<path class="st2" d="M52.4,150.9H41.5v6.3H50v3.2h-8.5v9.9h-3.6v-22.7h14.5V150.9z"/>
	<path class="st2" d="M70.1,170.4H59.2v-3.2h3.6v-16.2h-3.6v-3.2h7.2v19.5h3.7V170.4z"/>
	<path class="st2" d="M75.8,165.7c0-1,0.3-1.8,0.8-2.5c0.5-0.7,1.2-1.3,2-1.8c0.8-0.5,1.8-0.8,2.9-1.1c1.1-0.2,2.2-0.4,3.3-0.4
		c0.6,0,1.1,0,1.6,0c0.4,0,0.9,0.1,1.3,0.1v-0.6c0-0.8-0.3-1.5-1-1.9s-1.5-0.6-2.6-0.6c-1,0-2,0.1-3,0.4s-2,0.7-2.9,1.2l-1.5-2.8
		c1.1-0.6,2.2-1.1,3.4-1.5c1.2-0.4,2.5-0.5,3.9-0.5c0.9,0,1.7,0.1,2.6,0.3c0.9,0.2,1.6,0.5,2.3,1c0.7,0.5,1.2,1,1.6,1.8
		c0.4,0.7,0.6,1.6,0.6,2.7v10.9h-3.6V168c-0.6,0.9-1.4,1.6-2.5,2.1c-1.1,0.5-2.3,0.7-3.6,0.7c-0.8,0-1.5-0.1-2.2-0.3
		c-0.7-0.2-1.3-0.5-1.8-1c-0.5-0.4-0.9-1-1.2-1.6C76,167.2,75.8,166.5,75.8,165.7z M82.5,167.5c0.7,0,1.4-0.1,2-0.3
		c0.6-0.2,1.2-0.4,1.6-0.7c0.5-0.3,0.8-0.7,1.1-1.2s0.4-0.9,0.4-1.5v-0.6c-0.6-0.1-1.1-0.1-1.6-0.2c-0.5,0-0.9,0-1.3,0
		c-1.8,0-3.1,0.2-4,0.7c-0.9,0.5-1.3,1-1.3,1.7C79.4,166.8,80.4,167.5,82.5,167.5z"/>
	<path class="st2" d="M111.8,165.2c-0.2,1.7-0.9,3.1-2,4.1c-1.2,1-2.6,1.5-4.3,1.5c-1,0-1.8-0.2-2.6-0.5s-1.5-0.7-2-1.3
		c-0.6-0.6-1-1.2-1.3-2c-0.3-0.8-0.5-1.6-0.5-2.6v-7h-3.7v-3.2H99v-6.5h3.6v6.5h6.8v3.2h-6.8v7c0,1,0.3,1.8,0.8,2.3
		c0.5,0.5,1.2,0.8,2,0.8c1,0,1.8-0.3,2.3-0.9c0.5-0.6,0.8-1.3,0.9-2.1L111.8,165.2z"/>
	<path class="st2" d="M128.4,170.4h-10.9v-3.2h3.6v-9.7h-3.6v-3.2h7.2v13h3.7V170.4z M125.1,152h-4.4v-4.4h4.4V152z"/>
	<path class="st2" d="M150.1,158c-0.4-0.2-0.9-0.4-1.3-0.5s-1-0.2-1.5-0.2c-0.8,0-1.6,0.1-2.3,0.4c-0.7,0.2-1.3,0.6-1.8,1.1
		c-0.5,0.5-0.9,1.1-1.2,1.8c-0.3,0.7-0.4,1.6-0.4,2.5v4h3.6v3.2h-10.9v-3.2h3.7v-9.7h-3.7v-3.3h7.3v4.1c0.6-1.6,1.5-2.8,2.6-3.4
		c1.2-0.7,2.5-1,4.1-1c0.5,0,1,0.1,1.6,0.2s1.1,0.3,1.6,0.6L150.1,158z"/>
	<path class="st2" d="M170.4,162.3c0,1.3-0.2,2.4-0.6,3.4c-0.4,1-1,1.9-1.7,2.7c-0.7,0.7-1.6,1.3-2.7,1.7c-1,0.4-2.2,0.6-3.5,0.6
		c-1.3,0-2.4-0.2-3.5-0.6c-1-0.4-1.9-1-2.7-1.7c-0.7-0.7-1.3-1.6-1.7-2.7c-0.4-1-0.6-2.2-0.6-3.4c0-1.2,0.2-2.4,0.6-3.4s1-2,1.7-2.7
		c0.7-0.8,1.6-1.3,2.7-1.8c1-0.4,2.2-0.6,3.5-0.6c1.3,0,2.5,0.2,3.5,0.6c1,0.4,1.9,1,2.7,1.8c0.7,0.8,1.3,1.7,1.7,2.7
		S170.4,161,170.4,162.3z M166.8,162.3c0-0.7-0.1-1.4-0.3-2.1c-0.2-0.7-0.6-1.2-1-1.7s-0.9-0.8-1.6-1.1c-0.6-0.3-1.3-0.4-2-0.4
		c-0.8,0-1.4,0.1-2,0.4c-0.6,0.3-1.1,0.6-1.5,1.1s-0.7,1-1,1.7c-0.2,0.7-0.3,1.4-0.3,2.1c0,0.8,0.1,1.5,0.3,2.1
		c0.2,0.6,0.5,1.2,1,1.7s0.9,0.8,1.5,1.1c0.6,0.3,1.3,0.4,2,0.4c0.8,0,1.4-0.1,2-0.4s1.1-0.6,1.6-1.1s0.8-1,1-1.7
		C166.7,163.7,166.8,163,166.8,162.3z"/>
	<path class="st2" d="M188.6,170.4H185v-10c0-1.3-0.2-2.1-0.7-2.6c-0.5-0.5-1.2-0.7-2.1-0.7c-1.3,0-2.4,0.5-3.3,1.6
		c-0.8,1.1-1.3,2.6-1.3,4.5v7.3H174v-16.2h3.6v4.1c0.4-1.4,1-2.5,2-3.3s2.2-1.2,3.6-1.2c1.7,0,3,0.5,3.9,1.6c0.9,1.1,1.4,2.7,1.4,5
		V170.4z"/>
	<path class="st2" d="M227.8,164.1c0,1-0.2,2-0.5,2.8c-0.4,0.8-0.8,1.5-1.4,2.1c-0.6,0.6-1.3,1-2.2,1.3c-0.8,0.3-1.7,0.5-2.7,0.5
		c-1.1,0-2-0.2-2.9-0.6c-0.9-0.4-1.6-1-2.2-1.9v2.1h-3.2v-7.4h3.2c0,0.7,0.1,1.4,0.4,2c0.3,0.6,0.6,1,1,1.4c0.4,0.4,0.9,0.7,1.5,0.9
		c0.6,0.2,1.2,0.3,1.8,0.3c1.1,0,1.9-0.2,2.6-0.7c0.7-0.5,1-1.3,1-2.4c0-0.6-0.1-1.1-0.3-1.5c-0.2-0.4-0.5-0.8-0.9-1.1
		c-0.4-0.3-0.8-0.6-1.4-0.8c-0.5-0.2-1.2-0.5-1.9-0.8c-0.8-0.3-1.6-0.6-2.5-0.9c-0.8-0.3-1.6-0.8-2.2-1.3c-0.6-0.5-1.2-1.1-1.6-1.9
		c-0.4-0.7-0.6-1.7-0.6-2.8c0-1,0.2-1.9,0.5-2.6c0.4-0.7,0.9-1.4,1.5-1.9c0.6-0.5,1.3-0.9,2.1-1.2s1.7-0.4,2.6-0.4
		c1,0,1.9,0.2,2.7,0.7c0.7,0.4,1.3,1,1.7,1.8v-2h3.2v7.1H224c0-1.3-0.4-2.4-1.1-3.1s-1.6-1.1-2.8-1.1c-1,0-1.9,0.2-2.6,0.7
		s-1,1.2-1,2.1c0,0.5,0.1,0.8,0.3,1.2s0.4,0.6,0.8,0.9c0.3,0.3,0.8,0.5,1.3,0.7c0.5,0.2,1.1,0.5,1.8,0.7c0.9,0.3,1.7,0.6,2.6,1
		c0.8,0.4,1.6,0.9,2.3,1.4c0.7,0.6,1.2,1.2,1.7,2C227.5,162,227.8,163,227.8,164.1z"/>
	<path class="st2" d="M247.2,168.1c-1,1-2.1,1.7-3.3,2.1s-2.4,0.6-3.8,0.6c-1.4,0-2.6-0.2-3.7-0.6c-1.1-0.4-2-1-2.8-1.7
		s-1.4-1.6-1.8-2.7c-0.4-1-0.6-2.2-0.6-3.5c0-1.2,0.2-2.4,0.6-3.4s1-1.9,1.7-2.7c0.7-0.7,1.5-1.3,2.5-1.8s2-0.6,3-0.6
		c1.1,0,2.1,0.2,2.9,0.7c0.8,0.5,1.4,1.1,1.8,2v-2.3h3.2v7.6h-3.2c0-1.4-0.4-2.6-1.2-3.4c-0.8-0.9-1.8-1.3-3-1.3
		c-0.5,0-1,0.1-1.6,0.3c-0.5,0.2-1.1,0.5-1.5,1c-0.5,0.4-0.8,1-1.1,1.6s-0.5,1.5-0.5,2.4c0,0.9,0.1,1.7,0.4,2.3
		c0.3,0.7,0.7,1.2,1.1,1.6c0.5,0.4,1,0.7,1.7,1c0.6,0.2,1.3,0.3,2,0.3c1.2,0,2.2-0.2,3-0.5s1.6-0.8,2.2-1.5L247.2,168.1z"/>
	<path class="st2" d="M266.4,170.4h-3.6v-10c0-1.3-0.2-2.1-0.7-2.6s-1.2-0.7-2.1-0.7c-1.3,0-2.4,0.5-3.3,1.6s-1.3,2.6-1.3,4.5v7.3
		h-3.6v-22.7h3.6v10.6c0.4-1.4,1-2.5,2-3.3s2.2-1.2,3.6-1.2c1.7,0,3,0.5,3.9,1.6s1.4,2.7,1.4,5V170.4z"/>
	<path class="st2" d="M287.1,162.3c0,1.3-0.2,2.4-0.6,3.4c-0.4,1-1,1.9-1.7,2.7c-0.7,0.7-1.6,1.3-2.7,1.7c-1,0.4-2.2,0.6-3.5,0.6
		c-1.3,0-2.4-0.2-3.5-0.6c-1-0.4-1.9-1-2.7-1.7c-0.7-0.7-1.3-1.6-1.7-2.7c-0.4-1-0.6-2.2-0.6-3.4c0-1.2,0.2-2.4,0.6-3.4s1-2,1.7-2.7
		s1.6-1.3,2.7-1.8s2.2-0.6,3.5-0.6c1.3,0,2.5,0.2,3.5,0.6s1.9,1,2.7,1.8c0.7,0.8,1.3,1.7,1.7,2.7S287.1,161,287.1,162.3z
		 M283.5,162.3c0-0.7-0.1-1.4-0.3-2.1c-0.2-0.7-0.6-1.2-1-1.7s-0.9-0.8-1.6-1.1c-0.6-0.3-1.3-0.4-2-0.4c-0.8,0-1.4,0.1-2,0.4
		c-0.6,0.3-1.1,0.6-1.5,1.1s-0.7,1-1,1.7c-0.2,0.7-0.3,1.4-0.3,2.1c0,0.8,0.1,1.5,0.3,2.1c0.2,0.6,0.5,1.2,1,1.7s0.9,0.8,1.5,1.1
		c0.6,0.3,1.3,0.4,2,0.4c0.8,0,1.4-0.1,2-0.4c0.6-0.3,1.1-0.6,1.6-1.1s0.8-1,1-1.7C283.4,163.7,283.5,163,283.5,162.3z"/>
	<path class="st2" d="M306.6,162.3c0,1.3-0.2,2.4-0.6,3.4c-0.4,1-1,1.9-1.7,2.7c-0.7,0.7-1.6,1.3-2.7,1.7c-1,0.4-2.2,0.6-3.5,0.6
		c-1.3,0-2.4-0.2-3.5-0.6c-1-0.4-1.9-1-2.7-1.7c-0.7-0.7-1.3-1.6-1.7-2.7c-0.4-1-0.6-2.2-0.6-3.4c0-1.2,0.2-2.4,0.6-3.4s1-2,1.7-2.7
		s1.6-1.3,2.7-1.8s2.2-0.6,3.5-0.6c1.3,0,2.5,0.2,3.5,0.6s1.9,1,2.7,1.8c0.7,0.8,1.3,1.7,1.7,2.7S306.6,161,306.6,162.3z M303,162.3
		c0-0.7-0.1-1.4-0.3-2.1c-0.2-0.7-0.6-1.2-1-1.7s-0.9-0.8-1.6-1.1c-0.6-0.3-1.3-0.4-2-0.4c-0.8,0-1.4,0.1-2,0.4
		c-0.6,0.3-1.1,0.6-1.5,1.1s-0.7,1-1,1.7c-0.2,0.7-0.3,1.4-0.3,2.1c0,0.8,0.1,1.5,0.3,2.1c0.2,0.6,0.5,1.2,1,1.7s0.9,0.8,1.5,1.1
		c0.6,0.3,1.3,0.4,2,0.4c0.8,0,1.4-0.1,2-0.4c0.6-0.3,1.1-0.6,1.6-1.1s0.8-1,1-1.7C302.9,163.7,303,163,303,162.3z"/>
	<path class="st2" d="M323,170.4h-10.9v-3.2h3.5v-16.2h-3.5v-3.2h7.2v19.5h3.7V170.4z"/>
</g>
<g class="st1">
	<path class="st2" d="M52.4,213.2h-3.6v-15.4l-2.3,8.2h-2.8l-2.2-8.2v15.4h-3.6v-22.7h4.3l3,10.3l3-10.3h4.3V213.2z"/>
	<path class="st2" d="M56.4,208.5c0-1,0.3-1.8,0.8-2.5c0.5-0.7,1.2-1.3,2-1.8c0.8-0.5,1.8-0.8,2.9-1.1c1.1-0.2,2.2-0.4,3.3-0.4
		c0.6,0,1.1,0,1.6,0c0.4,0,0.9,0.1,1.3,0.1v-0.6c0-0.8-0.3-1.5-1-1.9s-1.5-0.6-2.6-0.6c-1,0-2,0.1-3,0.4s-2,0.7-2.9,1.2l-1.5-2.8
		c1.1-0.6,2.2-1.1,3.4-1.5c1.2-0.4,2.5-0.5,3.9-0.5c0.9,0,1.7,0.1,2.6,0.3c0.9,0.2,1.6,0.5,2.3,1c0.7,0.5,1.2,1,1.6,1.8
		c0.4,0.7,0.6,1.6,0.6,2.7v10.9h-3.6v-2.4c-0.6,0.9-1.4,1.6-2.5,2.1c-1.1,0.5-2.3,0.7-3.6,0.7c-0.8,0-1.5-0.1-2.2-0.3
		c-0.7-0.2-1.3-0.5-1.8-1c-0.5-0.4-0.9-1-1.2-1.6C56.5,210,56.4,209.3,56.4,208.5z M63.1,210.3c0.7,0,1.4-0.1,2-0.3
		c0.6-0.2,1.2-0.4,1.6-0.7c0.5-0.3,0.8-0.7,1.1-1.2s0.4-0.9,0.4-1.5v-0.6c-0.6-0.1-1.1-0.1-1.6-0.2c-0.5,0-0.9,0-1.3,0
		c-1.8,0-3.1,0.2-4,0.7c-0.9,0.5-1.3,1-1.3,1.7C60,209.6,61,210.3,63.1,210.3z"/>
	<path class="st2" d="M91.7,200.8c-0.4-0.2-0.9-0.4-1.3-0.5s-1-0.2-1.5-0.2c-0.8,0-1.6,0.1-2.3,0.4c-0.7,0.2-1.3,0.6-1.8,1.1
		c-0.5,0.5-0.9,1.1-1.2,1.8c-0.3,0.7-0.4,1.6-0.4,2.5v4h3.6v3.2H75.9v-3.2h3.7v-9.7h-3.7v-3.3h7.3v4.1c0.6-1.6,1.5-2.8,2.6-3.4
		c1.2-0.7,2.5-1,4.1-1c0.5,0,1,0.1,1.6,0.2s1.1,0.3,1.6,0.6L91.7,200.8z"/>
	<path class="st2" d="M111.6,213.2h-4.7l-5.4-6.6l-1.6,1.7v4.9h-3.6v-22.7h3.6v13.4l6.5-6.9h4.9l-7.5,7.4L111.6,213.2z"/>
	<path class="st2" d="M118.1,206.4c0.2,1.1,0.7,2,1.6,2.8c0.9,0.7,2.1,1.1,3.6,1.1c1.2,0,2.2-0.2,3.1-0.5s1.6-0.8,2.2-1.5l1.8,2.5
		c-1,1-2.1,1.7-3.3,2.1s-2.4,0.6-3.8,0.6c-1.3,0-2.4-0.2-3.5-0.6c-1.1-0.4-2-1-2.8-1.7c-0.8-0.7-1.4-1.6-1.9-2.7
		c-0.4-1-0.7-2.2-0.7-3.4c0-1.2,0.2-2.4,0.6-3.4c0.4-1,1-1.9,1.7-2.7c0.7-0.8,1.6-1.4,2.7-1.8s2.2-0.6,3.5-0.6
		c1.3,0,2.5,0.2,3.6,0.7c1.1,0.4,2,1.1,2.7,1.9c0.8,0.8,1.4,1.9,1.8,3.1c0.4,1.2,0.6,2.6,0.6,4.2H118.1z M127.7,203.2
		c-0.2-1-0.7-1.9-1.6-2.5c-0.9-0.6-1.9-0.9-3-0.9c-1.1,0-2.2,0.3-3.1,0.9c-0.9,0.6-1.5,1.5-1.6,2.5H127.7z"/>
	<path class="st2" d="M150.7,208c-0.2,1.7-0.9,3.1-2,4.1c-1.2,1-2.6,1.5-4.3,1.5c-1,0-1.8-0.2-2.6-0.5s-1.5-0.7-2-1.3
		c-0.6-0.6-1-1.2-1.3-2c-0.3-0.8-0.5-1.6-0.5-2.6v-7h-3.7v-3.2h3.7v-6.5h3.6v6.5h6.8v3.2h-6.8v7c0,1,0.3,1.8,0.8,2.3
		c0.5,0.5,1.2,0.8,2,0.8c1,0,1.8-0.3,2.3-0.9c0.5-0.6,0.8-1.3,0.9-2.1L150.7,208z"/>
	<path class="st2" d="M167.3,213.2h-10.9v-3.2h3.6v-9.7h-3.6v-3.2h7.2v13h3.7V213.2z M164,194.8h-4.4v-4.4h4.4V194.8z"/>
	<path class="st2" d="M188.6,213.2H185v-10c0-1.3-0.2-2.1-0.7-2.6c-0.5-0.5-1.2-0.7-2.1-0.7c-1.3,0-2.4,0.5-3.3,1.6
		c-0.8,1.1-1.3,2.6-1.3,4.5v7.3H174v-16.2h3.6v4.1c0.4-1.4,1-2.5,2-3.3s2.2-1.2,3.6-1.2c1.7,0,3,0.5,3.9,1.6c0.9,1.1,1.4,2.7,1.4,5
		V213.2z"/>
	<path class="st2" d="M208,213c0,1.1-0.2,2.1-0.6,3s-0.9,1.6-1.6,2.2c-0.7,0.6-1.5,1.1-2.4,1.4c-0.9,0.3-2,0.5-3.1,0.5
		c-2.8,0-5.2-0.9-7.2-2.6l1.7-2.8c1.7,1.4,3.5,2.1,5.5,2.1c1.2,0,2.2-0.3,3-0.9c0.8-0.6,1.1-1.6,1.1-2.9v-1.7
		c-0.7,0.6-1.5,1.1-2.1,1.4c-0.7,0.3-1.5,0.5-2.4,0.5c-1,0-2-0.2-2.9-0.7c-0.9-0.4-1.7-1-2.3-1.8c-0.6-0.8-1.1-1.6-1.5-2.7
		c-0.4-1-0.5-2.1-0.5-3.2s0.2-2.2,0.5-3.2c0.4-1,0.9-1.9,1.5-2.6c0.6-0.7,1.4-1.3,2.3-1.8c0.9-0.4,1.9-0.7,2.9-0.7
		c0.9,0,1.7,0.2,2.4,0.5s1.4,0.8,2.1,1.4v-1.5h3.6V213z M204.4,201.2c-0.4-0.5-1-0.8-1.7-1.1c-0.7-0.2-1.3-0.4-2-0.4
		c-1.4,0-2.5,0.5-3.3,1.4c-0.8,1-1.3,2.2-1.3,3.6c0,0.7,0.1,1.4,0.3,2c0.2,0.6,0.5,1.2,0.9,1.6s0.9,0.8,1.4,1.1
		c0.6,0.3,1.2,0.4,1.8,0.4c0.6,0,1.3-0.1,2-0.4s1.2-0.6,1.7-1.1V201.2z"/>
	<path class="st2" d="M248.5,201.8c0,1.5-0.2,3-0.5,4.3c-0.3,1.4-0.8,2.6-1.5,3.6c-0.7,1-1.6,1.9-2.7,2.5c-1.1,0.6-2.4,0.9-4,0.9
		h-7.4v-22.7h7.4c1.5,0,2.9,0.3,4,0.9c1.1,0.6,2,1.4,2.7,2.5c0.7,1,1.2,2.2,1.5,3.6C248.4,198.8,248.5,200.3,248.5,201.8z
		 M244.9,201.8c0-2.6-0.4-4.6-1.3-6s-2.2-2.1-3.8-2.1H236v16.2h3.8c1.6,0,2.9-0.7,3.8-2.1S244.9,204.4,244.9,201.8z"/>
	<path class="st2" d="M254.3,206.4c0.2,1.1,0.7,2,1.6,2.8c0.9,0.7,2.1,1.1,3.6,1.1c1.2,0,2.2-0.2,3.1-0.5s1.6-0.8,2.2-1.5l1.8,2.5
		c-1,1-2.1,1.7-3.3,2.1s-2.4,0.6-3.8,0.6c-1.3,0-2.4-0.2-3.5-0.6c-1.1-0.4-2-1-2.8-1.7c-0.8-0.7-1.4-1.6-1.9-2.7
		c-0.4-1-0.7-2.2-0.7-3.4c0-1.2,0.2-2.4,0.6-3.4c0.4-1,1-1.9,1.7-2.7c0.7-0.8,1.6-1.4,2.7-1.8s2.2-0.6,3.5-0.6
		c1.3,0,2.5,0.2,3.6,0.7c1.1,0.4,2,1.1,2.7,1.9c0.8,0.8,1.4,1.9,1.8,3.1c0.4,1.2,0.6,2.6,0.6,4.2H254.3z M263.8,203.2
		c-0.2-1-0.7-1.9-1.6-2.5c-0.9-0.6-1.9-0.9-3-0.9s-2.2,0.3-3.1,0.9c-0.9,0.6-1.5,1.5-1.6,2.5H263.8z"/>
	<path class="st2" d="M286.3,208.3c0,1.1-0.2,1.9-0.7,2.6c-0.5,0.7-1.1,1.2-1.8,1.6c-0.7,0.4-1.6,0.7-2.5,0.8
		c-0.9,0.2-1.8,0.2-2.7,0.2c-1.5,0-2.9-0.2-4.4-0.6s-2.7-1-3.8-1.7l1.5-3c1.3,0.7,2.4,1.3,3.5,1.6s2.1,0.5,3.2,0.5
		c1.5,0,2.5-0.2,3.2-0.5c0.7-0.3,1-0.7,1-1.3c0-0.3-0.1-0.5-0.3-0.7c-0.2-0.2-0.5-0.3-0.9-0.5c-0.4-0.1-1-0.3-1.7-0.4
		c-0.7-0.1-1.6-0.3-2.6-0.5c-0.8-0.1-1.6-0.3-2.4-0.5s-1.4-0.5-2-0.9s-1-0.8-1.4-1.4c-0.3-0.6-0.5-1.3-0.5-2.1
		c0-0.9,0.2-1.6,0.7-2.3c0.4-0.6,1-1.2,1.8-1.6c0.7-0.4,1.5-0.7,2.5-0.9c0.9-0.2,1.8-0.3,2.7-0.3c1.3,0,2.5,0.2,3.7,0.5
		c1.2,0.3,2.3,0.8,3.2,1.4l-1.4,2.8c-0.9-0.6-1.8-1-2.6-1.2s-1.8-0.3-2.8-0.3c-0.4,0-0.9,0-1.3,0.1c-0.5,0-0.9,0.1-1.3,0.3
		c-0.4,0.1-0.7,0.3-1,0.5c-0.3,0.2-0.4,0.5-0.4,0.8c0,0.4,0.4,0.8,1.1,1.1s2.1,0.5,3.9,0.8c1,0.1,1.9,0.3,2.7,0.5
		c0.8,0.2,1.5,0.5,2.1,0.9c0.6,0.4,1.1,0.8,1.4,1.4S286.3,207.5,286.3,208.3z"/>
	<path class="st2" d="M303.5,213.2h-10.9v-3.2h3.6v-9.7h-3.6v-3.2h7.2v13h3.7V213.2z M300.2,194.8h-4.4v-4.4h4.4V194.8z"/>
	<path class="st2" d="M324.8,213c0,1.1-0.2,2.1-0.6,3c-0.4,0.9-0.9,1.6-1.6,2.2s-1.5,1.1-2.4,1.4s-2,0.5-3.1,0.5
		c-2.8,0-5.2-0.9-7.2-2.6l1.7-2.8c1.7,1.4,3.5,2.1,5.5,2.1c1.2,0,2.2-0.3,3-0.9c0.8-0.6,1.1-1.6,1.1-2.9v-1.7
		c-0.7,0.6-1.5,1.1-2.1,1.4c-0.7,0.3-1.5,0.5-2.4,0.5c-1,0-2-0.2-2.9-0.7c-0.9-0.4-1.7-1-2.3-1.8c-0.6-0.8-1.1-1.6-1.5-2.7
		c-0.4-1-0.5-2.1-0.5-3.2s0.2-2.2,0.5-3.2c0.4-1,0.9-1.9,1.5-2.6c0.6-0.7,1.4-1.3,2.3-1.8c0.9-0.4,1.9-0.7,2.9-0.7
		c0.9,0,1.7,0.2,2.4,0.5c0.7,0.3,1.4,0.8,2.1,1.4v-1.5h3.6V213z M321.2,201.2c-0.4-0.5-1-0.8-1.7-1.1c-0.7-0.2-1.3-0.4-2-0.4
		c-1.4,0-2.5,0.5-3.3,1.4c-0.8,1-1.3,2.2-1.3,3.6c0,0.7,0.1,1.4,0.3,2c0.2,0.6,0.5,1.2,0.9,1.6s0.9,0.8,1.4,1.1s1.2,0.4,1.8,0.4
		c0.6,0,1.3-0.1,2-0.4s1.2-0.6,1.7-1.1V201.2z"/>
	<path class="st2" d="M344.2,213.2h-3.6v-10c0-1.3-0.2-2.1-0.7-2.6s-1.2-0.7-2.1-0.7c-1.3,0-2.4,0.5-3.3,1.6s-1.3,2.6-1.3,4.5v7.3
		h-3.6v-16.2h3.6v4.1c0.4-1.4,1-2.5,2-3.3s2.2-1.2,3.6-1.2c1.7,0,3,0.5,3.9,1.6s1.4,2.7,1.4,5V213.2z"/>
</g>
</svg>
