<?xml version="1.0" encoding="utf-8"?>
<!-- Generator: Adobe Illustrator 25.0.1, SVG Export Plug-In . SVG Version: 6.00 Build 0)  -->
<svg version="1.1" id="Layer_1" xmlns="http://www.w3.org/2000/svg" xmlns:xlink="http://www.w3.org/1999/xlink" x="0px" y="0px"
	 viewBox="0 0 376.5 351.1" style="enable-background:new 0 0 376.5 351.1;" xml:space="preserve">
<style type="text/css">
	.st0{fill:#E5892E;}
	.st1{fill:#FFFFFF;}
</style>
<path class="st0" d="M134,82.4c-47-9-102.7,6-124.6,48.6c-15.3,29.7-10.8,66.7,5,96.1s41.4,52.3,68.3,72
	c48.5,35.3,109.2,63,167.2,47.8c63.9-16.8,104.6-81.4,119.8-145.6c9.8-41.4,11.1-87.3-10.5-124C335.6,36.9,289,15.8,243.5,5.4
	c-28.9-6.6-61-9.4-86.6,5.6s-38,54-17.3,75.2"/>
<g>
	<path class="st1" d="M113.7,133.7H99.6v6.7h11.1v4.4H99.6v10.7h-5.5v-26.1h19.6V133.7z"/>
	<path class="st1" d="M123.1,127v22.4c0,0.9,0.2,1.6,0.5,1.9c0.3,0.4,0.8,0.6,1.6,0.6c0.4,0,0.8,0,1.1-0.1c0.3-0.1,0.7-0.2,1.1-0.3
		l-0.5,3.6c-0.4,0.3-1,0.5-1.7,0.6c-0.7,0.1-1.3,0.2-2,0.2c-1.9,0-3.3-0.5-4.2-1.4c-0.9-0.9-1.3-2.4-1.3-4.5v-23H123.1z"/>
	<path class="st1" d="M141.9,142.8c0-1.1-0.3-2-1-2.7c-0.6-0.6-1.5-0.9-2.6-0.9c-1,0-1.8,0.3-2.6,0.8c-0.7,0.5-1.3,1.3-1.6,2.5
		l-4.6-1.4c0.4-1.7,1.4-3.1,2.9-4.2c1.5-1.1,3.6-1.6,6.1-1.6c1.7,0,3.3,0.3,4.6,0.8c1.3,0.5,2.3,1.4,3,2.4c0.7,1.1,1.1,2.4,1.1,4.1
		v8c0,1,0.5,1.5,1.4,1.5c0.4,0,0.9-0.1,1.3-0.2l-0.3,3.4c-0.7,0.3-1.5,0.5-2.6,0.5c-0.9,0-1.8-0.2-2.5-0.5c-0.7-0.3-1.3-0.8-1.7-1.4
		c-0.4-0.6-0.6-1.5-0.6-2.4v-0.2l1-0.2c-0.2,1-0.6,1.9-1.3,2.6c-0.7,0.7-1.6,1.2-2.6,1.6c-1,0.4-2.1,0.6-3.1,0.6
		c-1.3,0-2.5-0.2-3.5-0.6c-1-0.4-1.7-1-2.3-1.8c-0.5-0.8-0.8-1.8-0.8-2.9c0-1.5,0.5-2.7,1.4-3.6c0.9-0.9,2.3-1.6,4.1-1.9l7.4-1.5
		l0,3.4l-4.8,1c-0.9,0.2-1.6,0.4-2,0.7c-0.5,0.3-0.7,0.8-0.7,1.5c0,0.7,0.2,1.2,0.7,1.5c0.5,0.3,1.1,0.5,1.8,0.5
		c0.6,0,1.1-0.1,1.6-0.2c0.5-0.1,1-0.3,1.4-0.6c0.4-0.3,0.8-0.7,1-1.2s0.4-1.1,0.4-1.8V142.8z"/>
	<path class="st1" d="M165.9,135.6v4h-15.4v-4H165.9z M159.5,129.6V149c0,0.9,0.2,1.6,0.7,2.1c0.5,0.4,1.2,0.7,2,0.7
		c0.7,0,1.2-0.1,1.7-0.3c0.5-0.2,1-0.5,1.3-0.8l0.9,3.6c-0.6,0.5-1.4,0.9-2.4,1.2c-1,0.3-2,0.4-3,0.4c-1.3,0-2.5-0.2-3.5-0.6
		c-1-0.4-1.8-1-2.4-1.9c-0.6-0.9-0.9-2-0.9-3.5v-18.8L159.5,129.6z"/>
	<path class="st1" d="M172.3,132.8c-1.1,0-2-0.2-2.5-0.7c-0.6-0.5-0.8-1.2-0.8-2.2c0-1,0.3-1.7,0.8-2.2c0.6-0.5,1.4-0.7,2.5-0.7
		c1.1,0,2,0.2,2.5,0.7c0.6,0.5,0.8,1.2,0.8,2.2c0,0.9-0.3,1.7-0.8,2.2C174.3,132.5,173.4,132.8,172.3,132.8z M175,135.6v19.8h-5.4
		v-19.8H175z"/>
	<path class="st1" d="M180.7,155.4v-19.8h4.7l0.4,3.9c0.5-1.4,1.3-2.4,2.3-3.2c1-0.7,2.3-1.1,3.8-1.1c0.4,0,0.9,0,1.2,0.1
		c0.4,0.1,0.7,0.2,0.9,0.3l-0.6,4.6c-0.3-0.1-0.6-0.2-1-0.2c-0.4-0.1-0.9-0.1-1.5-0.1c-0.8,0-1.6,0.2-2.3,0.6
		c-0.7,0.4-1.3,1-1.8,1.7c-0.5,0.8-0.7,1.8-0.7,2.9v10.3H180.7z"/>
	<path class="st1" d="M206,135.2c2,0,3.8,0.4,5.3,1.2c1.5,0.8,2.7,2,3.6,3.5c0.9,1.5,1.3,3.4,1.3,5.5c0,2.1-0.4,4-1.3,5.5
		c-0.9,1.5-2,2.7-3.6,3.5c-1.5,0.8-3.3,1.2-5.3,1.2c-2,0-3.7-0.4-5.3-1.2c-1.5-0.8-2.7-2-3.6-3.5s-1.3-3.4-1.3-5.5
		c0-2.2,0.4-4,1.3-5.5c0.9-1.5,2.1-2.7,3.6-3.5C202.3,135.6,204.1,135.2,206,135.2z M206,139.3c-1,0-1.9,0.2-2.6,0.7
		c-0.7,0.5-1.2,1.2-1.6,2.1c-0.4,0.9-0.6,2.1-0.6,3.5c0,1.4,0.2,2.6,0.6,3.5c0.4,0.9,0.9,1.6,1.6,2.1c0.7,0.5,1.5,0.7,2.6,0.7
		c1,0,1.8-0.2,2.5-0.7c0.7-0.5,1.2-1.2,1.6-2.1c0.4-0.9,0.6-2.1,0.6-3.5c0-1.4-0.2-2.6-0.6-3.5c-0.4-0.9-0.9-1.6-1.6-2.1
		C207.9,139.5,207,139.3,206,139.3z"/>
	<path class="st1" d="M220.7,155.4v-19.8h4.9l0.3,5.9l-0.7-0.6c0.3-1.3,0.8-2.4,1.5-3.2c0.7-0.8,1.5-1.5,2.5-1.9
		c1-0.4,2.1-0.6,3.3-0.6c1.4,0,2.6,0.3,3.7,0.8c1.1,0.5,1.9,1.3,2.5,2.4s0.9,2.4,0.9,4v13h-5.4V144c0-1.7-0.3-2.9-1-3.5
		c-0.7-0.6-1.5-1-2.6-1c-0.7,0-1.5,0.2-2.2,0.5c-0.7,0.4-1.3,0.9-1.7,1.7c-0.4,0.8-0.7,1.8-0.7,3.2v10.5H220.7z"/>
	<path class="st1" d="M103.6,176.4c2.4,0,4.5,0.4,6.3,1.2c1.8,0.8,3.3,2,4.6,3.6l-3,3.5c-1.1-1.4-2.3-2.4-3.5-3
		c-1.3-0.6-2.8-1-4.5-1c-1.1,0-2,0.1-2.8,0.4c-0.7,0.3-1.3,0.7-1.6,1.1c-0.3,0.5-0.5,1-0.5,1.6c0,0.7,0.3,1.3,0.8,1.8
		c0.6,0.5,1.5,0.9,2.9,1.2l4.9,1.1c2.6,0.6,4.4,1.4,5.6,2.6c1.1,1.1,1.7,2.6,1.7,4.5c0,1.7-0.4,3.2-1.3,4.4
		c-0.9,1.2-2.2,2.2-3.8,2.8c-1.6,0.6-3.5,1-5.5,1c-1.8,0-3.5-0.2-5-0.7c-1.5-0.4-2.9-1-4.1-1.8c-1.2-0.8-2.2-1.6-3-2.7l3.1-3.7
		c0.6,0.8,1.4,1.6,2.3,2.3c0.9,0.7,1.9,1.2,3.1,1.6c1.1,0.4,2.4,0.6,3.6,0.6c1.1,0,2-0.1,2.8-0.4s1.3-0.6,1.7-1.1
		c0.4-0.5,0.6-1,0.6-1.7c0-0.7-0.2-1.3-0.7-1.8c-0.5-0.5-1.3-0.9-2.6-1.1l-5.3-1.2c-1.5-0.4-2.8-0.9-3.9-1.4
		c-1.1-0.6-1.9-1.4-2.5-2.3c-0.6-0.9-0.9-2.1-0.9-3.3c0-1.6,0.4-3,1.3-4.2c0.8-1.2,2.1-2.2,3.7-2.9
		C99.5,176.8,101.4,176.4,103.6,176.4z"/>
	<path class="st1" d="M128,182.7c1.8,0,3.3,0.3,4.5,0.8s2.2,1.2,3,2.1c0.8,0.9,1.3,1.9,1.6,2.9l-5.1,1.8c-0.3-1.2-0.7-2.1-1.3-2.7
		c-0.6-0.6-1.5-0.9-2.6-0.9c-1,0-1.9,0.2-2.6,0.7c-0.7,0.5-1.3,1.2-1.6,2.1s-0.6,2.1-0.6,3.5c0,1.4,0.2,2.6,0.6,3.5
		c0.4,0.9,0.9,1.6,1.7,2.1c0.7,0.4,1.6,0.7,2.6,0.7c0.8,0,1.5-0.1,2-0.4s1-0.7,1.4-1.2c0.4-0.5,0.6-1.2,0.7-1.9l4.9,1.6
		c-0.3,1.2-0.8,2.2-1.6,3.1c-0.8,0.9-1.8,1.6-3,2.1c-1.2,0.5-2.7,0.8-4.3,0.8c-2,0-3.8-0.4-5.4-1.2s-2.8-2-3.6-3.5
		c-0.8-1.5-1.3-3.4-1.3-5.5c0-2.2,0.4-4,1.3-5.5c0.8-1.5,2-2.7,3.6-3.5C124.3,183.1,126,182.7,128,182.7z"/>
	<path class="st1" d="M141.4,202.9v-28.5h5.4v12c0.6-1.3,1.5-2.2,2.6-2.8s2.4-0.9,3.8-0.9c1.4,0,2.6,0.3,3.7,0.8
		c1.1,0.5,1.9,1.3,2.5,2.4c0.6,1.1,0.9,2.4,0.9,4v13h-5.4v-11.4c0-1.7-0.3-2.9-1-3.5c-0.7-0.6-1.5-1-2.5-1c-0.8,0-1.5,0.2-2.2,0.5
		c-0.7,0.4-1.3,0.9-1.7,1.7c-0.4,0.8-0.7,1.9-0.7,3.2v10.5H141.4z"/>
	<path class="st1" d="M174.9,182.7c2,0,3.8,0.4,5.3,1.2c1.5,0.8,2.7,2,3.6,3.5c0.9,1.5,1.3,3.4,1.3,5.5c0,2.1-0.4,4-1.3,5.5
		c-0.9,1.5-2,2.7-3.6,3.5s-3.3,1.2-5.3,1.2c-2,0-3.7-0.4-5.3-1.2c-1.5-0.8-2.7-2-3.6-3.5c-0.9-1.5-1.3-3.4-1.3-5.5
		c0-2.2,0.4-4,1.3-5.5c0.9-1.5,2.1-2.7,3.6-3.5C171.2,183.1,172.9,182.7,174.9,182.7z M174.9,186.8c-1,0-1.9,0.2-2.6,0.7
		c-0.7,0.5-1.2,1.2-1.6,2.1c-0.4,0.9-0.6,2.1-0.6,3.5c0,1.4,0.2,2.6,0.6,3.5c0.4,0.9,0.9,1.6,1.6,2.1c0.7,0.5,1.5,0.7,2.6,0.7
		c1,0,1.8-0.2,2.5-0.7c0.7-0.5,1.2-1.2,1.6-2.1c0.4-0.9,0.6-2.1,0.6-3.5c0-1.4-0.2-2.6-0.6-3.5c-0.4-0.9-0.9-1.6-1.6-2.1
		C176.7,187,175.9,186.8,174.9,186.8z"/>
	<path class="st1" d="M198.6,182.7c2,0,3.8,0.4,5.3,1.2c1.5,0.8,2.7,2,3.6,3.5c0.9,1.5,1.3,3.4,1.3,5.5c0,2.1-0.4,4-1.3,5.5
		c-0.9,1.5-2,2.7-3.6,3.5s-3.3,1.2-5.3,1.2c-2,0-3.7-0.4-5.3-1.2c-1.5-0.8-2.7-2-3.6-3.5s-1.3-3.4-1.3-5.5c0-2.2,0.4-4,1.3-5.5
		s2.1-2.7,3.6-3.5C194.9,183.1,196.6,182.7,198.6,182.7z M198.6,186.8c-1,0-1.9,0.2-2.6,0.7c-0.7,0.5-1.2,1.2-1.6,2.1
		c-0.4,0.9-0.6,2.1-0.6,3.5c0,1.4,0.2,2.6,0.6,3.5c0.4,0.9,0.9,1.6,1.6,2.1c0.7,0.5,1.5,0.7,2.6,0.7c1,0,1.8-0.2,2.5-0.7
		c0.7-0.5,1.2-1.2,1.6-2.1c0.4-0.9,0.6-2.1,0.6-3.5c0-1.4-0.2-2.6-0.6-3.5c-0.4-0.9-0.9-1.6-1.6-2.1
		C200.4,187,199.6,186.8,198.6,186.8z"/>
	<path class="st1" d="M218.6,174.5v22.4c0,0.9,0.2,1.6,0.5,1.9c0.3,0.4,0.8,0.6,1.6,0.6c0.4,0,0.8,0,1.1-0.1
		c0.3-0.1,0.7-0.2,1.1-0.3l-0.5,3.6c-0.4,0.3-1,0.5-1.7,0.6c-0.7,0.1-1.3,0.2-2,0.2c-1.9,0-3.3-0.5-4.2-1.4
		c-0.9-0.9-1.3-2.4-1.3-4.5v-23H218.6z"/>
	<path class="st1" d="M122.5,224.3v26.1h-4.9v-13.6l0.3-7.6h-0.1l-7.2,21.3h-4.5l-7.2-21.3h-0.1l0.3,7.6v13.6h-4.9v-26.1h7.9
		l4.7,14.3l1.7,5.9h0.1l1.7-5.9l4.7-14.3H122.5z"/>
	<path class="st1" d="M139.9,237.8c0-1.1-0.3-2-1-2.7c-0.6-0.6-1.5-1-2.6-1c-1,0-1.8,0.3-2.6,0.8c-0.7,0.5-1.3,1.3-1.6,2.5l-4.6-1.4
		c0.4-1.7,1.4-3.1,2.9-4.2c1.5-1.1,3.6-1.6,6.1-1.6c1.7,0,3.3,0.3,4.6,0.8c1.3,0.5,2.3,1.4,3,2.4c0.7,1.1,1.1,2.4,1.1,4.1v8
		c0,1,0.5,1.5,1.4,1.5c0.4,0,0.9-0.1,1.3-0.2l-0.3,3.4c-0.7,0.3-1.5,0.5-2.6,0.5c-0.9,0-1.8-0.2-2.5-0.5c-0.7-0.3-1.3-0.8-1.7-1.4
		c-0.4-0.6-0.6-1.5-0.6-2.4v-0.2l1-0.2c-0.2,1-0.6,1.9-1.3,2.6c-0.7,0.7-1.6,1.2-2.6,1.6c-1,0.4-2.1,0.6-3.1,0.6
		c-1.3,0-2.5-0.2-3.5-0.6c-1-0.4-1.7-1-2.3-1.8c-0.5-0.8-0.8-1.8-0.8-2.9c0-1.5,0.5-2.7,1.4-3.6c0.9-0.9,2.3-1.6,4.1-1.9l7.4-1.5
		l0,3.4l-4.8,1c-0.9,0.2-1.6,0.4-2,0.7c-0.5,0.3-0.7,0.8-0.7,1.5c0,0.7,0.2,1.2,0.7,1.5s1.1,0.5,1.8,0.5c0.6,0,1.1-0.1,1.6-0.2
		c0.5-0.1,1-0.3,1.4-0.6c0.4-0.3,0.8-0.7,1-1.2c0.2-0.5,0.4-1.1,0.4-1.8V237.8z"/>
	<path class="st1" d="M151.3,250.4v-19.8h4.7l0.4,3.9c0.5-1.4,1.3-2.4,2.3-3.2c1-0.7,2.3-1.1,3.8-1.1c0.4,0,0.9,0,1.2,0.1
		c0.4,0.1,0.7,0.2,0.9,0.3l-0.6,4.6c-0.3-0.1-0.6-0.2-1-0.2c-0.4-0.1-0.9-0.1-1.5-0.1c-0.8,0-1.6,0.2-2.3,0.6
		c-0.7,0.4-1.3,1-1.8,1.7c-0.5,0.8-0.7,1.8-0.7,2.9v10.3H151.3z"/>
	<path class="st1" d="M173.5,222v28.5H168V222H173.5z M188.2,230.6l-9.1,9.5l-1.1,0.5l-5.9,6.4l-0.1-5.8l10.1-10.6H188.2z
		 M179.8,236.9l8.9,13.5h-6.1l-6.5-10.3L179.8,236.9z"/>
	<path class="st1" d="M200.1,250.8c-2.1,0-3.9-0.4-5.4-1.2c-1.5-0.8-2.7-2-3.6-3.5c-0.8-1.5-1.3-3.4-1.3-5.5c0-2.2,0.4-4,1.3-5.5
		s2-2.7,3.5-3.5c1.5-0.8,3.3-1.2,5.2-1.2c2,0,3.7,0.4,5.1,1.2s2.5,1.9,3.2,3.3c0.7,1.4,1.1,3,1.1,4.7c0,0.5,0,1,0,1.5
		c0,0.5-0.1,0.9-0.1,1.3h-15.8v-3.8h13.4l-2.6,0.9c0-1.7-0.4-2.9-1.1-3.8s-1.8-1.3-3.2-1.3c-1,0-1.9,0.2-2.6,0.7
		c-0.7,0.5-1.3,1.2-1.6,2.1c-0.4,0.9-0.6,2.1-0.6,3.5c0,1.4,0.2,2.6,0.6,3.5c0.4,0.9,1,1.6,1.7,2c0.8,0.4,1.7,0.7,2.7,0.7
		c1.2,0,2.1-0.2,2.8-0.7c0.7-0.4,1.3-1.1,1.7-1.9l4.3,1.7c-0.4,1-1.1,1.9-1.9,2.7c-0.9,0.7-1.9,1.3-3,1.7
		C202.7,250.6,201.5,250.8,200.1,250.8z"/>
	<path class="st1" d="M226.8,230.6v4h-15.4v-4H226.8z M220.5,224.6V244c0,1,0.2,1.6,0.7,2.1s1.2,0.7,2,0.7c0.7,0,1.2-0.1,1.7-0.3
		c0.5-0.2,1-0.5,1.3-0.8l0.9,3.6c-0.6,0.5-1.4,0.9-2.4,1.2c-1,0.3-2,0.4-3,0.4c-1.3,0-2.5-0.2-3.5-0.6c-1-0.4-1.8-1-2.4-1.9
		c-0.6-0.9-0.9-2-0.9-3.5v-18.8L220.5,224.6z"/>
	<path class="st1" d="M233.2,227.8c-1.1,0-2-0.2-2.5-0.7c-0.6-0.5-0.8-1.2-0.8-2.2c0-1,0.3-1.7,0.8-2.2c0.6-0.5,1.4-0.7,2.5-0.7
		s2,0.2,2.5,0.7c0.6,0.5,0.8,1.2,0.8,2.2c0,1-0.3,1.7-0.8,2.2C235.2,227.5,234.4,227.8,233.2,227.8z M235.9,230.6v19.8h-5.4v-19.8
		H235.9z"/>
	<path class="st1" d="M241.7,250.4v-19.8h4.9l0.3,5.9l-0.7-0.6c0.3-1.3,0.8-2.4,1.5-3.2c0.7-0.8,1.5-1.5,2.5-1.9
		c1-0.4,2.1-0.6,3.3-0.6c1.4,0,2.6,0.3,3.7,0.8c1.1,0.5,1.9,1.3,2.5,2.4c0.6,1.1,0.9,2.4,0.9,4v13h-5.4V239c0-1.7-0.3-2.9-1-3.5
		c-0.7-0.6-1.5-1-2.6-1c-0.7,0-1.5,0.2-2.2,0.5c-0.7,0.4-1.3,0.9-1.7,1.7c-0.4,0.8-0.7,1.8-0.7,3.2v10.5H241.7z"/>
	<path class="st1" d="M277.9,246.7c2.1,0,3.8,0.5,4.9,1.4c1.2,0.9,1.7,2.2,1.7,3.9c0,1.5-0.4,2.8-1.3,3.8c-0.9,1-2.1,1.8-3.7,2.4
		c-1.6,0.5-3.4,0.8-5.4,0.8c-3.4,0-5.9-0.5-7.5-1.4c-1.6-1-2.4-2.2-2.4-3.7c0-1.1,0.4-2,1.2-2.7c0.8-0.7,2.2-1.1,4.1-1.2l-0.2,0.6
		c-1.4-0.2-2.4-0.7-3.1-1.4c-0.7-0.7-1.1-1.6-1.1-2.8c0-1.2,0.5-2.2,1.4-3s2.2-1.2,3.8-1.4l2.4,1.1h-0.6c-1.1,0.1-1.9,0.3-2.4,0.7
		c-0.5,0.4-0.7,0.8-0.7,1.3c0,0.6,0.2,1,0.7,1.2c0.4,0.3,1.1,0.4,1.9,0.4H277.9z M274.3,230.2c1.8,0,3.5,0.3,4.8,0.8
		c1.4,0.5,2.4,1.3,3.1,2.3s1.1,2.2,1.1,3.6c0,1.4-0.4,2.6-1.1,3.6c-0.7,1-1.8,1.8-3.1,2.3c-1.4,0.5-3,0.8-4.8,0.8
		c-2.9,0-5.2-0.6-6.7-1.8c-1.5-1.2-2.3-2.8-2.3-4.9c0-1.4,0.4-2.6,1.1-3.6c0.7-1,1.8-1.8,3.1-2.3
		C270.8,230.5,272.4,230.2,274.3,230.2z M274.2,255.2c1.4,0,2.5-0.1,3.4-0.4s1.5-0.5,2-0.9c0.4-0.4,0.7-0.8,0.7-1.2
		c0-0.5-0.2-0.9-0.6-1.2c-0.4-0.3-1.1-0.5-2.1-0.5h-6.7c-0.6,0-1.2,0.2-1.6,0.5s-0.6,0.8-0.6,1.3c0,0.7,0.5,1.3,1.5,1.7
		C271.1,255,272.5,255.2,274.2,255.2z M274.3,233.6c-1.1,0-1.9,0.3-2.6,0.9c-0.7,0.6-1,1.4-1,2.4s0.3,1.8,1,2.4
		c0.7,0.6,1.6,0.9,2.6,0.9s1.9-0.3,2.6-0.9s1-1.4,1-2.4s-0.3-1.8-1-2.4C276.2,233.9,275.3,233.6,274.3,233.6z M284.4,225.9l0.6,3.9
		c-0.1,0-0.2,0-0.3,0c-0.1,0-0.2,0-0.4,0c-1.2,0-2.1,0.3-2.7,0.8c-0.6,0.5-0.9,1.3-0.9,2.2l-2.2-0.9c0-1.1,0.2-2,0.6-2.9
		s1-1.6,1.9-2.2c0.8-0.6,1.8-0.8,3-0.8c0.1,0,0.1,0,0.2,0S284.3,225.9,284.4,225.9z"/>
</g>
</svg>
