<?xml version="1.0" encoding="utf-8"?>
<!-- Generator: Adobe Illustrator 24.1.2, SVG Export Plug-In . SVG Version: 6.00 Build 0)  -->
<svg version="1.1" id="Layer_1" xmlns="http://www.w3.org/2000/svg" xmlns:xlink="http://www.w3.org/1999/xlink" x="0px" y="0px"
	 viewBox="0 0 562.3 571.9" style="enable-background:new 0 0 562.3 571.9;" xml:space="preserve">
<style type="text/css">
	.st0{fill:#BF271B;}
	.st1{fill:#FFFFFF;}
</style>
<path class="st0" d="M347,37.2C277.9,34.8,209.3,50.9,148.6,84C65.2,129.8-3,215.6,0.1,310.7c2.9,89.4,67.8,167,145.2,212
	c67.4,39.2,148,58.9,224.6,44.6s147.8-65.5,176.7-138c33.2-83.4,8.2-177.8-22.6-262.1c-24.2-66.4-58.5-138.4-124.9-163
	c-9.2-3.4-19.3-5.7-28.8-3.2c-17.1,4.5-26.8,24.1-25.8,41.8s10.2,33.8,19.7,48.8"/>
<g>
	<path class="st1" d="M187.1,227.6h-18.8v8.9h14.9v5.9h-14.9v14.3H161v-34.9h26.1V227.6z"/>
	<path class="st1" d="M199.8,218.7v29.9c0,1.2,0.2,2.1,0.6,2.6c0.4,0.5,1.1,0.7,2.1,0.7c0.6,0,1.1,0,1.5-0.1
		c0.4-0.1,0.9-0.2,1.5-0.4l-0.6,4.8c-0.6,0.4-1.3,0.6-2.2,0.8c-0.9,0.2-1.8,0.3-2.7,0.3c-2.6,0-4.4-0.6-5.6-1.9
		c-1.2-1.3-1.8-3.3-1.8-6v-30.7H199.8z"/>
	<path class="st1" d="M224.8,239.8c0-1.5-0.4-2.7-1.3-3.5c-0.9-0.8-2-1.3-3.4-1.3c-1.3,0-2.4,0.3-3.4,1c-1,0.7-1.7,1.8-2.2,3.3
		l-6.2-1.9c0.6-2.3,1.9-4.2,3.9-5.6c2-1.4,4.7-2.1,8.2-2.1c2.3,0,4.4,0.4,6.1,1.1c1.7,0.7,3.1,1.8,4,3.3c1,1.4,1.5,3.3,1.5,5.4v10.7
		c0,1.3,0.6,2,1.9,2c0.6,0,1.2-0.1,1.7-0.3l-0.4,4.5c-0.9,0.5-2.1,0.7-3.4,0.7c-1.2,0-2.3-0.2-3.3-0.6c-1-0.4-1.8-1.1-2.3-1.9
		c-0.6-0.9-0.8-1.9-0.8-3.3v-0.2l1.3-0.2c-0.2,1.3-0.8,2.5-1.7,3.4c-1,0.9-2.1,1.6-3.5,2.1c-1.4,0.5-2.8,0.7-4.2,0.7
		c-1.8,0-3.3-0.3-4.7-0.8c-1.3-0.5-2.3-1.3-3-2.4c-0.7-1.1-1.1-2.4-1.1-3.9c0-2,0.6-3.6,1.9-4.8c1.3-1.2,3.1-2.1,5.4-2.6l9.9-2
		l-0.1,4.5l-6.3,1.3c-1.2,0.2-2.1,0.6-2.7,1c-0.6,0.4-0.9,1.1-0.9,2c0,0.9,0.3,1.6,1,2c0.7,0.5,1.4,0.7,2.4,0.7
		c0.7,0,1.5-0.1,2.2-0.3c0.7-0.2,1.3-0.5,1.9-0.8c0.6-0.4,1-0.9,1.3-1.6c0.3-0.7,0.5-1.5,0.5-2.4V239.8z"/>
	<path class="st1" d="M256.8,230.2v5.4h-20.6v-5.4H256.8z M248.4,222.2v25.9c0,1.3,0.3,2.2,1,2.8c0.7,0.6,1.5,0.9,2.7,0.9
		c0.9,0,1.7-0.1,2.3-0.4c0.7-0.3,1.3-0.6,1.8-1.1l1.2,4.8c-0.8,0.7-1.9,1.2-3.2,1.6c-1.3,0.4-2.6,0.6-4,0.6c-1.8,0-3.3-0.3-4.7-0.8
		c-1.4-0.5-2.4-1.4-3.2-2.5c-0.8-1.2-1.1-2.7-1.1-4.7v-25.1L248.4,222.2z"/>
	<path class="st1" d="M265.4,226.4c-1.5,0-2.6-0.3-3.4-1c-0.7-0.7-1.1-1.6-1.1-2.9c0-1.3,0.4-2.3,1.1-2.9c0.7-0.7,1.9-1,3.4-1
		c1.5,0,2.6,0.3,3.4,1c0.7,0.7,1.1,1.6,1.1,2.9c0,1.3-0.4,2.2-1.1,2.9C268.1,226.1,266.9,226.4,265.4,226.4z M269,230.2v26.4h-7.2
		v-26.4H269z"/>
	<path class="st1" d="M276.7,256.7v-26.4h6.3l0.5,5.2c0.7-1.8,1.7-3.2,3.1-4.2c1.4-1,3.1-1.5,5.1-1.5c0.6,0,1.1,0.1,1.6,0.2
		c0.5,0.1,0.9,0.2,1.2,0.4l-0.8,6.1c-0.4-0.1-0.8-0.2-1.3-0.3c-0.5-0.1-1.2-0.1-2-0.1c-1.1,0-2.1,0.3-3.1,0.8
		c-1,0.5-1.8,1.3-2.4,2.3c-0.6,1-1,2.4-1,3.9v13.7H276.7z"/>
	<path class="st1" d="M310.5,229.7c2.7,0,5,0.5,7.1,1.6c2,1.1,3.6,2.7,4.8,4.7c1.1,2,1.7,4.5,1.7,7.4c0,2.9-0.6,5.3-1.7,7.4
		c-1.1,2.1-2.7,3.6-4.8,4.7c-2,1.1-4.4,1.6-7.1,1.6c-2.6,0-5-0.5-7-1.6c-2-1.1-3.6-2.7-4.8-4.7c-1.1-2.1-1.7-4.5-1.7-7.4
		c0-2.9,0.6-5.4,1.7-7.4c1.1-2,2.7-3.6,4.8-4.7C305.5,230.3,307.9,229.7,310.5,229.7z M310.5,235.1c-1.3,0-2.5,0.3-3.4,0.9
		c-0.9,0.6-1.6,1.5-2.1,2.8c-0.5,1.2-0.7,2.8-0.7,4.7c0,1.9,0.2,3.4,0.7,4.7c0.5,1.2,1.2,2.2,2.1,2.8c0.9,0.6,2.1,0.9,3.4,0.9
		c1.3,0,2.4-0.3,3.4-0.9c0.9-0.6,1.6-1.5,2.1-2.8c0.5-1.2,0.7-2.8,0.7-4.7c0-1.9-0.2-3.4-0.7-4.7c-0.5-1.2-1.2-2.2-2.1-2.8
		C312.9,235.4,311.8,235.1,310.5,235.1z"/>
	<path class="st1" d="M330.1,256.7v-26.4h6.5l0.4,7.9l-0.9-0.8c0.4-1.7,1.1-3.2,2-4.3c0.9-1.1,2-2,3.4-2.5c1.3-0.5,2.8-0.8,4.4-0.8
		c1.8,0,3.5,0.4,4.9,1.1c1.4,0.7,2.6,1.8,3.4,3.2c0.8,1.4,1.2,3.2,1.2,5.4v17.3h-7.2v-15.3c0-2.3-0.4-3.8-1.3-4.7
		c-0.9-0.9-2-1.3-3.4-1.3c-1,0-1.9,0.2-2.9,0.7c-0.9,0.5-1.7,1.2-2.3,2.3c-0.6,1.1-0.9,2.5-0.9,4.2v14H330.1z"/>
	<path class="st1" d="M173.8,284.7c3.2,0,6,0.5,8.4,1.6c2.4,1.1,4.4,2.7,6.1,4.9l-4.1,4.7c-1.4-1.8-3-3.2-4.7-4
		c-1.7-0.9-3.7-1.3-5.9-1.3c-1.5,0-2.7,0.2-3.7,0.6c-1,0.4-1.7,0.9-2.1,1.5c-0.4,0.6-0.7,1.3-0.7,2.1c0,1,0.4,1.8,1.1,2.4
		c0.7,0.7,2,1.2,3.8,1.6l6.5,1.5c3.5,0.8,5.9,1.9,7.4,3.5c1.5,1.5,2.2,3.5,2.2,5.9c0,2.3-0.6,4.3-1.8,5.9c-1.2,1.6-2.9,2.9-5,3.8
		c-2.1,0.9-4.6,1.3-7.4,1.3c-2.4,0-4.7-0.3-6.7-0.9c-2-0.6-3.8-1.4-5.4-2.4c-1.6-1-2.9-2.2-4-3.5l4.1-4.9c0.8,1.1,1.8,2.1,3,3
		c1.2,0.9,2.6,1.6,4.1,2.1c1.5,0.5,3.1,0.8,4.8,0.8c1.4,0,2.7-0.2,3.7-0.5c1-0.3,1.8-0.8,2.3-1.4c0.5-0.6,0.8-1.4,0.8-2.2
		c0-0.9-0.3-1.7-0.9-2.4c-0.6-0.7-1.8-1.2-3.4-1.5l-7.1-1.6c-2-0.5-3.8-1.1-5.3-1.9c-1.5-0.8-2.6-1.8-3.3-3.1
		c-0.8-1.2-1.1-2.7-1.1-4.5c0-2.1,0.6-3.9,1.7-5.6c1.1-1.7,2.8-3,4.9-3.9C168.2,285.2,170.8,284.7,173.8,284.7z"/>
	<path class="st1" d="M206.3,293.1c2.4,0,4.4,0.3,6,1s3,1.6,4,2.8s1.7,2.5,2.1,3.9l-6.8,2.4c-0.4-1.6-1-2.8-1.8-3.6
		c-0.8-0.8-2-1.2-3.4-1.2c-1.3,0-2.5,0.3-3.4,0.9c-1,0.6-1.7,1.6-2.2,2.8c-0.5,1.3-0.7,2.8-0.7,4.7s0.3,3.4,0.8,4.7
		c0.5,1.2,1.3,2.1,2.2,2.7c1,0.6,2.1,0.9,3.4,0.9c1.1,0,2-0.2,2.7-0.6c0.7-0.4,1.3-0.9,1.8-1.6c0.5-0.7,0.8-1.5,1-2.5l6.6,2.1
		c-0.4,1.6-1.1,3-2.2,4.2c-1.1,1.2-2.4,2.1-4.1,2.8c-1.7,0.7-3.6,1-5.8,1c-2.7,0-5.1-0.5-7.2-1.6c-2.1-1.1-3.7-2.7-4.8-4.7
		c-1.1-2-1.7-4.5-1.7-7.4c0-2.9,0.6-5.4,1.7-7.4c1.1-2,2.7-3.6,4.8-4.7C201.3,293.7,203.7,293.1,206.3,293.1z"/>
	<path class="st1" d="M224.1,320.1v-38h7.2v16.1c0.8-1.7,2-3,3.5-3.8s3.2-1.2,5-1.2c1.8,0,3.5,0.4,4.9,1.1c1.4,0.7,2.6,1.8,3.4,3.2
		c0.8,1.4,1.2,3.2,1.2,5.4v17.3h-7.2v-15.2c0-2.3-0.4-3.9-1.3-4.7c-0.9-0.9-2-1.3-3.4-1.3c-1,0-2,0.2-2.9,0.7
		c-0.9,0.5-1.7,1.3-2.3,2.3s-0.9,2.5-0.9,4.3v14H224.1z"/>
	<path class="st1" d="M268.9,293.1c2.7,0,5,0.5,7.1,1.6c2,1.1,3.6,2.7,4.8,4.7c1.1,2,1.7,4.5,1.7,7.4c0,2.9-0.6,5.3-1.7,7.4
		c-1.1,2.1-2.7,3.6-4.8,4.7c-2,1.1-4.4,1.6-7.1,1.6c-2.6,0-5-0.5-7-1.6c-2-1.1-3.6-2.7-4.8-4.7c-1.1-2.1-1.7-4.5-1.7-7.4
		c0-2.9,0.6-5.4,1.7-7.4c1.1-2,2.7-3.6,4.8-4.7C263.9,293.7,266.3,293.1,268.9,293.1z M268.9,298.5c-1.3,0-2.5,0.3-3.4,0.9
		c-0.9,0.6-1.6,1.5-2.1,2.8c-0.5,1.2-0.7,2.8-0.7,4.7c0,1.9,0.2,3.4,0.7,4.7c0.5,1.2,1.2,2.2,2.1,2.8c0.9,0.6,2.1,0.9,3.4,0.9
		c1.3,0,2.4-0.3,3.4-0.9c0.9-0.6,1.6-1.5,2.1-2.8c0.5-1.2,0.7-2.8,0.7-4.7c0-1.9-0.2-3.4-0.7-4.7c-0.5-1.2-1.2-2.2-2.1-2.8
		C271.3,298.8,270.2,298.5,268.9,298.5z"/>
	<path class="st1" d="M300.6,293.1c2.7,0,5,0.5,7.1,1.6c2,1.1,3.6,2.7,4.8,4.7c1.1,2,1.7,4.5,1.7,7.4c0,2.9-0.6,5.3-1.7,7.4
		c-1.1,2.1-2.7,3.6-4.8,4.7c-2,1.1-4.4,1.6-7.1,1.6c-2.6,0-5-0.5-7-1.6c-2-1.1-3.6-2.7-4.8-4.7c-1.1-2.1-1.7-4.5-1.7-7.4
		c0-2.9,0.6-5.4,1.7-7.4c1.1-2,2.7-3.6,4.8-4.7C295.6,293.7,297.9,293.1,300.6,293.1z M300.6,298.5c-1.3,0-2.5,0.3-3.4,0.9
		c-0.9,0.6-1.6,1.5-2.1,2.8c-0.5,1.2-0.7,2.8-0.7,4.7c0,1.9,0.2,3.4,0.7,4.7c0.5,1.2,1.2,2.2,2.1,2.8c0.9,0.6,2.1,0.9,3.4,0.9
		c1.3,0,2.4-0.3,3.4-0.9c0.9-0.6,1.6-1.5,2.1-2.8c0.5-1.2,0.7-2.8,0.7-4.7c0-1.9-0.2-3.4-0.7-4.7c-0.5-1.2-1.2-2.2-2.1-2.8
		C303,298.8,301.9,298.5,300.6,298.5z"/>
	<path class="st1" d="M327.3,282.1V312c0,1.2,0.2,2.1,0.6,2.6s1.1,0.7,2.1,0.7c0.6,0,1.1,0,1.5-0.1c0.4-0.1,0.9-0.2,1.5-0.4
		l-0.6,4.8c-0.6,0.4-1.3,0.6-2.2,0.8c-0.9,0.2-1.8,0.3-2.7,0.3c-2.6,0-4.4-0.6-5.6-1.9s-1.8-3.3-1.8-6v-30.7H327.3z"/>
	<path class="st1" d="M199,348.6v34.9h-6.6v-18.2l0.4-10.2h-0.1l-9.7,28.4h-6l-9.6-28.4h-0.1l0.4,10.2v18.2H161v-34.9h10.6l6.3,19
		l2.2,7.9h0.1l2.3-7.8l6.2-19.1H199z"/>
	<path class="st1" d="M222.2,366.7c0-1.5-0.4-2.7-1.3-3.5c-0.9-0.8-2-1.3-3.4-1.3c-1.3,0-2.4,0.3-3.4,1c-1,0.7-1.7,1.8-2.2,3.3
		l-6.2-1.9c0.6-2.3,1.9-4.2,3.9-5.6c2-1.4,4.7-2.1,8.2-2.1c2.3,0,4.4,0.4,6.1,1.1c1.7,0.7,3.1,1.8,4,3.3c1,1.4,1.5,3.3,1.5,5.4v10.7
		c0,1.3,0.6,2,1.9,2c0.6,0,1.2-0.1,1.7-0.3l-0.4,4.5c-0.9,0.5-2.1,0.7-3.4,0.7c-1.2,0-2.3-0.2-3.3-0.6c-1-0.4-1.8-1.1-2.3-1.9
		c-0.6-0.9-0.8-1.9-0.8-3.3V378l1.3-0.2c-0.2,1.3-0.8,2.5-1.7,3.4c-1,0.9-2.1,1.6-3.5,2.1c-1.4,0.5-2.8,0.7-4.2,0.7
		c-1.8,0-3.3-0.3-4.7-0.8c-1.3-0.5-2.3-1.3-3-2.4c-0.7-1.1-1.1-2.4-1.1-3.9c0-2,0.6-3.6,1.9-4.8s3.1-2.1,5.4-2.6l9.9-2L223,372
		l-6.3,1.3c-1.2,0.2-2.1,0.6-2.7,1c-0.6,0.4-0.9,1.1-0.9,2c0,0.9,0.3,1.6,1,2c0.7,0.5,1.4,0.7,2.4,0.7c0.7,0,1.5-0.1,2.2-0.3
		c0.7-0.2,1.3-0.5,1.9-0.8c0.6-0.4,1-0.9,1.3-1.6c0.3-0.7,0.5-1.5,0.5-2.4V366.7z"/>
	<path class="st1" d="M237.4,383.5v-26.4h6.3l0.5,5.2c0.7-1.8,1.7-3.2,3.1-4.2c1.4-1,3.1-1.5,5.1-1.5c0.6,0,1.1,0.1,1.6,0.2
		c0.5,0.1,0.9,0.2,1.2,0.4l-0.8,6.1c-0.4-0.1-0.8-0.2-1.3-0.3c-0.5-0.1-1.2-0.1-2-0.1c-1.1,0-2.1,0.3-3.1,0.8
		c-1,0.5-1.8,1.3-2.4,2.3c-0.6,1-1,2.4-1,3.9v13.7H237.4z"/>
	<path class="st1" d="M267,345.5v38h-7.2v-38H267z M286.7,357.1l-12.2,12.7l-1.4,0.7l-7.9,8.5l-0.1-7.7l13.4-14.2H286.7z
		 M275.5,365.5l11.8,18h-8.2l-8.6-13.8L275.5,365.5z"/>
	<path class="st1" d="M302.6,384.1c-2.8,0-5.2-0.5-7.3-1.6c-2.1-1.1-3.7-2.7-4.8-4.7c-1.1-2-1.7-4.5-1.7-7.4c0-2.9,0.6-5.4,1.7-7.4
		c1.1-2,2.7-3.6,4.7-4.7c2-1.1,4.3-1.6,7-1.6c2.7,0,5,0.5,6.8,1.6c1.9,1.1,3.3,2.5,4.3,4.4c1,1.8,1.5,4,1.5,6.3c0,0.7,0,1.4-0.1,2
		c0,0.6-0.1,1.2-0.2,1.7h-21.1v-5h17.9l-3.5,1.3c0-2.2-0.5-3.9-1.5-5.1c-1-1.2-2.4-1.8-4.3-1.8c-1.3,0-2.5,0.3-3.5,1
		c-1,0.6-1.7,1.6-2.2,2.8c-0.5,1.3-0.7,2.8-0.7,4.7c0,1.9,0.3,3.4,0.8,4.6c0.5,1.2,1.3,2.1,2.3,2.7c1,0.6,2.2,0.9,3.6,0.9
		c1.6,0,2.8-0.3,3.8-0.9c1-0.6,1.7-1.4,2.2-2.5l5.8,2.2c-0.6,1.4-1.4,2.6-2.6,3.5c-1.1,1-2.5,1.7-4.1,2.2
		C306,383.8,304.4,384.1,302.6,384.1z"/>
	<path class="st1" d="M338.2,357.1v5.4h-20.6v-5.4H338.2z M329.8,349v25.9c0,1.3,0.3,2.2,1,2.8c0.7,0.6,1.5,0.9,2.7,0.9
		c0.9,0,1.7-0.1,2.3-0.4c0.7-0.3,1.3-0.6,1.8-1.1l1.2,4.8c-0.8,0.7-1.9,1.2-3.2,1.6s-2.6,0.6-4,0.6c-1.8,0-3.3-0.3-4.7-0.8
		c-1.4-0.5-2.4-1.4-3.2-2.5c-0.8-1.2-1.1-2.7-1.1-4.7V351L329.8,349z"/>
	<path class="st1" d="M346.8,353.3c-1.5,0-2.6-0.3-3.4-1c-0.7-0.7-1.1-1.6-1.1-2.9c0-1.3,0.4-2.3,1.1-2.9c0.7-0.7,1.9-1,3.4-1
		c1.5,0,2.6,0.3,3.4,1s1.1,1.6,1.1,2.9c0,1.3-0.4,2.2-1.1,2.9C349.5,353,348.3,353.3,346.8,353.3z M350.4,357.1v26.4h-7.2v-26.4
		H350.4z"/>
	<path class="st1" d="M358.1,383.5v-26.4h6.5l0.4,7.9l-0.9-0.8c0.4-1.7,1.1-3.2,2-4.3s2-2,3.4-2.5s2.8-0.8,4.4-0.8
		c1.8,0,3.5,0.4,4.9,1.1c1.4,0.7,2.6,1.8,3.4,3.2c0.8,1.4,1.2,3.2,1.2,5.4v17.3h-7.2v-15.3c0-2.3-0.4-3.8-1.3-4.7
		c-0.9-0.9-2-1.3-3.4-1.3c-1,0-1.9,0.2-2.9,0.7c-0.9,0.5-1.7,1.2-2.3,2.3c-0.6,1.1-0.9,2.5-0.9,4.2v14H358.1z"/>
	<path class="st1" d="M406.5,378.6c2.9,0,5.1,0.6,6.6,1.9s2.3,3,2.3,5.2c0,2-0.6,3.7-1.7,5.1c-1.2,1.4-2.8,2.4-4.9,3.1
		c-2.1,0.7-4.5,1.1-7.3,1.1c-4.5,0-7.9-0.6-10-1.9c-2.1-1.3-3.1-2.9-3.1-5c0-1.4,0.6-2.7,1.7-3.6c1.1-1,3-1.5,5.5-1.6l-0.3,0.8
		c-1.8-0.3-3.2-0.9-4.2-1.8c-1-0.9-1.5-2.1-1.5-3.7c0-1.6,0.6-3,1.9-4c1.2-1,3-1.6,5.1-1.8l3.2,1.5h-0.7c-1.5,0.1-2.6,0.4-3.2,0.9
		s-0.9,1.1-0.9,1.7c0,0.7,0.3,1.3,0.9,1.7c0.6,0.4,1.4,0.6,2.5,0.6H406.5z M401.6,356.6c2.5,0,4.6,0.4,6.4,1.1
		c1.8,0.7,3.2,1.8,4.2,3.1c1,1.3,1.5,2.9,1.5,4.8c0,1.8-0.5,3.4-1.5,4.8c-1,1.3-2.4,2.4-4.2,3.1c-1.8,0.7-4,1.1-6.4,1.1
		c-3.9,0-6.9-0.8-9-2.4c-2.1-1.6-3.1-3.8-3.1-6.5c0-1.9,0.5-3.5,1.5-4.8c1-1.3,2.4-2.4,4.1-3.1C397,356.9,399.1,356.6,401.6,356.6z
		 M401.6,389.9c1.8,0,3.3-0.2,4.5-0.5c1.2-0.3,2.1-0.7,2.6-1.2c0.6-0.5,0.9-1,0.9-1.6c0-0.7-0.3-1.2-0.8-1.6s-1.5-0.6-2.9-0.6H397
		c-0.8,0-1.5,0.2-2.1,0.6c-0.5,0.4-0.8,1-0.8,1.7c0,1,0.7,1.8,2,2.3S399.2,389.9,401.6,389.9z M401.6,361.1c-1.4,0-2.6,0.4-3.5,1.2
		c-0.9,0.8-1.4,1.9-1.4,3.2s0.5,2.5,1.4,3.3c0.9,0.8,2.1,1.2,3.5,1.2c1.4,0,2.6-0.4,3.5-1.2s1.3-1.9,1.3-3.3s-0.4-2.4-1.3-3.2
		C404.2,361.5,403,361.1,401.6,361.1z M415.2,350.8l0.8,5.2c-0.1,0-0.3,0-0.4,0c-0.2,0-0.3,0-0.5,0c-1.6,0-2.8,0.4-3.6,1.1
		c-0.8,0.7-1.2,1.7-1.2,3l-3-1.2c0-1.4,0.3-2.7,0.8-3.9c0.6-1.2,1.4-2.2,2.5-2.9c1.1-0.7,2.4-1.1,4-1.1c0.1,0,0.2,0,0.3,0
		C414.9,350.8,415,350.8,415.2,350.8z"/>
</g>
</svg>
