<?xml version="1.0" encoding="utf-8"?>
<!-- Generator: Adobe Illustrator 24.0.1, SVG Export Plug-In . SVG Version: 6.00 Build 0)  -->
<svg version="1.1" id="Layer_1" xmlns="http://www.w3.org/2000/svg" xmlns:xlink="http://www.w3.org/1999/xlink" x="0px" y="0px"
	 viewBox="0 0 372.2 424.6" style="enable-background:new 0 0 372.2 424.6;" xml:space="preserve">
<style type="text/css">
	.st0{fill:#273F84;}
	.st1{fill:#FFFFFF;}
</style>
<title>HowToTampon</title>
<path class="st0" d="M188.5,347.2C108.8,324,41.6,261.4,12.6,183.7C-3.6,140.1-7.1,87.9,19.7,49.9c18.5-26.2,49.2-42,80.8-47.5
	c70-12.3,142.5,23.4,188.3,77.8s68.2,124.9,79.5,195.1c6.3,39.2,8,83.7-17.9,113.8c-16.2,18.8-40.7,28.5-65.2,32.7
	C180.3,440.1,80.5,370,62.2,265.1c-0.3-1.5-0.5-2.9-0.7-4.4"/>
<g>
	<path class="st1" d="M99.1,123.9H85.5v7.8h10.6v4H85.5v12.4h-4.5v-28.3h18.1V123.9z"/>
	<path class="st1" d="M121.2,148.2h-13.6v-4h4.4v-20.2h-4.4v-4h8.9v24.3h4.7V148.2z"/>
	<path class="st1" d="M128.4,142.4c0-1.2,0.3-2.2,1-3.1c0.6-0.9,1.5-1.6,2.5-2.2c1-0.6,2.2-1,3.6-1.3c1.3-0.3,2.7-0.4,4.1-0.4
		c0.8,0,1.4,0,2,0s1.1,0.1,1.7,0.1v-0.8c0-1.1-0.4-1.8-1.2-2.4c-0.8-0.5-1.9-0.8-3.2-0.8c-1.2,0-2.4,0.2-3.7,0.5
		c-1.3,0.3-2.4,0.8-3.6,1.5l-1.8-3.5c1.3-0.8,2.8-1.4,4.3-1.8s3.1-0.7,4.8-0.7c1.1,0,2.2,0.1,3.2,0.4c1.1,0.2,2,0.7,2.9,1.2
		s1.5,1.3,2,2.2s0.8,2,0.8,3.3v13.5h-4.4v-3c-0.7,1.1-1.8,2-3.1,2.6c-1.4,0.6-2.9,0.9-4.5,0.9c-1,0-1.9-0.1-2.8-0.4
		c-0.9-0.3-1.6-0.7-2.3-1.2c-0.6-0.5-1.1-1.2-1.5-2C128.6,144.3,128.4,143.4,128.4,142.4z M136.7,144.6c0.9,0,1.7-0.1,2.5-0.3
		s1.5-0.5,2-0.9c0.6-0.4,1.1-0.9,1.4-1.4c0.3-0.6,0.5-1.2,0.5-1.9v-0.8c-0.7-0.1-1.4-0.2-2-0.2c-0.6,0-1.2,0-1.6,0
		c-2.2,0-3.9,0.3-5,0.9c-1.1,0.6-1.7,1.3-1.7,2.1C132.8,143.8,134.1,144.6,136.7,144.6z"/>
	<path class="st1" d="M173.1,141.7c-0.2,2.1-1.1,3.8-2.5,5c-1.4,1.2-3.2,1.9-5.4,1.9c-1.2,0-2.3-0.2-3.3-0.6c-1-0.4-1.8-0.9-2.5-1.6
		s-1.2-1.5-1.6-2.5s-0.6-2-0.6-3.2V132h-4.6v-4h4.6v-8.1h4.5v8.1h8.5v4h-8.5v8.8c0,1.3,0.3,2.3,1,2.9c0.6,0.6,1.5,1,2.5,1
		c1.3,0,2.2-0.4,2.8-1.1c0.6-0.7,1-1.6,1.1-2.7L173.1,141.7z"/>
	<path class="st1" d="M193.9,148.2h-13.6v-4h4.5V132h-4.5v-4h9v16.2h4.6V148.2z M189.8,125.3h-5.5v-5.5h5.5V125.3z"/>
	<path class="st1" d="M220.9,132.7c-0.5-0.3-1.1-0.5-1.6-0.6c-0.6-0.1-1.2-0.2-1.9-0.2c-1,0-1.9,0.1-2.8,0.4s-1.6,0.7-2.3,1.3
		s-1.1,1.3-1.5,2.2c-0.4,0.9-0.5,1.9-0.5,3.2v5h4.5v4h-13.6v-4h4.6V132h-4.6V128h9.1v5.1c0.7-2,1.8-3.5,3.3-4.3
		c1.4-0.8,3.1-1.3,5.1-1.3c0.6,0,1.3,0.1,2,0.2c0.7,0.1,1.3,0.4,2,0.7L220.9,132.7z"/>
	<path class="st1" d="M246.1,138.1c0,1.6-0.2,3-0.7,4.3c-0.5,1.3-1.2,2.4-2.1,3.3c-0.9,0.9-2,1.7-3.3,2.2c-1.3,0.5-2.8,0.8-4.4,0.8
		c-1.6,0-3-0.3-4.3-0.8c-1.3-0.5-2.4-1.2-3.3-2.2c-0.9-0.9-1.6-2-2.1-3.3c-0.5-1.3-0.7-2.7-0.7-4.3c0-1.5,0.2-3,0.7-4.3
		c0.5-1.3,1.2-2.4,2.1-3.4c0.9-0.9,2-1.7,3.3-2.2c1.3-0.5,2.7-0.8,4.3-0.8c1.6,0,3.1,0.3,4.4,0.8c1.3,0.5,2.4,1.2,3.3,2.2
		c0.9,0.9,1.6,2.1,2.1,3.4C245.9,135.1,246.1,136.5,246.1,138.1z M241.6,138.1c0-0.9-0.1-1.8-0.4-2.6c-0.3-0.8-0.7-1.5-1.2-2.1
		c-0.5-0.6-1.2-1-1.9-1.4s-1.6-0.5-2.5-0.5c-1,0-1.8,0.2-2.5,0.5c-0.7,0.3-1.4,0.8-1.9,1.4c-0.5,0.6-0.9,1.3-1.2,2.1
		c-0.3,0.8-0.4,1.7-0.4,2.6c0,1,0.1,1.8,0.4,2.6c0.3,0.8,0.7,1.5,1.2,2.1c0.5,0.6,1.2,1.1,1.9,1.4c0.7,0.3,1.6,0.5,2.5,0.5
		c0.9,0,1.8-0.2,2.5-0.5c0.8-0.3,1.4-0.8,1.9-1.4c0.5-0.6,0.9-1.3,1.2-2.1C241.5,139.9,241.6,139,241.6,138.1z"/>
	<path class="st1" d="M268.8,148.2h-4.5v-12.5c0-1.6-0.3-2.7-0.9-3.3c-0.6-0.6-1.5-0.9-2.6-0.9c-1.7,0-3,0.7-4.1,2s-1.6,3.2-1.6,5.6
		v9.1h-4.5V128h4.5v5.1c0.4-1.7,1.3-3.1,2.5-4.1s2.7-1.5,4.5-1.5c2.1,0,3.7,0.7,4.9,2c1.2,1.3,1.8,3.4,1.8,6.2V148.2z"/>
	<path class="st1" d="M99.5,193.7c0,1.3-0.2,2.5-0.7,3.5c-0.4,1-1,1.9-1.8,2.6c-0.8,0.7-1.7,1.2-2.7,1.6c-1,0.4-2.2,0.6-3.3,0.6
		c-1.3,0-2.5-0.2-3.6-0.7c-1.1-0.5-2-1.3-2.8-2.4v2.6h-4v-9.3h4c0,0.9,0.2,1.7,0.5,2.4c0.3,0.7,0.8,1.3,1.3,1.8
		c0.5,0.5,1.2,0.9,1.9,1.1c0.7,0.3,1.5,0.4,2.3,0.4c1.3,0,2.4-0.3,3.3-0.9c0.8-0.6,1.2-1.6,1.2-3c0-0.7-0.1-1.3-0.4-1.8
		c-0.3-0.5-0.6-1-1.1-1.4c-0.5-0.4-1-0.7-1.7-1s-1.5-0.6-2.3-0.9c-1-0.3-2.1-0.7-3.1-1.2c-1-0.4-1.9-1-2.8-1.6
		c-0.8-0.6-1.5-1.4-2-2.3s-0.8-2.1-0.8-3.5c0-1.2,0.2-2.3,0.7-3.3c0.5-0.9,1.1-1.7,1.8-2.3c0.8-0.6,1.6-1.1,2.6-1.4
		c1-0.3,2.1-0.5,3.2-0.5c1.3,0,2.4,0.3,3.3,0.8c0.9,0.5,1.7,1.3,2.2,2.2v-2.5h4v8.8h-4c0-1.7-0.4-3-1.3-3.9c-0.9-0.9-2-1.4-3.5-1.4
		c-1.3,0-2.4,0.3-3.2,0.9c-0.9,0.6-1.3,1.5-1.3,2.6c0,0.6,0.1,1,0.3,1.4c0.2,0.4,0.5,0.8,1,1.1s1,0.6,1.6,0.9
		c0.7,0.3,1.4,0.6,2.3,0.9c1.1,0.4,2.1,0.8,3.2,1.3c1.1,0.5,2,1.1,2.8,1.8c0.8,0.7,1.5,1.5,2.1,2.5C99.2,191,99.5,192.2,99.5,193.7z
		"/>
	<path class="st1" d="M123.7,198.6c-1.3,1.3-2.7,2.2-4.1,2.7c-1.4,0.5-3,0.7-4.7,0.7c-1.7,0-3.2-0.3-4.6-0.8
		c-1.4-0.5-2.6-1.2-3.5-2.1c-1-0.9-1.7-2-2.2-3.3c-0.5-1.3-0.8-2.8-0.8-4.4c0-1.5,0.3-3,0.8-4.3s1.2-2.4,2.1-3.4
		c0.9-0.9,1.9-1.7,3.1-2.2s2.4-0.8,3.8-0.8c1.4,0,2.6,0.3,3.6,0.9s1.8,1.4,2.2,2.5v-2.9h4v9.4h-4c0-1.8-0.5-3.2-1.5-4.3
		c-1-1.1-2.2-1.6-3.8-1.6c-0.6,0-1.3,0.1-2,0.4c-0.7,0.3-1.3,0.6-1.9,1.2s-1,1.2-1.4,2c-0.4,0.8-0.6,1.8-0.6,3
		c0,1.1,0.2,2.1,0.5,2.9s0.8,1.5,1.4,2s1.3,0.9,2.1,1.2s1.6,0.4,2.5,0.4c1.5,0,2.7-0.2,3.8-0.7c1.1-0.5,2-1.1,2.8-1.8L123.7,198.6z"
		/>
	<path class="st1" d="M147.6,201.4h-4.5V189c0-1.6-0.3-2.7-0.9-3.3c-0.6-0.6-1.5-0.9-2.6-0.9c-1.7,0-3,0.7-4.1,2
		c-1,1.3-1.6,3.2-1.6,5.6v9.1h-4.5v-28.3h4.5v13.2c0.4-1.7,1.3-3.1,2.5-4.1s2.7-1.5,4.5-1.5c2.1,0,3.7,0.7,4.9,2s1.8,3.4,1.8,6.2
		V201.4z"/>
	<path class="st1" d="M173.4,191.3c0,1.6-0.2,3-0.7,4.3c-0.5,1.3-1.2,2.4-2.1,3.3s-2,1.7-3.3,2.2c-1.3,0.5-2.8,0.8-4.4,0.8
		c-1.6,0-3-0.3-4.3-0.8c-1.3-0.5-2.4-1.2-3.3-2.2s-1.6-2-2.1-3.3c-0.5-1.3-0.7-2.7-0.7-4.3c0-1.5,0.2-3,0.7-4.3s1.2-2.4,2.1-3.4
		c0.9-0.9,2-1.7,3.3-2.2s2.7-0.8,4.3-0.8c1.6,0,3.1,0.3,4.4,0.8s2.4,1.2,3.3,2.2c0.9,0.9,1.6,2.1,2.1,3.4S173.4,189.8,173.4,191.3z
		 M168.9,191.4c0-0.9-0.1-1.8-0.4-2.6c-0.3-0.8-0.7-1.5-1.2-2.1s-1.2-1-1.9-1.4s-1.6-0.5-2.5-0.5c-1,0-1.8,0.2-2.5,0.5
		s-1.4,0.8-1.9,1.4c-0.5,0.6-0.9,1.3-1.2,2.1c-0.3,0.8-0.4,1.7-0.4,2.6c0,1,0.1,1.8,0.4,2.6c0.3,0.8,0.7,1.5,1.2,2.1
		c0.5,0.6,1.2,1.1,1.9,1.4c0.7,0.3,1.6,0.5,2.5,0.5c0.9,0,1.8-0.2,2.5-0.5c0.8-0.3,1.4-0.8,1.9-1.4c0.5-0.6,0.9-1.3,1.2-2.1
		C168.8,193.2,168.9,192.3,168.9,191.4z"/>
	<path class="st1" d="M197.6,191.3c0,1.6-0.2,3-0.7,4.3c-0.5,1.3-1.2,2.4-2.1,3.3c-0.9,0.9-2,1.7-3.3,2.2c-1.3,0.5-2.8,0.8-4.4,0.8
		c-1.6,0-3-0.3-4.3-0.8c-1.3-0.5-2.4-1.2-3.3-2.2s-1.6-2-2.1-3.3c-0.5-1.3-0.7-2.7-0.7-4.3c0-1.5,0.2-3,0.7-4.3s1.2-2.4,2.1-3.4
		c0.9-0.9,2-1.7,3.3-2.2s2.7-0.8,4.3-0.8c1.6,0,3.1,0.3,4.4,0.8c1.3,0.5,2.4,1.2,3.3,2.2c0.9,0.9,1.6,2.1,2.1,3.4
		C197.4,188.4,197.6,189.8,197.6,191.3z M193.2,191.4c0-0.9-0.1-1.8-0.4-2.6c-0.3-0.8-0.7-1.5-1.2-2.1c-0.5-0.6-1.2-1-1.9-1.4
		s-1.6-0.5-2.5-0.5c-0.9,0-1.8,0.2-2.5,0.5s-1.4,0.8-1.9,1.4c-0.5,0.6-0.9,1.3-1.2,2.1c-0.3,0.8-0.4,1.7-0.4,2.6
		c0,1,0.1,1.8,0.4,2.6c0.3,0.8,0.7,1.5,1.2,2.1c0.5,0.6,1.2,1.1,1.9,1.4c0.7,0.3,1.6,0.5,2.5,0.5c0.9,0,1.8-0.2,2.5-0.5
		c0.8-0.3,1.4-0.8,1.9-1.4c0.5-0.6,0.9-1.3,1.2-2.1C193,193.2,193.2,192.3,193.2,191.4z"/>
	<path class="st1" d="M218.1,201.4h-13.6v-4h4.4v-20.2h-4.4v-4h8.9v24.3h4.7V201.4z"/>
	<path class="st1" d="M101.6,226.4l-4.4,28.3h-4.6l-2.5-12.2l-2.4,12.2H83l-4.4-28.3h4.7l2.6,19.1l2.1-11h4.3l2,11l2.7-19.1H101.6z"
		/>
	<path class="st1" d="M108.3,246.3c0.2,1.4,0.9,2.6,2,3.5s2.6,1.4,4.5,1.4c1.5,0,2.7-0.2,3.8-0.7c1.1-0.5,2-1.1,2.8-1.8l2.3,3.2
		c-1.3,1.3-2.7,2.2-4.1,2.7s-3,0.7-4.8,0.7c-1.6,0-3-0.3-4.4-0.8c-1.3-0.5-2.5-1.2-3.5-2.2s-1.8-2-2.3-3.3c-0.6-1.3-0.8-2.7-0.8-4.3
		c0-1.5,0.3-2.9,0.8-4.2s1.2-2.4,2.2-3.4c0.9-0.9,2-1.7,3.3-2.2c1.3-0.5,2.7-0.8,4.3-0.8c1.6,0,3.1,0.3,4.4,0.8
		c1.3,0.6,2.5,1.4,3.4,2.4s1.7,2.3,2.2,3.9s0.8,3.2,0.8,5.2H108.3z M120.2,242.4c-0.2-1.3-0.9-2.3-2-3.1c-1.1-0.8-2.4-1.2-3.8-1.2
		c-1.4,0-2.7,0.4-3.8,1.2c-1.1,0.8-1.8,1.8-2,3.1H120.2z"/>
	<path class="st1" d="M129.5,226.4h4.5v9.9c0.9-0.8,1.7-1.3,2.6-1.7c0.9-0.4,1.9-0.6,3-0.6c1.3,0,2.5,0.3,3.6,0.8
		c1.1,0.5,2.1,1.3,2.9,2.2c0.8,0.9,1.4,2.1,1.9,3.4s0.7,2.7,0.7,4.3c0,1.5-0.2,3-0.7,4.3s-1.1,2.4-1.9,3.3s-1.7,1.7-2.9,2.2
		c-1.1,0.5-2.3,0.8-3.6,0.8c-1.1,0-2.1-0.2-3-0.6c-0.9-0.4-1.7-1-2.6-1.7v1.9h-4.5V226.4z M134,249.3c0.5,0.6,1.2,1,2,1.4
		c0.8,0.3,1.6,0.5,2.4,0.5c1.7,0,3.1-0.6,4.1-1.8c1.1-1.2,1.6-2.8,1.6-4.7s-0.5-3.5-1.6-4.8c-1.1-1.2-2.4-1.8-4.1-1.8
		c-0.8,0-1.6,0.2-2.4,0.5c-0.8,0.3-1.5,0.8-2,1.4V249.3z"/>
	<path class="st1" d="M198.1,240.5c0,1.9-0.2,3.7-0.6,5.4c-0.4,1.7-1,3.2-1.9,4.5s-2,2.3-3.4,3.1s-3,1.1-5,1.1H178v-28.3h9.2
		c1.9,0,3.6,0.4,5,1.2c1.4,0.8,2.5,1.8,3.4,3.1s1.5,2.8,1.9,4.5C197.9,236.8,198.1,238.6,198.1,240.5z M193.6,240.5
		c0-3.3-0.6-5.8-1.7-7.5c-1.1-1.7-2.7-2.6-4.7-2.6h-4.7v20.2h4.7c2,0,3.6-0.9,4.7-2.6C193,246.2,193.6,243.8,193.6,240.5z"/>
	<path class="st1" d="M205.3,246.3c0.2,1.4,0.9,2.6,2,3.5s2.6,1.4,4.5,1.4c1.5,0,2.7-0.2,3.8-0.7s2-1.1,2.8-1.8l2.3,3.2
		c-1.3,1.3-2.7,2.2-4.1,2.7s-3,0.7-4.8,0.7c-1.6,0-3-0.3-4.4-0.8c-1.3-0.5-2.5-1.2-3.5-2.2s-1.8-2-2.3-3.3c-0.6-1.3-0.8-2.7-0.8-4.3
		c0-1.5,0.3-2.9,0.8-4.2s1.2-2.4,2.2-3.4s2-1.7,3.3-2.2s2.7-0.8,4.3-0.8c1.6,0,3.1,0.3,4.4,0.8c1.3,0.6,2.5,1.4,3.4,2.4
		s1.7,2.3,2.2,3.9c0.5,1.5,0.8,3.2,0.8,5.2H205.3z M217.1,242.4c-0.2-1.3-0.9-2.3-2-3.1c-1.1-0.8-2.4-1.2-3.8-1.2
		c-1.4,0-2.7,0.4-3.8,1.2c-1.1,0.8-1.8,1.8-2,3.1H217.1z"/>
	<path class="st1" d="M245,248.6c0,1.3-0.3,2.4-0.9,3.2c-0.6,0.8-1.4,1.5-2.3,2c-0.9,0.5-2,0.9-3.1,1.1c-1.1,0.2-2.3,0.3-3.4,0.3
		c-1.8,0-3.7-0.3-5.5-0.8c-1.8-0.5-3.4-1.2-4.7-2.1l1.9-3.7c1.6,0.9,3,1.6,4.4,2c1.3,0.4,2.6,0.6,4,0.6c1.8,0,3.1-0.2,3.9-0.6
		c0.8-0.4,1.2-0.9,1.2-1.6c0-0.3-0.1-0.6-0.3-0.8c-0.2-0.2-0.6-0.4-1.1-0.6s-1.2-0.4-2.1-0.5s-2-0.4-3.3-0.6c-1-0.2-2-0.4-3-0.6
		c-0.9-0.3-1.8-0.6-2.5-1.1c-0.7-0.5-1.3-1-1.7-1.8c-0.4-0.7-0.6-1.6-0.6-2.7c0-1.1,0.3-2,0.8-2.8c0.6-0.8,1.3-1.5,2.2-2
		c0.9-0.5,1.9-0.9,3.1-1.1s2.3-0.3,3.4-0.3c1.6,0,3.1,0.2,4.6,0.6c1.5,0.4,2.8,1,3.9,1.8l-1.8,3.5c-1.1-0.7-2.2-1.2-3.3-1.4
		c-1.1-0.3-2.2-0.4-3.5-0.4c-0.5,0-1.1,0-1.7,0.1s-1.1,0.2-1.6,0.3s-0.9,0.4-1.2,0.7c-0.3,0.3-0.5,0.6-0.5,1c0,0.5,0.5,1,1.4,1.3
		s2.6,0.7,4.8,1c1.2,0.2,2.4,0.4,3.4,0.7s1.9,0.6,2.6,1.1c0.7,0.5,1.3,1,1.7,1.8C244.8,246.7,245,247.6,245,248.6z"/>
	<path class="st1" d="M266.6,254.7H253v-4h4.5v-12.1H253v-4h9v16.2h4.6V254.7z M262.4,231.9H257v-5.5h5.5V231.9z"/>
	<path class="st1" d="M293,254.5c0,1.4-0.2,2.6-0.7,3.7c-0.5,1.1-1.1,2-2,2.8c-0.9,0.8-1.9,1.3-3,1.7s-2.5,0.6-3.9,0.6
		c-3.5,0-6.5-1.1-9-3.2l2.1-3.5c2.1,1.8,4.4,2.7,6.9,2.7c1.5,0,2.8-0.4,3.7-1.1c0.9-0.8,1.4-1.9,1.4-3.6v-2.2
		c-0.9,0.8-1.8,1.4-2.7,1.8s-1.8,0.6-3,0.6c-1.3,0-2.5-0.3-3.6-0.8c-1.1-0.5-2.1-1.3-2.9-2.2s-1.4-2-1.9-3.3c-0.5-1.3-0.7-2.6-0.7-4
		s0.2-2.8,0.7-4c0.5-1.3,1.1-2.4,1.9-3.3s1.8-1.7,2.9-2.2c1.1-0.5,2.3-0.8,3.6-0.8c1.1,0,2.1,0.2,3,0.6c0.9,0.4,1.8,1,2.6,1.7v-1.8
		h4.5V254.5z M288.5,239.9c-0.5-0.6-1.2-1-2.1-1.4c-0.8-0.3-1.7-0.5-2.5-0.5c-1.7,0-3.1,0.6-4.1,1.8s-1.6,2.7-1.6,4.5
		c0,0.9,0.1,1.8,0.4,2.5c0.3,0.8,0.7,1.4,1.2,2c0.5,0.6,1.1,1,1.8,1.3c0.7,0.3,1.5,0.5,2.3,0.5c0.8,0,1.6-0.2,2.5-0.5
		c0.8-0.3,1.5-0.8,2.1-1.4V239.9z"/>
	<path class="st1" d="M317.2,254.7h-4.5v-12.5c0-1.6-0.3-2.7-0.9-3.3c-0.6-0.6-1.5-0.9-2.6-0.9c-1.7,0-3,0.7-4.1,2
		c-1,1.3-1.6,3.2-1.6,5.6v9.1h-4.5v-20.2h4.5v5.1c0.4-1.7,1.3-3.1,2.5-4.1s2.7-1.5,4.5-1.5c2.1,0,3.7,0.7,4.9,2
		c1.2,1.3,1.8,3.4,1.8,6.2V254.7z"/>
</g>
</svg>
