<?xml version="1.0" encoding="utf-8"?>
<!-- Generator: Adobe Illustrator 24.1.2, SVG Export Plug-In . SVG Version: 6.00 Build 0)  -->
<svg version="1.1" id="Layer_1" xmlns="http://www.w3.org/2000/svg" xmlns:xlink="http://www.w3.org/1999/xlink" x="0px" y="0px"
	 viewBox="0 0 372.2 424.6" style="enable-background:new 0 0 372.2 424.6;" xml:space="preserve">
<style type="text/css">
	.st0{fill:#4E7FFF;}
	.st1{fill:#FFFFFF;}
</style>
<path class="st0" d="M188.5,347.2C108.8,324,41.6,261.4,12.6,183.7C-3.6,140.1-7.1,87.9,19.7,49.9c18.5-26.2,49.2-42,80.8-47.5
	c70-12.3,142.5,23.4,188.3,77.8s68.2,124.9,79.5,195.1c6.3,39.2,8,83.7-17.9,113.8c-16.2,18.8-40.7,28.5-65.2,32.7
	C180.3,440.1,80.5,370,62.2,265.1c-0.3-1.5-0.5-2.9-0.7-4.4"/>
<g>
	<path class="st1" d="M113.8,132.8H99.6v6.7h11.2v4.4H99.6v10.8h-5.5v-26.3h19.7V132.8z"/>
	<path class="st1" d="M123.3,126v22.5c0,0.9,0.2,1.6,0.5,2s0.9,0.6,1.6,0.6c0.5,0,0.8,0,1.1-0.1c0.3-0.1,0.7-0.2,1.1-0.3l-0.5,3.6
		c-0.5,0.3-1,0.5-1.7,0.6c-0.7,0.1-1.3,0.2-2,0.2c-1.9,0-3.4-0.5-4.2-1.4c-0.9-0.9-1.3-2.5-1.3-4.5V126H123.3z"/>
	<path class="st1" d="M142.2,142c0-1.1-0.3-2-1-2.7c-0.7-0.6-1.5-1-2.6-1c-1,0-1.8,0.3-2.6,0.8c-0.7,0.5-1.3,1.3-1.6,2.5l-4.7-1.4
		c0.5-1.8,1.4-3.2,3-4.2c1.5-1.1,3.6-1.6,6.2-1.6c1.8,0,3.3,0.3,4.6,0.8c1.3,0.5,2.3,1.4,3,2.5c0.7,1.1,1.1,2.5,1.1,4.1v8.1
		c0,1,0.5,1.5,1.4,1.5c0.5,0,0.9-0.1,1.3-0.2l-0.3,3.4c-0.7,0.3-1.6,0.5-2.6,0.5c-0.9,0-1.8-0.2-2.5-0.5c-0.7-0.3-1.3-0.8-1.8-1.5
		c-0.4-0.7-0.6-1.5-0.6-2.5v-0.2l1-0.2c-0.2,1-0.6,1.9-1.3,2.6c-0.7,0.7-1.6,1.2-2.6,1.6c-1,0.4-2.1,0.6-3.2,0.6
		c-1.4,0-2.5-0.2-3.5-0.6s-1.7-1-2.3-1.8c-0.5-0.8-0.8-1.8-0.8-2.9c0-1.5,0.5-2.7,1.4-3.6c1-0.9,2.3-1.6,4.1-1.9l7.5-1.5l0,3.4
		l-4.8,1c-0.9,0.2-1.6,0.4-2.1,0.7c-0.5,0.3-0.7,0.8-0.7,1.5c0,0.7,0.2,1.2,0.7,1.5c0.5,0.3,1.1,0.5,1.8,0.5c0.6,0,1.1-0.1,1.6-0.2
		c0.5-0.1,1-0.3,1.4-0.6c0.4-0.3,0.8-0.7,1-1.2c0.2-0.5,0.4-1.1,0.4-1.8V142z"/>
	<path class="st1" d="M166.4,134.7v4.1h-15.5v-4.1H166.4z M160,128.6v19.5c0,1,0.2,1.7,0.7,2.1s1.2,0.7,2,0.7c0.7,0,1.2-0.1,1.8-0.3
		c0.5-0.2,1-0.5,1.4-0.8l0.9,3.6c-0.6,0.5-1.4,0.9-2.4,1.2c-1,0.3-2,0.4-3,0.4c-1.3,0-2.5-0.2-3.5-0.6c-1-0.4-1.8-1-2.4-1.9
		c-0.6-0.9-0.9-2-0.9-3.5v-18.9L160,128.6z"/>
	<path class="st1" d="M172.8,131.9c-1.1,0-2-0.2-2.6-0.7c-0.6-0.5-0.8-1.2-0.8-2.2c0-1,0.3-1.7,0.8-2.2c0.6-0.5,1.4-0.7,2.6-0.7
		c1.1,0,2,0.2,2.6,0.7c0.6,0.5,0.8,1.2,0.8,2.2c0,1-0.3,1.7-0.8,2.2C174.8,131.6,174,131.9,172.8,131.9z M175.5,134.7v19.9h-5.5
		v-19.9H175.5z"/>
	<path class="st1" d="M181.3,154.7v-19.9h4.7l0.4,3.9c0.5-1.4,1.3-2.4,2.3-3.2s2.3-1.1,3.8-1.1c0.5,0,0.9,0,1.2,0.1s0.7,0.2,0.9,0.3
		l-0.6,4.6c-0.3-0.1-0.6-0.2-1-0.2c-0.4-0.1-0.9-0.1-1.5-0.1c-0.8,0-1.6,0.2-2.3,0.6c-0.7,0.4-1.4,1-1.8,1.8c-0.5,0.8-0.7,1.8-0.7,3
		v10.3H181.3z"/>
	<path class="st1" d="M206.8,134.3c2,0,3.8,0.4,5.3,1.2c1.5,0.8,2.7,2,3.6,3.5c0.9,1.5,1.3,3.4,1.3,5.6c0,2.2-0.4,4-1.3,5.6
		s-2.1,2.7-3.6,3.6c-1.5,0.8-3.3,1.2-5.3,1.2c-2,0-3.8-0.4-5.3-1.2c-1.5-0.8-2.7-2-3.6-3.6c-0.9-1.6-1.3-3.4-1.3-5.6
		c0-2.2,0.4-4,1.3-5.6c0.9-1.5,2.1-2.7,3.6-3.5C203.1,134.8,204.8,134.3,206.8,134.3z M206.8,138.4c-1,0-1.9,0.2-2.6,0.7
		c-0.7,0.5-1.2,1.2-1.6,2.1c-0.4,0.9-0.6,2.1-0.6,3.5c0,1.4,0.2,2.6,0.6,3.5c0.4,0.9,0.9,1.6,1.6,2.1c0.7,0.5,1.6,0.7,2.6,0.7
		c1,0,1.8-0.2,2.5-0.7c0.7-0.5,1.2-1.2,1.6-2.1c0.4-0.9,0.6-2.1,0.6-3.5c0-1.4-0.2-2.6-0.6-3.5c-0.4-0.9-0.9-1.6-1.6-2.1
		C208.6,138.6,207.8,138.4,206.8,138.4z"/>
	<path class="st1" d="M221.6,154.7v-19.9h4.9l0.3,6l-0.7-0.6c0.3-1.3,0.8-2.4,1.5-3.2c0.7-0.9,1.5-1.5,2.5-1.9
		c1-0.4,2.1-0.6,3.3-0.6c1.4,0,2.6,0.3,3.7,0.8c1.1,0.5,1.9,1.3,2.6,2.4c0.6,1.1,0.9,2.4,0.9,4v13.1h-5.5v-11.5c0-1.7-0.3-2.9-1-3.5
		c-0.7-0.7-1.5-1-2.6-1c-0.7,0-1.5,0.2-2.2,0.5c-0.7,0.4-1.3,0.9-1.7,1.7c-0.4,0.8-0.7,1.9-0.7,3.2v10.6H221.6z"/>
	<path class="st1" d="M103.7,175.8c2.4,0,4.5,0.4,6.3,1.2c1.8,0.8,3.3,2,4.6,3.7l-3.1,3.5c-1.1-1.4-2.3-2.4-3.6-3
		c-1.3-0.7-2.8-1-4.5-1c-1.1,0-2,0.1-2.8,0.4c-0.7,0.3-1.3,0.7-1.6,1.2c-0.3,0.5-0.5,1-0.5,1.6c0,0.7,0.3,1.3,0.8,1.8
		c0.6,0.5,1.5,0.9,2.9,1.2l4.9,1.1c2.6,0.6,4.5,1.5,5.6,2.6c1.1,1.2,1.7,2.6,1.7,4.5c0,1.7-0.5,3.2-1.4,4.4
		c-0.9,1.2-2.2,2.2-3.8,2.8c-1.6,0.7-3.5,1-5.6,1c-1.8,0-3.5-0.2-5-0.7c-1.5-0.4-2.9-1-4.1-1.8c-1.2-0.8-2.2-1.7-3-2.7l3.1-3.7
		c0.6,0.9,1.4,1.6,2.3,2.3c0.9,0.7,1.9,1.2,3.1,1.6c1.2,0.4,2.4,0.6,3.6,0.6c1.1,0,2-0.1,2.8-0.4c0.8-0.3,1.3-0.6,1.7-1.1
		c0.4-0.5,0.6-1,0.6-1.7c0-0.7-0.2-1.3-0.7-1.8c-0.5-0.5-1.3-0.9-2.6-1.1l-5.3-1.2c-1.5-0.4-2.9-0.9-4-1.5c-1.1-0.6-1.9-1.4-2.5-2.3
		c-0.6-0.9-0.9-2.1-0.9-3.4c0-1.6,0.4-3,1.3-4.2c0.8-1.2,2.1-2.2,3.7-3C99.5,176.2,101.5,175.8,103.7,175.8z"/>
	<path class="st1" d="M128.3,182.2c1.8,0,3.3,0.3,4.5,0.8s2.2,1.2,3,2.1c0.8,0.9,1.3,1.9,1.6,3l-5.1,1.8c-0.3-1.2-0.7-2.1-1.4-2.7
		c-0.6-0.6-1.5-0.9-2.6-0.9c-1,0-1.9,0.2-2.6,0.7c-0.7,0.5-1.3,1.2-1.6,2.1c-0.4,0.9-0.6,2.1-0.6,3.5c0,1.4,0.2,2.6,0.6,3.5
		c0.4,0.9,0.9,1.6,1.7,2.1c0.7,0.5,1.6,0.7,2.6,0.7c0.8,0,1.5-0.1,2-0.4c0.6-0.3,1-0.7,1.4-1.2c0.4-0.5,0.6-1.2,0.7-1.9l4.9,1.6
		c-0.3,1.2-0.8,2.2-1.6,3.1c-0.8,0.9-1.8,1.6-3.1,2.1c-1.2,0.5-2.7,0.8-4.3,0.8c-2,0-3.9-0.4-5.4-1.2c-1.6-0.8-2.8-2-3.6-3.5
		c-0.9-1.5-1.3-3.4-1.3-5.6c0-2.2,0.4-4,1.3-5.6c0.8-1.5,2-2.7,3.6-3.5C124.5,182.6,126.3,182.2,128.3,182.2z"/>
	<path class="st1" d="M141.7,202.5v-28.7h5.5v12.1c0.6-1.3,1.5-2.2,2.6-2.8c1.1-0.6,2.4-0.9,3.8-0.9c1.4,0,2.6,0.3,3.7,0.8
		c1.1,0.5,1.9,1.3,2.6,2.4c0.6,1.1,0.9,2.4,0.9,4v13.1h-5.5V191c0-1.7-0.3-2.9-1-3.6c-0.7-0.7-1.5-1-2.6-1c-0.8,0-1.5,0.2-2.2,0.5
		c-0.7,0.4-1.3,0.9-1.7,1.8c-0.4,0.8-0.7,1.9-0.7,3.2v10.5H141.7z"/>
	<path class="st1" d="M175.5,182.2c2,0,3.8,0.4,5.3,1.2c1.5,0.8,2.7,2,3.6,3.5c0.9,1.5,1.3,3.4,1.3,5.6c0,2.2-0.4,4-1.3,5.6
		s-2.1,2.7-3.6,3.6c-1.5,0.8-3.3,1.2-5.3,1.2c-2,0-3.8-0.4-5.3-1.2c-1.5-0.8-2.7-2-3.6-3.6s-1.3-3.4-1.3-5.6c0-2.2,0.4-4,1.3-5.6
		c0.9-1.5,2.1-2.7,3.6-3.5C171.7,182.6,173.5,182.2,175.5,182.2z M175.5,186.2c-1,0-1.9,0.2-2.6,0.7c-0.7,0.5-1.2,1.2-1.6,2.1
		c-0.4,0.9-0.6,2.1-0.6,3.5c0,1.4,0.2,2.6,0.6,3.5c0.4,0.9,0.9,1.6,1.6,2.1c0.7,0.5,1.6,0.7,2.6,0.7c1,0,1.8-0.2,2.5-0.7
		c0.7-0.5,1.2-1.2,1.6-2.1c0.4-0.9,0.6-2.1,0.6-3.5c0-1.4-0.2-2.6-0.6-3.5c-0.4-0.9-0.9-1.6-1.6-2.1
		C177.3,186.5,176.4,186.2,175.5,186.2z"/>
	<path class="st1" d="M199.3,182.2c2,0,3.8,0.4,5.3,1.2c1.5,0.8,2.7,2,3.6,3.5c0.9,1.5,1.3,3.4,1.3,5.6c0,2.2-0.4,4-1.3,5.6
		s-2.1,2.7-3.6,3.6c-1.5,0.8-3.3,1.2-5.3,1.2c-2,0-3.8-0.4-5.3-1.2c-1.5-0.8-2.7-2-3.6-3.6c-0.9-1.6-1.3-3.4-1.3-5.6
		c0-2.2,0.4-4,1.3-5.6c0.9-1.5,2.1-2.7,3.6-3.5C195.6,182.6,197.3,182.2,199.3,182.2z M199.3,186.2c-1,0-1.9,0.2-2.6,0.7
		c-0.7,0.5-1.2,1.2-1.6,2.1c-0.4,0.9-0.6,2.1-0.6,3.5c0,1.4,0.2,2.6,0.6,3.5c0.4,0.9,0.9,1.6,1.6,2.1c0.7,0.5,1.6,0.7,2.6,0.7
		c1,0,1.8-0.2,2.5-0.7c0.7-0.5,1.2-1.2,1.6-2.1c0.4-0.9,0.6-2.1,0.6-3.5c0-1.4-0.2-2.6-0.6-3.5c-0.4-0.9-0.9-1.6-1.6-2.1
		C201.2,186.5,200.3,186.2,199.3,186.2z"/>
	<path class="st1" d="M219.5,173.8v22.5c0,0.9,0.2,1.6,0.5,2c0.3,0.4,0.8,0.6,1.6,0.6c0.5,0,0.8,0,1.1-0.1c0.3-0.1,0.7-0.2,1.1-0.3
		l-0.5,3.6c-0.5,0.3-1,0.5-1.7,0.6s-1.3,0.2-2,0.2c-1.9,0-3.4-0.5-4.2-1.4c-0.9-0.9-1.3-2.5-1.3-4.5v-23.1H219.5z"/>
	<path class="st1" d="M99.1,250.3L91.5,224h5.9l5.2,21.7l5.3-21.7h5.3l5.3,21.7l5.1-21.7h5.6l-7.7,26.3h-6.2l-3.7-14.3l-1.2-6.2
		h-0.1l-1.2,6.2l-3.6,14.3H99.1z"/>
	<path class="st1" d="M140.2,250.7c-2.1,0-3.9-0.4-5.5-1.2c-1.6-0.8-2.8-2-3.6-3.5c-0.9-1.5-1.3-3.4-1.3-5.6c0-2.2,0.4-4,1.3-5.6
		c0.8-1.5,2-2.7,3.6-3.5c1.5-0.8,3.3-1.2,5.2-1.2c2,0,3.7,0.4,5.1,1.2c1.4,0.8,2.5,1.9,3.2,3.3c0.7,1.4,1.1,3,1.1,4.8
		c0,0.5,0,1,0,1.5c0,0.5-0.1,0.9-0.1,1.3h-15.9v-3.8h13.5l-2.6,1c0-1.7-0.4-3-1.1-3.9c-0.8-0.9-1.8-1.4-3.2-1.4
		c-1,0-1.9,0.2-2.6,0.7c-0.7,0.5-1.3,1.2-1.7,2.1c-0.4,0.9-0.6,2.1-0.6,3.6c0,1.4,0.2,2.6,0.6,3.5c0.4,0.9,1,1.6,1.8,2.1
		c0.8,0.5,1.7,0.7,2.7,0.7c1.2,0,2.1-0.2,2.8-0.7c0.7-0.5,1.3-1.1,1.7-1.9l4.3,1.7c-0.4,1-1.1,1.9-1.9,2.7c-0.9,0.7-1.9,1.3-3.1,1.7
		S141.5,250.7,140.2,250.7z"/>
	<path class="st1" d="M165.7,250.7c-1.2,0-2.3-0.3-3.3-0.8c-1-0.5-1.8-1.2-2.5-2.2c-0.7-0.9-1.1-1.9-1.3-3.1l0.6-0.7l-0.3,6.3H154
		v-28.7h5.5V236l-0.5-0.8c0.4-1.5,1.2-2.7,2.4-3.7c1.2-1,2.7-1.5,4.5-1.5c1.6,0,3,0.4,4.3,1.2c1.3,0.8,2.3,2,3,3.5
		c0.7,1.5,1.1,3.4,1.1,5.6c0,2.2-0.4,4-1.1,5.5c-0.7,1.5-1.7,2.7-3,3.5C168.9,250.3,167.4,250.7,165.7,250.7z M164.1,246.5
		c1.5,0,2.6-0.5,3.4-1.6s1.3-2.6,1.3-4.6c0-2-0.4-3.6-1.2-4.6c-0.8-1-2-1.6-3.4-1.6c-1,0-1.8,0.3-2.5,0.8c-0.7,0.5-1.2,1.2-1.6,2.2
		c-0.4,0.9-0.6,2-0.6,3.3c0,1.3,0.2,2.4,0.6,3.3c0.4,0.9,0.9,1.6,1.6,2.1C162.4,246.3,163.2,246.5,164.1,246.5z"/>
	<path class="st1" d="M201.9,224c4.1,0,7.3,1.1,9.6,3.4c2.3,2.3,3.4,5.5,3.4,9.7c0,4.2-1.1,7.4-3.4,9.7c-2.3,2.3-5.4,3.4-9.6,3.4
		h-10.2V224H201.9z M201.6,245.9c2.5,0,4.4-0.8,5.6-2.3s1.9-3.7,1.9-6.5s-0.6-5-1.9-6.5s-3.1-2.3-5.6-2.3h-4.4v17.5H201.6z"/>
	<path class="st1" d="M229.1,250.7c-2.1,0-3.9-0.4-5.5-1.2c-1.6-0.8-2.8-2-3.6-3.5c-0.9-1.5-1.3-3.4-1.3-5.6c0-2.2,0.4-4,1.3-5.6
		c0.9-1.5,2-2.7,3.6-3.5c1.5-0.8,3.3-1.2,5.2-1.2c2,0,3.7,0.4,5.1,1.2c1.4,0.8,2.5,1.9,3.2,3.3c0.7,1.4,1.1,3,1.1,4.8
		c0,0.5,0,1,0,1.5c0,0.5-0.1,0.9-0.1,1.3h-15.9v-3.8h13.5l-2.6,1c0-1.7-0.4-3-1.1-3.9c-0.8-0.9-1.8-1.4-3.2-1.4
		c-1,0-1.9,0.2-2.6,0.7c-0.7,0.5-1.3,1.2-1.7,2.1s-0.6,2.1-0.6,3.6c0,1.4,0.2,2.6,0.6,3.5c0.4,0.9,1,1.6,1.8,2.1
		c0.8,0.5,1.7,0.7,2.7,0.7c1.2,0,2.1-0.2,2.8-0.7c0.7-0.5,1.3-1.1,1.7-1.9l4.3,1.7c-0.4,1-1.1,1.9-1.9,2.7c-0.9,0.7-1.9,1.3-3.1,1.7
		C231.7,250.5,230.5,250.7,229.1,250.7z"/>
	<path class="st1" d="M250.9,250.7c-2,0-3.9-0.4-5.5-1.1c-1.7-0.7-3-1.7-4-3l3.1-3.2c0.6,1,1.5,1.7,2.5,2.4c1.1,0.6,2.3,0.9,3.8,0.9
		c1,0,1.9-0.2,2.5-0.5c0.6-0.3,0.9-0.8,0.9-1.5c0-0.4-0.1-0.8-0.4-1.1s-0.9-0.6-1.8-0.7l-3.5-0.7c-2.3-0.5-4-1.2-4.9-2.2
		c-1-1-1.5-2.2-1.5-3.8c0-1.1,0.3-2.1,1-3.1c0.7-1,1.6-1.7,2.9-2.3c1.3-0.6,2.9-0.9,4.9-0.9c2,0,3.7,0.3,5.2,0.9
		c1.5,0.6,2.6,1.5,3.5,2.8l-3.3,3.2c-0.6-0.9-1.3-1.6-2.3-2.1c-0.9-0.5-1.9-0.7-3-0.7c-0.7,0-1.4,0.1-1.9,0.2
		c-0.5,0.2-0.9,0.4-1.2,0.7c-0.3,0.3-0.4,0.6-0.4,1.1s0.2,0.8,0.6,1.1c0.4,0.3,1,0.6,2,0.8l4.1,0.8c2,0.4,3.4,1.1,4.2,2
		c0.8,0.9,1.3,2.1,1.3,3.4c0,1.3-0.3,2.4-1,3.4s-1.7,1.8-3,2.4C254.4,250.4,252.8,250.7,250.9,250.7z"/>
	<path class="st1" d="M266.8,227.5c-1.1,0-2-0.2-2.6-0.7s-0.8-1.2-0.8-2.2c0-1,0.3-1.7,0.8-2.2c0.6-0.5,1.4-0.7,2.6-0.7
		c1.1,0,2,0.2,2.5,0.7c0.6,0.5,0.8,1.2,0.8,2.2c0,1-0.3,1.7-0.8,2.2C268.8,227.3,268,227.5,266.8,227.5z M269.5,230.4v19.9h-5.5
		v-19.9H269.5z"/>
	<path class="st1" d="M287.2,246.6c2.2,0,3.8,0.5,5,1.4c1.2,0.9,1.8,2.2,1.8,3.9c0,1.5-0.4,2.8-1.3,3.8c-0.9,1-2.1,1.8-3.7,2.4
		c-1.6,0.5-3.4,0.8-5.5,0.8c-3.4,0-5.9-0.5-7.5-1.4c-1.6-1-2.4-2.2-2.4-3.7c0-1.1,0.4-2,1.3-2.8s2.2-1.2,4.2-1.2l-0.2,0.6
		c-1.4-0.2-2.4-0.7-3.2-1.4s-1.1-1.6-1.1-2.8c0-1.2,0.5-2.2,1.4-3c0.9-0.8,2.2-1.2,3.8-1.4l2.4,1.1h-0.6c-1.1,0.1-1.9,0.3-2.4,0.7
		c-0.5,0.4-0.7,0.8-0.7,1.3c0,0.6,0.2,1,0.7,1.3c0.4,0.3,1.1,0.4,1.9,0.4H287.2z M283.5,230c1.9,0,3.5,0.3,4.8,0.8
		c1.4,0.5,2.4,1.3,3.1,2.3c0.7,1,1.1,2.2,1.1,3.6c0,1.4-0.4,2.6-1.1,3.6c-0.7,1-1.8,1.8-3.1,2.3c-1.4,0.5-3,0.8-4.8,0.8
		c-2.9,0-5.2-0.6-6.8-1.8c-1.6-1.2-2.3-2.8-2.3-4.9c0-1.4,0.4-2.6,1.1-3.6c0.7-1,1.8-1.8,3.1-2.3C280,230.3,281.6,230,283.5,230z
		 M283.5,255.1c1.4,0,2.5-0.1,3.4-0.4c0.9-0.2,1.6-0.5,2-0.9c0.4-0.4,0.7-0.8,0.7-1.2c0-0.5-0.2-0.9-0.6-1.2s-1.1-0.5-2.2-0.5H280
		c-0.6,0-1.2,0.2-1.6,0.5c-0.4,0.3-0.6,0.8-0.6,1.3c0,0.7,0.5,1.3,1.5,1.8C280.3,254.9,281.7,255.1,283.5,255.1z M283.5,233.4
		c-1.1,0-1.9,0.3-2.6,0.9c-0.7,0.6-1,1.4-1,2.4s0.3,1.9,1,2.5c0.7,0.6,1.6,0.9,2.6,0.9s1.9-0.3,2.6-0.9c0.7-0.6,1-1.4,1-2.5
		s-0.3-1.8-1-2.4C285.4,233.7,284.6,233.4,283.5,233.4z M293.7,225.6l0.6,3.9c-0.1,0-0.2,0-0.3,0c-0.1,0-0.2,0-0.4,0
		c-1.2,0-2.1,0.3-2.7,0.8c-0.6,0.5-0.9,1.3-0.9,2.3l-2.2-0.9c0-1.1,0.2-2.1,0.6-3c0.4-0.9,1.1-1.7,1.9-2.2c0.8-0.6,1.8-0.8,3-0.8
		c0.1,0,0.1,0,0.2,0S293.6,225.6,293.7,225.6z"/>
	<path class="st1" d="M297.2,250.3v-19.9h4.9l0.3,6l-0.7-0.6c0.3-1.3,0.8-2.4,1.5-3.2c0.7-0.8,1.5-1.5,2.5-1.9
		c1-0.4,2.1-0.6,3.3-0.6c1.4,0,2.6,0.3,3.7,0.8s1.9,1.3,2.6,2.4c0.6,1.1,0.9,2.4,0.9,4v13.1h-5.5v-11.5c0-1.7-0.3-2.9-1-3.5
		c-0.7-0.7-1.5-1-2.6-1c-0.7,0-1.5,0.2-2.2,0.5c-0.7,0.4-1.3,0.9-1.7,1.7s-0.7,1.9-0.7,3.2v10.6H297.2z"/>
</g>
</svg>
