<?xml version="1.0" encoding="utf-8"?>
<!-- Generator: Adobe Illustrator 24.0.1, SVG Export Plug-In . SVG Version: 6.00 Build 0)  -->
<svg version="1.1" id="Layer_1" xmlns="http://www.w3.org/2000/svg" xmlns:xlink="http://www.w3.org/1999/xlink" x="0px" y="0px"
	 viewBox="0 0 562.3 571.9" style="enable-background:new 0 0 562.3 571.9;" xml:space="preserve">
<style type="text/css">
	.st0{fill:#A56779;}
	.st1{fill:#FFFFFF;}
	.st2{fill:#774557;}
</style>
<title>UXUICourse</title>
<path class="st0" d="M347,37.3C277.9,34.8,209.3,51,148.6,84.1C65.2,129.8-3,215.7,0.1,310.7c2.9,89.4,67.8,167,145.2,212
	c67.4,39.2,148,58.9,224.6,44.6s147.8-65.5,176.7-138c33.2-83.4,8.2-177.8-22.6-262.1C499.8,100.8,465.5,28.8,399.1,4.3
	c-9.2-3.4-19.3-5.7-28.8-3.2c-17.1,4.5-26.8,24.1-25.8,41.8s10.2,33.8,19.7,48.8"/>
<path class="st1" d="M168.4,223.8h-16.7v9.6h13v5h-13v15.2h-5.5v-34.7h22.2V223.8z"/>
<path class="st1" d="M195.5,253.6h-16.7v-5h5.4v-24.8h-5.4v-5h10.9v29.8h5.7v5H195.5z"/>
<path class="st1" d="M204.3,246.5c0-1.5,0.4-2.7,1.2-3.8s1.8-2,3.1-2.7s2.7-1.3,4.4-1.6s3.3-0.5,5-0.5c0.9,0,1.7,0,2.4,0.1
	c0.7,0,1.4,0.1,2.1,0.2v-1c0-1.3-0.5-2.3-1.5-2.9c-1-0.6-2.3-1-4-1c-1.5,0-3,0.2-4.6,0.6s-3,1-4.4,1.8l-2.2-4.3
	c1.6-0.9,3.4-1.7,5.3-2.2s3.8-0.8,5.9-0.8c1.3,0,2.7,0.2,4,0.5s2.5,0.8,3.5,1.5s1.9,1.6,2.5,2.7c0.6,1.1,0.9,2.5,0.9,4.1v16.6h-5.5
	V250c-0.9,1.4-2.2,2.4-3.8,3.2c-1.7,0.7-3.5,1.1-5.5,1.1c-1.2,0-2.3-0.2-3.4-0.5c-1.1-0.3-2-0.8-2.8-1.5s-1.4-1.5-1.9-2.4
	C204.5,248.9,204.3,247.8,204.3,246.5z M214.5,249.3c1.1,0,2.1-0.1,3-0.4c0.9-0.3,1.8-0.7,2.5-1.1c0.7-0.5,1.3-1.1,1.7-1.8
	s0.6-1.4,0.6-2.3v-0.9c-0.9-0.1-1.7-0.2-2.4-0.2c-0.8,0-1.4,0-2,0c-2.7,0-4.7,0.4-6.1,1.1c-1.4,0.7-2.1,1.6-2.1,2.6
	C209.8,248.3,211.3,249.3,214.5,249.3z"/>
<path class="st1" d="M259.2,245.8c-0.3,2.6-1.3,4.7-3.1,6.2c-1.8,1.5-4,2.3-6.6,2.3c-1.5,0-2.8-0.2-4-0.7s-2.2-1.1-3.1-2
	c-0.9-0.9-1.5-1.9-2-3.1c-0.5-1.2-0.7-2.5-0.7-3.9v-10.7h-5.6v-5h5.6V219h5.5v9.9h10.4v5h-10.4v10.8c0,1.6,0.4,2.8,1.2,3.6
	s1.8,1.2,3.1,1.2c1.6,0,2.7-0.5,3.5-1.4s1.2-2,1.4-3.3L259.2,245.8z"/>
<path class="st1" d="M284.7,253.6H268v-5h5.5v-14.9H268v-5h11v19.9h5.7V253.6z M279.7,225.6H273v-6.7h6.7V225.6z"/>
<path class="st1" d="M317.9,234.7c-0.7-0.3-1.3-0.6-2-0.7c-0.7-0.2-1.5-0.3-2.4-0.3c-1.2,0-2.4,0.2-3.4,0.5c-1.1,0.4-2,0.9-2.8,1.6
	c-0.8,0.7-1.4,1.6-1.8,2.7c-0.4,1.1-0.7,2.4-0.7,3.9v6.2h5.6v5h-16.7v-5h5.6v-14.9h-5.6v-5h11.1v6.2c0.9-2.5,2.2-4.2,4-5.3
	c1.8-1,3.9-1.5,6.3-1.5c0.8,0,1.6,0.1,2.4,0.2c0.8,0.2,1.7,0.4,2.4,0.9L317.9,234.7z"/>
<path class="st1" d="M348.9,241.3c0,1.9-0.3,3.7-0.9,5.3s-1.5,2.9-2.6,4.1c-1.1,1.1-2.5,2-4.1,2.7c-1.6,0.6-3.4,1-5.4,1
	c-1.9,0-3.7-0.3-5.3-1c-1.6-0.6-3-1.5-4.1-2.7s-2-2.5-2.6-4.1s-0.9-3.3-0.9-5.3c0-1.9,0.3-3.6,0.9-5.2c0.6-1.6,1.5-3,2.6-4.2
	s2.5-2.1,4.1-2.7c1.6-0.6,3.4-0.9,5.3-0.9c2,0,3.8,0.3,5.4,0.9c1.6,0.6,3,1.5,4.1,2.7s2,2.5,2.6,4.2
	C348.6,237.6,348.9,239.4,348.9,241.3z M343.4,241.3c0-1.1-0.2-2.2-0.5-3.2s-0.8-1.9-1.5-2.6s-1.4-1.3-2.4-1.7
	c-0.9-0.4-2-0.6-3.1-0.6c-1.2,0-2.2,0.2-3.1,0.6c-0.9,0.4-1.7,1-2.3,1.7s-1.1,1.6-1.5,2.6c-0.3,1-0.5,2.1-0.5,3.2
	c0,1.2,0.2,2.2,0.5,3.2s0.8,1.8,1.5,2.5c0.6,0.7,1.4,1.3,2.3,1.7s2,0.6,3.1,0.6s2.2-0.2,3.1-0.6c0.9-0.4,1.7-1,2.4-1.7
	c0.7-0.7,1.2-1.6,1.5-2.5S343.4,242.4,343.4,241.3z"/>
<path class="st1" d="M376.7,253.6h-5.5v-15.3c0-1.9-0.4-3.3-1.1-4s-1.8-1.1-3.2-1.1c-2,0-3.7,0.8-5,2.5s-1.9,3.9-1.9,6.8v11.1h-5.5
	v-24.8h5.5v6.2c0.5-2.1,1.6-3.8,3.1-5s3.3-1.8,5.5-1.8c2.5,0,4.5,0.8,6,2.5c1.4,1.7,2.2,4.2,2.2,7.6v15.3H376.7z"/>
<path class="st1" d="M168.8,309.5c0,1.6-0.3,3-0.8,4.3s-1.3,2.3-2.2,3.2c-0.9,0.9-2,1.5-3.3,2s-2.7,0.7-4.1,0.7
	c-1.6,0-3.1-0.3-4.4-0.9c-1.3-0.6-2.4-1.6-3.4-2.9v3.2h-5v-11.4h5c0,1.1,0.2,2.1,0.6,3c0.4,0.9,0.9,1.6,1.6,2.2
	c0.7,0.6,1.4,1,2.3,1.4s1.8,0.5,2.8,0.5c1.7,0,3-0.4,4-1.1c1-0.8,1.5-2,1.5-3.6c0-0.9-0.2-1.6-0.5-2.2s-0.8-1.2-1.3-1.7
	c-0.6-0.5-1.3-0.9-2.1-1.3s-1.8-0.7-2.8-1.2c-1.3-0.4-2.5-0.9-3.8-1.4s-2.4-1.2-3.4-2s-1.8-1.7-2.4-2.9c-0.6-1.1-0.9-2.6-0.9-4.3
	c0-1.5,0.3-2.9,0.8-4c0.6-1.1,1.3-2.1,2.2-2.9s2-1.4,3.2-1.8s2.5-0.6,3.9-0.6c1.6,0,3,0.3,4.1,1s2,1.6,2.6,2.7v-3.1h5v10.8h-5
	c0-2-0.5-3.6-1.6-4.8s-2.5-1.7-4.3-1.7c-1.6,0-2.9,0.4-4,1.1s-1.6,1.8-1.6,3.1c0,0.7,0.1,1.3,0.4,1.8c0.3,0.5,0.7,0.9,1.2,1.3
	s1.2,0.8,2,1.1c0.8,0.3,1.7,0.7,2.8,1.1c1.3,0.5,2.6,1,3.9,1.6c1.3,0.6,2.5,1.3,3.5,2.2c1,0.9,1.9,1.9,2.5,3.1
	S168.8,307.8,168.8,309.5z"/>
<path class="st1" d="M198.5,315.5c-1.6,1.6-3.3,2.7-5,3.3c-1.8,0.6-3.7,0.9-5.7,0.9c-2.1,0-4-0.3-5.7-0.9s-3.1-1.5-4.3-2.6
	s-2.1-2.5-2.7-4.1c-0.6-1.6-0.9-3.4-0.9-5.4c0-1.9,0.3-3.6,0.9-5.2c0.6-1.6,1.5-3,2.6-4.1s2.3-2,3.8-2.7c1.5-0.6,3-1,4.6-1
	c1.7,0,3.2,0.4,4.4,1.1c1.3,0.7,2.2,1.7,2.7,3.1v-3.6h5v11.6h-5c0-2.2-0.6-3.9-1.8-5.2c-1.2-1.3-2.7-2-4.7-2c-0.8,0-1.6,0.2-2.4,0.5
	c-0.8,0.3-1.6,0.8-2.3,1.5s-1.3,1.5-1.7,2.5c-0.5,1-0.7,2.2-0.7,3.7c0,1.4,0.2,2.6,0.7,3.6c0.4,1,1,1.8,1.7,2.5
	c0.7,0.6,1.6,1.1,2.6,1.5c1,0.3,2,0.5,3,0.5c1.8,0,3.3-0.3,4.7-0.8c1.3-0.6,2.5-1.3,3.4-2.2L198.5,315.5z"/>
<path class="st1" d="M227.9,319.1h-5.5v-15.3c0-1.9-0.4-3.3-1.1-4c-0.7-0.7-1.8-1.1-3.2-1.1c-2,0-3.7,0.8-5,2.5s-1.9,3.9-1.9,6.8
	v11.1h-5.5v-34.7h5.5v16.2c0.5-2.1,1.6-3.8,3.1-5s3.3-1.8,5.5-1.8c2.5,0,4.5,0.8,6,2.5s2.2,4.2,2.2,7.6v15.2H227.9z"/>
<path class="st1" d="M259.6,306.7c0,1.9-0.3,3.7-0.9,5.3c-0.6,1.6-1.5,2.9-2.6,4.1c-1.1,1.1-2.5,2-4.1,2.7c-1.6,0.6-3.4,1-5.4,1
	c-1.9,0-3.7-0.3-5.3-1c-1.6-0.6-3-1.5-4.1-2.7s-2-2.5-2.6-4.1s-0.9-3.3-0.9-5.3c0-1.9,0.3-3.6,0.9-5.2c0.6-1.6,1.5-3,2.6-4.2
	s2.5-2.1,4.1-2.7s3.4-0.9,5.3-0.9c2,0,3.8,0.3,5.4,0.9c1.6,0.6,3,1.5,4.1,2.7s2,2.5,2.6,4.2C259.3,303,259.6,304.8,259.6,306.7z
	 M254.1,306.7c0-1.1-0.2-2.2-0.5-3.2s-0.8-1.9-1.5-2.6s-1.4-1.3-2.4-1.7c-0.9-0.4-2-0.6-3.1-0.6c-1.2,0-2.2,0.2-3.1,0.6
	c-0.9,0.4-1.7,1-2.3,1.7s-1.1,1.6-1.5,2.6c-0.3,1-0.5,2.1-0.5,3.2c0,1.2,0.2,2.2,0.5,3.2s0.8,1.8,1.5,2.5c0.6,0.7,1.4,1.3,2.3,1.7
	c0.9,0.4,2,0.6,3.1,0.6s2.2-0.2,3.1-0.6c0.9-0.4,1.7-1,2.4-1.7s1.2-1.6,1.5-2.5C253.9,308.9,254.1,307.9,254.1,306.7z"/>
<path class="st1" d="M289.4,306.7c0,1.9-0.3,3.7-0.9,5.3c-0.6,1.6-1.5,2.9-2.6,4.1c-1.1,1.1-2.5,2-4.1,2.7c-1.6,0.6-3.4,1-5.4,1
	c-1.9,0-3.7-0.3-5.3-1c-1.6-0.6-3-1.5-4.1-2.7s-2-2.5-2.6-4.1s-0.9-3.3-0.9-5.3c0-1.9,0.3-3.6,0.9-5.2s1.5-3,2.6-4.2
	s2.5-2.1,4.1-2.7s3.4-0.9,5.3-0.9c2,0,3.8,0.3,5.4,0.9s3,1.5,4.1,2.7s2,2.5,2.6,4.2C289.1,303,289.4,304.8,289.4,306.7z
	 M283.9,306.7c0-1.1-0.2-2.2-0.5-3.2s-0.8-1.9-1.5-2.6s-1.4-1.3-2.4-1.7c-0.9-0.4-2-0.6-3.1-0.6c-1.2,0-2.2,0.2-3.1,0.6
	s-1.7,1-2.3,1.7c-0.6,0.7-1.1,1.6-1.5,2.6c-0.3,1-0.5,2.1-0.5,3.2c0,1.2,0.2,2.2,0.5,3.2s0.8,1.8,1.5,2.5c0.6,0.7,1.4,1.3,2.3,1.7
	c0.9,0.4,2,0.6,3.1,0.6s2.2-0.2,3.1-0.6s1.7-1,2.4-1.7c0.7-0.7,1.2-1.6,1.5-2.5C283.7,308.9,283.9,307.9,283.9,306.7z"/>
<path class="st1" d="M314.6,319.1h-16.7v-5h5.4v-24.8h-5.4v-5h10.9v29.8h5.7v5H314.6z"/>
<g>
	<path class="st2" d="M478.9,457.2l16.2,20.1l-2.8,3.1l-9.7-5.7l6.7,9l-2.8,3.1L465,472.5l2.8-3.1l14.3,9.8l-6.1-8l2.6-2.9l8.5,5.3
		L476,460.3L478.9,457.2z"/>
	<path class="st2" d="M496.5,463.9c1.1,0.6,2.3,0.8,3.6,0.5c1.3-0.3,2.4-1.1,3.4-2.4c0.8-1,1.3-2.1,1.6-3.1c0.3-1,0.3-2,0.2-3
		l3.5,0.1c0.2,1.6,0.1,3.1-0.4,4.4s-1.2,2.6-2.1,3.8c-0.9,1.1-1.8,2-2.9,2.7s-2.3,1.1-3.5,1.3c-1.2,0.2-2.4,0.1-3.6-0.2
		c-1.2-0.3-2.4-0.9-3.5-1.8c-1.1-0.8-2-1.8-2.6-2.9s-1.1-2.2-1.2-3.4c-0.2-1.2-0.1-2.4,0.2-3.6s0.9-2.4,1.8-3.5
		c0.9-1.2,1.9-2.1,3-2.7s2.3-1,3.6-1.1c1.3-0.1,2.6,0.1,4,0.5c1.4,0.5,2.8,1.2,4.1,2.3L496.5,463.9z M500.2,453.3
		c-1.1-0.5-2.2-0.6-3.3-0.3c-1.2,0.4-2.1,1.1-2.9,2.1s-1.2,2.1-1.2,3.4c-0.1,1.2,0.3,2.3,1.1,3.2L500.2,453.3z"/>
	<path class="st2" d="M503.1,422.8l19.6,16.8l-2.2,3.5l-10.5-3.9l8.2,7.7l-2.2,3.5l-23.8-10l2.2-3.6l15.8,7l-7.4-6.8l2-3.3l9.4,3.7
		l-13.3-11.1L503.1,422.8z"/>
	<path class="st2" d="M526.6,411.7c1.3,0.6,2.4,1.3,3.2,2.2c0.9,0.9,1.5,1.9,1.9,3s0.6,2.3,0.5,3.6c-0.1,1.3-0.4,2.5-1,3.9
		c-0.6,1.3-1.4,2.4-2.3,3.2s-1.9,1.5-3.1,1.9c-1.1,0.4-2.3,0.6-3.5,0.5s-2.5-0.4-3.8-1s-2.3-1.3-3.2-2.2c-0.9-0.9-1.5-1.9-1.9-3
		s-0.6-2.3-0.5-3.6c0.1-1.3,0.4-2.5,1-3.8s1.4-2.4,2.3-3.3c0.9-0.9,1.9-1.5,3.1-1.9c1.1-0.4,2.3-0.6,3.6-0.5
		C524.1,410.7,525.4,411.1,526.6,411.7z M524.9,415.3c-0.7-0.3-1.5-0.6-2.3-0.6c-0.8-0.1-1.5,0-2.2,0.2s-1.3,0.6-1.9,1.1
		c-0.6,0.5-1,1.1-1.4,1.9s-0.5,1.5-0.6,2.3c0,0.7,0.1,1.4,0.4,2.1s0.7,1.2,1.3,1.8c0.6,0.5,1.2,1,2,1.3c0.8,0.4,1.5,0.6,2.3,0.6
		s1.5,0,2.1-0.2s1.3-0.5,1.8-1s1-1.1,1.4-1.9s0.5-1.5,0.6-2.3c0-0.7-0.1-1.4-0.4-2.1c-0.3-0.7-0.7-1.3-1.2-1.8
		S525.7,415.7,524.9,415.3z"/>
	<path class="st2" d="M528.9,389.3c-0.4,0.4-0.7,0.8-0.9,1.3c-0.3,0.4-0.5,1-0.7,1.6c-0.3,0.9-0.4,1.7-0.3,2.5
		c0,0.8,0.2,1.6,0.6,2.3c0.3,0.7,0.9,1.3,1.5,1.9c0.7,0.5,1.5,1,2.6,1.3l4.3,1.3l1.2-3.9l3.5,1l-3.5,11.7l-3.5-1l1.2-3.9l-10.5-3.1
		l-1.2,3.9l-3.5-1l2.3-7.8l4.4,1.3c-1.6-1.2-2.5-2.5-2.9-3.9c-0.4-1.5-0.3-3,0.2-4.8c0.2-0.5,0.4-1.1,0.7-1.6
		c0.3-0.6,0.7-1.1,1.1-1.5L528.9,389.3z"/>
	<path class="st2" d="M546.2,368.5l-0.6,5.2l-8,5.2l1.6,2l5.4,0.7l-0.5,4l-25.3-3l0.5-4l14.9,1.8l-6.8-8.2l0.7-5.5l7.3,9.3
		L546.2,368.5z"/>
</g>
<g>
	<path class="st1" d="M173.1,347.2l-5.4,35.1h-5.7l-3.1-15.1l-3,15.1h-5.7l-5.4-35.1h5.8l3.2,23.6l2.6-13.6h5.3l2.5,13.6l3.3-23.6
		H173.1z"/>
	<path class="st1" d="M181.5,371.9c0.3,1.7,1.1,3.2,2.5,4.3s3.2,1.7,5.5,1.7c1.8,0,3.4-0.3,4.7-0.8c1.3-0.6,2.5-1.3,3.5-2.2l2.9,3.9
		c-1.6,1.6-3.3,2.7-5.1,3.3c-1.8,0.6-3.8,0.9-5.9,0.9c-1.9,0-3.7-0.3-5.4-1s-3.1-1.5-4.3-2.7c-1.2-1.2-2.2-2.5-2.9-4.1s-1-3.4-1-5.3
		c0-1.9,0.3-3.7,1-5.3s1.5-3,2.7-4.2c1.2-1.2,2.5-2.1,4.2-2.7c1.6-0.7,3.4-1,5.4-1c2,0,3.9,0.3,5.5,1c1.6,0.7,3.1,1.7,4.2,3
		c1.2,1.3,2.1,2.9,2.8,4.8c0.7,1.9,1,4,1,6.4H181.5z M196.2,367c-0.3-1.6-1.1-2.9-2.5-3.9c-1.4-1-2.9-1.5-4.7-1.5
		c-1.8,0-3.3,0.5-4.7,1.5c-1.4,1-2.2,2.3-2.5,3.9H196.2z"/>
	<path class="st1" d="M207.8,347.2h5.6v12.3c1.1-1,2.1-1.7,3.2-2.1c1.1-0.5,2.3-0.7,3.7-0.7c1.6,0,3.1,0.3,4.5,1
		c1.4,0.7,2.6,1.6,3.5,2.7s1.8,2.5,2.3,4.2c0.6,1.6,0.9,3.4,0.9,5.3c0,1.9-0.3,3.7-0.9,5.3c-0.6,1.6-1.4,3-2.3,4.2s-2.2,2.1-3.5,2.7
		c-1.4,0.6-2.9,1-4.5,1c-1.4,0-2.6-0.2-3.7-0.7c-1.1-0.5-2.2-1.2-3.2-2.2v2.3h-5.6V347.2z M213.3,375.6c0.7,0.7,1.5,1.3,2.5,1.7
		c1,0.4,2,0.6,3,0.6c2.1,0,3.8-0.7,5.1-2.2c1.3-1.5,2-3.4,2-5.9s-0.7-4.4-2-5.9s-3-2.3-5.1-2.3c-1,0-1.9,0.2-3,0.6
		c-1,0.4-1.9,0.9-2.5,1.7V375.6z"/>
	<path class="st1" d="M292.8,364.7c0,2.3-0.2,4.6-0.7,6.7c-0.5,2.1-1.3,4-2.4,5.6c-1.1,1.6-2.5,2.9-4.2,3.8c-1.7,1-3.8,1.4-6.2,1.4
		h-11.4v-35.1h11.4c2.4,0,4.4,0.5,6.1,1.4c1.7,1,3.1,2.2,4.2,3.8c1.1,1.6,1.9,3.5,2.4,5.6C292.6,360.1,292.8,362.4,292.8,364.7z
		 M287.2,364.7c0-4.1-0.7-7.2-2.1-9.3c-1.4-2.1-3.3-3.2-5.9-3.2h-5.8v25.1h5.8c2.5,0,4.5-1.1,5.9-3.3
		C286.6,371.8,287.2,368.7,287.2,364.7z"/>
	<path class="st1" d="M301.8,371.9c0.3,1.7,1.1,3.2,2.5,4.3c1.4,1.1,3.2,1.7,5.5,1.7c1.8,0,3.4-0.3,4.7-0.8c1.3-0.6,2.5-1.3,3.5-2.2
		l2.9,3.9c-1.6,1.6-3.3,2.7-5.1,3.3c-1.8,0.6-3.8,0.9-5.9,0.9c-1.9,0-3.7-0.3-5.4-1c-1.7-0.6-3.1-1.5-4.3-2.7
		c-1.2-1.2-2.2-2.5-2.9-4.1c-0.7-1.6-1-3.4-1-5.3c0-1.9,0.3-3.7,1-5.3c0.6-1.6,1.5-3,2.7-4.2c1.2-1.2,2.5-2.1,4.2-2.7
		c1.6-0.7,3.4-1,5.4-1c2,0,3.9,0.3,5.5,1c1.6,0.7,3.1,1.7,4.2,3c1.2,1.3,2.1,2.9,2.8,4.8s1,4,1,6.4H301.8z M316.5,367
		c-0.3-1.6-1.1-2.9-2.5-3.9c-1.4-1-3-1.5-4.7-1.5s-3.3,0.5-4.7,1.5c-1.4,1-2.2,2.3-2.5,3.9H316.5z"/>
	<path class="st1" d="M351.1,374.8c0,1.6-0.4,3-1.1,4c-0.7,1-1.7,1.8-2.8,2.5c-1.2,0.6-2.4,1.1-3.9,1.3c-1.4,0.2-2.8,0.4-4.2,0.4
		c-2.3,0-4.5-0.3-6.8-1c-2.3-0.7-4.2-1.5-5.9-2.6l2.3-4.6c2,1.1,3.8,2,5.4,2.4c1.6,0.5,3.3,0.7,4.9,0.7c2.2,0,3.9-0.2,4.9-0.7
		c1-0.5,1.5-1.1,1.5-2c0-0.4-0.1-0.8-0.4-1s-0.8-0.5-1.4-0.7c-0.7-0.2-1.5-0.4-2.6-0.7s-2.4-0.5-4-0.7c-1.3-0.2-2.5-0.5-3.7-0.8
		c-1.2-0.3-2.2-0.8-3.1-1.3c-0.9-0.6-1.6-1.3-2.1-2.2c-0.5-0.9-0.8-2-0.8-3.3c0-1.3,0.3-2.5,1-3.5c0.7-1,1.6-1.8,2.7-2.5
		c1.1-0.6,2.4-1.1,3.8-1.4c1.4-0.3,2.8-0.4,4.2-0.4c2,0,3.9,0.3,5.7,0.8s3.5,1.2,4.9,2.2l-2.2,4.3c-1.4-0.9-2.8-1.5-4.1-1.8
		c-1.3-0.3-2.8-0.5-4.3-0.5c-0.7,0-1.4,0-2.1,0.1c-0.7,0.1-1.4,0.2-2,0.4c-0.6,0.2-1.1,0.5-1.5,0.8s-0.6,0.8-0.6,1.3
		c0,0.7,0.6,1.2,1.8,1.6c1.2,0.4,3.2,0.8,6,1.2c1.5,0.2,2.9,0.5,4.2,0.8c1.3,0.3,2.4,0.8,3.3,1.3s1.6,1.3,2.1,2.2
		C350.9,372.4,351.1,373.5,351.1,374.8z"/>
	<path class="st1" d="M377.8,382.3H361v-5h5.5v-15.1H361v-5h11.1v20.1h5.7V382.3z M372.7,353.9h-6.8v-6.8h6.8V353.9z"/>
	<path class="st1" d="M410.6,382c0,1.7-0.3,3.3-0.9,4.6s-1.4,2.5-2.5,3.4c-1.1,0.9-2.3,1.6-3.8,2.1c-1.4,0.5-3.1,0.7-4.8,0.7
		c-4.4,0-8.1-1.3-11.2-4l2.6-4.3c2.6,2.2,5.4,3.3,8.5,3.3c1.9,0,3.5-0.5,4.6-1.4c1.2-0.9,1.8-2.4,1.8-4.4v-2.7
		c-1.1,1-2.2,1.7-3.3,2.2c-1.1,0.5-2.3,0.7-3.7,0.7c-1.6,0-3.1-0.3-4.5-1s-2.6-1.6-3.6-2.8c-1-1.2-1.8-2.5-2.3-4.1
		c-0.6-1.6-0.8-3.2-0.8-5c0-1.8,0.3-3.4,0.8-5c0.6-1.6,1.3-2.9,2.3-4.1s2.2-2.1,3.6-2.7c1.4-0.7,2.9-1,4.5-1c1.4,0,2.6,0.2,3.7,0.7
		c1.1,0.5,2.2,1.2,3.3,2.1v-2.3h5.6V382z M405,363.9c-0.7-0.7-1.5-1.3-2.6-1.7s-2.1-0.6-3.1-0.6c-2.1,0-3.8,0.7-5.1,2.2
		s-1.9,3.3-1.9,5.6c0,1.1,0.2,2.2,0.5,3.1s0.8,1.8,1.5,2.5c0.6,0.7,1.4,1.3,2.2,1.7c0.9,0.4,1.8,0.6,2.8,0.6c1,0,2-0.2,3.1-0.6
		s1.9-1,2.6-1.7V363.9z"/>
	<path class="st1" d="M440.7,382.3h-5.6v-15.5c0-2-0.4-3.3-1.1-4.1c-0.7-0.8-1.8-1.1-3.2-1.1c-2.1,0-3.7,0.8-5,2.5
		c-1.3,1.7-2,4-2,6.9v11.2h-5.6v-25.1h5.6v6.3c0.6-2.2,1.6-3.9,3.1-5.1s3.4-1.8,5.6-1.8c2.6,0,4.6,0.8,6,2.5
		c1.5,1.7,2.2,4.2,2.2,7.7V382.3z"/>
</g>
</svg>
