<?xml version="1.0" encoding="utf-8"?>
<!-- Generator: Adobe Illustrator 23.1.1, SVG Export Plug-In . SVG Version: 6.00 Build 0)  -->
<svg version="1.1" id="Layer_1" xmlns="http://www.w3.org/2000/svg" xmlns:xlink="http://www.w3.org/1999/xlink" x="0px" y="0px"
	 viewBox="0 0 483.1 463.6" style="enable-background:new 0 0 483.1 463.6;" xml:space="preserve">
<style type="text/css">
	.st0{fill:#273F83;}
	.st1{fill:#62A7DB;}
	.st2{fill:#FFFFFF;}
</style>
<title>ChangeThingsVideo_v2</title>
<path class="st0" d="M352.3,60.6L181.1,9.9c-31-9.2-64.9-17.8-92.9,2.9c-18.9,14-32,39.3-42.7,65.3C16.2,149.1,0.4,231,0,313.1
	c-0.1,19.8,1.1,41,9.8,56.5c7.5,13.4,19.3,20.2,30.6,26.1c128.9,66.5,269.5,71.7,406.8,66.2c7.2-0.3,14.8-0.8,20.8-6.2
	c9.1-8.1,12.1-24.6,13.5-39.6c11.1-119.1-32.3-244.8-105.9-306.1c-26.7-22.2-59.5-40.8-69.7-81.9"/>
<path class="st1" d="M435.6,332.9l21.4,3.3v3.5l-9.2,1.9l9.2,1.9v3.5l-21.4,3.3v-3.5l14.4-2l-8.3-1.5V340l8.3-1.5l-14.4-2
	L435.6,332.9z"/>
<path class="st1" d="M450.3,327c1-0.3,1.9-0.9,2.5-1.8c0.6-1,0.9-2.3,0.7-3.5c-0.1-1-0.4-1.9-0.8-2.8c-0.4-0.7-0.9-1.4-1.6-2l2.2-2
	c1,0.8,1.8,1.8,2.3,2.9c0.5,1.1,0.8,2.3,0.9,3.5c0.1,1.1,0,2.3-0.2,3.3c-0.3,1-0.7,2-1.4,2.8c-0.6,0.8-1.4,1.5-2.3,2
	c-1,0.5-2,0.9-3.2,1c-1.1,0.1-2.2,0-3.3-0.2c-2-0.5-3.7-1.9-4.6-3.7c-0.5-1-0.8-2.1-0.9-3.2c-0.1-1.1,0-2.3,0.3-3.4
	c0.3-1,0.8-2,1.5-2.8c0.8-0.8,1.7-1.5,2.7-2c1.2-0.6,2.5-0.9,3.8-1L450.3,327z M446.4,318.4c-0.9,0.3-1.7,0.9-2.2,1.8
	c-1,1.9-0.8,4.1,0.6,5.7c0.6,0.8,1.5,1.2,2.5,1.3L446.4,318.4z"/>
<path class="st1" d="M430.4,298.1l21.7-1.2l0.7,3.4l-8.6,3.8l9.4-0.1l0.7,3.4l-20.3,7.7l-0.7-3.5l13.7-5l-8.5,0.2l-0.7-3.2l7.8-3.2
	l-14.5,1L430.4,298.1z"/>
<path class="st1" d="M438.3,277.6c1-0.4,2.2-0.5,3.3-0.5c1,0,2,0.3,2.9,0.8c0.9,0.5,1.7,1.1,2.4,1.9c0.7,0.9,1.3,1.9,1.6,2.9
	c0.4,1.1,0.5,2.2,0.5,3.3c-0.1,2.1-1,4-2.6,5.3c-0.9,0.7-1.9,1.2-2.9,1.6c-1,0.4-2.1,0.5-3.2,0.5c-1,0-2.1-0.3-3-0.7
	c-0.9-0.5-1.7-1.1-2.4-1.9c-1.4-1.8-2.1-4-2.1-6.2c0.1-2.1,1.1-4,2.7-5.3C436.3,278.5,437.3,278,438.3,277.6z M439.4,280.9
	c-0.6,0.2-1.2,0.5-1.8,0.9c-0.5,0.4-0.9,0.8-1.2,1.4c-0.3,0.5-0.5,1.1-0.5,1.7c-0.1,0.7,0,1.4,0.2,2c0.2,0.6,0.5,1.2,1,1.7
	c0.4,0.4,0.9,0.8,1.4,1c0.6,0.2,1.2,0.4,1.8,0.4c0.7,0,1.4-0.1,2-0.3c0.6-0.2,1.2-0.5,1.8-0.9c0.5-0.4,0.9-0.8,1.2-1.4
	c0.3-0.5,0.5-1.1,0.5-1.7c0.1-0.7,0-1.4-0.3-2c-0.2-0.6-0.5-1.2-1-1.7c-0.4-0.5-0.9-0.8-1.5-1.1c-0.6-0.2-1.2-0.4-1.8-0.4
	C440.7,280.5,440.1,280.7,439.4,280.9L439.4,280.9z"/>
<path class="st1" d="M427.2,262.6c0,0.4,0,0.9,0.1,1.3c0.1,0.5,0.3,0.9,0.5,1.4c0.3,0.7,0.7,1.3,1.2,1.8c0.5,0.5,1,0.9,1.6,1.1
	c0.6,0.3,1.3,0.4,2,0.3c0.8-0.1,1.6-0.3,2.3-0.6l3.5-1.6l-1.5-3.1l2.8-1.3l4.4,9.3l-2.8,1.3l-1.5-3.1l-8.3,3.9l1.5,3.1l-2.8,1.3
	l-2.9-6.2l3.5-1.6c-1.4,0.2-2.8-0.1-4-0.9c-1.5-1.1-2.5-2.7-3-4.5c-0.1-0.5-0.2-1.1-0.2-1.6L427.2,262.6z"/>
<path class="st1" d="M427.3,240l2.3,3.7l-2.5,7.6l2.2,0.5l3.9-2.5l1.8,2.9l-18.1,11.4l-1.8-2.9l10.7-6.7l-8.8-1.7l-2.5-3.9l9.7,2.2
	L427.3,240z"/>
<g>
	<path class="st2" d="M84.3,184.5H69.9v8.3h11.2v4.3H69.9v13.1h-4.8v-30h19.1V184.5z"/>
	<path class="st2" d="M107.7,210.2H93.3v-4.3H98v-21.4h-4.7v-4.3h9.4v25.7h4.9V210.2z"/>
	<path class="st2" d="M115.2,204c0-1.3,0.3-2.4,1-3.3c0.7-0.9,1.6-1.7,2.7-2.4c1.1-0.6,2.3-1.1,3.8-1.4c1.4-0.3,2.9-0.5,4.3-0.5
		c0.8,0,1.5,0,2.1,0s1.2,0.1,1.8,0.1v-0.8c0-1.1-0.4-2-1.3-2.5c-0.9-0.6-2-0.8-3.4-0.8c-1.3,0-2.6,0.2-3.9,0.5
		c-1.3,0.4-2.6,0.9-3.8,1.6l-1.9-3.7c1.4-0.8,2.9-1.4,4.5-1.9c1.6-0.5,3.3-0.7,5.1-0.7c1.2,0,2.3,0.1,3.4,0.4s2.1,0.7,3,1.3
		c0.9,0.6,1.6,1.4,2.1,2.3c0.5,1,0.8,2.1,0.8,3.5v14.3h-4.7V207c-0.8,1.2-1.9,2.1-3.3,2.7c-1.5,0.6-3,1-4.7,1c-1,0-2-0.1-3-0.4
		c-0.9-0.3-1.7-0.7-2.4-1.3c-0.7-0.6-1.2-1.3-1.6-2.1C115.4,206.1,115.2,205.1,115.2,204z M124,206.5c0.9,0,1.8-0.1,2.6-0.4
		c0.8-0.2,1.5-0.6,2.2-1s1.1-0.9,1.5-1.5c0.4-0.6,0.5-1.2,0.5-2v-0.8c-0.8-0.1-1.5-0.2-2.1-0.2c-0.7,0-1.2,0-1.7,0
		c-2.3,0-4.1,0.3-5.3,0.9s-1.8,1.4-1.8,2.3C119.9,205.6,121.3,206.5,124,206.5z"/>
	<path class="st2" d="M162.6,203.4c-0.2,2.2-1.1,4-2.7,5.3c-1.5,1.3-3.4,2-5.7,2c-1.3,0-2.4-0.2-3.4-0.6c-1-0.4-1.9-1-2.7-1.7
		c-0.7-0.7-1.3-1.6-1.7-2.7c-0.4-1-0.6-2.2-0.6-3.4v-9.3H141v-4.3h4.8v-8.6h4.8v8.6h9v4.3h-9v9.3c0,1.4,0.3,2.4,1,3.1
		c0.7,0.7,1.6,1,2.7,1c1.3,0,2.3-0.4,3-1.2c0.7-0.8,1-1.7,1.2-2.8L162.6,203.4z"/>
	<path class="st2" d="M184.6,210.2h-14.4v-4.3h4.7v-12.9h-4.7v-4.3h9.5v17.1h4.9V210.2z M180.3,186h-5.8v-5.8h5.8V186z"/>
	<path class="st2" d="M213.2,193.9c-0.6-0.3-1.1-0.5-1.7-0.6c-0.6-0.1-1.3-0.2-2-0.2c-1.1,0-2,0.2-3,0.5c-0.9,0.3-1.7,0.8-2.4,1.4
		c-0.7,0.6-1.2,1.4-1.6,2.4c-0.4,0.9-0.6,2.1-0.6,3.3v5.3h4.8v4.3h-14.4v-4.3h4.8v-12.8h-4.8v-4.3h9.6v5.4c0.8-2.1,1.9-3.7,3.5-4.5
		c1.5-0.9,3.3-1.3,5.4-1.3c0.7,0,1.3,0.1,2.1,0.2c0.7,0.1,1.4,0.4,2.1,0.7L213.2,193.9z"/>
	<path class="st2" d="M239.9,199.5c0,1.7-0.3,3.2-0.8,4.5c-0.5,1.4-1.3,2.5-2.3,3.5c-1,1-2.2,1.8-3.5,2.3c-1.4,0.6-2.9,0.8-4.6,0.8
		c-1.7,0-3.2-0.3-4.6-0.8c-1.4-0.6-2.6-1.3-3.5-2.3c-1-1-1.7-2.2-2.3-3.5c-0.5-1.4-0.8-2.9-0.8-4.5c0-1.6,0.3-3.1,0.8-4.5
		c0.5-1.4,1.3-2.6,2.3-3.6c1-1,2.2-1.8,3.5-2.3s2.9-0.8,4.6-0.8c1.7,0,3.2,0.3,4.6,0.8s2.6,1.3,3.5,2.3c1,1,1.7,2.2,2.3,3.6
		C239.7,196.4,239.9,197.9,239.9,199.5z M235.2,199.5c0-1-0.1-1.9-0.4-2.7c-0.3-0.9-0.7-1.6-1.3-2.2c-0.6-0.6-1.2-1.1-2-1.5
		c-0.8-0.4-1.7-0.5-2.7-0.5c-1,0-1.9,0.2-2.7,0.5c-0.8,0.4-1.5,0.8-2,1.5c-0.5,0.6-1,1.4-1.3,2.2c-0.3,0.9-0.4,1.8-0.4,2.7
		c0,1,0.1,1.9,0.4,2.8c0.3,0.8,0.7,1.6,1.3,2.2c0.5,0.6,1.2,1.1,2,1.5c0.8,0.3,1.7,0.5,2.7,0.5c1,0,1.9-0.2,2.7-0.5s1.5-0.8,2-1.5
		c0.6-0.6,1-1.4,1.3-2.2C235,201.5,235.2,200.5,235.2,199.5z"/>
	<path class="st2" d="M263.9,210.2h-4.8V197c0-1.7-0.3-2.8-0.9-3.5c-0.6-0.6-1.5-1-2.7-1c-1.8,0-3.2,0.7-4.3,2.1
		c-1.1,1.4-1.7,3.4-1.7,5.9v9.6h-4.8v-21.4h4.8v5.4c0.5-1.9,1.4-3.3,2.6-4.3c1.3-1,2.9-1.5,4.8-1.5c2.2,0,3.9,0.7,5.1,2.1
		c1.2,1.4,1.9,3.6,1.9,6.6V210.2z"/>
	<path class="st2" d="M84.6,258.4c0,1.4-0.2,2.6-0.7,3.7c-0.5,1.1-1.1,2-1.9,2.7c-0.8,0.8-1.8,1.3-2.9,1.7c-1.1,0.4-2.3,0.6-3.5,0.6
		c-1.4,0-2.7-0.3-3.8-0.8c-1.1-0.5-2.1-1.3-2.9-2.5v2.8h-4.3v-9.8h4.3c0,1,0.2,1.8,0.5,2.6c0.3,0.8,0.8,1.4,1.4,1.9
		c0.6,0.5,1.2,0.9,2,1.2c0.7,0.3,1.5,0.4,2.4,0.4c1.4,0,2.6-0.3,3.4-1c0.9-0.7,1.3-1.7,1.3-3.1c0-0.7-0.1-1.4-0.4-1.9
		c-0.3-0.5-0.7-1-1.1-1.4c-0.5-0.4-1.1-0.8-1.8-1.1s-1.5-0.6-2.5-1c-1.1-0.4-2.2-0.8-3.3-1.2c-1.1-0.5-2.1-1-2.9-1.7
		c-0.9-0.7-1.6-1.5-2.1-2.5s-0.8-2.2-0.8-3.7c0-1.3,0.2-2.5,0.7-3.5c0.5-1,1.1-1.8,1.9-2.5c0.8-0.7,1.7-1.2,2.8-1.5
		c1.1-0.3,2.2-0.5,3.4-0.5c1.4,0,2.6,0.3,3.5,0.9c1,0.6,1.7,1.4,2.3,2.3v-2.7h4.3v9.3h-4.3c0-1.8-0.5-3.1-1.4-4.1
		c-0.9-1-2.2-1.5-3.7-1.5c-1.4,0-2.5,0.3-3.4,1c-0.9,0.6-1.4,1.5-1.4,2.7c0,0.6,0.1,1.1,0.4,1.5c0.2,0.4,0.6,0.8,1,1.1
		c0.5,0.3,1,0.7,1.7,1c0.7,0.3,1.5,0.6,2.4,1c1.1,0.4,2.3,0.8,3.4,1.4s2.1,1.1,3,1.9c0.9,0.7,1.6,1.6,2.2,2.7
		C84.4,255.6,84.6,256.9,84.6,258.4z"/>
	<path class="st2" d="M110.3,263.6c-1.4,1.4-2.8,2.3-4.4,2.8c-1.5,0.5-3.2,0.8-4.9,0.8c-1.8,0-3.4-0.3-4.9-0.8
		c-1.5-0.5-2.7-1.3-3.7-2.3c-1-1-1.8-2.1-2.3-3.5c-0.5-1.4-0.8-2.9-0.8-4.6c0-1.6,0.3-3.1,0.8-4.5c0.5-1.4,1.3-2.6,2.2-3.6
		s2-1.8,3.3-2.3s2.6-0.8,4-0.8c1.5,0,2.7,0.3,3.8,0.9s1.9,1.5,2.4,2.7v-3.1h4.3v10h-4.3c0-1.9-0.5-3.4-1.5-4.5c-1-1.1-2.4-1.7-4-1.7
		c-0.7,0-1.3,0.1-2.1,0.4c-0.7,0.3-1.4,0.7-2,1.3s-1.1,1.3-1.5,2.2c-0.4,0.9-0.6,1.9-0.6,3.2c0,1.2,0.2,2.2,0.6,3.1
		c0.4,0.9,0.9,1.6,1.5,2.1s1.4,1,2.2,1.3c0.8,0.3,1.7,0.4,2.6,0.4c1.5,0,2.9-0.2,4-0.7c1.1-0.5,2.1-1.1,2.9-1.9L110.3,263.6z"/>
	<path class="st2" d="M135.6,266.6h-4.8v-13.2c0-1.7-0.3-2.8-0.9-3.5c-0.6-0.6-1.5-1-2.7-1c-1.8,0-3.2,0.7-4.3,2.1
		c-1.1,1.4-1.7,3.4-1.7,5.9v9.6h-4.8v-30h4.8v13.9c0.5-1.9,1.4-3.3,2.6-4.3c1.3-1,2.9-1.5,4.8-1.5c2.2,0,3.9,0.7,5.1,2.1
		s1.9,3.6,1.9,6.6V266.6z"/>
	<path class="st2" d="M162.9,255.9c0,1.7-0.3,3.2-0.8,4.5c-0.5,1.4-1.3,2.5-2.3,3.5s-2.2,1.8-3.5,2.3c-1.4,0.6-2.9,0.8-4.6,0.8
		c-1.7,0-3.2-0.3-4.6-0.8c-1.4-0.6-2.6-1.3-3.5-2.3c-1-1-1.7-2.2-2.3-3.5c-0.5-1.4-0.8-2.9-0.8-4.5c0-1.6,0.3-3.1,0.8-4.5
		c0.5-1.4,1.3-2.6,2.3-3.6c1-1,2.2-1.8,3.5-2.3c1.4-0.5,2.9-0.8,4.6-0.8c1.7,0,3.2,0.3,4.6,0.8c1.4,0.5,2.6,1.3,3.5,2.3
		c1,1,1.7,2.2,2.3,3.6C162.7,252.8,162.9,254.3,162.9,255.9z M158.2,256c0-1-0.1-1.9-0.4-2.7s-0.7-1.6-1.3-2.2
		c-0.6-0.6-1.2-1.1-2-1.5s-1.7-0.5-2.7-0.5c-1,0-1.9,0.2-2.7,0.5c-0.8,0.4-1.5,0.8-2,1.5c-0.5,0.6-1,1.4-1.3,2.2s-0.4,1.8-0.4,2.7
		c0,1,0.1,1.9,0.4,2.8s0.7,1.6,1.3,2.2c0.5,0.6,1.2,1.1,2,1.5c0.8,0.3,1.7,0.5,2.7,0.5c1,0,1.9-0.2,2.7-0.5c0.8-0.3,1.5-0.8,2-1.5
		c0.6-0.6,1-1.4,1.3-2.2S158.2,257,158.2,256z"/>
	<path class="st2" d="M188.6,255.9c0,1.7-0.3,3.2-0.8,4.5c-0.5,1.4-1.3,2.5-2.3,3.5s-2.2,1.8-3.5,2.3c-1.4,0.6-2.9,0.8-4.6,0.8
		c-1.7,0-3.2-0.3-4.6-0.8c-1.4-0.6-2.6-1.3-3.5-2.3c-1-1-1.7-2.2-2.3-3.5c-0.5-1.4-0.8-2.9-0.8-4.5c0-1.6,0.3-3.1,0.8-4.5
		c0.5-1.4,1.3-2.6,2.3-3.6c1-1,2.2-1.8,3.5-2.3c1.4-0.5,2.9-0.8,4.6-0.8c1.7,0,3.2,0.3,4.6,0.8c1.4,0.5,2.6,1.3,3.5,2.3
		c1,1,1.7,2.2,2.3,3.6C188.3,252.8,188.6,254.3,188.6,255.9z M183.9,256c0-1-0.1-1.9-0.4-2.7s-0.7-1.6-1.3-2.2
		c-0.6-0.6-1.2-1.1-2-1.5s-1.7-0.5-2.7-0.5c-1,0-1.9,0.2-2.7,0.5c-0.8,0.4-1.5,0.8-2,1.5c-0.5,0.6-1,1.4-1.3,2.2S171,255,171,256
		c0,1,0.1,1.9,0.4,2.8s0.7,1.6,1.3,2.2c0.5,0.6,1.2,1.1,2,1.5c0.8,0.3,1.7,0.5,2.7,0.5c1,0,1.9-0.2,2.7-0.5c0.8-0.3,1.5-0.8,2-1.5
		c0.6-0.6,1-1.4,1.3-2.2S183.9,257,183.9,256z"/>
	<path class="st2" d="M210.3,266.6H196v-4.3h4.7v-21.4H196v-4.3h9.4v25.7h4.9V266.6z"/>
	<path class="st2" d="M86.8,293.1l-4.6,30h-4.9l-2.6-12.9L72.1,323h-4.9l-4.6-30h4.9l2.8,20.2l2.2-11.6H77l2.1,11.6l2.8-20.2H86.8z"
		/>
	<path class="st2" d="M94,314.2c0.2,1.5,0.9,2.7,2.1,3.7c1.2,1,2.7,1.5,4.7,1.5c1.5,0,2.9-0.2,4-0.7c1.1-0.5,2.1-1.1,3-1.9l2.4,3.3
		c-1.4,1.4-2.8,2.3-4.4,2.8s-3.2,0.8-5,0.8c-1.7,0-3.2-0.3-4.6-0.8c-1.4-0.6-2.7-1.3-3.7-2.3c-1-1-1.9-2.2-2.4-3.5s-0.9-2.9-0.9-4.5
		c0-1.6,0.3-3.1,0.8-4.5c0.5-1.4,1.3-2.6,2.3-3.6c1-1,2.2-1.8,3.5-2.3s2.9-0.8,4.6-0.8c1.7,0,3.3,0.3,4.7,0.9
		c1.4,0.6,2.6,1.4,3.6,2.6s1.8,2.5,2.4,4.1c0.6,1.6,0.8,3.4,0.8,5.5H94z M106.6,310c-0.2-1.4-1-2.5-2.1-3.3c-1.2-0.8-2.5-1.3-4-1.3
		s-2.8,0.4-4,1.3s-1.9,1.9-2.2,3.3H106.6z"/>
	<path class="st2" d="M116.5,293.1h4.8v10.5c0.9-0.8,1.8-1.4,2.7-1.8c0.9-0.4,2-0.6,3.2-0.6c1.4,0,2.7,0.3,3.8,0.8
		c1.2,0.6,2.2,1.3,3,2.3s1.5,2.2,2,3.6c0.5,1.4,0.7,2.9,0.7,4.5c0,1.6-0.2,3.1-0.7,4.5c-0.5,1.4-1.2,2.6-2,3.5s-1.9,1.8-3,2.3
		c-1.2,0.6-2.5,0.8-3.8,0.8c-1.2,0-2.3-0.2-3.2-0.6c-0.9-0.4-1.8-1-2.7-1.8v2h-4.8V293.1z M121.2,317.4c0.6,0.6,1.3,1.1,2.2,1.4
		c0.9,0.3,1.7,0.5,2.5,0.5c1.8,0,3.2-0.6,4.4-1.9s1.7-2.9,1.7-5c0-2.1-0.6-3.7-1.7-5c-1.1-1.3-2.6-1.9-4.4-1.9
		c-0.8,0-1.7,0.2-2.5,0.5c-0.9,0.3-1.6,0.8-2.2,1.4V317.4z"/>
	<path class="st2" d="M189,308c0,2-0.2,3.9-0.6,5.7c-0.4,1.8-1.1,3.4-2,4.8c-0.9,1.4-2.1,2.5-3.6,3.3c-1.5,0.8-3.2,1.2-5.3,1.2h-9.7
		v-30h9.7c2,0,3.8,0.4,5.2,1.2c1.5,0.8,2.7,1.9,3.6,3.3c0.9,1.4,1.6,2.9,2,4.8C188.8,304.1,189,306,189,308z M184.3,308
		c0-3.5-0.6-6.1-1.8-7.9c-1.2-1.8-2.8-2.7-5-2.7h-5v21.4h5c2.2,0,3.8-0.9,5-2.8C183.7,314.1,184.3,311.5,184.3,308z"/>
	<path class="st2" d="M196.7,314.2c0.2,1.5,0.9,2.7,2.1,3.7c1.2,1,2.7,1.5,4.7,1.5c1.5,0,2.9-0.2,4-0.7c1.1-0.5,2.1-1.1,3-1.9
		l2.4,3.3c-1.4,1.4-2.8,2.3-4.4,2.8s-3.2,0.8-5,0.8c-1.7,0-3.2-0.3-4.6-0.8c-1.4-0.6-2.7-1.3-3.7-2.3c-1-1-1.9-2.2-2.4-3.5
		s-0.9-2.9-0.9-4.5c0-1.6,0.3-3.1,0.8-4.5c0.5-1.4,1.3-2.6,2.3-3.6c1-1,2.2-1.8,3.5-2.3s2.9-0.8,4.6-0.8c1.7,0,3.3,0.3,4.7,0.9
		c1.4,0.6,2.6,1.4,3.6,2.6s1.8,2.5,2.4,4.1c0.6,1.6,0.8,3.4,0.8,5.5H196.7z M209.3,310c-0.2-1.4-1-2.5-2.1-3.3
		c-1.2-0.8-2.5-1.3-4-1.3s-2.8,0.4-4,1.3s-1.9,1.9-2.2,3.3H209.3z"/>
	<path class="st2" d="M238.8,316.6c0,1.4-0.3,2.5-0.9,3.4c-0.6,0.9-1.4,1.6-2.4,2.1c-1,0.5-2.1,0.9-3.3,1.1
		c-1.2,0.2-2.4,0.3-3.6,0.3c-1.9,0-3.9-0.3-5.8-0.8c-1.9-0.6-3.6-1.3-5-2.2l2-3.9c1.7,1,3.2,1.7,4.6,2.1c1.4,0.4,2.8,0.6,4.2,0.6
		c1.9,0,3.3-0.2,4.2-0.6c0.9-0.4,1.3-1,1.3-1.7c0-0.4-0.1-0.6-0.4-0.9c-0.2-0.2-0.7-0.4-1.2-0.6c-0.6-0.2-1.3-0.4-2.2-0.6
		c-0.9-0.2-2.1-0.4-3.5-0.6c-1.1-0.2-2.1-0.4-3.1-0.7s-1.9-0.6-2.6-1.1s-1.4-1.1-1.8-1.9c-0.5-0.8-0.7-1.7-0.7-2.8
		c0-1.1,0.3-2.1,0.9-3c0.6-0.9,1.4-1.6,2.3-2.1c1-0.6,2-1,3.2-1.2c1.2-0.2,2.4-0.4,3.6-0.4c1.7,0,3.3,0.2,4.9,0.7
		c1.6,0.4,3,1.1,4.2,1.9l-1.9,3.7c-1.2-0.8-2.4-1.3-3.5-1.5s-2.4-0.4-3.7-0.4c-0.6,0-1.2,0-1.8,0.1c-0.6,0.1-1.2,0.2-1.7,0.4
		s-1,0.4-1.3,0.7c-0.3,0.3-0.5,0.7-0.5,1.1c0,0.6,0.5,1,1.5,1.4c1,0.4,2.7,0.7,5.1,1.1c1.3,0.2,2.5,0.4,3.6,0.7s2,0.7,2.8,1.1
		s1.4,1.1,1.8,1.9S238.8,315.5,238.8,316.6z"/>
	<path class="st2" d="M261.6,323h-14.4v-4.3h4.7v-12.9h-4.7v-4.3h9.5v17.1h4.9V323z M257.3,298.9h-5.8v-5.8h5.8V298.9z"/>
	<path class="st2" d="M289.6,322.8c0,1.5-0.3,2.8-0.8,3.9c-0.5,1.1-1.2,2.1-2.1,2.9c-0.9,0.8-2,1.4-3.2,1.8
		c-1.2,0.4-2.6,0.6-4.1,0.6c-3.7,0-6.9-1.1-9.5-3.4l2.2-3.7c2.2,1.9,4.6,2.8,7.3,2.8c1.6,0,3-0.4,4-1.2c1-0.8,1.5-2.1,1.5-3.8v-2.3
		c-1,0.8-1.9,1.5-2.8,1.9s-2,0.6-3.1,0.6c-1.4,0-2.7-0.3-3.8-0.9c-1.2-0.6-2.2-1.4-3-2.4c-0.8-1-1.5-2.2-2-3.5
		c-0.5-1.3-0.7-2.7-0.7-4.2c0-1.5,0.2-2.9,0.7-4.3c0.5-1.3,1.1-2.5,2-3.5s1.9-1.8,3-2.3c1.2-0.6,2.5-0.9,3.8-0.9
		c1.2,0,2.3,0.2,3.2,0.6s1.9,1,2.8,1.8v-1.9h4.8V322.8z M284.9,307.3c-0.6-0.6-1.3-1.1-2.2-1.4s-1.8-0.5-2.6-0.5
		c-1.8,0-3.2,0.6-4.4,1.9c-1.1,1.3-1.7,2.9-1.7,4.8c0,1,0.1,1.9,0.4,2.7c0.3,0.8,0.7,1.5,1.2,2.1c0.5,0.6,1.2,1.1,1.9,1.4
		c0.7,0.3,1.5,0.5,2.4,0.5c0.8,0,1.7-0.2,2.6-0.5c0.9-0.3,1.6-0.8,2.2-1.5V307.3z"/>
	<path class="st2" d="M315.3,323h-4.8v-13.2c0-1.7-0.3-2.8-0.9-3.5c-0.6-0.6-1.5-1-2.7-1c-1.8,0-3.2,0.7-4.3,2.1
		c-1.1,1.4-1.7,3.4-1.7,5.9v9.6h-4.8v-21.4h4.8v5.4c0.5-1.9,1.4-3.3,2.6-4.3c1.3-1,2.9-1.5,4.8-1.5c2.2,0,3.9,0.7,5.1,2.1
		c1.2,1.4,1.9,3.6,1.9,6.6V323z"/>
</g>
</svg>
