<svg id="Layer_1" data-name="Layer 1" xmlns="http://www.w3.org/2000/svg" viewBox="0 0 493.99 530.84"><defs><style>.cls-2{fill:#fff}.cls-3{fill:#893756}</style></defs><path d="M282.2 100.26c-23.68-51.11-90.91-74-143.77-54.56s-88.24 74.45-92 130.65C43.3 222.78 59 268.26 63.58 314.57c4.53 45.49-1.17 93.84 19.21 134.77 17.63 35.38 51.92 59.06 85.7 79.6 28.94 17.6 59.45 34.37 93 39.18 31.66 4.55 63.74-1.89 95-8.39 59.91-12.42 125.51-28.89 160.32-79.19 27.13-39.24 28.71-92.07 13.76-137.38s-44.52-84.29-76.35-119.83C401.83 164.83 341.81 113 275.45 71.05" transform="translate(-46.01 -38.81)" fill="#a56779"/><path class="cls-2" d="M134.37 257.93h-13.68v7.91h10.67v4.06h-10.67v12.46h-4.52v-28.49h18.2zM156.61 282.36H143v-4.06h4.45v-20.37H143v-4.06h9v24.43h4.69zM163.82 276.51a5.23 5.23 0 0 1 1-3.13 7.82 7.82 0 0 1 2.52-2.24 12.56 12.56 0 0 1 3.58-1.34 18.89 18.89 0 0 1 4.11-.45h2c.56 0 1.11.08 1.68.13v-.8a2.62 2.62 0 0 0-1.23-2.38 5.89 5.89 0 0 0-3.24-.79 14.39 14.39 0 0 0-3.74.51 15.75 15.75 0 0 0-3.6 1.5L165 264a19.65 19.65 0 0 1 4.31-1.82 17.56 17.56 0 0 1 4.86-.66 14.3 14.3 0 0 1 3.26.37 8.44 8.44 0 0 1 2.88 1.22 6.45 6.45 0 0 1 2 2.21 6.84 6.84 0 0 1 .77 3.38v13.64h-4.48v-3a6.92 6.92 0 0 1-3.15 2.59 11.06 11.06 0 0 1-4.49.92 9.48 9.48 0 0 1-2.8-.4 6.39 6.39 0 0 1-2.28-1.21 6 6 0 0 1-1.54-2 6.13 6.13 0 0 1-.52-2.73zm8.36 2.29a9.16 9.16 0 0 0 2.5-.33 7.49 7.49 0 0 0 2.06-.94 4.53 4.53 0 0 0 1.41-1.45 3.52 3.52 0 0 0 .51-1.87v-.76a14.77 14.77 0 0 0-2-.19H175a11.48 11.48 0 0 0-5 .86c-1.12.59-1.69 1.3-1.69 2.16q-.02 2.51 3.87 2.52zM208.87 275.9a7.47 7.47 0 0 1-2.52 5.08 8 8 0 0 1-5.42 1.88 8.67 8.67 0 0 1-3.28-.59 7.19 7.19 0 0 1-4.16-4.16 8.91 8.91 0 0 1-.57-3.23v-8.8h-4.61V262h4.61v-8.15h4.51V262H206v4.06h-8.54v8.82a4 4 0 0 0 1 2.94 3.4 3.4 0 0 0 2.53 1 3.54 3.54 0 0 0 2.86-1.11 5 5 0 0 0 1.05-2.71zM229.78 282.36h-13.66v-4.06h4.49v-12.22h-4.49V262h9v16.3h4.65zm-4.14-23h-5.5v-5.5h5.5zM257 266.84a8.61 8.61 0 0 0-1.65-.6 8 8 0 0 0-1.93-.21 8.74 8.74 0 0 0-2.83.45 6.34 6.34 0 0 0-2.28 1.34 6 6 0 0 0-1.49 2.24 8.46 8.46 0 0 0-.54 3.18v5.06h4.56v4.06h-13.72v-4.06h4.6v-12.2h-4.6V262h9.12v5.1a7.88 7.88 0 0 1 3.29-4.32 10.12 10.12 0 0 1 5.16-1.26 10.47 10.47 0 0 1 2 .19 7.51 7.51 0 0 1 2 .7zM282.39 272.21a11.87 11.87 0 0 1-.75 4.32 9.76 9.76 0 0 1-2.16 3.35 10 10 0 0 1-3.38 2.2 12.6 12.6 0 0 1-8.73 0 10 10 0 0 1-3.37-2.2 9.48 9.48 0 0 1-2.16-3.35 11.87 11.87 0 0 1-.75-4.32 12 12 0 0 1 .75-4.29 9.57 9.57 0 0 1 5.53-5.61 12.76 12.76 0 0 1 8.73 0 9.63 9.63 0 0 1 3.38 2.21 9.88 9.88 0 0 1 2.16 3.4 12 12 0 0 1 .75 4.29zm-4.52 0a8 8 0 0 0-.42-2.61 6 6 0 0 0-1.23-2.11 5.83 5.83 0 0 0-2-1.39 6.68 6.68 0 0 0-5.12 0 5.71 5.71 0 0 0-1.92 1.39 6 6 0 0 0-1.2 2.11 7.77 7.77 0 0 0-.43 2.61 7.5 7.5 0 0 0 .43 2.62 6.4 6.4 0 0 0 1.2 2.08 5.45 5.45 0 0 0 1.92 1.39 6.93 6.93 0 0 0 5.12 0 5.56 5.56 0 0 0 2-1.39 6.47 6.47 0 0 0 1.23-2.08 7.74 7.74 0 0 0 .42-2.61zM305.2 282.36h-4.52v-12.55a4.74 4.74 0 0 0-.89-3.3 3.49 3.49 0 0 0-2.6-.91 4.93 4.93 0 0 0-4.09 2 8.87 8.87 0 0 0-1.59 5.61v9.12H287V262h4.51v5.1A7.51 7.51 0 0 1 294 263a7 7 0 0 1 4.52-1.47 6.13 6.13 0 0 1 4.89 2q1.77 2 1.77 6.24zM134.72 328.19a8.77 8.77 0 0 1-.66 3.5 7.64 7.64 0 0 1-4.54 4.25 9.91 9.91 0 0 1-3.38.57 8.64 8.64 0 0 1-3.62-.73 6.69 6.69 0 0 1-2.77-2.39V336h-4.06v-9.32h4.06a5.78 5.78 0 0 0 .49 2.46 5.55 5.55 0 0 0 1.3 1.8 5.43 5.43 0 0 0 1.87 1.11 6.6 6.6 0 0 0 2.27.39 5.28 5.28 0 0 0 3.28-.94 3.5 3.5 0 0 0 1.24-3 4 4 0 0 0-.38-1.83 4.25 4.25 0 0 0-1.09-1.36 6.93 6.93 0 0 0-1.74-1.05c-.68-.3-1.46-.61-2.33-.95-1-.35-2.07-.74-3.1-1.18a11.76 11.76 0 0 1-2.77-1.61 7.5 7.5 0 0 1-2-2.37 7.36 7.36 0 0 1-.76-3.54 7.47 7.47 0 0 1 .68-3.28 7.08 7.08 0 0 1 1.84-2.37 7.88 7.88 0 0 1 2.66-1.45 10.33 10.33 0 0 1 3.22-.49 6.55 6.55 0 0 1 3.37.83 5.73 5.73 0 0 1 2.17 2.2v-2.55H134v8.86h-4a5.52 5.52 0 0 0-1.32-3.92 4.61 4.61 0 0 0-3.54-1.4 5.56 5.56 0 0 0-3.27.91 3.23 3.23 0 0 0-1 4 3.73 3.73 0 0 0 1 1.09 7.79 7.79 0 0 0 1.62.92c.66.28 1.41.59 2.27.93 1.08.37 2.15.8 3.21 1.28a12.5 12.5 0 0 1 2.86 1.77 8.53 8.53 0 0 1 2.07 2.54 7.61 7.61 0 0 1 .82 3.71zM159.08 333.12a10.69 10.69 0 0 1-4.14 2.67 14.79 14.79 0 0 1-4.7.72 13.4 13.4 0 0 1-4.64-.77 9.88 9.88 0 0 1-3.53-2.15 9.25 9.25 0 0 1-2.23-3.35 11.8 11.8 0 0 1-.78-4.39 11.51 11.51 0 0 1 .78-4.28 10.37 10.37 0 0 1 2.09-3.39A9.51 9.51 0 0 1 145 316a9.2 9.2 0 0 1 3.79-.8 7.29 7.29 0 0 1 3.64.87 5.17 5.17 0 0 1 2.25 2.56v-2.95h4.06v9.48h-4.06a6.1 6.1 0 0 0-1.47-4.29 4.94 4.94 0 0 0-3.82-1.61 5.69 5.69 0 0 0-3.86 1.58 6.39 6.39 0 0 0-1.42 2.05 8.16 8.16 0 0 0 0 5.94 5.85 5.85 0 0 0 1.43 2 5.76 5.76 0 0 0 2.09 1.2 7.78 7.78 0 0 0 2.49.41 9.74 9.74 0 0 0 3.83-.69 9.21 9.21 0 0 0 2.8-1.82zM183.18 336h-4.52v-12.55a4.73 4.73 0 0 0-.89-3.29 3.49 3.49 0 0 0-2.6-.92 5 5 0 0 0-4.09 2 8.87 8.87 0 0 0-1.59 5.61V336H165v-28.48h4.51v13.25a7.52 7.52 0 0 1 2.51-4.12 7 7 0 0 1 4.52-1.47 6.16 6.16 0 0 1 4.89 2c1.18 1.35 1.77 3.44 1.77 6.24zM209.18 325.85a12 12 0 0 1-.75 4.33 9.61 9.61 0 0 1-5.54 5.54 11.6 11.6 0 0 1-4.39.79 11.48 11.48 0 0 1-4.34-.79 9.82 9.82 0 0 1-3.37-2.19 9.57 9.57 0 0 1-2.16-3.35 12.57 12.57 0 0 1 0-8.61 9.49 9.49 0 0 1 5.53-5.61 12.6 12.6 0 0 1 8.73 0 9.48 9.48 0 0 1 3.37 2.2 9.8 9.8 0 0 1 2.17 3.41 11.92 11.92 0 0 1 .75 4.28zm-4.52 0a7.87 7.87 0 0 0-.43-2.62 6 6 0 0 0-1.22-2.11 6 6 0 0 0-1.95-1.38 6.56 6.56 0 0 0-5.12 0 5.72 5.72 0 0 0-1.92 1.38 6.15 6.15 0 0 0-1.2 2.11 7.87 7.87 0 0 0-.43 2.62 7.54 7.54 0 0 0 .43 2.62 6.4 6.4 0 0 0 1.2 2.08 5.49 5.49 0 0 0 1.92 1.39 6.93 6.93 0 0 0 5.12 0 5.7 5.7 0 0 0 1.95-1.39 6.27 6.27 0 0 0 1.22-2.08 7.54 7.54 0 0 0 .43-2.6zM233.58 325.85a12 12 0 0 1-.75 4.33 9.57 9.57 0 0 1-2.16 3.35 9.87 9.87 0 0 1-3.38 2.19 12.45 12.45 0 0 1-8.73 0 9.82 9.82 0 0 1-3.37-2.19 9.57 9.57 0 0 1-2.16-3.35 12.73 12.73 0 0 1 0-8.61 9.49 9.49 0 0 1 5.53-5.61 12.6 12.6 0 0 1 8.73 0 9.47 9.47 0 0 1 5.54 5.61 11.92 11.92 0 0 1 .75 4.28zm-4.52 0a8.13 8.13 0 0 0-.42-2.62 5.7 5.7 0 0 0-3.18-3.49 6.56 6.56 0 0 0-5.12 0 5.68 5.68 0 0 0-1.91 1.38 6 6 0 0 0-1.21 2.11 8.13 8.13 0 0 0-.42 2.62 7.78 7.78 0 0 0 .42 2.62 6.25 6.25 0 0 0 1.21 2.08 5.45 5.45 0 0 0 1.91 1.39 6.93 6.93 0 0 0 5.12 0 5.7 5.7 0 0 0 1.95-1.39 6.13 6.13 0 0 0 1.23-2.08 7.78 7.78 0 0 0 .42-2.6zM254.23 336h-13.66v-4.07H245v-20.35h-4.45v-4.06h9v24.42h4.69zM134.72 381.84a8.81 8.81 0 0 1-.66 3.5 7.66 7.66 0 0 1-1.82 2.61 7.86 7.86 0 0 1-2.72 1.64 10.16 10.16 0 0 1-3.38.56 8.8 8.8 0 0 1-3.62-.72 6.69 6.69 0 0 1-2.77-2.39v2.61h-4.06v-9.32h4.06a5.86 5.86 0 0 0 .49 2.47 5.55 5.55 0 0 0 1.3 1.8 5.43 5.43 0 0 0 1.87 1.11 6.6 6.6 0 0 0 2.27.38 5.28 5.28 0 0 0 3.28-.94 3.48 3.48 0 0 0 1.24-3 3.93 3.93 0 0 0-.38-1.83 4.29 4.29 0 0 0-1.09-1.37 6.63 6.63 0 0 0-1.74-1c-.68-.3-1.46-.62-2.33-.95-1-.35-2.07-.75-3.1-1.18a12.5 12.5 0 0 1-2.77-1.61 7.5 7.5 0 0 1-2-2.37 7.38 7.38 0 0 1-.76-3.55 7.51 7.51 0 0 1 .68-3.28 7 7 0 0 1 1.84-2.36 7.71 7.71 0 0 1 2.66-1.45 10.33 10.33 0 0 1 3.22-.49 6.55 6.55 0 0 1 3.37.82 5.75 5.75 0 0 1 2.17 2.21v-2.56H134V370h-4a5.5 5.5 0 0 0-1.32-3.92 4.62 4.62 0 0 0-3.54-1.41 5.56 5.56 0 0 0-3.27.92 3.23 3.23 0 0 0-1 4 3.73 3.73 0 0 0 1 1.09 7.79 7.79 0 0 0 1.62.91c.66.29 1.41.6 2.27.93q1.62.57 3.21 1.29a12.5 12.5 0 0 1 2.86 1.77 8.41 8.41 0 0 1 2.07 2.54 7.61 7.61 0 0 1 .82 3.72zM160.06 383.19a7.47 7.47 0 0 1-2.52 5.08 8 8 0 0 1-5.42 1.88 8.67 8.67 0 0 1-3.28-.59 7.33 7.33 0 0 1-2.53-1.64 7.19 7.19 0 0 1-1.62-2.52 8.66 8.66 0 0 1-.58-3.22v-8.81h-4.61v-4.06h4.61v-8.15h4.52v8.15h8.53v4.06h-8.53v8.82a4 4 0 0 0 1 2.94 3.42 3.42 0 0 0 2.53 1A3.54 3.54 0 0 0 155 385a5 5 0 0 0 1.11-2.69zM184.07 369.31l-8.77 24.31a6.36 6.36 0 0 1-2.86 3.63 9.57 9.57 0 0 1-4.47 1 12.09 12.09 0 0 1-1.92-.17 12.52 12.52 0 0 1-2.14-.59l.93-4.15a11.31 11.31 0 0 0 1.73.49 8.38 8.38 0 0 0 1.4.14 2.76 2.76 0 0 0 2.77-1.79l.81-2-7.78-20.89h4.7l5.59 15.39 5.17-15.39zM205.42 389.65h-13.66v-4.06h4.45v-20.36h-4.45v-4.07h9v24.43h4.69zM216.86 381.2a5.5 5.5 0 0 0 2 3.5 6.76 6.76 0 0 0 4.48 1.39 9.74 9.74 0 0 0 3.83-.69 8.9 8.9 0 0 0 2.81-1.82l2.31 3.19a10.65 10.65 0 0 1-4.15 2.67 15.64 15.64 0 0 1-4.8.71 12.08 12.08 0 0 1-4.38-.78 10.66 10.66 0 0 1-3.52-2.2 10 10 0 0 1-2.32-3.35 10.74 10.74 0 0 1-.84-4.32 11.66 11.66 0 0 1 .77-4.27 10.19 10.19 0 0 1 2.18-3.38 10 10 0 0 1 3.38-2.23 12.34 12.34 0 0 1 8.82.05 9.5 9.5 0 0 1 3.43 2.43 11.28 11.28 0 0 1 2.24 3.9 15.59 15.59 0 0 1 .81 5.2zm11.94-4a4.74 4.74 0 0 0-2-3.15 6.39 6.39 0 0 0-3.82-1.19 6.48 6.48 0 0 0-3.84 1.19 4.7 4.7 0 0 0-2.05 3.15zM283 375.48a25.6 25.6 0 0 1-.58 5.55 13.82 13.82 0 0 1-1.9 4.67 10 10 0 0 1-3.4 3.24 9.92 9.92 0 0 1-5.08 1.21 9.75 9.75 0 0 1-5.06-1.23 10.32 10.32 0 0 1-3.41-3.26 13.9 13.9 0 0 1-1.9-4.7 25.58 25.58 0 0 1-.58-5.52 26.23 26.23 0 0 1 .57-5.52 14.1 14.1 0 0 1 1.91-4.72 10.22 10.22 0 0 1 3.39-3.28 9.83 9.83 0 0 1 5.08-1.23 6.69 6.69 0 0 1 1.74.24 6.44 6.44 0 0 1 1.71.73 5.71 5.71 0 0 1 1.43 1.21 4.24 4.24 0 0 1 .89 1.66v-3.37h4.06v10.11h-4.06a7.49 7.49 0 0 0-.42-2.52 6.43 6.43 0 0 0-1.18-2.08 5.48 5.48 0 0 0-1.83-1.41 5.35 5.35 0 0 0-2.34-.52 4.87 4.87 0 0 0-3.14 1 6.86 6.86 0 0 0-2 2.49 12 12 0 0 0-1 3.43 24.53 24.53 0 0 0 0 7.65 12.47 12.47 0 0 0 1 3.41 6.42 6.42 0 0 0 2 2.46 5.07 5.07 0 0 0 3.16.94 5.94 5.94 0 0 0 4.48-1.77 10.3 10.3 0 0 0 2.33-5.5h-6v-4.06H283zM287 369.31h4.51v12.59a4.68 4.68 0 0 0 .9 3.28 3.47 3.47 0 0 0 2.6.91 4.94 4.94 0 0 0 4.08-2 8.9 8.9 0 0 0 1.59-5.62v-9.13h4.52v20.34h-4.52v-5.09a7.53 7.53 0 0 1-2.51 4.11 6.94 6.94 0 0 1-4.52 1.48 6.13 6.13 0 0 1-4.89-2q-1.75-2-1.76-6.23zM327.4 389.65h-13.66v-4.06h4.49v-12.22h-4.49v-4.06h9v16.28h4.65zm-4.15-23h-5.5v-5.51h5.5zM354 389.65h-4.52v-1.86a11.14 11.14 0 0 1-2.64 1.76 7.33 7.33 0 0 1-3 .6 8.43 8.43 0 0 1-6.53-3 10.34 10.34 0 0 1-1.9-3.37 13.71 13.71 0 0 1 0-8.59 10.39 10.39 0 0 1 1.9-3.38 8.58 8.58 0 0 1 2.89-2.21 8.39 8.39 0 0 1 3.64-.79 7.67 7.67 0 0 1 3 .57 10.19 10.19 0 0 1 2.64 1.74v-5.91h-3.93v-4.07H354zm-4.52-14.93a5.14 5.14 0 0 0-2.09-1.36 6.87 6.87 0 0 0-2.43-.47 5.28 5.28 0 0 0-4.16 1.83 7 7 0 0 0-1.6 4.79 6.93 6.93 0 0 0 1.6 4.77 5.3 5.3 0 0 0 4.16 1.81 6.87 6.87 0 0 0 2.43-.47 5.14 5.14 0 0 0 2.09-1.36zM363.29 381.2a5.49 5.49 0 0 0 2 3.5 6.79 6.79 0 0 0 4.49 1.39 9.74 9.74 0 0 0 3.83-.69 8.86 8.86 0 0 0 2.8-1.82l2.32 3.19a10.68 10.68 0 0 1-4.16 2.67 15.57 15.57 0 0 1-4.79.71 12.14 12.14 0 0 1-4.39-.78 10.72 10.72 0 0 1-3.51-2.2 10 10 0 0 1-2.33-3.35 10.74 10.74 0 0 1-.84-4.32 11.46 11.46 0 0 1 .78-4.27 9.82 9.82 0 0 1 5.55-5.61 12.34 12.34 0 0 1 8.82.05 9.45 9.45 0 0 1 3.44 2.43 11.44 11.44 0 0 1 2.24 3.9 15.86 15.86 0 0 1 .8 5.2zm11.94-4a4.77 4.77 0 0 0-2-3.15 6.44 6.44 0 0 0-3.82-1.19 6.53 6.53 0 0 0-3.85 1.19 4.73 4.73 0 0 0-2 3.15z" transform="translate(-46.01 -38.81)"/><path class="cls-3" d="M417.56 478.2l5.59 21-3.2 1.41-5.45-7.71 2 9.21-3.21 1.41-11.64-18.32 3.23-1.43 7.62 12.43-1.92-8.2 3-1.31 4.73 7-4-14zM428.91 489.3a4.2 4.2 0 0 0 2.61 1.54 5.1 5.1 0 0 0 3.45-.76 7.36 7.36 0 0 0 2.25-1.88 6.71 6.71 0 0 0 1.16-2.23l2.7 1.22a7.89 7.89 0 0 1-1.73 3.29 11.66 11.66 0 0 1-2.86 2.26 9.42 9.42 0 0 1-3.17 1.12 7.89 7.89 0 0 1-3.11-.13 7.63 7.63 0 0 1-2.77-1.33 8 8 0 0 1-2.16-2.51 8.61 8.61 0 0 1-1.08-3.08 7.7 7.7 0 0 1 .16-3 7.5 7.5 0 0 1 1.38-2.71 8.7 8.7 0 0 1 2.55-2.14 8.57 8.57 0 0 1 3.24-1.11 7 7 0 0 1 3.15.31 8.7 8.7 0 0 1 2.92 1.71 11.91 11.91 0 0 1 2.46 3.11zm6.33-7.05a3.61 3.61 0 0 0-2.5-1.31 5.1 5.1 0 0 0-5 2.86 3.52 3.52 0 0 0-.17 2.82zM447.36 459.49l9.83 19.34-2.84 2.05-6.94-6.41 3.9 8.6-2.84 2-15.22-15.46 2.87-2.07 10 10.57-3.59-7.66 2.64-1.9 6.09 5.87-6.8-12.9zM469.29 458.54a9.1 9.1 0 0 1 1.76 2.8 7.22 7.22 0 0 1 .48 3 7.35 7.35 0 0 1-.78 2.92 8.89 8.89 0 0 1-2.05 2.66 8.78 8.78 0 0 1-2.83 1.75 7.59 7.59 0 0 1-3 .47 7.22 7.22 0 0 1-2.9-.78 9.59 9.59 0 0 1-4.34-4.81 7.45 7.45 0 0 1-.51-3 7.22 7.22 0 0 1 .77-2.94 9.6 9.6 0 0 1 4.88-4.4 7.26 7.26 0 0 1 3-.47 7.35 7.35 0 0 1 2.92.81 9.14 9.14 0 0 1 2.6 1.99zm-2.52 2.29a6 6 0 0 0-1.56-1.25 4.3 4.3 0 0 0-3.54-.35 4.52 4.52 0 0 0-1.68 1 4.58 4.58 0 0 0-1.18 1.58 4.29 4.29 0 0 0-.37 1.74 4.86 4.86 0 0 0 .39 1.79 6.12 6.12 0 0 0 1.08 1.67 5.76 5.76 0 0 0 1.56 1.25 4.81 4.81 0 0 0 1.73.56 4.13 4.13 0 0 0 1.77-.19 5.19 5.19 0 0 0 2.86-2.59 4 4 0 0 0 .38-1.75 4.6 4.6 0 0 0-.36-1.78 5.52 5.52 0 0 0-1.08-1.68zM478.64 442.3a5.81 5.81 0 0 0-1.15.63 6.07 6.07 0 0 0-1.08 1 6.7 6.7 0 0 0-1.15 1.82 4.68 4.68 0 0 0-.37 2 4.59 4.59 0 0 0 .52 2 6.32 6.32 0 0 0 1.54 1.87l2.86 2.52 2.27-2.58 2.29 2-6.79 7.75-2.29-2 2.28-2.61-6.91-6.05-2.28 2.61-2.31-2 4.53-5.26 2.89 2.53a5.88 5.88 0 0 1-.82-4 7.65 7.65 0 0 1 1.84-3.55 8.92 8.92 0 0 1 1.09-1 5.9 5.9 0 0 1 1.39-.79zM499.35 433.37l-2.47 3.63-8 .77.44 2.16 3.82 2.59-1.9 2.82-17.76-12 1.91-2.81 10.45 7.08-1.94-8.72 2.62-3.86 1.86 9.79z" transform="translate(-46.01 -38.81)"/></svg>