<svg id="Layer_1" xmlns="http://www.w3.org/2000/svg" viewBox="0 0 483.1 463.6"><style>.st2{fill:#fff}</style><path d="M352.3 60.6L181.1 9.9c-31-9.2-64.9-17.8-92.9 2.9-18.9 14-32 39.4-42.7 65.3C16.2 149.1.4 231 0 313.1c-.1 19.8 1.1 41 9.8 56.5 7.5 13.4 19.2 20.2 30.6 26.1 128.9 66.5 269.5 71.7 406.7 66.2 7.2-.3 14.7-.8 20.8-6.2 9.1-8.1 12.1-24.6 13.5-39.6C492.5 297 449 171.3 375.5 110c-26.6-22.2-59.4-40.8-69.6-81.9" fill="#606161"/><path class="st2" d="M161 243.3h-4.5v-12.5h-9.2v12.5h-4.5v-28.5h4.5v12h9.2v-12h4.5v28.5zM187 233.1c0 1.6-.3 3-.8 4.3s-1.2 2.4-2.2 3.3-2.1 1.7-3.4 2.2c-1.3.5-2.8.8-4.4.8-1.6 0-3-.3-4.3-.8-1.3-.5-2.4-1.3-3.4-2.2-.9-.9-1.7-2.1-2.2-3.3s-.8-2.7-.8-4.3c0-1.5.3-3 .8-4.3.5-1.3 1.2-2.5 2.2-3.4.9-1 2.1-1.7 3.4-2.2s2.8-.8 4.3-.8c1.6 0 3.1.3 4.4.8s2.4 1.3 3.4 2.2 1.7 2.1 2.2 3.4c.6 1.3.8 2.8.8 4.3zm-4.5 0c0-.9-.1-1.8-.4-2.6s-.7-1.5-1.2-2.1-1.2-1-1.9-1.4c-.8-.3-1.6-.5-2.6-.5s-1.8.2-2.6.5-1.4.8-1.9 1.4c-.5.6-.9 1.3-1.2 2.1s-.4 1.7-.4 2.6c0 1 .1 1.8.4 2.6s.7 1.5 1.2 2.1c.5.6 1.2 1.1 1.9 1.4s1.6.5 2.6.5c.9 0 1.8-.2 2.6-.5s1.4-.8 1.9-1.4.9-1.3 1.2-2.1.4-1.6.4-2.6zM211.5 222.9l-3.1 20.3h-5.6l-2.1-12.2-2.2 12.2H193l-3.1-20.3h4.4l1.8 13.6 2.2-13.6h4.8l2.2 13.6 1.8-13.6h4.4z"/></svg>