<svg id="Layer_1" xmlns="http://www.w3.org/2000/svg" viewBox="0 0 372.2 424.6"><style>.st1{enable-background:new}.st2{fill:#fff}</style><path d="M188.5 347.2C108.8 324 41.6 261.4 12.6 183.7-3.6 140.1-7.1 87.9 19.7 49.9c18.5-26.2 49.2-42 80.8-47.5 70-12.3 142.5 23.4 188.3 77.8s68.2 124.9 79.5 195.1c6.3 39.2 8 83.7-17.9 113.8-16.2 18.8-40.7 28.5-65.2 32.7-104.9 18.3-204.7-51.8-223-156.7-.3-1.5-.5-2.9-.7-4.4" fill="#273f84"/><g class="st1"><path class="st2" d="M126 153.9h-4.5v-12.5h-9.2v12.5h-4.5v-28.5h4.5v12h9.2v-12h4.5v28.5zM152 143.7c0 1.6-.3 3-.8 4.3s-1.2 2.4-2.2 3.3-2.1 1.7-3.4 2.2c-1.3.5-2.8.8-4.4.8-1.6 0-3-.3-4.3-.8-1.3-.5-2.4-1.3-3.4-2.2-.9-.9-1.7-2.1-2.2-3.3s-.8-2.7-.8-4.3c0-1.5.3-3 .8-4.3.5-1.3 1.2-2.5 2.2-3.4.9-1 2.1-1.7 3.4-2.2s2.8-.8 4.3-.8c1.6 0 3.1.3 4.4.8s2.4 1.3 3.4 2.2 1.7 2.1 2.2 3.4c.5 1.3.8 2.8.8 4.3zm-4.6 0c0-.9-.1-1.8-.4-2.6s-.7-1.5-1.2-2.1-1.2-1-1.9-1.4c-.8-.3-1.6-.5-2.6-.5s-1.8.2-2.6.5-1.4.8-1.9 1.4c-.5.6-.9 1.3-1.2 2.1s-.4 1.7-.4 2.6c0 1 .1 1.8.4 2.6s.7 1.5 1.2 2.1c.5.6 1.2 1.1 1.9 1.4s1.6.5 2.6.5c.9 0 1.8-.2 2.6-.5s1.4-.8 1.9-1.4.9-1.3 1.2-2.1.4-1.6.4-2.6zM176.5 133.5l-3.1 20.3h-5.6l-2.1-12.2-2.2 12.2h-5.6l-3.1-20.3h4.4l1.8 13.6 2.2-13.6h4.8l2.2 13.6 1.8-13.6h4.5zM224.9 147.4c-.2 2.1-1.1 3.8-2.5 5.1-1.4 1.3-3.3 1.9-5.4 1.9-1.2 0-2.3-.2-3.3-.6-1-.4-1.8-.9-2.5-1.6s-1.2-1.5-1.6-2.5c-.4-1-.6-2.1-.6-3.2v-8.8h-4.6v-4.1h4.6v-8.1h4.5v8.1h8.5v4.1h-8.5v8.8c0 1.3.3 2.3 1 2.9.6.6 1.5 1 2.5 1 1.3 0 2.2-.4 2.9-1.1.6-.7 1-1.6 1.1-2.7l3.9.8zM249.6 143.7c0 1.6-.3 3-.8 4.3s-1.2 2.4-2.2 3.3-2.1 1.7-3.4 2.2c-1.3.5-2.8.8-4.4.8-1.6 0-3-.3-4.3-.8-1.3-.5-2.4-1.3-3.4-2.2s-1.7-2.1-2.2-3.3-.8-2.7-.8-4.3c0-1.5.3-3 .8-4.3.5-1.3 1.2-2.5 2.2-3.4s2.1-1.7 3.4-2.2 2.8-.8 4.3-.8c1.6 0 3.1.3 4.4.8s2.4 1.3 3.4 2.2 1.7 2.1 2.2 3.4c.5 1.3.8 2.8.8 4.3zm-4.6 0c0-.9-.1-1.8-.4-2.6-.3-.8-.7-1.5-1.2-2.1-.5-.6-1.2-1-1.9-1.4-.8-.3-1.6-.5-2.6-.5s-1.8.2-2.6.5-1.4.8-1.9 1.4c-.5.6-.9 1.3-1.2 2.1-.3.8-.4 1.7-.4 2.6 0 1 .1 1.8.4 2.6.3.8.7 1.5 1.2 2.1.5.6 1.2 1.1 1.9 1.4s1.6.5 2.6.5c.9 0 1.8-.2 2.6-.5s1.4-.8 1.9-1.4c.5-.6.9-1.3 1.2-2.1.3-.7.4-1.6.4-2.6z"/></g><g class="st1"><path class="st2" d="M107.8 187.2h4.5v1.8c.9-.8 1.7-1.3 2.6-1.7.9-.4 1.9-.6 3-.6 1.3 0 2.5.3 3.6.8s2.1 1.3 2.9 2.2 1.4 2.1 1.9 3.4c.5 1.3.7 2.7.7 4.3 0 1.6-.2 3-.7 4.3-.5 1.3-1.1 2.4-1.9 3.4s-1.8 1.7-2.9 2.2c-1.1.5-2.3.8-3.6.8-1.1 0-2.1-.2-3-.6-.9-.4-1.8-1-2.6-1.8v10h-4.5v-28.5zm4.5 14.9c.5.6 1.2 1.1 2.1 1.4s1.6.5 2.4.5c1.7 0 3.1-.6 4.2-1.8s1.6-2.8 1.6-4.8-.5-3.6-1.6-4.8c-1.1-1.2-2.5-1.8-4.2-1.8-.8 0-1.6.2-2.4.5s-1.5.8-2.1 1.4v9.4zM132.2 187.2h4.5v12.6c0 1.6.3 2.7.9 3.3.6.6 1.5.9 2.6.9 1.7 0 3-.7 4.1-2 1.1-1.4 1.6-3.2 1.6-5.6v-9.1h4.5v20.3h-4.5v-5.1c-.5 1.7-1.3 3.1-2.5 4.1s-2.7 1.5-4.5 1.5c-2.1 0-3.7-.7-4.9-2-1.2-1.4-1.8-3.4-1.8-6.2v-12.7zM176.1 201c-.2 2.1-1.1 3.8-2.5 5.1-1.4 1.3-3.3 1.9-5.4 1.9-1.2 0-2.3-.2-3.3-.6-1-.4-1.8-.9-2.5-1.6-.7-.7-1.2-1.5-1.6-2.5-.4-1-.6-2.1-.6-3.2v-8.8h-4.6v-4.1h4.6V179h4.5v8.1h8.5v4.1h-8.5v8.8c0 1.3.3 2.3 1 2.9s1.5 1 2.5 1c1.3 0 2.2-.4 2.9-1.1s1-1.6 1.1-2.7l3.9.9zM221.4 207.5h-13.7v-4.1h4.5v-12.2h-4.5v-4.1h9v16.3h4.6v4.1zm-4.2-23h-5.5V179h5.5v5.5zM248 207.5h-4.5V195c0-1.6-.3-2.7-.9-3.3s-1.5-.9-2.6-.9c-1.7 0-3 .7-4.1 2-1.1 1.4-1.6 3.2-1.6 5.6v9.1h-4.5v-20.3h4.5v5.1c.5-1.8 1.3-3.1 2.5-4.1 1.2-1 2.7-1.5 4.5-1.5 2.1 0 3.7.7 4.9 2 1.2 1.4 1.8 3.4 1.8 6.2v12.6z"/></g><g class="st1"><path class="st2" d="M106.6 255.3c0-1.2.3-2.2 1-3.1.6-.9 1.5-1.6 2.5-2.2 1-.6 2.2-1 3.6-1.3 1.3-.3 2.7-.4 4.1-.4h2c.6 0 1.1.1 1.7.1v-.8c0-1.1-.4-1.9-1.2-2.4-.8-.5-1.9-.8-3.2-.8-1.2 0-2.5.2-3.7.5s-2.5.8-3.6 1.5l-1.8-3.5c1.3-.8 2.8-1.4 4.3-1.8 1.5-.4 3.2-.7 4.9-.7 1.1 0 2.2.1 3.3.4 1.1.2 2 .7 2.9 1.2.9.6 1.5 1.3 2 2.2.5.9.8 2 .8 3.4v13.6h-4.5v-3c-.7 1.1-1.8 2-3.2 2.6-1.4.6-2.9.9-4.5.9-1 0-1.9-.1-2.8-.4-.9-.3-1.6-.7-2.3-1.2-.6-.5-1.2-1.2-1.5-2-.6-.9-.8-1.8-.8-2.8zm8.4 2.3c.9 0 1.7-.1 2.5-.3s1.5-.5 2.1-.9c.6-.4 1.1-.9 1.4-1.4.3-.6.5-1.2.5-1.9v-.8c-.7-.1-1.4-.2-2-.2h-1.7c-2.2 0-3.9.3-5 .9-1.1.6-1.7 1.3-1.7 2.2 0 1.5 1.3 2.4 3.9 2.4zM176.1 254.7c-.2 2.1-1.1 3.8-2.5 5.1-1.4 1.3-3.3 1.9-5.4 1.9-1.2 0-2.3-.2-3.3-.6-1-.4-1.8-.9-2.5-1.6-.7-.7-1.2-1.5-1.6-2.5-.4-1-.6-2.1-.6-3.2V245h-4.6v-4.1h4.6v-8.1h4.5v8.1h8.5v4.1h-8.5v8.8c0 1.3.3 2.3 1 2.9s1.5 1 2.5 1c1.3 0 2.2-.4 2.9-1.1s1-1.6 1.1-2.7l3.9.8zM179.8 255.3c0-1.2.3-2.2 1-3.1.6-.9 1.5-1.6 2.5-2.2 1-.6 2.2-1 3.6-1.3 1.3-.3 2.7-.4 4.1-.4h2c.6 0 1.1.1 1.7.1v-.8c0-1.1-.4-1.9-1.2-2.4-.8-.5-1.9-.8-3.2-.8-1.2 0-2.5.2-3.7.5s-2.5.8-3.6 1.5l-1.8-3.5c1.3-.8 2.8-1.4 4.3-1.8 1.5-.4 3.2-.7 4.9-.7 1.1 0 2.2.1 3.3.4 1.1.2 2 .7 2.9 1.2s1.5 1.3 2 2.2c.5.9.8 2 .8 3.4v13.6h-4.5v-3c-.7 1.1-1.8 2-3.2 2.6-1.4.6-2.9.9-4.5.9-1 0-1.9-.1-2.8-.4-.9-.3-1.6-.7-2.3-1.2-.6-.5-1.2-1.2-1.5-2-.6-.9-.8-1.8-.8-2.8zm8.4 2.3c.9 0 1.7-.1 2.5-.3s1.5-.5 2.1-.9c.6-.4 1.1-.9 1.4-1.4.3-.6.5-1.2.5-1.9v-.8c-.7-.1-1.4-.2-2-.2H191c-2.2 0-3.9.3-5 .9-1.1.6-1.7 1.3-1.7 2.2 0 1.5 1.3 2.4 3.9 2.4zM224.6 261.2h-4.5v-13.9c0-1-.1-1.7-.3-2.1-.2-.5-.5-.7-1-.7-.9 0-1.5.5-1.7 1.5-.2 1-.4 2.5-.4 4.4v10.8h-4.5v-13.9c0-1-.1-1.7-.3-2.1-.2-.5-.6-.7-1.1-.7-.9 0-1.4.5-1.7 1.5-.2 1-.3 2.5-.3 4.4v10.8h-4.5v-20.3h4.6v2.9c.3-1.1.8-2 1.4-2.6.6-.6 1.5-.9 2.5-.9.9 0 1.6.3 2.2.8.6.5 1 1.3 1.2 2.2.5-1 1-1.8 1.6-2.3s1.4-.7 2.5-.7c1.4 0 2.5.5 3.2 1.5.7 1 1.1 2.6 1.1 4.7v14.7zM229.8 240.8h4.5v1.8c.9-.8 1.7-1.3 2.6-1.7.9-.4 1.9-.6 3-.6 1.3 0 2.5.3 3.6.8s2.1 1.3 2.9 2.2c.8.9 1.4 2.1 1.9 3.4.5 1.3.7 2.7.7 4.3 0 1.6-.2 3-.7 4.3s-1.1 2.4-1.9 3.4c-.8.9-1.8 1.7-2.9 2.2-1.1.5-2.3.8-3.6.8-1.1 0-2.1-.2-3-.6-.9-.4-1.8-1-2.6-1.8v10h-4.5v-28.5zm4.5 14.9c.5.6 1.2 1.1 2.1 1.4s1.6.5 2.4.5c1.7 0 3.1-.6 4.2-1.8s1.6-2.8 1.6-4.8-.5-3.6-1.6-4.8c-1.1-1.2-2.5-1.8-4.2-1.8-.8 0-1.6.2-2.4.5s-1.5.8-2.1 1.4v9.4zM274 251c0 1.6-.3 3-.8 4.3s-1.2 2.4-2.2 3.3-2.1 1.7-3.4 2.2c-1.3.5-2.8.8-4.4.8-1.6 0-3-.3-4.3-.8-1.3-.5-2.4-1.3-3.4-2.2-.9-.9-1.7-2.1-2.2-3.3s-.8-2.7-.8-4.3c0-1.5.3-3 .8-4.3.5-1.3 1.2-2.5 2.2-3.4.9-1 2.1-1.7 3.4-2.2s2.8-.8 4.3-.8c1.6 0 3.1.3 4.4.8s2.4 1.3 3.4 2.2 1.7 2.1 2.2 3.4c.5 1.3.8 2.8.8 4.3zm-4.6 0c0-.9-.1-1.8-.4-2.6-.3-.8-.7-1.5-1.2-2.1-.5-.6-1.2-1-1.9-1.4-.8-.3-1.6-.5-2.6-.5s-1.8.2-2.6.5-1.4.8-1.9 1.4c-.5.6-.9 1.3-1.2 2.1-.3.8-.4 1.7-.4 2.6 0 1 .1 1.8.4 2.6.3.8.7 1.5 1.2 2.1.5.6 1.2 1.1 1.9 1.4s1.6.5 2.6.5c.9 0 1.8-.2 2.6-.5s1.4-.8 1.9-1.4c.5-.6.9-1.3 1.2-2.1.3-.8.4-1.6.4-2.6zM296.8 261.2h-4.5v-12.5c0-1.6-.3-2.7-.9-3.3s-1.5-.9-2.6-.9c-1.7 0-3 .7-4.1 2-1.1 1.4-1.6 3.2-1.6 5.6v9.1h-4.5v-20.3h4.5v5.1c.5-1.8 1.3-3.1 2.5-4.1 1.2-1 2.7-1.5 4.5-1.5 2.1 0 3.7.7 4.9 2 1.2 1.4 1.8 3.4 1.8 6.2v12.6z"/></g></svg>