<?xml version="1.0" encoding="utf-8"?>
<!-- Generator: Adobe Illustrator 25.0.1, SVG Export Plug-In . SVG Version: 6.00 Build 0)  -->
<svg version="1.1" id="Layer_1" xmlns="http://www.w3.org/2000/svg" xmlns:xlink="http://www.w3.org/1999/xlink" x="0px" y="0px"
	 viewBox="0 0 562.3 571.9" style="enable-background:new 0 0 562.3 571.9;" xml:space="preserve">
<style type="text/css">
	.st0{fill:#BF271B;}
	.st1{fill:#FFFFFF;}
</style>
<path class="st0" d="M347,37.2C277.9,34.8,209.3,50.9,148.6,84C65.2,129.8-3,215.6,0.1,310.7c2.9,89.4,67.8,167,145.2,212
	c67.4,39.2,148,58.9,224.6,44.6s147.8-65.5,176.7-138c33.2-83.4,8.2-177.8-22.6-262.1c-24.2-66.4-58.5-138.4-124.9-163
	c-9.2-3.4-19.3-5.7-28.8-3.2c-17.1,4.5-26.8,24.1-25.8,41.8s10.2,33.8,19.7,48.8"/>
<g>
	<path class="st1" d="M146.8,226.7v35.6h-7.4v-35.6H146.8z M166.3,241.4v6H143v-6H166.3z M169.9,226.7v35.6h-7.4v-35.6H169.9z"/>
	<path class="st1" d="M190.7,262.9c-2.8,0-5.3-0.6-7.4-1.7c-2.1-1.1-3.7-2.7-4.9-4.8c-1.2-2.1-1.7-4.6-1.7-7.6
		c0-2.9,0.6-5.5,1.7-7.6c1.2-2.1,2.8-3.7,4.8-4.8c2.1-1.1,4.4-1.7,7.1-1.7c2.7,0,5.1,0.5,7,1.6c1.9,1.1,3.4,2.6,4.4,4.5
		c1,1.9,1.5,4,1.5,6.4c0,0.7,0,1.4-0.1,2.1c0,0.6-0.1,1.2-0.2,1.7h-21.5v-5.1h18.3l-3.6,1.3c0-2.3-0.5-4-1.5-5.2
		c-1-1.2-2.5-1.8-4.3-1.8c-1.4,0-2.5,0.3-3.5,1c-1,0.6-1.7,1.6-2.2,2.9c-0.5,1.3-0.8,2.9-0.8,4.8c0,1.9,0.3,3.5,0.8,4.7
		c0.6,1.2,1.3,2.2,2.4,2.8c1,0.6,2.3,0.9,3.7,0.9c1.6,0,2.9-0.3,3.8-0.9c1-0.6,1.7-1.5,2.3-2.5l5.9,2.3c-0.6,1.4-1.4,2.6-2.6,3.6
		c-1.2,1-2.6,1.8-4.2,2.3C194.2,262.6,192.5,262.9,190.7,262.9z"/>
	<path class="st1" d="M224.8,245.1c0-1.5-0.4-2.8-1.3-3.6c-0.9-0.9-2-1.3-3.5-1.3c-1.3,0-2.5,0.3-3.5,1c-1,0.7-1.7,1.8-2.2,3.4
		l-6.3-1.9c0.6-2.4,2-4.3,4-5.7c2.1-1.4,4.8-2.2,8.3-2.2c2.4,0,4.4,0.4,6.2,1.1c1.8,0.7,3.1,1.8,4.1,3.3c1,1.5,1.5,3.3,1.5,5.6v11
		c0,1.4,0.6,2,1.9,2c0.6,0,1.2-0.1,1.7-0.3l-0.4,4.6c-0.9,0.5-2.1,0.7-3.5,0.7c-1.3,0-2.4-0.2-3.4-0.6c-1-0.4-1.8-1.1-2.4-2
		c-0.6-0.9-0.9-2-0.9-3.3v-0.2l1.3-0.2c-0.2,1.4-0.8,2.5-1.8,3.5c-1,1-2.1,1.7-3.5,2.2c-1.4,0.5-2.8,0.8-4.3,0.8
		c-1.8,0-3.4-0.3-4.7-0.8s-2.4-1.4-3.1-2.5c-0.7-1.1-1.1-2.4-1.1-4c0-2,0.6-3.7,1.9-4.9c1.3-1.3,3.1-2.1,5.6-2.6l10.1-2l-0.1,4.6
		l-6.5,1.3c-1.2,0.3-2.1,0.6-2.8,1c-0.6,0.4-0.9,1.1-0.9,2c0,0.9,0.3,1.6,1,2.1c0.7,0.5,1.5,0.7,2.4,0.7c0.8,0,1.5-0.1,2.2-0.3
		c0.7-0.2,1.4-0.5,1.9-0.9c0.6-0.4,1-0.9,1.3-1.6c0.3-0.7,0.5-1.5,0.5-2.5V245.1z"/>
	<path class="st1" d="M247.6,223.6V254c0,1.3,0.2,2.1,0.6,2.6c0.4,0.5,1.2,0.8,2.2,0.8c0.6,0,1.1,0,1.5-0.1c0.4-0.1,0.9-0.2,1.5-0.4
		l-0.6,4.9c-0.6,0.4-1.4,0.6-2.3,0.8c-0.9,0.2-1.8,0.3-2.7,0.3c-2.6,0-4.5-0.6-5.7-1.9c-1.2-1.3-1.8-3.3-1.8-6.1v-31.3H247.6z"/>
	<path class="st1" d="M274.8,235.4v5.5h-21v-5.5H274.8z M266.1,227.1v26.4c0,1.3,0.3,2.2,1,2.8c0.7,0.6,1.6,0.9,2.7,0.9
		c0.9,0,1.7-0.1,2.4-0.4c0.7-0.3,1.3-0.6,1.8-1.1l1.2,4.9c-0.9,0.7-1.9,1.2-3.2,1.6c-1.3,0.4-2.7,0.6-4.1,0.6
		c-1.8,0-3.4-0.3-4.8-0.8c-1.4-0.5-2.5-1.4-3.2-2.6c-0.8-1.2-1.2-2.8-1.2-4.7v-25.6L266.1,227.1z"/>
	<path class="st1" d="M280.2,262.3v-38.8h7.4V240c0.9-1.7,2.1-3,3.6-3.9c1.5-0.8,3.2-1.3,5.1-1.3c1.9,0,3.5,0.4,5,1.1
		c1.5,0.7,2.6,1.8,3.5,3.3c0.8,1.5,1.3,3.3,1.3,5.5v17.7h-7.4v-15.5c0-2.3-0.5-3.9-1.3-4.8c-0.9-0.9-2-1.3-3.5-1.3c-1,0-2,0.2-3,0.7
		c-1,0.5-1.7,1.3-2.3,2.4c-0.6,1.1-0.9,2.5-0.9,4.3v14.2H280.2z"/>
	<path class="st1" d="M325.9,234.8c2.4,0,4.5,0.4,6.1,1.1s3,1.7,4,2.9c1,1.2,1.8,2.5,2.2,4l-6.9,2.5c-0.4-1.6-1-2.8-1.8-3.7
		c-0.9-0.8-2-1.2-3.5-1.2c-1.4,0-2.5,0.3-3.5,0.9c-1,0.6-1.7,1.6-2.2,2.9c-0.5,1.3-0.8,2.9-0.8,4.8c0,1.9,0.3,3.5,0.8,4.7
		c0.5,1.3,1.3,2.2,2.3,2.8c1,0.6,2.1,0.9,3.5,0.9c1.1,0,2-0.2,2.8-0.6c0.8-0.4,1.4-0.9,1.9-1.6c0.5-0.7,0.8-1.6,1-2.6l6.7,2.2
		c-0.4,1.6-1.1,3-2.2,4.3c-1.1,1.2-2.5,2.2-4.2,2.9c-1.7,0.7-3.7,1-5.9,1c-2.8,0-5.2-0.6-7.3-1.7c-2.1-1.1-3.8-2.7-4.9-4.8
		c-1.2-2.1-1.7-4.6-1.7-7.6c0-2.9,0.6-5.5,1.7-7.6c1.2-2.1,2.8-3.7,4.9-4.8C320.8,235.4,323.2,234.8,325.9,234.8z"/>
	<path class="st1" d="M359.4,245.1c0-1.5-0.4-2.8-1.3-3.6c-0.9-0.9-2-1.3-3.5-1.3c-1.3,0-2.5,0.3-3.5,1c-1,0.7-1.7,1.8-2.2,3.4
		l-6.3-1.9c0.6-2.4,2-4.3,4-5.7c2.1-1.4,4.8-2.2,8.3-2.2c2.4,0,4.4,0.4,6.2,1.1c1.8,0.7,3.1,1.8,4.1,3.3c1,1.5,1.5,3.3,1.5,5.6v11
		c0,1.4,0.6,2,1.9,2c0.6,0,1.2-0.1,1.7-0.3l-0.4,4.6c-0.9,0.5-2.1,0.7-3.5,0.7c-1.3,0-2.4-0.2-3.4-0.6c-1-0.4-1.8-1.1-2.4-2
		c-0.6-0.9-0.9-2-0.9-3.3v-0.2l1.3-0.2c-0.2,1.4-0.8,2.5-1.8,3.5c-1,1-2.1,1.7-3.5,2.2s-2.8,0.8-4.3,0.8c-1.8,0-3.4-0.3-4.7-0.8
		c-1.3-0.6-2.4-1.4-3.1-2.5c-0.7-1.1-1.1-2.4-1.1-4c0-2,0.6-3.7,1.9-4.9c1.3-1.3,3.1-2.1,5.6-2.6l10.1-2l-0.1,4.6l-6.5,1.3
		c-1.2,0.3-2.1,0.6-2.8,1c-0.6,0.4-0.9,1.1-0.9,2c0,0.9,0.3,1.6,1,2.1c0.7,0.5,1.5,0.7,2.4,0.7c0.8,0,1.5-0.1,2.2-0.3
		c0.7-0.2,1.4-0.5,1.9-0.9c0.6-0.4,1-0.9,1.3-1.6c0.3-0.7,0.5-1.5,0.5-2.5V245.1z"/>
	<path class="st1" d="M375,262.3v-27h6.4l0.5,5.3c0.7-1.9,1.8-3.3,3.2-4.3c1.4-1,3.1-1.5,5.2-1.5c0.6,0,1.2,0.1,1.7,0.2
		s0.9,0.3,1.2,0.4l-0.9,6.2c-0.4-0.1-0.8-0.3-1.3-0.3c-0.5-0.1-1.2-0.1-2-0.1c-1.1,0-2.1,0.3-3.1,0.8c-1,0.5-1.8,1.3-2.5,2.4
		c-0.6,1.1-1,2.4-1,4v14H375z"/>
	<path class="st1" d="M409.8,262.9c-2.8,0-5.3-0.6-7.4-1.7c-2.1-1.1-3.7-2.7-4.9-4.8c-1.2-2.1-1.7-4.6-1.7-7.6
		c0-2.9,0.6-5.5,1.7-7.6c1.2-2.1,2.8-3.7,4.8-4.8c2.1-1.1,4.4-1.7,7.1-1.7c2.7,0,5.1,0.5,7,1.6c1.9,1.1,3.4,2.6,4.4,4.5
		s1.5,4,1.5,6.4c0,0.7,0,1.4-0.1,2.1c0,0.6-0.1,1.2-0.2,1.7h-21.5v-5.1h18.3l-3.6,1.3c0-2.3-0.5-4-1.5-5.2c-1-1.2-2.5-1.8-4.3-1.8
		c-1.4,0-2.5,0.3-3.5,1c-1,0.6-1.7,1.6-2.2,2.9c-0.5,1.3-0.8,2.9-0.8,4.8c0,1.9,0.3,3.5,0.8,4.7c0.6,1.2,1.3,2.2,2.4,2.8
		c1,0.6,2.3,0.9,3.7,0.9c1.6,0,2.9-0.3,3.8-0.9c1-0.6,1.7-1.5,2.3-2.5l5.9,2.3c-0.6,1.4-1.4,2.6-2.6,3.6c-1.2,1-2.6,1.8-4.2,2.3
		C413.3,262.6,411.6,262.9,409.8,262.9z"/>
	<path class="st1" d="M178.1,291.5v35.6h-6.7v-18.6l0.4-10.4h-0.1l-9.9,29h-6.1l-9.8-29h-0.1l0.4,10.4v18.6h-6.7v-35.6h10.8
		l6.4,19.4l2.3,8h0.1l2.3-8l6.4-19.5H178.1z"/>
	<path class="st1" d="M198.6,299.6c2.7,0,5.1,0.6,7.2,1.7c2.1,1.1,3.7,2.7,4.9,4.8c1.2,2.1,1.8,4.6,1.8,7.6c0,2.9-0.6,5.4-1.8,7.5
		c-1.2,2.1-2.8,3.7-4.9,4.8c-2.1,1.1-4.5,1.7-7.2,1.7c-2.7,0-5.1-0.6-7.2-1.7c-2.1-1.1-3.7-2.7-4.9-4.8c-1.2-2.1-1.8-4.6-1.8-7.5
		c0-2.9,0.6-5.5,1.8-7.6c1.2-2.1,2.8-3.7,4.9-4.8C193.5,300.1,195.9,299.6,198.6,299.6z M198.6,305.1c-1.4,0-2.5,0.3-3.5,0.9
		c-1,0.6-1.7,1.6-2.2,2.8c-0.5,1.3-0.8,2.8-0.8,4.7s0.3,3.5,0.8,4.7c0.5,1.3,1.2,2.2,2.2,2.8c1,0.6,2.1,0.9,3.5,0.9
		c1.3,0,2.5-0.3,3.4-0.9c1-0.6,1.7-1.6,2.2-2.8c0.5-1.3,0.8-2.8,0.8-4.7s-0.3-3.5-0.8-4.7c-0.5-1.3-1.2-2.2-2.2-2.8
		C201.1,305.4,199.9,305.1,198.6,305.1z"/>
	<path class="st1" d="M234.5,327.6c-1.7,0-3.2-0.4-4.5-1.1c-1.3-0.7-2.5-1.7-3.3-2.9c-0.9-1.2-1.5-2.6-1.8-4.2l0.8-1l-0.4,8.6h-6.5
		v-38.8h7.4v19.4l-0.7-1.1c0.6-2,1.7-3.7,3.3-5c1.6-1.3,3.6-2,6.1-2c2.1,0,4,0.6,5.8,1.7c1.7,1.1,3.1,2.7,4.1,4.8
		c1,2.1,1.5,4.6,1.5,7.6c0,2.9-0.5,5.4-1.5,7.5c-1,2.1-2.4,3.7-4.1,4.8C238.7,327.1,236.7,327.6,234.5,327.6z M232.3,322
		c2,0,3.5-0.7,4.7-2.1c1.1-1.4,1.7-3.5,1.7-6.2s-0.6-4.8-1.7-6.2c-1.1-1.4-2.7-2.1-4.6-2.1c-1.3,0-2.4,0.3-3.3,1
		c-0.9,0.7-1.7,1.7-2.2,2.9c-0.5,1.3-0.8,2.8-0.8,4.5c0,1.8,0.3,3.3,0.8,4.5c0.5,1.2,1.3,2.2,2.2,2.8C230,321.6,231,322,232.3,322z"
		/>
	<path class="st1" d="M256.2,296.2c-1.5,0-2.7-0.3-3.5-1s-1.1-1.6-1.1-2.9c0-1.3,0.4-2.3,1.1-3c0.8-0.7,1.9-1,3.5-1
		c1.5,0,2.7,0.3,3.5,1c0.8,0.7,1.1,1.7,1.1,3c0,1.3-0.4,2.3-1.1,2.9S257.7,296.2,256.2,296.2z M259.8,300.1v27h-7.4v-27H259.8z"/>
	<path class="st1" d="M274.9,288.3v30.5c0,1.3,0.2,2.1,0.6,2.6s1.2,0.8,2.2,0.8c0.6,0,1.1,0,1.5-0.1c0.4-0.1,0.9-0.2,1.5-0.4
		l-0.6,4.9c-0.6,0.4-1.4,0.6-2.3,0.8c-0.9,0.2-1.8,0.3-2.7,0.3c-2.6,0-4.5-0.6-5.7-1.9c-1.2-1.3-1.8-3.3-1.8-6.1v-31.3H274.9z"/>
	<path class="st1" d="M297.4,327.6c-2.8,0-5.3-0.6-7.4-1.7c-2.1-1.1-3.7-2.7-4.9-4.8c-1.2-2.1-1.7-4.6-1.7-7.6s0.6-5.5,1.7-7.6
		c1.2-2.1,2.8-3.7,4.8-4.8c2.1-1.1,4.4-1.7,7.1-1.7c2.7,0,5.1,0.5,7,1.6c1.9,1.1,3.4,2.6,4.4,4.5c1,1.9,1.5,4,1.5,6.4
		c0,0.7,0,1.4-0.1,2c0,0.6-0.1,1.2-0.2,1.7h-21.5v-5.1h18.3l-3.6,1.3c0-2.3-0.5-4-1.5-5.2c-1-1.2-2.5-1.8-4.3-1.8
		c-1.4,0-2.5,0.3-3.5,1c-1,0.6-1.7,1.6-2.2,2.9c-0.5,1.3-0.8,2.9-0.8,4.8c0,1.9,0.3,3.5,0.8,4.7c0.6,1.2,1.3,2.2,2.4,2.8
		c1,0.6,2.3,0.9,3.7,0.9c1.6,0,2.9-0.3,3.8-0.9c1-0.6,1.7-1.5,2.3-2.5l5.9,2.3c-0.6,1.4-1.4,2.6-2.6,3.6s-2.6,1.8-4.2,2.3
		C300.9,327.4,299.2,327.6,297.4,327.6z"/>
	<path class="st1" d="M327.8,327.1l13-35.6h8.9l13,35.6H355l-8.1-24.2l-1.6-5.4h-0.1l-1.5,5.3l-8.2,24.3H327.8z M335.5,318.4v-5.5
		H355v5.5H335.5z"/>
	<path class="st1" d="M367.2,338.4v-38.3h6.6l0.5,8.6l-0.9-1c0.3-1.6,0.9-3,1.8-4.2c0.9-1.2,2-2.2,3.4-2.9c1.4-0.7,2.9-1.1,4.6-1.1
		c2.2,0,4.2,0.6,5.9,1.7c1.7,1.1,3.1,2.7,4.1,4.8c1,2.1,1.5,4.6,1.5,7.5c0,3-0.5,5.5-1.5,7.6c-1,2.1-2.4,3.7-4.1,4.8
		c-1.7,1.1-3.7,1.7-6,1.7c-2.4,0-4.3-0.7-5.9-2c-1.6-1.3-2.6-3-3.2-5l0.7-1.1v18.9H367.2z M380.9,322c2,0,3.5-0.7,4.7-2.1
		c1.1-1.4,1.7-3.5,1.7-6.2s-0.5-4.8-1.6-6.2c-1.1-1.4-2.6-2.1-4.6-2.1c-1.3,0-2.4,0.3-3.3,1c-1,0.7-1.7,1.6-2.2,2.9
		c-0.5,1.2-0.8,2.7-0.8,4.5c0,1.7,0.3,3.2,0.8,4.5c0.5,1.3,1.2,2.2,2.2,2.9C378.5,321.6,379.6,322,380.9,322z"/>
	<path class="st1" d="M401.1,338.4v-38.3h6.6l0.5,8.6l-0.9-1c0.3-1.6,0.9-3,1.8-4.2c0.9-1.2,2-2.2,3.4-2.9c1.4-0.7,2.9-1.1,4.6-1.1
		c2.2,0,4.2,0.6,5.9,1.7c1.7,1.1,3.1,2.7,4.1,4.8c1,2.1,1.5,4.6,1.5,7.5c0,3-0.5,5.5-1.5,7.6c-1,2.1-2.4,3.7-4.1,4.8
		c-1.7,1.1-3.7,1.7-6,1.7c-2.4,0-4.3-0.7-5.9-2c-1.6-1.3-2.6-3-3.2-5l0.7-1.1v18.9H401.1z M414.7,322c2,0,3.5-0.7,4.7-2.1
		c1.1-1.4,1.7-3.5,1.7-6.2s-0.5-4.8-1.6-6.2c-1.1-1.4-2.6-2.1-4.6-2.1c-1.3,0-2.4,0.3-3.3,1c-1,0.7-1.7,1.6-2.2,2.9
		c-0.5,1.2-0.8,2.7-0.8,4.5c0,1.7,0.3,3.2,0.8,4.5c0.5,1.3,1.2,2.2,2.2,2.9C412.4,321.6,413.5,322,414.7,322z"/>
	<path class="st1" d="M153.1,356.2c5.6,0,9.9,1.5,12.9,4.6c3.1,3.1,4.6,7.5,4.6,13.2c0,5.7-1.5,10.1-4.6,13.2
		c-3.1,3.1-7.4,4.6-12.9,4.6h-13.8v-35.6H153.1z M152.7,385.9c3.4,0,5.9-1,7.6-3c1.7-2,2.6-5,2.6-8.8c0-3.8-0.9-6.8-2.6-8.8
		c-1.7-2-4.3-3-7.6-3h-5.9v23.7H152.7z"/>
	<path class="st1" d="M189.9,392.4c-2.8,0-5.3-0.6-7.4-1.7c-2.1-1.1-3.7-2.7-4.9-4.8c-1.2-2.1-1.7-4.6-1.7-7.6s0.6-5.5,1.7-7.6
		c1.2-2.1,2.8-3.7,4.8-4.8c2.1-1.1,4.4-1.7,7.1-1.7c2.7,0,5.1,0.5,7,1.6c1.9,1.1,3.4,2.6,4.4,4.5c1,1.9,1.5,4,1.5,6.4
		c0,0.7,0,1.4-0.1,2c0,0.6-0.1,1.2-0.2,1.7h-21.5v-5.1h18.3l-3.6,1.3c0-2.3-0.5-4-1.5-5.2c-1-1.2-2.5-1.8-4.3-1.8
		c-1.4,0-2.5,0.3-3.5,1c-1,0.6-1.7,1.6-2.2,2.9c-0.5,1.3-0.8,2.9-0.8,4.8c0,1.9,0.3,3.5,0.8,4.7c0.6,1.2,1.3,2.2,2.4,2.8
		s2.3,0.9,3.7,0.9c1.6,0,2.9-0.3,3.8-0.9c1-0.6,1.7-1.5,2.3-2.5l5.9,2.3c-0.6,1.4-1.4,2.6-2.6,3.6c-1.2,1-2.6,1.8-4.2,2.3
		C193.4,392.1,191.7,392.4,189.9,392.4z"/>
	<path class="st1" d="M219.4,392.4c-2.7,0-5.2-0.5-7.5-1.5c-2.2-1-4.1-2.3-5.5-4.1l4.3-4.3c0.9,1.3,2,2.4,3.5,3.2
		c1.4,0.8,3.1,1.2,5.1,1.2c1.4,0,2.5-0.2,3.4-0.6c0.8-0.4,1.3-1.1,1.3-2c0-0.6-0.2-1.1-0.6-1.5c-0.4-0.4-1.2-0.7-2.4-1l-4.7-1
		c-3.1-0.6-5.4-1.6-6.7-2.9c-1.3-1.3-2-3-2-5.1c0-1.5,0.4-2.9,1.3-4.2c0.9-1.3,2.2-2.3,4-3.2c1.8-0.8,4-1.2,6.6-1.2
		c2.7,0,5,0.4,7,1.3c2,0.8,3.6,2.1,4.7,3.7l-4.4,4.3c-0.8-1.3-1.8-2.2-3.1-2.9c-1.3-0.7-2.6-1-4-1c-1,0-1.9,0.1-2.6,0.3
		c-0.7,0.2-1.3,0.5-1.6,0.9c-0.4,0.4-0.5,0.9-0.5,1.4c0,0.6,0.3,1.1,0.8,1.5c0.5,0.4,1.4,0.8,2.8,1.1l5.5,1.1
		c2.7,0.5,4.6,1.4,5.7,2.7c1.2,1.3,1.7,2.8,1.7,4.6c0,1.7-0.5,3.3-1.4,4.6c-0.9,1.3-2.3,2.4-4,3.2C224.2,392,222,392.4,219.4,392.4z
		"/>
	<path class="st1" d="M241,361c-1.5,0-2.7-0.3-3.5-1c-0.8-0.7-1.1-1.6-1.1-2.9c0-1.3,0.4-2.3,1.1-3c0.8-0.7,1.9-1,3.5-1
		c1.5,0,2.7,0.3,3.5,1c0.8,0.7,1.1,1.7,1.1,3c0,1.3-0.4,2.3-1.1,2.9C243.7,360.6,242.5,361,241,361z M244.6,364.8v27h-7.4v-27H244.6
		z"/>
	<path class="st1" d="M268.5,386.7c2.9,0,5.2,0.6,6.7,1.9c1.6,1.3,2.4,3,2.4,5.3c0,2.1-0.6,3.8-1.8,5.2s-2.9,2.5-5,3.2
		c-2.1,0.7-4.6,1.1-7.4,1.1c-4.6,0-8-0.6-10.2-1.9c-2.1-1.3-3.2-3-3.2-5.1c0-1.5,0.6-2.7,1.7-3.7c1.1-1,3-1.6,5.6-1.7l-0.3,0.9
		c-1.9-0.3-3.3-0.9-4.3-1.9c-1-0.9-1.5-2.2-1.5-3.8c0-1.7,0.6-3,1.9-4.1c1.3-1.1,3-1.7,5.2-1.9l3.2,1.5h-0.8
		c-1.5,0.1-2.6,0.4-3.3,0.9c-0.6,0.5-0.9,1.1-0.9,1.8c0,0.8,0.3,1.3,0.9,1.7c0.6,0.4,1.4,0.6,2.6,0.6H268.5z M263.5,364.3
		c2.5,0,4.7,0.4,6.6,1.1c1.9,0.7,3.3,1.8,4.3,3.2c1,1.4,1.5,3,1.5,4.9c0,1.9-0.5,3.5-1.5,4.9c-1,1.4-2.4,2.4-4.3,3.2
		c-1.9,0.7-4,1.1-6.6,1.1c-4,0-7-0.8-9.1-2.5c-2.1-1.6-3.2-3.9-3.2-6.7c0-1.9,0.5-3.5,1.5-4.9c1-1.4,2.4-2.4,4.2-3.2
		C258.8,364.7,261,364.3,263.5,364.3z M263.5,398.3c1.9,0,3.4-0.2,4.6-0.5c1.2-0.3,2.1-0.7,2.7-1.2c0.6-0.5,0.9-1.1,0.9-1.7
		c0-0.7-0.3-1.2-0.8-1.6c-0.5-0.4-1.5-0.6-2.9-0.6h-9.1c-0.9,0-1.6,0.2-2.1,0.6c-0.6,0.4-0.8,1-0.8,1.8c0,1,0.7,1.8,2,2.4
		S261.1,398.3,263.5,398.3z M263.5,368.9c-1.4,0-2.6,0.4-3.6,1.2c-0.9,0.8-1.4,1.9-1.4,3.3c0,1.4,0.5,2.5,1.4,3.3
		c0.9,0.8,2.1,1.2,3.6,1.2c1.4,0,2.6-0.4,3.5-1.2c0.9-0.8,1.4-1.9,1.4-3.3c0-1.4-0.5-2.5-1.4-3.3
		C266.1,369.3,264.9,368.9,263.5,368.9z M277.3,358.4l0.9,5.3c-0.1,0-0.3,0-0.5,0c-0.2,0-0.3,0-0.5,0c-1.7,0-2.9,0.4-3.7,1.1
		c-0.8,0.7-1.2,1.8-1.2,3l-3-1.2c0-1.4,0.3-2.8,0.9-4c0.6-1.2,1.4-2.2,2.6-3c1.1-0.8,2.5-1.1,4.1-1.1c0.1,0,0.2,0,0.3,0
		S277.2,358.4,277.3,358.4z"/>
	<path class="st1" d="M282.1,391.8v-27h6.6l0.4,8.1l-0.9-0.9c0.4-1.8,1.1-3.2,2-4.4c0.9-1.2,2.1-2,3.4-2.6s2.8-0.8,4.5-0.8
		c1.9,0,3.5,0.4,5,1.1s2.6,1.8,3.5,3.3c0.8,1.5,1.3,3.3,1.3,5.5v17.7h-7.4v-15.6c0-2.3-0.5-3.9-1.3-4.8c-0.9-0.9-2.1-1.3-3.5-1.3
		c-1,0-2,0.2-2.9,0.7c-1,0.5-1.7,1.3-2.3,2.3c-0.6,1.1-0.9,2.5-0.9,4.3v14.3H282.1z"/>
</g>
</svg>
