<?xml version="1.0" encoding="utf-8"?>
<!-- Generator: Adobe Illustrator 24.0.1, SVG Export Plug-In . SVG Version: 6.00 Build 0)  -->
<svg version="1.1" id="Layer_1" xmlns="http://www.w3.org/2000/svg" xmlns:xlink="http://www.w3.org/1999/xlink" x="0px" y="0px"
	 viewBox="0 0 372.2 424.6" style="enable-background:new 0 0 372.2 424.6;" xml:space="preserve">
<style type="text/css">
	.st0{fill:#273F84;}
	.st1{fill:#FFFFFF;}
</style>
<title>HowToTampon</title>
<path class="st0" d="M188.5,347.2C108.8,324,41.6,261.4,12.6,183.7C-3.6,140.1-7.1,87.9,19.7,49.9c18.5-26.2,49.2-42,80.8-47.5
	c70-12.3,142.5,23.4,188.3,77.8s68.2,124.9,79.5,195.1c6.3,39.2,8,83.7-17.9,113.8c-16.2,18.8-40.7,28.5-65.2,32.7
	C180.3,440.1,80.5,370,62.2,265.1c-0.3-1.5-0.5-2.9-0.7-4.4"/>
<g>
	<path class="st1" d="M101.9,165.2H85v-26.5h4.2v22.7h12.7V165.2z"/>
	<path class="st1" d="M122.6,165.2h-12.7v-3.8h4.2V150h-4.2v-3.8h8.4v15.1h4.3V165.2z M118.7,143.8h-5.1v-5.1h5.1V143.8z"/>
	<path class="st1" d="M147.8,159.5c0,1.2-0.3,2.2-0.8,3c-0.6,0.8-1.3,1.4-2.1,1.9c-0.9,0.5-1.8,0.8-2.9,1s-2.1,0.3-3.2,0.3
		c-1.7,0-3.4-0.2-5.1-0.7s-3.2-1.2-4.4-2l1.7-3.4c1.5,0.9,2.9,1.5,4.1,1.8c1.2,0.4,2.5,0.5,3.7,0.5c1.7,0,2.9-0.2,3.7-0.5
		c0.8-0.4,1.2-0.9,1.2-1.5c0-0.3-0.1-0.6-0.3-0.8c-0.2-0.2-0.6-0.4-1.1-0.6c-0.5-0.2-1.2-0.3-2-0.5s-1.8-0.3-3.1-0.5
		c-1-0.2-1.9-0.4-2.8-0.6c-0.9-0.2-1.6-0.6-2.3-1c-0.7-0.4-1.2-1-1.6-1.6c-0.4-0.7-0.6-1.5-0.6-2.5c0-1,0.3-1.9,0.8-2.7
		c0.5-0.8,1.2-1.4,2.1-1.9c0.9-0.5,1.8-0.8,2.9-1.1c1.1-0.2,2.1-0.3,3.2-0.3c1.5,0,2.9,0.2,4.3,0.6s2.6,0.9,3.7,1.7l-1.7,3.2
		c-1.1-0.7-2.1-1.1-3.1-1.4c-1-0.2-2.1-0.4-3.3-0.4c-0.5,0-1,0-1.6,0.1s-1,0.2-1.5,0.3c-0.5,0.2-0.8,0.4-1.1,0.6
		c-0.3,0.3-0.5,0.6-0.5,1c0,0.5,0.4,0.9,1.3,1.2c0.9,0.3,2.4,0.6,4.5,0.9c1.2,0.2,2.2,0.4,3.2,0.6c1,0.3,1.8,0.6,2.5,1
		c0.7,0.4,1.2,1,1.6,1.6C147.6,157.7,147.8,158.5,147.8,159.5z"/>
	<path class="st1" d="M171.2,159.2c-0.2,2-1,3.6-2.3,4.7c-1.3,1.2-3,1.7-5,1.7c-1.1,0-2.1-0.2-3-0.5c-0.9-0.4-1.7-0.9-2.4-1.5
		c-0.6-0.7-1.2-1.4-1.5-2.3c-0.4-0.9-0.5-1.9-0.5-3V150h-4.3v-3.8h4.3v-7.6h4.2v7.6h7.9v3.8h-7.9v8.2c0,1.2,0.3,2.1,0.9,2.7
		c0.6,0.6,1.4,0.9,2.4,0.9c1.2,0,2.1-0.3,2.7-1s0.9-1.5,1-2.5L171.2,159.2z"/>
	<path class="st1" d="M178.7,157.3c0.2,1.3,0.8,2.4,1.9,3.3c1,0.9,2.4,1.3,4.2,1.3c1.4,0,2.6-0.2,3.6-0.6s1.9-1,2.6-1.7l2.2,3
		c-1.2,1.2-2.5,2-3.9,2.5c-1.4,0.4-2.8,0.7-4.5,0.7c-1.5,0-2.8-0.2-4.1-0.7s-2.3-1.2-3.3-2c-0.9-0.9-1.6-1.9-2.2-3.1
		c-0.5-1.2-0.8-2.5-0.8-4c0-1.4,0.2-2.8,0.7-4c0.5-1.2,1.2-2.3,2-3.1c0.9-0.9,1.9-1.6,3.1-2.1s2.6-0.7,4-0.7c1.5,0,2.9,0.3,4.2,0.8
		c1.2,0.5,2.3,1.3,3.2,2.3c0.9,1,1.6,2.2,2.1,3.6c0.5,1.4,0.8,3,0.8,4.8H178.7z M189.8,153.6c-0.2-1.2-0.8-2.2-1.9-2.9
		c-1-0.7-2.2-1.1-3.6-1.1s-2.5,0.4-3.6,1.1c-1.1,0.7-1.7,1.7-1.9,2.9H189.8z"/>
	<path class="st1" d="M215.4,165.2h-4.2v-11.7c0-1.5-0.3-2.5-0.8-3.1c-0.6-0.6-1.4-0.9-2.4-0.9c-1.6,0-2.8,0.6-3.8,1.9
		c-1,1.3-1.5,3-1.5,5.2v8.5h-4.2v-18.9h4.2v4.8c0.4-1.6,1.2-2.9,2.3-3.8c1.1-0.9,2.5-1.4,4.2-1.4c1.9,0,3.5,0.6,4.5,1.9
		c1.1,1.3,1.6,3.2,1.6,5.8V165.2z"/>
	<path class="st1" d="M260.8,155.1c0,3.4-0.7,6-2.1,7.8c-1.4,1.8-3.6,2.8-6.5,2.8c-2.4,0-4.3-0.6-5.9-1.8c-1.6-1.2-2.7-3.1-3.4-5.5
		l3.8-1.4c0.4,1.6,1,2.8,1.9,3.7c0.9,0.9,2.1,1.3,3.6,1.3c0.9,0,1.7-0.2,2.2-0.6s1-0.9,1.4-1.5c0.3-0.6,0.6-1.3,0.7-2.2
		c0.1-0.8,0.2-1.7,0.2-2.6v-16.4h4.2V155.1z"/>
	<path class="st1" d="M265.5,159.7c0-1.1,0.3-2.1,0.9-2.9c0.6-0.8,1.4-1.5,2.3-2.1c1-0.6,2.1-1,3.3-1.2c1.3-0.3,2.5-0.4,3.8-0.4
		c0.7,0,1.3,0,1.8,0c0.5,0,1,0.1,1.6,0.1v-0.8c0-1-0.4-1.7-1.1-2.2s-1.8-0.7-3-0.7c-1.1,0-2.3,0.2-3.5,0.5c-1.2,0.3-2.3,0.8-3.3,1.4
		l-1.7-3.3c1.2-0.7,2.6-1.3,4-1.7c1.4-0.4,2.9-0.6,4.5-0.6c1,0,2,0.1,3,0.3c1,0.2,1.9,0.6,2.7,1.1c0.8,0.5,1.4,1.2,1.9,2.1
		c0.5,0.8,0.7,1.9,0.7,3.1v12.7h-4.2v-2.8c-0.7,1-1.6,1.8-2.9,2.4c-1.3,0.6-2.7,0.9-4.2,0.9c-0.9,0-1.8-0.1-2.6-0.4
		s-1.5-0.6-2.1-1.1c-0.6-0.5-1.1-1.1-1.4-1.9C265.7,161.5,265.5,160.7,265.5,159.7z M273.3,161.9c0.8,0,1.6-0.1,2.3-0.3
		c0.7-0.2,1.4-0.5,1.9-0.9c0.6-0.4,1-0.8,1.3-1.3c0.3-0.5,0.5-1.1,0.5-1.7v-0.7c-0.7-0.1-1.3-0.2-1.9-0.2c-0.6,0-1.1,0-1.5,0
		c-2.1,0-3.6,0.3-4.7,0.8c-1,0.5-1.6,1.2-1.6,2C269.7,161.1,270.9,161.9,273.3,161.9z"/>
	<path class="st1" d="M307.1,146.2l-8.2,22.6c-0.6,1.6-1.5,2.8-2.7,3.4c-1.2,0.6-2.6,0.9-4.2,0.9c-0.6,0-1.2-0.1-1.8-0.2
		c-0.6-0.1-1.3-0.3-2-0.5l0.9-3.9c0.6,0.2,1.1,0.4,1.6,0.5c0.5,0.1,0.9,0.1,1.3,0.1c1.3,0,2.1-0.6,2.6-1.7l0.8-1.8l-7.2-19.4h4.4
		l5.2,14.3l4.8-14.3H307.1z"/>
	<path class="st1" d="M101.9,205.6c0,1.5-0.2,2.9-0.5,4.1c-0.3,1.2-0.8,2.3-1.5,3.1c-0.7,0.9-1.6,1.5-2.6,2
		c-1.1,0.5-2.3,0.7-3.8,0.7c-1.5,0-2.7-0.2-3.8-0.7c-1-0.5-1.9-1.1-2.6-2c-0.7-0.9-1.2-1.9-1.5-3.1c-0.3-1.2-0.5-2.6-0.5-4.1v-17
		h4.2v17.1c0,0.7,0,1.4,0.1,2.1s0.3,1.4,0.6,2c0.3,0.6,0.7,1.1,1.3,1.5c0.6,0.4,1.3,0.6,2.2,0.6c0.9,0,1.6-0.2,2.2-0.6
		c0.6-0.4,1-0.9,1.3-1.5s0.5-1.3,0.6-2s0.1-1.4,0.1-2.1v-17.1h4.2V205.6z"/>
	<path class="st1" d="M126,215.1h-8.6v-3.8h1.5l-2.8-6l-2.8,6h1.5v3.8h-8.6v-3.8h2.3l5.2-9.6l-5.1-9.3h-1.9v-3.8h8.4v3.8h-1.7
		l2.7,5.9l2.7-5.9h-1.7v-3.8h8.4v3.8h-2.1l-5.1,9.3l5.2,9.6h2.4V215.1z"/>
	<path class="st1" d="M145.2,187.3l3.1,1.5l-15.6,31.3l-3.1-1.5L145.2,187.3z"/>
	<path class="st1" d="M170,205.6c0,1.5-0.2,2.9-0.5,4.1c-0.3,1.2-0.8,2.3-1.5,3.1c-0.7,0.9-1.6,1.5-2.6,2c-1.1,0.5-2.3,0.7-3.8,0.7
		c-1.5,0-2.7-0.2-3.8-0.7c-1-0.5-1.9-1.1-2.6-2c-0.7-0.9-1.2-1.9-1.5-3.1c-0.3-1.2-0.5-2.6-0.5-4.1v-17h4.2v17.1
		c0,0.7,0,1.4,0.1,2.1s0.3,1.4,0.6,2c0.3,0.6,0.7,1.1,1.3,1.5c0.6,0.4,1.3,0.6,2.2,0.6c0.9,0,1.6-0.2,2.2-0.6c0.6-0.4,1-0.9,1.3-1.5
		s0.5-1.3,0.6-2s0.1-1.4,0.1-2.1v-17.1h4.2V205.6z"/>
	<path class="st1" d="M190.7,215.1H178v-3.8h4.2v-18.9H178v-3.8h12.7v3.8h-4.3v18.9h4.3V215.1z"/>
	<path class="st1" d="M103.8,251.7c0,1.8-0.2,3.5-0.6,5.1c-0.4,1.6-1,3-1.8,4.2c-0.8,1.2-1.9,2.2-3.2,2.9c-1.3,0.7-2.9,1.1-4.7,1.1
		H85v-26.5h8.6c1.8,0,3.3,0.4,4.6,1.1c1.3,0.7,2.3,1.7,3.2,2.9c0.8,1.2,1.4,2.6,1.8,4.2C103.6,248.2,103.8,249.9,103.8,251.7z
		 M99.6,251.7c0-3.1-0.5-5.4-1.6-7c-1-1.6-2.5-2.4-4.4-2.4h-4.4v18.9h4.4c1.9,0,3.4-0.8,4.4-2.5C99.1,257.1,99.6,254.7,99.6,251.7z"
		/>
	<path class="st1" d="M110.6,257.1c0.2,1.3,0.8,2.4,1.9,3.3c1,0.9,2.4,1.3,4.2,1.3c1.4,0,2.6-0.2,3.6-0.6c1-0.4,1.9-1,2.6-1.7l2.2,3
		c-1.2,1.2-2.5,2-3.9,2.5c-1.4,0.4-2.8,0.7-4.5,0.7c-1.5,0-2.8-0.2-4.1-0.7s-2.3-1.2-3.3-2c-0.9-0.9-1.6-1.9-2.2-3.1s-0.8-2.5-0.8-4
		c0-1.4,0.2-2.8,0.7-4c0.5-1.2,1.2-2.3,2-3.1s1.9-1.6,3.1-2.1s2.6-0.7,4-0.7c1.5,0,2.9,0.3,4.2,0.8c1.2,0.5,2.3,1.3,3.2,2.3
		c0.9,1,1.6,2.2,2.1,3.6c0.5,1.4,0.8,3,0.8,4.8H110.6z M121.7,253.4c-0.2-1.2-0.8-2.2-1.9-2.9c-1-0.7-2.2-1.1-3.6-1.1
		s-2.5,0.4-3.6,1.1c-1.1,0.7-1.7,1.7-1.9,2.9H121.7z"/>
	<path class="st1" d="M147.8,259.3c0,1.2-0.3,2.2-0.8,3c-0.6,0.8-1.3,1.4-2.1,1.9s-1.8,0.8-2.9,1c-1.1,0.2-2.1,0.3-3.2,0.3
		c-1.7,0-3.4-0.2-5.1-0.7s-3.2-1.2-4.4-2l1.7-3.4c1.5,0.9,2.9,1.5,4.1,1.8c1.2,0.4,2.5,0.5,3.7,0.5c1.7,0,2.9-0.2,3.7-0.5
		c0.8-0.4,1.2-0.9,1.2-1.5c0-0.3-0.1-0.6-0.3-0.8c-0.2-0.2-0.6-0.4-1.1-0.6c-0.5-0.2-1.2-0.3-2-0.5c-0.8-0.2-1.8-0.3-3.1-0.5
		c-1-0.2-1.9-0.4-2.8-0.6c-0.9-0.2-1.6-0.6-2.3-1c-0.7-0.4-1.2-1-1.6-1.6s-0.6-1.5-0.6-2.5c0-1,0.3-1.9,0.8-2.7
		c0.5-0.8,1.2-1.4,2.1-1.9c0.9-0.5,1.8-0.8,2.9-1.1c1.1-0.2,2.1-0.3,3.2-0.3c1.5,0,2.9,0.2,4.3,0.6s2.6,0.9,3.7,1.7l-1.7,3.2
		c-1.1-0.7-2.1-1.1-3.1-1.4c-1-0.2-2.1-0.4-3.3-0.4c-0.5,0-1,0-1.6,0.1c-0.5,0.1-1,0.2-1.5,0.3c-0.5,0.2-0.8,0.4-1.1,0.6
		s-0.5,0.6-0.5,1c0,0.5,0.4,0.9,1.3,1.2c0.9,0.3,2.4,0.6,4.5,0.9c1.2,0.2,2.2,0.4,3.2,0.6c1,0.2,1.8,0.6,2.5,1
		c0.7,0.4,1.2,1,1.6,1.6S147.8,258.3,147.8,259.3z"/>
	<path class="st1" d="M168,265h-12.7v-3.8h4.2v-11.4h-4.2V246h8.4v15.1h4.3V265z M164.1,243.6H159v-5.1h5.1V243.6z"/>
	<path class="st1" d="M192.7,264.8c0,1.3-0.2,2.5-0.7,3.5c-0.4,1-1.1,1.9-1.9,2.6c-0.8,0.7-1.8,1.2-2.8,1.6
		c-1.1,0.4-2.3,0.6-3.6,0.6c-3.3,0-6.1-1-8.4-3l2-3.2c1.9,1.7,4.1,2.5,6.4,2.5c1.4,0,2.6-0.4,3.5-1.1c0.9-0.7,1.3-1.8,1.3-3.3v-2
		c-0.9,0.7-1.7,1.3-2.5,1.7c-0.8,0.4-1.7,0.5-2.8,0.5c-1.2,0-2.3-0.3-3.4-0.8c-1-0.5-1.9-1.2-2.7-2.1c-0.8-0.9-1.3-1.9-1.8-3.1
		c-0.4-1.2-0.6-2.4-0.6-3.8c0-1.3,0.2-2.6,0.6-3.8c0.4-1.2,1-2.2,1.8-3.1c0.8-0.9,1.6-1.6,2.7-2.1c1-0.5,2.2-0.8,3.4-0.8
		c1.1,0,2,0.2,2.8,0.5c0.8,0.4,1.6,0.9,2.5,1.6V246h4.2V264.8z M188.5,251.1c-0.5-0.6-1.1-1-1.9-1.3s-1.6-0.4-2.3-0.4
		c-1.6,0-2.9,0.6-3.8,1.7c-1,1.1-1.5,2.5-1.5,4.2c0,0.9,0.1,1.6,0.4,2.4c0.3,0.7,0.6,1.3,1.1,1.9c0.5,0.5,1,0.9,1.7,1.2
		c0.7,0.3,1.4,0.5,2.1,0.5c0.7,0,1.5-0.2,2.3-0.5c0.8-0.3,1.4-0.7,1.9-1.3V251.1z"/>
	<path class="st1" d="M215.4,265h-4.2v-11.7c0-1.5-0.3-2.5-0.8-3.1c-0.6-0.6-1.4-0.9-2.4-0.9c-1.6,0-2.8,0.6-3.8,1.9s-1.5,3-1.5,5.2
		v8.5h-4.2V246h4.2v4.8c0.4-1.6,1.2-2.9,2.3-3.8c1.1-0.9,2.5-1.4,4.2-1.4c1.9,0,3.5,0.6,4.5,1.9c1.1,1.3,1.6,3.2,1.6,5.8V265z"/>
</g>
</svg>
