<?xml version="1.0" encoding="utf-8"?>
<!-- Generator: Adobe Illustrator 24.1.2, SVG Export Plug-In . SVG Version: 6.00 Build 0)  -->
<svg version="1.1" id="Layer_1" xmlns="http://www.w3.org/2000/svg" xmlns:xlink="http://www.w3.org/1999/xlink" x="0px" y="0px"
	 viewBox="0 0 547.3 589.3" style="enable-background:new 0 0 547.3 589.3;" xml:space="preserve">
<style type="text/css">
	.st0{fill:#231F20;}
	.st1{fill:#0F2B41;}
	.st2{fill:#FFFFFF;}
</style>
<path class="st0" d="M244.1,486.1c3.2,0,3.2-5,0-5S240.9,486.1,244.1,486.1z"/>
<path class="st1" d="M333.2,29.5c-67.7-7.4-138.9-4.5-199.6,26.4C56.4,95.2,5.5,179,0.5,265.5s33.4,173.3,97.2,232.1
	s150.6,90.1,237.3,91.6c60.2,1.1,124.7-13.8,165.2-58.3c45-49.4,50.5-122.6,45.9-189.2c-3-43.1-9.8-87.8-34.8-123
	c-17.1-24.1-41.4-41.9-65.2-59.2l-111-80.7C308.9,59.8,279.6,28.4,295,0"/>
<g>
	<path class="st2" d="M128.3,259.9h18.8v6h-26.2v-35.6h7.4C128.3,230.3,128.3,259.9,128.3,259.9z"/>
	<path class="st2" d="M156.2,235c-1.6,0-2.7-0.4-3.4-1c-0.8-0.7-1.1-1.7-1.1-2.9c0-1.3,0.4-2.3,1.1-3c0.8-0.7,1.9-1,3.4-1
		c1.6,0,2.7,0.4,3.4,1c0.8,0.7,1.1,1.7,1.1,3c0,1.3-0.4,2.3-1.1,2.9C158.9,234.7,157.7,235,156.2,235z M159.9,238.9v26.9h-7.4v-26.9
		H159.9z"/>
	<path class="st2" d="M178.5,266.4c-2.7,0-5.2-0.4-7.5-1.4c-2.2-1-4.1-2.3-5.5-4.1l4.2-4.3c0.9,1.3,2,2.4,3.4,3.2s3.2,1.2,5.1,1.2
		c1.4,0,2.6-0.2,3.4-0.6c0.9-0.4,1.2-1.1,1.2-1.9c0-0.6-0.2-1.1-0.6-1.5c-0.4-0.4-1.1-0.7-2.4-1l-4.8-1c-3.1-0.6-5.4-1.6-6.6-2.9
		c-1.3-1.3-1.9-3-1.9-5.1c0-1.5,0.4-2.8,1.3-4.1c0.9-1.3,2.2-2.4,4-3.2c1.8-0.8,4-1.2,6.6-1.2c2.7,0,5,0.4,7.1,1.2
		c2,0.9,3.5,2.1,4.7,3.7l-4.4,4.3c-0.8-1.2-1.9-2.2-3.1-2.9c-1.2-0.7-2.6-1-4.1-1c-1,0-1.9,0.1-2.6,0.4c-0.7,0.2-1.2,0.5-1.6,0.9
		s-0.5,0.9-0.5,1.4c0,0.6,0.3,1.1,0.8,1.5c0.5,0.4,1.4,0.8,2.7,1.1l5.5,1.1c2.6,0.5,4.6,1.4,5.7,2.7c1.1,1.2,1.8,2.8,1.8,4.6
		c0,1.8-0.4,3.3-1.4,4.6c-0.9,1.3-2.3,2.4-4.1,3.2C183.3,266.1,181,266.4,178.5,266.4z"/>
	<path class="st2" d="M214.5,238.9v5.5h-21v-5.5H214.5z M205.8,230.7v26.4c0,1.3,0.4,2.2,1,2.8c0.7,0.6,1.6,0.9,2.7,0.9
		c0.9,0,1.7-0.2,2.4-0.4c0.7-0.3,1.3-0.6,1.9-1.1l1.1,4.9c-0.9,0.7-1.9,1.2-3.3,1.6c-1.3,0.4-2.6,0.6-4.1,0.6
		c-1.8,0-3.4-0.3-4.8-0.8c-1.4-0.5-2.5-1.4-3.3-2.6s-1.1-2.7-1.1-4.8v-25.6L205.8,230.7z"/>
	<path class="st2" d="M232,266.4c-2.8,0-5.3-0.5-7.4-1.7c-2.1-1.1-3.7-2.7-4.9-4.8c-1.1-2.1-1.8-4.6-1.8-7.6c0-2.9,0.6-5.5,1.8-7.6
		c1.1-2.1,2.7-3.7,4.9-4.8c2-1.1,4.4-1.7,7.1-1.7c2.7,0,5,0.5,7,1.7c1.9,1.1,3.4,2.6,4.3,4.5c1,1.9,1.5,4.1,1.5,6.4
		c0,0.7,0,1.4-0.1,2c0,0.6-0.1,1.2-0.2,1.8h-21.5v-5.1h18.3l-3.5,1.3c0-2.3-0.5-4-1.5-5.2c-1.1-1.2-2.5-1.9-4.3-1.9
		c-1.3,0-2.6,0.4-3.5,1c-1,0.6-1.8,1.6-2.2,2.9c-0.5,1.2-0.8,2.9-0.8,4.9s0.3,3.4,0.8,4.7c0.5,1.2,1.3,2.2,2.4,2.7
		c1.1,0.6,2.3,0.9,3.7,0.9c1.6,0,2.8-0.3,3.8-0.9s1.8-1.4,2.3-2.6l5.9,2.3c-0.6,1.4-1.4,2.6-2.6,3.6c-1.1,1-2.6,1.8-4.1,2.3
		C235.5,266.3,233.8,266.4,232,266.4z"/>
	<path class="st2" d="M250.7,265.9V239h6.6l0.4,8.1l-0.9-0.9c0.4-1.8,1.1-3.2,2-4.3c1-1.1,2.1-2,3.4-2.6c1.3-0.5,2.8-0.8,4.4-0.8
		c1.9,0,3.5,0.4,5,1.1c1.4,0.7,2.6,1.8,3.4,3.3c0.9,1.4,1.2,3.3,1.2,5.5V266H269v-15.6c0-2.3-0.4-3.9-1.3-4.8s-2-1.3-3.5-1.3
		c-1,0-1.9,0.3-2.9,0.7s-1.8,1.2-2.3,2.4c-0.6,1.1-0.9,2.6-0.9,4.3V266L250.7,265.9L250.7,265.9z"/>
	<path class="st2" d="M308.4,230.3v22.5c0,4.2-1.2,7.6-3.6,10.1c-2.4,2.4-5.8,3.6-10.2,3.6c-3.2,0-5.7-0.6-7.7-1.8
		c-1.9-1.1-3.4-2.7-4.1-4.9c-0.8-2.1-0.9-4.5-0.4-7.1l7.2-1.3c-0.4,3.2-0.3,5.5,0.6,6.9c0.8,1.4,2.4,2.1,4.6,2.1
		c2.3,0,4-0.7,4.9-2.1c0.9-1.4,1.4-3.6,1.4-6.4v-21.4L308.4,230.3L308.4,230.3z"/>
	<path class="st2" d="M331.1,248.7c0-1.6-0.4-2.7-1.3-3.6s-2-1.3-3.4-1.3c-1.3,0-2.5,0.4-3.5,1.1c-1,0.7-1.8,1.9-2.2,3.4l-6.3-1.9
		c0.6-2.4,1.9-4.2,4.1-5.7c2-1.4,4.9-2.1,8.3-2.1c2.4,0,4.4,0.4,6.2,1.1c1.8,0.7,3.2,1.9,4.1,3.4c1,1.5,1.5,3.4,1.5,5.6v10.9
		c0,1.3,0.6,2,1.9,2c0.6,0,1.1-0.1,1.8-0.3l-0.4,4.6c-1,0.4-2.1,0.7-3.5,0.7c-1.2,0-2.4-0.2-3.4-0.6c-1-0.4-1.8-1.1-2.4-1.9
		c-0.6-0.9-0.9-1.9-0.9-3.4v-0.2l1.3-0.2c-0.2,1.3-0.8,2.6-1.8,3.4c-1,1-2.1,1.7-3.5,2.2c-1.4,0.5-2.8,0.8-4.3,0.8
		c-1.9,0-3.4-0.3-4.8-0.8c-1.3-0.5-2.4-1.4-3.1-2.5c-0.7-1.1-1.1-2.4-1.1-4c0-2,0.6-3.6,1.9-4.9c1.3-1.2,3.2-2.1,5.6-2.6l10.1-2
		l-0.1,4.6l-6.4,1.3c-1.2,0.3-2.1,0.6-2.7,1c-0.6,0.4-1,1.1-1,2c0,0.9,0.4,1.6,1,2c0.7,0.4,1.5,0.7,2.4,0.7c0.8,0,1.5-0.1,2.2-0.3
		c0.7-0.2,1.3-0.4,1.9-0.9c0.6-0.4,1.1-1,1.3-1.6c0.4-0.7,0.4-1.5,0.4-2.5L331.1,248.7L331.1,248.7z"/>
	<path class="st2" d="M370.4,238.9l-10.9,28.7c-0.9,2.5-1.9,4.4-2.9,5.8c-1.1,1.4-2.3,2.5-3.7,3.1c-1.4,0.6-3,1-4.9,1
		c-1.4,0-2.6-0.2-3.9-0.5c-1.1-0.4-2.2-0.8-3.1-1.3l1.6-5.3c0.7,0.5,1.4,0.9,2.1,1.1c0.8,0.3,1.6,0.4,2.6,0.4s1.9-0.2,2.6-0.6
		c0.7-0.4,1.3-1.3,1.9-2.6l0.9-2.3l-3-7l-8.2-20.3h8.2l5.1,16.2l1.4,5.4l1.7-5.7l4.9-15.9L370.4,238.9L370.4,238.9z"/>
	<path class="st2" d="M150.5,295v21.5c0,4.9-1.3,8.5-3.9,10.9c-2.6,2.5-6.4,3.6-11.3,3.6c-4.9,0-8.7-1.2-11.3-3.6
		c-2.6-2.4-3.9-6.1-3.9-10.9V295h7.4v21.3c0,3,0.6,5.2,1.9,6.6c1.2,1.4,3.3,2.1,5.8,2.1c2.6,0,4.6-0.7,5.8-2.1
		c1.2-1.4,1.9-3.6,1.9-6.6V295H150.5z"/>
	<path class="st2" d="M188.1,330.6h-8.8l-7.8-12.6l-7.7,12.6h-8.6l12.3-17.9L156.2,295h8.7l7.1,12l7.2-12h8.1l-11.5,17.4
		L188.1,330.6z"/>
	<path class="st2" d="M212.6,291.8l-15.6,42.5H190l15.6-42.5H212.6z"/>
	<path class="st2" d="M247.9,295v21.5c0,4.9-1.3,8.5-3.9,10.9c-2.6,2.4-6.4,3.6-11.3,3.6s-8.7-1.2-11.3-3.6s-3.9-6.1-3.9-10.9V295
		h7.4v21.3c0,3,0.6,5.2,1.9,6.6c1.2,1.4,3.3,2.1,5.8,2.1c2.6,0,4.6-0.7,5.8-2.1c1.2-1.4,1.9-3.6,1.9-6.6V295H247.9z"/>
	<path class="st2" d="M263.9,295v35.6h-7.4V295H263.9z"/>
	<path class="st2" d="M134.5,359.7c5.6,0,9.9,1.5,13,4.6c3.1,3.1,4.6,7.5,4.6,13.1s-1.5,10.1-4.6,13.1c-3.1,3.1-7.3,4.7-13,4.7
		h-13.8v-35.6H134.5z M134.2,389.4c3.4,0,5.9-1,7.6-3.1c1.7-2,2.6-4.9,2.6-8.8c0-3.9-0.9-6.8-2.6-8.8c-1.7-2-4.2-3.1-7.6-3.1h-5.9
		v23.8H134.2z"/>
	<path class="st2" d="M171.3,395.8c-2.8,0-5.3-0.5-7.4-1.7c-2.1-1.1-3.7-2.7-4.9-4.8c-1.1-2.1-1.8-4.6-1.8-7.6
		c0-2.9,0.6-5.5,1.8-7.6c1.1-2.1,2.7-3.7,4.9-4.8c2-1.1,4.4-1.7,7.1-1.7c2.7,0,5,0.5,7,1.7c1.9,1.1,3.4,2.6,4.3,4.5
		c1,1.9,1.5,4.1,1.5,6.4c0,0.7,0,1.4-0.1,2c0,0.6-0.1,1.2-0.2,1.8h-21.4V379h18.3l-3.5,1.3c0-2.3-0.5-4-1.5-5.2
		c-1.1-1.2-2.5-1.9-4.3-1.9c-1.3,0-2.6,0.4-3.5,1c-1,0.6-1.8,1.6-2.2,2.9c-0.5,1.2-0.8,2.9-0.8,4.9c0,1.9,0.3,3.4,0.8,4.7
		c0.5,1.2,1.3,2.2,2.4,2.7c1.1,0.5,2.3,0.9,3.7,0.9c1.6,0,2.8-0.3,3.8-0.9c1-0.6,1.8-1.4,2.3-2.6l5.9,2.3c-0.6,1.4-1.4,2.6-2.6,3.6
		c-1.1,1-2.6,1.8-4.1,2.3C174.9,395.5,173.2,395.8,171.3,395.8z"/>
	<path class="st2" d="M200.8,395.8c-2.7,0-5.2-0.4-7.5-1.4c-2.2-1-4.1-2.3-5.5-4.1l4.2-4.3c0.9,1.3,2,2.4,3.4,3.2
		c1.4,0.8,3.2,1.2,5.1,1.2c1.4,0,2.6-0.2,3.4-0.6c0.9-0.4,1.2-1.1,1.2-1.9c0-0.6-0.2-1.1-0.6-1.5c-0.4-0.4-1.1-0.7-2.4-1l-4.8-1
		c-3.1-0.6-5.4-1.6-6.6-2.9c-1.3-1.3-1.9-3-1.9-5.1c0-1.5,0.4-2.8,1.3-4.1c0.9-1.3,2.2-2.4,4-3.2s4-1.2,6.6-1.2c2.7,0,5,0.4,7.1,1.2
		c2,0.9,3.5,2.1,4.7,3.7l-4.4,4.3c-0.8-1.2-1.9-2.2-3.1-2.9s-2.6-1-4.1-1c-1,0-1.9,0.1-2.6,0.4c-0.7,0.2-1.2,0.5-1.6,0.9
		c-0.4,0.4-0.5,0.9-0.5,1.4c0,0.6,0.3,1.1,0.8,1.5c0.5,0.4,1.4,0.8,2.7,1.1l5.5,1.1c2.6,0.5,4.6,1.4,5.7,2.7
		c1.1,1.2,1.8,2.8,1.8,4.6s-0.4,3.3-1.4,4.6c-0.9,1.3-2.3,2.4-4.1,3.2S203.4,395.8,200.8,395.8z"/>
	<path class="st2" d="M222.3,364.5c-1.6,0-2.7-0.4-3.4-1c-0.8-0.7-1.1-1.7-1.1-2.9c0-1.3,0.4-2.3,1.1-3c0.8-0.7,1.9-1,3.4-1
		c1.6,0,2.7,0.4,3.4,1c0.8,0.7,1.1,1.7,1.1,3c0,1.3-0.4,2.3-1.1,2.9C225.1,364.1,223.9,364.5,222.3,364.5z M226.1,368.3v26.9h-7.4
		v-26.9H226.1z"/>
	<path class="st2" d="M249.9,390.3c2.9,0,5.1,0.6,6.7,1.9c1.6,1.2,2.4,3,2.4,5.3c0,2-0.6,3.8-1.8,5.2c-1.1,1.4-2.8,2.5-5,3.2
		c-2.1,0.7-4.6,1.1-7.4,1.1c-4.7,0-8-0.6-10.1-1.9c-2.1-1.3-3.2-3-3.2-5c0-1.5,0.5-2.7,1.7-3.7s3-1.6,5.6-1.7l-0.3,0.9
		c-1.9-0.4-3.3-1-4.3-1.9c-1-0.9-1.5-2.2-1.5-3.8c0-1.7,0.6-3,1.9-4.1c1.2-1.1,3-1.7,5.2-1.9l3.3,1.5h-0.8c-1.6,0.1-2.6,0.4-3.3,1
		c-0.6,0.5-1,1.1-1,1.8c0,0.8,0.3,1.3,0.9,1.7c0.6,0.4,1.4,0.5,2.6,0.5H249.9z M244.9,367.7c2.5,0,4.7,0.4,6.5,1.1
		c1.9,0.7,3.3,1.8,4.2,3.2c1,1.3,1.5,3,1.5,4.9c0,1.9-0.5,3.5-1.5,4.9s-2.4,2.4-4.2,3.2c-1.9,0.7-4.1,1.1-6.5,1.1
		c-4,0-7.1-0.8-9.2-2.5s-3.2-3.9-3.2-6.6c0-1.9,0.5-3.5,1.5-4.9c1-1.3,2.4-2.4,4.2-3.2C240.2,368.2,242.4,367.7,244.9,367.7z
		 M244.9,401.8c1.9,0,3.4-0.2,4.6-0.4c1.2-0.4,2.1-0.7,2.7-1.2c0.6-0.5,0.9-1.1,0.9-1.7c0-0.7-0.3-1.2-0.8-1.7
		c-0.5-0.4-1.5-0.6-2.9-0.6h-9.1c-0.9,0-1.6,0.2-2.1,0.6c-0.5,0.4-0.8,1.1-0.8,1.8c0,1,0.7,1.8,2,2.4
		C240.6,401.5,242.5,401.8,244.9,401.8z M244.9,372.4c-1.4,0-2.6,0.4-3.5,1.1c-1,0.8-1.4,1.9-1.4,3.3s0.4,2.5,1.4,3.4
		c1,0.8,2.1,1.2,3.5,1.2c1.4,0,2.6-0.4,3.5-1.2s1.4-1.9,1.4-3.4c0-1.4-0.4-2.5-1.4-3.3C247.5,372.8,246.4,372.4,244.9,372.4z
		 M258.7,361.9l0.9,5.3c-0.2,0-0.3,0-0.4,0s-0.4,0-0.5,0c-1.7,0-2.9,0.4-3.7,1.1c-0.8,0.7-1.2,1.8-1.2,3.1l-3-1.2
		c0-1.4,0.3-2.7,0.9-4.1c0.6-1.2,1.4-2.2,2.6-3c1.1-0.8,2.5-1.1,4.1-1.1c0.1,0,0.2,0,0.3,0C258.5,362,258.6,361.9,258.7,361.9z"/>
	<path class="st2" d="M263.5,395.3v-26.9h6.6l0.4,8.1l-0.9-0.9c0.4-1.8,1.1-3.2,2-4.3c1-1.1,2.1-2,3.4-2.6c1.3-0.5,2.8-0.8,4.4-0.8
		c1.9,0,3.5,0.4,5,1.1c1.5,0.7,2.6,1.8,3.4,3.3c0.9,1.4,1.2,3.3,1.2,5.5v17.7h-7.4v-15.7c0-2.3-0.4-3.9-1.3-4.8s-2-1.3-3.5-1.3
		c-1,0-1.9,0.3-2.9,0.7c-1,0.4-1.8,1.2-2.3,2.4c-0.6,1.1-0.9,2.6-0.9,4.3v14.3H263.5z"/>
</g>
</svg>
