<?xml version="1.0" encoding="utf-8"?>
<!-- Generator: Adobe Illustrator 24.1.2, SVG Export Plug-In . SVG Version: 6.00 Build 0)  -->
<svg version="1.1" id="Layer_1" xmlns="http://www.w3.org/2000/svg" xmlns:xlink="http://www.w3.org/1999/xlink" x="0px" y="0px"
	 viewBox="0 0 376.5 351.1" style="enable-background:new 0 0 376.5 351.1;" xml:space="preserve">
<style type="text/css">
	.st0{fill:#E5892E;}
	.st1{fill:#FFFFFF;}
</style>
<path class="st0" d="M134,82.4c-47-9-102.7,6-124.6,48.6c-15.3,29.7-10.8,66.7,5,96.1s41.4,52.3,68.3,72
	c48.5,35.3,109.2,63,167.2,47.8c63.9-16.8,104.6-81.4,119.8-145.6c9.8-41.4,11.1-87.3-10.5-124C335.6,36.9,289,15.8,243.5,5.4
	c-28.9-6.6-61-9.4-86.6,5.6s-38,54-17.3,75.2"/>
<g>
	<path class="st1" d="M94,163.9H107v4.2H88.8v-24.8H94V163.9z"/>
	<path class="st1" d="M113.4,146.6c-1.1,0-1.9-0.2-2.4-0.7c-0.5-0.5-0.8-1.1-0.8-2c0-0.9,0.3-1.6,0.8-2.1c0.5-0.5,1.3-0.7,2.4-0.7
		c1.1,0,1.9,0.2,2.4,0.7c0.5,0.5,0.8,1.2,0.8,2.1c0,0.9-0.3,1.6-0.8,2C115.3,146.3,114.5,146.6,113.4,146.6z M115.9,149.3V168h-5.1
		v-18.8H115.9z"/>
	<path class="st1" d="M128.9,168.4c-1.9,0-3.6-0.3-5.2-1c-1.6-0.7-2.8-1.6-3.8-2.9l3-3c0.6,0.9,1.4,1.6,2.4,2.2
		c1,0.6,2.2,0.9,3.6,0.9c1,0,1.8-0.1,2.3-0.4c0.6-0.3,0.9-0.7,0.9-1.4c0-0.4-0.1-0.7-0.4-1c-0.3-0.3-0.8-0.5-1.7-0.7l-3.3-0.7
		c-2.2-0.5-3.7-1.1-4.6-2c-0.9-0.9-1.4-2.1-1.4-3.5c0-1,0.3-2,0.9-2.9c0.6-0.9,1.5-1.6,2.8-2.2c1.2-0.6,2.8-0.8,4.6-0.8
		c1.9,0,3.5,0.3,4.9,0.9c1.4,0.6,2.5,1.5,3.3,2.6l-3.1,3c-0.6-0.9-1.3-1.5-2.2-2c-0.9-0.5-1.8-0.7-2.8-0.7c-0.7,0-1.3,0.1-1.8,0.2
		c-0.5,0.2-0.9,0.4-1.1,0.6c-0.3,0.3-0.4,0.6-0.4,1c0,0.4,0.2,0.7,0.5,1c0.4,0.3,1,0.5,1.9,0.7l3.8,0.8c1.9,0.4,3.2,1,4,1.9
		c0.8,0.9,1.2,2,1.2,3.2c0,1.2-0.3,2.3-1,3.2c-0.6,0.9-1.6,1.7-2.8,2.2C132.2,168.1,130.7,168.4,128.9,168.4z"/>
	<path class="st1" d="M154,149.3v3.8h-14.6v-3.8H154z M148,143.5v18.4c0,0.9,0.2,1.6,0.7,2c0.5,0.4,1.1,0.6,1.9,0.6
		c0.6,0,1.2-0.1,1.7-0.3c0.5-0.2,0.9-0.4,1.3-0.8l0.8,3.4c-0.6,0.5-1.4,0.9-2.3,1.1c-0.9,0.3-1.9,0.4-2.9,0.4
		c-1.3,0-2.4-0.2-3.3-0.6c-1-0.4-1.7-1-2.3-1.8c-0.5-0.8-0.8-1.9-0.8-3.3V145L148,143.5z"/>
	<path class="st1" d="M166.2,168.4c-2,0-3.7-0.4-5.2-1.2c-1.5-0.8-2.6-1.9-3.4-3.3c-0.8-1.5-1.2-3.2-1.2-5.3c0-2.1,0.4-3.8,1.2-5.3
		c0.8-1.5,1.9-2.6,3.4-3.3c1.4-0.8,3.1-1.2,4.9-1.2c1.9,0,3.5,0.4,4.8,1.1c1.3,0.8,2.3,1.8,3,3.1c0.7,1.3,1.1,2.8,1.1,4.5
		c0,0.5,0,1,0,1.4c0,0.5-0.1,0.9-0.1,1.2h-15v-3.6h12.7l-2.5,0.9c0-1.6-0.4-2.8-1.1-3.6c-0.7-0.9-1.7-1.3-3-1.3
		c-1,0-1.8,0.2-2.5,0.7c-0.7,0.5-1.2,1.1-1.6,2c-0.4,0.9-0.5,2-0.5,3.4c0,1.3,0.2,2.4,0.6,3.3c0.4,0.9,0.9,1.5,1.7,1.9
		c0.7,0.4,1.6,0.6,2.6,0.6c1.1,0,2-0.2,2.7-0.6c0.7-0.4,1.2-1,1.6-1.8l4.1,1.6c-0.4,1-1,1.8-1.8,2.5c-0.8,0.7-1.8,1.2-2.9,1.6
		C168.6,168.2,167.4,168.4,166.2,168.4z"/>
	<path class="st1" d="M179.2,168v-18.8h4.6l0.3,5.6l-0.6-0.6c0.3-1.2,0.8-2.2,1.4-3c0.7-0.8,1.4-1.4,2.4-1.8c0.9-0.4,2-0.6,3.1-0.6
		c1.3,0,2.5,0.3,3.5,0.8c1,0.5,1.8,1.3,2.4,2.3c0.6,1,0.9,2.3,0.9,3.8V168H192v-10.8c0-1.6-0.3-2.7-0.9-3.3
		c-0.6-0.6-1.4-0.9-2.4-0.9c-0.7,0-1.4,0.2-2,0.5c-0.7,0.3-1.2,0.9-1.6,1.6s-0.6,1.8-0.6,3v9.9H179.2z"/>
	<path class="st1" d="M219.3,143.3v15.7c0,3-0.8,5.3-2.5,7c-1.7,1.7-4.1,2.5-7.1,2.5c-2.2,0-4-0.4-5.4-1.2s-2.3-1.9-2.9-3.4
		c-0.5-1.5-0.6-3.1-0.3-5l5-0.9c-0.3,2.2-0.2,3.8,0.4,4.8c0.6,1,1.6,1.5,3.2,1.5c1.6,0,2.8-0.5,3.4-1.5c0.6-1,1-2.5,1-4.5v-14.9
		H219.3z"/>
	<path class="st1" d="M235.2,156.1c0-1.1-0.3-1.9-0.9-2.5s-1.4-0.9-2.4-0.9c-0.9,0-1.7,0.2-2.4,0.7c-0.7,0.5-1.2,1.3-1.5,2.4
		l-4.4-1.4c0.4-1.7,1.4-3,2.8-4c1.4-1,3.4-1.5,5.8-1.5c1.7,0,3.1,0.3,4.3,0.8c1.2,0.5,2.2,1.3,2.9,2.3c0.7,1,1,2.3,1,3.9v7.6
		c0,1,0.5,1.4,1.4,1.4c0.4,0,0.8-0.1,1.2-0.2l-0.3,3.2c-0.7,0.3-1.5,0.5-2.4,0.5c-0.9,0-1.7-0.2-2.4-0.5c-0.7-0.3-1.3-0.8-1.7-1.4
		s-0.6-1.4-0.6-2.3v-0.2l0.9-0.1c-0.2,1-0.6,1.8-1.2,2.4c-0.7,0.7-1.5,1.2-2.5,1.5c-1,0.4-2,0.5-3,0.5c-1.3,0-2.4-0.2-3.3-0.6
		s-1.6-1-2.1-1.7c-0.5-0.8-0.8-1.7-0.8-2.8c0-1.4,0.5-2.5,1.4-3.4c0.9-0.9,2.2-1.5,3.9-1.8l7.1-1.4l0,3.2l-4.5,0.9
		c-0.9,0.2-1.5,0.4-1.9,0.7c-0.4,0.3-0.7,0.8-0.7,1.4c0,0.6,0.2,1.1,0.7,1.4s1,0.5,1.7,0.5c0.5,0,1-0.1,1.5-0.2
		c0.5-0.1,1-0.3,1.4-0.6c0.4-0.3,0.7-0.7,0.9-1.1c0.2-0.5,0.3-1.1,0.3-1.7V156.1z"/>
	<path class="st1" d="M262.5,149.3l-7.6,19.9c-0.6,1.7-1.3,3.1-2,4.1c-0.7,1-1.6,1.7-2.6,2.2s-2.1,0.7-3.4,0.7c-1,0-1.9-0.1-2.7-0.4
		c-0.8-0.2-1.5-0.5-2.1-0.9l1.1-3.7c0.5,0.4,1,0.6,1.5,0.8c0.5,0.2,1.1,0.2,1.8,0.2c0.7,0,1.3-0.1,1.8-0.5c0.5-0.3,0.9-0.9,1.3-1.8
		l0.6-1.6l-2.1-4.9l-5.7-14.1h5.7l3.6,11.3l1,3.8l1.2-4l3.4-11H262.5z"/>
	<path class="st1" d="M109.5,188.3v15c0,3.4-0.9,5.9-2.7,7.6c-1.8,1.7-4.4,2.5-7.9,2.5c-3.5,0-6.1-0.8-7.9-2.5
		c-1.8-1.7-2.7-4.2-2.7-7.6v-15h5.2v14.8c0,2.1,0.4,3.6,1.3,4.6c0.9,1,2.2,1.5,4.1,1.5c1.8,0,3.2-0.5,4.1-1.5c0.9-1,1.3-2.5,1.3-4.6
		v-14.8H109.5z"/>
	<path class="st1" d="M135.6,213.1h-6.2l-5.4-8.8l-5.3,8.8h-5.9l8.5-12.5l-7.9-12.3h6.1l5,8.3l5.1-8.3h5.6l-8,12.1L135.6,213.1z"/>
	<path class="st1" d="M152.6,186.1l-10.9,29.6H137l10.8-29.6H152.6z"/>
	<path class="st1" d="M177.2,188.3v15c0,3.4-0.9,5.9-2.7,7.6c-1.8,1.7-4.4,2.5-7.9,2.5c-3.5,0-6.1-0.8-7.9-2.5
		c-1.8-1.7-2.7-4.2-2.7-7.6v-15h5.2v14.8c0,2.1,0.4,3.6,1.3,4.6c0.9,1,2.2,1.5,4.1,1.5c1.8,0,3.2-0.5,4.1-1.5c0.9-1,1.3-2.5,1.3-4.6
		v-14.8H177.2z"/>
	<path class="st1" d="M188.4,188.3v24.8h-5.2v-24.8H188.4z"/>
	<path class="st1" d="M98.3,233.3c3.9,0,6.9,1.1,9,3.2c2.1,2.1,3.2,5.2,3.2,9.2c0,4-1.1,7-3.2,9.2c-2.1,2.2-5.1,3.2-9,3.2h-9.6
		v-24.8H98.3z M98.1,254c2.4,0,4.1-0.7,5.3-2.1c1.2-1.4,1.8-3.5,1.8-6.1c0-2.7-0.6-4.7-1.8-6.1c-1.2-1.4-3-2.1-5.3-2.1H94V254H98.1z
		"/>
	<path class="st1" d="M123.9,258.5c-2,0-3.7-0.4-5.2-1.2c-1.5-0.8-2.6-1.9-3.4-3.3c-0.8-1.5-1.2-3.2-1.2-5.3c0-2.1,0.4-3.8,1.2-5.3
		c0.8-1.5,1.9-2.6,3.4-3.3c1.4-0.8,3.1-1.2,4.9-1.2c1.9,0,3.5,0.4,4.8,1.1c1.3,0.8,2.3,1.8,3,3.1c0.7,1.3,1.1,2.8,1.1,4.5
		c0,0.5,0,1,0,1.4c0,0.5-0.1,0.9-0.1,1.2h-15v-3.6h12.7l-2.5,0.9c0-1.6-0.4-2.8-1.1-3.6s-1.7-1.3-3-1.3c-1,0-1.8,0.2-2.5,0.7
		c-0.7,0.5-1.2,1.1-1.6,2c-0.4,0.9-0.5,2-0.5,3.4c0,1.3,0.2,2.4,0.6,3.3c0.4,0.9,0.9,1.5,1.7,1.9c0.7,0.4,1.6,0.6,2.6,0.6
		c1.1,0,2-0.2,2.7-0.6c0.7-0.4,1.2-1,1.6-1.8l4.1,1.6c-0.4,1-1,1.8-1.8,2.5c-0.8,0.7-1.8,1.2-2.9,1.6
		C126.4,258.3,125.2,258.5,123.9,258.5z"/>
	<path class="st1" d="M144.5,258.5c-1.9,0-3.6-0.3-5.2-1c-1.6-0.7-2.8-1.6-3.8-2.9l3-3c0.6,0.9,1.4,1.6,2.4,2.2
		c1,0.6,2.2,0.9,3.6,0.9c1,0,1.8-0.1,2.3-0.4c0.6-0.3,0.9-0.7,0.9-1.4c0-0.4-0.1-0.7-0.4-1c-0.3-0.3-0.8-0.5-1.7-0.7l-3.3-0.7
		c-2.2-0.5-3.7-1.1-4.6-2c-0.9-0.9-1.4-2.1-1.4-3.5c0-1,0.3-2,0.9-2.9c0.6-0.9,1.5-1.6,2.8-2.2c1.2-0.6,2.8-0.8,4.6-0.8
		c1.9,0,3.5,0.3,4.9,0.9s2.5,1.5,3.3,2.6l-3.1,3c-0.6-0.9-1.3-1.5-2.2-2c-0.9-0.5-1.8-0.7-2.8-0.7c-0.7,0-1.3,0.1-1.8,0.2
		c-0.5,0.2-0.9,0.4-1.1,0.6c-0.3,0.3-0.4,0.6-0.4,1s0.2,0.7,0.5,1c0.4,0.3,1,0.5,1.9,0.7l3.8,0.8c1.9,0.4,3.2,1,4,1.9
		c0.8,0.9,1.2,2,1.2,3.2c0,1.2-0.3,2.3-1,3.2c-0.6,0.9-1.6,1.7-2.8,2.2C147.8,258.2,146.3,258.5,144.5,258.5z"/>
	<path class="st1" d="M159.5,236.6c-1.1,0-1.9-0.2-2.4-0.7c-0.5-0.5-0.8-1.1-0.8-2c0-0.9,0.3-1.6,0.8-2.1c0.5-0.5,1.3-0.7,2.4-0.7
		c1.1,0,1.9,0.2,2.4,0.7s0.8,1.2,0.8,2.1c0,0.9-0.3,1.6-0.8,2C161.4,236.4,160.6,236.6,159.5,236.6z M162,239.3v18.8h-5.1v-18.8H162
		z"/>
	<path class="st1" d="M178.6,254.6c2,0,3.6,0.4,4.7,1.3c1.1,0.9,1.7,2.1,1.7,3.7c0,1.4-0.4,2.6-1.2,3.6c-0.8,1-2,1.7-3.5,2.2
		c-1.5,0.5-3.2,0.8-5.2,0.8c-3.2,0-5.6-0.5-7.1-1.4c-1.5-0.9-2.2-2.1-2.2-3.5c0-1,0.4-1.9,1.2-2.6c0.8-0.7,2.1-1.1,3.9-1.2l-0.2,0.6
		c-1.3-0.2-2.3-0.7-3-1.3c-0.7-0.6-1-1.5-1-2.6c0-1.2,0.4-2.1,1.3-2.8c0.9-0.7,2.1-1.2,3.6-1.3l2.3,1.1h-0.5
		c-1.1,0.1-1.8,0.3-2.3,0.7c-0.4,0.4-0.7,0.8-0.7,1.2c0,0.5,0.2,0.9,0.6,1.2c0.4,0.3,1,0.4,1.8,0.4H178.6z M175.2,239
		c1.8,0,3.3,0.3,4.6,0.8c1.3,0.5,2.3,1.2,3,2.2c0.7,1,1,2.1,1,3.4c0,1.3-0.3,2.4-1,3.4c-0.7,1-1.7,1.7-3,2.2
		c-1.3,0.5-2.8,0.8-4.6,0.8c-2.8,0-4.9-0.6-6.4-1.7c-1.5-1.1-2.2-2.7-2.2-4.6c0-1.3,0.3-2.5,1-3.4c0.7-1,1.7-1.7,2.9-2.2
		C171.9,239.2,173.4,239,175.2,239z M175.1,262.7c1.3,0,2.4-0.1,3.2-0.3c0.8-0.2,1.5-0.5,1.9-0.9c0.4-0.4,0.6-0.7,0.6-1.2
		c0-0.5-0.2-0.9-0.6-1.1c-0.4-0.3-1.1-0.4-2-0.4h-6.3c-0.6,0-1.1,0.2-1.5,0.5c-0.4,0.3-0.6,0.7-0.6,1.2c0,0.7,0.5,1.3,1.4,1.7
		C172.2,262.5,173.5,262.7,175.1,262.7z M175.2,242.2c-1,0-1.8,0.3-2.5,0.8c-0.7,0.5-1,1.3-1,2.3s0.3,1.7,1,2.3
		c0.7,0.6,1.5,0.8,2.5,0.8c1,0,1.8-0.3,2.5-0.8c0.6-0.6,1-1.3,1-2.3s-0.3-1.7-1-2.3C177,242.5,176.2,242.2,175.2,242.2z
		 M184.8,234.9l0.6,3.7c-0.1,0-0.2,0-0.3,0c-0.1,0-0.2,0-0.4,0c-1.2,0-2,0.3-2.6,0.8c-0.6,0.5-0.9,1.2-0.9,2.1l-2.1-0.9
		c0-1,0.2-1.9,0.6-2.8c0.4-0.9,1-1.6,1.8-2.1c0.8-0.5,1.7-0.8,2.8-0.8c0,0,0.1,0,0.2,0C184.6,234.9,184.7,234.9,184.8,234.9z"/>
	<path class="st1" d="M188.1,258.1v-18.8h4.6l0.3,5.6l-0.6-0.6c0.3-1.2,0.8-2.2,1.4-3c0.7-0.8,1.4-1.4,2.4-1.8s2-0.6,3.1-0.6
		c1.3,0,2.5,0.2,3.5,0.8c1,0.5,1.8,1.3,2.4,2.3c0.6,1,0.9,2.3,0.9,3.8v12.3h-5.1v-10.8c0-1.6-0.3-2.7-0.9-3.3
		c-0.6-0.6-1.4-0.9-2.4-0.9c-0.7,0-1.4,0.2-2,0.5c-0.7,0.3-1.2,0.9-1.6,1.6c-0.4,0.8-0.6,1.8-0.6,3v9.9H188.1z"/>
</g>
</svg>
