<?xml version="1.0" encoding="utf-8"?>
<!-- Generator: Adobe Illustrator 24.0.1, SVG Export Plug-In . SVG Version: 6.00 Build 0)  -->
<svg version="1.1" id="Layer_1" xmlns="http://www.w3.org/2000/svg" xmlns:xlink="http://www.w3.org/1999/xlink" x="0px" y="0px"
	 viewBox="0 0 547.3 589.3" style="enable-background:new 0 0 547.3 589.3;" xml:space="preserve">
<style type="text/css">
	.st0{fill:#231F20;}
	.st1{fill:#FFFFFF;}
</style>
<title>FISMarketing</title>
<path class="st0" d="M244.1,486.1c3.2,0,3.2-5,0-5S240.9,486.1,244.1,486.1z"/>
<path class="st0" d="M333.2,29.5c-67.7-7.4-138.9-4.5-199.6,26.4C56.4,95.2,5.5,179,0.5,265.5s33.4,173.3,97.2,232.1
	s150.6,90.1,237.3,91.6c60.2,1.1,124.7-13.8,165.2-58.3c45-49.4,50.5-122.6,45.9-189.2c-3-43.1-9.8-87.8-34.8-123
	c-17.1-24.1-41.4-41.9-65.2-59.2l-111-80.7C308.9,59.8,279.6,28.4,295,0"/>
<g>
	<path class="st1" d="M113.7,259.1H90.4v-36.5h5.8v31.3h17.6V259.1z"/>
	<path class="st1" d="M142.2,259.1h-17.5v-5.2h5.8v-15.7h-5.8V233h11.6v20.9h6V259.1z M136.9,229.6h-7.1v-7.1h7.1V229.6z"/>
	<path class="st1" d="M177,251.3c0,1.7-0.4,3.1-1.1,4.1c-0.8,1.1-1.8,1.9-3,2.6c-1.2,0.7-2.5,1.1-4,1.4s-2.9,0.4-4.4,0.4
		c-2.4,0-4.7-0.3-7.1-1c-2.4-0.7-4.4-1.6-6.1-2.7l2.4-4.8c2.1,1.2,3.9,2,5.6,2.5c1.7,0.5,3.4,0.7,5.1,0.7c2.3,0,4-0.2,5.1-0.7
		c1.1-0.5,1.6-1.2,1.6-2.1c0-0.4-0.1-0.8-0.4-1.1c-0.3-0.3-0.8-0.5-1.5-0.8c-0.7-0.2-1.6-0.5-2.7-0.7c-1.1-0.2-2.5-0.5-4.2-0.7
		c-1.3-0.2-2.6-0.5-3.8-0.8c-1.2-0.3-2.3-0.8-3.2-1.4c-0.9-0.6-1.6-1.4-2.2-2.3c-0.6-0.9-0.8-2.1-0.8-3.4c0-1.4,0.4-2.6,1.1-3.7
		c0.7-1,1.7-1.9,2.8-2.6s2.5-1.2,3.9-1.5c1.5-0.3,2.9-0.4,4.4-0.4c2.1,0,4,0.3,6,0.8s3.6,1.3,5.1,2.3l-2.3,4.5
		c-1.5-0.9-2.9-1.5-4.2-1.9c-1.4-0.3-2.9-0.5-4.5-0.5c-0.7,0-1.4,0-2.2,0.1c-0.7,0.1-1.4,0.2-2.1,0.4c-0.6,0.2-1.2,0.5-1.6,0.9
		s-0.6,0.8-0.6,1.3c0,0.7,0.6,1.3,1.8,1.7c1.2,0.4,3.3,0.9,6.2,1.3c1.6,0.2,3.1,0.5,4.4,0.9c1.3,0.3,2.5,0.8,3.4,1.4
		c1,0.6,1.7,1.3,2.2,2.3S177,249.9,177,251.3z"/>
	<path class="st1" d="M209.3,250.8c-0.3,2.7-1.4,4.9-3.2,6.5c-1.9,1.6-4.2,2.4-7,2.4c-1.5,0-2.9-0.3-4.2-0.8
		c-1.3-0.5-2.4-1.2-3.2-2.1c-0.9-0.9-1.6-2-2.1-3.2s-0.7-2.6-0.7-4.1v-11.3h-5.9V233h5.9v-10.4h5.8V233h10.9v5.2h-10.9v11.3
		c0,1.7,0.4,2.9,1.2,3.8c0.8,0.8,1.9,1.2,3.2,1.2c1.6,0,2.9-0.5,3.7-1.4c0.8-1,1.3-2.1,1.4-3.4L209.3,250.8z"/>
	<path class="st1" d="M219.5,248.3c0.3,1.8,1.1,3.3,2.6,4.5c1.4,1.2,3.3,1.8,5.8,1.8c1.9,0,3.5-0.3,4.9-0.9c1.4-0.6,2.6-1.4,3.6-2.3
		l3,4.1c-1.7,1.7-3.5,2.8-5.3,3.4c-1.9,0.6-3.9,0.9-6.1,0.9c-2,0-3.9-0.3-5.6-1s-3.2-1.6-4.5-2.8c-1.3-1.2-2.3-2.6-3-4.3
		c-0.7-1.7-1.1-3.5-1.1-5.5c0-2,0.3-3.8,1-5.5c0.7-1.7,1.6-3.1,2.8-4.3c1.2-1.2,2.6-2.2,4.3-2.9s3.5-1,5.6-1c2.1,0,4,0.4,5.7,1.1
		c1.7,0.7,3.2,1.8,4.4,3.1c1.2,1.4,2.2,3,2.9,5c0.7,2,1,4.2,1,6.7H219.5z M234.8,243.2c-0.3-1.7-1.2-3-2.6-4c-1.4-1-3.1-1.5-4.9-1.5
		c-1.8,0-3.5,0.5-4.9,1.5c-1.5,1-2.3,2.4-2.6,4H234.8z"/>
	<path class="st1" d="M270.2,259.1h-5.8V243c0-2-0.4-3.4-1.1-4.2c-0.8-0.8-1.9-1.2-3.3-1.2c-2.1,0-3.9,0.9-5.2,2.6
		c-1.4,1.7-2,4.1-2,7.2v11.7h-5.8V233h5.8v6.6c0.6-2.3,1.7-4,3.2-5.3s3.5-1.9,5.8-1.9c2.7,0,4.8,0.9,6.3,2.6s2.3,4.4,2.3,8V259.1z"
		/>
	<path class="st1" d="M332.8,245.2c0,4.6-1,8.2-3,10.8c-2,2.5-5,3.8-9,3.8c-3.2,0-6-0.8-8.2-2.5s-3.7-4.2-4.6-7.6l5.2-2
		c0.5,2.2,1.4,3.9,2.6,5.1s2.9,1.8,4.9,1.8c1.2,0,2.3-0.3,3.1-0.8c0.8-0.5,1.4-1.2,1.9-2.1c0.5-0.9,0.8-1.9,1-3
		c0.2-1.1,0.3-2.3,0.3-3.5v-22.6h5.8V245.2z"/>
	<path class="st1" d="M339.3,251.6c0-1.5,0.4-2.9,1.2-4c0.8-1.1,1.9-2.1,3.2-2.9c1.3-0.8,2.9-1.3,4.6-1.7c1.7-0.4,3.5-0.6,5.3-0.6
		c1,0,1.8,0,2.5,0.1c0.7,0,1.4,0.1,2.2,0.2v-1c0-1.4-0.5-2.4-1.6-3.1s-2.4-1-4.2-1c-1.6,0-3.2,0.2-4.8,0.7c-1.6,0.4-3.2,1.1-4.6,1.9
		l-2.4-4.5c1.7-1,3.6-1.8,5.5-2.3c2-0.6,4-0.9,6.2-0.9c1.4,0,2.8,0.2,4.2,0.5c1.4,0.3,2.6,0.8,3.7,1.6c1.1,0.7,2,1.7,2.6,2.8
		c0.7,1.2,1,2.6,1,4.3v17.5h-5.7v-3.9c-0.9,1.4-2.3,2.5-4,3.3s-3.7,1.2-5.8,1.2c-1.3,0-2.5-0.2-3.6-0.5c-1.1-0.3-2.1-0.9-2.9-1.6
		s-1.5-1.5-2-2.6C339.5,254.1,339.3,252.9,339.3,251.6z M350,254.5c1.1,0,2.2-0.1,3.2-0.4c1-0.3,1.9-0.7,2.6-1.2
		c0.8-0.5,1.4-1.1,1.8-1.9c0.4-0.7,0.7-1.5,0.7-2.4v-1c-0.9-0.1-1.8-0.2-2.6-0.3s-1.5,0-2.1,0c-2.8,0-5,0.4-6.4,1.1
		s-2.2,1.7-2.2,2.8C345,253.5,346.7,254.5,350,254.5z"/>
	<path class="st1" d="M396.6,233l-11.3,31.2c-0.8,2.3-2.1,3.8-3.7,4.6s-3.5,1.3-5.7,1.3c-0.8,0-1.6-0.1-2.5-0.2
		c-0.9-0.1-1.8-0.4-2.7-0.8l1.2-5.3c0.8,0.3,1.5,0.5,2.2,0.6c0.7,0.1,1.3,0.2,1.8,0.2c1.7,0,2.9-0.8,3.6-2.3l1-2.5l-10-26.8h6
		l7.2,19.7l6.6-19.7H396.6z"/>
	<path class="st1" d="M113.7,314.9c0,2.1-0.2,3.9-0.7,5.6c-0.5,1.7-1.2,3.1-2.1,4.3c-1,1.2-2.2,2.1-3.7,2.8c-1.5,0.7-3.2,1-5.2,1
		c-2,0-3.8-0.3-5.2-1s-2.7-1.6-3.6-2.8c-1-1.2-1.7-2.6-2.1-4.3c-0.5-1.7-0.7-3.6-0.7-5.7v-23.5h5.8v23.5c0,0.9,0.1,1.9,0.2,2.8
		c0.1,1,0.4,1.9,0.8,2.7c0.4,0.8,1,1.5,1.8,2.1c0.8,0.5,1.8,0.8,3.1,0.8c1.2,0,2.3-0.3,3.1-0.8c0.8-0.5,1.4-1.2,1.8-2
		c0.4-0.8,0.7-1.7,0.8-2.7c0.1-1,0.2-2,0.2-2.9v-23.5h5.8V314.9z"/>
	<path class="st1" d="M147,327.9H135v-5.2h2.1l-3.8-8.3l-3.8,8.3h2v5.2h-11.8v-5.2h3.2l7.1-13.3l-7-12.9h-2.6v-5.2h11.6v5.2h-2.4
		l3.7,8.1l3.8-8.1h-2.3v-5.2h11.6v5.2h-2.8l-7,12.9l7.1,13.3h3.2V327.9z"/>
	<path class="st1" d="M173.4,289.7l4.3,2.1L156.2,335l-4.3-2.1L173.4,289.7z"/>
	<path class="st1" d="M207.6,314.9c0,2.1-0.2,3.9-0.7,5.6c-0.5,1.7-1.2,3.1-2.1,4.3c-1,1.2-2.2,2.1-3.7,2.8c-1.5,0.7-3.2,1-5.2,1
		c-2,0-3.8-0.3-5.2-1s-2.7-1.6-3.6-2.8c-1-1.2-1.7-2.6-2.1-4.3c-0.5-1.7-0.7-3.6-0.7-5.7v-23.5h5.8v23.5c0,0.9,0.1,1.9,0.2,2.8
		c0.1,1,0.4,1.9,0.8,2.7c0.4,0.8,1,1.5,1.8,2.1c0.8,0.5,1.8,0.8,3.1,0.8c1.2,0,2.3-0.3,3.1-0.8c0.8-0.5,1.4-1.2,1.8-2
		c0.4-0.8,0.7-1.7,0.8-2.7c0.1-1,0.2-2,0.2-2.9v-23.5h5.8V314.9z"/>
	<path class="st1" d="M236.1,327.9h-17.5v-5.2h5.8v-26.1h-5.8v-5.2h17.5v5.2h-6v26.1h6V327.9z"/>
	<path class="st1" d="M116.3,378.4c0,2.4-0.3,4.8-0.8,7c-0.5,2.2-1.3,4.2-2.5,5.8c-1.1,1.7-2.6,3-4.4,4s-3.9,1.5-6.5,1.5H90.4v-36.5
		h11.9c2.5,0,4.6,0.5,6.4,1.5c1.8,1,3.2,2.3,4.4,4c1.1,1.7,2,3.6,2.5,5.8C116,373.7,116.3,376,116.3,378.4z M110.5,378.4
		c0-4.2-0.7-7.5-2.2-9.7c-1.4-2.2-3.5-3.3-6.1-3.3h-6.1v26.1h6.1c2.6,0,4.7-1.1,6.1-3.4C109.8,385.8,110.5,382.6,110.5,378.4z"/>
	<path class="st1" d="M125.6,385.9c0.3,1.8,1.1,3.3,2.6,4.5s3.3,1.8,5.8,1.8c1.9,0,3.5-0.3,4.9-0.9c1.4-0.6,2.6-1.4,3.6-2.3l3,4.1
		c-1.7,1.7-3.5,2.8-5.3,3.4c-1.9,0.6-3.9,0.9-6.1,0.9c-2,0-3.9-0.3-5.6-1s-3.2-1.6-4.5-2.8c-1.3-1.2-2.3-2.6-3-4.3s-1.1-3.5-1.1-5.5
		c0-2,0.3-3.8,1-5.5c0.7-1.7,1.6-3.1,2.8-4.3c1.2-1.2,2.6-2.2,4.3-2.9s3.5-1,5.6-1c2.1,0,4,0.4,5.7,1.1c1.7,0.7,3.2,1.8,4.4,3.1
		s2.2,3,2.9,5c0.7,2,1,4.2,1,6.7H125.6z M140.9,380.8c-0.3-1.7-1.2-3-2.6-4c-1.4-1-3.1-1.5-4.9-1.5c-1.8,0-3.5,0.5-4.9,1.5
		c-1.5,1-2.3,2.4-2.6,4H140.9z"/>
	<path class="st1" d="M177,388.9c0,1.7-0.4,3.1-1.1,4.1c-0.8,1.1-1.8,1.9-3,2.6c-1.2,0.7-2.5,1.1-4,1.4s-2.9,0.4-4.4,0.4
		c-2.4,0-4.7-0.3-7.1-1s-4.4-1.6-6.1-2.7l2.4-4.8c2.1,1.2,3.9,2,5.6,2.5c1.7,0.5,3.4,0.7,5.1,0.7c2.3,0,4-0.2,5.1-0.7
		c1.1-0.5,1.6-1.2,1.6-2.1c0-0.4-0.1-0.8-0.4-1.1c-0.3-0.3-0.8-0.5-1.5-0.8c-0.7-0.2-1.6-0.5-2.7-0.7c-1.1-0.2-2.5-0.5-4.2-0.7
		c-1.3-0.2-2.6-0.5-3.8-0.8c-1.2-0.3-2.3-0.8-3.2-1.4c-0.9-0.6-1.6-1.4-2.2-2.3c-0.6-0.9-0.8-2.1-0.8-3.4c0-1.4,0.4-2.6,1.1-3.7
		c0.7-1,1.7-1.9,2.8-2.6c1.2-0.7,2.5-1.2,3.9-1.5c1.5-0.3,2.9-0.4,4.4-0.4c2.1,0,4,0.3,6,0.8c1.9,0.5,3.6,1.3,5.1,2.3l-2.3,4.5
		c-1.5-0.9-2.9-1.5-4.2-1.9c-1.4-0.3-2.9-0.5-4.5-0.5c-0.7,0-1.4,0-2.2,0.1c-0.7,0.1-1.4,0.2-2.1,0.4c-0.6,0.2-1.2,0.5-1.6,0.9
		c-0.4,0.4-0.6,0.8-0.6,1.3c0,0.7,0.6,1.3,1.8,1.7s3.3,0.9,6.2,1.3c1.6,0.2,3.1,0.5,4.4,0.9c1.3,0.3,2.5,0.8,3.4,1.4
		c1,0.6,1.7,1.3,2.2,2.3S177,387.5,177,388.9z"/>
	<path class="st1" d="M204.8,396.7h-17.5v-5.2h5.8v-15.7h-5.8v-5.2h11.6v20.9h6V396.7z M199.5,367.2h-7.1v-7.1h7.1V367.2z"/>
	<path class="st1" d="M238.9,396.4c0,1.8-0.3,3.4-0.9,4.8c-0.6,1.4-1.5,2.6-2.6,3.6c-1.1,1-2.4,1.7-3.9,2.2c-1.5,0.5-3.2,0.8-5,0.8
		c-4.5,0-8.4-1.4-11.6-4.1l2.7-4.5c2.7,2.3,5.6,3.4,8.9,3.4c2,0,3.6-0.5,4.8-1.5c1.2-1,1.8-2.5,1.8-4.6v-2.8c-1.2,1-2.3,1.8-3.4,2.3
		c-1.1,0.5-2.4,0.7-3.8,0.7c-1.7,0-3.2-0.4-4.7-1.1c-1.4-0.7-2.7-1.7-3.7-2.9c-1-1.2-1.8-2.6-2.4-4.3c-0.6-1.6-0.9-3.3-0.9-5.2
		c0-1.8,0.3-3.6,0.9-5.2c0.6-1.6,1.4-3.1,2.4-4.3c1-1.2,2.3-2.2,3.7-2.9c1.4-0.7,3-1,4.7-1c1.5,0,2.8,0.2,3.9,0.7
		c1.1,0.5,2.3,1.2,3.4,2.2v-2.4h5.8V396.4z M233.1,377.6c-0.7-0.8-1.6-1.3-2.7-1.8s-2.2-0.6-3.2-0.6c-2.2,0-4,0.8-5.3,2.3
		c-1.4,1.5-2,3.5-2,5.9c0,1.2,0.2,2.3,0.5,3.3c0.4,1,0.9,1.9,1.5,2.6c0.6,0.7,1.4,1.3,2.3,1.7s1.9,0.6,3,0.6c1,0,2.1-0.2,3.2-0.6
		s2-1,2.7-1.8V377.6z"/>
	<path class="st1" d="M270.2,396.7h-5.8v-16.1c0-2-0.4-3.4-1.1-4.2c-0.8-0.8-1.9-1.2-3.3-1.2c-2.1,0-3.9,0.9-5.2,2.6
		c-1.4,1.7-2,4.1-2,7.2v11.7h-5.8v-26.1h5.8v6.6c0.6-2.3,1.7-4,3.2-5.3c1.6-1.3,3.5-1.9,5.8-1.9c2.7,0,4.8,0.9,6.3,2.6
		c1.5,1.7,2.3,4.4,2.3,8V396.7z"/>
</g>
</svg>
