<?xml version="1.0" encoding="utf-8"?>
<!-- Generator: Adobe Illustrator 24.1.2, SVG Export Plug-In . SVG Version: 6.00 Build 0)  -->
<svg version="1.1" id="Layer_1" xmlns="http://www.w3.org/2000/svg" xmlns:xlink="http://www.w3.org/1999/xlink" x="0px" y="0px"
	 viewBox="0 0 547.3 589.3" style="enable-background:new 0 0 547.3 589.3;" xml:space="preserve">
<style type="text/css">
	.st0{fill:#231F20;}
	.st1{fill:#0F2B41;}
	.st2{fill:#FFFFFF;}
</style>
<path class="st0" d="M244.1,486.1c3.2,0,3.2-5,0-5S240.9,486.1,244.1,486.1z"/>
<path class="st1" d="M292,26.4C224.3,19,194.3,25,133.6,55.9C56.4,95.2,5.5,179,0.5,265.5s33.4,173.3,97.2,232.1
	s150.6,90.1,237.3,91.6c60.2,1.1,124.7-13.8,165.2-58.3c45-49.4,50.5-122.6,45.9-189.2c-3-43.1-9.8-87.8-34.8-123
	c-17.1-24.1-41.4-41.9-65.2-59.2l-111-80.7C308.9,59.8,333.2,29.5,292,26.4"/>
<g>
	<path class="st2" d="M118.6,227.4v35.8h-6.8v-18.7l0.4-10.5h-0.1l-9.9,29.1h-6.1l-9.9-29.1h-0.1l0.4,10.5v18.7h-6.8v-35.8h10.9
		L97,247l2.3,8.1h0.1l2.3-8l6.4-19.6H118.6z"/>
	<path class="st2" d="M139.5,263.8c-2.9,0-5.3-0.6-7.5-1.7c-2.1-1.1-3.8-2.7-4.9-4.8c-1.2-2.1-1.7-4.6-1.7-7.6c0-3,0.6-5.5,1.7-7.6
		c1.2-2.1,2.8-3.7,4.9-4.8c2.1-1.1,4.5-1.7,7.1-1.7c2.7,0,5.1,0.6,7,1.7c1.9,1.1,3.4,2.6,4.4,4.5c1,1.9,1.5,4.1,1.5,6.5
		c0,0.7,0,1.4-0.1,2.1c0,0.7-0.1,1.2-0.2,1.7h-21.6v-5.2h18.4l-3.6,1.3c0-2.3-0.5-4-1.5-5.3c-1-1.2-2.5-1.8-4.4-1.8
		c-1.4,0-2.6,0.3-3.6,1c-1,0.7-1.7,1.6-2.3,2.9c-0.5,1.3-0.8,2.9-0.8,4.9c0,1.9,0.3,3.5,0.8,4.7c0.6,1.2,1.4,2.2,2.4,2.8
		c1,0.6,2.3,0.9,3.7,0.9c1.6,0,2.9-0.3,3.9-0.9c1-0.6,1.7-1.5,2.3-2.6l5.9,2.3c-0.6,1.4-1.5,2.6-2.6,3.6c-1.2,1-2.6,1.8-4.2,2.3
		S141.4,263.8,139.5,263.8z"/>
	<path class="st2" d="M158.3,263.2v-27.1h6.7l0.4,8.1l-0.9-0.9c0.4-1.8,1.1-3.2,2.1-4.4c0.9-1.2,2.1-2,3.4-2.6
		c1.4-0.6,2.8-0.8,4.5-0.8c1.9,0,3.6,0.4,5,1.1c1.5,0.7,2.6,1.8,3.5,3.3c0.8,1.5,1.3,3.3,1.3,5.5v17.8h-7.4v-15.7
		c0-2.3-0.5-3.9-1.4-4.8c-0.9-0.9-2.1-1.3-3.5-1.3c-1,0-2,0.2-3,0.7c-1,0.5-1.7,1.3-2.3,2.4s-0.9,2.5-0.9,4.3v14.4H158.3z"/>
	<path class="st2" d="M193.5,225.6c1.2,0,2.1,0.3,2.9,0.8c0.8,0.6,1.3,1.3,1.7,2.2c0.4,0.9,0.6,1.9,0.6,3.1c0,1.5-0.3,2.9-0.9,4.3
		c-0.6,1.4-1.4,2.6-2.5,3.7c-1,1.1-2.2,1.9-3.6,2.5l-3.2-2.5c1-0.4,1.9-0.9,2.7-1.5c0.8-0.6,1.5-1.2,2.1-2c0.6-0.7,1-1.5,1.2-2.2
		l-0.3-0.2c-0.2,0.1-0.4,0.2-0.7,0.3c-0.3,0.1-0.6,0.1-1.1,0.1c-0.6,0-1.2-0.2-1.7-0.5c-0.6-0.3-1.1-0.8-1.5-1.4
		c-0.4-0.6-0.6-1.3-0.6-2.3c0-1,0.2-1.8,0.7-2.5c0.4-0.7,1-1.2,1.7-1.6C191.9,225.8,192.7,225.6,193.5,225.6z"/>
	<path class="st2" d="M213.3,263.8c-2.7,0-5.3-0.5-7.5-1.5c-2.3-1-4.1-2.4-5.5-4.1l4.3-4.3c0.9,1.3,2,2.4,3.5,3.2
		c1.4,0.8,3.2,1.2,5.2,1.2c1.4,0,2.5-0.2,3.4-0.6c0.8-0.4,1.3-1.1,1.3-2c0-0.6-0.2-1.1-0.6-1.5c-0.4-0.4-1.2-0.8-2.4-1l-4.8-1
		c-3.1-0.7-5.4-1.6-6.7-3c-1.3-1.3-2-3-2-5.1c0-1.5,0.4-2.9,1.3-4.2c0.9-1.3,2.2-2.4,4-3.2c1.8-0.8,4-1.2,6.6-1.2
		c2.7,0,5.1,0.4,7.1,1.3c2,0.9,3.6,2.1,4.7,3.8l-4.4,4.3c-0.8-1.3-1.8-2.2-3.1-2.9c-1.3-0.7-2.6-1-4-1c-1,0-1.9,0.1-2.6,0.3
		c-0.7,0.2-1.3,0.5-1.6,0.9c-0.4,0.4-0.5,0.9-0.5,1.4c0,0.6,0.3,1.1,0.8,1.5c0.5,0.4,1.4,0.8,2.8,1.1l5.5,1.1
		c2.7,0.5,4.6,1.5,5.8,2.7c1.2,1.3,1.7,2.8,1.7,4.6c0,1.7-0.5,3.3-1.4,4.6c-0.9,1.4-2.3,2.4-4.1,3.2S215.9,263.8,213.3,263.8z"/>
	<path class="st2" d="M256.1,227.4v35.8h-7.5v-35.8H256.1z M275.8,242.1v6h-23.4v-6H275.8z M279.4,227.4v35.8h-7.5v-35.8H279.4z"/>
	<path class="st2" d="M300.3,263.8c-2.9,0-5.3-0.6-7.5-1.7c-2.1-1.1-3.8-2.7-4.9-4.8c-1.2-2.1-1.7-4.6-1.7-7.6c0-3,0.6-5.5,1.7-7.6
		c1.2-2.1,2.8-3.7,4.9-4.8c2.1-1.1,4.5-1.7,7.1-1.7c2.7,0,5.1,0.6,7,1.7c1.9,1.1,3.4,2.6,4.4,4.5s1.5,4.1,1.5,6.5
		c0,0.7,0,1.4-0.1,2.1s-0.1,1.2-0.2,1.7h-21.6v-5.2h18.4l-3.6,1.3c0-2.3-0.5-4-1.5-5.3c-1-1.2-2.5-1.8-4.4-1.8c-1.4,0-2.6,0.3-3.6,1
		c-1,0.7-1.7,1.6-2.3,2.9c-0.5,1.3-0.8,2.9-0.8,4.9c0,1.9,0.3,3.5,0.8,4.7c0.6,1.2,1.4,2.2,2.4,2.8c1,0.6,2.3,0.9,3.7,0.9
		c1.6,0,2.9-0.3,3.9-0.9c1-0.6,1.7-1.5,2.3-2.6l5.9,2.3c-0.6,1.4-1.5,2.6-2.6,3.6c-1.2,1-2.6,1.8-4.2,2.3
		C303.8,263.5,302.1,263.8,300.3,263.8z"/>
	<path class="st2" d="M334.6,245.9c0-1.6-0.4-2.8-1.3-3.6c-0.9-0.9-2.1-1.3-3.5-1.3c-1.3,0-2.5,0.3-3.5,1c-1,0.7-1.8,1.8-2.2,3.4
		l-6.3-2c0.6-2.4,2-4.3,4-5.8c2.1-1.4,4.9-2.2,8.4-2.2c2.4,0,4.5,0.4,6.2,1.1c1.8,0.7,3.2,1.9,4.2,3.3c1,1.5,1.5,3.3,1.5,5.6v11
		c0,1.4,0.7,2.1,2,2.1c0.6,0,1.2-0.1,1.7-0.3l-0.4,4.6c-0.9,0.5-2.1,0.7-3.5,0.7c-1.3,0-2.4-0.2-3.4-0.7s-1.8-1.1-2.4-2
		c-0.6-0.9-0.9-2-0.9-3.3v-0.2l1.3-0.2c-0.2,1.4-0.8,2.5-1.8,3.5c-1,1-2.2,1.7-3.6,2.2c-1.4,0.5-2.8,0.8-4.3,0.8
		c-1.8,0-3.4-0.3-4.8-0.8c-1.3-0.6-2.4-1.4-3.1-2.5c-0.7-1.1-1.1-2.4-1.1-4c0-2,0.7-3.7,2-5c1.3-1.3,3.2-2.2,5.6-2.6l10.2-2.1
		l-0.1,4.6l-6.5,1.3c-1.2,0.3-2.2,0.6-2.8,1c-0.6,0.4-0.9,1.1-0.9,2c0,0.9,0.3,1.6,1,2.1c0.7,0.5,1.5,0.7,2.4,0.7
		c0.8,0,1.5-0.1,2.2-0.3c0.7-0.2,1.4-0.5,2-0.9c0.6-0.4,1-0.9,1.4-1.6c0.3-0.7,0.5-1.5,0.5-2.5V245.9z"/>
	<path class="st2" d="M357.6,224.2v30.7c0,1.3,0.2,2.2,0.7,2.7c0.4,0.5,1.2,0.8,2.2,0.8c0.6,0,1.1,0,1.5-0.1
		c0.4-0.1,0.9-0.2,1.5-0.4l-0.7,4.9c-0.6,0.4-1.4,0.6-2.3,0.8c-0.9,0.2-1.8,0.3-2.7,0.3c-2.6,0-4.6-0.6-5.8-1.9
		c-1.2-1.3-1.8-3.3-1.8-6.2v-31.5H357.6z"/>
	<path class="st2" d="M384.8,236.1v5.5h-21.1v-5.5H384.8z M376.2,227.8v26.6c0,1.3,0.3,2.3,1,2.8s1.6,0.9,2.7,0.9
		c0.9,0,1.7-0.1,2.4-0.4c0.7-0.3,1.3-0.6,1.8-1.1l1.2,4.9c-0.9,0.7-2,1.2-3.3,1.6s-2.7,0.6-4.1,0.6c-1.8,0-3.4-0.3-4.8-0.8
		c-1.4-0.5-2.5-1.4-3.3-2.6c-0.8-1.2-1.2-2.8-1.2-4.8v-25.7L376.2,227.8z"/>
	<path class="st2" d="M390.3,263.2v-39h7.4v16.5c0.9-1.7,2.1-3,3.6-3.9c1.5-0.8,3.2-1.3,5.2-1.3c1.9,0,3.6,0.4,5,1.1
		c1.5,0.7,2.6,1.8,3.5,3.3s1.3,3.3,1.3,5.5v17.8h-7.4v-15.6c0-2.4-0.5-4-1.4-4.9c-0.9-0.9-2.1-1.3-3.5-1.3c-1,0-2.1,0.2-3,0.7
		c-1,0.5-1.7,1.3-2.3,2.4c-0.6,1.1-0.9,2.6-0.9,4.4v14.3H390.3z"/>
	<path class="st2" d="M87.2,292.5v35.8h-7.5v-35.8H87.2z M106.8,307.2v6H83.4v-6H106.8z M110.4,292.5v35.8h-7.5v-35.8H110.4z"/>
	<path class="st2" d="M131.1,300.7c2.7,0,5.2,0.6,7.2,1.7c2.1,1.1,3.7,2.7,4.9,4.8c1.2,2.1,1.8,4.6,1.8,7.6c0,2.9-0.6,5.5-1.8,7.6
		c-1.2,2.1-2.8,3.7-4.9,4.9c-2.1,1.1-4.5,1.7-7.2,1.7c-2.7,0-5.1-0.6-7.2-1.7c-2.1-1.1-3.7-2.7-4.9-4.9c-1.2-2.1-1.8-4.6-1.8-7.6
		c0-3,0.6-5.5,1.8-7.6c1.2-2.1,2.8-3.7,4.9-4.8C126,301.2,128.4,300.7,131.1,300.7z M131.1,306.2c-1.4,0-2.5,0.3-3.5,0.9
		c-1,0.6-1.7,1.6-2.2,2.8c-0.5,1.3-0.8,2.9-0.8,4.8s0.3,3.5,0.8,4.8c0.5,1.3,1.2,2.2,2.2,2.8c1,0.6,2.1,0.9,3.5,0.9
		c1.3,0,2.5-0.3,3.4-0.9c1-0.6,1.7-1.6,2.2-2.8c0.5-1.3,0.8-2.9,0.8-4.8s-0.3-3.5-0.8-4.8c-0.5-1.3-1.2-2.2-2.2-2.8
		C133.6,306.5,132.4,306.2,131.1,306.2z"/>
	<path class="st2" d="M160.7,328.9c-1.8,0-3.4-0.3-4.9-1c-1.4-0.7-2.6-1.7-3.4-3.1c-0.9-1.4-1.3-3.3-1.3-5.6v-18h7.4v16.2
		c0,2.1,0.4,3.6,1.3,4.4c0.9,0.8,2.1,1.2,3.7,1.2c0.8,0,1.5-0.1,2.2-0.4c0.7-0.3,1.4-0.7,1.9-1.3c0.6-0.6,1-1.3,1.3-2.3
		c0.3-0.9,0.5-2,0.5-3.3v-14.6h7.4v27.1h-6.6l-0.3-4.7c-0.9,1.8-2.1,3.1-3.7,4S162.9,328.9,160.7,328.9z"/>
	<path class="st2" d="M195.6,328.9c-2.7,0-5.3-0.5-7.5-1.5c-2.3-1-4.1-2.4-5.5-4.1l4.3-4.3c0.9,1.3,2,2.4,3.5,3.2
		c1.4,0.8,3.2,1.2,5.2,1.2c1.4,0,2.5-0.2,3.4-0.6c0.8-0.4,1.3-1.1,1.3-2c0-0.6-0.2-1.1-0.6-1.5c-0.4-0.4-1.2-0.8-2.4-1l-4.8-1
		c-3.1-0.7-5.4-1.6-6.7-3c-1.3-1.3-2-3-2-5.1c0-1.5,0.4-2.9,1.3-4.2c0.9-1.3,2.2-2.4,4-3.2c1.8-0.8,4-1.2,6.6-1.2
		c2.7,0,5.1,0.4,7.1,1.3c2,0.9,3.6,2.1,4.7,3.8l-4.4,4.3c-0.8-1.3-1.8-2.2-3.1-2.9c-1.3-0.7-2.6-1-4-1c-1,0-1.9,0.1-2.6,0.3
		c-0.7,0.2-1.3,0.5-1.6,0.9c-0.4,0.4-0.5,0.9-0.5,1.4c0,0.6,0.3,1.1,0.8,1.5c0.5,0.4,1.4,0.8,2.8,1.1l5.5,1.1
		c2.7,0.5,4.6,1.5,5.8,2.7c1.2,1.3,1.7,2.8,1.7,4.6c0,1.7-0.5,3.3-1.4,4.6s-2.3,2.4-4.1,3.2S198.2,328.9,195.6,328.9z"/>
	<path class="st2" d="M231.8,301.2v5.5h-21.1v-5.5H231.8z M223.2,292.9v26.6c0,1.3,0.3,2.3,1,2.8c0.7,0.6,1.6,0.9,2.7,0.9
		c0.9,0,1.7-0.1,2.4-0.4c0.7-0.3,1.3-0.6,1.8-1.1l1.2,4.9c-0.9,0.7-2,1.2-3.3,1.6c-1.3,0.4-2.7,0.6-4.1,0.6c-1.8,0-3.4-0.3-4.8-0.8
		c-1.4-0.5-2.5-1.4-3.3-2.6c-0.8-1.2-1.2-2.8-1.2-4.8V295L223.2,292.9z"/>
	<path class="st2" d="M249.3,300.7c2.7,0,5.2,0.6,7.2,1.7c2.1,1.1,3.7,2.7,4.9,4.8c1.2,2.1,1.8,4.6,1.8,7.6c0,2.9-0.6,5.5-1.8,7.6
		c-1.2,2.1-2.8,3.7-4.9,4.9c-2.1,1.1-4.5,1.7-7.2,1.7c-2.7,0-5.1-0.6-7.2-1.7c-2.1-1.1-3.7-2.7-4.9-4.9c-1.2-2.1-1.8-4.6-1.8-7.6
		c0-3,0.6-5.5,1.8-7.6c1.2-2.1,2.8-3.7,4.9-4.8C244.1,301.2,246.6,300.7,249.3,300.7z M249.3,306.2c-1.4,0-2.5,0.3-3.5,0.9
		c-1,0.6-1.7,1.6-2.2,2.8c-0.5,1.3-0.8,2.9-0.8,4.8s0.3,3.5,0.8,4.8c0.5,1.3,1.2,2.2,2.2,2.8c1,0.6,2.1,0.9,3.5,0.9
		c1.3,0,2.5-0.3,3.4-0.9c1-0.6,1.7-1.6,2.2-2.8c0.5-1.3,0.8-2.9,0.8-4.8s-0.3-3.5-0.8-4.8c-0.5-1.3-1.2-2.2-2.2-2.8
		C251.8,306.5,250.6,306.2,249.3,306.2z"/>
	<path class="st2" d="M269.4,328.3v-27.1h6.7l0.4,8.1l-0.9-0.9c0.4-1.8,1.1-3.2,2.1-4.4c0.9-1.2,2.1-2,3.4-2.6
		c1.4-0.6,2.8-0.8,4.5-0.8c1.9,0,3.6,0.4,5,1.1c1.5,0.7,2.6,1.8,3.5,3.3s1.3,3.3,1.3,5.5v17.8h-7.4v-15.7c0-2.3-0.5-3.9-1.4-4.8
		c-0.9-0.9-2.1-1.3-3.5-1.3c-1,0-2,0.2-3,0.7c-1,0.5-1.7,1.3-2.3,2.4s-0.9,2.5-0.9,4.3v14.4H269.4z"/>
	<path class="st2" d="M95.5,357.6c4.1,0,7.2,1,9.5,2.9c2.3,2,3.5,4.6,3.5,7.9c0,3.5-1.2,6.2-3.5,8.1c-2.3,1.9-5.5,2.8-9.5,2.8
		l-0.8,0.4H87v13.7h-7.4v-35.8H95.5z M94.6,374c2.1,0,3.7-0.4,4.7-1.3c1-0.8,1.5-2.2,1.5-3.9c0-1.8-0.5-3.1-1.5-3.9
		s-2.6-1.3-4.7-1.3H87V374H94.6z M99,375.6l11.6,17.8h-8.4l-9.6-15.7L99,375.6z"/>
	<path class="st2" d="M127.8,394c-2.9,0-5.3-0.6-7.5-1.7c-2.1-1.1-3.8-2.7-4.9-4.8c-1.2-2.1-1.7-4.6-1.7-7.6s0.6-5.5,1.7-7.6
		c1.2-2.1,2.8-3.7,4.9-4.8c2.1-1.1,4.5-1.7,7.1-1.7c2.7,0,5.1,0.6,7,1.7c1.9,1.1,3.4,2.6,4.4,4.5c1,1.9,1.5,4.1,1.5,6.5
		c0,0.7,0,1.4-0.1,2.1c0,0.7-0.1,1.2-0.2,1.7h-21.6v-5.2h18.4l-3.6,1.3c0-2.3-0.5-4-1.5-5.3c-1-1.2-2.5-1.8-4.4-1.8
		c-1.4,0-2.6,0.3-3.6,1c-1,0.7-1.7,1.6-2.3,2.9c-0.5,1.3-0.8,2.9-0.8,4.9c0,1.9,0.3,3.5,0.8,4.7c0.6,1.2,1.4,2.2,2.4,2.8
		c1,0.6,2.3,0.9,3.7,0.9c1.6,0,2.9-0.3,3.9-0.9c1-0.6,1.7-1.5,2.3-2.5l5.9,2.3c-0.6,1.4-1.5,2.6-2.6,3.6c-1.2,1-2.6,1.8-4.2,2.3
		S129.6,394,127.8,394z"/>
	<path class="st2" d="M156.9,394c-2.2,0-4.2-0.6-6-1.7c-1.8-1.1-3.1-2.7-4.1-4.8c-1-2.1-1.5-4.6-1.5-7.5c0-3,0.5-5.6,1.6-7.7
		c1-2.1,2.5-3.7,4.3-4.8s3.8-1.7,6-1.7c2.4,0,4.4,0.7,5.9,2.1c1.6,1.4,2.6,3.1,3,5.3l-0.7,0.9v-19.6h7.4v39h-6.7l-0.5-8.2l0.9,0.4
		c-0.3,1.7-0.8,3.2-1.7,4.4c-0.9,1.2-2,2.2-3.4,2.9C160.1,393.6,158.5,394,156.9,394z M159,388.3c1.3,0,2.4-0.3,3.4-1
		c0.9-0.7,1.7-1.7,2.2-3c0.5-1.3,0.8-2.9,0.8-4.7c0-1.7-0.3-3.2-0.8-4.4c-0.5-1.2-1.2-2.1-2.2-2.8c-0.9-0.7-2-1-3.3-1
		c-2,0-3.6,0.7-4.7,2.1c-1.1,1.4-1.7,3.5-1.7,6.3c0,2.7,0.6,4.8,1.7,6.3C155.5,387.6,157.1,388.3,159,388.3z"/>
	<path class="st2" d="M193.2,394c-2.9,0-5.3-0.6-7.5-1.7c-2.1-1.1-3.8-2.7-4.9-4.8c-1.2-2.1-1.7-4.6-1.7-7.6s0.6-5.5,1.7-7.6
		c1.2-2.1,2.8-3.7,4.9-4.8c2.1-1.1,4.5-1.7,7.1-1.7c2.7,0,5.1,0.6,7,1.7c1.9,1.1,3.4,2.6,4.4,4.5c1,1.9,1.5,4.1,1.5,6.5
		c0,0.7,0,1.4-0.1,2.1c0,0.7-0.1,1.2-0.2,1.7h-21.6v-5.2h18.4l-3.6,1.3c0-2.3-0.5-4-1.5-5.3c-1-1.2-2.5-1.8-4.4-1.8
		c-1.4,0-2.6,0.3-3.6,1c-1,0.7-1.7,1.6-2.3,2.9c-0.5,1.3-0.8,2.9-0.8,4.9c0,1.9,0.3,3.5,0.8,4.7c0.6,1.2,1.4,2.2,2.4,2.8
		c1,0.6,2.3,0.9,3.7,0.9c1.6,0,2.9-0.3,3.9-0.9c1-0.6,1.7-1.5,2.3-2.5l5.9,2.3c-0.6,1.4-1.5,2.6-2.6,3.6c-1.2,1-2.6,1.8-4.2,2.3
		S195.1,394,193.2,394z"/>
	<path class="st2" d="M222.9,394c-2.7,0-5.3-0.5-7.5-1.5c-2.3-1-4.1-2.4-5.5-4.1l4.3-4.3c0.9,1.3,2,2.4,3.5,3.2
		c1.4,0.8,3.2,1.2,5.2,1.2c1.4,0,2.5-0.2,3.4-0.6c0.8-0.4,1.3-1.1,1.3-2c0-0.6-0.2-1.1-0.6-1.5c-0.4-0.4-1.2-0.8-2.4-1l-4.8-1
		c-3.1-0.7-5.4-1.6-6.7-3c-1.3-1.3-2-3-2-5.1c0-1.5,0.4-2.9,1.3-4.2c0.9-1.3,2.2-2.4,4-3.2c1.8-0.8,4-1.2,6.6-1.2
		c2.7,0,5.1,0.4,7.1,1.3c2,0.9,3.6,2.1,4.7,3.8l-4.4,4.3c-0.8-1.3-1.8-2.2-3.1-2.9c-1.3-0.7-2.6-1-4-1c-1,0-1.9,0.1-2.6,0.3
		c-0.7,0.2-1.3,0.5-1.6,0.9c-0.4,0.4-0.5,0.9-0.5,1.4c0,0.6,0.3,1.1,0.8,1.5c0.5,0.4,1.4,0.8,2.8,1.1l5.5,1.1
		c2.7,0.5,4.6,1.5,5.8,2.7c1.2,1.3,1.7,2.8,1.7,4.6c0,1.7-0.5,3.3-1.4,4.6s-2.3,2.4-4.1,3.2S225.5,394,222.9,394z"/>
	<path class="st2" d="M244.6,362.4c-1.6,0-2.7-0.3-3.5-1c-0.8-0.7-1.1-1.7-1.1-3c0-1.3,0.4-2.3,1.1-3c0.8-0.7,1.9-1,3.5-1
		c1.6,0,2.7,0.3,3.5,1c0.8,0.7,1.1,1.7,1.1,3c0,1.3-0.4,2.3-1.1,3C247.3,362.1,246.2,362.4,244.6,362.4z M248.3,366.3v27.1h-7.4
		v-27.1H248.3z"/>
	<path class="st2" d="M272.3,388.3c2.9,0,5.2,0.6,6.8,1.9c1.6,1.3,2.4,3,2.4,5.3c0,2.1-0.6,3.8-1.8,5.2c-1.2,1.4-2.9,2.5-5,3.2
		c-2.2,0.7-4.6,1.1-7.5,1.1c-4.7,0-8.1-0.7-10.2-2c-2.2-1.3-3.2-3-3.2-5.1c0-1.5,0.6-2.7,1.7-3.7c1.1-1,3-1.6,5.7-1.7l-0.3,0.9
		c-1.9-0.3-3.3-1-4.3-1.9c-1-0.9-1.5-2.2-1.5-3.8c0-1.7,0.6-3,1.9-4.1c1.3-1.1,3-1.7,5.2-1.9l3.3,1.5h-0.8c-1.6,0.1-2.6,0.4-3.3,0.9
		s-0.9,1.1-0.9,1.8c0,0.8,0.3,1.3,0.9,1.7s1.5,0.6,2.6,0.6H272.3z M267.3,365.8c2.5,0,4.7,0.4,6.6,1.1c1.9,0.7,3.3,1.8,4.3,3.2
		c1,1.4,1.5,3,1.5,4.9c0,1.9-0.5,3.5-1.5,4.9c-1,1.4-2.4,2.4-4.3,3.2c-1.9,0.7-4.1,1.1-6.6,1.1c-4,0-7.1-0.8-9.2-2.5
		c-2.1-1.6-3.2-3.9-3.2-6.7c0-1.9,0.5-3.6,1.5-4.9c1-1.4,2.4-2.4,4.3-3.2C262.5,366.1,264.7,365.8,267.3,365.8z M267.2,400
		c1.9,0,3.4-0.2,4.6-0.5c1.2-0.3,2.1-0.7,2.7-1.2c0.6-0.5,0.9-1.1,0.9-1.7c0-0.7-0.3-1.2-0.8-1.7c-0.5-0.4-1.5-0.6-2.9-0.6h-9.2
		c-0.9,0-1.6,0.2-2.1,0.7c-0.6,0.4-0.8,1-0.8,1.8c0,1,0.7,1.8,2,2.4C263,399.7,264.8,400,267.2,400z M267.3,370.4
		c-1.4,0-2.6,0.4-3.6,1.2c-0.9,0.8-1.4,1.9-1.4,3.3c0,1.4,0.5,2.5,1.4,3.3s2.1,1.2,3.6,1.2c1.4,0,2.6-0.4,3.6-1.2s1.4-1.9,1.4-3.3
		c0-1.4-0.5-2.5-1.4-3.3C269.9,370.8,268.7,370.4,267.3,370.4z M281.2,359.9l0.9,5.3c-0.1,0-0.3,0-0.5,0c-0.2,0-0.3,0-0.5,0
		c-1.7,0-2.9,0.4-3.7,1.1s-1.2,1.8-1.2,3.1l-3-1.2c0-1.4,0.3-2.8,0.9-4c0.6-1.2,1.4-2.3,2.6-3c1.1-0.8,2.5-1.1,4.1-1.1
		c0.1,0,0.2,0,0.3,0S281.1,359.9,281.2,359.9z"/>
	<path class="st2" d="M285.9,393.4v-27.1h6.7l0.4,8.1l-0.9-0.9c0.4-1.8,1.1-3.2,2.1-4.4c0.9-1.2,2.1-2,3.4-2.6
		c1.4-0.6,2.8-0.8,4.5-0.8c1.9,0,3.6,0.4,5,1.1c1.5,0.7,2.6,1.8,3.5,3.3s1.3,3.3,1.3,5.5v17.8h-7.4v-15.7c0-2.3-0.5-3.9-1.4-4.8
		c-0.9-0.9-2.1-1.3-3.5-1.3c-1,0-2,0.2-3,0.7c-1,0.5-1.7,1.3-2.3,2.4s-0.9,2.5-0.9,4.3v14.4H285.9z"/>
</g>
</svg>
