<svg id="Layer_1" data-name="Layer 1" xmlns="http://www.w3.org/2000/svg" viewBox="0 0 547.37 565.71"><defs><style>.cls-1{fill:#231f20;}.cls-2{fill:#0f2b41;}.cls-3{fill:#fff;}</style></defs><path class="cls-1" d="M244.1,486.1c3.2,0,3.2-5,0-5S240.9,486.1,244.1,486.1Z" transform="translate(-0.06 -23.54)"/><path class="cls-2" d="M292,26.4C224.3,19,194.3,25,133.6,55.9,56.4,95.2,5.5,179,.5,265.5S33.9,438.8,97.7,497.6,248.3,587.7,335,589.2c60.2,1.1,124.7-13.8,165.2-58.3,45-49.4,50.5-122.6,45.9-189.2-3-43.1-9.8-87.8-34.8-123-17.1-24.1-41.4-41.9-65.2-59.2l-111-80.7c-26.2-19-1.9-49.3-43.1-52.4" transform="translate(-0.06 -23.54)"/><path class="cls-3" d="M130.58,225.9v36.22h-6.86V243.24l.38-10.59H124l-10,29.47h-6.2l-10-29.47h-.11L98,243.24v18.88H91.18V225.9h11l6.53,19.76,2.31,8.17h.11l2.36-8.12,6.47-19.81Z" transform="translate(-0.06 -23.54)"/><path class="cls-3" d="M151.71,262.67a16,16,0,0,1-7.55-1.7,12,12,0,0,1-5-4.89,17.64,17.64,0,0,1,0-15.36,12,12,0,0,1,4.91-4.89,15,15,0,0,1,7.21-1.7,14,14,0,0,1,7.08,1.68,11.32,11.32,0,0,1,4.45,4.55,13.78,13.78,0,0,1,1.53,6.56c0,.73,0,1.42,0,2.08s-.09,1.25-.17,1.76H142.27v-5.21h18.6l-3.62,1.31a8.08,8.08,0,0,0-1.56-5.32,5.48,5.48,0,0,0-4.42-1.87,6.43,6.43,0,0,0-3.6,1,6,6,0,0,0-2.27,2.94,13.31,13.31,0,0,0-.77,4.91,11.69,11.69,0,0,0,.85,4.8,6.1,6.1,0,0,0,2.41,2.83,8.35,8.35,0,0,0,7.66,0,6.27,6.27,0,0,0,2.3-2.58l6,2.3a9.49,9.49,0,0,1-2.66,3.68,12.19,12.19,0,0,1-4.22,2.33A16.86,16.86,0,0,1,151.71,262.67Z" transform="translate(-0.06 -23.54)"/><path class="cls-3" d="M170.75,262.12V234.68h6.75l.44,8.23L177,242a11.17,11.17,0,0,1,2.09-4.44,8.72,8.72,0,0,1,3.49-2.61,11.85,11.85,0,0,1,4.52-.85,11.36,11.36,0,0,1,5.08,1.1,8.2,8.2,0,0,1,3.51,3.32,11,11,0,0,1,1.29,5.57v18h-7.52V246.26q0-3.51-1.37-4.86a4.89,4.89,0,0,0-3.57-1.34,6.57,6.57,0,0,0-3,.74,5.61,5.61,0,0,0-2.36,2.39,9.14,9.14,0,0,0-.9,4.39v14.54Z" transform="translate(-0.06 -23.54)"/><path class="cls-3" d="M206.31,224a4.82,4.82,0,0,1,2.91.85,5.37,5.37,0,0,1,1.75,2.25,7.67,7.67,0,0,1,.61,3.11,10.65,10.65,0,0,1-.91,4.33,12.28,12.28,0,0,1-2.5,3.73,11.76,11.76,0,0,1-3.62,2.58l-3.23-2.58a13.1,13.1,0,0,0,2.71-1.48,10.21,10.21,0,0,0,2.11-2,7.53,7.53,0,0,0,1.27-2.25l-.28-.17a3.06,3.06,0,0,1-1.75.44,3.75,3.75,0,0,1-1.76-.47,3.91,3.91,0,0,1-2.08-3.65,4.61,4.61,0,0,1,.65-2.52,4.5,4.5,0,0,1,1.76-1.62A5.05,5.05,0,0,1,206.31,224Z" transform="translate(-0.06 -23.54)"/><path class="cls-3" d="M226.34,262.67a19.11,19.11,0,0,1-7.6-1.48,14.17,14.17,0,0,1-5.57-4.17l4.34-4.39a10.15,10.15,0,0,0,8.72,4.5,7.72,7.72,0,0,0,3.43-.64,2.09,2.09,0,0,0,1.29-2,2.12,2.12,0,0,0-.6-1.51,4.84,4.84,0,0,0-2.42-1l-4.83-1q-4.77-1-6.77-3a7,7,0,0,1-2-5.19,7.32,7.32,0,0,1,1.35-4.22,9.45,9.45,0,0,1,4-3.21,15.91,15.91,0,0,1,6.7-1.24,18.27,18.27,0,0,1,7.16,1.29,10.8,10.8,0,0,1,4.8,3.82l-4.5,4.39a8.18,8.18,0,0,0-3.16-2.94,8.69,8.69,0,0,0-4.08-1A9.23,9.23,0,0,0,224,240a3.7,3.7,0,0,0-1.65.91,2,2,0,0,0-.54,1.45,1.89,1.89,0,0,0,.76,1.51,7,7,0,0,0,2.8,1.07l5.6,1.15q4.06.82,5.82,2.78a6.76,6.76,0,0,1,1.75,4.69,8.1,8.1,0,0,1-1.4,4.69,9.3,9.3,0,0,1-4.11,3.24A16.87,16.87,0,0,1,226.34,262.67Z" transform="translate(-0.06 -23.54)"/><path class="cls-3" d="M269.64,225.9v36.22h-7.57V225.9Zm19.92,14.87v6.09H265.85v-6.09Zm3.62-14.87v36.22h-7.57V225.9Z" transform="translate(-0.06 -23.54)"/><path class="cls-3" d="M314.31,262.67a16,16,0,0,1-7.55-1.7,12,12,0,0,1-5-4.89,17.64,17.64,0,0,1,0-15.36,12,12,0,0,1,4.91-4.89,15,15,0,0,1,7.21-1.7,14,14,0,0,1,7.08,1.68,11.32,11.32,0,0,1,4.45,4.55,13.78,13.78,0,0,1,1.54,6.56c0,.73,0,1.42-.06,2.08s-.09,1.25-.16,1.76h-21.9v-5.21h18.6l-3.62,1.31a8.08,8.08,0,0,0-1.56-5.32,5.46,5.46,0,0,0-4.42-1.87,6.38,6.38,0,0,0-3.59,1A6,6,0,0,0,308,243.6a13.52,13.52,0,0,0-.77,4.91,11.69,11.69,0,0,0,.85,4.8,6.06,6.06,0,0,0,2.42,2.83,8.33,8.33,0,0,0,7.65,0,6.29,6.29,0,0,0,2.31-2.58l6,2.3a9.7,9.7,0,0,1-2.66,3.68,12.23,12.23,0,0,1-4.23,2.33A16.86,16.86,0,0,1,314.31,262.67Z" transform="translate(-0.06 -23.54)"/><path class="cls-3" d="M349,244.61a4.91,4.91,0,0,0-1.34-3.67,4.85,4.85,0,0,0-3.54-1.32,6.22,6.22,0,0,0-3.57,1,6.12,6.12,0,0,0-2.25,3.46l-6.42-2a9.86,9.86,0,0,1,4.09-5.81q3.15-2.21,8.48-2.2a16.27,16.27,0,0,1,6.31,1.13,9.21,9.21,0,0,1,4.2,3.37,10,10,0,0,1,1.51,5.65v11.14c0,1.39.65,2.09,2,2.09a5.37,5.37,0,0,0,1.76-.28l-.44,4.67a8,8,0,0,1-3.57.71,8.71,8.71,0,0,1-3.46-.66,5.21,5.21,0,0,1-2.41-2,6,6,0,0,1-.88-3.37v-.22l1.32-.22a6.23,6.23,0,0,1-1.81,3.54,9.85,9.85,0,0,1-3.6,2.22,12.71,12.71,0,0,1-4.36.77,12.57,12.57,0,0,1-4.83-.85,6.82,6.82,0,0,1-3.13-2.5,7.18,7.18,0,0,1-1.1-4.06,6.73,6.73,0,0,1,2-5,10.72,10.72,0,0,1,5.65-2.66l10.32-2.09-.06,4.67-6.58,1.31a8.45,8.45,0,0,0-2.83,1,2.28,2.28,0,0,0-1,2.06,2.37,2.37,0,0,0,1,2.08,4.09,4.09,0,0,0,2.44.71,9.36,9.36,0,0,0,2.25-.27,5.91,5.91,0,0,0,2-.88,4.1,4.1,0,0,0,1.37-1.64A5.89,5.89,0,0,0,349,252Z" transform="translate(-0.06 -23.54)"/><path class="cls-3" d="M372.26,222.66v31a4.18,4.18,0,0,0,.66,2.69,2.76,2.76,0,0,0,2.19.77,7.22,7.22,0,0,0,1.54-.14c.4-.09.91-.23,1.54-.41l-.66,4.94a8.3,8.3,0,0,1-2.33.85,13.28,13.28,0,0,1-2.78.3q-4,0-5.84-1.95t-1.84-6.23V222.66Z" transform="translate(-0.06 -23.54)"/><path class="cls-3" d="M399.86,234.68v5.6H378.51v-5.6Zm-8.78-8.4v26.89a3.69,3.69,0,0,0,1,2.89,4,4,0,0,0,2.77.9,6.61,6.61,0,0,0,2.41-.41,6.44,6.44,0,0,0,1.87-1.13l1.21,5a10,10,0,0,1-3.3,1.64,13.88,13.88,0,0,1-4.17.61,13.21,13.21,0,0,1-4.85-.83,6.69,6.69,0,0,1-3.3-2.63,8.81,8.81,0,0,1-1.18-4.83v-26Z" transform="translate(-0.06 -23.54)"/><path class="cls-3" d="M405.4,262.12V222.66h7.52v16.68a9,9,0,0,1,3.62-3.92,10.52,10.52,0,0,1,5.22-1.29,11.32,11.32,0,0,1,5.07,1.1,8.16,8.16,0,0,1,3.52,3.32,11,11,0,0,1,1.29,5.57v18h-7.52V246.31q0-3.56-1.37-4.91a4.85,4.85,0,0,0-3.52-1.34,6.65,6.65,0,0,0-3,.74,5.55,5.55,0,0,0-2.36,2.41,9.22,9.22,0,0,0-.91,4.42v14.49Z" transform="translate(-0.06 -23.54)"/><path class="cls-3" d="M107.15,291.75q6.13,0,9.65,3a9.85,9.85,0,0,1,3.52,7.95q0,5.32-3.52,8.15t-9.6,2.83l-.77.44H98.64V328H91.18V291.75Zm-.88,16.58A7.33,7.33,0,0,0,111,307a5.83,5.83,0,0,0,0-8,7.33,7.33,0,0,0-4.74-1.29H98.64v10.54Zm4.44,1.59L122.46,328H114l-9.71-15.86Z" transform="translate(-0.06 -23.54)"/><path class="cls-3" d="M139.85,328.52a15.8,15.8,0,0,1-7.54-1.7,11.93,11.93,0,0,1-5-4.88,17.66,17.66,0,0,1,0-15.37,12,12,0,0,1,4.91-4.88,14.92,14.92,0,0,1,7.22-1.7,13.94,13.94,0,0,1,7.08,1.67,11.3,11.3,0,0,1,4.44,4.55,13.66,13.66,0,0,1,1.54,6.56c0,.73,0,1.43-.05,2.09s-.1,1.24-.17,1.75h-21.9V311.4H149l-3.62,1.32a8.11,8.11,0,0,0-1.57-5.33,5.44,5.44,0,0,0-4.42-1.86,6.4,6.4,0,0,0-3.59,1,5.93,5.93,0,0,0-2.28,2.93,13.56,13.56,0,0,0-.77,4.91,11.94,11.94,0,0,0,.85,4.81A6.09,6.09,0,0,0,136,322a8.33,8.33,0,0,0,7.65,0,6.29,6.29,0,0,0,2.31-2.58l6,2.31a9.53,9.53,0,0,1-2.66,3.67,12.09,12.09,0,0,1-4.23,2.34A16.77,16.77,0,0,1,139.85,328.52Z" transform="translate(-0.06 -23.54)"/><path class="cls-3" d="M169.87,328.52a18.94,18.94,0,0,1-7.6-1.48,14.17,14.17,0,0,1-5.57-4.17l4.34-4.39a10.15,10.15,0,0,0,3.51,3.24,10.28,10.28,0,0,0,5.21,1.26,7.87,7.87,0,0,0,3.43-.63,2.2,2.2,0,0,0,.69-3.51,4.92,4.92,0,0,0-2.42-1l-4.83-1c-3.18-.66-5.44-1.65-6.77-3a7,7,0,0,1-2-5.18,7.37,7.37,0,0,1,1.35-4.23,9.45,9.45,0,0,1,4-3.21,16.07,16.07,0,0,1,6.7-1.23,18.46,18.46,0,0,1,7.16,1.28,10.87,10.87,0,0,1,4.8,3.82l-4.5,4.39a8.18,8.18,0,0,0-3.16-2.94,8.8,8.8,0,0,0-4.08-1,9.23,9.23,0,0,0-2.64.33,3.79,3.79,0,0,0-1.65.9,2.06,2.06,0,0,0-.54,1.46,1.9,1.9,0,0,0,.76,1.51,7.17,7.17,0,0,0,2.8,1.07l5.6,1.15q4.07.82,5.82,2.77a6.76,6.76,0,0,1,1.75,4.69,8.08,8.08,0,0,1-1.4,4.69,9.16,9.16,0,0,1-4.11,3.24A16.66,16.66,0,0,1,169.87,328.52Z" transform="translate(-0.06 -23.54)"/><path class="cls-3" d="M188,339.5v-39h6.75l.5,8.73-.93-1a11,11,0,0,1,1.83-4.28,9.54,9.54,0,0,1,3.43-2.93,10,10,0,0,1,4.67-1.07,10.74,10.74,0,0,1,6,1.7,11.44,11.44,0,0,1,4.14,4.85,20.19,20.19,0,0,1,0,15.37,11.63,11.63,0,0,1-4.2,4.91,11,11,0,0,1-6.07,1.7,9,9,0,0,1-6-2,10.17,10.17,0,0,1-3.26-5.1l.71-1.15V339.5Zm13.89-16.74a5.75,5.75,0,0,0,4.75-2.17c1.15-1.44,1.72-3.56,1.72-6.34s-.55-4.89-1.67-6.33a5.58,5.58,0,0,0-4.69-2.17,5.81,5.81,0,0,0-3.38,1,6.65,6.65,0,0,0-2.27,2.91,11.43,11.43,0,0,0-.83,4.58,12.29,12.29,0,0,0,.77,4.56,6.26,6.26,0,0,0,2.22,2.93A5.75,5.75,0,0,0,201.92,322.76Z" transform="translate(-0.06 -23.54)"/><path class="cls-3" d="M235,300a15.1,15.1,0,0,1,7.32,1.7,12.21,12.21,0,0,1,4.94,4.88,17.41,17.41,0,0,1,0,15.34,12.16,12.16,0,0,1-4.94,4.91,16.57,16.57,0,0,1-14.62,0,12.06,12.06,0,0,1-5-4.91,17.41,17.41,0,0,1,0-15.34,12.1,12.1,0,0,1,5-4.88A15.16,15.16,0,0,1,235,300Zm0,5.59a6.24,6.24,0,0,0-3.54,1,6,6,0,0,0-2.23,2.88,15.53,15.53,0,0,0,0,9.66,6,6,0,0,0,2.23,2.88,6.24,6.24,0,0,0,3.54,1,6.18,6.18,0,0,0,3.48-1,6,6,0,0,0,2.22-2.88,15.53,15.53,0,0,0,0-9.66,6,6,0,0,0-2.22-2.88A6.18,6.18,0,0,0,235,305.58Z" transform="translate(-0.06 -23.54)"/><path class="cls-3" d="M255.31,328V300.53h6.75l.44,8.24-.93-.88a11.08,11.08,0,0,1,2.09-4.45,8.64,8.64,0,0,1,3.48-2.6,11.68,11.68,0,0,1,4.53-.85,11.31,11.31,0,0,1,5.07,1.09,8.16,8.16,0,0,1,3.52,3.32,11,11,0,0,1,1.29,5.57v18H274V312.11q0-3.51-1.37-4.85a4.89,4.89,0,0,0-3.57-1.35,6.54,6.54,0,0,0-3,.74,5.61,5.61,0,0,0-2.36,2.39,9,9,0,0,0-.91,4.39V328Z" transform="translate(-0.06 -23.54)"/><path class="cls-3" d="M300.26,328.52a18.91,18.91,0,0,1-7.6-1.48,14.1,14.1,0,0,1-5.57-4.17l4.33-4.39a10.12,10.12,0,0,0,8.73,4.5,7.87,7.87,0,0,0,3.43-.63,2.1,2.1,0,0,0,1.29-2,2.07,2.07,0,0,0-.61-1.5,4.83,4.83,0,0,0-2.41-1l-4.83-1c-3.18-.66-5.44-1.65-6.78-3a7,7,0,0,1-2-5.18,7.44,7.44,0,0,1,1.34-4.23,9.54,9.54,0,0,1,4-3.21,16.06,16.06,0,0,1,6.69-1.23,18.51,18.51,0,0,1,7.17,1.28,10.87,10.87,0,0,1,4.8,3.82l-4.5,4.39a8.18,8.18,0,0,0-3.16-2.94,8.81,8.81,0,0,0-4.09-1,9.2,9.2,0,0,0-2.63.33,3.79,3.79,0,0,0-1.65.9,2.07,2.07,0,0,0-.55,1.46,1.91,1.91,0,0,0,.77,1.51,7.1,7.1,0,0,0,2.8,1.07l5.6,1.15c2.71.55,4.64,1.47,5.82,2.77a6.76,6.76,0,0,1,1.75,4.69,8.15,8.15,0,0,1-1.4,4.69,9.16,9.16,0,0,1-4.11,3.24A16.69,16.69,0,0,1,300.26,328.52Z" transform="translate(-0.06 -23.54)"/><path class="cls-3" d="M322.21,296.58a5.18,5.18,0,0,1-3.51-1,3.79,3.79,0,0,1-1.16-3,3.85,3.85,0,0,1,1.16-3.05,6.6,6.6,0,0,1,7,0,3.84,3.84,0,0,1,1.15,3.05,3.78,3.78,0,0,1-1.15,3A5.18,5.18,0,0,1,322.21,296.58Zm3.73,3.95V328h-7.52V300.53Z" transform="translate(-0.06 -23.54)"/><path class="cls-3" d="M351.9,300.53h7.79L349.26,328h-8.67l-10.42-27.44h8l6.8,21.68Z" transform="translate(-0.06 -23.54)"/><path class="cls-3" d="M376.26,328.52a15.8,15.8,0,0,1-7.54-1.7,11.93,11.93,0,0,1-5-4.88,17.75,17.75,0,0,1,0-15.37,12,12,0,0,1,4.91-4.88,14.92,14.92,0,0,1,7.22-1.7,13.94,13.94,0,0,1,7.08,1.67,11.3,11.3,0,0,1,4.44,4.55,13.66,13.66,0,0,1,1.54,6.56c0,.73,0,1.43-.06,2.09s-.09,1.24-.16,1.75h-21.9V311.4h18.61l-3.62,1.32a8.11,8.11,0,0,0-1.57-5.33,5.44,5.44,0,0,0-4.42-1.86,6.4,6.4,0,0,0-3.59,1,5.93,5.93,0,0,0-2.28,2.93,13.56,13.56,0,0,0-.77,4.91,11.94,11.94,0,0,0,.85,4.81,6.09,6.09,0,0,0,2.42,2.82,8.33,8.33,0,0,0,7.65,0,6.29,6.29,0,0,0,2.31-2.58l6,2.31a9.64,9.64,0,0,1-2.66,3.67,12.09,12.09,0,0,1-4.23,2.34A16.77,16.77,0,0,1,376.26,328.52Z" transform="translate(-0.06 -23.54)"/><path class="cls-3" d="M98,393.83,87.5,357.61h8.07l7.13,29.9,7.24-29.9h7.25l7.35,29.9,7.08-29.9h7.74l-10.54,36.22h-8.5l-5-19.76-1.7-8.56h-.11l-1.7,8.56-5,19.76Z" transform="translate(-0.06 -23.54)"/><path class="cls-3" d="M154.62,394.37a15.84,15.84,0,0,1-7.55-1.7,11.93,11.93,0,0,1-5-4.88,17.75,17.75,0,0,1,0-15.37,12,12,0,0,1,4.91-4.88,15,15,0,0,1,7.22-1.7,14,14,0,0,1,7.08,1.67,11.41,11.41,0,0,1,4.45,4.56,13.74,13.74,0,0,1,1.53,6.55c0,.74,0,1.43,0,2.09s-.09,1.24-.17,1.76H145.18v-5.22h18.6l-3.62,1.32a8,8,0,0,0-1.57-5.32,5.41,5.41,0,0,0-4.41-1.87,6.43,6.43,0,0,0-3.6,1,6.13,6.13,0,0,0-2.28,2.93,13.6,13.6,0,0,0-.76,4.92,11.72,11.72,0,0,0,.85,4.8,6,6,0,0,0,2.41,2.82,8.27,8.27,0,0,0,7.66,0,6.34,6.34,0,0,0,2.3-2.58l6,2.31a9.57,9.57,0,0,1-2.66,3.68,12.28,12.28,0,0,1-4.22,2.33A16.86,16.86,0,0,1,154.62,394.37Z" transform="translate(-0.06 -23.54)"/><path class="cls-3" d="M189.79,394.37a9.7,9.7,0,0,1-4.58-1.07,9.42,9.42,0,0,1-3.4-3,11.18,11.18,0,0,1-1.84-4.25l.77-1-.44,8.73h-6.64V354.37h7.52v19.75l-.72-1.15a10,10,0,0,1,3.35-5.1,9.41,9.41,0,0,1,6.2-2,10.6,10.6,0,0,1,5.87,1.7,11.5,11.5,0,0,1,4.15,4.88,18,18,0,0,1,1.51,7.74,17.78,17.78,0,0,1-1.51,7.63,11.42,11.42,0,0,1-4.18,4.88A10.94,10.94,0,0,1,189.79,394.37Zm-2.25-5.76a5.73,5.73,0,0,0,4.75-2.17q1.72-2.16,1.73-6.33c0-2.78-.57-4.9-1.7-6.34a6.18,6.18,0,0,0-8.13-1.13,6.82,6.82,0,0,0-2.22,3,13.58,13.58,0,0,0,0,9.13,6.29,6.29,0,0,0,2.25,2.88A5.77,5.77,0,0,0,187.54,388.61Z" transform="translate(-0.06 -23.54)"/><path class="cls-3" d="M219,394.37a18.94,18.94,0,0,1-7.6-1.48,14.17,14.17,0,0,1-5.57-4.17l4.34-4.39a10.15,10.15,0,0,0,3.51,3.24,10.28,10.28,0,0,0,5.21,1.26,7.87,7.87,0,0,0,3.43-.63,2.2,2.2,0,0,0,.69-3.51,4.92,4.92,0,0,0-2.42-1l-4.83-1q-4.77-1-6.77-3a7,7,0,0,1-2-5.18,7.37,7.37,0,0,1,1.35-4.23,9.6,9.6,0,0,1,4-3.21,16.07,16.07,0,0,1,6.7-1.23,18.27,18.27,0,0,1,7.16,1.29,10.85,10.85,0,0,1,4.8,3.81l-4.5,4.39a8.08,8.08,0,0,0-3.16-2.93,8.69,8.69,0,0,0-4.08-1,9.23,9.23,0,0,0-2.64.33,3.6,3.6,0,0,0-1.64.91,2,2,0,0,0-.55,1.45,1.89,1.89,0,0,0,.76,1.51,7,7,0,0,0,2.8,1.07l5.6,1.15q4.07.82,5.82,2.77a6.77,6.77,0,0,1,1.75,4.69,8.13,8.13,0,0,1-1.4,4.7,9.21,9.21,0,0,1-4.11,3.23A16.69,16.69,0,0,1,219,394.37Z" transform="translate(-0.06 -23.54)"/><path class="cls-3" d="M241,362.44a5.18,5.18,0,0,1-3.51-1,3.77,3.77,0,0,1-1.15-3,3.86,3.86,0,0,1,1.15-3.05,6.6,6.6,0,0,1,7,0,3.86,3.86,0,0,1,1.16,3.05,3.77,3.77,0,0,1-1.16,3A5.16,5.16,0,0,1,241,362.44Zm3.73,3.95v27.44h-7.51V366.39Z" transform="translate(-0.06 -23.54)"/><path class="cls-3" d="M271.17,366.39V372H249.83v-5.59Zm-8.78-8.4v26.89a3.66,3.66,0,0,0,1,2.88,4,4,0,0,0,2.77.91,6.4,6.4,0,0,0,2.41-.42,6.2,6.2,0,0,0,1.87-1.12l1.21,5a9.86,9.86,0,0,1-3.29,1.65,14.3,14.3,0,0,1-4.17.6,13.31,13.31,0,0,1-4.86-.82,6.73,6.73,0,0,1-3.29-2.63,8.72,8.72,0,0,1-1.18-4.83v-26Z" transform="translate(-0.06 -23.54)"/><path class="cls-3" d="M289,394.37a15.84,15.84,0,0,1-7.55-1.7,11.9,11.9,0,0,1-5-4.88,17.66,17.66,0,0,1,0-15.37,12,12,0,0,1,4.91-4.88,15,15,0,0,1,7.21-1.7,14,14,0,0,1,7.08,1.67,11.41,11.41,0,0,1,4.45,4.56,13.74,13.74,0,0,1,1.54,6.55c0,.74,0,1.43-.06,2.09s-.09,1.24-.16,1.76h-21.9v-5.22h18.6l-3.62,1.32a8.06,8.06,0,0,0-1.56-5.32,5.43,5.43,0,0,0-4.42-1.87,6.38,6.38,0,0,0-3.59,1,6,6,0,0,0-2.28,2.93,13.58,13.58,0,0,0-.77,4.92,11.72,11.72,0,0,0,.85,4.8,6,6,0,0,0,2.42,2.82,8.25,8.25,0,0,0,7.65,0,6.29,6.29,0,0,0,2.31-2.58l6,2.31a9.78,9.78,0,0,1-2.66,3.68,12.23,12.23,0,0,1-4.23,2.33A16.82,16.82,0,0,1,289,394.37Z" transform="translate(-0.06 -23.54)"/></svg>