<svg id="Layer_1" data-name="Layer 1" xmlns="http://www.w3.org/2000/svg" viewBox="0 0 482.78 463.5"><defs><style>.cls-1{fill:#346c63;}.cls-2{fill:#fff;}</style></defs><path class="cls-1" d="M317.72,65.58,181.1,9.9c-31-9.2-64.9-17.8-92.9,2.9-18.9,14-32,39.3-42.7,65.3C16.2,149.1.4,231,0,313.1c-.1,19.8,1.1,41,9.8,56.5,7.5,13.4,19.3,20.2,30.6,26.1,128.9,66.5,269.5,71.7,406.8,66.2,7.2-.3,14.8-.8,20.8-6.2,9.1-8.1,12.1-24.6,13.5-39.6C492.6,297,430.34,138.78,334.61,75.71" transform="translate(0.01 -0.04)"/><path class="cls-2" d="M56,235.65V198.16H84.13v6.3H63.85v9.32h16v6h-16v9.54H84.92v6.31Z" transform="translate(0.01 -0.04)"/><path class="cls-2" d="M103.38,206.68a16.65,16.65,0,0,1,6.45,1.11,11,11,0,0,1,4.26,3,11.37,11.37,0,0,1,2.3,4.23l-7.27,2.61a7.45,7.45,0,0,0-1.93-3.86,5.12,5.12,0,0,0-3.69-1.31,6.57,6.57,0,0,0-3.69,1,6,6,0,0,0-2.33,3,13.77,13.77,0,0,0-.8,5,13.28,13.28,0,0,0,.82,5,6.11,6.11,0,0,0,2.39,3,6.84,6.84,0,0,0,3.66,1,6.38,6.38,0,0,0,2.9-.59,5,5,0,0,0,2-1.74,7,7,0,0,0,1-2.72l7.05,2.27a10.57,10.57,0,0,1-2.33,4.49,11.46,11.46,0,0,1-4.38,3,18,18,0,0,1-13.91-.68,12.31,12.31,0,0,1-5.17-5.06,18.27,18.27,0,0,1,0-15.9,12.34,12.34,0,0,1,5.11-5.06A15.79,15.79,0,0,1,103.38,206.68Z" transform="translate(0.01 -0.04)"/><path class="cls-2" d="M135.48,206.68a15.74,15.74,0,0,1,7.58,1.76,12.6,12.6,0,0,1,5.12,5.06,18,18,0,0,1,0,15.87,12.61,12.61,0,0,1-5.12,5.09,17.16,17.16,0,0,1-15.14,0,12.6,12.6,0,0,1-5.14-5.09,18,18,0,0,1,0-15.87,12.58,12.58,0,0,1,5.14-5.06A15.86,15.86,0,0,1,135.48,206.68Zm0,5.79a6.42,6.42,0,0,0-3.66,1,6.12,6.12,0,0,0-2.3,3,16,16,0,0,0,0,10,6.17,6.17,0,0,0,2.3,3,7.17,7.17,0,0,0,7.27,0,6.22,6.22,0,0,0,2.3-3,16.22,16.22,0,0,0,0-10,6.18,6.18,0,0,0-2.3-3A6.37,6.37,0,0,0,135.48,212.47Z" transform="translate(0.01 -0.04)"/><path class="cls-2" d="M156.56,235.65v-28.4h7l.29,5.11a9.79,9.79,0,0,1,3.89-4.26,10.76,10.76,0,0,1,5.48-1.42,10.88,10.88,0,0,1,5.54,1.42,8.89,8.89,0,0,1,3.72,4.2,9.1,9.1,0,0,1,2.44-3.12,11,11,0,0,1,3.41-1.88,12.16,12.16,0,0,1,3.81-.62,11.41,11.41,0,0,1,5.08,1.13,8.73,8.73,0,0,1,3.67,3.41,11.14,11.14,0,0,1,1.36,5.8v18.63h-7.78v-17.1c0-2.08-.46-3.56-1.37-4.43a4.88,4.88,0,0,0-3.52-1.31,6.09,6.09,0,0,0-3.15.86,5.76,5.76,0,0,0-2.27,2.52,9.43,9.43,0,0,0-.83,4.18v15.28h-7.78v-17.1c0-2.08-.46-3.56-1.39-4.43a5,5,0,0,0-3.55-1.31,6,6,0,0,0-5.31,3.3,9.22,9.22,0,0,0-.94,4.49v15.05Z" transform="translate(0.01 -0.04)"/><path class="cls-2" d="M210.24,235.65v-28.4h7l.28,5.11a9.85,9.85,0,0,1,3.89-4.26,11.4,11.4,0,0,1,11,0,8.89,8.89,0,0,1,3.72,4.2,9,9,0,0,1,2.45-3.12,10.79,10.79,0,0,1,3.4-1.88,12.16,12.16,0,0,1,3.81-.62,11.38,11.38,0,0,1,5.08,1.13,8.73,8.73,0,0,1,3.67,3.41,11.14,11.14,0,0,1,1.36,5.8v18.63h-7.78v-17.1c0-2.08-.45-3.56-1.36-4.43a4.91,4.91,0,0,0-3.53-1.31,6.11,6.11,0,0,0-3.15.86,5.76,5.76,0,0,0-2.27,2.52,9.44,9.44,0,0,0-.82,4.18v15.28h-7.79v-17.1c0-2.08-.46-3.56-1.39-4.43a5,5,0,0,0-3.55-1.31,6.08,6.08,0,0,0-5.31,3.3,9.22,9.22,0,0,0-.94,4.49v15.05Z" transform="translate(0.01 -0.04)"/><path class="cls-2" d="M277.1,236.22a16.51,16.51,0,0,1-7.81-1.76,12.41,12.41,0,0,1-5.14-5.06,18.27,18.27,0,0,1,0-15.9,12.44,12.44,0,0,1,5.08-5.06,15.55,15.55,0,0,1,7.47-1.76,14.53,14.53,0,0,1,7.33,1.73,11.73,11.73,0,0,1,4.6,4.72,14.17,14.17,0,0,1,1.59,6.78c0,.76,0,1.48-.05,2.16s-.1,1.29-.17,1.82H267.33v-5.4h19.26l-3.75,1.37a8.34,8.34,0,0,0-1.62-5.51,5.62,5.62,0,0,0-4.57-1.93,6.65,6.65,0,0,0-3.72,1,6.15,6.15,0,0,0-2.36,3,14,14,0,0,0-.8,5.08,12.26,12.26,0,0,0,.88,5,6.32,6.32,0,0,0,2.5,2.93,8.67,8.67,0,0,0,7.93,0,6.56,6.56,0,0,0,2.38-2.67l6.2,2.38A10,10,0,0,1,286.9,233a12.46,12.46,0,0,1-4.37,2.41A17.44,17.44,0,0,1,277.1,236.22Z" transform="translate(0.01 -0.04)"/><path class="cls-2" d="M296.81,235.65v-28.4h6.76l.51,5.56a9.77,9.77,0,0,1,3.33-4.54,9.07,9.07,0,0,1,5.48-1.59,8.69,8.69,0,0,1,1.76.17,4.65,4.65,0,0,1,1.31.45l-.91,6.54a5.77,5.77,0,0,0-1.39-.34,15.33,15.33,0,0,0-2.13-.12,7.08,7.08,0,0,0-3.3.83,6.51,6.51,0,0,0-2.61,2.5,8,8,0,0,0-1,4.23v14.71Z" transform="translate(0.01 -0.04)"/><path class="cls-2" d="M333.11,206.68a16.65,16.65,0,0,1,6.45,1.11,11,11,0,0,1,4.26,3,11.37,11.37,0,0,1,2.3,4.23l-7.27,2.61a7.45,7.45,0,0,0-1.93-3.86,5.12,5.12,0,0,0-3.69-1.31,6.57,6.57,0,0,0-3.69,1,6,6,0,0,0-2.33,3,13.77,13.77,0,0,0-.8,5,13.07,13.07,0,0,0,.83,5,6,6,0,0,0,2.38,3,6.85,6.85,0,0,0,3.67,1,6.37,6.37,0,0,0,2.89-.59,5,5,0,0,0,2-1.74,7,7,0,0,0,1.05-2.72l7.05,2.27a10.57,10.57,0,0,1-2.33,4.49,11.46,11.46,0,0,1-4.38,3,18,18,0,0,1-13.91-.68,12.31,12.31,0,0,1-5.17-5.06,18.27,18.27,0,0,1,0-15.9,12.34,12.34,0,0,1,5.11-5.06A15.79,15.79,0,0,1,333.11,206.68Z" transform="translate(0.01 -0.04)"/><path class="cls-2" d="M365.44,236.22a16.48,16.48,0,0,1-7.81-1.76,12.35,12.35,0,0,1-5.14-5.06,18.27,18.27,0,0,1,0-15.9,12.38,12.38,0,0,1,5.08-5.06,15.55,15.55,0,0,1,7.47-1.76,14.53,14.53,0,0,1,7.33,1.73,11.73,11.73,0,0,1,4.6,4.72,14.17,14.17,0,0,1,1.59,6.78q0,1.14-.06,2.16c0,.68-.09,1.29-.17,1.82H355.67v-5.4h19.25l-3.75,1.37a8.34,8.34,0,0,0-1.61-5.51,5.64,5.64,0,0,0-4.58-1.93,6.65,6.65,0,0,0-3.72,1,6.21,6.21,0,0,0-2.36,3,14,14,0,0,0-.79,5.08,12.09,12.09,0,0,0,.88,5,6.32,6.32,0,0,0,2.5,2.93,8.65,8.65,0,0,0,7.92,0,6.58,6.58,0,0,0,2.39-2.67l6.19,2.38a9.87,9.87,0,0,1-2.75,3.81,12.42,12.42,0,0,1-4.38,2.41A17.33,17.33,0,0,1,365.44,236.22Z" transform="translate(0.01 -0.04)"/><path class="cls-2" d="M88.1,293.48a14.4,14.4,0,0,1-8.92,9.72,19.86,19.86,0,0,1-7,1.19,19,19,0,0,1-9.63-2.33,15.58,15.58,0,0,1-6.25-6.65,25.5,25.5,0,0,1,0-20.68,15.61,15.61,0,0,1,6.25-6.64,18.8,18.8,0,0,1,9.51-2.33,21.83,21.83,0,0,1,7,1.05A13.63,13.63,0,0,1,84.38,270a12.85,12.85,0,0,1,3.21,5.45l-7.1,3a8.67,8.67,0,0,0-2.95-4.85,8.46,8.46,0,0,0-5.12-1.45,9.65,9.65,0,0,0-5.36,1.48A9.49,9.49,0,0,0,63.5,278a17.75,17.75,0,0,0-1.25,7.07,18.84,18.84,0,0,0,1.17,7.05,9,9,0,0,0,3.44,4.37A9.94,9.94,0,0,0,72.42,298a8.28,8.28,0,0,0,8.47-6.65Z" transform="translate(0.01 -0.04)"/><path class="cls-2" d="M110.2,285.7a5.08,5.08,0,0,0-1.39-3.81,5,5,0,0,0-3.66-1.36,6.42,6.42,0,0,0-3.7,1.08,6.3,6.3,0,0,0-2.33,3.58l-6.64-2.05a10.24,10.24,0,0,1,4.23-6c2.18-1.51,5.1-2.27,8.78-2.27A17,17,0,0,1,112,276a9.49,9.49,0,0,1,4.34,3.5,10.2,10.2,0,0,1,1.57,5.85v11.53q0,2.16,2,2.16a5.69,5.69,0,0,0,1.82-.29l-.45,4.83a8.29,8.29,0,0,1-3.7.74,9.1,9.1,0,0,1-3.58-.68,5.53,5.53,0,0,1-2.5-2.07,6.34,6.34,0,0,1-.9-3.5v-.22l1.36-.23a6.35,6.35,0,0,1-1.88,3.66,10.08,10.08,0,0,1-3.72,2.3,13.88,13.88,0,0,1-9.51-.08,7.07,7.07,0,0,1-3.24-2.59,7.36,7.36,0,0,1-1.14-4.2,7,7,0,0,1,2-5.2,11.12,11.12,0,0,1,5.85-2.75l10.68-2.16-.06,4.83-6.81,1.36a8.81,8.81,0,0,0-2.93,1.05,2.37,2.37,0,0,0-1,2.13,2.47,2.47,0,0,0,1.05,2.16,4.3,4.3,0,0,0,2.53.74,9.45,9.45,0,0,0,2.32-.29,6,6,0,0,0,2-.91,4.18,4.18,0,0,0,1.42-1.7,6.07,6.07,0,0,0,.51-2.61Z" transform="translate(0.01 -0.04)"/><path class="cls-2" d="M138,304.39a19.53,19.53,0,0,1-7.87-1.54,14.55,14.55,0,0,1-5.76-4.31l4.48-4.55a10.49,10.49,0,0,0,9,4.66,8.25,8.25,0,0,0,3.55-.65,2.17,2.17,0,0,0,1.33-2.08,2.22,2.22,0,0,0-.62-1.56,5.12,5.12,0,0,0-2.5-1.05l-5-1q-4.95-1-7-3.1a7.27,7.27,0,0,1-2.07-5.37,7.6,7.6,0,0,1,1.39-4.37,9.87,9.87,0,0,1,4.18-3.32,16.43,16.43,0,0,1,6.93-1.28,18.9,18.9,0,0,1,7.41,1.33,11.24,11.24,0,0,1,5,3.95l-4.66,4.55a8.34,8.34,0,0,0-3.26-3,9.08,9.08,0,0,0-4.24-1.05,9.39,9.39,0,0,0-2.72.34,3.84,3.84,0,0,0-1.71.93,2.1,2.1,0,0,0-.57,1.51,2,2,0,0,0,.8,1.56A7.12,7.12,0,0,0,137,286l5.79,1.19q4.2.86,6,2.87a7,7,0,0,1,1.82,4.86,8.41,8.41,0,0,1-1.45,4.86,9.58,9.58,0,0,1-4.26,3.35A17.36,17.36,0,0,1,138,304.39Z" transform="translate(0.01 -0.04)"/><path class="cls-2" d="M169.85,304.39a16.48,16.48,0,0,1-7.81-1.76,12.35,12.35,0,0,1-5.14-5.06,18.27,18.27,0,0,1,0-15.9,12.38,12.38,0,0,1,5.08-5.06,15.55,15.55,0,0,1,7.47-1.76,14.53,14.53,0,0,1,7.33,1.73,11.73,11.73,0,0,1,4.6,4.72,14.17,14.17,0,0,1,1.59,6.78q0,1.14-.06,2.16a17.43,17.43,0,0,1-.17,1.82H160.08v-5.4h19.25L175.59,288a8.34,8.34,0,0,0-1.62-5.51,5.64,5.64,0,0,0-4.58-1.93,6.65,6.65,0,0,0-3.72,1,6.19,6.19,0,0,0-2.35,3,13.74,13.74,0,0,0-.8,5.08,12.09,12.09,0,0,0,.88,5,6.32,6.32,0,0,0,2.5,2.93,8.65,8.65,0,0,0,7.92,0,6.58,6.58,0,0,0,2.39-2.67l6.19,2.38a9.87,9.87,0,0,1-2.75,3.81,12.42,12.42,0,0,1-4.38,2.41A17.33,17.33,0,0,1,169.85,304.39Z" transform="translate(0.01 -0.04)"/><path class="cls-2" d="M221.43,265.76a21.54,21.54,0,0,1,9,1.76,17.61,17.61,0,0,1,6.59,5.23l-4.38,5.05a15.32,15.32,0,0,0-5.08-4.34,14,14,0,0,0-6.39-1.4,10.65,10.65,0,0,0-4,.63,4.88,4.88,0,0,0-2.27,1.65,3.84,3.84,0,0,0-.71,2.27,3.29,3.29,0,0,0,1.19,2.58,9.62,9.62,0,0,0,4.09,1.74l7,1.59q5.56,1.25,8,3.72a8.76,8.76,0,0,1,2.41,6.39A10.41,10.41,0,0,1,235,299a12.11,12.11,0,0,1-5.4,4,21.36,21.36,0,0,1-8,1.39,25.85,25.85,0,0,1-7.19-.94,22,22,0,0,1-5.82-2.58,17.48,17.48,0,0,1-4.26-3.81l4.43-5.28A14.39,14.39,0,0,0,212,295a15.74,15.74,0,0,0,4.4,2.25,16.32,16.32,0,0,0,5.2.82,12.61,12.61,0,0,0,4-.54A5.23,5.23,0,0,0,228,296a3.66,3.66,0,0,0,.82-2.42,3.54,3.54,0,0,0-1-2.52,7.11,7.11,0,0,0-3.66-1.62l-7.62-1.71a23.51,23.51,0,0,1-5.65-2.07,8.6,8.6,0,0,1-4.8-8.09,10.48,10.48,0,0,1,1.82-6,12.3,12.3,0,0,1,5.25-4.23A19.94,19.94,0,0,1,221.43,265.76Z" transform="translate(0.01 -0.04)"/><path class="cls-2" d="M262.67,275.42v5.79h-22.1v-5.79Zm-9.09-8.7v27.84a3.8,3.8,0,0,0,1,3,4.14,4.14,0,0,0,2.87.94,6.65,6.65,0,0,0,2.5-.43,6.49,6.49,0,0,0,1.93-1.16l1.25,5.17a10.09,10.09,0,0,1-3.41,1.7,14.54,14.54,0,0,1-4.31.63,14,14,0,0,1-5-.85,7,7,0,0,1-3.41-2.73,9.09,9.09,0,0,1-1.22-5V268.88Z" transform="translate(0.01 -0.04)"/><path class="cls-2" d="M277.84,304.39a12.34,12.34,0,0,1-5.11-1,7.92,7.92,0,0,1-3.61-3.27,11.29,11.29,0,0,1-1.34-5.82V275.42h7.79v17c0,2.2.45,3.72,1.36,4.57a5.49,5.49,0,0,0,3.92,1.28,6.66,6.66,0,0,0,2.33-.42,5.5,5.5,0,0,0,2-1.34,6.39,6.39,0,0,0,1.39-2.36,10.33,10.33,0,0,0,.51-3.43V275.42h7.78v28.4H288l-.28-4.94a9.35,9.35,0,0,1-3.89,4.17A12.35,12.35,0,0,1,277.84,304.39Z" transform="translate(0.01 -0.04)"/><path class="cls-2" d="M313.8,304.39a11.45,11.45,0,0,1-6.28-1.76,11.91,11.91,0,0,1-4.32-5.06,18.31,18.31,0,0,1-1.56-7.9,17.88,17.88,0,0,1,1.65-8,12,12,0,0,1,4.46-5.06,11.84,11.84,0,0,1,6.33-1.73,9,9,0,0,1,6.19,2.16,10.09,10.09,0,0,1,3.19,5.56l-.74.91V263h7.78v40.84h-7l-.51-8.63,1,.45a10.39,10.39,0,0,1-1.82,4.63,9.73,9.73,0,0,1-3.58,3A10.52,10.52,0,0,1,313.8,304.39Zm2.27-6a5.91,5.91,0,0,0,3.52-1.05,6.74,6.74,0,0,0,2.3-3.09,13.06,13.06,0,0,0,.83-4.89,12,12,0,0,0-.8-4.63,6.48,6.48,0,0,0-2.27-2.92,5.9,5.9,0,0,0-3.47-1,6,6,0,0,0-5,2.25q-1.79,2.24-1.79,6.56c0,2.88.59,5.06,1.77,6.56A5.84,5.84,0,0,0,316.07,298.42Z" transform="translate(0.01 -0.04)"/><path class="cls-2" d="M365.38,275.42,353.9,305.58a23.69,23.69,0,0,1-3,6.14A10.23,10.23,0,0,1,347,315a12.21,12.21,0,0,1-5.2,1,14.45,14.45,0,0,1-4.06-.54,12.79,12.79,0,0,1-3.21-1.39l1.65-5.62a7.08,7.08,0,0,0,2.27,1.22,9.15,9.15,0,0,0,2.73.37,5.37,5.37,0,0,0,2.75-.68,5.22,5.22,0,0,0,2-2.73l1-2.44-3.12-7.39L335,275.42h8.64l5.4,17,1.47,5.68,1.76-6,5.17-16.7Z" transform="translate(0.01 -0.04)"/></svg>