<?xml version="1.0" encoding="utf-8"?>
<!-- Generator: Adobe Illustrator 24.1.2, SVG Export Plug-In . SVG Version: 6.00 Build 0)  -->
<svg version="1.1" id="Layer_1" xmlns="http://www.w3.org/2000/svg" xmlns:xlink="http://www.w3.org/1999/xlink" x="0px" y="0px"
	 viewBox="0 0 570.7 295.4" style="enable-background:new 0 0 570.7 295.4;" xml:space="preserve">
<style type="text/css">
	.st0{fill:#BF271B;}
	.st1{fill:#FFFFFF;}
</style>
<path class="st0" d="M335.7,5.8C253,2.3,170.3,14.6,92.2,42C58.6,53.8,23.1,71.2,9,104c-6.8,15.7-7.7,33.2-8.5,50.3
	c-2.1,43.2-0.5,94.3,35.1,118.9c18.9,13.1,43,15.1,65.9,16.5c42.7,2.6,85.4,4.7,128.2,5.5c64.9,1.1,131.2-0.9,192.5-22.2
	c37.2-13,71.7-32.6,105.9-52.1c12.6-7.2,25.7-14.8,34.3-26.5s11.7-28.9,3.2-40.7c-5.2-7.2-13.5-11.3-21.5-15.3
	c-74.4-36.6-123.4-65.7-185.4-120.9C347.6,7.8,335.7,5.8,335.7,5.8z"/>
<g>
	<path class="st1" d="M69.2,149.5v-36.8h27.6v6.2H76.9v9.1h15.7v5.9H76.9v9.4h20.7v6.2H69.2z"/>
	<path class="st1" d="M115.7,121.1c2.5,0,4.6,0.4,6.3,1.1c1.7,0.7,3.1,1.7,4.2,3c1.1,1.2,1.8,2.6,2.3,4.2l-7.1,2.6
		c-0.4-1.7-1-2.9-1.9-3.8c-0.9-0.9-2.1-1.3-3.6-1.3c-1.4,0-2.6,0.3-3.6,1c-1,0.7-1.8,1.6-2.3,3c-0.5,1.3-0.8,3-0.8,4.9
		c0,2,0.3,3.6,0.8,4.9c0.5,1.3,1.3,2.3,2.3,2.9c1,0.6,2.2,0.9,3.6,0.9c1.1,0,2.1-0.2,2.8-0.6c0.8-0.4,1.4-1,1.9-1.7s0.8-1.6,1-2.7
		l6.9,2.2c-0.4,1.7-1.2,3.1-2.3,4.4c-1.1,1.3-2.5,2.2-4.3,3c-1.7,0.7-3.8,1.1-6.1,1.1c-2.9,0-5.4-0.6-7.6-1.7
		c-2.2-1.2-3.9-2.8-5.1-5c-1.2-2.2-1.8-4.8-1.8-7.8c0-3,0.6-5.6,1.8-7.8c1.2-2.2,2.9-3.8,5-5C110.5,121.7,112.9,121.1,115.7,121.1z"
		/>
	<path class="st1" d="M147.2,121.1c2.8,0,5.3,0.6,7.4,1.7c2.1,1.2,3.8,2.8,5,5c1.2,2.2,1.8,4.8,1.8,7.8c0,3-0.6,5.6-1.8,7.8
		c-1.2,2.2-2.9,3.8-5,5c-2.1,1.2-4.6,1.7-7.4,1.7c-2.8,0-5.3-0.6-7.4-1.7c-2.2-1.2-3.8-2.8-5-5c-1.2-2.2-1.8-4.8-1.8-7.8
		c0-3,0.6-5.6,1.8-7.8c1.2-2.2,2.9-3.8,5-5C141.9,121.7,144.4,121.1,147.2,121.1z M147.2,126.8c-1.4,0-2.6,0.3-3.6,1
		c-1,0.7-1.7,1.6-2.3,2.9c-0.5,1.3-0.8,2.9-0.8,4.9c0,2,0.3,3.6,0.8,4.9c0.5,1.3,1.3,2.3,2.3,2.9c1,0.7,2.2,1,3.6,1
		c1.4,0,2.6-0.3,3.5-1c1-0.6,1.7-1.6,2.3-2.9c0.5-1.3,0.8-2.9,0.8-4.9c0-2-0.3-3.6-0.8-4.9c-0.5-1.3-1.3-2.3-2.3-2.9
		C149.8,127.1,148.6,126.8,147.2,126.8z"/>
	<path class="st1" d="M167.9,149.5v-27.9h6.9l0.3,5c0.9-1.9,2.2-3.3,3.8-4.2c1.6-0.9,3.4-1.4,5.4-1.4c2,0,3.8,0.5,5.4,1.4
		c1.6,0.9,2.8,2.3,3.7,4.1c0.6-1.2,1.4-2.2,2.4-3.1c1-0.8,2.1-1.4,3.3-1.8c1.2-0.4,2.5-0.6,3.7-0.6c1.8,0,3.5,0.4,5,1.1
		c1.5,0.7,2.7,1.9,3.6,3.3c0.9,1.5,1.3,3.4,1.3,5.7v18.3h-7.6v-16.8c0-2-0.4-3.5-1.3-4.3c-0.9-0.9-2-1.3-3.5-1.3
		c-1.1,0-2.1,0.3-3.1,0.8c-0.9,0.6-1.7,1.4-2.2,2.5c-0.5,1.1-0.8,2.5-0.8,4.1v15h-7.6v-16.8c0-2-0.5-3.5-1.4-4.3
		c-0.9-0.9-2.1-1.3-3.5-1.3c-1,0-1.9,0.3-2.9,0.8c-0.9,0.5-1.7,1.3-2.3,2.5c-0.6,1.1-0.9,2.6-0.9,4.4v14.8H167.9z"/>
	<path class="st1" d="M220.5,149.5v-27.9h6.9l0.3,5c0.9-1.9,2.2-3.3,3.8-4.2c1.6-0.9,3.4-1.4,5.4-1.4c2,0,3.8,0.5,5.4,1.4
		c1.6,0.9,2.8,2.3,3.7,4.1c0.6-1.2,1.4-2.2,2.4-3.1c1-0.8,2.1-1.4,3.3-1.8c1.2-0.4,2.5-0.6,3.7-0.6c1.8,0,3.5,0.4,5,1.1
		c1.5,0.7,2.7,1.9,3.6,3.3c0.9,1.5,1.3,3.4,1.3,5.7v18.3h-7.6v-16.8c0-2-0.4-3.5-1.3-4.3c-0.9-0.9-2-1.3-3.5-1.3
		c-1.1,0-2.1,0.3-3.1,0.8c-0.9,0.6-1.7,1.4-2.2,2.5c-0.5,1.1-0.8,2.5-0.8,4.1v15h-7.6v-16.8c0-2-0.5-3.5-1.4-4.3
		c-0.9-0.9-2.1-1.3-3.5-1.3c-1,0-1.9,0.3-2.9,0.8c-0.9,0.5-1.7,1.3-2.3,2.5c-0.6,1.1-0.9,2.6-0.9,4.4v14.8H220.5z"/>
	<path class="st1" d="M286.1,150.1c-2.9,0-5.5-0.6-7.7-1.7s-3.9-2.8-5-5c-1.2-2.2-1.8-4.8-1.8-7.8c0-3,0.6-5.6,1.8-7.8
		c1.2-2.2,2.9-3.8,5-5c2.1-1.2,4.6-1.7,7.3-1.7c2.8,0,5.2,0.6,7.2,1.7c2,1.1,3.5,2.7,4.5,4.6s1.6,4.2,1.6,6.7c0,0.7,0,1.4-0.1,2.1
		c0,0.7-0.1,1.3-0.2,1.8h-22.2v-5.3h18.9l-3.7,1.3c0-2.3-0.5-4.1-1.6-5.4c-1.1-1.3-2.6-1.9-4.5-1.9c-1.4,0-2.6,0.3-3.7,1
		c-1,0.7-1.8,1.7-2.3,3c-0.5,1.3-0.8,3-0.8,5c0,2,0.3,3.6,0.9,4.9c0.6,1.3,1.4,2.2,2.5,2.9c1.1,0.6,2.3,0.9,3.8,0.9
		c1.6,0,3-0.3,4-0.9c1-0.6,1.8-1.5,2.3-2.6l6.1,2.3c-0.6,1.4-1.5,2.7-2.7,3.7c-1.2,1-2.6,1.8-4.3,2.4S288,150.1,286.1,150.1z"/>
	<path class="st1" d="M305.5,149.5v-27.9h6.6l0.5,5.5c0.7-1.9,1.8-3.4,3.3-4.5c1.4-1,3.2-1.6,5.4-1.6c0.6,0,1.2,0.1,1.7,0.2
		c0.5,0.1,0.9,0.3,1.3,0.4l-0.9,6.4c-0.4-0.1-0.8-0.3-1.4-0.3c-0.5-0.1-1.2-0.1-2.1-0.1c-1.1,0-2.2,0.3-3.2,0.8
		c-1,0.5-1.9,1.4-2.6,2.5c-0.7,1.1-1,2.5-1,4.2v14.4H305.5z"/>
	<path class="st1" d="M341.1,121.1c2.5,0,4.6,0.4,6.3,1.1s3.1,1.7,4.2,3c1.1,1.2,1.8,2.6,2.3,4.2l-7.1,2.6c-0.4-1.7-1-2.9-1.9-3.8
		c-0.9-0.9-2.1-1.3-3.6-1.3c-1.4,0-2.6,0.3-3.6,1c-1,0.7-1.8,1.6-2.3,3c-0.5,1.3-0.8,3-0.8,4.9c0,2,0.3,3.6,0.8,4.9
		c0.5,1.3,1.3,2.3,2.3,2.9c1,0.6,2.2,0.9,3.6,0.9c1.1,0,2.1-0.2,2.8-0.6c0.8-0.4,1.4-1,1.9-1.7c0.5-0.7,0.8-1.6,1-2.7l6.9,2.2
		c-0.4,1.7-1.2,3.1-2.3,4.4c-1.1,1.3-2.5,2.2-4.3,3c-1.7,0.7-3.8,1.1-6.1,1.1c-2.9,0-5.4-0.6-7.6-1.7c-2.2-1.2-3.9-2.8-5.1-5
		c-1.2-2.2-1.8-4.8-1.8-7.8c0-3,0.6-5.6,1.8-7.8c1.2-2.2,2.9-3.8,5-5C335.8,121.7,338.3,121.1,341.1,121.1z"/>
	<path class="st1" d="M372.8,150.1c-2.9,0-5.5-0.6-7.7-1.7s-3.9-2.8-5-5c-1.2-2.2-1.8-4.8-1.8-7.8c0-3,0.6-5.6,1.8-7.8
		c1.2-2.2,2.9-3.8,5-5c2.1-1.2,4.6-1.7,7.3-1.7c2.8,0,5.2,0.6,7.2,1.7c2,1.1,3.5,2.7,4.5,4.6s1.6,4.2,1.6,6.7c0,0.7,0,1.4-0.1,2.1
		c0,0.7-0.1,1.3-0.2,1.8h-22.2v-5.3h18.9l-3.7,1.3c0-2.3-0.5-4.1-1.6-5.4c-1.1-1.3-2.6-1.9-4.5-1.9c-1.4,0-2.6,0.3-3.7,1
		c-1,0.7-1.8,1.7-2.3,3c-0.5,1.3-0.8,3-0.8,5c0,2,0.3,3.6,0.9,4.9c0.6,1.3,1.4,2.2,2.5,2.9c1.1,0.6,2.3,0.9,3.8,0.9
		c1.6,0,3-0.3,4-0.9c1-0.6,1.8-1.5,2.3-2.6l6.1,2.3c-0.6,1.4-1.5,2.7-2.7,3.7c-1.2,1-2.6,1.8-4.3,2.4S374.7,150.1,372.8,150.1z"/>
	<path class="st1" d="M100.7,206.2c-0.7,2.4-1.8,4.4-3.3,6c-1.5,1.6-3.3,2.8-5.4,3.6c-2.1,0.8-4.4,1.2-6.9,1.2
		c-3.6,0-6.8-0.8-9.4-2.3c-2.7-1.5-4.7-3.7-6.1-6.5c-1.4-2.8-2.1-6.2-2.1-10.1c0-3.9,0.7-7.3,2.1-10.1c1.4-2.8,3.5-5,6.1-6.5
		c2.7-1.5,5.8-2.3,9.3-2.3c2.5,0,4.8,0.3,6.9,1c2,0.7,3.8,1.7,5.2,3.1c1.4,1.4,2.5,3.2,3.1,5.3l-7,3c-0.6-2.2-1.6-3.8-2.9-4.8
		c-1.3-0.9-3-1.4-5-1.4c-2,0-3.8,0.5-5.3,1.4c-1.5,1-2.7,2.4-3.5,4.3c-0.8,1.9-1.2,4.2-1.2,6.9c0,2.7,0.4,5,1.1,6.9
		c0.8,1.9,1.9,3.3,3.4,4.3c1.5,1,3.3,1.4,5.5,1.4c2,0,3.7-0.5,5.2-1.6c1.5-1.1,2.5-2.7,3.1-4.9L100.7,206.2z"/>
	<path class="st1" d="M122.4,198.6c0-1.6-0.5-2.8-1.4-3.7c-0.9-0.9-2.1-1.3-3.6-1.3c-1.4,0-2.6,0.4-3.6,1.1c-1,0.7-1.8,1.9-2.3,3.5
		l-6.5-2c0.6-2.5,2-4.4,4.2-5.9c2.1-1.5,5-2.2,8.6-2.2c2.5,0,4.6,0.4,6.4,1.1c1.8,0.8,3.2,1.9,4.3,3.4c1,1.5,1.5,3.4,1.5,5.7v11.3
		c0,1.4,0.7,2.1,2,2.1c0.6,0,1.2-0.1,1.8-0.3l-0.4,4.7c-1,0.5-2.2,0.7-3.6,0.7c-1.3,0-2.5-0.2-3.5-0.7c-1-0.4-1.9-1.1-2.5-2
		c-0.6-0.9-0.9-2.1-0.9-3.4v-0.2l1.3-0.2c-0.2,1.4-0.8,2.6-1.8,3.6c-1,1-2.2,1.7-3.7,2.3c-1.4,0.5-2.9,0.8-4.4,0.8
		c-1.9,0-3.5-0.3-4.9-0.9c-1.4-0.6-2.4-1.4-3.2-2.5c-0.7-1.1-1.1-2.5-1.1-4.1c0-2.1,0.7-3.8,2-5.1c1.3-1.3,3.3-2.2,5.7-2.7l10.5-2.1
		l-0.1,4.7l-6.7,1.3c-1.3,0.3-2.2,0.6-2.9,1c-0.7,0.4-1,1.1-1,2.1c0,0.9,0.3,1.6,1,2.1c0.7,0.5,1.5,0.7,2.5,0.7
		c0.8,0,1.5-0.1,2.3-0.3c0.7-0.2,1.4-0.5,2-0.9c0.6-0.4,1.1-1,1.4-1.7c0.3-0.7,0.5-1.6,0.5-2.6V198.6z"/>
	<path class="st1" d="M149.7,217c-2.8,0-5.4-0.5-7.7-1.5c-2.3-1-4.2-2.4-5.7-4.2l4.4-4.5c0.9,1.3,2.1,2.4,3.6,3.3
		c1.5,0.9,3.3,1.3,5.3,1.3c1.4,0,2.6-0.2,3.5-0.6c0.9-0.4,1.3-1.1,1.3-2c0-0.6-0.2-1.1-0.6-1.5c-0.4-0.4-1.2-0.8-2.5-1l-4.9-1
		c-3.2-0.7-5.5-1.7-6.9-3c-1.4-1.4-2-3.1-2-5.3c0-1.5,0.5-3,1.4-4.3c0.9-1.3,2.3-2.4,4.1-3.3c1.8-0.8,4.1-1.3,6.8-1.3
		c2.8,0,5.2,0.4,7.3,1.3s3.7,2.2,4.9,3.9l-4.6,4.5c-0.8-1.3-1.9-2.3-3.2-3c-1.3-0.7-2.7-1-4.2-1c-1,0-1.9,0.1-2.7,0.3
		c-0.7,0.2-1.3,0.5-1.7,0.9c-0.4,0.4-0.6,0.9-0.6,1.5c0,0.6,0.3,1.1,0.8,1.5c0.5,0.4,1.5,0.8,2.8,1.1l5.7,1.2
		c2.7,0.6,4.7,1.5,5.9,2.8c1.2,1.3,1.8,2.9,1.8,4.8c0,1.8-0.5,3.4-1.4,4.8c-0.9,1.4-2.3,2.5-4.2,3.3
		C154.6,216.6,152.3,217,149.7,217z"/>
	<path class="st1" d="M180.9,217c-2.9,0-5.5-0.6-7.7-1.7c-2.2-1.2-3.9-2.8-5-5c-1.2-2.2-1.8-4.8-1.8-7.8s0.6-5.6,1.8-7.8
		c1.2-2.2,2.9-3.8,5-5c2.1-1.2,4.6-1.7,7.3-1.7c2.8,0,5.2,0.6,7.2,1.7c2,1.1,3.5,2.7,4.5,4.6c1,2,1.6,4.2,1.6,6.7
		c0,0.7,0,1.4-0.1,2.1c0,0.7-0.1,1.3-0.2,1.8h-22.2v-5.3h18.9l-3.7,1.3c0-2.3-0.5-4.1-1.6-5.4c-1.1-1.3-2.6-1.9-4.5-1.9
		c-1.4,0-2.6,0.3-3.7,1c-1,0.7-1.8,1.7-2.3,3c-0.5,1.3-0.8,3-0.8,5c0,2,0.3,3.6,0.9,4.9c0.6,1.3,1.4,2.2,2.5,2.9
		c1.1,0.6,2.3,0.9,3.8,0.9c1.6,0,3-0.3,4-0.9c1-0.6,1.8-1.5,2.3-2.6l6.1,2.3c-0.6,1.4-1.5,2.7-2.7,3.7c-1.2,1-2.6,1.8-4.3,2.4
		C184.6,216.7,182.8,217,180.9,217z"/>
	<path class="st1" d="M231.5,179.1c3.3,0,6.3,0.6,8.8,1.7c2.5,1.2,4.7,2.9,6.5,5.1l-4.3,5c-1.5-1.9-3.2-3.4-5-4.3
		c-1.8-0.9-3.9-1.4-6.3-1.4c-1.6,0-2.9,0.2-3.9,0.6c-1,0.4-1.8,0.9-2.2,1.6c-0.5,0.7-0.7,1.4-0.7,2.2c0,1,0.4,1.8,1.2,2.5
		c0.8,0.7,2.1,1.3,4,1.7l6.9,1.6c3.6,0.8,6.3,2,7.8,3.7s2.4,3.7,2.4,6.3c0,2.4-0.6,4.5-1.9,6.2c-1.3,1.7-3,3-5.3,4
		c-2.3,0.9-4.9,1.4-7.8,1.4c-2.6,0-4.9-0.3-7.1-0.9c-2.1-0.6-4-1.5-5.7-2.5c-1.7-1.1-3.1-2.3-4.2-3.7l4.3-5.2
		c0.9,1.2,1.9,2.2,3.2,3.2c1.3,0.9,2.7,1.7,4.3,2.2c1.6,0.5,3.3,0.8,5.1,0.8c1.5,0,2.8-0.2,3.9-0.5c1.1-0.4,1.9-0.9,2.4-1.5
		c0.5-0.6,0.8-1.4,0.8-2.4c0-1-0.3-1.8-1-2.5c-0.7-0.7-1.8-1.2-3.6-1.6l-7.5-1.7c-2.2-0.5-4-1.2-5.5-2c-1.5-0.8-2.7-1.9-3.5-3.2
		c-0.8-1.3-1.2-2.9-1.2-4.7c0-2.2,0.6-4.2,1.8-5.9c1.2-1.7,2.9-3.1,5.2-4.2C225.7,179.6,228.4,179.1,231.5,179.1z"/>
	<path class="st1" d="M272,188.5v5.7h-21.7v-5.7H272z M263.1,180v27.3c0,1.3,0.3,2.3,1,2.9s1.6,0.9,2.8,0.9c0.9,0,1.7-0.1,2.5-0.4
		c0.7-0.3,1.3-0.7,1.9-1.1l1.2,5.1c-0.9,0.7-2,1.3-3.3,1.7s-2.8,0.6-4.2,0.6c-1.9,0-3.5-0.3-4.9-0.8c-1.4-0.6-2.5-1.4-3.3-2.7
		c-0.8-1.2-1.2-2.9-1.2-4.9v-26.4L263.1,180z"/>
	<path class="st1" d="M286.9,217c-1.9,0-3.5-0.3-5-1c-1.5-0.7-2.7-1.7-3.5-3.2c-0.9-1.5-1.3-3.4-1.3-5.7v-18.5h7.6v16.7
		c0,2.2,0.4,3.7,1.3,4.5s2.2,1.3,3.8,1.3c0.8,0,1.5-0.1,2.3-0.4c0.7-0.3,1.4-0.7,2-1.3c0.6-0.6,1-1.4,1.4-2.3
		c0.3-0.9,0.5-2.1,0.5-3.4v-15h7.6v27.9h-6.8l-0.3-4.8c-0.9,1.9-2.2,3.2-3.8,4.1C291.1,216.5,289.1,217,286.9,217z"/>
	<path class="st1" d="M322.1,217c-2.3,0-4.4-0.6-6.2-1.7c-1.8-1.2-3.2-2.8-4.2-5c-1-2.2-1.5-4.7-1.5-7.7c0-3.1,0.5-5.7,1.6-7.9
		c1.1-2.2,2.5-3.8,4.4-5c1.8-1.1,3.9-1.7,6.2-1.7c2.5,0,4.5,0.7,6.1,2.1c1.6,1.4,2.6,3.2,3.1,5.5l-0.7,0.9v-20.1h7.6v40.1h-6.9
		l-0.5-8.5l0.9,0.4c-0.3,1.7-0.9,3.3-1.8,4.5c-0.9,1.3-2.1,2.3-3.5,3C325.4,216.6,323.9,217,322.1,217z M324.4,211.1
		c1.3,0,2.5-0.3,3.5-1c1-0.7,1.7-1.7,2.3-3c0.5-1.3,0.8-2.9,0.8-4.8c0-1.8-0.3-3.3-0.8-4.5c-0.5-1.2-1.3-2.2-2.2-2.9
		c-1-0.7-2.1-1-3.4-1c-2.1,0-3.7,0.7-4.9,2.2c-1.2,1.5-1.8,3.6-1.8,6.4s0.6,5,1.7,6.4C320.7,210.4,322.3,211.1,324.4,211.1z"/>
	<path class="st1" d="M372.8,188.5l-11.3,29.6c-0.9,2.5-1.9,4.5-3,6c-1.1,1.5-2.4,2.6-3.8,3.2c-1.4,0.7-3.1,1-5.1,1
		c-1.4,0-2.8-0.2-4-0.5c-1.2-0.4-2.3-0.8-3.1-1.4l1.6-5.5c0.7,0.6,1.4,1,2.2,1.2c0.8,0.2,1.7,0.4,2.7,0.4c1,0,1.9-0.2,2.7-0.7
		c0.8-0.4,1.4-1.3,1.9-2.7l0.9-2.4l-3.1-7.2l-8.5-21h8.5l5.3,16.7l1.4,5.6l1.7-5.9l5.1-16.4H372.8z"/>
</g>
</svg>
