<?xml version="1.0" encoding="utf-8"?>
<!-- Generator: Adobe Illustrator 24.1.2, SVG Export Plug-In . SVG Version: 6.00 Build 0)  -->
<svg version="1.1" id="Layer_1" xmlns="http://www.w3.org/2000/svg" xmlns:xlink="http://www.w3.org/1999/xlink" x="0px" y="0px"
	 viewBox="0 0 483.1 228" style="enable-background:new 0 0 483.1 228;" xml:space="preserve">
<style type="text/css">
	.st0{fill:#346C63;}
	.st1{fill:#FFFFFF;}
</style>
<g>
	<path class="st0" d="M324.8,14.3C270-2.2,206.3,5.5,146,10.1C90.8,14.3,27.1,26,8.3,59c-10.2,18-3.6,38.5,11,55.4
		s36.3,30.7,57.8,44.3c53.7,33.8,119.5,70,194.8,63.6c46.5-4,85.4-23.8,119.3-44.3c35.9-21.6,70.3-45.7,85.9-75.4
		c5.5-10.5,8.5-22,3.4-32.6c-6-12.4-22.3-21.7-39.2-29.2c-40.4-17.8-88.6-28.3-137.7-30.3"/>
</g>
<g>
	<path class="st1" d="M126.1,72.2v22.4h-5.2V84.4l0.2-6.9H121l-5.5,17.2h-4.7l-5.5-17.2h-0.1l0.2,6.9v10.3h-5.2V72.2h8.3l3.5,11.4
		l1.3,4.8h0.1l1.3-4.7l3.5-11.4H126.1z"/>
	<path class="st1" d="M133.5,75.7c-1.2,0-2-0.2-2.6-0.7c-0.5-0.4-0.8-1.1-0.8-2.1c0-1,0.3-1.7,0.8-2.1c0.5-0.4,1.4-0.7,2.6-0.7
		c1.2,0,2,0.2,2.5,0.7c0.5,0.4,0.8,1.1,0.8,2.1c0,1-0.3,1.6-0.8,2.1C135.5,75.5,134.7,75.7,133.5,75.7z M136.4,77.7v17h-5.8v-17
		H136.4z"/>
	<path class="st1" d="M140.5,94.6v-17h5.1l0.2,3.7c0.4-1.3,1.1-2.3,1.9-3c0.8-0.7,1.9-1.1,3.2-1.1c0.4,0,0.8,0,1.1,0.1
		c0.3,0.1,0.5,0.2,0.7,0.3l-0.6,4.8c-0.2-0.1-0.5-0.2-0.9-0.2c-0.4-0.1-0.8-0.1-1.3-0.1c-0.7,0-1.3,0.1-1.9,0.4
		c-0.6,0.3-1.1,0.7-1.4,1.3c-0.4,0.6-0.5,1.3-0.5,2.2v8.6H140.5z"/>
	<path class="st1" d="M155.1,94.6v-17h5.1l0.2,3.7c0.4-1.3,1.1-2.3,1.9-3c0.8-0.7,1.9-1.1,3.2-1.1c0.4,0,0.8,0,1.1,0.1
		c0.3,0.1,0.5,0.2,0.7,0.3l-0.6,4.8c-0.2-0.1-0.5-0.2-0.9-0.2c-0.4-0.1-0.8-0.1-1.3-0.1c-0.7,0-1.3,0.1-1.9,0.4
		c-0.6,0.3-1.1,0.7-1.4,1.3c-0.4,0.6-0.5,1.3-0.5,2.2v8.6H155.1z"/>
	<path class="st1" d="M177.6,77.3c1.8,0,3.4,0.3,4.7,1c1.3,0.7,2.4,1.7,3.2,3c0.8,1.3,1.1,2.9,1.1,4.8c0,1.9-0.4,3.4-1.1,4.8
		c-0.8,1.3-1.8,2.3-3.2,3c-1.3,0.7-2.9,1-4.7,1c-1.7,0-3.3-0.3-4.7-1c-1.4-0.7-2.4-1.7-3.2-3c-0.8-1.3-1.1-2.9-1.1-4.8
		c0-1.9,0.4-3.4,1.1-4.8c0.8-1.3,1.8-2.3,3.2-3C174.3,77.7,175.8,77.3,177.6,77.3z M177.6,81.4c-0.7,0-1.2,0.2-1.7,0.5
		c-0.5,0.3-0.8,0.8-1.1,1.5c-0.2,0.7-0.4,1.6-0.4,2.7c0,1.1,0.1,2,0.4,2.7c0.2,0.7,0.6,1.2,1.1,1.5c0.5,0.3,1,0.5,1.7,0.5
		c0.7,0,1.3-0.2,1.7-0.5c0.5-0.3,0.8-0.8,1.1-1.5c0.2-0.7,0.4-1.6,0.4-2.7c0-1.1-0.1-2-0.4-2.7c-0.2-0.7-0.6-1.2-1.1-1.5
		C178.8,81.6,178.3,81.4,177.6,81.4z"/>
	<path class="st1" d="M189.8,94.6v-17h5.1l0.2,3.7c0.4-1.3,1.1-2.3,1.9-3c0.8-0.7,1.9-1.1,3.2-1.1c0.4,0,0.8,0,1.1,0.1
		c0.3,0.1,0.5,0.2,0.7,0.3l-0.6,4.8c-0.2-0.1-0.5-0.2-0.9-0.2c-0.4-0.1-0.8-0.1-1.3-0.1c-0.7,0-1.3,0.1-1.9,0.4
		c-0.6,0.3-1.1,0.7-1.4,1.3c-0.4,0.6-0.5,1.3-0.5,2.2v8.6H189.8z"/>
	<path class="st1" d="M120,129c-0.4,1.6-1.1,2.8-2.1,3.9c-1,1-2.1,1.7-3.4,2.2c-1.3,0.5-2.8,0.7-4.3,0.7c-2.3,0-4.2-0.5-5.9-1.4
		c-1.7-0.9-2.9-2.2-3.8-4c-0.9-1.7-1.3-3.8-1.3-6.2s0.4-4.5,1.3-6.2c0.9-1.7,2.2-3,3.8-4c1.7-0.9,3.6-1.4,5.8-1.4
		c1.6,0,3,0.2,4.3,0.7c1.3,0.4,2.4,1.1,3.3,2c0.9,0.9,1.6,2.1,1.9,3.5l-5.1,2.1c-0.3-1.4-0.8-2.4-1.5-2.9c-0.7-0.5-1.6-0.8-2.7-0.8
		c-1.1,0-2,0.3-2.8,0.8c-0.8,0.5-1.4,1.3-1.8,2.3c-0.4,1-0.6,2.3-0.6,3.9c0,1.5,0.2,2.8,0.6,3.8c0.4,1,1,1.8,1.7,2.3
		c0.8,0.5,1.7,0.8,2.9,0.8c1.1,0,2-0.3,2.8-0.9c0.8-0.6,1.3-1.5,1.5-2.8L120,129z"/>
	<path class="st1" d="M132.3,124.6c0-0.8-0.2-1.4-0.7-1.9c-0.4-0.5-1-0.7-1.8-0.7c-0.7,0-1.4,0.2-1.9,0.6c-0.5,0.4-0.9,1-1.1,2
		l-4.9-1.2c0.3-1.6,1.2-2.9,2.5-3.9c1.4-1,3.3-1.5,5.7-1.5c1.7,0,3.1,0.2,4.2,0.7c1.2,0.5,2.1,1.2,2.7,2.2c0.6,1,0.9,2.1,0.9,3.5
		v6.2c0,0.9,0.4,1.3,1.2,1.3c0.4,0,0.7,0,1-0.1l-0.3,3.3c-0.7,0.3-1.5,0.5-2.5,0.5c-0.9,0-1.7-0.1-2.3-0.4c-0.7-0.3-1.2-0.7-1.6-1.3
		c-0.4-0.6-0.6-1.3-0.6-2.2v-0.2l0.6-0.2c0,1-0.3,1.8-0.9,2.4c-0.6,0.7-1.3,1.1-2.2,1.5c-0.9,0.3-1.9,0.5-2.9,0.5
		c-1.2,0-2.2-0.2-3-0.5c-0.9-0.4-1.5-0.9-2-1.6c-0.5-0.7-0.7-1.5-0.7-2.6c0-1.2,0.4-2.2,1.1-3c0.7-0.8,1.9-1.4,3.5-1.7l6.4-1.3
		l0,3.1l-3.3,0.7c-0.7,0.1-1.2,0.3-1.5,0.6c-0.3,0.3-0.5,0.7-0.5,1.2c0,0.5,0.2,0.9,0.5,1.1c0.4,0.2,0.8,0.4,1.3,0.4
		c0.4,0,0.8-0.1,1.1-0.2c0.4-0.1,0.7-0.3,0.9-0.5c0.3-0.2,0.5-0.5,0.6-0.9c0.2-0.4,0.2-0.8,0.2-1.3V124.6z"/>
	<path class="st1" d="M149.6,135.7c-1.7,0-3.3-0.3-4.7-0.8c-1.5-0.6-2.7-1.4-3.7-2.4l2.7-3.2c0.6,0.7,1.3,1.3,2.3,1.8
		c0.9,0.5,2,0.7,3.1,0.7c0.7,0,1.3-0.1,1.8-0.3c0.5-0.2,0.7-0.5,0.7-1c0-0.3-0.1-0.6-0.3-0.8c-0.2-0.2-0.7-0.4-1.4-0.5l-2.3-0.4
		c-2.2-0.4-3.7-1.1-4.6-1.9c-0.9-0.8-1.4-2-1.4-3.3c0-0.9,0.3-1.8,0.9-2.6c0.6-0.8,1.5-1.5,2.6-2.1c1.2-0.5,2.7-0.8,4.5-0.8
		c1.7,0,3.2,0.2,4.6,0.7c1.3,0.5,2.4,1.2,3.2,2.2l-2.8,3.1c-0.5-0.7-1.2-1.2-2.1-1.6c-0.9-0.4-1.7-0.6-2.6-0.6c-0.5,0-1,0.1-1.3,0.2
		c-0.4,0.1-0.7,0.2-0.8,0.4c-0.2,0.2-0.3,0.4-0.3,0.7c0,0.3,0.1,0.5,0.4,0.8c0.3,0.2,0.8,0.4,1.6,0.6l3.1,0.6c1.7,0.3,3,0.9,3.8,1.7
		c0.8,0.8,1.2,1.9,1.2,3.1c0,1.1-0.3,2-0.9,2.9c-0.6,0.9-1.5,1.6-2.6,2.1C152.9,135.5,151.4,135.7,149.6,135.7z"/>
	<path class="st1" d="M168.7,135.7c-1.9,0-3.5-0.4-4.8-1.1c-1.4-0.7-2.4-1.7-3.2-3c-0.7-1.3-1.1-2.9-1.1-4.8c0-1.9,0.4-3.5,1.1-4.8
		c0.7-1.3,1.8-2.3,3.1-3c1.3-0.7,2.9-1.1,4.6-1.1c1.8,0,3.3,0.3,4.6,1c1.2,0.7,2.2,1.6,2.9,2.9c0.7,1.2,1,2.6,1,4.2
		c0,0.4,0,0.8,0,1.2c0,0.4-0.1,0.7-0.1,1h-13.4v-3.1h10.9l-2.8,1.1c0-1.4-0.2-2.4-0.7-3.1c-0.5-0.7-1.2-1.1-2.3-1.1
		c-0.7,0-1.3,0.2-1.9,0.5c-0.5,0.3-0.9,0.9-1.2,1.6c-0.3,0.7-0.4,1.6-0.4,2.8c0,1.1,0.1,2,0.4,2.7c0.3,0.7,0.7,1.2,1.3,1.5
		c0.5,0.3,1.2,0.5,2,0.5c0.9,0,1.5-0.2,2.1-0.5c0.5-0.3,0.9-0.8,1.1-1.4l4.6,1.6c-0.3,1-0.9,1.8-1.6,2.4c-0.8,0.7-1.7,1.2-2.8,1.5
		C171.1,135.6,170,135.7,168.7,135.7z"/>
	<path class="st1" d="M199,112.6c2.1,0,3.9,0.3,5.5,1c1.6,0.6,3,1.6,4.2,2.8l-2.8,3.8c-1-1-2-1.8-3.1-2.3s-2.4-0.8-3.8-0.8
		c-0.8,0-1.5,0.1-2,0.3c-0.5,0.2-0.9,0.4-1.1,0.7c-0.2,0.3-0.3,0.7-0.3,1.1c0,0.5,0.2,0.9,0.7,1.2c0.4,0.3,1.2,0.6,2.2,0.8l3.8,0.8
		c2.2,0.5,3.9,1.3,4.9,2.3c1,1,1.6,2.3,1.6,4c0,1.6-0.4,2.9-1.2,4c-0.8,1.1-1.9,1.9-3.4,2.5c-1.4,0.6-3.1,0.8-4.9,0.8
		c-1.5,0-2.9-0.2-4.3-0.5c-1.4-0.3-2.6-0.8-3.7-1.4c-1.1-0.6-2-1.3-2.8-2.1l2.8-3.9c0.6,0.7,1.3,1.2,2.1,1.7
		c0.8,0.5,1.7,0.9,2.7,1.2c1,0.3,2,0.4,3,0.4c0.8,0,1.5-0.1,2-0.2c0.5-0.2,0.9-0.4,1.2-0.7c0.2-0.3,0.4-0.7,0.4-1.1
		c0-0.5-0.2-0.9-0.5-1.2c-0.3-0.3-1-0.6-1.9-0.8l-4.1-0.9c-1.3-0.3-2.4-0.7-3.4-1.2c-1-0.5-1.8-1.1-2.3-2c-0.6-0.8-0.8-1.9-0.8-3.1
		c0-1.4,0.4-2.7,1.2-3.8c0.8-1.1,1.9-2,3.3-2.6C195.3,113,197,112.6,199,112.6z"/>
	<path class="st1" d="M223.9,118.4v4.1h-13.8v-4.1H223.9z M218.9,113v16.3c0,0.8,0.2,1.4,0.6,1.7c0.4,0.4,0.9,0.5,1.6,0.5
		c0.5,0,1-0.1,1.4-0.2c0.4-0.1,0.8-0.3,1.1-0.6l0.6,3.6c-0.6,0.4-1.3,0.7-2.1,1c-0.9,0.2-1.7,0.3-2.6,0.3c-1.3,0-2.4-0.2-3.3-0.5
		c-0.9-0.4-1.7-0.9-2.2-1.7c-0.5-0.8-0.8-1.8-0.8-3.2v-15.7L218.9,113z"/>
	<path class="st1" d="M232.3,135.7c-1.2,0-2.2-0.2-3-0.6c-0.9-0.4-1.6-1-2.1-1.9c-0.5-0.9-0.7-2-0.7-3.5v-11.3h5.8v10
		c0,1.1,0.2,1.8,0.6,2.3c0.4,0.4,1,0.6,1.8,0.6c0.4,0,0.8-0.1,1.2-0.2c0.4-0.1,0.7-0.4,1-0.7c0.3-0.3,0.5-0.7,0.6-1.2
		c0.1-0.5,0.2-1.1,0.2-1.7v-9.1h5.8v17h-5.2l-0.2-3.2c-0.5,1.2-1.3,2.1-2.3,2.7C234.9,135.4,233.7,135.7,232.3,135.7z"/>
	<path class="st1" d="M253.9,135.7c-1.4,0-2.6-0.3-3.7-1c-1.1-0.7-1.9-1.7-2.4-3c-0.6-1.3-0.9-2.9-0.9-4.7c0-1.9,0.3-3.5,0.9-4.8
		c0.6-1.3,1.4-2.3,2.5-3c1.1-0.7,2.3-1.1,3.7-1.1c1.5,0,2.8,0.5,3.7,1.4c0.9,0.9,1.5,2.1,1.8,3.6l-0.5,0.7v-12.6h5.8v24.2h-5.2
		l-0.4-5.8l0.7,0.5c-0.1,1.1-0.5,2.1-1,3c-0.6,0.8-1.3,1.5-2.1,2C255.9,135.5,255,135.7,253.9,135.7z M255.9,131.5
		c0.7,0,1.2-0.2,1.7-0.5c0.5-0.4,0.8-0.9,1.1-1.6c0.2-0.7,0.4-1.6,0.4-2.6c0-1-0.1-1.8-0.4-2.4c-0.2-0.7-0.6-1.2-1.1-1.5
		c-0.5-0.3-1-0.5-1.7-0.5c-1,0-1.8,0.4-2.4,1.1c-0.6,0.7-0.9,1.9-0.9,3.5c0,1.6,0.3,2.7,0.8,3.5
		C254.1,131.1,254.9,131.5,255.9,131.5z"/>
	<path class="st1" d="M286,118.4l-6.2,17c-0.6,1.8-1.3,3.2-2.1,4.3c-0.7,1.1-1.6,1.8-2.6,2.3c-1,0.5-2.2,0.7-3.7,0.7
		c-1,0-1.8-0.1-2.6-0.3c-0.8-0.2-1.5-0.5-2.1-0.8l1.2-3.9c0.4,0.3,0.8,0.5,1.3,0.6c0.5,0.1,1,0.2,1.7,0.2c0.7,0,1.2-0.1,1.6-0.3
		c0.4-0.2,0.8-0.7,1-1.3l0.4-1.1l-2-4.6l-5.1-12.7h6.4l2.6,9.7l0.8,3.6l1-3.7l2.6-9.5H286z"/>
</g>
</svg>
