<?xml version="1.0" encoding="utf-8"?>
<!-- Generator: Adobe Illustrator 24.1.2, SVG Export Plug-In . SVG Version: 6.00 Build 0)  -->
<svg version="1.1" id="Layer_1" xmlns="http://www.w3.org/2000/svg" xmlns:xlink="http://www.w3.org/1999/xlink" x="0px" y="0px"
	 viewBox="0 0 483.1 228" style="enable-background:new 0 0 483.1 228;" xml:space="preserve">
<style type="text/css">
	.st0{fill:#346C63;}
	.st1{fill:#FFFFFF;}
</style>
<g>
	<path class="st0" d="M324.8,14.3C270-2.2,206.3,5.5,146,10.1C90.8,14.3,27.1,26,8.3,59c-10.2,18-3.6,38.5,11,55.4
		s36.3,30.7,57.8,44.3c53.7,33.8,119.5,70,194.8,63.6c46.5-4,85.4-23.8,119.3-44.3c35.9-21.6,70.3-45.7,85.9-75.4
		c5.5-10.5,8.5-22,3.4-32.6c-6-12.4-22.3-21.7-39.2-29.2C400.9,23,352.7,12.5,303.6,10.5"/>
</g>
<g>
	<path class="st1" d="M120.1,66.7v24h-4.5V78.2l0.3-7h-0.1l-6.7,19.5H105l-6.6-19.5h-0.1l0.3,7v12.5H94v-24h7.3l4.3,13.1l1.5,5.4
		h0.1l1.6-5.4l4.3-13.1H120.1z"/>
	<path class="st1" d="M128.4,69.9c-1,0-1.8-0.2-2.3-0.7c-0.5-0.4-0.8-1.1-0.8-2c0-0.9,0.3-1.6,0.8-2c0.5-0.4,1.3-0.7,2.3-0.7
		s1.8,0.2,2.3,0.7c0.5,0.4,0.8,1.1,0.8,2c0,0.9-0.3,1.5-0.8,2C130.2,69.7,129.4,69.9,128.4,69.9z M130.9,72.5v18.2h-5V72.5H130.9z"
		/>
	<path class="st1" d="M136.1,90.7V72.5h4.3l0.3,3.6c0.5-1.3,1.2-2.2,2.1-2.9c0.9-0.7,2.1-1,3.5-1c0.4,0,0.8,0,1.1,0.1
		c0.3,0.1,0.6,0.2,0.8,0.3l-0.6,4.2c-0.2-0.1-0.5-0.2-0.9-0.2c-0.4,0-0.8-0.1-1.4-0.1c-0.7,0-1.4,0.2-2.1,0.5
		c-0.7,0.4-1.2,0.9-1.7,1.6c-0.4,0.7-0.7,1.6-0.7,2.7v9.4H136.1z"/>
	<path class="st1" d="M151.5,90.7V72.5h4.3l0.3,3.6c0.5-1.3,1.2-2.2,2.1-2.9c0.9-0.7,2.1-1,3.5-1c0.4,0,0.8,0,1.1,0.1
		c0.3,0.1,0.6,0.2,0.8,0.3l-0.6,4.2c-0.2-0.1-0.5-0.2-0.9-0.2c-0.4,0-0.8-0.1-1.4-0.1c-0.7,0-1.4,0.2-2.1,0.5
		c-0.7,0.4-1.2,0.9-1.7,1.6c-0.4,0.7-0.7,1.6-0.7,2.7v9.4H151.5z"/>
	<path class="st1" d="M174.7,72.2c1.8,0,3.5,0.4,4.9,1.1c1.4,0.8,2.5,1.8,3.3,3.2c0.8,1.4,1.2,3.1,1.2,5.1c0,2-0.4,3.7-1.2,5.1
		c-0.8,1.4-1.9,2.5-3.3,3.3c-1.4,0.8-3,1.1-4.9,1.1c-1.8,0-3.4-0.4-4.8-1.1c-1.4-0.8-2.5-1.8-3.3-3.3c-0.8-1.4-1.2-3.1-1.2-5.1
		c0-2,0.4-3.7,1.2-5.1c0.8-1.4,1.9-2.5,3.3-3.2C171.3,72.5,172.9,72.2,174.7,72.2z M174.7,75.9c-0.9,0-1.7,0.2-2.3,0.6
		c-0.6,0.4-1.1,1.1-1.5,1.9c-0.3,0.8-0.5,1.9-0.5,3.2c0,1.3,0.2,2.4,0.5,3.2c0.3,0.8,0.8,1.5,1.5,1.9c0.6,0.4,1.4,0.6,2.3,0.6
		c0.9,0,1.7-0.2,2.3-0.6c0.6-0.4,1.1-1.1,1.5-1.9c0.3-0.8,0.5-1.9,0.5-3.2c0-1.3-0.2-2.4-0.5-3.2c-0.3-0.8-0.8-1.5-1.5-1.9
		C176.4,76.1,175.6,75.9,174.7,75.9z"/>
	<path class="st1" d="M188.2,90.7V72.5h4.3l0.3,3.6c0.5-1.3,1.2-2.2,2.1-2.9c0.9-0.7,2.1-1,3.5-1c0.4,0,0.8,0,1.1,0.1
		c0.3,0.1,0.6,0.2,0.8,0.3l-0.6,4.2c-0.2-0.1-0.5-0.2-0.9-0.2c-0.4,0-0.8-0.1-1.4-0.1c-0.7,0-1.4,0.2-2.1,0.5
		c-0.7,0.4-1.2,0.9-1.7,1.6c-0.4,0.7-0.7,1.6-0.7,2.7v9.4H188.2z"/>
	<path class="st1" d="M114.6,127.7c-0.5,1.6-1.2,2.8-2.2,3.9c-1,1-2.2,1.8-3.5,2.3c-1.4,0.5-2.8,0.8-4.5,0.8c-2.4,0-4.4-0.5-6.2-1.5
		c-1.7-1-3.1-2.4-4-4.3c-0.9-1.8-1.4-4-1.4-6.6s0.5-4.8,1.4-6.6c0.9-1.8,2.3-3.3,4-4.3c1.7-1,3.8-1.5,6.1-1.5c1.6,0,3.1,0.2,4.5,0.7
		c1.3,0.4,2.5,1.1,3.4,2.1c0.9,0.9,1.6,2.1,2.1,3.5l-4.5,1.9c-0.4-1.5-1-2.5-1.9-3.1c-0.8-0.6-1.9-0.9-3.3-0.9
		c-1.3,0-2.5,0.3-3.4,0.9c-1,0.6-1.7,1.6-2.3,2.8c-0.5,1.2-0.8,2.7-0.8,4.5c0,1.8,0.2,3.3,0.7,4.5c0.5,1.2,1.2,2.2,2.2,2.8
		c1,0.6,2.2,0.9,3.6,0.9c1.3,0,2.4-0.4,3.4-1.1c1-0.7,1.6-1.8,2-3.2L114.6,127.7z"/>
	<path class="st1" d="M128.7,122.7c0-1-0.3-1.9-0.9-2.4c-0.6-0.6-1.4-0.9-2.3-0.9c-0.9,0-1.7,0.2-2.4,0.7c-0.7,0.5-1.2,1.2-1.5,2.3
		l-4.3-1.3c0.4-1.6,1.3-2.9,2.7-3.9c1.4-1,3.3-1.5,5.6-1.5c1.6,0,3,0.2,4.2,0.7c1.2,0.5,2.1,1.2,2.8,2.2c0.7,1,1,2.2,1,3.7v7.4
		c0,0.9,0.4,1.4,1.3,1.4c0.4,0,0.8-0.1,1.2-0.2l-0.3,3.1c-0.6,0.3-1.4,0.5-2.4,0.5c-0.8,0-1.6-0.1-2.3-0.4c-0.7-0.3-1.2-0.7-1.6-1.3
		c-0.4-0.6-0.6-1.3-0.6-2.2v-0.1l0.9-0.1c-0.1,0.9-0.5,1.7-1.2,2.3c-0.7,0.6-1.4,1.1-2.4,1.5c-0.9,0.3-1.9,0.5-2.9,0.5
		c-1.2,0-2.3-0.2-3.2-0.6c-0.9-0.4-1.6-0.9-2.1-1.7c-0.5-0.7-0.7-1.6-0.7-2.7c0-1.4,0.4-2.5,1.3-3.3s2.1-1.4,3.7-1.8l6.8-1.4l0,3.1
		l-4.4,0.9c-0.8,0.2-1.4,0.4-1.9,0.7c-0.4,0.3-0.6,0.7-0.6,1.4c0,0.6,0.2,1.1,0.7,1.4c0.4,0.3,1,0.5,1.6,0.5c0.5,0,1-0.1,1.5-0.2
		c0.5-0.1,0.9-0.3,1.3-0.6s0.7-0.6,0.9-1.1c0.2-0.5,0.3-1,0.3-1.7V122.7z"/>
	<path class="st1" d="M146.5,134.7c-1.8,0-3.5-0.3-5-1c-1.5-0.7-2.7-1.6-3.7-2.8l2.9-2.9c0.6,0.9,1.4,1.6,2.3,2.1
		c1,0.6,2.1,0.8,3.5,0.8c0.9,0,1.7-0.1,2.3-0.4c0.6-0.3,0.9-0.7,0.9-1.3c0-0.4-0.1-0.7-0.4-1c-0.3-0.3-0.8-0.5-1.6-0.7l-3.2-0.7
		c-2.1-0.4-3.6-1.1-4.5-2s-1.3-2-1.3-3.4c0-1,0.3-1.9,0.9-2.8c0.6-0.9,1.5-1.6,2.7-2.1c1.2-0.5,2.7-0.8,4.4-0.8
		c1.8,0,3.4,0.3,4.7,0.9c1.3,0.6,2.4,1.4,3.2,2.5l-3,2.9c-0.5-0.8-1.2-1.5-2.1-1.9c-0.9-0.4-1.8-0.7-2.7-0.7c-0.7,0-1.3,0.1-1.7,0.2
		c-0.5,0.1-0.8,0.3-1.1,0.6c-0.2,0.3-0.4,0.6-0.4,1s0.2,0.7,0.5,1s1,0.5,1.9,0.7l3.7,0.8c1.8,0.4,3.1,1,3.9,1.8
		c0.8,0.9,1.2,1.9,1.2,3.1c0,1.2-0.3,2.2-0.9,3.1c-0.6,0.9-1.5,1.6-2.7,2.1S148.2,134.7,146.5,134.7z"/>
	<path class="st1" d="M166.9,134.7c-1.9,0-3.6-0.4-5-1.1c-1.4-0.8-2.5-1.8-3.3-3.2c-0.8-1.4-1.2-3.1-1.2-5.1s0.4-3.7,1.2-5.1
		c0.8-1.4,1.9-2.5,3.3-3.2c1.4-0.8,3-1.1,4.8-1.1c1.8,0,3.4,0.4,4.7,1.1c1.3,0.7,2.3,1.7,2.9,3c0.7,1.3,1,2.7,1,4.3
		c0,0.5,0,0.9,0,1.4c0,0.4-0.1,0.8-0.1,1.2h-14.5v-3.5h12.3l-2.4,0.9c0-1.5-0.3-2.7-1-3.5c-0.7-0.8-1.7-1.2-2.9-1.2
		c-0.9,0-1.7,0.2-2.4,0.7c-0.7,0.4-1.2,1.1-1.5,1.9c-0.3,0.9-0.5,1.9-0.5,3.3c0,1.3,0.2,2.3,0.6,3.2c0.4,0.8,0.9,1.5,1.6,1.9
		c0.7,0.4,1.5,0.6,2.5,0.6c1.1,0,1.9-0.2,2.6-0.6c0.7-0.4,1.2-1,1.5-1.7l4,1.5c-0.4,0.9-1,1.8-1.8,2.4c-0.8,0.7-1.7,1.2-2.8,1.5
		C169.3,134.5,168.1,134.7,166.9,134.7z"/>
	<path class="st1" d="M199.9,110c2.2,0,4.1,0.4,5.7,1.1c1.6,0.8,3.1,1.9,4.2,3.3l-2.8,3.2c-1-1.3-2.1-2.2-3.3-2.8
		c-1.2-0.6-2.5-0.9-4.1-0.9c-1,0-1.9,0.1-2.5,0.4c-0.7,0.3-1.2,0.6-1.5,1.1c-0.3,0.4-0.5,0.9-0.5,1.5c0,0.7,0.3,1.2,0.8,1.7
		c0.5,0.4,1.4,0.8,2.6,1.1l4.5,1c2.4,0.5,4.1,1.3,5.1,2.4c1,1.1,1.5,2.4,1.5,4.1c0,1.6-0.4,2.9-1.2,4.1c-0.8,1.1-2,2-3.5,2.6
		c-1.5,0.6-3.2,0.9-5.1,0.9c-1.7,0-3.2-0.2-4.6-0.6c-1.4-0.4-2.6-1-3.7-1.7c-1.1-0.7-2-1.5-2.7-2.4l2.8-3.4c0.6,0.8,1.2,1.5,2.1,2.1
		c0.8,0.6,1.8,1.1,2.8,1.4s2.2,0.5,3.3,0.5c1,0,1.8-0.1,2.5-0.3c0.7-0.2,1.2-0.6,1.6-1c0.4-0.4,0.5-0.9,0.5-1.5
		c0-0.6-0.2-1.2-0.6-1.6c-0.4-0.4-1.2-0.8-2.3-1l-4.9-1.1c-1.4-0.3-2.6-0.8-3.6-1.3c-1-0.5-1.8-1.2-2.3-2.1
		c-0.5-0.9-0.8-1.9-0.8-3.1c0-1.4,0.4-2.7,1.2-3.9c0.8-1.1,1.9-2,3.4-2.7C196.1,110.3,197.8,110,199.9,110z"/>
	<path class="st1" d="M226.3,116.1v3.7h-14.1v-3.7H226.3z M220.5,110.6v17.8c0,0.9,0.2,1.5,0.7,1.9c0.4,0.4,1.1,0.6,1.8,0.6
		c0.6,0,1.1-0.1,1.6-0.3c0.5-0.2,0.9-0.4,1.2-0.7l0.8,3.3c-0.6,0.5-1.3,0.8-2.2,1.1s-1.8,0.4-2.8,0.4c-1.2,0-2.3-0.2-3.2-0.5
		c-0.9-0.4-1.7-0.9-2.2-1.7c-0.5-0.8-0.8-1.9-0.8-3.2V112L220.5,110.6z"/>
	<path class="st1" d="M236,134.7c-1.2,0-2.3-0.2-3.3-0.7s-1.7-1.1-2.3-2.1c-0.6-1-0.9-2.2-0.9-3.7v-12.1h5V127
		c0,1.4,0.3,2.4,0.9,2.9c0.6,0.5,1.4,0.8,2.5,0.8c0.5,0,1-0.1,1.5-0.3c0.5-0.2,0.9-0.5,1.3-0.9c0.4-0.4,0.7-0.9,0.9-1.5
		s0.3-1.4,0.3-2.2v-9.8h5v18.2h-4.4l-0.2-3.2c-0.6,1.2-1.4,2.1-2.5,2.7C238.7,134.4,237.5,134.7,236,134.7z"/>
	<path class="st1" d="M259,134.7c-1.5,0-2.8-0.4-4-1.1c-1.2-0.8-2.1-1.8-2.8-3.2c-0.7-1.4-1-3.1-1-5.1c0-2,0.4-3.7,1.1-5.1
		c0.7-1.4,1.7-2.5,2.9-3.2c1.2-0.7,2.6-1.1,4.1-1.1c1.6,0,2.9,0.5,4,1.4s1.7,2.1,2,3.6l-0.5,0.6v-13.1h5v26.1h-4.5l-0.3-5.5l0.6,0.3
		c-0.2,1.1-0.6,2.1-1.2,3c-0.6,0.8-1.4,1.5-2.3,1.9C261.1,134.5,260.1,134.7,259,134.7z M260.4,130.9c0.9,0,1.6-0.2,2.3-0.7
		c0.6-0.4,1.1-1.1,1.5-2c0.4-0.9,0.5-1.9,0.5-3.1c0-1.2-0.2-2.2-0.5-3c-0.3-0.8-0.8-1.4-1.5-1.9c-0.6-0.4-1.4-0.7-2.2-0.7
		c-1.4,0-2.4,0.5-3.2,1.4c-0.8,1-1.1,2.4-1.1,4.2s0.4,3.2,1.1,4.2C258.1,130.4,259.1,130.9,260.4,130.9z"/>
	<path class="st1" d="M292,116.1l-7.3,19.3c-0.6,1.6-1.2,3-1.9,3.9s-1.5,1.7-2.5,2.1c-0.9,0.4-2,0.7-3.3,0.7c-0.9,0-1.8-0.1-2.6-0.3
		c-0.8-0.2-1.5-0.5-2.1-0.9l1.1-3.6c0.5,0.4,0.9,0.6,1.5,0.8c0.5,0.2,1.1,0.2,1.7,0.2c0.7,0,1.3-0.1,1.8-0.4
		c0.5-0.3,0.9-0.9,1.3-1.7l0.6-1.6l-2-4.7l-5.6-13.7h5.5l3.5,10.9l0.9,3.6l1.1-3.9l3.3-10.7H292z"/>
</g>
</svg>
