<?xml version="1.0" encoding="utf-8"?>
<!-- Generator: Adobe Illustrator 24.0.1, SVG Export Plug-In . SVG Version: 6.00 Build 0)  -->
<svg version="1.1" id="Layer_1" xmlns="http://www.w3.org/2000/svg" xmlns:xlink="http://www.w3.org/1999/xlink" x="0px" y="0px"
	 viewBox="0 0 494 530.8" style="enable-background:new 0 0 494 530.8;" xml:space="preserve">
<style type="text/css">
	.st0{fill:#A56779;}
	.st1{enable-background:new    ;}
	.st2{fill:#FFFFFF;}
</style>
<title>FlatironSchoolStyleGuide</title>
<path class="st0" d="M236.2,61.5c-23.7-51.1-90.9-74-143.8-54.6S4.2,81.3,0.4,137.5c-3.1,46.5,12.6,92,17.2,138.3
	c4.5,45.5-1.2,93.8,19.2,134.8c17.6,35.4,51.9,59.1,85.7,79.6c28.9,17.6,59.4,34.4,93,39.2c31.7,4.5,63.7-1.9,95-8.4
	c59.9-12.4,125.5-28.9,160.3-79.2c27.1-39.2,28.7-92.1,13.8-137.4s-44.5-84.3-76.4-119.8C355.8,126,295.8,74.2,229.4,32.2"/>
<g class="st1">
	<path class="st2" d="M88.5,277.2h-5.3v-22.5l-3.3,11.9h-4.1l-3.3-11.9v22.5h-5.3V244h6.3l4.3,15l4.3-15h6.3V277.2z"/>
	<path class="st2" d="M95.7,253.5h5.3v14.7c0,1.8,0.3,3.1,1,3.8c0.7,0.7,1.7,1.1,3,1.1c1.9,0,3.5-0.8,4.8-2.4
		c1.2-1.6,1.9-3.8,1.9-6.5v-10.7h5.3v23.7h-5.3v-5.9c-0.5,2-1.5,3.6-2.9,4.8c-1.4,1.2-3.2,1.7-5.3,1.7c-2.4,0-4.3-0.8-5.7-2.4
		c-1.4-1.6-2.1-4-2.1-7.3V253.5z"/>
	<path class="st2" d="M146,270.1c0,1.5-0.3,2.8-1,3.8c-0.7,1-1.6,1.7-2.7,2.3c-1.1,0.6-2.3,1-3.7,1.2c-1.3,0.2-2.7,0.3-4,0.3
		c-2.2,0-4.3-0.3-6.4-0.9c-2.1-0.6-4-1.4-5.5-2.5l2.2-4.3c1.9,1.1,3.6,1.9,5.1,2.3c1.6,0.5,3.1,0.7,4.7,0.7c2.1,0,3.7-0.2,4.6-0.7
		s1.5-1.1,1.5-1.9c0-0.4-0.1-0.7-0.4-1c-0.3-0.3-0.7-0.5-1.3-0.7c-0.6-0.2-1.5-0.4-2.5-0.6c-1-0.2-2.3-0.4-3.8-0.7
		c-1.2-0.2-2.4-0.5-3.5-0.8c-1.1-0.3-2.1-0.7-2.9-1.3c-0.8-0.5-1.5-1.2-2-2.1c-0.5-0.8-0.8-1.9-0.8-3.1c0-1.3,0.3-2.4,1-3.3
		c0.7-0.9,1.5-1.7,2.6-2.3c1.1-0.6,2.3-1.1,3.6-1.3c1.3-0.3,2.6-0.4,4-0.4c1.9,0,3.7,0.2,5.4,0.7c1.8,0.5,3.3,1.2,4.6,2.1l-2.1,4.1
		c-1.3-0.8-2.6-1.4-3.9-1.7c-1.2-0.3-2.6-0.4-4.1-0.4c-0.6,0-1.3,0-2,0.1c-0.7,0.1-1.3,0.2-1.9,0.4c-0.6,0.2-1.1,0.5-1.4,0.8
		c-0.4,0.3-0.6,0.7-0.6,1.2c0,0.6,0.6,1.1,1.7,1.5c1.1,0.4,3,0.8,5.7,1.2c1.5,0.2,2.8,0.5,4,0.8c1.2,0.3,2.2,0.7,3.1,1.3
		s1.5,1.2,2,2.1C145.8,267.9,146,268.9,146,270.1z"/>
	<path class="st2" d="M171.3,277.2h-15.9v-4.7h5.2v-14.3h-5.2v-4.7h10.5v19h5.4V277.2z M166.4,250.4H160V244h6.4V250.4z"/>
	<path class="st2" d="M202.6,273.9c-1.5,1.5-3.1,2.6-4.8,3.1c-1.7,0.6-3.5,0.8-5.5,0.8c-2,0-3.8-0.3-5.4-0.9c-1.6-0.6-3-1.4-4.1-2.5
		c-1.1-1.1-2-2.4-2.6-3.9c-0.6-1.5-0.9-3.2-0.9-5.1c0-1.8,0.3-3.5,0.9-5c0.6-1.5,1.4-2.9,2.4-3.9c1-1.1,2.2-2,3.6-2.6
		c1.4-0.6,2.9-0.9,4.4-0.9c1.6,0,3,0.3,4.2,1c1.2,0.7,2.1,1.7,2.6,3v-3.4h4.7v11h-4.7c0-2.1-0.6-3.8-1.7-5c-1.1-1.2-2.6-1.9-4.4-1.9
		c-0.7,0-1.5,0.1-2.3,0.4c-0.8,0.3-1.5,0.8-2.2,1.4c-0.7,0.6-1.2,1.4-1.7,2.4s-0.7,2.1-0.7,3.5c0,1.3,0.2,2.5,0.6,3.4
		c0.4,1,1,1.8,1.7,2.4s1.5,1.1,2.4,1.4c0.9,0.3,1.9,0.5,2.9,0.5c1.7,0,3.2-0.3,4.5-0.8s2.4-1.2,3.3-2.1L202.6,273.9z"/>
	<path class="st2" d="M208.2,270.4c0-1.4,0.4-2.6,1.1-3.7c0.7-1,1.7-1.9,2.9-2.6c1.2-0.7,2.6-1.2,4.2-1.6c1.6-0.3,3.2-0.5,4.8-0.5
		c0.9,0,1.7,0,2.3,0.1s1.3,0.1,2,0.2v-0.9c0-1.2-0.5-2.2-1.4-2.8c-1-0.6-2.2-0.9-3.8-0.9c-1.4,0-2.9,0.2-4.4,0.6s-2.9,1-4.2,1.7
		l-2.1-4.1c1.6-0.9,3.2-1.6,5-2.1c1.8-0.5,3.7-0.8,5.7-0.8c1.3,0,2.6,0.1,3.8,0.4s2.4,0.8,3.4,1.4c1,0.7,1.8,1.5,2.4,2.6
		c0.6,1.1,0.9,2.4,0.9,3.9v15.9h-5.2v-3.5c-0.8,1.3-2.1,2.3-3.7,3c-1.6,0.7-3.4,1.1-5.2,1.1c-1.2,0-2.2-0.2-3.3-0.5
		c-1-0.3-1.9-0.8-2.7-1.4c-0.7-0.6-1.3-1.4-1.8-2.3C208.4,272.7,208.2,271.6,208.2,270.4z M217.9,273.1c1,0,2-0.1,2.9-0.4
		s1.7-0.6,2.4-1.1c0.7-0.5,1.2-1,1.6-1.7c0.4-0.7,0.6-1.4,0.6-2.2v-0.9c-0.8-0.1-1.6-0.2-2.3-0.2c-0.7,0-1.4,0-1.9,0
		c-2.6,0-4.5,0.3-5.8,1c-1.3,0.7-2,1.5-2,2.5C213.4,272.1,214.9,273.1,217.9,273.1z"/>
	<path class="st2" d="M256.7,277.2h-15.9v-4.7h5.2v-23.7h-5.2V244h10.5v28.5h5.5V277.2z"/>
	<path class="st2" d="M317.8,277.2h-6.7l-8.6-13.4h-2.4v13.4h-5.3V244h10.9c3.6,0,6.5,0.8,8.5,2.5c2,1.7,3,4.1,3,7.4
		c0,1.5-0.2,2.7-0.7,3.9c-0.4,1.1-1.1,2.1-1.9,2.9c-0.8,0.8-1.8,1.4-2.9,1.9c-1.1,0.5-2.3,0.8-3.5,1L317.8,277.2z M312.1,253.8
		c0-1.7-0.6-3-1.7-3.8c-1.1-0.8-2.6-1.3-4.6-1.3h-5.7V259h5.7c2,0,3.5-0.4,4.6-1.3C311.5,256.9,312.1,255.6,312.1,253.8z"/>
	<path class="st2" d="M323.3,253.5h5.3v14.7c0,1.8,0.3,3.1,1,3.8c0.7,0.7,1.7,1.1,3,1.1c1.9,0,3.5-0.8,4.8-2.4s1.9-3.8,1.9-6.5
		v-10.7h5.3v23.7h-5.3v-5.9c-0.5,2-1.5,3.6-2.9,4.8c-1.4,1.2-3.2,1.7-5.3,1.7c-2.4,0-4.3-0.8-5.7-2.4c-1.4-1.6-2.1-4-2.1-7.3V253.5z
		"/>
	<path class="st2" d="M373,277c0,1.6-0.3,3.1-0.8,4.4s-1.3,2.3-2.4,3.2c-1,0.9-2.2,1.6-3.6,2c-1.4,0.5-2.9,0.7-4.6,0.7
		c-4.1,0-7.6-1.2-10.6-3.7l2.5-4.1c2.4,2.1,5.1,3.1,8.1,3.1c1.8,0,3.3-0.4,4.4-1.3c1.1-0.9,1.7-2.3,1.7-4.2v-2.5
		c-1.1,0.9-2.1,1.6-3.1,2.1c-1,0.5-2.2,0.7-3.5,0.7c-1.5,0-2.9-0.3-4.2-1c-1.3-0.6-2.4-1.5-3.4-2.6c-0.9-1.1-1.7-2.4-2.2-3.9
		c-0.5-1.5-0.8-3-0.8-4.7c0-1.7,0.3-3.2,0.8-4.7s1.3-2.8,2.2-3.9c0.9-1.1,2.1-2,3.4-2.6c1.3-0.6,2.7-1,4.2-1c1.3,0,2.5,0.2,3.5,0.7
		c1,0.5,2.1,1.1,3.1,2v-2.1h5.3V277z M367.8,259.8c-0.6-0.7-1.4-1.2-2.4-1.6c-1-0.4-2-0.5-2.9-0.5c-2,0-3.6,0.7-4.8,2.1
		c-1.2,1.4-1.8,3.2-1.8,5.3c0,1.1,0.2,2.1,0.5,3c0.3,0.9,0.8,1.7,1.4,2.4c0.6,0.7,1.3,1.2,2.1,1.6c0.8,0.4,1.7,0.6,2.7,0.6
		c0.9,0,1.9-0.2,2.9-0.6s1.8-0.9,2.4-1.6V259.8z"/>
</g>
</svg>
