<?xml version="1.0" encoding="utf-8"?>
<!-- Generator: Adobe Illustrator 24.1.2, SVG Export Plug-In . SVG Version: 6.00 Build 0)  -->
<svg version="1.1" id="Layer_1" xmlns="http://www.w3.org/2000/svg" xmlns:xlink="http://www.w3.org/1999/xlink" x="0px" y="0px"
	 viewBox="0 0 483.1 463.6" style="enable-background:new 0 0 483.1 463.6;" xml:space="preserve">
<style type="text/css">
	.st0{fill:#E5892E;}
	.st1{fill:#FFFFFF;}
</style>
<path class="st0" d="M314,49.2L181.1,9.9c-31-9.2-64.9-17.8-92.9,2.9c-18.9,14-32,39.3-42.7,65.3C16.2,149.1,0.4,231,0,313.1
	c-0.1,19.8,1.1,41,9.8,56.5c7.5,13.4,19.3,20.2,30.6,26.1c128.9,66.5,269.5,71.7,406.8,66.2c7.2-0.3,14.8-0.8,20.8-6.2
	c9.1-8.1,12.1-24.6,13.5-39.6C492.6,297,449.2,171.3,375.6,110"/>
<g>
	<path class="st1" d="M118.7,196.3v36.1h-6.8v-18.8l0.4-10.5h-0.1l-10,29.3H96L86,203h-0.1l0.4,10.5v18.8h-6.8v-36.1h10.9l6.5,19.7
		l2.3,8.1h0.1l2.3-8.1l6.4-19.7H118.7z"/>
	<path class="st1" d="M136.6,232.9c-1.8,0-3.5-0.3-4.9-1c-1.5-0.7-2.6-1.7-3.5-3.1c-0.9-1.4-1.3-3.3-1.3-5.6V205h7.5v16.3
		c0,2.1,0.4,3.6,1.3,4.4c0.9,0.8,2.1,1.2,3.8,1.2c0.8,0,1.5-0.1,2.2-0.4c0.7-0.3,1.4-0.7,1.9-1.3c0.6-0.6,1-1.3,1.3-2.3
		c0.3-0.9,0.5-2,0.5-3.3V205h7.5v27.3h-6.7l-0.3-4.8c-0.9,1.8-2.2,3.2-3.7,4S138.8,232.9,136.6,232.9z"/>
	<path class="st1" d="M171.8,232.9c-2.8,0-5.3-0.5-7.6-1.5c-2.3-1-4.1-2.4-5.5-4.2l4.3-4.4c0.9,1.3,2,2.4,3.5,3.2
		c1.5,0.8,3.2,1.3,5.2,1.3c1.4,0,2.6-0.2,3.4-0.6c0.9-0.4,1.3-1.1,1.3-2c0-0.6-0.2-1.1-0.6-1.5c-0.4-0.4-1.2-0.8-2.4-1l-4.8-1
		c-3.2-0.7-5.4-1.6-6.7-3c-1.3-1.3-2-3.1-2-5.2c0-1.5,0.4-2.9,1.3-4.2c0.9-1.3,2.2-2.4,4-3.2c1.8-0.8,4-1.2,6.7-1.2
		c2.7,0,5.1,0.4,7.1,1.3c2,0.9,3.6,2.1,4.8,3.8l-4.5,4.4c-0.8-1.3-1.8-2.2-3.1-2.9c-1.3-0.7-2.7-1-4.1-1c-1,0-1.9,0.1-2.6,0.3
		c-0.7,0.2-1.3,0.5-1.6,0.9c-0.4,0.4-0.5,0.9-0.5,1.4c0,0.6,0.3,1.1,0.8,1.5c0.5,0.4,1.4,0.8,2.8,1.1l5.6,1.1
		c2.7,0.5,4.6,1.5,5.8,2.8c1.2,1.3,1.7,2.9,1.7,4.7c0,1.7-0.5,3.3-1.4,4.7c-0.9,1.4-2.3,2.4-4.1,3.2S174.4,232.9,171.8,232.9z"/>
	<path class="st1" d="M193.6,201.1c-1.6,0-2.7-0.3-3.5-1c-0.8-0.7-1.1-1.7-1.1-3c0-1.3,0.4-2.4,1.1-3c0.8-0.7,1.9-1,3.5-1
		c1.6,0,2.7,0.3,3.5,1c0.8,0.7,1.1,1.7,1.1,3c0,1.3-0.4,2.3-1.1,3C196.3,200.7,195.2,201.1,193.6,201.1z M197.3,205v27.3h-7.5V205
		H197.3z"/>
	<path class="st1" d="M217.7,204.4c2.4,0,4.5,0.4,6.2,1.1c1.7,0.7,3.1,1.7,4.1,2.9c1,1.2,1.8,2.6,2.2,4.1l-7,2.5
		c-0.4-1.6-1-2.9-1.9-3.7c-0.9-0.8-2.1-1.3-3.6-1.3c-1.4,0-2.6,0.3-3.6,1c-1,0.6-1.7,1.6-2.2,2.9c-0.5,1.3-0.8,2.9-0.8,4.8
		c0,1.9,0.3,3.5,0.8,4.8c0.5,1.3,1.3,2.2,2.3,2.8c1,0.6,2.2,0.9,3.5,0.9c1.1,0,2-0.2,2.8-0.6c0.8-0.4,1.4-0.9,1.9-1.7
		c0.5-0.7,0.8-1.6,1-2.6l6.8,2.2c-0.4,1.6-1.1,3.1-2.2,4.3c-1.1,1.2-2.5,2.2-4.2,2.9c-1.7,0.7-3.7,1-6,1c-2.8,0-5.3-0.6-7.4-1.7
		c-2.1-1.1-3.8-2.8-5-4.9c-1.2-2.1-1.7-4.7-1.7-7.6c0-3,0.6-5.5,1.7-7.6c1.2-2.1,2.8-3.7,4.9-4.9C212.5,205,214.9,204.4,217.7,204.4
		z"/>
	<path class="st1" d="M251.6,214.9c0-1.6-0.4-2.8-1.3-3.7c-0.9-0.9-2.1-1.3-3.5-1.3c-1.3,0-2.5,0.3-3.6,1c-1,0.7-1.8,1.8-2.2,3.4
		l-6.4-2c0.6-2.4,2-4.3,4.1-5.8c2.1-1.5,4.9-2.2,8.4-2.2c2.4,0,4.5,0.4,6.3,1.1c1.8,0.7,3.2,1.9,4.2,3.4c1,1.5,1.5,3.4,1.5,5.6v11.1
		c0,1.4,0.7,2.1,2,2.1c0.6,0,1.2-0.1,1.7-0.3l-0.4,4.6c-0.9,0.5-2.1,0.7-3.6,0.7c-1.3,0-2.4-0.2-3.4-0.7c-1-0.4-1.8-1.1-2.4-2
		c-0.6-0.9-0.9-2-0.9-3.4v-0.2l1.3-0.2c-0.2,1.4-0.8,2.6-1.8,3.5c-1,1-2.2,1.7-3.6,2.2c-1.4,0.5-2.9,0.8-4.3,0.8
		c-1.9,0-3.5-0.3-4.8-0.8c-1.3-0.6-2.4-1.4-3.1-2.5c-0.7-1.1-1.1-2.4-1.1-4c0-2,0.7-3.7,2-5c1.3-1.3,3.2-2.2,5.6-2.6l10.3-2.1
		l-0.1,4.6l-6.6,1.3c-1.2,0.3-2.2,0.6-2.8,1c-0.6,0.4-1,1.1-1,2c0,0.9,0.3,1.6,1,2.1c0.7,0.5,1.5,0.7,2.4,0.7c0.8,0,1.5-0.1,2.2-0.3
		c0.7-0.2,1.4-0.5,2-0.9c0.6-0.4,1-0.9,1.4-1.6c0.3-0.7,0.5-1.5,0.5-2.5V214.9z"/>
	<path class="st1" d="M274.8,193v30.9c0,1.3,0.2,2.2,0.7,2.7c0.4,0.5,1.2,0.8,2.2,0.8c0.6,0,1.1,0,1.5-0.1c0.4-0.1,0.9-0.2,1.5-0.4
		l-0.7,4.9c-0.6,0.4-1.4,0.6-2.3,0.8c-0.9,0.2-1.8,0.3-2.8,0.3c-2.7,0-4.6-0.6-5.8-1.9c-1.2-1.3-1.8-3.4-1.8-6.2V193H274.8z"/>
	<path class="st1" d="M95.4,261.8c4.1,0,7.3,1,9.6,3c2.3,2,3.5,4.6,3.5,7.9c0,3.5-1.2,6.2-3.5,8.1c-2.3,1.9-5.5,2.8-9.6,2.8
		l-0.8,0.4h-7.8v13.8h-7.4v-36.1H95.4z M94.5,278.3c2.1,0,3.7-0.4,4.7-1.3c1-0.9,1.6-2.2,1.6-4c0-1.8-0.5-3.1-1.6-4
		c-1-0.9-2.6-1.3-4.7-1.3h-7.6v10.5H94.5z M98.9,279.9l11.7,18h-8.5l-9.7-15.8L98.9,279.9z"/>
	<path class="st1" d="M125,298.4c-1.8,0-3.5-0.3-4.9-1c-1.5-0.7-2.6-1.7-3.5-3.1c-0.9-1.4-1.3-3.3-1.3-5.6v-18.1h7.5v16.3
		c0,2.1,0.4,3.6,1.3,4.4c0.9,0.8,2.1,1.2,3.8,1.2c0.8,0,1.5-0.1,2.2-0.4c0.7-0.3,1.4-0.7,1.9-1.3c0.6-0.6,1-1.3,1.3-2.3
		c0.3-0.9,0.5-2,0.5-3.3v-14.7h7.5v27.3h-6.7l-0.3-4.8c-0.9,1.8-2.2,3.2-3.7,4S127.2,298.4,125,298.4z"/>
	<path class="st1" d="M165.5,292.7c3,0,5.2,0.6,6.8,1.9c1.6,1.3,2.4,3.1,2.4,5.4c0,2.1-0.6,3.8-1.8,5.3c-1.2,1.4-2.9,2.5-5.1,3.3
		c-2.2,0.7-4.7,1.1-7.5,1.1c-4.7,0-8.1-0.7-10.3-2c-2.2-1.3-3.3-3-3.3-5.1c0-1.5,0.6-2.8,1.7-3.8s3.1-1.6,5.7-1.7l-0.3,0.9
		c-1.9-0.3-3.3-1-4.3-1.9c-1-0.9-1.5-2.2-1.5-3.9c0-1.7,0.6-3.1,1.9-4.1c1.3-1.1,3.1-1.7,5.3-1.9l3.3,1.5h-0.8
		c-1.6,0.1-2.7,0.4-3.3,1c-0.6,0.5-1,1.1-1,1.8c0,0.8,0.3,1.3,0.9,1.7s1.5,0.6,2.6,0.6H165.5z M160.4,270c2.5,0,4.8,0.4,6.6,1.1
		c1.9,0.7,3.3,1.8,4.3,3.2c1,1.4,1.5,3,1.5,5c0,1.9-0.5,3.5-1.5,4.9c-1,1.4-2.4,2.5-4.3,3.2c-1.9,0.7-4.1,1.1-6.6,1.1
		c-4,0-7.1-0.8-9.3-2.5c-2.1-1.7-3.2-3.9-3.2-6.7c0-1.9,0.5-3.6,1.5-5c1-1.4,2.4-2.4,4.3-3.2C155.6,270.4,157.9,270,160.4,270z
		 M160.4,304.5c1.9,0,3.5-0.2,4.7-0.5c1.2-0.3,2.1-0.7,2.7-1.3c0.6-0.5,0.9-1.1,0.9-1.7c0-0.7-0.3-1.2-0.8-1.7
		c-0.5-0.4-1.5-0.6-3-0.6h-9.2c-0.9,0-1.6,0.2-2.2,0.7c-0.6,0.4-0.8,1-0.8,1.8c0,1,0.7,1.8,2,2.4C156.1,304.2,158,304.5,160.4,304.5
		z M160.4,274.7c-1.5,0-2.7,0.4-3.6,1.2c-0.9,0.8-1.4,1.9-1.4,3.3s0.5,2.5,1.4,3.4c0.9,0.8,2.1,1.2,3.6,1.2c1.5,0,2.6-0.4,3.6-1.2
		c0.9-0.8,1.4-1.9,1.4-3.4s-0.5-2.5-1.4-3.3C163.1,275.1,161.9,274.7,160.4,274.7z M174.4,264.1l0.9,5.4c-0.1,0-0.3,0-0.5,0
		s-0.3,0-0.5,0c-1.7,0-2.9,0.4-3.8,1.1c-0.8,0.7-1.3,1.8-1.3,3.1l-3.1-1.3c0-1.5,0.3-2.8,0.9-4.1c0.6-1.3,1.4-2.3,2.6-3
		c1.1-0.8,2.5-1.1,4.1-1.1c0.1,0,0.2,0,0.3,0S174.3,264.1,174.4,264.1z"/>
</g>
</svg>
