<?xml version="1.0" encoding="utf-8"?>
<!-- Generator: Adobe Illustrator 24.1.2, SVG Export Plug-In . SVG Version: 6.00 Build 0)  -->
<svg version="1.1" id="Layer_1" xmlns="http://www.w3.org/2000/svg" xmlns:xlink="http://www.w3.org/1999/xlink" x="0px" y="0px"
	 viewBox="0 0 494 530.8" style="enable-background:new 0 0 494 530.8;" xml:space="preserve">
<style type="text/css">
	.st0{fill:#4E7FFF;}
	.st1{fill:#FFFFFF;}
</style>
<path class="st0" d="M236.2,61.5c-23.7-51.1-90.9-74-143.8-54.6S4.2,81.3,0.4,137.5c-3.1,46.5,12.6,92,17.2,138.3
	c4.5,45.5-1.2,93.8,19.2,134.8c17.6,35.4,51.9,59.1,85.7,79.6c28.9,17.6,59.4,34.4,93,39.2c31.7,4.5,63.7-1.9,95-8.4
	c59.9-12.4,125.5-28.9,160.3-79.2c27.1-39.2,28.7-92.1,13.8-137.4s-44.5-84.3-76.4-119.8C355.8,126,295.8,74.2,229.4,32.2"/>
<g>
	<path class="st1" d="M117.8,245.7v31.5h-6v-16.4l0.3-9.2h-0.1l-8.7,25.6h-5.4l-8.7-25.6h-0.1l0.3,9.2v16.4h-6v-31.5h9.6l5.7,17.2
		l2,7.1h0.1l2.1-7.1l5.6-17.2H117.8z"/>
	<path class="st1" d="M133.4,277.7c-1.6,0-3-0.3-4.3-0.9c-1.3-0.6-2.3-1.5-3-2.7c-0.7-1.3-1.1-2.9-1.1-4.9v-15.9h6.5v14.3
		c0,1.8,0.4,3.1,1.1,3.8c0.8,0.7,1.9,1.1,3.3,1.1c0.7,0,1.3-0.1,2-0.4c0.6-0.2,1.2-0.6,1.7-1.1c0.5-0.5,0.9-1.2,1.2-2
		c0.3-0.8,0.4-1.8,0.4-2.9v-12.8h6.5v23.9h-5.8l-0.2-4.2c-0.8,1.6-1.9,2.8-3.3,3.5C137,277.4,135.4,277.7,133.4,277.7z"/>
	<path class="st1" d="M164.2,277.7c-2.4,0-4.6-0.4-6.6-1.3c-2-0.9-3.6-2.1-4.8-3.6l3.8-3.8c0.8,1.1,1.8,2.1,3.1,2.8
		c1.3,0.7,2.8,1.1,4.5,1.1c1.2,0,2.2-0.2,3-0.5c0.7-0.4,1.1-0.9,1.1-1.7c0-0.5-0.2-0.9-0.5-1.3c-0.4-0.4-1.1-0.7-2.1-0.9l-4.2-0.9
		c-2.8-0.6-4.7-1.4-5.9-2.6c-1.2-1.2-1.7-2.7-1.7-4.5c0-1.3,0.4-2.5,1.2-3.7c0.8-1.1,1.9-2.1,3.5-2.8c1.6-0.7,3.5-1.1,5.8-1.1
		c2.4,0,4.5,0.4,6.2,1.1c1.8,0.7,3.2,1.9,4.2,3.3l-3.9,3.8c-0.7-1.1-1.6-2-2.7-2.6c-1.1-0.6-2.3-0.9-3.6-0.9c-0.9,0-1.7,0.1-2.3,0.3
		c-0.6,0.2-1.1,0.5-1.4,0.8c-0.3,0.3-0.5,0.8-0.5,1.3s0.2,0.9,0.7,1.3c0.4,0.4,1.3,0.7,2.4,0.9l4.9,1c2.4,0.5,4,1.3,5.1,2.4
		c1,1.1,1.5,2.5,1.5,4.1c0,1.5-0.4,2.9-1.2,4.1c-0.8,1.2-2,2.1-3.6,2.8C168.4,277.4,166.5,277.7,164.2,277.7z"/>
	<path class="st1" d="M183.3,249.9c-1.4,0-2.4-0.3-3.1-0.9c-0.7-0.6-1-1.5-1-2.6c0-1.2,0.3-2.1,1-2.7c0.7-0.6,1.7-0.9,3.1-0.9
		c1.4,0,2.4,0.3,3.1,0.9c0.7,0.6,1,1.5,1,2.7c0,1.1-0.3,2-1,2.6C185.7,249.6,184.6,249.9,183.3,249.9z M186.5,253.4v23.9H180v-23.9
		H186.5z"/>
	<path class="st1" d="M204.3,252.9c2.1,0,3.9,0.3,5.4,0.9c1.5,0.6,2.7,1.5,3.6,2.5c0.9,1.1,1.6,2.3,1.9,3.6l-6.1,2.2
		c-0.3-1.4-0.9-2.5-1.6-3.2c-0.8-0.7-1.8-1.1-3.1-1.1c-1.2,0-2.2,0.3-3.1,0.8c-0.9,0.6-1.5,1.4-2,2.5c-0.4,1.1-0.7,2.5-0.7,4.2
		c0,1.7,0.2,3.1,0.7,4.2c0.5,1.1,1.1,1.9,2,2.5c0.9,0.5,1.9,0.8,3.1,0.8c1,0,1.8-0.2,2.4-0.5s1.2-0.8,1.6-1.5
		c0.4-0.6,0.7-1.4,0.9-2.3l5.9,1.9c-0.4,1.4-1,2.7-2,3.8c-1,1.1-2.2,1.9-3.7,2.5c-1.5,0.6-3.2,0.9-5.2,0.9c-2.5,0-4.6-0.5-6.5-1.5
		c-1.9-1-3.3-2.4-4.3-4.2c-1-1.8-1.5-4.1-1.5-6.7c0-2.6,0.5-4.8,1.5-6.7c1-1.8,2.5-3.3,4.3-4.2C199.8,253.4,201.9,252.9,204.3,252.9
		z"/>
	<path class="st1" d="M234,262c0-1.4-0.4-2.4-1.2-3.2c-0.8-0.8-1.8-1.1-3.1-1.1c-1.2,0-2.2,0.3-3.1,0.9c-0.9,0.6-1.5,1.6-2,3
		l-5.6-1.7c0.5-2.1,1.7-3.8,3.6-5.1c1.8-1.3,4.3-1.9,7.4-1.9c2.1,0,3.9,0.3,5.5,1c1.6,0.7,2.8,1.6,3.7,2.9c0.9,1.3,1.3,2.9,1.3,4.9
		v9.7c0,1.2,0.6,1.8,1.7,1.8c0.5,0,1.1-0.1,1.5-0.2l-0.4,4.1c-0.8,0.4-1.9,0.6-3.1,0.6c-1.1,0-2.1-0.2-3-0.6c-0.9-0.4-1.6-1-2.1-1.7
		c-0.5-0.8-0.8-1.8-0.8-2.9v-0.2l1.1-0.2c-0.2,1.2-0.7,2.2-1.6,3.1c-0.9,0.8-1.9,1.5-3.1,1.9c-1.2,0.4-2.5,0.7-3.8,0.7
		c-1.6,0-3-0.2-4.2-0.7c-1.2-0.5-2.1-1.2-2.7-2.2c-0.6-1-1-2.1-1-3.5c0-1.8,0.6-3.2,1.7-4.4c1.1-1.1,2.8-1.9,4.9-2.3l9-1.8l0,4.1
		L229,268c-1.1,0.2-1.9,0.5-2.5,0.9c-0.6,0.4-0.8,1-0.8,1.8c0,0.8,0.3,1.4,0.9,1.8c0.6,0.4,1.3,0.6,2.1,0.6c0.7,0,1.3-0.1,2-0.2
		c0.6-0.2,1.2-0.4,1.7-0.8c0.5-0.3,0.9-0.8,1.2-1.4c0.3-0.6,0.4-1.3,0.4-2.2V262z"/>
	<path class="st1" d="M254.2,242.9v27c0,1.1,0.2,1.9,0.6,2.3c0.4,0.4,1,0.7,1.9,0.7c0.5,0,1,0,1.3-0.1c0.3-0.1,0.8-0.2,1.3-0.4
		l-0.6,4.3c-0.5,0.3-1.2,0.6-2,0.7c-0.8,0.2-1.6,0.3-2.4,0.3c-2.3,0-4-0.6-5.1-1.7c-1.1-1.1-1.6-2.9-1.6-5.4v-27.7H254.2z"/>
	<path class="st1" d="M291.1,245.7c3.6,0,6.4,0.9,8.4,2.6s3.1,4,3.1,6.9c0,3.1-1,5.5-3.1,7.1c-2,1.6-4.8,2.5-8.4,2.5l-0.7,0.4h-6.8
		v12.1h-6.5v-31.5H291.1z M290.4,260.2c1.8,0,3.2-0.4,4.1-1.1c0.9-0.7,1.4-1.9,1.4-3.5c0-1.6-0.5-2.7-1.4-3.5
		c-0.9-0.7-2.3-1.1-4.1-1.1h-6.6v9.2H290.4z M294.2,261.5l10.2,15.7h-7.4l-8.5-13.8L294.2,261.5z"/>
	<path class="st1" d="M317,277.7c-1.6,0-3-0.3-4.3-0.9s-2.3-1.5-3-2.7c-0.7-1.3-1.1-2.9-1.1-4.9v-15.9h6.5v14.3
		c0,1.8,0.4,3.1,1.1,3.8c0.8,0.7,1.9,1.1,3.3,1.1c0.7,0,1.3-0.1,2-0.4c0.6-0.2,1.2-0.6,1.7-1.1c0.5-0.5,0.9-1.2,1.2-2
		c0.3-0.8,0.4-1.8,0.4-2.9v-12.8h6.5v23.9h-5.8l-0.2-4.2c-0.8,1.6-1.9,2.8-3.3,3.5C320.6,277.4,319,277.7,317,277.7z"/>
	<path class="st1" d="M352.4,272.8c2.6,0,4.6,0.6,6,1.7c1.4,1.1,2.1,2.7,2.1,4.7c0,1.8-0.5,3.4-1.6,4.6c-1.1,1.3-2.5,2.2-4.4,2.8
		c-1.9,0.6-4.1,1-6.6,1c-4.1,0-7.1-0.6-9-1.7c-1.9-1.1-2.8-2.6-2.8-4.5c0-1.3,0.5-2.4,1.5-3.3c1-0.9,2.7-1.4,5-1.5l-0.2,0.8
		c-1.7-0.3-2.9-0.8-3.8-1.6c-0.9-0.8-1.3-1.9-1.3-3.4c0-1.5,0.6-2.7,1.7-3.6c1.1-0.9,2.7-1.5,4.6-1.6l2.9,1.3h-0.7
		c-1.4,0.1-2.3,0.4-2.9,0.8c-0.6,0.5-0.8,1-0.8,1.6c0,0.7,0.3,1.2,0.8,1.5s1.3,0.5,2.3,0.5H352.4z M348,252.9c2.2,0,4.2,0.3,5.8,1
		c1.6,0.7,2.9,1.6,3.8,2.8c0.9,1.2,1.3,2.7,1.3,4.3c0,1.7-0.4,3.1-1.3,4.3c-0.9,1.2-2.1,2.1-3.8,2.8s-3.6,1-5.8,1
		c-3.5,0-6.2-0.7-8.1-2.2c-1.9-1.4-2.8-3.4-2.8-5.9c0-1.7,0.4-3.1,1.3-4.3c0.9-1.2,2.1-2.1,3.7-2.8
		C343.8,253.2,345.8,252.9,348,252.9z M348,283c1.7,0,3-0.1,4.1-0.4c1.1-0.3,1.9-0.7,2.4-1.1c0.5-0.4,0.8-0.9,0.8-1.5
		c0-0.6-0.2-1.1-0.7-1.5c-0.5-0.4-1.3-0.5-2.6-0.5h-8.1c-0.8,0-1.4,0.2-1.9,0.6s-0.7,0.9-0.7,1.6c0,0.9,0.6,1.6,1.8,2.1
		C344.2,282.8,345.9,283,348,283z M348,257c-1.3,0-2.3,0.4-3.2,1.1c-0.8,0.7-1.2,1.7-1.2,2.9c0,1.2,0.4,2.2,1.2,2.9
		c0.8,0.7,1.9,1.1,3.2,1.1s2.3-0.4,3.1-1.1c0.8-0.7,1.2-1.7,1.2-2.9c0-1.2-0.4-2.2-1.2-2.9C350.3,257.4,349.3,257,348,257z
		 M360.2,247.7l0.8,4.7c-0.1,0-0.3,0-0.4,0c-0.1,0-0.3,0-0.5,0c-1.5,0-2.6,0.3-3.3,1c-0.7,0.7-1.1,1.6-1.1,2.7l-2.7-1.1
		c0-1.3,0.3-2.5,0.8-3.6c0.5-1.1,1.3-2,2.3-2.7c1-0.7,2.2-1,3.6-1c0.1,0,0.1,0,0.2,0S360.1,247.7,360.2,247.7z"/>
</g>
</svg>
