<svg id="Layer_1" xmlns="http://www.w3.org/2000/svg" viewBox="0 0 376.5 351.1"><style>.st2{fill:#fff}</style><path d="M134 82.4c-47-9-102.7 6-124.6 48.6-15.3 29.7-10.8 66.7 5 96.1s41.4 52.3 68.3 72c48.5 35.3 109.2 63 167.2 47.8 63.9-16.8 104.6-81.4 119.8-145.6 9.8-41.4 11.1-87.3-10.5-124C335.6 36.9 289 15.8 243.5 5.4c-28.9-6.6-61-9.4-86.6 5.6s-38 54-17.3 75.2" fill="#f38b20"/><path class="st2" d="M70.9 172.9h-4.5v-19.3l-2.9 10.2H60l-2.8-10.2v19.3h-4.5v-28.5h5.4l3.7 12.9 3.7-12.9h5.4v28.5zM77.1 152.6h4.5v12.6c0 1.6.3 2.7.9 3.3.6.6 1.5.9 2.6.9 1.7 0 3-.7 4.1-2 1.1-1.4 1.6-3.2 1.6-5.6v-9.1h4.5V173h-4.5v-5.1c-.5 1.7-1.3 3.1-2.5 4.1s-2.7 1.5-4.5 1.5c-2.1 0-3.7-.7-4.9-2-1.2-1.4-1.8-3.4-1.8-6.2v-12.7zM120.2 166.8c0 1.3-.3 2.4-.9 3.2s-1.4 1.5-2.3 2c-.9.5-2 .9-3.1 1.1-1.2.2-2.3.3-3.4.3-1.8 0-3.7-.3-5.5-.8-1.8-.5-3.4-1.2-4.8-2.1l1.9-3.7c1.6.9 3.1 1.6 4.4 2 1.3.4 2.7.6 4 .6 1.8 0 3.1-.2 4-.6.8-.4 1.2-.9 1.2-1.6 0-.3-.1-.6-.3-.8-.2-.2-.6-.4-1.2-.6-.5-.2-1.2-.4-2.1-.5-.9-.2-2-.4-3.3-.6l-3-.6c-.9-.3-1.8-.6-2.5-1.1-.7-.5-1.3-1.1-1.7-1.8s-.6-1.6-.6-2.7.3-2 .8-2.9c.6-.8 1.3-1.5 2.2-2s1.9-.9 3.1-1.1c1.1-.2 2.3-.3 3.4-.3 1.6 0 3.2.2 4.7.6s2.8 1 4 1.8l-1.8 3.5c-1.1-.7-2.2-1.2-3.3-1.5-1.1-.3-2.2-.4-3.5-.4-.5 0-1.1 0-1.7.1-.6.1-1.1.2-1.6.3-.5.2-.9.4-1.2.7-.3.3-.5.6-.5 1 0 .5.5 1 1.4 1.3s2.6.7 4.9 1c1.2.2 2.4.4 3.4.7 1 .3 1.9.6 2.7 1.1s1.3 1 1.7 1.8c.3.7.5 1.5.5 2.6zM141.9 172.9h-13.7v-4.1h4.5v-12.2h-4.5v-4.1h9v16.3h4.6v4.1zm-4.2-23h-5.5v-5.5h5.5v5.5zM168.8 170c-1.3 1.3-2.7 2.2-4.1 2.7-1.4.5-3 .7-4.7.7-1.7 0-3.2-.3-4.6-.8-1.4-.5-2.6-1.2-3.5-2.2-1-.9-1.7-2-2.2-3.3-.5-1.3-.8-2.8-.8-4.4 0-1.5.3-3 .8-4.3.5-1.3 1.2-2.4 2.1-3.4.9-.9 1.9-1.7 3.1-2.2 1.2-.5 2.5-.8 3.8-.8 1.4 0 2.6.3 3.6.9s1.8 1.4 2.2 2.6v-2.9h4.1v9.5h-4.1c0-1.8-.5-3.2-1.5-4.3-1-1.1-2.3-1.6-3.8-1.6-.6 0-1.3.1-2 .4-.7.3-1.3.7-1.9 1.2-.6.5-1 1.2-1.4 2.1-.4.8-.6 1.8-.6 3 0 1.1.2 2.1.5 2.9.4.8.8 1.5 1.4 2 .6.5 1.3.9 2.1 1.2.8.3 1.6.4 2.5.4 1.5 0 2.7-.2 3.8-.7 1.1-.5 2-1.1 2.8-1.8l2.4 3.1zM173.5 167.1c0-1.2.3-2.2 1-3.1.6-.9 1.5-1.6 2.5-2.2 1-.6 2.2-1 3.6-1.3 1.3-.3 2.7-.4 4.1-.4h2c.6 0 1.1.1 1.7.1v-.8c0-1.1-.4-1.9-1.2-2.4-.8-.5-1.9-.8-3.2-.8-1.2 0-2.5.2-3.7.5s-2.5.8-3.6 1.5l-1.8-3.5c1.3-.8 2.8-1.4 4.3-1.8 1.5-.4 3.2-.7 4.9-.7 1.1 0 2.2.1 3.3.4 1.1.2 2 .7 2.9 1.2.9.6 1.5 1.3 2 2.2.5.9.8 2 .8 3.4V173h-4.5v-3c-.7 1.1-1.8 2-3.2 2.6-1.4.6-2.9.9-4.5.9-1 0-1.9-.1-2.8-.4-.9-.3-1.6-.7-2.3-1.2-.6-.5-1.2-1.2-1.5-2-.6-.9-.8-1.8-.8-2.8zm8.4 2.2c.9 0 1.7-.1 2.5-.3s1.5-.5 2.1-.9c.6-.4 1.1-.9 1.4-1.4.3-.6.5-1.2.5-1.9v-.8c-.7-.1-1.4-.2-2-.2h-1.7c-2.2 0-3.9.3-5 .9-1.1.6-1.7 1.3-1.7 2.2 0 1.6 1.3 2.4 3.9 2.4zM215.1 172.9h-13.7v-4.1h4.5v-20.4h-4.5v-4.1h9v24.4h4.7v4.2zM267.6 172.9h-5.7l-7.4-11.5h-2.1v11.5h-4.5v-28.5h9.4c3.1 0 5.6.7 7.3 2.2 1.7 1.4 2.6 3.6 2.6 6.4 0 1.3-.2 2.4-.6 3.3s-.9 1.8-1.6 2.5c-.7.7-1.5 1.2-2.5 1.6-.9.4-2 .7-3 .8l8.1 11.7zm-4.9-20.1c0-1.5-.5-2.5-1.4-3.3s-2.3-1.1-3.9-1.1h-4.9v8.8h4.9c1.7 0 3-.4 3.9-1.1s1.4-1.8 1.4-3.3zM272.3 152.6h4.5v12.6c0 1.6.3 2.7.9 3.3.6.6 1.5.9 2.6.9 1.7 0 3-.7 4.1-2s1.6-3.2 1.6-5.6v-9.1h4.5V173H286v-5.1c-.5 1.7-1.3 3.1-2.5 4.1-1.2 1-2.7 1.5-4.5 1.5-2.1 0-3.7-.7-4.9-2-1.2-1.4-1.8-3.4-1.8-6.2v-12.7zM314.9 172.7c0 1.4-.2 2.6-.7 3.7-.5 1.1-1.2 2-2 2.8-.9.8-1.9 1.3-3.1 1.7-1.2.4-2.5.6-3.9.6-3.5 0-6.6-1.1-9.1-3.2l2.1-3.5c2.1 1.8 4.4 2.7 6.9 2.7 1.6 0 2.8-.4 3.8-1.1 1-.8 1.4-2 1.4-3.6v-2.2c-.9.8-1.8 1.4-2.7 1.8-.9.4-1.9.6-3 .6-1.3 0-2.5-.3-3.6-.8-1.1-.6-2.1-1.3-2.9-2.3-.8-1-1.4-2.1-1.9-3.3s-.7-2.6-.7-4 .2-2.8.7-4 1.1-2.4 1.9-3.3c.8-.9 1.8-1.7 2.9-2.2 1.1-.5 2.3-.8 3.6-.8 1.1 0 2.1.2 3 .6.9.4 1.8 1 2.6 1.7v-1.8h4.5v19.9zm-4.5-14.7c-.5-.6-1.2-1.1-2.1-1.4-.9-.3-1.7-.5-2.5-.5-1.7 0-3.1.6-4.1 1.8-1.1 1.2-1.6 2.7-1.6 4.6 0 .9.1 1.8.4 2.5.3.8.7 1.5 1.2 2s1.1 1 1.8 1.3c.7.3 1.5.5 2.3.5.8 0 1.6-.2 2.5-.5.9-.3 1.5-.8 2.1-1.4V158z"/></svg>