<?xml version="1.0" encoding="utf-8"?>
<!-- Generator: Adobe Illustrator 22.0.1, SVG Export Plug-In . SVG Version: 6.00 Build 0)  -->
<svg version="1.1" id="Layer_1" xmlns="http://www.w3.org/2000/svg" xmlns:xlink="http://www.w3.org/1999/xlink" x="0px" y="0px"
	 viewBox="0 0 376.5 351.1" style="enable-background:new 0 0 376.5 351.1;" xml:space="preserve">
<style type="text/css">
	.st0{fill:#F38B20;}
	.st1{enable-background:new    ;}
	.st2{fill:#FFFFFF;}
</style>
<title>MusicalRug</title>
<path class="st0" d="M134,82.4C87,73.4,31.3,88.4,9.4,131c-15.3,29.7-10.8,66.7,5,96.1s41.4,52.3,68.3,72
	c48.5,35.3,109.2,63,167.2,47.8c63.9-16.8,104.6-81.4,119.8-145.6c9.8-41.4,11.1-87.3-10.5-124C335.6,36.9,289,15.8,243.5,5.4
	c-28.9-6.6-61-9.4-86.6,5.6s-38,54-17.3,75.2"/>
<g class="st1">
	<path class="st2" d="M70.9,172.9h-4.5v-19.3l-2.9,10.2H60l-2.8-10.2v19.3h-4.5v-28.5h5.4l3.7,12.9l3.7-12.9h5.4V172.9z"/>
	<path class="st2" d="M77.1,152.6h4.5v12.6c0,1.6,0.3,2.7,0.9,3.3c0.6,0.6,1.5,0.9,2.6,0.9c1.7,0,3-0.7,4.1-2
		c1.1-1.4,1.6-3.2,1.6-5.6v-9.1h4.5v20.3h-4.5v-5.1c-0.5,1.7-1.3,3.1-2.5,4.1s-2.7,1.5-4.5,1.5c-2.1,0-3.7-0.7-4.9-2
		c-1.2-1.4-1.8-3.4-1.8-6.2V152.6z"/>
	<path class="st2" d="M120.2,166.8c0,1.3-0.3,2.4-0.9,3.2s-1.4,1.5-2.3,2c-0.9,0.5-2,0.9-3.1,1.1c-1.2,0.2-2.3,0.3-3.4,0.3
		c-1.8,0-3.7-0.3-5.5-0.8c-1.8-0.5-3.4-1.2-4.8-2.1l1.9-3.7c1.6,0.9,3.1,1.6,4.4,2c1.3,0.4,2.7,0.6,4,0.6c1.8,0,3.1-0.2,4-0.6
		c0.8-0.4,1.2-0.9,1.2-1.6c0-0.3-0.1-0.6-0.3-0.8c-0.2-0.2-0.6-0.4-1.2-0.6c-0.5-0.2-1.2-0.4-2.1-0.5c-0.9-0.2-2-0.4-3.3-0.6
		c-1-0.2-2-0.4-3-0.6c-0.9-0.3-1.8-0.6-2.5-1.1c-0.7-0.5-1.3-1.1-1.7-1.8s-0.6-1.6-0.6-2.7c0-1.1,0.3-2,0.8-2.9
		c0.6-0.8,1.3-1.5,2.2-2s1.9-0.9,3.1-1.1c1.1-0.2,2.3-0.3,3.4-0.3c1.6,0,3.2,0.2,4.7,0.6s2.8,1,4,1.8l-1.8,3.5
		c-1.1-0.7-2.2-1.2-3.3-1.5c-1.1-0.3-2.2-0.4-3.5-0.4c-0.5,0-1.1,0-1.7,0.1c-0.6,0.1-1.1,0.2-1.6,0.3c-0.5,0.2-0.9,0.4-1.2,0.7
		c-0.3,0.3-0.5,0.6-0.5,1c0,0.5,0.5,1,1.4,1.3s2.6,0.7,4.9,1c1.2,0.2,2.4,0.4,3.4,0.7c1,0.3,1.9,0.6,2.7,1.1s1.3,1,1.7,1.8
		C120,164.9,120.2,165.7,120.2,166.8z"/>
	<path class="st2" d="M141.9,172.9h-13.7v-4.1h4.5v-12.2h-4.5v-4.1h9v16.3h4.6V172.9z M137.7,149.9h-5.5v-5.5h5.5V149.9z"/>
	<path class="st2" d="M168.8,170c-1.3,1.3-2.7,2.2-4.1,2.7c-1.4,0.5-3,0.7-4.7,0.7c-1.7,0-3.2-0.3-4.6-0.8c-1.4-0.5-2.6-1.2-3.5-2.2
		c-1-0.9-1.7-2-2.2-3.3c-0.5-1.3-0.8-2.8-0.8-4.4c0-1.5,0.3-3,0.8-4.3c0.5-1.3,1.2-2.4,2.1-3.4c0.9-0.9,1.9-1.7,3.1-2.2
		c1.2-0.5,2.5-0.8,3.8-0.8c1.4,0,2.6,0.3,3.6,0.9s1.8,1.4,2.2,2.6v-2.9h4.1v9.5h-4.1c0-1.8-0.5-3.2-1.5-4.3c-1-1.1-2.3-1.6-3.8-1.6
		c-0.6,0-1.3,0.1-2,0.4c-0.7,0.3-1.3,0.7-1.9,1.2c-0.6,0.5-1,1.2-1.4,2.1c-0.4,0.8-0.6,1.8-0.6,3c0,1.1,0.2,2.1,0.5,2.9
		c0.4,0.8,0.8,1.5,1.4,2c0.6,0.5,1.3,0.9,2.1,1.2c0.8,0.3,1.6,0.4,2.5,0.4c1.5,0,2.7-0.2,3.8-0.7c1.1-0.5,2-1.1,2.8-1.8L168.8,170z"
		/>
	<path class="st2" d="M173.5,167.1c0-1.2,0.3-2.2,1-3.1c0.6-0.9,1.5-1.6,2.5-2.2c1-0.6,2.2-1,3.6-1.3c1.3-0.3,2.7-0.4,4.1-0.4
		c0.8,0,1.4,0,2,0c0.6,0,1.1,0.1,1.7,0.1v-0.8c0-1.1-0.4-1.9-1.2-2.4c-0.8-0.5-1.9-0.8-3.2-0.8c-1.2,0-2.5,0.2-3.7,0.5
		s-2.5,0.8-3.6,1.5l-1.8-3.5c1.3-0.8,2.8-1.4,4.3-1.8c1.5-0.4,3.2-0.7,4.9-0.7c1.1,0,2.2,0.1,3.3,0.4c1.1,0.2,2,0.7,2.9,1.2
		c0.9,0.6,1.5,1.3,2,2.2c0.5,0.9,0.8,2,0.8,3.4v13.6h-4.5v-3c-0.7,1.1-1.8,2-3.2,2.6c-1.4,0.6-2.9,0.9-4.5,0.9c-1,0-1.9-0.1-2.8-0.4
		c-0.9-0.3-1.6-0.7-2.3-1.2c-0.6-0.5-1.2-1.2-1.5-2C173.7,169,173.5,168.1,173.5,167.1z M181.9,169.3c0.9,0,1.7-0.1,2.5-0.3
		s1.5-0.5,2.1-0.9c0.6-0.4,1.1-0.9,1.4-1.4c0.3-0.6,0.5-1.2,0.5-1.9V164c-0.7-0.1-1.4-0.2-2-0.2c-0.6,0-1.2,0-1.7,0
		c-2.2,0-3.9,0.3-5,0.9c-1.1,0.6-1.7,1.3-1.7,2.2C178,168.5,179.3,169.3,181.9,169.3z"/>
	<path class="st2" d="M215.1,172.9h-13.7v-4.1h4.5v-20.4h-4.5v-4.1h9v24.4h4.7V172.9z"/>
	<path class="st2" d="M267.6,172.9h-5.7l-7.4-11.5h-2.1v11.5h-4.5v-28.5h9.4c3.1,0,5.6,0.7,7.3,2.2c1.7,1.4,2.6,3.6,2.6,6.4
		c0,1.3-0.2,2.4-0.6,3.3s-0.9,1.8-1.6,2.5c-0.7,0.7-1.5,1.2-2.5,1.6c-0.9,0.4-2,0.7-3,0.8L267.6,172.9z M262.7,152.8
		c0-1.5-0.5-2.5-1.4-3.3s-2.3-1.1-3.9-1.1h-4.9v8.8h4.9c1.7,0,3-0.4,3.9-1.1S262.7,154.3,262.7,152.8z"/>
	<path class="st2" d="M272.3,152.6h4.5v12.6c0,1.6,0.3,2.7,0.9,3.3c0.6,0.6,1.5,0.9,2.6,0.9c1.7,0,3-0.7,4.1-2s1.6-3.2,1.6-5.6v-9.1
		h4.5v20.3H286v-5.1c-0.5,1.7-1.3,3.1-2.5,4.1c-1.2,1-2.7,1.5-4.5,1.5c-2.1,0-3.7-0.7-4.9-2c-1.2-1.4-1.8-3.4-1.8-6.2V152.6z"/>
	<path class="st2" d="M314.9,172.7c0,1.4-0.2,2.6-0.7,3.7c-0.5,1.1-1.2,2-2,2.8c-0.9,0.8-1.9,1.3-3.1,1.7c-1.2,0.4-2.5,0.6-3.9,0.6
		c-3.5,0-6.6-1.1-9.1-3.2l2.1-3.5c2.1,1.8,4.4,2.7,6.9,2.7c1.6,0,2.8-0.4,3.8-1.1c1-0.8,1.4-2,1.4-3.6v-2.2
		c-0.9,0.8-1.8,1.4-2.7,1.8c-0.9,0.4-1.9,0.6-3,0.6c-1.3,0-2.5-0.3-3.6-0.8c-1.1-0.6-2.1-1.3-2.9-2.3c-0.8-1-1.4-2.1-1.9-3.3
		s-0.7-2.6-0.7-4s0.2-2.8,0.7-4s1.1-2.4,1.9-3.3c0.8-0.9,1.8-1.7,2.9-2.2c1.1-0.5,2.3-0.8,3.6-0.8c1.1,0,2.1,0.2,3,0.6
		c0.9,0.4,1.8,1,2.6,1.7v-1.8h4.5V172.7z M310.4,158c-0.5-0.6-1.2-1.1-2.1-1.4c-0.9-0.3-1.7-0.5-2.5-0.5c-1.7,0-3.1,0.6-4.1,1.8
		c-1.1,1.2-1.6,2.7-1.6,4.6c0,0.9,0.1,1.8,0.4,2.5c0.3,0.8,0.7,1.5,1.2,2s1.1,1,1.8,1.3c0.7,0.3,1.5,0.5,2.3,0.5
		c0.8,0,1.6-0.2,2.5-0.5c0.9-0.3,1.5-0.8,2.1-1.4V158z"/>
</g>
</svg>
