<?xml version="1.0" encoding="utf-8"?>
<!-- Generator: Adobe Illustrator 23.1.1, SVG Export Plug-In . SVG Version: 6.00 Build 0)  -->
<svg version="1.1" id="Layer_1" xmlns="http://www.w3.org/2000/svg" xmlns:xlink="http://www.w3.org/1999/xlink" x="0px" y="0px"
	 viewBox="0 0 372.2 424.6" style="enable-background:new 0 0 372.2 424.6;" xml:space="preserve">
<style type="text/css">
	.st0{fill:#273F84;}
	.st1{fill:#FFFFFF;}
</style>
<title>HowToTampon</title>
<path class="st0" d="M188.5,347.2C108.8,324,41.6,261.4,12.6,183.7C-3.6,140.1-7.1,87.9,19.7,49.9c18.5-26.2,49.2-42,80.8-47.5
	c70-12.3,142.5,23.4,188.3,77.8s68.2,124.9,79.5,195.1c6.3,39.2,8,83.7-17.9,113.8c-16.2,18.8-40.7,28.5-65.2,32.7
	C180.3,440.1,80.5,370,62.2,265.1c-0.3-1.5-0.5-2.9-0.7-4.4"/>
<g>
	<path class="st1" d="M110.4,140.4c0,2.8-0.8,4.9-2.5,6.2c-1.7,1.4-4,2-7.1,2H96v11.3h-4.4v-27.8h9.2c3.1,0,5.4,0.7,7.1,2.1
		C109.6,135.6,110.4,137.6,110.4,140.4z M106,140.3c0-1.4-0.5-2.5-1.4-3.2c-0.9-0.7-2.2-1.1-3.8-1.1H96v8.6h4.8
		c1.6,0,2.9-0.4,3.8-1.1C105.5,142.9,106,141.8,106,140.3z"/>
	<path class="st1" d="M134.7,150c0,1.5-0.2,3-0.7,4.2s-1.2,2.4-2.1,3.3c-0.9,0.9-2,1.6-3.3,2.1c-1.3,0.5-2.7,0.8-4.3,0.8
		c-1.5,0-3-0.3-4.2-0.8c-1.3-0.5-2.4-1.2-3.3-2.1s-1.6-2-2.1-3.3s-0.7-2.7-0.7-4.2c0-1.5,0.2-2.9,0.7-4.2c0.5-1.3,1.2-2.4,2.1-3.3
		s2-1.6,3.3-2.2s2.7-0.8,4.2-0.8c1.6,0,3,0.3,4.3,0.8s2.4,1.2,3.3,2.2c0.9,0.9,1.6,2,2.1,3.3C134.5,147.1,134.7,148.5,134.7,150z
		 M130.3,150c0-0.9-0.1-1.7-0.4-2.6c-0.3-0.8-0.7-1.5-1.2-2.1c-0.5-0.6-1.2-1-1.9-1.4c-0.7-0.3-1.6-0.5-2.5-0.5
		c-0.9,0-1.8,0.2-2.5,0.5c-0.7,0.3-1.4,0.8-1.9,1.4c-0.5,0.6-0.9,1.3-1.2,2.1c-0.3,0.8-0.4,1.7-0.4,2.6c0,0.9,0.1,1.8,0.4,2.6
		c0.3,0.8,0.7,1.4,1.2,2s1.1,1,1.9,1.4c0.7,0.3,1.6,0.5,2.5,0.5c0.9,0,1.8-0.2,2.5-0.5s1.4-0.8,1.9-1.4s0.9-1.3,1.2-2
		C130.2,151.8,130.3,150.9,130.3,150z"/>
	<path class="st1" d="M157.6,144.7c-0.5-0.3-1.1-0.5-1.6-0.6c-0.5-0.1-1.2-0.2-1.9-0.2c-1,0-1.9,0.1-2.8,0.4
		c-0.9,0.3-1.6,0.7-2.2,1.3c-0.6,0.6-1.1,1.3-1.5,2.2c-0.3,0.9-0.5,1.9-0.5,3.1v4.9h4.5v4h-13.4v-4h4.5V144h-4.5v-4h8.9v5
		c0.7-2,1.8-3.4,3.2-4.2c1.4-0.8,3.1-1.2,5-1.2c0.6,0,1.2,0.1,1.9,0.2s1.3,0.4,2,0.7L157.6,144.7z"/>
	<path class="st1" d="M182.1,153.6c-0.2,2.1-1,3.7-2.5,5c-1.4,1.2-3.2,1.8-5.3,1.8c-1.2,0-2.2-0.2-3.2-0.6s-1.8-0.9-2.5-1.6
		c-0.7-0.7-1.2-1.5-1.6-2.5c-0.4-1-0.6-2-0.6-3.1V144H162v-4h4.5v-8h4.4v8h8.3v4h-8.3v8.6c0,1.3,0.3,2.2,0.9,2.9
		c0.6,0.6,1.4,0.9,2.5,0.9c1.2,0,2.2-0.4,2.8-1.1c0.6-0.7,1-1.6,1.1-2.6L182.1,153.6z"/>
	<path class="st1" d="M205.7,144H198v11.9h4.5v4h-13.3v-4h4.4V144h-4.4v-4h4.4c0-2.7,0.8-4.8,2.5-6.3c1.7-1.4,3.9-2.2,6.8-2.2
		c0.4,0,0.9,0,1.4,0.1c0.5,0,1,0.1,1.5,0.1v3.9c-0.9-0.1-1.6-0.1-2.3-0.1c-1.1,0-2.1,0.1-2.8,0.2c-0.7,0.2-1.2,0.4-1.6,0.8
		c-0.4,0.4-0.7,0.8-0.8,1.4s-0.2,1.2-0.2,2h7.7V144z"/>
	<path class="st1" d="M230.1,150c0,1.5-0.2,3-0.7,4.2c-0.5,1.3-1.2,2.4-2.1,3.3c-0.9,0.9-2,1.6-3.3,2.1c-1.3,0.5-2.7,0.8-4.3,0.8
		c-1.5,0-3-0.3-4.2-0.8c-1.3-0.5-2.4-1.2-3.3-2.1c-0.9-0.9-1.6-2-2.1-3.3s-0.7-2.7-0.7-4.2c0-1.5,0.2-2.9,0.7-4.2
		c0.5-1.3,1.2-2.4,2.1-3.3c0.9-0.9,2-1.6,3.3-2.2c1.3-0.5,2.7-0.8,4.2-0.8c1.6,0,3,0.3,4.3,0.8c1.3,0.5,2.4,1.2,3.3,2.2
		c0.9,0.9,1.6,2,2.1,3.3C229.8,147.1,230.1,148.5,230.1,150z M225.6,150c0-0.9-0.1-1.7-0.4-2.6c-0.3-0.8-0.7-1.5-1.2-2.1
		c-0.5-0.6-1.2-1-1.9-1.4c-0.7-0.3-1.6-0.5-2.5-0.5c-0.9,0-1.8,0.2-2.5,0.5c-0.7,0.3-1.4,0.8-1.9,1.4c-0.5,0.6-0.9,1.3-1.2,2.1
		c-0.3,0.8-0.4,1.7-0.4,2.6c0,0.9,0.1,1.8,0.4,2.6c0.3,0.8,0.7,1.4,1.2,2c0.5,0.6,1.1,1,1.9,1.4s1.6,0.5,2.5,0.5
		c0.9,0,1.8-0.2,2.5-0.5s1.4-0.8,1.9-1.4c0.5-0.6,0.9-1.3,1.2-2C225.5,151.8,225.6,150.9,225.6,150z"/>
	<path class="st1" d="M250.2,159.9h-13.3v-4h4.3V136h-4.3v-4h8.8v23.9h4.6V159.9z"/>
	<path class="st1" d="M274,159.9h-13.3v-4h4.4V144h-4.4v-4h8.8v15.9h4.5V159.9z M270,137.4h-5.4v-5.4h5.4V137.4z"/>
	<path class="st1" d="M301.5,150c0,1.5-0.2,3-0.7,4.2c-0.5,1.3-1.2,2.4-2.1,3.3c-0.9,0.9-2,1.6-3.3,2.1c-1.3,0.5-2.7,0.8-4.3,0.8
		c-1.5,0-3-0.3-4.2-0.8c-1.3-0.5-2.4-1.2-3.3-2.1c-0.9-0.9-1.6-2-2.1-3.3s-0.7-2.7-0.7-4.2c0-1.5,0.2-2.9,0.7-4.2
		c0.5-1.3,1.2-2.4,2.1-3.3c0.9-0.9,2-1.6,3.3-2.2c1.3-0.5,2.7-0.8,4.2-0.8c1.6,0,3,0.3,4.3,0.8c1.3,0.5,2.4,1.2,3.3,2.2
		c0.9,0.9,1.6,2,2.1,3.3C301.3,147.1,301.5,148.5,301.5,150z M297.1,150c0-0.9-0.1-1.7-0.4-2.6c-0.3-0.8-0.7-1.5-1.2-2.1
		c-0.5-0.6-1.2-1-1.9-1.4c-0.7-0.3-1.6-0.5-2.5-0.5c-0.9,0-1.8,0.2-2.5,0.5c-0.7,0.3-1.4,0.8-1.9,1.4c-0.5,0.6-0.9,1.3-1.2,2.1
		c-0.3,0.8-0.4,1.7-0.4,2.6c0,0.9,0.1,1.8,0.4,2.6c0.3,0.8,0.7,1.4,1.2,2c0.5,0.6,1.1,1,1.9,1.4s1.6,0.5,2.5,0.5
		c0.9,0,1.8-0.2,2.5-0.5s1.4-0.8,1.9-1.4c0.5-0.6,0.9-1.3,1.2-2C297,151.8,297.1,150.9,297.1,150z"/>
	<path class="st1" d="M111.7,184.4l-4.3,27.8h-4.5l-2.5-12l-2.4,12h-4.5l-4.3-27.8h4.6l2.6,18.7l2-10.8h4.2l2,10.8l2.6-18.7H111.7z"
		/>
	<path class="st1" d="M118.4,204c0.2,1.4,0.9,2.5,2,3.4s2.5,1.4,4.4,1.4c1.4,0,2.7-0.2,3.7-0.7c1.1-0.4,2-1,2.7-1.8l2.3,3.1
		c-1.3,1.3-2.6,2.1-4.1,2.6c-1.4,0.5-3,0.7-4.7,0.7c-1.5,0-3-0.3-4.3-0.8c-1.3-0.5-2.5-1.2-3.4-2.1s-1.7-2-2.3-3.3
		c-0.5-1.3-0.8-2.7-0.8-4.2c0-1.5,0.3-2.9,0.8-4.2c0.5-1.3,1.2-2.4,2.1-3.3s2-1.7,3.3-2.2s2.7-0.8,4.2-0.8c1.6,0,3.1,0.3,4.4,0.8
		c1.3,0.5,2.4,1.3,3.4,2.4c0.9,1,1.7,2.3,2.2,3.8c0.5,1.5,0.8,3.2,0.8,5.1H118.4z M130.1,200.1c-0.2-1.3-0.9-2.3-2-3.1
		c-1.1-0.8-2.3-1.2-3.7-1.2c-1.4,0-2.6,0.4-3.8,1.2s-1.8,1.8-2,3.1H130.1z"/>
	<path class="st1" d="M139.2,184.4h4.4v9.7c0.8-0.8,1.7-1.3,2.5-1.7s1.8-0.6,3-0.6c1.3,0,2.5,0.3,3.6,0.8c1.1,0.5,2,1.2,2.8,2.2
		c0.8,0.9,1.4,2,1.9,3.3c0.5,1.3,0.7,2.7,0.7,4.2c0,1.5-0.2,2.9-0.7,4.2c-0.5,1.3-1.1,2.4-1.9,3.3c-0.8,0.9-1.7,1.6-2.8,2.1
		c-1.1,0.5-2.3,0.8-3.6,0.8c-1.1,0-2.1-0.2-3-0.6s-1.7-1-2.5-1.7v1.8h-4.4V184.4z M143.7,207c0.5,0.6,1.2,1,2,1.3
		c0.8,0.3,1.6,0.5,2.4,0.5c1.7,0,3-0.6,4.1-1.8c1-1.2,1.6-2.7,1.6-4.7s-0.5-3.5-1.6-4.7c-1-1.2-2.4-1.8-4.1-1.8
		c-0.8,0-1.5,0.2-2.4,0.5c-0.8,0.3-1.5,0.8-2,1.3V207z"/>
	<path class="st1" d="M181.4,206.3c0,1.3-0.3,2.3-0.9,3.2c-0.6,0.8-1.3,1.5-2.2,2s-1.9,0.8-3.1,1c-1.1,0.2-2.2,0.3-3.3,0.3
		c-1.8,0-3.6-0.3-5.4-0.8c-1.8-0.5-3.3-1.2-4.6-2.1l1.8-3.6c1.6,0.9,3,1.6,4.3,1.9c1.3,0.4,2.6,0.6,3.9,0.6c1.8,0,3.1-0.2,3.9-0.6
		s1.2-0.9,1.2-1.6c0-0.3-0.1-0.6-0.3-0.8c-0.2-0.2-0.6-0.4-1.1-0.6c-0.5-0.2-1.2-0.4-2.1-0.5s-1.9-0.4-3.2-0.6c-1-0.2-2-0.4-2.9-0.6
		c-0.9-0.2-1.7-0.6-2.4-1.1c-0.7-0.5-1.3-1-1.7-1.7c-0.4-0.7-0.6-1.6-0.6-2.6c0-1.1,0.3-2,0.8-2.8c0.5-0.8,1.3-1.4,2.2-2
		s1.9-0.9,3-1.1c1.1-0.2,2.2-0.3,3.3-0.3c1.6,0,3.1,0.2,4.6,0.6c1.5,0.4,2.8,1,3.9,1.7l-1.7,3.4c-1.1-0.7-2.2-1.2-3.2-1.4
		c-1-0.2-2.2-0.4-3.4-0.4c-0.5,0-1.1,0-1.6,0.1c-0.6,0.1-1.1,0.2-1.6,0.3c-0.5,0.2-0.9,0.4-1.2,0.7c-0.3,0.3-0.5,0.6-0.5,1
		c0,0.5,0.5,1,1.4,1.3c0.9,0.3,2.5,0.7,4.8,1c1.2,0.2,2.3,0.4,3.3,0.6c1,0.3,1.9,0.6,2.6,1.1s1.3,1,1.7,1.7
		C181.2,204.4,181.4,205.3,181.4,206.3z"/>
	<path class="st1" d="M202.5,212.3h-13.3v-4h4.4v-11.9h-4.4v-4h8.8v15.9h4.5V212.3z M198.5,189.8h-5.4v-5.4h5.4V189.8z"/>
	<path class="st1" d="M229.8,206c-0.2,2.1-1,3.7-2.5,5c-1.4,1.2-3.2,1.8-5.3,1.8c-1.2,0-2.2-0.2-3.2-0.6c-1-0.4-1.8-0.9-2.5-1.6
		c-0.7-0.7-1.2-1.5-1.6-2.5c-0.4-1-0.6-2-0.6-3.1v-8.6h-4.5v-4h4.5v-8h4.4v8h8.3v4h-8.3v8.6c0,1.3,0.3,2.2,0.9,2.9
		c0.6,0.6,1.4,0.9,2.5,0.9c1.3,0,2.2-0.4,2.8-1.1c0.6-0.7,1-1.6,1.1-2.6L229.8,206z"/>
	<path class="st1" d="M237.6,204c0.2,1.4,0.9,2.5,2,3.4s2.5,1.4,4.4,1.4c1.4,0,2.7-0.2,3.7-0.7c1.1-0.4,2-1,2.7-1.8l2.3,3.1
		c-1.3,1.3-2.6,2.1-4.1,2.6c-1.4,0.5-3,0.7-4.7,0.7c-1.5,0-3-0.3-4.3-0.8c-1.3-0.5-2.5-1.2-3.4-2.1c-1-0.9-1.7-2-2.3-3.3
		s-0.8-2.7-0.8-4.2c0-1.5,0.3-2.9,0.8-4.2c0.5-1.3,1.2-2.4,2.1-3.3c0.9-0.9,2-1.7,3.3-2.2s2.7-0.8,4.2-0.8c1.6,0,3.1,0.3,4.4,0.8
		c1.3,0.5,2.4,1.3,3.4,2.4c0.9,1,1.7,2.3,2.2,3.8c0.5,1.5,0.8,3.2,0.8,5.1H237.6z M249.2,200.1c-0.2-1.3-0.9-2.3-2-3.1
		c-1.1-0.8-2.3-1.2-3.7-1.2s-2.6,0.4-3.8,1.2s-1.8,1.8-2,3.1H249.2z"/>
	<path class="st1" d="M111.3,250.7c0,1.9-0.2,3.6-0.6,5.3c-0.4,1.7-1,3.2-1.9,4.4c-0.9,1.3-2,2.3-3.3,3c-1.4,0.8-3,1.1-4.9,1.1h-9
		v-27.8h9c1.9,0,3.5,0.4,4.9,1.1c1.4,0.8,2.5,1.8,3.3,3s1.5,2.7,1.9,4.4C111.1,247.1,111.3,248.9,111.3,250.7z M106.9,250.7
		c0-3.2-0.5-5.7-1.6-7.4c-1.1-1.7-2.6-2.5-4.6-2.5H96v19.9h4.6c2,0,3.6-0.9,4.6-2.6S106.9,253.9,106.9,250.7z"/>
	<path class="st1" d="M118.4,256.4c0.2,1.4,0.9,2.5,2,3.4c1.1,0.9,2.5,1.4,4.4,1.4c1.4,0,2.7-0.2,3.7-0.7s2-1,2.7-1.8l2.3,3.1
		c-1.3,1.3-2.6,2.1-4.1,2.6c-1.4,0.5-3,0.7-4.7,0.7c-1.5,0-3-0.3-4.3-0.8c-1.3-0.5-2.5-1.2-3.4-2.1c-1-0.9-1.7-2-2.3-3.3
		c-0.5-1.3-0.8-2.7-0.8-4.2c0-1.5,0.3-2.9,0.8-4.2c0.5-1.3,1.2-2.4,2.1-3.3s2-1.7,3.3-2.2s2.7-0.8,4.2-0.8c1.6,0,3.1,0.3,4.4,0.8
		c1.3,0.5,2.4,1.3,3.4,2.4s1.7,2.3,2.2,3.8c0.5,1.5,0.8,3.2,0.8,5.1H118.4z M130.1,252.5c-0.2-1.3-0.9-2.3-2-3.1
		c-1.1-0.8-2.3-1.2-3.7-1.2c-1.4,0-2.6,0.4-3.8,1.2c-1.1,0.8-1.8,1.8-2,3.1H130.1z"/>
	<path class="st1" d="M157.5,258.7c0,1.3-0.3,2.3-0.9,3.2c-0.6,0.8-1.3,1.5-2.2,2s-1.9,0.8-3.1,1c-1.1,0.2-2.2,0.3-3.3,0.3
		c-1.8,0-3.6-0.3-5.4-0.8c-1.8-0.5-3.3-1.2-4.6-2.1l1.8-3.6c1.6,0.9,3,1.6,4.3,1.9c1.3,0.4,2.6,0.6,3.9,0.6c1.8,0,3.1-0.2,3.9-0.6
		s1.2-0.9,1.2-1.6c0-0.3-0.1-0.6-0.3-0.8c-0.2-0.2-0.6-0.4-1.1-0.6c-0.5-0.2-1.2-0.4-2.1-0.5c-0.9-0.2-1.9-0.4-3.2-0.6
		c-1-0.2-2-0.4-2.9-0.6s-1.7-0.6-2.4-1.1c-0.7-0.5-1.3-1-1.7-1.7c-0.4-0.7-0.6-1.6-0.6-2.6c0-1.1,0.3-2,0.8-2.8
		c0.5-0.8,1.3-1.4,2.2-2c0.9-0.5,1.9-0.9,3-1.1s2.2-0.3,3.3-0.3c1.6,0,3.1,0.2,4.6,0.6c1.5,0.4,2.8,1,3.9,1.7l-1.7,3.4
		c-1.1-0.7-2.2-1.2-3.2-1.4c-1-0.2-2.2-0.4-3.4-0.4c-0.5,0-1.1,0-1.6,0.1c-0.6,0.1-1.1,0.2-1.6,0.3c-0.5,0.2-0.9,0.4-1.2,0.7
		c-0.3,0.3-0.5,0.6-0.5,1c0,0.5,0.5,1,1.4,1.3s2.5,0.7,4.8,1c1.2,0.2,2.3,0.4,3.3,0.7c1,0.3,1.9,0.6,2.6,1.1s1.3,1,1.7,1.7
		S157.5,257.7,157.5,258.7z"/>
	<path class="st1" d="M178.7,264.6h-13.3v-4h4.4v-11.9h-4.4v-4h8.8v15.9h4.5V264.6z M174.6,242.2h-5.4v-5.4h5.4V242.2z"/>
	<path class="st1" d="M204.7,264.4c0,1.4-0.2,2.6-0.7,3.6s-1.1,2-2,2.7c-0.8,0.7-1.8,1.3-3,1.7c-1.1,0.4-2.4,0.6-3.8,0.6
		c-3.5,0-6.4-1-8.8-3.1l2.1-3.4c2,1.7,4.3,2.6,6.8,2.6c1.5,0,2.7-0.4,3.7-1.1c0.9-0.7,1.4-1.9,1.4-3.5v-2.1
		c-0.9,0.8-1.8,1.4-2.6,1.7c-0.8,0.4-1.8,0.6-2.9,0.6c-1.3,0-2.5-0.3-3.6-0.8c-1.1-0.5-2-1.3-2.8-2.2c-0.8-0.9-1.4-2-1.9-3.2
		c-0.4-1.2-0.7-2.6-0.7-3.9s0.2-2.7,0.7-4c0.4-1.2,1.1-2.3,1.9-3.2c0.8-0.9,1.7-1.6,2.8-2.2c1.1-0.5,2.3-0.8,3.6-0.8
		c1.1,0,2.1,0.2,3,0.6c0.9,0.4,1.7,0.9,2.6,1.7v-1.8h4.4V264.4z M200.3,250.1c-0.5-0.6-1.2-1-2-1.3s-1.6-0.5-2.4-0.5
		c-1.7,0-3,0.6-4,1.7c-1,1.2-1.5,2.7-1.5,4.5c0,0.9,0.1,1.7,0.4,2.5s0.7,1.4,1.2,2c0.5,0.6,1.1,1,1.8,1.3s1.4,0.5,2.2,0.5
		c0.8,0,1.6-0.2,2.4-0.5s1.5-0.8,2-1.4V250.1z"/>
	<path class="st1" d="M228.5,264.6h-4.4v-12.3c0-1.5-0.3-2.6-0.9-3.2c-0.6-0.6-1.4-0.9-2.5-0.9c-1.6,0-3,0.7-4,2
		c-1,1.3-1.5,3.1-1.5,5.5v8.9h-4.4v-19.9h4.4v5c0.4-1.7,1.3-3.1,2.5-4c1.2-1,2.7-1.4,4.4-1.4c2,0,3.6,0.7,4.8,2
		c1.2,1.3,1.7,3.4,1.7,6.1V264.6z"/>
</g>
</svg>
