<?xml version="1.0" encoding="utf-8"?>
<!-- Generator: Adobe Illustrator 24.0.1, SVG Export Plug-In . SVG Version: 6.00 Build 0)  -->
<svg version="1.1" id="Layer_1" xmlns="http://www.w3.org/2000/svg" xmlns:xlink="http://www.w3.org/1999/xlink" x="0px" y="0px"
	 viewBox="0 0 708.5 420.9" style="enable-background:new 0 0 708.5 420.9;" xml:space="preserve">
<style type="text/css">
	.st0{fill:#62A8DC;}
	.st1{fill:#FFFFFF;}
</style>
<title>ChaseSapphire</title>
<path class="st0" d="M455.4,190.3c-36.9-38-71.4-78.5-111.5-113.1c-40-34.7-86.7-63.7-138.7-73.7S95.2,4.9,57.3,41.8
	C27.1,71.2,12.4,113.1,4.9,154.6c-5.5,30.5-7.6,62.3,0.4,92.3c17.8,66.8,83.2,112,150.5,127.7s137.6,7.6,206.6,2.3
	s140.7-7.3,204.5,19.2c29,12.1,58.9,30.2,89.6,23.3c34.8-7.9,55.2-47.6,51.6-83.1s-25.6-66.5-50.3-92.2
	c-49.7-51.6-117.5-90.4-189.1-88.3c-20.6,0.6-46.5,11-45.2,31.5"/>
<g>
	<path class="st1" d="M158.9,237c0,2.6-0.8,4.6-2.4,5.9c-1.6,1.3-3.8,1.9-6.7,1.9h-4.5v10.6h-4.2v-26.3h8.7c2.9,0,5.1,0.7,6.7,2
		C158.1,232.5,158.9,234.4,158.9,237z M154.7,236.9c0-1.4-0.4-2.4-1.3-3c-0.9-0.7-2.1-1-3.6-1h-4.5v8.2h4.5c1.5,0,2.7-0.3,3.6-1
		C154.3,239.4,154.7,238.3,154.7,236.9z"/>
	<path class="st1" d="M181.9,246.1c0,1.5-0.2,2.8-0.7,4c-0.5,1.2-1.1,2.2-2,3.1s-1.9,1.5-3.1,2c-1.2,0.5-2.6,0.7-4.1,0.7
		c-1.5,0-2.8-0.2-4-0.7c-1.2-0.5-2.2-1.2-3.1-2c-0.9-0.9-1.5-1.9-2-3.1c-0.5-1.2-0.7-2.5-0.7-4c0-1.4,0.2-2.7,0.7-4
		c0.5-1.2,1.1-2.3,2-3.1c0.9-0.9,1.9-1.6,3.1-2c1.2-0.5,2.5-0.7,4-0.7c1.5,0,2.8,0.2,4.1,0.7c1.2,0.5,2.2,1.2,3.1,2
		c0.9,0.9,1.5,1.9,2,3.1C181.7,243.3,181.9,244.7,181.9,246.1z M177.7,246.1c0-0.8-0.1-1.7-0.4-2.4s-0.6-1.4-1.1-2
		c-0.5-0.5-1.1-1-1.8-1.3c-0.7-0.3-1.5-0.5-2.4-0.5c-0.9,0-1.7,0.2-2.4,0.5c-0.7,0.3-1.3,0.7-1.8,1.3c-0.5,0.5-0.9,1.2-1.1,2
		s-0.4,1.6-0.4,2.4c0,0.9,0.1,1.7,0.4,2.4s0.6,1.4,1.1,1.9c0.5,0.6,1.1,1,1.8,1.3c0.7,0.3,1.5,0.5,2.4,0.5c0.9,0,1.7-0.2,2.4-0.5
		c0.7-0.3,1.3-0.7,1.8-1.3c0.5-0.6,0.9-1.2,1.1-1.9S177.7,247,177.7,246.1z"/>
	<path class="st1" d="M203.5,241.1c-0.5-0.2-1-0.4-1.5-0.6s-1.1-0.2-1.8-0.2c-0.9,0-1.8,0.1-2.6,0.4s-1.5,0.7-2.1,1.2
		c-0.6,0.6-1.1,1.2-1.4,2.1c-0.3,0.8-0.5,1.8-0.5,2.9v4.7h4.2v3.8h-12.6v-3.8h4.3v-11.3h-4.3v-3.8h8.4v4.7c0.7-1.9,1.7-3.2,3-4
		c1.3-0.8,2.9-1.2,4.8-1.2c0.6,0,1.2,0.1,1.8,0.2c0.6,0.1,1.3,0.3,1.9,0.6L203.5,241.1z"/>
	<path class="st1" d="M226.7,249.5c-0.2,2-1,3.5-2.3,4.7s-3,1.7-5,1.7c-1.1,0-2.1-0.2-3-0.5c-0.9-0.4-1.7-0.9-2.3-1.5
		s-1.1-1.4-1.5-2.3c-0.4-0.9-0.5-1.9-0.5-3v-8.1h-4.3v-3.8h4.3v-7.5h4.2v7.5h7.9v3.8h-7.9v8.2c0,1.2,0.3,2.1,0.9,2.7
		s1.4,0.9,2.3,0.9c1.2,0,2.1-0.3,2.6-1c0.6-0.7,0.9-1.5,1-2.5L226.7,249.5z"/>
	<path class="st1" d="M249.1,240.4h-7.3v11.3h4.3v3.8h-12.6v-3.8h4.2v-11.3h-4.2v-3.8h4.2c0-2.6,0.8-4.6,2.4-5.9
		c1.6-1.4,3.7-2,6.4-2c0.4,0,0.8,0,1.3,0.1s0.9,0.1,1.4,0.1v3.7c-0.8-0.1-1.5-0.1-2.2-0.1c-1.1,0-1.9,0.1-2.6,0.2
		c-0.7,0.2-1.2,0.4-1.5,0.7c-0.4,0.3-0.6,0.8-0.8,1.3c-0.1,0.5-0.2,1.2-0.2,1.9h7.3V240.4z"/>
	<path class="st1" d="M272.1,246.1c0,1.5-0.2,2.8-0.7,4c-0.5,1.2-1.1,2.2-2,3.1s-1.9,1.5-3.1,2c-1.2,0.5-2.6,0.7-4.1,0.7
		c-1.5,0-2.8-0.2-4-0.7c-1.2-0.5-2.2-1.2-3.1-2c-0.9-0.9-1.5-1.9-2-3.1c-0.5-1.2-0.7-2.5-0.7-4c0-1.4,0.2-2.7,0.7-4
		c0.5-1.2,1.1-2.3,2-3.1c0.9-0.9,1.9-1.6,3.1-2c1.2-0.5,2.5-0.7,4-0.7c1.5,0,2.8,0.2,4.1,0.7c1.2,0.5,2.2,1.2,3.1,2
		c0.9,0.9,1.5,1.9,2,3.1C271.9,243.3,272.1,244.7,272.1,246.1z M267.9,246.1c0-0.8-0.1-1.7-0.4-2.4s-0.6-1.4-1.1-2
		c-0.5-0.5-1.1-1-1.8-1.3c-0.7-0.3-1.5-0.5-2.4-0.5c-0.9,0-1.7,0.2-2.4,0.5c-0.7,0.3-1.3,0.7-1.8,1.3c-0.5,0.5-0.9,1.2-1.1,2
		s-0.4,1.6-0.4,2.4c0,0.9,0.1,1.7,0.4,2.4s0.6,1.4,1.1,1.9c0.5,0.6,1.1,1,1.8,1.3c0.7,0.3,1.5,0.5,2.4,0.5c0.9,0,1.7-0.2,2.4-0.5
		c0.7-0.3,1.3-0.7,1.8-1.3c0.5-0.6,0.9-1.2,1.1-1.9S267.9,247,267.9,246.1z"/>
	<path class="st1" d="M291.2,255.5h-12.6v-3.8h4.1v-18.8h-4.1v-3.8h8.3v22.6h4.3V255.5z"/>
	<path class="st1" d="M313.7,255.5h-12.6v-3.8h4.2v-11.3h-4.2v-3.8h8.3v15h4.3V255.5z M309.9,234.2h-5.1v-5.1h5.1V234.2z"/>
	<path class="st1" d="M339.8,246.1c0,1.5-0.2,2.8-0.7,4c-0.5,1.2-1.1,2.2-2,3.1s-1.9,1.5-3.1,2c-1.2,0.5-2.6,0.7-4.1,0.7
		c-1.5,0-2.8-0.2-4-0.7c-1.2-0.5-2.2-1.2-3.1-2c-0.9-0.9-1.5-1.9-2-3.1c-0.5-1.2-0.7-2.5-0.7-4c0-1.4,0.2-2.7,0.7-4
		c0.5-1.2,1.1-2.3,2-3.1c0.9-0.9,1.9-1.6,3.1-2c1.2-0.5,2.5-0.7,4-0.7c1.5,0,2.8,0.2,4.1,0.7c1.2,0.5,2.2,1.2,3.1,2
		c0.9,0.9,1.5,1.9,2,3.1C339.5,243.3,339.8,244.7,339.8,246.1z M335.6,246.1c0-0.8-0.1-1.7-0.4-2.4s-0.6-1.4-1.1-2
		c-0.5-0.5-1.1-1-1.8-1.3c-0.7-0.3-1.5-0.5-2.4-0.5c-0.9,0-1.7,0.2-2.4,0.5c-0.7,0.3-1.3,0.7-1.8,1.3c-0.5,0.5-0.9,1.2-1.1,2
		s-0.4,1.6-0.4,2.4c0,0.9,0.1,1.7,0.4,2.4s0.6,1.4,1.1,1.9c0.5,0.6,1.1,1,1.8,1.3c0.7,0.3,1.5,0.5,2.4,0.5c0.9,0,1.7-0.2,2.4-0.5
		c0.7-0.3,1.3-0.7,1.8-1.3c0.5-0.6,0.9-1.2,1.1-1.9S335.6,247,335.6,246.1z"/>
	<path class="st1" d="M385.2,242.3c0,1.8-0.2,3.4-0.6,5c-0.4,1.6-1,3-1.8,4.2c-0.8,1.2-1.9,2.2-3.1,2.9c-1.3,0.7-2.8,1.1-4.6,1.1
		h-8.6v-26.3h8.6c1.8,0,3.3,0.4,4.6,1.1c1.3,0.7,2.3,1.7,3.1,2.9c0.8,1.2,1.4,2.6,1.8,4.2C385.1,238.9,385.2,240.5,385.2,242.3z
		 M381.1,242.3c0-3-0.5-5.4-1.6-7s-2.5-2.4-4.4-2.4h-4.4v18.8h4.4c1.9,0,3.4-0.8,4.4-2.5S381.1,245.3,381.1,242.3z"/>
	<path class="st1" d="M392,247.7c0.2,1.3,0.8,2.4,1.8,3.2c1,0.9,2.4,1.3,4.1,1.3c1.4,0,2.5-0.2,3.5-0.6s1.9-1,2.6-1.7l2.1,2.9
		c-1.2,1.2-2.5,2-3.8,2.5c-1.4,0.4-2.8,0.7-4.4,0.7c-1.5,0-2.8-0.2-4.1-0.7c-1.2-0.5-2.3-1.2-3.2-2c-0.9-0.9-1.6-1.9-2.1-3.1
		c-0.5-1.2-0.8-2.5-0.8-4c0-1.4,0.2-2.7,0.7-3.9c0.5-1.2,1.1-2.2,2-3.1c0.9-0.9,1.9-1.6,3.1-2.1c1.2-0.5,2.5-0.7,4-0.7
		c1.5,0,2.9,0.3,4.1,0.8s2.3,1.3,3.2,2.2s1.6,2.2,2.1,3.6c0.5,1.4,0.7,3,0.7,4.8H392z M403,244c-0.2-1.2-0.8-2.2-1.9-2.9
		c-1-0.7-2.2-1.1-3.5-1.1c-1.3,0-2.5,0.4-3.5,1.1c-1,0.7-1.7,1.7-1.9,2.9H403z"/>
	<path class="st1" d="M429,249.8c0,1.2-0.3,2.2-0.8,3c-0.6,0.8-1.3,1.4-2.1,1.9c-0.9,0.5-1.8,0.8-2.9,1c-1.1,0.2-2.1,0.3-3.1,0.3
		c-1.7,0-3.4-0.2-5.1-0.7c-1.7-0.5-3.2-1.1-4.4-1.9l1.7-3.4c1.5,0.9,2.8,1.5,4.1,1.8c1.2,0.4,2.5,0.5,3.7,0.5c1.7,0,2.9-0.2,3.7-0.5
		c0.8-0.4,1.1-0.9,1.1-1.5c0-0.3-0.1-0.6-0.3-0.8c-0.2-0.2-0.6-0.4-1.1-0.6c-0.5-0.2-1.2-0.3-2-0.5s-1.8-0.3-3-0.5
		c-1-0.2-1.9-0.4-2.8-0.6s-1.6-0.6-2.3-1c-0.7-0.4-1.2-1-1.6-1.6c-0.4-0.7-0.6-1.5-0.6-2.5c0-1,0.3-1.9,0.8-2.6
		c0.5-0.7,1.2-1.4,2-1.8c0.8-0.5,1.8-0.8,2.8-1s2.1-0.3,3.1-0.3c1.5,0,2.9,0.2,4.3,0.6c1.4,0.4,2.6,0.9,3.7,1.6l-1.7,3.2
		c-1-0.7-2.1-1.1-3.1-1.3s-2.1-0.4-3.3-0.4c-0.5,0-1,0-1.6,0.1c-0.5,0.1-1,0.2-1.5,0.3c-0.5,0.2-0.8,0.4-1.1,0.6
		c-0.3,0.3-0.5,0.6-0.5,1c0,0.5,0.4,0.9,1.3,1.2c0.9,0.3,2.4,0.6,4.5,0.9c1.2,0.2,2.2,0.4,3.2,0.6c1,0.2,1.8,0.6,2.5,1
		c0.7,0.4,1.2,1,1.6,1.6C428.8,248,429,248.9,429,249.8z"/>
	<path class="st1" d="M449,255.5h-12.6v-3.8h4.2v-11.3h-4.2v-3.8h8.3v15h4.3V255.5z M445.2,234.2h-5.1v-5.1h5.1V234.2z"/>
	<path class="st1" d="M473.6,255.3c0,1.3-0.2,2.4-0.7,3.4c-0.4,1-1.1,1.9-1.9,2.6c-0.8,0.7-1.7,1.2-2.8,1.6
		c-1.1,0.4-2.3,0.6-3.6,0.6c-3.3,0-6.1-1-8.4-3l2-3.2c1.9,1.7,4.1,2.5,6.4,2.5c1.4,0,2.6-0.4,3.5-1.1s1.3-1.8,1.3-3.3v-2
		c-0.9,0.7-1.7,1.3-2.5,1.6c-0.8,0.4-1.7,0.5-2.8,0.5c-1.2,0-2.3-0.3-3.4-0.8c-1-0.5-1.9-1.2-2.7-2.1s-1.3-1.9-1.8-3.1
		c-0.4-1.2-0.6-2.4-0.6-3.7c0-1.3,0.2-2.6,0.6-3.7c0.4-1.2,1-2.2,1.8-3.1s1.6-1.6,2.7-2.1c1-0.5,2.2-0.8,3.4-0.8c1,0,2,0.2,2.8,0.5
		c0.8,0.4,1.6,0.9,2.4,1.6v-1.7h4.2V255.3z M469.4,241.7c-0.5-0.6-1.1-1-1.9-1.3c-0.8-0.3-1.5-0.4-2.3-0.4c-1.6,0-2.8,0.6-3.8,1.7
		c-1,1.1-1.5,2.5-1.5,4.2c0,0.8,0.1,1.6,0.4,2.3c0.3,0.7,0.6,1.3,1.1,1.9s1,0.9,1.7,1.2s1.4,0.5,2.1,0.5c0.7,0,1.5-0.2,2.3-0.5
		c0.8-0.3,1.4-0.7,1.9-1.3V241.7z"/>
	<path class="st1" d="M496.1,255.5H492v-11.6c0-1.5-0.3-2.5-0.8-3c-0.6-0.6-1.4-0.8-2.4-0.8c-1.5,0-2.8,0.6-3.8,1.9
		c-1,1.3-1.5,3-1.5,5.2v8.4h-4.2v-18.8h4.2v4.7c0.4-1.6,1.2-2.9,2.3-3.8c1.1-0.9,2.5-1.4,4.2-1.4c1.9,0,3.4,0.6,4.5,1.9
		c1.1,1.2,1.6,3.2,1.6,5.8V255.5z"/>
	<path class="st1" d="M159.3,297c-0.3,1.3-0.8,2.5-1.3,3.5c-0.5,1-1.2,1.9-2,2.7c-0.8,0.7-1.7,1.3-2.7,1.7c-1,0.4-2.2,0.6-3.5,0.6
		c-1.8,0-3.4-0.4-4.7-1.1c-1.3-0.8-2.3-1.8-3.1-3c-0.8-1.3-1.4-2.7-1.8-4.4c-0.4-1.6-0.5-3.3-0.5-5.1s0.2-3.5,0.5-5.1
		c0.4-1.6,0.9-3.1,1.7-4.3c0.8-1.3,1.8-2.3,3.1-3s2.8-1.1,4.5-1.1c0.6,0,1.2,0.1,1.8,0.2c0.6,0.1,1.1,0.4,1.7,0.7s1,0.7,1.3,1.1
		c0.4,0.4,0.7,1,0.8,1.5v-3.1h3.8v10h-3.8c0-0.8-0.1-1.6-0.3-2.4s-0.5-1.5-1-2.1c-0.4-0.6-1-1.1-1.7-1.5c-0.7-0.4-1.5-0.6-2.4-0.6
		c-1.2,0-2.2,0.3-2.9,0.9s-1.4,1.3-1.8,2.3s-0.8,2-1,3.2c-0.2,1.2-0.3,2.3-0.3,3.5s0.1,2.4,0.3,3.6c0.2,1.2,0.5,2.2,0.9,3.2
		c0.4,0.9,1,1.7,1.8,2.3c0.8,0.6,1.7,0.9,2.9,0.9c1.7,0,3-0.5,3.9-1.6c0.9-1.1,1.7-2.6,2.2-4.4L159.3,297z"/>
	<path class="st1" d="M162.5,299.6c0-1.1,0.3-2.1,0.9-2.9s1.4-1.5,2.3-2.1s2.1-1,3.3-1.2c1.2-0.3,2.5-0.4,3.8-0.4c0.7,0,1.3,0,1.8,0
		c0.5,0,1,0.1,1.6,0.1v-0.7c0-1-0.4-1.7-1.1-2.2s-1.8-0.7-3-0.7c-1.1,0-2.3,0.2-3.4,0.5c-1.2,0.3-2.3,0.8-3.3,1.4l-1.7-3.3
		c1.2-0.7,2.6-1.3,4-1.7c1.4-0.4,2.9-0.6,4.5-0.6c1,0,2,0.1,3,0.3s1.9,0.6,2.7,1.1c0.8,0.5,1.4,1.2,1.9,2c0.5,0.8,0.7,1.9,0.7,3.1
		V305h-4.1v-2.8c-0.7,1-1.6,1.8-2.9,2.4s-2.7,0.9-4.1,0.9c-0.9,0-1.8-0.1-2.6-0.4s-1.5-0.6-2.1-1.1c-0.6-0.5-1.1-1.1-1.4-1.8
		C162.7,301.4,162.5,300.6,162.5,299.6z M170.3,301.7c0.8,0,1.6-0.1,2.3-0.3c0.7-0.2,1.4-0.5,1.9-0.9s1-0.8,1.3-1.3
		c0.3-0.5,0.5-1.1,0.5-1.7v-0.7c-0.7-0.1-1.3-0.2-1.9-0.2c-0.6,0-1.1,0-1.5,0c-2,0-3.6,0.3-4.6,0.8c-1,0.5-1.6,1.2-1.6,2
		C166.7,301,167.9,301.7,170.3,301.7z"/>
	<path class="st1" d="M203.5,299.4c0,1.2-0.3,2.2-0.8,3c-0.6,0.8-1.3,1.4-2.1,1.9c-0.9,0.5-1.8,0.8-2.9,1c-1.1,0.2-2.1,0.3-3.1,0.3
		c-1.7,0-3.4-0.2-5.1-0.7c-1.7-0.5-3.2-1.1-4.4-1.9l1.7-3.4c1.5,0.9,2.8,1.5,4.1,1.8s2.5,0.5,3.7,0.5c1.7,0,2.9-0.2,3.7-0.5
		c0.8-0.4,1.1-0.9,1.1-1.5c0-0.3-0.1-0.6-0.3-0.8c-0.2-0.2-0.6-0.4-1.1-0.6c-0.5-0.2-1.2-0.3-2-0.5c-0.8-0.2-1.8-0.3-3-0.5
		c-1-0.2-1.9-0.4-2.8-0.6c-0.9-0.2-1.6-0.6-2.3-1c-0.7-0.4-1.2-1-1.6-1.6s-0.6-1.5-0.6-2.5c0-1,0.3-1.9,0.8-2.6
		c0.5-0.7,1.2-1.4,2-1.8c0.8-0.5,1.8-0.8,2.8-1s2.1-0.3,3.1-0.3c1.5,0,2.9,0.2,4.3,0.6c1.4,0.4,2.6,0.9,3.7,1.6l-1.7,3.2
		c-1-0.7-2.1-1.1-3.1-1.3s-2.1-0.4-3.3-0.4c-0.5,0-1,0-1.6,0.1c-0.5,0.1-1,0.2-1.5,0.3c-0.5,0.2-0.8,0.4-1.1,0.6
		c-0.3,0.3-0.5,0.6-0.5,1c0,0.5,0.4,0.9,1.3,1.2c0.9,0.3,2.4,0.6,4.5,0.9c1.2,0.2,2.2,0.4,3.2,0.6c1,0.2,1.8,0.6,2.5,1
		c0.7,0.4,1.2,1,1.6,1.6C203.3,297.6,203.5,298.4,203.5,299.4z"/>
	<path class="st1" d="M211.6,297.2c0.2,1.3,0.8,2.4,1.8,3.2c1,0.9,2.4,1.3,4.1,1.3c1.4,0,2.5-0.2,3.5-0.6c1-0.4,1.9-1,2.6-1.7
		l2.1,2.9c-1.2,1.2-2.5,2-3.8,2.5c-1.4,0.4-2.8,0.7-4.4,0.7c-1.5,0-2.8-0.2-4.1-0.7c-1.3-0.5-2.3-1.2-3.2-2
		c-0.9-0.9-1.6-1.9-2.1-3.1c-0.5-1.2-0.8-2.5-0.8-4c0-1.4,0.2-2.7,0.7-3.9s1.1-2.2,2-3.1s1.9-1.6,3.1-2.1c1.2-0.5,2.5-0.7,4-0.7
		c1.5,0,2.9,0.3,4.1,0.8c1.2,0.5,2.3,1.3,3.2,2.2c0.9,1,1.6,2.2,2.1,3.6c0.5,1.4,0.7,3,0.7,4.8H211.6z M222.6,293.6
		c-0.2-1.2-0.8-2.2-1.9-2.9c-1-0.7-2.2-1.1-3.5-1.1c-1.3,0-2.5,0.4-3.6,1.1c-1,0.7-1.7,1.7-1.9,2.9H222.6z"/>
	<path class="st1" d="M271,297.8c0,1.2-0.2,2.3-0.6,3.2s-1,1.8-1.7,2.4c-0.7,0.7-1.5,1.2-2.5,1.5c-1,0.3-2,0.5-3.1,0.5
		c-1.2,0-2.4-0.2-3.3-0.7c-1-0.4-1.8-1.2-2.6-2.2v2.4h-3.8v-8.6h3.8c0,0.9,0.2,1.6,0.5,2.3c0.3,0.7,0.7,1.2,1.2,1.7
		c0.5,0.5,1.1,0.8,1.7,1s1.4,0.4,2.1,0.4c1.3,0,2.3-0.3,3-0.9c0.8-0.6,1.1-1.5,1.1-2.8c0-0.7-0.1-1.2-0.4-1.7
		c-0.2-0.5-0.6-0.9-1-1.3c-0.4-0.4-1-0.7-1.6-1c-0.6-0.3-1.4-0.6-2.2-0.9c-1-0.3-1.9-0.7-2.9-1.1c-1-0.4-1.8-0.9-2.6-1.5
		c-0.8-0.6-1.4-1.3-1.8-2.2c-0.5-0.9-0.7-2-0.7-3.3c0-1.2,0.2-2.2,0.6-3c0.4-0.9,1-1.6,1.7-2.2c0.7-0.6,1.5-1,2.5-1.3
		c0.9-0.3,1.9-0.5,3-0.5c1.2,0,2.2,0.3,3.1,0.8s1.5,1.2,2,2v-2.4h3.8v8.2h-3.8c0-1.5-0.4-2.8-1.2-3.6c-0.8-0.9-1.9-1.3-3.3-1.3
		c-1.2,0-2.2,0.3-3,0.8c-0.8,0.6-1.2,1.4-1.2,2.4c0,0.5,0.1,1,0.3,1.3c0.2,0.4,0.5,0.7,0.9,1s0.9,0.6,1.5,0.8
		c0.6,0.3,1.3,0.5,2.1,0.9c1,0.4,2,0.7,3,1.2s1.9,1,2.6,1.6s1.4,1.4,1.9,2.3C270.7,295.4,271,296.5,271,297.8z"/>
	<path class="st1" d="M294.4,299.1c-0.2,2-1,3.5-2.3,4.7s-3,1.7-5,1.7c-1.1,0-2.1-0.2-3-0.5c-0.9-0.4-1.7-0.9-2.3-1.5
		s-1.1-1.4-1.5-2.3c-0.4-0.9-0.5-1.9-0.5-3V290h-4.3v-3.8h4.3v-7.5h4.2v7.5h7.9v3.8h-7.9v8.2c0,1.2,0.3,2.1,0.9,2.7s1.4,0.9,2.3,0.9
		c1.2,0,2.1-0.3,2.6-1c0.6-0.7,0.9-1.5,1-2.5L294.4,299.1z"/>
	<path class="st1" d="M298.9,286.2h4.2v11.6c0,1.5,0.3,2.5,0.8,3c0.6,0.6,1.4,0.8,2.4,0.8c1.5,0,2.8-0.6,3.8-1.9
		c1-1.3,1.5-3,1.5-5.2v-8.4h4.2V305h-4.2v-4.7c-0.4,1.6-1.2,2.9-2.3,3.8c-1.1,0.9-2.5,1.4-4.2,1.4c-1.9,0-3.4-0.6-4.5-1.9
		c-1.1-1.3-1.6-3.2-1.6-5.8V286.2z"/>
	<path class="st1" d="M338.3,305h-4.2v-1.7c-0.8,0.7-1.6,1.3-2.4,1.6s-1.8,0.6-2.8,0.6c-1.2,0-2.3-0.2-3.4-0.7c-1-0.5-1.9-1.2-2.7-2
		c-0.7-0.9-1.3-1.9-1.8-3.1c-0.4-1.2-0.6-2.5-0.6-4c0-1.4,0.2-2.7,0.6-4c0.4-1.2,1-2.3,1.8-3.1c0.7-0.9,1.6-1.5,2.7-2
		c1-0.5,2.2-0.7,3.4-0.7c1,0,2,0.2,2.8,0.5c0.8,0.4,1.6,0.9,2.4,1.6v-5.5h-3.6v-3.8h7.8V305z M334.1,291.2c-0.5-0.6-1.1-1-1.9-1.3
		c-0.8-0.3-1.5-0.4-2.2-0.4c-1.6,0-2.9,0.6-3.8,1.7c-1,1.1-1.5,2.6-1.5,4.4s0.5,3.3,1.5,4.4s2.3,1.7,3.8,1.7c0.7,0,1.5-0.1,2.2-0.4
		c0.8-0.3,1.4-0.7,1.9-1.3V291.2z"/>
	<path class="st1" d="M358.8,305h-12.6v-3.8h4.2V290h-4.2v-3.8h8.3v15h4.3V305z M355,283.8h-5.1v-5.1h5.1V283.8z"/>
	<path class="st1" d="M369.4,297.2c0.2,1.3,0.8,2.4,1.8,3.2c1,0.9,2.4,1.3,4.1,1.3c1.4,0,2.5-0.2,3.5-0.6s1.9-1,2.6-1.7l2.1,2.9
		c-1.2,1.2-2.5,2-3.8,2.5c-1.4,0.4-2.8,0.7-4.4,0.7c-1.5,0-2.8-0.2-4.1-0.7c-1.2-0.5-2.3-1.2-3.2-2c-0.9-0.9-1.6-1.9-2.1-3.1
		c-0.5-1.2-0.8-2.5-0.8-4c0-1.4,0.2-2.7,0.7-3.9c0.5-1.2,1.1-2.2,2-3.1c0.9-0.9,1.9-1.6,3.1-2.1c1.2-0.5,2.5-0.7,4-0.7
		c1.5,0,2.9,0.3,4.1,0.8s2.3,1.3,3.2,2.2s1.6,2.2,2.1,3.6c0.5,1.4,0.7,3,0.7,4.8H369.4z M380.4,293.6c-0.2-1.2-0.8-2.2-1.9-2.9
		c-1-0.7-2.2-1.1-3.5-1.1c-1.3,0-2.5,0.4-3.5,1.1c-1,0.7-1.7,1.7-1.9,2.9H380.4z"/>
	<path class="st1" d="M406.4,299.4c0,1.2-0.3,2.2-0.8,3c-0.6,0.8-1.3,1.4-2.1,1.9c-0.9,0.5-1.8,0.8-2.9,1c-1.1,0.2-2.1,0.3-3.1,0.3
		c-1.7,0-3.4-0.2-5.1-0.7c-1.7-0.5-3.2-1.1-4.4-1.9l1.7-3.4c1.5,0.9,2.8,1.5,4.1,1.8c1.2,0.4,2.5,0.5,3.7,0.5c1.7,0,2.9-0.2,3.7-0.5
		c0.8-0.4,1.1-0.9,1.1-1.5c0-0.3-0.1-0.6-0.3-0.8c-0.2-0.2-0.6-0.4-1.1-0.6c-0.5-0.2-1.2-0.3-2-0.5s-1.8-0.3-3-0.5
		c-1-0.2-1.9-0.4-2.8-0.6s-1.6-0.6-2.3-1c-0.7-0.4-1.2-1-1.6-1.6c-0.4-0.7-0.6-1.5-0.6-2.5c0-1,0.3-1.9,0.8-2.6
		c0.5-0.7,1.2-1.4,2-1.8c0.8-0.5,1.8-0.8,2.8-1s2.1-0.3,3.1-0.3c1.5,0,2.9,0.2,4.3,0.6c1.4,0.4,2.6,0.9,3.7,1.6l-1.7,3.2
		c-1-0.7-2.1-1.1-3.1-1.3s-2.1-0.4-3.3-0.4c-0.5,0-1,0-1.6,0.1c-0.5,0.1-1,0.2-1.5,0.3c-0.5,0.2-0.8,0.4-1.1,0.6
		c-0.3,0.3-0.5,0.6-0.5,1c0,0.5,0.4,0.9,1.3,1.2c0.9,0.3,2.4,0.6,4.5,0.9c1.2,0.2,2.2,0.4,3.2,0.6c1,0.2,1.8,0.6,2.5,1
		c0.7,0.4,1.2,1,1.6,1.6C406.2,297.6,406.4,298.4,406.4,299.4z"/>
</g>
</svg>
