<?xml version="1.0" encoding="utf-8"?>
<!-- Generator: Adobe Illustrator 24.1.2, SVG Export Plug-In . SVG Version: 6.00 Build 0)  -->
<svg version="1.1" id="Layer_1" xmlns="http://www.w3.org/2000/svg" xmlns:xlink="http://www.w3.org/1999/xlink" x="0px" y="0px"
	 viewBox="0 0 708.5 420.9" style="enable-background:new 0 0 708.5 420.9;" xml:space="preserve">
<style type="text/css">
	.st0{fill:#374550;}
	.st1{fill:#FFFFFF;}
</style>
<path class="st0" d="M455.4,190.3c-36.9-38-71.4-78.5-111.5-113.1c-40-34.7-86.7-63.7-138.7-73.7S95.2,4.9,57.3,41.8
	C27.1,71.2,12.4,113.1,4.9,154.6c-5.5,30.5-7.6,62.3,0.4,92.3c17.8,66.8,83.2,112,150.5,127.7s137.6,7.6,206.6,2.3
	s140.7-7.3,204.5,19.2c29,12.1,58.9,30.2,89.6,23.3c34.8-7.9,55.2-47.6,51.6-83.1s-25.6-66.5-50.3-92.2
	c-49.7-51.6-117.5-90.4-189.1-88.3c-20.6,0.6-46.5,11-45.2,31.5"/>
<g>
	<path class="st1" d="M171.4,253c1.8,0,3.4,0.4,4.7,1s2.4,1.5,3.1,2.6c0.7,1.1,1.1,2.5,1.1,4.2c0,1.7-0.4,3.1-1.1,4.2
		c-0.7,1.1-1.8,2-3.1,2.6s-2.9,1-4.7,1h-5.1v8.6h-5.1V253H171.4L171.4,253z M170.7,264.5c1.5,0,2.6-0.4,3.4-1
		c0.8-0.6,1.1-1.6,1.1-2.8c0-1.2-0.4-2.2-1.1-2.9c-0.8-0.6-1.9-1-3.4-1h-4.3v7.6L170.7,264.5L170.7,264.5z"/>
	<path class="st1" d="M192.3,258.5c1.8,0,3.5,0.4,4.9,1.1c1.4,0.8,2.5,1.8,3.3,3.2c0.8,1.4,1.2,3.2,1.2,5.1c0,2-0.4,3.7-1.2,5.1
		c-0.8,1.4-1.9,2.5-3.3,3.2c-1.4,0.8-3.1,1.1-4.9,1.1c-1.8,0-3.4-0.4-4.8-1.1c-1.4-0.8-2.5-1.8-3.3-3.2c-0.8-1.4-1.2-3.2-1.2-5.1
		c0-2,0.4-3.7,1.2-5.1c0.8-1.4,1.9-2.5,3.3-3.2C188.8,258.8,190.4,258.5,192.3,258.5z M192.3,262.2c-1,0-1.8,0.2-2.4,0.6
		c-0.6,0.4-1.1,1.1-1.5,1.9s-0.5,1.9-0.5,3.2s0.2,2.4,0.5,3.2c0.4,0.9,0.9,1.5,1.5,1.9c0.6,0.4,1.4,0.6,2.4,0.6
		c0.9,0,1.7-0.2,2.3-0.6c0.6-0.4,1.1-1.1,1.5-1.9c0.4-0.9,0.5-1.9,0.5-3.2s-0.2-2.4-0.5-3.2c-0.3-0.8-0.9-1.5-1.5-1.9
		C193.9,262.4,193.1,262.2,192.3,262.2z"/>
	<path class="st1" d="M205.8,277.1v-18.2h4.4l0.4,3.6c0.5-1.2,1.2-2.3,2.1-2.9c1-0.7,2.1-1.1,3.5-1.1c0.4,0,0.8,0,1.1,0.1
		c0.4,0.1,0.6,0.2,0.9,0.3l-0.6,4.2c-0.3-0.1-0.5-0.2-0.9-0.2c-0.4-0.1-0.8-0.1-1.4-0.1c-0.7,0-1.4,0.2-2.1,0.5
		c-0.7,0.4-1.2,0.9-1.7,1.6c-0.4,0.7-0.7,1.7-0.7,2.7v9.5L205.8,277.1L205.8,277.1z"/>
	<path class="st1" d="M232.8,258.8v3.8h-14.2v-3.8H232.8z M227,253.2v17.9c0,0.9,0.3,1.5,0.7,1.9c0.4,0.4,1.1,0.6,1.8,0.6
		c0.6,0,1.1-0.1,1.6-0.3c0.4-0.2,0.9-0.4,1.2-0.8l0.8,3.3c-0.6,0.4-1.3,0.8-2.2,1.1c-0.9,0.3-1.8,0.4-2.8,0.4
		c-1.2,0-2.3-0.2-3.2-0.5c-1-0.4-1.7-1-2.2-1.8c-0.5-0.8-0.8-1.8-0.8-3.2v-17.3L227,253.2z"/>
	<path class="st1" d="M247.6,258.8v3.8h-13.8v-3.8H247.6z M244,250.5c0.9,0,1.7,0.1,2.3,0.3c0.7,0.2,1.2,0.4,1.6,0.7l-0.7,3.3
		c-0.3-0.2-0.6-0.3-0.9-0.4c-0.4-0.1-0.7-0.2-1.2-0.2c-1,0-1.7,0.2-2.3,0.6c-0.5,0.4-0.9,1.1-0.9,2.2v2.5l0.2,1v16.6h-5v-20.4
		c0-1.1,0.2-1.9,0.5-2.7c0.4-0.8,0.8-1.4,1.4-1.9c0.6-0.5,1.3-0.9,2.2-1.1S243,250.5,244,250.5z"/>
	<path class="st1" d="M258.7,258.5c1.8,0,3.5,0.4,4.9,1.1c1.4,0.8,2.5,1.8,3.3,3.2c0.8,1.4,1.2,3.2,1.2,5.1c0,2-0.4,3.7-1.2,5.1
		c-0.8,1.4-1.9,2.5-3.3,3.2c-1.4,0.8-3.1,1.1-4.9,1.1s-3.4-0.4-4.8-1.1c-1.4-0.8-2.5-1.8-3.3-3.2c-0.8-1.4-1.2-3.2-1.2-5.1
		c0-2,0.4-3.7,1.2-5.1c0.8-1.4,1.9-2.5,3.3-3.2C255.3,258.8,256.8,258.5,258.7,258.5z M258.7,262.2c-1,0-1.8,0.2-2.4,0.6
		c-0.6,0.4-1.1,1.1-1.5,1.9s-0.5,1.9-0.5,3.2s0.2,2.4,0.5,3.2c0.4,0.9,0.9,1.5,1.5,1.9c0.6,0.4,1.4,0.6,2.4,0.6
		c0.9,0,1.7-0.2,2.3-0.6c0.6-0.4,1.1-1.1,1.5-1.9c0.4-0.9,0.5-1.9,0.5-3.2s-0.2-2.4-0.5-3.2c-0.4-0.9-0.9-1.5-1.5-1.9
		C260.3,262.4,259.5,262.2,258.7,262.2z"/>
	<path class="st1" d="M277.2,250.9v20.7c0,0.9,0.2,1.5,0.4,1.8c0.3,0.4,0.8,0.5,1.5,0.5c0.4,0,0.8,0,1.1-0.1
		c0.3-0.1,0.6-0.2,1.1-0.3l-0.4,3.3c-0.4,0.3-1,0.4-1.6,0.5c-0.6,0.2-1.2,0.2-1.8,0.2c-1.8,0-3.1-0.4-3.9-1.3s-1.2-2.3-1.2-4.1
		v-21.2L277.2,250.9L277.2,250.9z"/>
	<path class="st1" d="M286.4,256.2c-1.1,0-1.8-0.3-2.4-0.7c-0.5-0.4-0.8-1.1-0.8-2s0.3-1.6,0.8-2s1.3-0.7,2.4-0.7s1.8,0.3,2.4,0.7
		c0.5,0.4,0.8,1.1,0.8,2s-0.3,1.6-0.8,2C288.2,255.9,287.4,256.2,286.4,256.2z M288.9,258.8V277h-5v-18.2H288.9z"/>
	<path class="st1" d="M302.5,258.5c1.8,0,3.5,0.4,4.9,1.1c1.4,0.8,2.5,1.8,3.3,3.2c0.8,1.4,1.2,3.2,1.2,5.1c0,2-0.4,3.7-1.2,5.1
		c-0.8,1.4-1.9,2.5-3.3,3.2c-1.4,0.8-3.1,1.1-4.9,1.1s-3.4-0.4-4.8-1.1c-1.4-0.8-2.5-1.8-3.3-3.2c-0.8-1.4-1.2-3.2-1.2-5.1
		c0-2,0.4-3.7,1.2-5.1c0.8-1.4,1.9-2.5,3.3-3.2C299.1,258.8,300.6,258.5,302.5,258.5z M302.5,262.2c-1,0-1.8,0.2-2.4,0.6
		c-0.6,0.4-1.1,1.1-1.5,1.9s-0.5,1.9-0.5,3.2s0.2,2.4,0.5,3.2c0.4,0.9,0.9,1.5,1.5,1.9c0.6,0.4,1.4,0.6,2.4,0.6
		c0.9,0,1.7-0.2,2.3-0.6c0.6-0.4,1.1-1.1,1.5-1.9c0.4-0.9,0.5-1.9,0.5-3.2s-0.2-2.4-0.5-3.2c-0.3-0.8-0.9-1.5-1.5-1.9
		C304.1,262.4,303.4,262.2,302.5,262.2z"/>
	<path class="st1" d="M337.1,253c3.8,0,6.7,1.1,8.8,3.2c2.1,2.1,3.1,5.1,3.1,8.9s-1.1,6.8-3.1,8.9c-2.1,2.1-5,3.2-8.8,3.2h-9.3V253
		H337.1L337.1,253z M336.8,273.1c2.3,0,4-0.7,5.2-2.1c1.1-1.4,1.8-3.3,1.8-6s-0.6-4.6-1.8-6c-1.1-1.4-2.9-2.1-5.2-2.1h-4v16
		L336.8,273.1L336.8,273.1z"/>
	<path class="st1" d="M362,277.5c-1.9,0-3.6-0.4-5-1.1c-1.4-0.8-2.5-1.8-3.3-3.2c-0.8-1.4-1.1-3.2-1.1-5.1c0-2,0.4-3.7,1.1-5.1
		c0.8-1.4,1.8-2.5,3.2-3.2c1.4-0.8,3-1.1,4.8-1.1s3.4,0.4,4.7,1.1c1.3,0.7,2.3,1.8,3,3.1s1.1,2.7,1.1,4.4c0,0.5,0,1,0,1.4
		s-0.1,0.8-0.1,1.1h-14.5v-3.5h12.4l-2.5,0.9c0-1.6-0.4-2.7-1.1-3.5s-1.7-1.2-3-1.2c-1,0-1.8,0.2-2.4,0.7c-0.7,0.4-1.1,1.1-1.5,1.9
		c-0.4,0.9-0.5,1.9-0.5,3.2c0,1.3,0.2,2.4,0.5,3.2c0.4,0.9,0.9,1.5,1.6,1.8c0.7,0.4,1.5,0.6,2.5,0.6s1.9-0.2,2.6-0.6
		c0.7-0.4,1.1-1,1.6-1.8l3.9,1.6c-0.4,1-1,1.8-1.8,2.5s-1.8,1.2-2.8,1.6C364.3,277.3,363.2,277.5,362,277.5z"/>
	<path class="st1" d="M382,277.5c-1.8,0-3.5-0.4-5.1-1c-1.5-0.7-2.7-1.6-3.7-2.8l2.9-2.9c0.6,0.9,1.4,1.6,2.4,2.2
		c1,0.5,2.1,0.9,3.5,0.9c1,0,1.8-0.2,2.3-0.4c0.6-0.3,0.9-0.7,0.9-1.3c0-0.4-0.2-0.7-0.4-1c-0.2-0.3-0.8-0.5-1.6-0.7l-3.2-0.7
		c-2.1-0.4-3.6-1.1-4.5-2c-0.9-0.9-1.3-2-1.3-3.4c0-1,0.3-1.9,0.9-2.8s1.5-1.6,2.7-2.1s2.7-0.8,4.5-0.8s3.4,0.3,4.7,0.9
		c1.3,0.6,2.5,1.4,3.2,2.5l-3,2.9c-0.5-0.9-1.2-1.5-2.1-1.9c-0.9-0.4-1.8-0.7-2.7-0.7c-0.7,0-1.2,0.1-1.8,0.2
		c-0.6,0.1-0.9,0.4-1.1,0.6c-0.3,0.3-0.4,0.6-0.4,1c0,0.4,0.2,0.7,0.5,1c0.4,0.3,1,0.5,1.8,0.7l3.8,0.8c1.8,0.4,3.1,1,3.9,1.8
		c0.8,0.9,1.1,1.9,1.1,3.2c0,1.1-0.4,2.2-1,3.2c-0.6,0.9-1.6,1.7-2.7,2.2C385.4,277.4,383.7,277.5,382,277.5z"/>
	<path class="st1" d="M396.6,256.2c-1.1,0-1.8-0.3-2.4-0.7c-0.5-0.4-0.8-1.1-0.8-2s0.3-1.6,0.8-2s1.3-0.7,2.4-0.7s1.8,0.3,2.4,0.7
		c0.5,0.4,0.8,1.1,0.8,2s-0.3,1.6-0.8,2C398.4,255.9,397.6,256.2,396.6,256.2z M399,258.8V277h-5v-18.2H399z"/>
	<path class="st1" d="M415.2,273.6c2,0,3.5,0.4,4.6,1.3c1.1,0.9,1.6,2,1.6,3.6c0,1.4-0.4,2.5-1.2,3.5c-0.8,1-1.9,1.7-3.4,2.2
		s-3.2,0.7-5,0.7c-3.2,0-5.4-0.4-6.9-1.3s-2.2-2-2.2-3.4c0-1,0.4-1.8,1.1-2.5s2-1.1,3.9-1.1l-0.2,0.6c-1.2-0.2-2.2-0.6-2.9-1.2
		s-1-1.5-1-2.5c0-1.1,0.4-2,1.3-2.7c0.9-0.7,2-1.1,3.5-1.2l2.2,1.1H410c-1.1,0.1-1.8,0.3-2.2,0.6c-0.4,0.4-0.6,0.8-0.6,1.2
		c0,0.5,0.2,0.9,0.6,1.1c0.4,0.3,1,0.4,1.8,0.4h5.6L415.2,273.6L415.2,273.6z M411.8,258.5c1.7,0,3.2,0.3,4.5,0.8
		c1.2,0.5,2.2,1.2,2.9,2.1c0.7,0.9,1,2,1,3.3c0,1.2-0.4,2.4-1,3.3c-0.7,1-1.7,1.7-2.9,2.1c-1.2,0.5-2.7,0.8-4.5,0.8
		c-2.7,0-4.7-0.5-6.2-1.7c-1.4-1.1-2.1-2.6-2.1-4.5c0-1.3,0.4-2.4,1-3.3c0.7-1,1.7-1.7,2.9-2.1C408.6,258.7,410.1,258.5,411.8,258.5
		z M411.8,281.5c1.2,0,2.3-0.1,3.2-0.4c0.8-0.3,1.4-0.5,1.8-0.9s0.6-0.7,0.6-1.1s-0.2-0.9-0.5-1.1c-0.4-0.3-1.1-0.4-2-0.4h-6.1
		c-0.6,0-1.1,0.2-1.4,0.4c-0.4,0.3-0.5,0.7-0.5,1.2c0,0.7,0.4,1.2,1.4,1.6C408.9,281.3,410.2,281.5,411.8,281.5z M411.8,261.6
		c-1,0-1.8,0.3-2.5,0.8s-1,1.3-1,2.2s0.4,1.7,1,2.3c0.6,0.5,1.4,0.8,2.5,0.8c1,0,1.8-0.3,2.4-0.8s1-1.3,1-2.3s-0.4-1.7-1-2.2
		C413.6,261.9,412.8,261.6,411.8,261.6z M421.2,254.5l0.6,3.6c-0.1,0-0.2,0-0.4,0c-0.1,0-0.3,0-0.4,0c-1.1,0-1.9,0.3-2.5,0.8
		c-0.5,0.5-0.9,1.2-0.9,2.1l-2-0.9c0-1,0.2-1.8,0.6-2.7s1-1.5,1.8-2s1.7-0.8,2.7-0.8c0.1,0,0.1,0,0.2,0
		C421,254.5,421.1,254.5,421.2,254.5z"/>
	<path class="st1" d="M424.4,277.1v-18.2h4.5l0.3,5.5l-0.6-0.6c0.3-1.2,0.8-2.2,1.4-3c0.6-0.8,1.4-1.3,2.3-1.8
		c0.9-0.4,1.9-0.5,3-0.5c1.2,0,2.4,0.3,3.4,0.7c1,0.5,1.8,1.2,2.4,2.2s0.9,2.2,0.9,3.7v12h-5v-10.5c0-1.6-0.3-2.6-0.9-3.2
		c-0.6-0.6-1.4-0.9-2.4-0.9c-0.7,0-1.3,0.2-2,0.5c-0.6,0.4-1.1,0.9-1.6,1.6c-0.4,0.7-0.6,1.7-0.6,2.9v9.6L424.4,277.1L424.4,277.1z"
		/>
</g>
</svg>
