<?xml version="1.0" encoding="utf-8"?>
<!-- Generator: Adobe Illustrator 25.0.1, SVG Export Plug-In . SVG Version: 6.00 Build 0)  -->
<svg version="1.1" id="Layer_1" xmlns="http://www.w3.org/2000/svg" xmlns:xlink="http://www.w3.org/1999/xlink" x="0px" y="0px"
	 viewBox="0 0 800 800" style="enable-background:new 0 0 800 800;" xml:space="preserve">
<style type="text/css">
	.st0{fill:#BF271B;}
	.st1{fill:#346C63;}
</style>
<rect x="-0.1" class="st0" width="800.9" height="800.9"/>
<g>
	<path class="st1" d="M386,82c-76-8.3-100.9-1.1-168.9,33.6C130.4,159.7,73.3,253.8,67.6,350.9s37.6,194.5,109.1,260.5
		s169,101.1,266.3,102.9c67.6,1.2,139.9-15.5,185.4-65.5c50.5-55.4,56.7-137.6,51.6-212.4c-3.3-48.4-11-98.6-39.1-138.1
		c-19.2-27-46.4-47-73.2-66.5c-41.5-30.2-82.9-60.4-124.4-90.6c-29.3-21.4-6.2-43.3-57.3-59.4"/>
</g>
</svg>
