<?xml version="1.0" encoding="utf-8"?>
<!-- Generator: Adobe Illustrator 24.1.2, SVG Export Plug-In . SVG Version: 6.00 Build 0)  -->
<svg version="1.1" id="Layer_1" xmlns="http://www.w3.org/2000/svg" xmlns:xlink="http://www.w3.org/1999/xlink" x="0px" y="0px"
	 viewBox="0 0 903.8 536.9" style="enable-background:new 0 0 903.8 536.9;" xml:space="preserve">
<style type="text/css">
	.st0{fill:#346C63;}
	.st1{fill:#FFFFFF;}
</style>
<path class="st0" d="M322.9,242.8C370,194.4,414,142.7,465.1,98.5s110.6-81.3,177-94s140.3,1.8,188.7,49
	c38.5,37.5,57.3,90.9,66.8,143.8c7,38.9,9.7,79.5-0.5,117.7C874.3,400.1,790.9,457.8,705,477.8s-175.5,9.7-263.5,3
	s-179.5-9.3-260.9,24.5c-37,15.4-75.1,38.6-114.3,29.7C22,525-4.1,474.2,0.5,428.9s32.6-84.8,64.2-117.7
	C128,245.4,214.6,195.9,306,198.6c26.2,0.8,59.4,14,57.6,40.2"/>
<g>
	<path class="st1" d="M380.5,289.6c2.7,0,4.9,0.4,6.8,1.3s3.4,2.2,4.4,3.8c1,1.7,1.6,3.7,1.6,6c0,2.3-0.5,4.4-1.6,6
		c-1,1.7-2.5,2.9-4.4,3.8s-4.2,1.3-6.8,1.3h-7.3v12.3H366v-34.7H380.5z M379.4,306.2c2.2,0,3.8-0.5,4.9-1.4c1.1-0.9,1.6-2.3,1.6-4.1
		c0-1.8-0.5-3.2-1.6-4.1c-1.1-0.9-2.7-1.4-4.9-1.4h-6.2v10.9H379.4z"/>
	<path class="st1" d="M410.5,297.5c2.7,0,5,0.5,7,1.6c2,1.1,3.6,2.6,4.7,4.7c1.1,2,1.7,4.5,1.7,7.4c0,2.8-0.6,5.3-1.7,7.3
		c-1.1,2.1-2.7,3.6-4.7,4.7c-2,1.1-4.4,1.6-7,1.6c-2.6,0-5-0.5-7-1.6c-2-1.1-3.6-2.7-4.8-4.7c-1.1-2-1.7-4.5-1.7-7.3
		c0-2.9,0.6-5.3,1.7-7.4c1.1-2,2.7-3.6,4.8-4.7C405.5,298,407.9,297.5,410.5,297.5z M410.5,302.8c-1.3,0-2.5,0.3-3.4,0.9
		c-0.9,0.6-1.6,1.5-2.1,2.8c-0.5,1.2-0.7,2.8-0.7,4.6c0,1.9,0.2,3.4,0.7,4.6c0.5,1.2,1.2,2.1,2.1,2.8c0.9,0.6,2.1,0.9,3.4,0.9
		c1.3,0,2.4-0.3,3.3-0.9c0.9-0.6,1.6-1.5,2.1-2.8c0.5-1.2,0.7-2.8,0.7-4.6c0-1.9-0.2-3.4-0.7-4.6c-0.5-1.2-1.2-2.1-2.1-2.8
		C412.9,303.1,411.8,302.8,410.5,302.8z"/>
	<path class="st1" d="M430,324.3V298h6.3l0.5,5.2c0.7-1.8,1.7-3.2,3.1-4.2c1.3-1,3-1.5,5.1-1.5c0.6,0,1.1,0.1,1.6,0.2
		c0.5,0.1,0.9,0.2,1.2,0.4l-0.8,6c-0.4-0.1-0.8-0.2-1.3-0.3c-0.5-0.1-1.2-0.1-2-0.1c-1.1,0-2.1,0.3-3,0.8c-1,0.5-1.8,1.3-2.4,2.3
		c-0.6,1-0.9,2.3-0.9,3.9v13.6H430z"/>
	<path class="st1" d="M468.9,298v5.4h-20.5V298H468.9z M460.5,289.9v25.8c0,1.3,0.3,2.2,1,2.8c0.6,0.6,1.5,0.9,2.7,0.9
		c0.9,0,1.6-0.1,2.3-0.4c0.7-0.3,1.3-0.6,1.8-1.1l1.2,4.8c-0.8,0.7-1.9,1.2-3.2,1.6c-1.3,0.4-2.6,0.6-4,0.6c-1.8,0-3.3-0.3-4.7-0.8
		c-1.4-0.5-2.4-1.4-3.2-2.5c-0.8-1.2-1.1-2.7-1.1-4.6v-24.9L460.5,289.9z"/>
	<path class="st1" d="M490.3,298v5.4h-19.8V298H490.3z M484.9,285.9c1.2,0,2.3,0.1,3.3,0.4c1,0.3,1.7,0.6,2.2,1l-1,4.8
		c-0.4-0.2-0.8-0.4-1.3-0.6c-0.5-0.1-1.1-0.2-1.7-0.2c-1.4,0-2.5,0.3-3.3,0.9c-0.8,0.6-1.2,1.7-1.2,3.1v3.6l0.3,1.4v23.9h-7.2v-29.4
		c0-1.5,0.2-2.8,0.7-3.9c0.5-1.1,1.2-2.1,2.1-2.8c0.9-0.7,1.9-1.3,3.1-1.7C482.2,286.1,483.5,285.9,484.9,285.9z"/>
	<path class="st1" d="M506.1,297.5c2.7,0,5,0.5,7,1.6c2,1.1,3.6,2.6,4.7,4.7c1.1,2,1.7,4.5,1.7,7.4c0,2.8-0.6,5.3-1.7,7.3
		c-1.1,2.1-2.7,3.6-4.7,4.7c-2,1.1-4.4,1.6-7,1.6c-2.6,0-5-0.5-7-1.6c-2-1.1-3.6-2.7-4.8-4.7c-1.1-2-1.7-4.5-1.7-7.3
		c0-2.9,0.6-5.3,1.7-7.4c1.1-2,2.7-3.6,4.8-4.7C501.1,298,503.5,297.5,506.1,297.5z M506.1,302.8c-1.3,0-2.5,0.3-3.4,0.9
		c-0.9,0.6-1.6,1.5-2.1,2.8c-0.5,1.2-0.7,2.8-0.7,4.6c0,1.9,0.2,3.4,0.7,4.6c0.5,1.2,1.2,2.1,2.1,2.8c0.9,0.6,2.1,0.9,3.4,0.9
		c1.3,0,2.4-0.3,3.3-0.9c0.9-0.6,1.6-1.5,2.1-2.8c0.5-1.2,0.7-2.8,0.7-4.6c0-1.9-0.2-3.4-0.7-4.6c-0.5-1.2-1.2-2.1-2.1-2.8
		C508.5,303.1,507.4,302.8,506.1,302.8z"/>
	<path class="st1" d="M532.7,286.5v29.7c0,1.2,0.2,2.1,0.6,2.6c0.4,0.5,1.1,0.7,2.1,0.7c0.6,0,1.1,0,1.5-0.1
		c0.4-0.1,0.9-0.2,1.5-0.4l-0.6,4.7c-0.6,0.4-1.3,0.6-2.2,0.8s-1.8,0.3-2.7,0.3c-2.6,0-4.4-0.6-5.6-1.9c-1.2-1.2-1.8-3.2-1.8-6
		v-30.5H532.7z"/>
	<path class="st1" d="M546,294.2c-1.5,0-2.6-0.3-3.4-1c-0.7-0.6-1.1-1.6-1.1-2.9c0-1.3,0.4-2.3,1.1-2.9c0.7-0.6,1.9-1,3.4-1
		c1.5,0,2.6,0.3,3.4,1c0.7,0.6,1.1,1.6,1.1,2.9c0,1.3-0.4,2.2-1.1,2.9C548.6,293.9,547.5,294.2,546,294.2z M549.6,298v26.3h-7.2V298
		H549.6z"/>
	<path class="st1" d="M569.2,297.5c2.7,0,5,0.5,7,1.6c2,1.1,3.6,2.6,4.7,4.7c1.1,2,1.7,4.5,1.7,7.4c0,2.8-0.6,5.3-1.7,7.3
		c-1.1,2.1-2.7,3.6-4.7,4.7c-2,1.1-4.4,1.6-7,1.6c-2.6,0-5-0.5-7-1.6c-2-1.1-3.6-2.7-4.8-4.7c-1.1-2-1.7-4.5-1.7-7.3
		c0-2.9,0.6-5.3,1.7-7.4c1.1-2,2.7-3.6,4.8-4.7C564.2,298,566.6,297.5,569.2,297.5z M569.2,302.8c-1.3,0-2.5,0.3-3.4,0.9
		c-0.9,0.6-1.6,1.5-2.1,2.8c-0.5,1.2-0.7,2.8-0.7,4.6c0,1.9,0.2,3.4,0.7,4.6c0.5,1.2,1.2,2.1,2.1,2.8c0.9,0.6,2.1,0.9,3.4,0.9
		c1.3,0,2.4-0.3,3.3-0.9c0.9-0.6,1.6-1.5,2.1-2.8c0.5-1.2,0.7-2.8,0.7-4.6c0-1.9-0.2-3.4-0.7-4.6c-0.5-1.2-1.2-2.1-2.1-2.8
		C571.6,303.1,570.5,302.8,569.2,302.8z"/>
	<path class="st1" d="M618.9,289.6c5.4,0,9.6,1.5,12.6,4.5c3,3,4.5,7.3,4.5,12.9c0,5.5-1.5,9.8-4.5,12.8c-3,3-7.2,4.5-12.6,4.5
		h-13.4v-34.7H618.9z M618.6,318.5c3.3,0,5.8-1,7.4-3c1.7-2,2.5-4.8,2.5-8.6s-0.8-6.6-2.5-8.6s-4.1-3-7.4-3h-5.8v23.1H618.6z"/>
	<path class="st1" d="M654.8,324.8c-2.8,0-5.2-0.5-7.2-1.6c-2.1-1.1-3.6-2.6-4.8-4.7c-1.1-2-1.7-4.5-1.7-7.4c0-2.9,0.6-5.3,1.7-7.4
		c1.1-2,2.7-3.6,4.7-4.7c2-1.1,4.3-1.6,6.9-1.6c2.7,0,4.9,0.5,6.8,1.6c1.9,1.1,3.3,2.5,4.3,4.4c1,1.8,1.5,3.9,1.5,6.3
		c0,0.7,0,1.4-0.1,2c0,0.6-0.1,1.2-0.2,1.7h-21v-5h17.8l-3.5,1.3c0-2.2-0.5-3.9-1.5-5.1c-1-1.2-2.4-1.8-4.2-1.8
		c-1.3,0-2.5,0.3-3.4,0.9c-1,0.6-1.7,1.6-2.2,2.8c-0.5,1.2-0.7,2.8-0.7,4.7c0,1.9,0.3,3.4,0.8,4.6c0.5,1.2,1.3,2.1,2.3,2.7
		c1,0.6,2.2,0.9,3.6,0.9c1.5,0,2.8-0.3,3.7-0.9c0.9-0.6,1.7-1.4,2.2-2.5l5.7,2.2c-0.6,1.4-1.4,2.5-2.5,3.5c-1.1,1-2.5,1.7-4,2.2
		S656.6,324.8,654.8,324.8z"/>
	<path class="st1" d="M683.6,324.8c-2.7,0-5.1-0.5-7.3-1.4c-2.2-0.9-4-2.3-5.3-4l4.2-4.2c0.8,1.3,2,2.3,3.4,3.1
		c1.4,0.8,3.1,1.2,5,1.2c1.4,0,2.5-0.2,3.3-0.6c0.8-0.4,1.2-1,1.2-1.9c0-0.6-0.2-1-0.6-1.4c-0.4-0.4-1.2-0.7-2.3-1l-4.6-0.9
		c-3-0.6-5.2-1.6-6.5-2.9c-1.3-1.3-1.9-2.9-1.9-5c0-1.4,0.4-2.8,1.3-4c0.9-1.3,2.1-2.3,3.9-3.1c1.7-0.8,3.9-1.2,6.4-1.2
		c2.6,0,4.9,0.4,6.9,1.2c1.9,0.8,3.5,2,4.6,3.7l-4.3,4.2c-0.8-1.2-1.8-2.2-3-2.8c-1.2-0.6-2.6-1-3.9-1c-1,0-1.8,0.1-2.5,0.3
		c-0.7,0.2-1.2,0.5-1.6,0.9c-0.4,0.4-0.5,0.8-0.5,1.4s0.2,1,0.7,1.4c0.5,0.4,1.4,0.7,2.7,1l5.4,1.1c2.6,0.5,4.5,1.4,5.6,2.7
		c1.1,1.2,1.7,2.7,1.7,4.5c0,1.7-0.4,3.2-1.3,4.5c-0.9,1.3-2.2,2.3-3.9,3.1C688.2,324.4,686.1,324.8,683.6,324.8z"/>
	<path class="st1" d="M704.6,294.2c-1.5,0-2.6-0.3-3.4-1c-0.7-0.6-1.1-1.6-1.1-2.9c0-1.3,0.4-2.3,1.1-2.9c0.7-0.6,1.9-1,3.4-1
		c1.5,0,2.6,0.3,3.4,1c0.7,0.6,1.1,1.6,1.1,2.9c0,1.3-0.4,2.2-1.1,2.9C707.2,293.9,706.1,294.2,704.6,294.2z M708.2,298v26.3H701
		V298H708.2z"/>
	<path class="st1" d="M731.4,319.3c2.8,0,5,0.6,6.6,1.8c1.5,1.2,2.3,2.9,2.3,5.2c0,2-0.6,3.7-1.7,5.1c-1.2,1.4-2.8,2.4-4.9,3.1
		c-2.1,0.7-4.5,1.1-7.2,1.1c-4.5,0-7.8-0.6-9.9-1.9s-3.1-2.9-3.1-4.9c0-1.4,0.6-2.6,1.7-3.6c1.1-1,2.9-1.5,5.5-1.6l-0.3,0.8
		c-1.8-0.3-3.2-0.9-4.2-1.8c-1-0.9-1.4-2.1-1.4-3.7c0-1.6,0.6-2.9,1.9-4c1.2-1,2.9-1.6,5.1-1.8l3.2,1.5H724
		c-1.5,0.1-2.6,0.4-3.2,0.9s-0.9,1.1-0.9,1.7c0,0.7,0.3,1.3,0.9,1.7c0.6,0.4,1.4,0.6,2.5,0.6H731.4z M726.6,297.5
		c2.5,0,4.6,0.4,6.4,1.1c1.8,0.7,3.2,1.7,4.2,3.1c1,1.3,1.4,2.9,1.4,4.8c0,1.8-0.5,3.4-1.4,4.7c-1,1.3-2.3,2.4-4.2,3.1
		c-1.8,0.7-3.9,1.1-6.4,1.1c-3.9,0-6.9-0.8-8.9-2.4c-2.1-1.6-3.1-3.8-3.1-6.5c0-1.9,0.5-3.5,1.4-4.8c1-1.3,2.3-2.4,4.1-3.1
		C721.9,297.8,724.1,297.5,726.6,297.5z M726.5,330.6c1.8,0,3.3-0.2,4.5-0.5c1.2-0.3,2.1-0.7,2.6-1.2c0.6-0.5,0.9-1,0.9-1.6
		c0-0.7-0.3-1.2-0.8-1.6c-0.5-0.4-1.5-0.6-2.8-0.6H722c-0.8,0-1.5,0.2-2.1,0.6c-0.5,0.4-0.8,1-0.8,1.7c0,1,0.7,1.8,2,2.3
		S724.2,330.6,726.5,330.6z M726.6,302c-1.4,0-2.6,0.4-3.5,1.2c-0.9,0.8-1.4,1.8-1.4,3.2s0.5,2.4,1.4,3.2c0.9,0.8,2.1,1.2,3.5,1.2
		s2.6-0.4,3.4-1.2s1.3-1.9,1.3-3.2s-0.4-2.4-1.3-3.2C729.1,302.4,728,302,726.6,302z M740,291.7l0.8,5.2c-0.1,0-0.3,0-0.4,0
		c-0.2,0-0.3,0-0.5,0c-1.6,0-2.8,0.4-3.6,1.1c-0.8,0.7-1.2,1.7-1.2,3l-2.9-1.2c0-1.4,0.3-2.7,0.8-3.9c0.6-1.2,1.4-2.2,2.5-2.9
		c1.1-0.7,2.4-1.1,4-1.1c0.1,0,0.2,0,0.3,0S739.9,291.7,740,291.7z"/>
	<path class="st1" d="M744.6,324.3V298h6.5l0.4,7.9l-0.9-0.8c0.4-1.7,1.1-3.1,2-4.3c0.9-1.1,2-2,3.3-2.5c1.3-0.5,2.8-0.8,4.3-0.8
		c1.8,0,3.4,0.4,4.9,1.1c1.4,0.7,2.5,1.8,3.4,3.2c0.8,1.4,1.2,3.2,1.2,5.3v17.2h-7.2v-15.2c0-2.2-0.4-3.8-1.3-4.7
		c-0.9-0.9-2-1.3-3.4-1.3c-1,0-1.9,0.2-2.9,0.7c-0.9,0.5-1.7,1.2-2.3,2.3c-0.6,1.1-0.9,2.5-0.9,4.2v13.9H744.6z"/>
</g>
</svg>
