<?xml version="1.0" encoding="utf-8"?>
<!-- Generator: Adobe Illustrator 24.1.2, SVG Export Plug-In . SVG Version: 6.00 Build 0)  -->
<svg version="1.1" id="Layer_1" xmlns="http://www.w3.org/2000/svg" xmlns:xlink="http://www.w3.org/1999/xlink" x="0px" y="0px"
	 viewBox="0 0 376.5 351.1" style="enable-background:new 0 0 376.5 351.1;" xml:space="preserve">
<style type="text/css">
	.st0{fill:#E5892E;}
	.st1{fill:#FFFFFF;}
</style>
<path class="st0" d="M134,82.4c-47-9-102.7,6-124.6,48.6c-15.3,29.7-10.8,66.7,5,96.1s41.4,52.3,68.3,72
	c48.5,35.3,109.2,63,167.2,47.8c63.9-16.8,104.6-81.4,119.8-145.6c9.8-41.4,11.1-87.3-10.5-124C335.6,36.9,289,15.8,243.5,5.4
	c-28.9-6.6-61-9.4-86.6,5.6s-38,54-17.3,75.2"/>
<g>
	<path class="st1" d="M106,155.2c1.9,0,3.6,0.3,5,1s2.5,1.6,3.2,2.8c0.8,1.2,1.1,2.7,1.1,4.4c0,1.7-0.4,3.2-1.1,4.4
		c-0.8,1.2-1.8,2.2-3.2,2.8s-3,1-5,1h-5.3v9h-5.3v-25.3H106z M105.2,167.3c1.6,0,2.8-0.3,3.6-1c0.8-0.7,1.2-1.7,1.2-3
		c0-1.3-0.4-2.3-1.2-3c-0.8-0.7-2-1-3.6-1h-4.5v8H105.2z"/>
	<path class="st1" d="M127.9,160.9c1.9,0,3.7,0.4,5.1,1.2c1.5,0.8,2.6,1.9,3.5,3.4c0.8,1.5,1.2,3.3,1.2,5.4c0,2.1-0.4,3.9-1.2,5.4
		c-0.8,1.5-2,2.6-3.5,3.4c-1.5,0.8-3.2,1.2-5.1,1.2c-1.9,0-3.6-0.4-5.1-1.2c-1.5-0.8-2.6-1.9-3.5-3.4c-0.8-1.5-1.2-3.3-1.2-5.4
		c0-2.1,0.4-3.9,1.2-5.4c0.8-1.5,2-2.6,3.5-3.4C124.3,161.3,126,160.9,127.9,160.9z M127.9,164.8c-1,0-1.8,0.2-2.5,0.7
		c-0.7,0.4-1.2,1.1-1.6,2s-0.5,2-0.5,3.4c0,1.4,0.2,2.5,0.5,3.4c0.4,0.9,0.9,1.6,1.6,2c0.7,0.4,1.5,0.7,2.5,0.7
		c0.9,0,1.8-0.2,2.4-0.7c0.7-0.4,1.2-1.1,1.6-2c0.4-0.9,0.5-2,0.5-3.4c0-1.4-0.2-2.5-0.5-3.4c-0.4-0.9-0.9-1.6-1.6-2
		C129.6,165.1,128.8,164.8,127.9,164.8z"/>
	<path class="st1" d="M142.1,180.5v-19.2h4.6l0.3,3.8c0.5-1.3,1.3-2.4,2.2-3.1c1-0.7,2.2-1.1,3.7-1.1c0.4,0,0.8,0,1.2,0.1
		c0.4,0.1,0.7,0.2,0.9,0.3l-0.6,4.4c-0.3-0.1-0.6-0.2-0.9-0.2c-0.4-0.1-0.9-0.1-1.4-0.1c-0.8,0-1.5,0.2-2.2,0.6
		c-0.7,0.4-1.3,0.9-1.8,1.7c-0.5,0.8-0.7,1.7-0.7,2.9v9.9H142.1z"/>
	<path class="st1" d="M170.5,161.3v3.9h-14.9v-3.9H170.5z M164.4,155.4v18.8c0,0.9,0.2,1.6,0.7,2c0.5,0.4,1.1,0.6,1.9,0.6
		c0.6,0,1.2-0.1,1.7-0.3c0.5-0.2,0.9-0.5,1.3-0.8l0.8,3.5c-0.6,0.5-1.4,0.9-2.3,1.2c-0.9,0.3-1.9,0.4-2.9,0.4
		c-1.3,0-2.4-0.2-3.4-0.6c-1-0.4-1.8-1-2.3-1.8c-0.6-0.8-0.8-2-0.8-3.4v-18.2L164.4,155.4z"/>
	<path class="st1" d="M186.1,161.3v3.9h-14.4v-3.9H186.1z M182.2,152.5c0.9,0,1.7,0.1,2.4,0.3c0.7,0.2,1.3,0.4,1.6,0.7l-0.7,3.5
		c-0.3-0.2-0.6-0.3-1-0.4c-0.4-0.1-0.8-0.2-1.3-0.2c-1,0-1.8,0.2-2.4,0.7c-0.6,0.4-0.9,1.2-0.9,2.3v2.6l0.2,1v17.4H175V159
		c0-1.1,0.2-2,0.5-2.8c0.4-0.8,0.9-1.5,1.5-2c0.6-0.5,1.4-0.9,2.3-1.2C180.2,152.7,181.2,152.5,182.2,152.5z"/>
	<path class="st1" d="M197.7,160.9c1.9,0,3.7,0.4,5.1,1.2c1.5,0.8,2.6,1.9,3.5,3.4c0.8,1.5,1.2,3.3,1.2,5.4c0,2.1-0.4,3.9-1.2,5.4
		c-0.8,1.5-2,2.6-3.5,3.4c-1.5,0.8-3.2,1.2-5.1,1.2c-1.9,0-3.6-0.4-5.1-1.2c-1.5-0.8-2.6-1.9-3.5-3.4c-0.8-1.5-1.2-3.3-1.2-5.4
		c0-2.1,0.4-3.9,1.2-5.4c0.8-1.5,2-2.6,3.5-3.4C194.1,161.3,195.8,160.9,197.7,160.9z M197.7,164.8c-1,0-1.8,0.2-2.5,0.7
		c-0.7,0.4-1.2,1.1-1.6,2c-0.4,0.9-0.5,2-0.5,3.4c0,1.4,0.2,2.5,0.5,3.4c0.4,0.9,0.9,1.6,1.6,2c0.7,0.4,1.5,0.7,2.5,0.7
		c0.9,0,1.8-0.2,2.4-0.7c0.7-0.4,1.2-1.1,1.6-2c0.4-0.9,0.5-2,0.5-3.4c0-1.4-0.2-2.5-0.5-3.4c-0.4-0.9-0.9-1.6-1.6-2
		C199.4,165.1,198.6,164.8,197.7,164.8z"/>
	<path class="st1" d="M217.1,152.9v21.7c0,0.9,0.2,1.5,0.5,1.9c0.3,0.4,0.8,0.5,1.5,0.5c0.4,0,0.8,0,1.1-0.1
		c0.3-0.1,0.6-0.2,1.1-0.3l-0.5,3.5c-0.4,0.3-1,0.5-1.6,0.6c-0.7,0.1-1.3,0.2-1.9,0.2c-1.9,0-3.2-0.5-4.1-1.4
		c-0.9-0.9-1.3-2.4-1.3-4.4v-22.3H217.1z"/>
	<path class="st1" d="M226.8,158.6c-1.1,0-1.9-0.2-2.5-0.7c-0.5-0.5-0.8-1.2-0.8-2.1c0-0.9,0.3-1.7,0.8-2.1c0.5-0.5,1.4-0.7,2.5-0.7
		s1.9,0.2,2.5,0.7c0.5,0.5,0.8,1.2,0.8,2.1c0,0.9-0.3,1.6-0.8,2.1C228.8,158.3,227.9,158.6,226.8,158.6z M229.4,161.3v19.2h-5.3
		v-19.2H229.4z"/>
	<path class="st1" d="M243.8,160.9c1.9,0,3.7,0.4,5.1,1.2c1.5,0.8,2.6,1.9,3.5,3.4c0.8,1.5,1.2,3.3,1.2,5.4c0,2.1-0.4,3.9-1.2,5.4
		c-0.8,1.5-2,2.6-3.5,3.4c-1.5,0.8-3.2,1.2-5.1,1.2c-1.9,0-3.6-0.4-5.1-1.2c-1.5-0.8-2.6-1.9-3.5-3.4c-0.8-1.5-1.2-3.3-1.2-5.4
		c0-2.1,0.4-3.9,1.2-5.4c0.8-1.5,2-2.6,3.5-3.4C240.1,161.3,241.8,160.9,243.8,160.9z M243.8,164.8c-1,0-1.8,0.2-2.5,0.7
		c-0.7,0.4-1.2,1.1-1.6,2c-0.4,0.9-0.5,2-0.5,3.4c0,1.4,0.2,2.5,0.5,3.4c0.4,0.9,0.9,1.6,1.6,2c0.7,0.4,1.5,0.7,2.5,0.7
		c0.9,0,1.8-0.2,2.4-0.7c0.7-0.4,1.2-1.1,1.6-2c0.4-0.9,0.5-2,0.5-3.4c0-1.4-0.2-2.5-0.5-3.4c-0.4-0.9-0.9-1.6-1.6-2
		C245.5,165.1,244.7,164.8,243.8,164.8z"/>
	<path class="st1" d="M105.1,201.3c4,0,7,1.1,9.2,3.3c2.2,2.2,3.3,5.3,3.3,9.4c0,4-1.1,7.2-3.3,9.4c-2.2,2.2-5.2,3.3-9.2,3.3h-9.8
		v-25.3H105.1z M104.9,222.4c2.4,0,4.2-0.7,5.4-2.2c1.2-1.4,1.8-3.5,1.8-6.3s-0.6-4.8-1.8-6.3c-1.2-1.4-3-2.2-5.4-2.2h-4.2v16.9
		H104.9z"/>
	<path class="st1" d="M131.3,227c-2,0-3.8-0.4-5.3-1.2c-1.5-0.8-2.7-1.9-3.5-3.4c-0.8-1.5-1.2-3.3-1.2-5.4c0-2.1,0.4-3.9,1.2-5.4
		c0.8-1.5,2-2.6,3.4-3.4c1.5-0.8,3.2-1.2,5-1.2c1.9,0,3.6,0.4,5,1.2c1.4,0.8,2.4,1.8,3.1,3.2c0.7,1.3,1.1,2.9,1.1,4.6
		c0,0.5,0,1,0,1.5s-0.1,0.9-0.1,1.2h-15.3V215h13l-2.5,0.9c0-1.6-0.4-2.9-1.1-3.7c-0.7-0.9-1.8-1.3-3.1-1.3c-1,0-1.8,0.2-2.5,0.7
		s-1.2,1.1-1.6,2.1c-0.4,0.9-0.5,2.1-0.5,3.4c0,1.4,0.2,2.5,0.6,3.4s1,1.5,1.7,2c0.7,0.4,1.6,0.7,2.6,0.7c1.1,0,2-0.2,2.7-0.7
		c0.7-0.4,1.2-1,1.6-1.8l4.2,1.6c-0.4,1-1,1.9-1.9,2.6c-0.8,0.7-1.8,1.3-3,1.6C133.9,226.8,132.6,227,131.3,227z"/>
	<path class="st1" d="M152.3,227c-1.9,0-3.7-0.3-5.3-1c-1.6-0.7-2.9-1.7-3.9-2.9l3-3.1c0.6,0.9,1.4,1.7,2.5,2.3
		c1,0.6,2.2,0.9,3.6,0.9c1,0,1.8-0.1,2.4-0.4c0.6-0.3,0.9-0.8,0.9-1.4c0-0.4-0.1-0.8-0.4-1.1c-0.3-0.3-0.8-0.5-1.7-0.7l-3.4-0.7
		c-2.2-0.5-3.8-1.2-4.7-2.1c-0.9-0.9-1.4-2.1-1.4-3.6c0-1,0.3-2,0.9-3c0.6-0.9,1.6-1.7,2.8-2.2c1.3-0.6,2.8-0.9,4.7-0.9
		c1.9,0,3.6,0.3,5,0.9c1.4,0.6,2.5,1.5,3.4,2.7l-3.1,3.1c-0.6-0.9-1.3-1.6-2.2-2.1c-0.9-0.5-1.9-0.7-2.9-0.7c-0.7,0-1.3,0.1-1.8,0.2
		c-0.5,0.2-0.9,0.4-1.2,0.6c-0.3,0.3-0.4,0.6-0.4,1c0,0.4,0.2,0.8,0.5,1.1c0.4,0.3,1,0.5,2,0.7l3.9,0.8c1.9,0.4,3.3,1,4.1,1.9
		c0.8,0.9,1.2,2,1.2,3.3c0,1.2-0.3,2.3-1,3.3s-1.6,1.7-2.9,2.3C155.7,226.7,154.2,227,152.3,227z"/>
	<path class="st1" d="M167.7,204.6c-1.1,0-1.9-0.2-2.5-0.7s-0.8-1.2-0.8-2.1c0-0.9,0.3-1.7,0.8-2.1c0.5-0.5,1.4-0.7,2.5-0.7
		c1.1,0,1.9,0.2,2.5,0.7c0.5,0.5,0.8,1.2,0.8,2.1c0,0.9-0.3,1.6-0.8,2.1S168.8,204.6,167.7,204.6z M170.3,207.4v19.2H165v-19.2
		H170.3z"/>
	<path class="st1" d="M187.3,223c2.1,0,3.7,0.4,4.8,1.3c1.1,0.9,1.7,2.2,1.7,3.8c0,1.5-0.4,2.7-1.3,3.7c-0.8,1-2,1.8-3.6,2.3
		c-1.5,0.5-3.3,0.8-5.3,0.8c-3.3,0-5.7-0.5-7.2-1.4c-1.5-0.9-2.3-2.1-2.3-3.6c0-1,0.4-1.9,1.2-2.6c0.8-0.7,2.1-1.1,4-1.2l-0.2,0.6
		c-1.3-0.2-2.3-0.7-3.1-1.3c-0.7-0.7-1.1-1.6-1.1-2.7c0-1.2,0.5-2.1,1.4-2.9c0.9-0.8,2.1-1.2,3.7-1.3l2.3,1.1h-0.5
		c-1.1,0.1-1.9,0.3-2.3,0.7c-0.4,0.4-0.7,0.8-0.7,1.2c0,0.5,0.2,0.9,0.6,1.2s1,0.4,1.8,0.4H187.3z M183.7,207c1.8,0,3.3,0.3,4.7,0.8
		c1.3,0.5,2.3,1.3,3,2.2c0.7,1,1.1,2.1,1.1,3.5c0,1.3-0.4,2.5-1.1,3.5s-1.7,1.7-3,2.2c-1.3,0.5-2.9,0.8-4.7,0.8
		c-2.8,0-5-0.6-6.5-1.7s-2.2-2.7-2.2-4.7c0-1.4,0.4-2.5,1.1-3.5c0.7-1,1.7-1.7,3-2.2C180.4,207.3,181.9,207,183.7,207z M183.7,231.2
		c1.3,0,2.4-0.1,3.3-0.3c0.9-0.2,1.5-0.5,1.9-0.9c0.4-0.4,0.6-0.8,0.6-1.2c0-0.5-0.2-0.9-0.6-1.2c-0.4-0.3-1.1-0.4-2.1-0.4h-6.5
		c-0.6,0-1.1,0.2-1.5,0.5c-0.4,0.3-0.6,0.7-0.6,1.3c0,0.7,0.5,1.3,1.4,1.7C180.7,231,182,231.2,183.7,231.2z M183.7,210.3
		c-1,0-1.9,0.3-2.5,0.8c-0.7,0.6-1,1.3-1,2.3c0,1,0.3,1.8,1,2.4c0.7,0.6,1.5,0.9,2.5,0.9c1,0,1.9-0.3,2.5-0.9c0.7-0.6,1-1.4,1-2.4
		c0-1-0.3-1.8-1-2.3S184.8,210.3,183.7,210.3z M193.6,202.8l0.6,3.8c-0.1,0-0.2,0-0.3,0s-0.2,0-0.4,0c-1.2,0-2.1,0.3-2.6,0.8
		c-0.6,0.5-0.9,1.2-0.9,2.2l-2.2-0.9c0-1,0.2-2,0.6-2.9c0.4-0.9,1-1.6,1.8-2.1c0.8-0.5,1.8-0.8,2.9-0.8c0.1,0,0.1,0,0.2,0
		C193.4,202.8,193.5,202.8,193.6,202.8z"/>
	<path class="st1" d="M197,226.6v-19.2h4.7l0.3,5.8l-0.7-0.6c0.3-1.3,0.8-2.3,1.5-3.1c0.7-0.8,1.5-1.4,2.4-1.8c1-0.4,2-0.6,3.2-0.6
		c1.3,0,2.5,0.3,3.6,0.8c1,0.5,1.9,1.3,2.5,2.3c0.6,1,0.9,2.3,0.9,3.9v12.6h-5.3v-11.1c0-1.6-0.3-2.8-1-3.4
		c-0.6-0.6-1.5-0.9-2.5-0.9c-0.7,0-1.4,0.2-2.1,0.5c-0.7,0.3-1.2,0.9-1.7,1.7c-0.4,0.8-0.6,1.8-0.6,3.1v10.2H197z"/>
</g>
</svg>
