<?xml version="1.0" encoding="utf-8"?>
<!-- Generator: Adobe Illustrator 24.3.0, SVG Export Plug-In . SVG Version: 6.00 Build 0)  -->
<svg version="1.1" id="Layer_1" xmlns="http://www.w3.org/2000/svg" xmlns:xlink="http://www.w3.org/1999/xlink" x="0px" y="0px"
	 viewBox="0 0 494 530.8" style="enable-background:new 0 0 494 530.8;" xml:space="preserve">
<style type="text/css">
	.st0{fill:#374550;}
	.st1{fill:#FFFFFF;}
</style>
<path class="st0" d="M236.2,61.5c-23.7-51.1-90.9-74-143.8-54.6S4.2,81.3,0.4,137.5c-3.1,46.5,12.6,92,17.2,138.3
	c4.5,45.5-1.2,93.8,19.2,134.8c17.6,35.4,51.9,59.1,85.7,79.6c28.9,17.6,59.4,34.4,93,39.2c31.7,4.5,63.7-1.9,95-8.4
	c59.9-12.4,125.5-28.9,160.3-79.2c27.1-39.2,28.7-92.1,13.8-137.4s-44.5-84.3-76.4-119.8C355.8,126,290,83.5,223.6,41.5"/>
<g>
	<path class="st1" d="M97,225.1c2.8,0,5.2,0.5,7.2,1.4c2,0.9,3.5,2.3,4.6,4c1.1,1.7,1.6,3.8,1.6,6.3c0,2.5-0.5,4.6-1.6,6.3
		c-1.1,1.7-2.6,3.1-4.6,4c-2,0.9-4.4,1.4-7.2,1.4h-7.7v12.9h-7.6v-36.3H97z M95.8,242.5c2.3,0,4-0.5,5.1-1.5c1.1-1,1.7-2.4,1.7-4.3
		c0-1.9-0.6-3.3-1.7-4.3c-1.1-1-2.8-1.4-5.1-1.4h-6.5v11.5H95.8z"/>
	<path class="st1" d="M128.4,233.3c2.8,0,5.2,0.6,7.4,1.7c2.1,1.1,3.8,2.8,5,4.9c1.2,2.1,1.8,4.7,1.8,7.7c0,3-0.6,5.5-1.8,7.7
		c-1.2,2.1-2.8,3.8-5,4.9c-2.1,1.1-4.6,1.7-7.4,1.7c-2.8,0-5.2-0.6-7.3-1.7c-2.1-1.1-3.8-2.8-5-4.9c-1.2-2.1-1.8-4.7-1.8-7.7
		c0-3,0.6-5.6,1.8-7.7c1.2-2.1,2.9-3.8,5-4.9C123.2,233.9,125.6,233.3,128.4,233.3z M128.4,238.9c-1.4,0-2.6,0.3-3.6,1
		c-1,0.6-1.7,1.6-2.2,2.9c-0.5,1.3-0.8,2.9-0.8,4.8c0,1.9,0.3,3.6,0.8,4.8c0.5,1.3,1.3,2.2,2.2,2.9c1,0.6,2.2,1,3.6,1
		c1.4,0,2.5-0.3,3.5-1c1-0.6,1.7-1.6,2.2-2.9c0.5-1.3,0.8-2.9,0.8-4.8c0-1.9-0.3-3.6-0.8-4.8c-0.5-1.3-1.3-2.2-2.2-2.9
		C130.9,239.3,129.7,238.9,128.4,238.9z"/>
	<path class="st1" d="M148.8,261.4v-27.5h6.6l0.5,5.4c0.7-1.9,1.8-3.4,3.2-4.4c1.4-1,3.2-1.5,5.3-1.5c0.6,0,1.2,0.1,1.7,0.2
		c0.5,0.1,0.9,0.3,1.3,0.4l-0.9,6.3c-0.4-0.1-0.8-0.3-1.3-0.3c-0.5-0.1-1.2-0.1-2.1-0.1c-1.1,0-2.2,0.3-3.2,0.8
		c-1,0.5-1.9,1.3-2.5,2.4c-0.7,1.1-1,2.5-1,4.1v14.3H148.8z"/>
	<path class="st1" d="M189.5,233.9v5.6h-21.4v-5.6H189.5z M180.7,225.4v27c0,1.3,0.3,2.3,1,2.9s1.6,0.9,2.8,0.9
		c0.9,0,1.7-0.1,2.4-0.4c0.7-0.3,1.3-0.7,1.9-1.1l1.2,5c-0.9,0.7-2,1.2-3.3,1.7c-1.3,0.4-2.7,0.6-4.2,0.6c-1.8,0-3.5-0.3-4.9-0.8
		c-1.4-0.6-2.5-1.4-3.3-2.6c-0.8-1.2-1.2-2.8-1.2-4.8v-26.1L180.7,225.4z"/>
	<path class="st1" d="M211.9,233.9v5.6h-20.7v-5.6H211.9z M206.3,221.3c1.3,0,2.5,0.1,3.5,0.4c1,0.3,1.8,0.6,2.3,1l-1,5
		c-0.4-0.3-0.9-0.5-1.4-0.6c-0.5-0.1-1.1-0.2-1.8-0.2c-1.4,0-2.6,0.3-3.4,1c-0.8,0.6-1.3,1.7-1.3,3.3v3.8l0.3,1.5v25H196v-30.8
		c0-1.5,0.3-2.9,0.8-4.1c0.5-1.2,1.2-2.1,2.1-2.9c0.9-0.8,2-1.3,3.3-1.7C203.4,221.5,204.8,221.3,206.3,221.3z"/>
	<path class="st1" d="M228.5,233.3c2.8,0,5.2,0.6,7.4,1.7c2.1,1.1,3.8,2.8,5,4.9c1.2,2.1,1.8,4.7,1.8,7.7c0,3-0.6,5.5-1.8,7.7
		c-1.2,2.1-2.8,3.8-5,4.9c-2.1,1.1-4.6,1.7-7.4,1.7c-2.8,0-5.2-0.6-7.3-1.7c-2.1-1.1-3.8-2.8-5-4.9c-1.2-2.1-1.8-4.7-1.8-7.7
		c0-3,0.6-5.6,1.8-7.7c1.2-2.1,2.9-3.8,5-4.9C223.3,233.9,225.7,233.3,228.5,233.3z M228.5,238.9c-1.4,0-2.6,0.3-3.6,1
		c-1,0.6-1.7,1.6-2.2,2.9c-0.5,1.3-0.8,2.9-0.8,4.8c0,1.9,0.3,3.6,0.8,4.8c0.5,1.3,1.3,2.2,2.2,2.9c1,0.6,2.2,1,3.6,1
		c1.4,0,2.5-0.3,3.5-1c1-0.6,1.7-1.6,2.2-2.9c0.5-1.3,0.8-2.9,0.8-4.8c0-1.9-0.3-3.6-0.8-4.8c-0.5-1.3-1.3-2.2-2.2-2.9
		C231,239.3,229.8,238.9,228.5,238.9z"/>
	<path class="st1" d="M256.3,221.8v31.1c0,1.3,0.2,2.2,0.7,2.7c0.4,0.5,1.2,0.8,2.2,0.8c0.6,0,1.1,0,1.5-0.1
		c0.4-0.1,0.9-0.2,1.5-0.4l-0.7,5c-0.6,0.4-1.4,0.7-2.3,0.9c-0.9,0.2-1.9,0.3-2.8,0.3c-2.7,0-4.6-0.7-5.9-2
		c-1.2-1.3-1.8-3.4-1.8-6.2v-31.9H256.3z"/>
	<path class="st1" d="M270.3,229.9c-1.6,0-2.8-0.3-3.5-1c-0.8-0.7-1.2-1.7-1.2-3c0-1.4,0.4-2.4,1.2-3.1c0.8-0.7,1.9-1,3.5-1
		c1.6,0,2.8,0.3,3.5,1c0.8,0.7,1.2,1.7,1.2,3.1c0,1.3-0.4,2.3-1.2,3C273,229.6,271.8,229.9,270.3,229.9z M274,233.9v27.5h-7.5v-27.5
		H274z"/>
	<path class="st1" d="M294.5,233.3c2.8,0,5.2,0.6,7.4,1.7c2.1,1.1,3.8,2.8,5,4.9c1.2,2.1,1.8,4.7,1.8,7.7c0,3-0.6,5.5-1.8,7.7
		c-1.2,2.1-2.8,3.8-5,4.9c-2.1,1.1-4.6,1.7-7.4,1.7c-2.8,0-5.2-0.6-7.3-1.7c-2.1-1.1-3.8-2.8-5-4.9c-1.2-2.1-1.8-4.7-1.8-7.7
		c0-3,0.6-5.6,1.8-7.7c1.2-2.1,2.9-3.8,5-4.9S291.8,233.3,294.5,233.3z M294.5,238.9c-1.4,0-2.6,0.3-3.6,1c-1,0.6-1.7,1.6-2.2,2.9
		c-0.5,1.3-0.8,2.9-0.8,4.8c0,1.9,0.3,3.6,0.8,4.8c0.5,1.3,1.3,2.2,2.2,2.9c1,0.6,2.2,1,3.6,1c1.4,0,2.5-0.3,3.5-1
		c1-0.6,1.7-1.6,2.2-2.9c0.5-1.3,0.8-2.9,0.8-4.8c0-1.9-0.3-3.6-0.8-4.8c-0.5-1.3-1.3-2.2-2.2-2.9S295.9,238.9,294.5,238.9z"/>
	<path class="st1" d="M95.8,291.1c5.7,0,10.1,1.6,13.2,4.7c3.1,3.1,4.7,7.6,4.7,13.5c0,5.8-1.6,10.3-4.7,13.4
		c-3.1,3.2-7.5,4.7-13.2,4.7h-14v-36.3H95.8z M95.4,321.4c3.4,0,6-1,7.8-3.1c1.7-2.1,2.6-5.1,2.6-9s-0.9-6.9-2.6-9
		c-1.7-2.1-4.3-3.1-7.8-3.1h-6.1v24.2H95.4z"/>
	<path class="st1" d="M133.3,328c-2.9,0-5.4-0.6-7.6-1.7c-2.1-1.1-3.8-2.8-5-4.9c-1.2-2.1-1.8-4.7-1.8-7.7s0.6-5.6,1.8-7.7
		c1.2-2.1,2.8-3.8,4.9-4.9c2.1-1.1,4.5-1.7,7.2-1.7c2.8,0,5.2,0.6,7.1,1.7c1.9,1.1,3.4,2.6,4.5,4.6c1,1.9,1.5,4.1,1.5,6.6
		c0,0.7,0,1.4-0.1,2.1c0,0.7-0.1,1.2-0.2,1.8h-22v-5.2h18.7l-3.6,1.3c0-2.3-0.5-4.1-1.6-5.3c-1-1.2-2.5-1.9-4.4-1.9
		c-1.4,0-2.6,0.3-3.6,1c-1,0.7-1.8,1.6-2.3,2.9c-0.5,1.3-0.8,2.9-0.8,4.9c0,1.9,0.3,3.6,0.9,4.8c0.6,1.3,1.4,2.2,2.4,2.8
		c1,0.6,2.3,0.9,3.8,0.9c1.6,0,2.9-0.3,3.9-0.9c1-0.6,1.8-1.5,2.3-2.6l6,2.3c-0.6,1.4-1.5,2.7-2.7,3.7c-1.2,1-2.6,1.8-4.2,2.3
		C136.9,327.8,135.2,328,133.3,328z"/>
	<path class="st1" d="M163.4,328c-2.8,0-5.3-0.5-7.6-1.5c-2.3-1-4.2-2.4-5.6-4.2l4.3-4.4c0.9,1.3,2.1,2.4,3.5,3.2
		c1.5,0.8,3.2,1.3,5.2,1.3c1.4,0,2.6-0.2,3.4-0.6c0.9-0.4,1.3-1.1,1.3-2c0-0.6-0.2-1.1-0.6-1.5c-0.4-0.4-1.2-0.8-2.4-1l-4.8-1
		c-3.2-0.7-5.5-1.7-6.8-3c-1.3-1.3-2-3.1-2-5.2c0-1.5,0.4-2.9,1.3-4.2c0.9-1.3,2.2-2.4,4-3.2c1.8-0.8,4-1.2,6.7-1.2
		c2.8,0,5.1,0.4,7.2,1.3c2,0.9,3.6,2.1,4.8,3.8l-4.5,4.4c-0.8-1.3-1.9-2.3-3.2-2.9c-1.3-0.7-2.7-1-4.1-1c-1,0-1.9,0.1-2.6,0.3
		c-0.7,0.2-1.3,0.5-1.7,0.9c-0.4,0.4-0.6,0.9-0.6,1.5c0,0.6,0.3,1.1,0.8,1.5c0.5,0.4,1.4,0.8,2.8,1.1l5.6,1.2
		c2.7,0.6,4.7,1.5,5.8,2.8c1.2,1.3,1.8,2.9,1.8,4.7c0,1.8-0.5,3.3-1.4,4.7c-0.9,1.4-2.3,2.5-4.1,3.2
		C168.3,327.6,166.1,328,163.4,328z"/>
	<path class="st1" d="M185.5,296c-1.6,0-2.8-0.3-3.5-1c-0.8-0.7-1.2-1.7-1.2-3c0-1.4,0.4-2.4,1.2-3.1c0.8-0.7,1.9-1,3.5-1
		c1.6,0,2.8,0.3,3.5,1c0.8,0.7,1.2,1.7,1.2,3.1c0,1.3-0.4,2.3-1.2,3C188.2,295.6,187,296,185.5,296z M189.2,299.9v27.5h-7.5v-27.5
		H189.2z"/>
	<path class="st1" d="M213.5,322.3c3,0,5.3,0.6,6.9,1.9c1.6,1.3,2.4,3.1,2.4,5.4c0,2.1-0.6,3.9-1.8,5.3c-1.2,1.4-2.9,2.5-5.1,3.3
		c-2.2,0.7-4.7,1.1-7.6,1.1c-4.7,0-8.2-0.7-10.4-2c-2.2-1.3-3.3-3-3.3-5.2c0-1.5,0.6-2.8,1.7-3.8c1.2-1,3.1-1.6,5.8-1.7l-0.3,0.9
		c-1.9-0.3-3.4-1-4.4-1.9c-1-0.9-1.5-2.2-1.5-3.9c0-1.7,0.7-3.1,2-4.2c1.3-1.1,3.1-1.7,5.3-1.9l3.3,1.5h-0.8c-1.6,0.1-2.7,0.4-3.3,1
		c-0.6,0.5-1,1.1-1,1.8c0,0.8,0.3,1.3,0.9,1.7c0.6,0.4,1.5,0.6,2.6,0.6H213.5z M208.5,299.4c2.6,0,4.8,0.4,6.7,1.1
		c1.9,0.8,3.3,1.8,4.3,3.2c1,1.4,1.5,3.1,1.5,5c0,1.9-0.5,3.6-1.5,5c-1,1.4-2.5,2.5-4.3,3.2c-1.9,0.8-4.1,1.1-6.7,1.1
		c-4.1,0-7.2-0.8-9.3-2.5c-2.1-1.7-3.2-3.9-3.2-6.8c0-1.9,0.5-3.6,1.5-5c1-1.4,2.5-2.5,4.3-3.2C203.6,299.8,205.9,299.4,208.5,299.4
		z M208.4,334.1c1.9,0,3.5-0.2,4.7-0.5c1.2-0.3,2.1-0.8,2.8-1.3c0.6-0.5,0.9-1.1,0.9-1.7c0-0.7-0.3-1.3-0.8-1.7s-1.5-0.6-3-0.6h-9.3
		c-0.9,0-1.6,0.2-2.2,0.7c-0.6,0.4-0.9,1-0.9,1.8c0,1,0.7,1.8,2.1,2.4C204.1,333.8,206,334.1,208.4,334.1z M208.5,304.1
		c-1.5,0-2.7,0.4-3.6,1.2c-1,0.8-1.4,1.9-1.4,3.4s0.5,2.6,1.4,3.4c1,0.8,2.2,1.2,3.6,1.2c1.5,0,2.7-0.4,3.6-1.2
		c0.9-0.8,1.4-2,1.4-3.4s-0.5-2.6-1.4-3.4C211.1,304.5,209.9,304.1,208.5,304.1z M222.6,293.4l0.9,5.4c-0.1,0-0.3,0-0.5,0
		s-0.3,0-0.5,0c-1.7,0-3,0.4-3.8,1.1c-0.8,0.8-1.3,1.8-1.3,3.1l-3.1-1.3c0-1.5,0.3-2.8,0.9-4.1c0.6-1.3,1.5-2.3,2.6-3.1
		c1.2-0.8,2.5-1.2,4.2-1.2c0.1,0,0.2,0,0.3,0C222.4,293.4,222.5,293.4,222.6,293.4z"/>
	<path class="st1" d="M227.4,327.5v-27.5h6.8l0.4,8.3l-0.9-0.9c0.4-1.8,1.1-3.3,2.1-4.5c1-1.2,2.1-2,3.5-2.6
		c1.4-0.6,2.9-0.9,4.5-0.9c1.9,0,3.6,0.4,5.1,1.1s2.7,1.8,3.5,3.3c0.9,1.5,1.3,3.3,1.3,5.6v18.1h-7.5v-15.9c0-2.3-0.5-4-1.4-4.9
		c-0.9-0.9-2.1-1.3-3.6-1.3c-1,0-2,0.2-3,0.7c-1,0.5-1.8,1.3-2.4,2.4c-0.6,1.1-0.9,2.6-0.9,4.4v14.6H227.4z"/>
</g>
</svg>
