<?xml version="1.0" encoding="utf-8"?>
<!-- Generator: Adobe Illustrator 23.1.1, SVG Export Plug-In . SVG Version: 6.00 Build 0)  -->
<svg version="1.1" id="Layer_1" xmlns="http://www.w3.org/2000/svg" xmlns:xlink="http://www.w3.org/1999/xlink" x="0px" y="0px"
	 viewBox="0 0 372.2 424.6" style="enable-background:new 0 0 372.2 424.6;" xml:space="preserve">
<style type="text/css">
	.st0{fill:#273F84;}
	.st1{fill:#FFFFFF;}
</style>
<title>HowToTampon</title>
<path class="st0" d="M188.5,347.2C108.8,324,41.6,261.4,12.6,183.7C-3.6,140.1-7.1,87.9,19.7,49.9c18.5-26.2,49.2-42,80.8-47.5
	c70-12.3,142.5,23.4,188.3,77.8s68.2,124.9,79.5,195.1c6.3,39.2,8,83.7-17.9,113.8c-16.2,18.8-40.7,28.5-65.2,32.7
	C180.3,440.1,80.5,370,62.2,265.1c-0.3-1.5-0.5-2.9-0.7-4.4"/>
<g>
	<path class="st1" d="M118.4,130.9c0,2.4-0.7,4.3-2.2,5.4c-1.5,1.2-3.5,1.8-6.2,1.8h-4.2v9.9h-3.9v-24.4h8c2.7,0,4.8,0.6,6.2,1.8
		S118.4,128.5,118.4,130.9z M114.5,130.8c0-1.3-0.4-2.2-1.2-2.8c-0.8-0.6-1.9-0.9-3.3-0.9h-4.2v7.6h4.2c1.4,0,2.5-0.3,3.3-0.9
		S114.5,132.1,114.5,130.8z"/>
	<path class="st1" d="M139.7,139.3c0,1.4-0.2,2.6-0.6,3.7c-0.4,1.1-1,2.1-1.8,2.9c-0.8,0.8-1.8,1.4-2.9,1.9s-2.4,0.7-3.8,0.7
		c-1.4,0-2.6-0.2-3.7-0.7s-2.1-1.1-2.9-1.9c-0.8-0.8-1.4-1.8-1.8-2.9c-0.4-1.1-0.6-2.3-0.6-3.7c0-1.3,0.2-2.5,0.6-3.7
		c0.4-1.1,1-2.1,1.8-2.9c0.8-0.8,1.8-1.4,2.9-1.9c1.1-0.4,2.4-0.7,3.7-0.7c1.4,0,2.6,0.2,3.8,0.7c1.1,0.4,2.1,1.1,2.9,1.9
		c0.8,0.8,1.4,1.8,1.8,2.9C139.5,136.7,139.7,138,139.7,139.3z M135.9,139.3c0-0.8-0.1-1.5-0.4-2.2c-0.2-0.7-0.6-1.3-1.1-1.8
		c-0.5-0.5-1-0.9-1.7-1.2c-0.7-0.3-1.4-0.4-2.2-0.4c-0.8,0-1.6,0.1-2.2,0.4c-0.6,0.3-1.2,0.7-1.6,1.2c-0.4,0.5-0.8,1.1-1,1.8
		c-0.2,0.7-0.4,1.4-0.4,2.2c0,0.8,0.1,1.6,0.4,2.2c0.2,0.7,0.6,1.3,1,1.8c0.4,0.5,1,0.9,1.6,1.2c0.6,0.3,1.4,0.4,2.2,0.4
		c0.8,0,1.5-0.1,2.2-0.4c0.7-0.3,1.2-0.7,1.7-1.2c0.5-0.5,0.8-1.1,1.1-1.8S135.9,140.1,135.9,139.3z"/>
	<path class="st1" d="M159.7,134.7c-0.5-0.2-0.9-0.4-1.4-0.5c-0.5-0.1-1-0.2-1.7-0.2c-0.9,0-1.7,0.1-2.4,0.4c-0.8,0.3-1.4,0.6-2,1.1
		c-0.5,0.5-1,1.1-1.3,1.9c-0.3,0.8-0.5,1.7-0.5,2.7v4.3h3.9v3.5h-11.7v-3.5h3.9V134h-3.9v-3.5h7.8v4.4c0.6-1.7,1.6-3,2.8-3.7
		c1.2-0.7,2.7-1.1,4.4-1.1c0.5,0,1.1,0.1,1.7,0.2s1.2,0.3,1.7,0.6L159.7,134.7z"/>
	<path class="st1" d="M181.2,142.4c-0.2,1.8-0.9,3.3-2.2,4.3s-2.8,1.6-4.6,1.6c-1,0-2-0.2-2.8-0.5c-0.8-0.3-1.6-0.8-2.2-1.4
		c-0.6-0.6-1.1-1.3-1.4-2.2c-0.3-0.8-0.5-1.8-0.5-2.8V134h-3.9v-3.5h3.9v-7h3.9v7h7.3v3.5h-7.3v7.5c0,1.1,0.3,2,0.8,2.5
		c0.5,0.5,1.3,0.8,2.2,0.8c1.1,0,1.9-0.3,2.4-1c0.5-0.6,0.9-1.4,1-2.3L181.2,142.4z"/>
	<path class="st1" d="M201.9,134h-6.8v10.5h4v3.5h-11.7v-3.5h3.8V134h-3.8v-3.5h3.8c0-2.4,0.7-4.2,2.2-5.5c1.5-1.3,3.5-1.9,6-1.9
		c0.4,0,0.8,0,1.2,0.1c0.4,0,0.9,0.1,1.3,0.1v3.4c-0.7-0.1-1.4-0.1-2-0.1c-1,0-1.8,0.1-2.4,0.2c-0.6,0.1-1.1,0.4-1.4,0.7
		c-0.3,0.3-0.6,0.7-0.7,1.2c-0.1,0.5-0.2,1.1-0.2,1.8h6.8V134z"/>
	<path class="st1" d="M223.2,139.3c0,1.4-0.2,2.6-0.6,3.7c-0.4,1.1-1,2.1-1.8,2.9c-0.8,0.8-1.8,1.4-2.9,1.9s-2.4,0.7-3.8,0.7
		c-1.4,0-2.6-0.2-3.7-0.7s-2.1-1.1-2.9-1.9c-0.8-0.8-1.4-1.8-1.8-2.9c-0.4-1.1-0.6-2.3-0.6-3.7c0-1.3,0.2-2.5,0.6-3.7
		c0.4-1.1,1-2.1,1.8-2.9c0.8-0.8,1.8-1.4,2.9-1.9c1.1-0.4,2.4-0.7,3.7-0.7c1.4,0,2.6,0.2,3.8,0.7c1.1,0.4,2.1,1.1,2.9,1.9
		c0.8,0.8,1.4,1.8,1.8,2.9C223,136.7,223.2,138,223.2,139.3z M219.3,139.3c0-0.8-0.1-1.5-0.4-2.2c-0.2-0.7-0.6-1.3-1.1-1.8
		c-0.5-0.5-1-0.9-1.7-1.2c-0.7-0.3-1.4-0.4-2.2-0.4c-0.8,0-1.6,0.1-2.2,0.4c-0.6,0.3-1.2,0.7-1.6,1.2c-0.4,0.5-0.8,1.1-1,1.8
		c-0.2,0.7-0.4,1.4-0.4,2.2c0,0.8,0.1,1.6,0.4,2.2c0.2,0.7,0.6,1.3,1,1.8c0.4,0.5,1,0.9,1.6,1.2c0.6,0.3,1.4,0.4,2.2,0.4
		c0.8,0,1.5-0.1,2.2-0.4c0.7-0.3,1.2-0.7,1.7-1.2c0.5-0.5,0.8-1.1,1.1-1.8S219.3,140.1,219.3,139.3z"/>
	<path class="st1" d="M240.9,148h-11.7v-3.5h3.8v-17.4h-3.8v-3.5h7.7v20.9h4V148z"/>
	<path class="st1" d="M261.7,148H250v-3.5h3.8V134H250v-3.5h7.7v13.9h4V148z M258.2,128.3h-4.7v-4.7h4.7V128.3z"/>
	<path class="st1" d="M285.8,139.3c0,1.4-0.2,2.6-0.6,3.7c-0.4,1.1-1,2.1-1.8,2.9c-0.8,0.8-1.8,1.4-2.9,1.9s-2.4,0.7-3.8,0.7
		c-1.4,0-2.6-0.2-3.7-0.7s-2.1-1.1-2.9-1.9c-0.8-0.8-1.4-1.8-1.8-2.9c-0.4-1.1-0.6-2.3-0.6-3.7c0-1.3,0.2-2.5,0.6-3.7
		c0.4-1.1,1-2.1,1.8-2.9c0.8-0.8,1.8-1.4,2.9-1.9c1.1-0.4,2.4-0.7,3.7-0.7c1.4,0,2.6,0.2,3.8,0.7c1.1,0.4,2.1,1.1,2.9,1.9
		c0.8,0.8,1.4,1.8,1.8,2.9C285.6,136.7,285.8,138,285.8,139.3z M282,139.3c0-0.8-0.1-1.5-0.4-2.2c-0.2-0.7-0.6-1.3-1.1-1.8
		c-0.5-0.5-1-0.9-1.7-1.2c-0.7-0.3-1.4-0.4-2.2-0.4c-0.8,0-1.6,0.1-2.2,0.4c-0.6,0.3-1.2,0.7-1.6,1.2c-0.4,0.5-0.8,1.1-1,1.8
		c-0.2,0.7-0.4,1.4-0.4,2.2c0,0.8,0.1,1.6,0.4,2.2c0.2,0.7,0.6,1.3,1,1.8c0.4,0.5,1,0.9,1.6,1.2c0.6,0.3,1.4,0.4,2.2,0.4
		c0.8,0,1.5-0.1,2.2-0.4c0.7-0.3,1.2-0.7,1.7-1.2c0.5-0.5,0.8-1.1,1.1-1.8S282,140.1,282,139.3z"/>
	<path class="st1" d="M119.2,181.6c0,1.6-0.2,3.2-0.5,4.7c-0.3,1.5-0.9,2.8-1.6,3.9c-0.8,1.1-1.7,2-2.9,2.7c-1.2,0.7-2.6,1-4.3,1
		h-7.9v-24.4h7.9c1.7,0,3.1,0.3,4.3,1c1.2,0.7,2.2,1.6,2.9,2.7c0.8,1.1,1.3,2.4,1.7,3.9C119,178.5,119.2,180,119.2,181.6z
		 M115.3,181.6c0-2.8-0.5-5-1.4-6.5c-1-1.5-2.3-2.2-4.1-2.2h-4.1v17.4h4.1c1.8,0,3.1-0.8,4.1-2.3
		C114.9,186.6,115.3,184.4,115.3,181.6z"/>
	<path class="st1" d="M125.4,186.6c0.2,1.2,0.8,2.2,1.7,3c1,0.8,2.2,1.2,3.8,1.2c1.3,0,2.3-0.2,3.3-0.6c0.9-0.4,1.7-0.9,2.4-1.6
		l2,2.7c-1.1,1.1-2.3,1.9-3.6,2.3c-1.3,0.4-2.6,0.6-4.1,0.6c-1.3,0-2.6-0.2-3.8-0.7c-1.2-0.4-2.2-1.1-3-1.9c-0.8-0.8-1.5-1.8-2-2.9
		c-0.5-1.1-0.7-2.3-0.7-3.7c0-1.3,0.2-2.5,0.7-3.6c0.4-1.1,1.1-2.1,1.9-2.9c0.8-0.8,1.8-1.4,2.9-1.9c1.1-0.5,2.4-0.7,3.7-0.7
		c1.4,0,2.7,0.2,3.8,0.7c1.1,0.5,2.1,1.2,2.9,2.1c0.8,0.9,1.5,2,1.9,3.3s0.7,2.8,0.7,4.5H125.4z M135.6,183.2
		c-0.2-1.1-0.8-2-1.7-2.7c-1-0.7-2-1-3.3-1c-1.2,0-2.3,0.3-3.3,1c-1,0.7-1.6,1.6-1.8,2.7H135.6z"/>
	<path class="st1" d="M159.7,188.6c0,1.1-0.3,2.1-0.8,2.8c-0.5,0.7-1.2,1.3-2,1.7s-1.7,0.7-2.7,0.9c-1,0.2-2,0.3-2.9,0.3
		c-1.6,0-3.2-0.2-4.7-0.7c-1.6-0.5-2.9-1.1-4.1-1.8l1.6-3.2c1.4,0.8,2.6,1.4,3.8,1.7s2.3,0.5,3.4,0.5c1.6,0,2.7-0.2,3.4-0.5
		c0.7-0.3,1.1-0.8,1.1-1.4c0-0.3-0.1-0.5-0.3-0.7c-0.2-0.2-0.5-0.4-1-0.5c-0.5-0.2-1.1-0.3-1.8-0.5c-0.8-0.2-1.7-0.3-2.8-0.5
		c-0.9-0.1-1.7-0.3-2.5-0.6c-0.8-0.2-1.5-0.5-2.1-0.9c-0.6-0.4-1.1-0.9-1.5-1.5c-0.4-0.6-0.6-1.4-0.6-2.3c0-0.9,0.2-1.7,0.7-2.4
		c0.5-0.7,1.1-1.3,1.9-1.7c0.8-0.4,1.7-0.8,2.6-1c1-0.2,1.9-0.3,2.9-0.3c1.4,0,2.7,0.2,4,0.5c1.3,0.4,2.4,0.9,3.4,1.5l-1.5,3
		c-1-0.6-1.9-1-2.8-1.2c-0.9-0.2-1.9-0.3-3-0.3c-0.5,0-0.9,0-1.4,0.1c-0.5,0-1,0.1-1.4,0.3c-0.4,0.1-0.8,0.3-1.1,0.6
		c-0.3,0.2-0.4,0.5-0.4,0.9c0,0.5,0.4,0.8,1.2,1.1c0.8,0.3,2.2,0.6,4.2,0.9c1.1,0.1,2,0.3,2.9,0.6c0.9,0.2,1.6,0.5,2.3,0.9
		c0.6,0.4,1.1,0.9,1.5,1.5C159.5,187,159.7,187.7,159.7,188.6z"/>
	<path class="st1" d="M178.2,193.8h-11.7v-3.5h3.8v-10.5h-3.8v-3.5h7.7v13.9h4V193.8z M174.7,174.2H170v-4.7h4.7V174.2z"/>
	<path class="st1" d="M201,193.7c0,1.2-0.2,2.3-0.6,3.2c-0.4,0.9-1,1.7-1.7,2.4s-1.6,1.1-2.6,1.5s-2.1,0.5-3.4,0.5
		c-3,0-5.6-0.9-7.7-2.7l1.8-3c1.8,1.5,3.8,2.3,5.9,2.3c1.3,0,2.4-0.3,3.2-1s1.2-1.7,1.2-3.1v-1.9c-0.8,0.7-1.6,1.2-2.3,1.5
		c-0.7,0.3-1.6,0.5-2.6,0.5c-1.1,0-2.2-0.2-3.1-0.7c-1-0.5-1.8-1.1-2.5-1.9c-0.7-0.8-1.2-1.8-1.6-2.8c-0.4-1.1-0.6-2.2-0.6-3.5
		c0-1.2,0.2-2.4,0.6-3.5c0.4-1.1,0.9-2,1.6-2.8c0.7-0.8,1.5-1.4,2.5-1.9c1-0.5,2-0.7,3.1-0.7c1,0,1.8,0.2,2.6,0.5
		c0.8,0.3,1.5,0.8,2.3,1.5v-1.6h3.9V193.7z M197.1,181.1c-0.5-0.5-1.1-0.9-1.8-1.2c-0.7-0.3-1.4-0.4-2.1-0.4c-1.5,0-2.6,0.5-3.5,1.5
		s-1.4,2.3-1.4,3.9c0,0.8,0.1,1.5,0.4,2.2s0.6,1.2,1,1.7c0.4,0.5,0.9,0.9,1.5,1.1c0.6,0.3,1.3,0.4,2,0.4c0.7,0,1.4-0.1,2.1-0.4
		c0.7-0.3,1.3-0.7,1.8-1.2V181.1z"/>
	<path class="st1" d="M221.8,193.8H218v-10.7c0-1.4-0.3-2.3-0.8-2.8c-0.5-0.5-1.3-0.8-2.2-0.8c-1.4,0-2.6,0.6-3.5,1.7
		c-0.9,1.2-1.4,2.8-1.4,4.8v7.8h-3.9v-17.4h3.9v4.4c0.4-1.5,1.1-2.7,2.1-3.5c1-0.8,2.3-1.3,3.9-1.3c1.8,0,3.2,0.6,4.2,1.7
		c1,1.2,1.5,2.9,1.5,5.3V193.8z"/>
	<path class="st1" d="M118.8,232.3c-0.3,1.2-0.7,2.3-1.2,3.2c-0.5,1-1.1,1.8-1.8,2.5s-1.5,1.2-2.5,1.6s-2,0.6-3.3,0.6
		c-1.7,0-3.1-0.4-4.3-1.1c-1.2-0.7-2.2-1.6-2.9-2.8c-0.8-1.2-1.3-2.5-1.6-4c-0.3-1.5-0.5-3.1-0.5-4.7c0-1.6,0.2-3.2,0.5-4.7
		c0.3-1.5,0.9-2.9,1.6-4c0.7-1.2,1.7-2.1,2.8-2.8s2.5-1.1,4.2-1.1c0.5,0,1.1,0.1,1.6,0.2s1.1,0.3,1.5,0.6s0.9,0.6,1.2,1
		c0.4,0.4,0.6,0.9,0.8,1.4v-2.9h3.5v9.2h-3.5c0-0.8-0.1-1.5-0.3-2.2c-0.2-0.7-0.5-1.4-0.9-2c-0.4-0.6-0.9-1-1.5-1.4
		c-0.6-0.4-1.4-0.5-2.2-0.5c-1.1,0-2,0.3-2.7,0.8c-0.7,0.5-1.3,1.2-1.7,2.1c-0.4,0.9-0.7,1.8-0.9,2.9s-0.3,2.2-0.3,3.3
		s0.1,2.2,0.3,3.3c0.2,1.1,0.5,2.1,0.9,2.9s1,1.6,1.7,2.1c0.7,0.5,1.6,0.8,2.7,0.8c1.6,0,2.8-0.5,3.6-1.5c0.9-1,1.5-2.4,2-4.1
		L118.8,232.3z"/>
	<path class="st1" d="M121.8,234.7c0-1,0.3-1.9,0.8-2.7s1.3-1.4,2.2-1.9c0.9-0.5,1.9-0.9,3.1-1.1c1.2-0.3,2.3-0.4,3.5-0.4
		c0.7,0,1.2,0,1.7,0c0.5,0,1,0.1,1.4,0.1v-0.7c0-0.9-0.4-1.6-1.1-2s-1.6-0.7-2.8-0.7c-1,0-2.1,0.1-3.2,0.4c-1.1,0.3-2.1,0.7-3.1,1.3
		l-1.6-3c1.1-0.7,2.4-1.2,3.7-1.6c1.3-0.4,2.7-0.6,4.2-0.6c0.9,0,1.9,0.1,2.8,0.3c0.9,0.2,1.7,0.6,2.5,1s1.3,1.1,1.7,1.9
		c0.4,0.8,0.7,1.7,0.7,2.9v11.7h-3.8v-2.6c-0.6,1-1.5,1.7-2.7,2.2s-2.5,0.8-3.8,0.8c-0.8,0-1.6-0.1-2.4-0.3c-0.8-0.2-1.4-0.6-2-1
		c-0.5-0.5-1-1-1.3-1.7C122,236.4,121.8,235.6,121.8,234.7z M128.9,236.7c0.8,0,1.5-0.1,2.1-0.3c0.7-0.2,1.3-0.5,1.8-0.8
		c0.5-0.3,0.9-0.8,1.2-1.2c0.3-0.5,0.4-1,0.4-1.6v-0.7c-0.6-0.1-1.2-0.2-1.7-0.2c-0.5,0-1,0-1.4,0c-1.9,0-3.3,0.2-4.3,0.7
		c-1,0.5-1.4,1.1-1.4,1.8C125.6,236,126.7,236.7,128.9,236.7z"/>
	<path class="st1" d="M159.7,234.5c0,1.1-0.3,2.1-0.8,2.8c-0.5,0.7-1.2,1.3-2,1.7s-1.7,0.7-2.7,0.9c-1,0.2-2,0.3-2.9,0.3
		c-1.6,0-3.2-0.2-4.7-0.7c-1.6-0.5-2.9-1.1-4.1-1.8l1.6-3.2c1.4,0.8,2.6,1.4,3.8,1.7c1.1,0.3,2.3,0.5,3.4,0.5c1.6,0,2.7-0.2,3.4-0.5
		c0.7-0.3,1.1-0.8,1.1-1.4c0-0.3-0.1-0.5-0.3-0.7c-0.2-0.2-0.5-0.4-1-0.5c-0.5-0.2-1.1-0.3-1.8-0.5c-0.8-0.2-1.7-0.3-2.8-0.5
		c-0.9-0.1-1.7-0.3-2.5-0.6c-0.8-0.2-1.5-0.5-2.1-0.9c-0.6-0.4-1.1-0.9-1.5-1.5c-0.4-0.6-0.6-1.4-0.6-2.3c0-0.9,0.2-1.7,0.7-2.4
		s1.1-1.3,1.9-1.7s1.7-0.8,2.6-1c1-0.2,1.9-0.3,2.9-0.3c1.4,0,2.7,0.2,4,0.5s2.4,0.9,3.4,1.5l-1.5,3c-1-0.6-1.9-1-2.8-1.2
		c-0.9-0.2-1.9-0.3-3-0.3c-0.5,0-0.9,0-1.4,0.1c-0.5,0-1,0.1-1.4,0.3c-0.4,0.1-0.8,0.3-1.1,0.6c-0.3,0.2-0.4,0.5-0.4,0.9
		c0,0.5,0.4,0.8,1.2,1.1c0.8,0.3,2.2,0.6,4.2,0.9c1.1,0.1,2,0.3,2.9,0.6s1.6,0.5,2.3,0.9c0.6,0.4,1.1,0.9,1.5,1.5
		C159.5,232.8,159.7,233.6,159.7,234.5z"/>
	<path class="st1" d="M167.2,232.5c0.2,1.2,0.8,2.2,1.7,3c1,0.8,2.2,1.2,3.8,1.2c1.3,0,2.3-0.2,3.3-0.6c0.9-0.4,1.7-0.9,2.4-1.6
		l2,2.7c-1.1,1.1-2.3,1.9-3.6,2.3c-1.3,0.4-2.6,0.6-4.1,0.6c-1.3,0-2.6-0.2-3.8-0.7c-1.2-0.4-2.2-1.1-3-1.9s-1.5-1.8-2-2.9
		c-0.5-1.1-0.7-2.3-0.7-3.7c0-1.3,0.2-2.5,0.7-3.6c0.4-1.1,1.1-2.1,1.9-2.9s1.8-1.5,2.9-1.9s2.4-0.7,3.7-0.7c1.4,0,2.7,0.2,3.8,0.7
		c1.1,0.5,2.1,1.2,2.9,2.1c0.8,0.9,1.5,2,1.9,3.3c0.5,1.3,0.7,2.8,0.7,4.5H167.2z M177.4,229.1c-0.2-1.1-0.8-2-1.7-2.7
		c-1-0.7-2-1-3.3-1c-1.2,0-2.3,0.3-3.3,1c-1,0.7-1.6,1.6-1.8,2.7H177.4z"/>
	<path class="st1" d="M117.8,278.9c0,1.1-0.2,2.1-0.6,3c-0.4,0.9-0.9,1.6-1.5,2.2c-0.7,0.6-1.4,1.1-2.3,1.4
		c-0.9,0.3-1.9,0.5-2.9,0.5c-1.1,0-2.2-0.2-3.1-0.6c-0.9-0.4-1.7-1.1-2.4-2v2.2h-3.5v-8h3.5c0,0.8,0.1,1.5,0.4,2.1
		c0.3,0.6,0.7,1.1,1.1,1.5s1,0.7,1.6,1s1.3,0.3,1.9,0.3c1.2,0,2.1-0.3,2.8-0.8c0.7-0.5,1.1-1.4,1.1-2.6c0-0.6-0.1-1.1-0.3-1.6
		c-0.2-0.4-0.5-0.8-0.9-1.2c-0.4-0.3-0.9-0.6-1.5-0.9s-1.3-0.5-2-0.8c-0.9-0.3-1.8-0.6-2.7-1c-0.9-0.4-1.7-0.8-2.4-1.4
		c-0.7-0.5-1.3-1.2-1.7-2c-0.4-0.8-0.7-1.8-0.7-3c0-1.1,0.2-2,0.6-2.8c0.4-0.8,0.9-1.5,1.6-2c0.7-0.5,1.4-1,2.3-1.2
		c0.9-0.3,1.8-0.4,2.8-0.4c1.1,0,2.1,0.2,2.9,0.7s1.4,1.1,1.9,1.9v-2.2h3.5v7.6h-3.5c0-1.4-0.4-2.5-1.1-3.4s-1.8-1.2-3-1.2
		c-1.1,0-2.1,0.3-2.8,0.8c-0.7,0.5-1.1,1.3-1.1,2.2c0,0.5,0.1,0.9,0.3,1.2c0.2,0.3,0.5,0.7,0.8,0.9c0.4,0.3,0.8,0.5,1.4,0.8
		c0.6,0.2,1.2,0.5,1.9,0.8c0.9,0.3,1.8,0.7,2.7,1.1c0.9,0.4,1.7,0.9,2.4,1.5c0.7,0.6,1.3,1.3,1.8,2.2
		C117.6,276.6,117.8,277.7,117.8,278.9z"/>
	<path class="st1" d="M139.5,280.1c-0.2,1.8-0.9,3.3-2.2,4.3c-1.2,1.1-2.8,1.6-4.6,1.6c-1,0-2-0.2-2.8-0.5c-0.8-0.3-1.6-0.8-2.2-1.4
		c-0.6-0.6-1.1-1.3-1.4-2.2c-0.3-0.8-0.5-1.8-0.5-2.8v-7.5h-3.9v-3.5h3.9v-7h3.9v7h7.3v3.5h-7.3v7.5c0,1.1,0.3,2,0.8,2.5
		c0.5,0.5,1.3,0.8,2.2,0.8c1.1,0,1.9-0.3,2.4-1c0.5-0.6,0.9-1.4,1-2.3L139.5,280.1z"/>
	<path class="st1" d="M143.7,268.2h3.9V279c0,1.3,0.3,2.3,0.8,2.8s1.3,0.8,2.2,0.8c1.4,0,2.6-0.6,3.5-1.7c0.9-1.2,1.4-2.8,1.4-4.8
		v-7.8h3.9v17.4h-3.9v-4.4c-0.4,1.5-1.1,2.7-2.1,3.5c-1,0.8-2.3,1.3-3.9,1.3c-1.8,0-3.2-0.6-4.2-1.7c-1-1.2-1.5-2.9-1.5-5.3V268.2z"
		/>
	<path class="st1" d="M180.1,285.6h-3.9V284c-0.7,0.7-1.5,1.2-2.3,1.5c-0.8,0.3-1.6,0.5-2.6,0.5c-1.1,0-2.2-0.2-3.1-0.7
		s-1.8-1.1-2.5-1.9c-0.7-0.8-1.2-1.8-1.6-2.9s-0.6-2.3-0.6-3.7c0-1.3,0.2-2.5,0.6-3.7s0.9-2.1,1.6-2.9c0.7-0.8,1.5-1.4,2.5-1.9
		s2-0.7,3.1-0.7c1,0,1.8,0.2,2.6,0.5c0.8,0.3,1.5,0.8,2.3,1.5v-5.1h-3.4v-3.5h7.2V285.6z M176.2,272.8c-0.5-0.5-1.1-0.9-1.8-1.2
		c-0.7-0.3-1.4-0.4-2.1-0.4c-1.5,0-2.6,0.5-3.6,1.6c-0.9,1-1.4,2.4-1.4,4.1s0.5,3,1.4,4.1c0.9,1,2.1,1.6,3.6,1.6
		c0.7,0,1.4-0.1,2.1-0.4c0.7-0.3,1.3-0.7,1.8-1.2V272.8z"/>
	<path class="st1" d="M199.1,285.6h-11.7v-3.5h3.8v-10.5h-3.8v-3.5h7.7v13.9h4V285.6z M195.5,265.9h-4.7v-4.7h4.7V265.9z"/>
	<path class="st1" d="M208.9,278.4c0.2,1.2,0.8,2.2,1.7,3c1,0.8,2.2,1.2,3.8,1.2c1.3,0,2.3-0.2,3.3-0.6c0.9-0.4,1.7-0.9,2.4-1.6
		l2,2.7c-1.1,1.1-2.3,1.9-3.6,2.3s-2.6,0.6-4.1,0.6c-1.3,0-2.6-0.2-3.8-0.7c-1.2-0.4-2.2-1.1-3-1.9c-0.8-0.8-1.5-1.8-2-2.9
		c-0.5-1.1-0.7-2.3-0.7-3.7c0-1.3,0.2-2.5,0.7-3.6c0.4-1.1,1.1-2.1,1.9-2.9s1.8-1.5,2.9-1.9s2.4-0.7,3.7-0.7c1.4,0,2.7,0.2,3.8,0.7
		c1.1,0.5,2.1,1.2,2.9,2.1c0.8,0.9,1.5,2,1.9,3.3c0.5,1.3,0.7,2.8,0.7,4.5H208.9z M219.1,275c-0.2-1.1-0.8-2-1.7-2.7
		c-1-0.7-2-1-3.3-1s-2.3,0.3-3.3,1c-1,0.7-1.6,1.6-1.8,2.7H219.1z"/>
	<path class="st1" d="M243.2,280.4c0,1.1-0.3,2.1-0.8,2.8c-0.5,0.7-1.2,1.3-2,1.7s-1.7,0.7-2.7,0.9c-1,0.2-2,0.3-2.9,0.3
		c-1.6,0-3.2-0.2-4.7-0.7c-1.6-0.5-2.9-1.1-4.1-1.8l1.6-3.2c1.4,0.8,2.6,1.4,3.8,1.7c1.1,0.3,2.3,0.5,3.4,0.5c1.6,0,2.7-0.2,3.4-0.5
		c0.7-0.3,1.1-0.8,1.1-1.4c0-0.3-0.1-0.5-0.3-0.7c-0.2-0.2-0.5-0.4-1-0.5c-0.5-0.2-1.1-0.3-1.8-0.5c-0.8-0.2-1.7-0.3-2.8-0.5
		c-0.9-0.1-1.7-0.3-2.5-0.6c-0.8-0.2-1.5-0.5-2.1-0.9c-0.6-0.4-1.1-0.9-1.5-1.5c-0.4-0.6-0.6-1.4-0.6-2.3c0-0.9,0.2-1.7,0.7-2.4
		c0.5-0.7,1.1-1.3,1.9-1.7c0.8-0.4,1.7-0.8,2.6-1c1-0.2,1.9-0.3,2.9-0.3c1.4,0,2.7,0.2,4,0.5c1.3,0.4,2.4,0.9,3.4,1.5l-1.5,3
		c-1-0.6-1.9-1-2.8-1.2c-0.9-0.2-1.9-0.3-3-0.3c-0.5,0-0.9,0-1.4,0.1c-0.5,0-1,0.1-1.4,0.3c-0.4,0.1-0.8,0.3-1.1,0.6
		c-0.3,0.2-0.4,0.5-0.4,0.9c0,0.5,0.4,0.8,1.2,1.1c0.8,0.3,2.2,0.6,4.2,0.9c1.1,0.1,2,0.3,2.9,0.6c0.9,0.2,1.6,0.5,2.3,0.9
		c0.6,0.4,1.1,0.9,1.5,1.5C243,278.7,243.2,279.5,243.2,280.4z"/>
</g>
</svg>
