<?xml version="1.0" encoding="utf-8"?>
<!-- Generator: Adobe Illustrator 25.0.1, SVG Export Plug-In . SVG Version: 6.00 Build 0)  -->
<svg version="1.1" id="Layer_1" xmlns="http://www.w3.org/2000/svg" xmlns:xlink="http://www.w3.org/1999/xlink" x="0px" y="0px"
	 viewBox="0 0 800 800" style="enable-background:new 0 0 800 800;" xml:space="preserve">
<style type="text/css">
	.st0{fill:#346C63;}
</style>
<g>
	<path class="st0" d="M470.7,116c-80.4-3-161.4,16.2-232,54.7C141.2,224.1,61.5,324.5,65.2,435.6c3.4,104.5,79.3,195.2,169.7,247.8
		c78.8,45.8,173,68.8,262.6,52.1S670.2,659,704,574.3c38.9-97.5,9.5-207.8-26.4-306.4c-28.3-77.7-68.4-161.9-146-190.5
		c-10.8-4-22.6-6.7-33.7-3.8c-20,5.3-31.4,28.1-30.2,48.8c1.2,20.7,11.9,39.5,23,57"/>
</g>
</svg>
