<?xml version="1.0" encoding="utf-8"?>
<!-- Generator: Adobe Illustrator 25.0.1, SVG Export Plug-In . SVG Version: 6.00 Build 0)  -->
<svg version="1.1" id="Layer_1" xmlns="http://www.w3.org/2000/svg" xmlns:xlink="http://www.w3.org/1999/xlink" x="0px" y="0px"
	 viewBox="0 0 800 800" style="enable-background:new 0 0 800 800;" xml:space="preserve">
<style type="text/css">
	.st0{fill:#BF271B;}
	.st1{fill:#EA9B41;}
</style>
<rect x="0.7" y="0.8" class="st0" width="799.3" height="799.3"/>
<g>
	<path class="st1" d="M385.9,82.6c-75.8-8.2-100.6-1.1-168.5,33.5C130.9,160.2,73.9,254.1,68.2,351s37.5,194.1,108.8,260
		s168.7,100.9,265.7,102.7c67.5,1.2,139.6-15.5,185.1-65.4c50.4-55.3,56.6-137.3,51.5-212c-3.3-48.3-11-98.4-39-137.8
		c-19.1-27-46.4-46.9-73.1-66.4c-41.4-30.1-82.8-60.3-124.2-90.4C413.8,120.5,433,87,385.9,82.6"/>
</g>
</svg>
