<?xml version="1.0" encoding="utf-8"?>
<!-- Generator: Adobe Illustrator 24.1.2, SVG Export Plug-In . SVG Version: 6.00 Build 0)  -->
<svg version="1.1" id="Layer_1" xmlns="http://www.w3.org/2000/svg" xmlns:xlink="http://www.w3.org/1999/xlink" x="0px" y="0px"
	 viewBox="0 0 903.8 536.9" style="enable-background:new 0 0 903.8 536.9;" xml:space="preserve">
<style type="text/css">
	.st0{fill:#346C63;}
	.st1{fill:#FFFFFF;}
</style>
<path class="st0" d="M322.9,242.8C370,194.4,414,142.7,465.1,98.5s110.6-81.3,177-94s140.3,1.8,188.7,49
	c38.5,37.5,57.3,90.9,66.8,143.8c7,38.9,9.7,79.5-0.5,117.7C874.3,400.1,790.9,457.8,705,477.8s-175.5,9.7-263.5,3
	s-179.5-9.3-260.9,24.5c-37,15.4-75.1,38.6-114.3,29.7C22,525-4.1,474.2,0.5,428.9s32.6-84.8,64.2-117.7
	C128,245.4,214.6,195.9,306,198.6c26.2,0.8,59.4,14,57.6,40.2"/>
<g>
	<path class="st1" d="M374.2,270.8h-16.4v7.7h12.9v5.1h-12.9V296h-6.3v-30.3h22.7V270.8z"/>
	<path class="st1" d="M385.1,262.9v26c0,1.1,0.2,1.8,0.6,2.3c0.4,0.4,1,0.6,1.8,0.6c0.5,0,0.9,0,1.3-0.1c0.3-0.1,0.8-0.2,1.3-0.3
		l-0.6,4.1c-0.5,0.3-1.2,0.5-2,0.7c-0.8,0.2-1.6,0.3-2.3,0.3c-2.2,0-3.9-0.5-4.9-1.6c-1-1.1-1.5-2.8-1.5-5.2v-26.7H385.1z"/>
	<path class="st1" d="M406.9,281.3c0-1.3-0.4-2.3-1.1-3.1c-0.8-0.7-1.7-1.1-3-1.1c-1.1,0-2.1,0.3-3,0.9c-0.9,0.6-1.5,1.5-1.9,2.9
		l-5.4-1.7c0.5-2,1.7-3.6,3.4-4.9c1.8-1.2,4.1-1.8,7.1-1.8c2,0,3.8,0.3,5.3,0.9c1.5,0.6,2.7,1.6,3.5,2.8c0.8,1.3,1.3,2.8,1.3,4.7
		v9.3c0,1.2,0.6,1.7,1.7,1.7c0.5,0,1-0.1,1.5-0.2l-0.4,3.9c-0.8,0.4-1.8,0.6-3,0.6c-1.1,0-2-0.2-2.9-0.6c-0.9-0.4-1.5-0.9-2-1.7
		c-0.5-0.8-0.7-1.7-0.7-2.8v-0.2l1.1-0.2c-0.2,1.2-0.7,2.2-1.5,3c-0.8,0.8-1.8,1.4-3,1.9c-1.2,0.4-2.4,0.6-3.7,0.6
		c-1.6,0-2.9-0.2-4-0.7c-1.1-0.5-2-1.2-2.6-2.1c-0.6-0.9-0.9-2.1-0.9-3.4c0-1.7,0.6-3.1,1.7-4.2c1.1-1.1,2.7-1.8,4.7-2.2l8.6-1.7
		l0,3.9l-5.5,1.1c-1,0.2-1.8,0.5-2.4,0.8c-0.5,0.4-0.8,0.9-0.8,1.7c0,0.8,0.3,1.3,0.9,1.7s1.2,0.6,2,0.6c0.6,0,1.3-0.1,1.9-0.2
		c0.6-0.2,1.2-0.4,1.7-0.7c0.5-0.3,0.9-0.8,1.1-1.4s0.4-1.3,0.4-2.1V281.3z"/>
	<path class="st1" d="M434.8,273v4.7h-17.9V273H434.8z M427.4,266v22.5c0,1.1,0.3,1.9,0.9,2.4c0.6,0.5,1.3,0.8,2.3,0.8
		c0.8,0,1.4-0.1,2-0.3c0.6-0.2,1.1-0.5,1.6-0.9l1,4.2c-0.7,0.6-1.7,1-2.8,1.4s-2.3,0.5-3.5,0.5c-1.5,0-2.9-0.2-4.1-0.7
		c-1.2-0.5-2.1-1.2-2.8-2.2c-0.7-1-1-2.4-1-4v-21.8L427.4,266z"/>
	<path class="st1" d="M442.2,269.7c-1.3,0-2.3-0.3-2.9-0.9c-0.6-0.6-1-1.4-1-2.5c0-1.1,0.3-2,1-2.6c0.6-0.6,1.6-0.8,2.9-0.8
		c1.3,0,2.3,0.3,2.9,0.8c0.6,0.6,1,1.4,1,2.6c0,1.1-0.3,1.9-1,2.5C444.5,269.4,443.5,269.7,442.2,269.7z M445.3,273v23H439v-23
		H445.3z"/>
	<path class="st1" d="M452,296v-23h5.5l0.4,4.5c0.6-1.6,1.5-2.8,2.7-3.7c1.2-0.9,2.7-1.3,4.4-1.3c0.5,0,1,0,1.4,0.1
		c0.4,0.1,0.8,0.2,1.1,0.4l-0.7,5.3c-0.3-0.1-0.7-0.2-1.1-0.3c-0.4-0.1-1-0.1-1.7-0.1c-0.9,0-1.8,0.2-2.7,0.7
		c-0.9,0.4-1.6,1.1-2.1,2c-0.6,0.9-0.8,2-0.8,3.4V296H452z"/>
	<path class="st1" d="M481.4,272.5c2.3,0,4.4,0.5,6.1,1.4s3.1,2.3,4.1,4.1c1,1.8,1.5,3.9,1.5,6.4c0,2.5-0.5,4.6-1.5,6.4
		s-2.4,3.2-4.1,4.1c-1.8,1-3.8,1.4-6.1,1.4c-2.3,0-4.3-0.5-6.1-1.4c-1.8-0.9-3.2-2.3-4.2-4.1c-1-1.8-1.5-3.9-1.5-6.4
		c0-2.5,0.5-4.7,1.5-6.4c1-1.8,2.4-3.1,4.2-4.1C477.1,273,479.1,272.5,481.4,272.5z M481.4,277.2c-1.2,0-2.2,0.3-3,0.8
		c-0.8,0.5-1.4,1.3-1.9,2.4s-0.6,2.4-0.6,4s0.2,3,0.6,4c0.4,1.1,1,1.9,1.9,2.4c0.8,0.5,1.8,0.8,3,0.8c1.1,0,2.1-0.3,2.9-0.8
		c0.8-0.5,1.4-1.3,1.9-2.4c0.4-1.1,0.6-2.4,0.6-4s-0.2-3-0.6-4s-1-1.9-1.9-2.4C483.5,277.5,482.5,277.2,481.4,277.2z"/>
	<path class="st1" d="M498.4,296v-23h5.7l0.4,6.9l-0.8-0.7c0.4-1.5,0.9-2.7,1.7-3.7c0.8-1,1.8-1.7,2.9-2.2c1.1-0.5,2.4-0.7,3.8-0.7
		c1.6,0,3,0.3,4.2,0.9c1.2,0.6,2.2,1.5,2.9,2.8c0.7,1.2,1.1,2.8,1.1,4.7V296h-6.3v-13.3c0-2-0.4-3.3-1.1-4.1c-0.8-0.8-1.8-1.1-3-1.1
		c-0.9,0-1.7,0.2-2.5,0.6c-0.8,0.4-1.5,1.1-2,2c-0.5,0.9-0.8,2.1-0.8,3.7V296H498.4z"/>
	<path class="st1" d="M561.9,273l-8.9,12.4l-1.9-0.1l-6.7,10.8h-7.1l9.5-13l1.8,0.2l6.2-10.2H561.9z M545.1,273l6.1,10.1l1.7,0
		l9.2,13h-7.3l-6.3-10.3l-1.8-0.2l-8.9-12.5H545.1z"/>
	<path class="st1" d="M591,265.2c2.8,0,5.2,0.5,7.3,1.4c2.1,1,3.9,2.4,5.3,4.2l-3.5,4.1c-1.3-1.6-2.6-2.8-4.1-3.5
		c-1.5-0.8-3.2-1.1-5.2-1.1c-1.3,0-2.4,0.2-3.2,0.5c-0.8,0.3-1.5,0.8-1.8,1.3c-0.4,0.6-0.6,1.2-0.6,1.8c0,0.8,0.3,1.5,1,2.1
		c0.6,0.6,1.7,1,3.3,1.4l5.7,1.3c3,0.7,5.2,1.7,6.5,3c1.3,1.3,2,3.1,2,5.2c0,2-0.5,3.7-1.6,5.1c-1,1.4-2.5,2.5-4.4,3.3
		c-1.9,0.8-4,1.1-6.4,1.1c-2.1,0-4.1-0.3-5.8-0.8c-1.8-0.5-3.3-1.2-4.7-2.1c-1.4-0.9-2.5-1.9-3.4-3.1l3.6-4.3c0.7,1,1.6,1.9,2.6,2.6
		c1,0.8,2.2,1.4,3.6,1.8c1.3,0.4,2.7,0.7,4.2,0.7c1.3,0,2.3-0.1,3.2-0.4s1.5-0.7,2-1.2c0.4-0.5,0.7-1.2,0.7-2c0-0.8-0.3-1.5-0.8-2
		c-0.5-0.6-1.5-1-3-1.3l-6.2-1.4c-1.8-0.4-3.3-1-4.6-1.7c-1.3-0.7-2.2-1.6-2.9-2.7c-0.7-1.1-1-2.4-1-3.9c0-1.8,0.5-3.4,1.5-4.9
		c1-1.4,2.4-2.6,4.2-3.4C586.2,265.6,588.4,265.2,591,265.2z"/>
	<path class="st1" d="M619.6,296.4c-2.4,0-4.5-0.5-6.3-1.4c-1.8-0.9-3.2-2.3-4.2-4.1c-1-1.8-1.5-3.9-1.5-6.4s0.5-4.7,1.5-6.4
		c1-1.8,2.4-3.1,4.1-4.1s3.8-1.4,6-1.4c2.3,0,4.3,0.5,5.9,1.4c1.6,0.9,2.9,2.2,3.7,3.8c0.9,1.6,1.3,3.4,1.3,5.5c0,0.6,0,1.2,0,1.7
		c0,0.6-0.1,1-0.1,1.5h-18.3v-4.4h15.6l-3,1.1c0-1.9-0.4-3.4-1.3-4.5c-0.9-1-2.1-1.6-3.7-1.6c-1.2,0-2.2,0.3-3,0.8
		c-0.8,0.6-1.5,1.4-1.9,2.5c-0.4,1.1-0.6,2.5-0.6,4.1c0,1.6,0.2,3,0.7,4c0.5,1.1,1.1,1.8,2,2.4c0.9,0.5,1.9,0.8,3.1,0.8
		c1.3,0,2.4-0.3,3.3-0.8c0.8-0.5,1.5-1.2,1.9-2.2l5,1.9c-0.5,1.2-1.2,2.2-2.2,3.1c-1,0.9-2.2,1.5-3.5,2
		C622.6,296.2,621.1,296.4,619.6,296.4z"/>
	<path class="st1" d="M648.6,281.3c0-1.3-0.4-2.3-1.1-3.1c-0.8-0.7-1.7-1.1-3-1.1c-1.1,0-2.1,0.3-3,0.9c-0.9,0.6-1.5,1.5-1.9,2.9
		l-5.4-1.7c0.5-2,1.7-3.6,3.4-4.9c1.8-1.2,4.1-1.8,7.1-1.8c2,0,3.8,0.3,5.3,0.9c1.5,0.6,2.7,1.6,3.5,2.8c0.8,1.3,1.3,2.8,1.3,4.7
		v9.3c0,1.2,0.6,1.7,1.7,1.7c0.5,0,1-0.1,1.5-0.2l-0.4,3.9c-0.8,0.4-1.8,0.6-3,0.6c-1.1,0-2-0.2-2.9-0.6c-0.9-0.4-1.5-0.9-2-1.7
		c-0.5-0.8-0.7-1.7-0.7-2.8v-0.2l1.1-0.2c-0.2,1.2-0.7,2.2-1.5,3c-0.8,0.8-1.8,1.4-3,1.9c-1.2,0.4-2.4,0.6-3.7,0.6
		c-1.6,0-2.9-0.2-4-0.7c-1.1-0.5-2-1.2-2.6-2.1c-0.6-0.9-0.9-2.1-0.9-3.4c0-1.7,0.6-3.1,1.7-4.2c1.1-1.1,2.7-1.8,4.7-2.2l8.6-1.7
		l0,3.9l-5.5,1.1c-1,0.2-1.8,0.5-2.4,0.8c-0.5,0.4-0.8,0.9-0.8,1.7c0,0.8,0.3,1.3,0.8,1.7c0.6,0.4,1.2,0.6,2,0.6
		c0.6,0,1.3-0.1,1.9-0.2c0.6-0.2,1.2-0.4,1.7-0.7c0.5-0.3,0.9-0.8,1.1-1.4c0.3-0.6,0.4-1.3,0.4-2.1V281.3z"/>
	<path class="st1" d="M676.5,273v4.7h-17.9V273H676.5z M669.1,266v22.5c0,1.1,0.3,1.9,0.9,2.4c0.6,0.5,1.3,0.8,2.3,0.8
		c0.8,0,1.4-0.1,2-0.3s1.1-0.5,1.6-0.9l1,4.2c-0.7,0.6-1.7,1-2.8,1.4s-2.3,0.5-3.5,0.5c-1.5,0-2.9-0.2-4.1-0.7
		c-1.2-0.5-2.1-1.2-2.8-2.2c-0.7-1-1-2.4-1-4v-21.8L669.1,266z"/>
	<path class="st1" d="M693.8,296.4c-2.8,0-5.2-0.6-7.3-1.8c-2.1-1.2-3.7-3-4.9-5.3c-1.2-2.3-1.7-5.1-1.7-8.4c0-3.2,0.6-6,1.8-8.4
		c1.2-2.3,3-4.1,5.2-5.4c2.3-1.3,4.9-1.9,7.8-1.9c3.3,0,5.9,0.6,7.9,1.8c2,1.2,3.6,3.1,4.8,5.6l-5.9,2.5c-0.5-1.6-1.3-2.8-2.5-3.6
		c-1.2-0.8-2.6-1.2-4.3-1.2c-1.7,0-3.2,0.4-4.5,1.2c-1.3,0.8-2.2,2-2.9,3.5c-0.7,1.5-1,3.4-1,5.7c0,2.3,0.3,4.2,1,5.8
		c0.6,1.6,1.6,2.8,2.9,3.5s2.8,1.2,4.7,1.2c1,0,2-0.1,2.8-0.4c0.9-0.2,1.6-0.6,2.3-1.1c0.6-0.5,1.1-1.1,1.5-1.9
		c0.4-0.8,0.6-1.7,0.6-2.7v-0.7h-8V280h13.4v16h-4.5l-0.5-6.6l1.1,0.8c-0.7,2-1.9,3.6-3.6,4.7C698.5,295.9,696.4,296.4,693.8,296.4z
		"/>
	<path class="st1" d="M724.6,296.4c-2.4,0-4.5-0.5-6.3-1.4c-1.8-0.9-3.2-2.3-4.2-4.1c-1-1.8-1.5-3.9-1.5-6.4s0.5-4.7,1.5-6.4
		c1-1.8,2.4-3.1,4.1-4.1s3.8-1.4,6-1.4c2.3,0,4.3,0.5,5.9,1.4c1.6,0.9,2.9,2.2,3.7,3.8c0.9,1.6,1.3,3.4,1.3,5.5c0,0.6,0,1.2,0,1.7
		c0,0.6-0.1,1-0.1,1.5h-18.3v-4.4h15.6l-3,1.1c0-1.9-0.4-3.4-1.3-4.5c-0.9-1-2.1-1.6-3.7-1.6c-1.2,0-2.2,0.3-3,0.8
		c-0.8,0.6-1.5,1.4-1.9,2.5c-0.4,1.1-0.6,2.5-0.6,4.1c0,1.6,0.2,3,0.7,4c0.5,1.1,1.1,1.8,2,2.4c0.9,0.5,1.9,0.8,3.1,0.8
		c1.3,0,2.4-0.3,3.3-0.8c0.8-0.5,1.5-1.2,1.9-2.2l5,1.9c-0.5,1.2-1.2,2.2-2.2,3.1c-1,0.9-2.2,1.5-3.5,2
		C727.6,296.2,726.2,296.4,724.6,296.4z"/>
	<path class="st1" d="M751.2,296.4c-2.4,0-4.5-0.5-6.3-1.4c-1.8-0.9-3.2-2.3-4.2-4.1c-1-1.8-1.5-3.9-1.5-6.4s0.5-4.7,1.5-6.4
		c1-1.8,2.4-3.1,4.1-4.1s3.8-1.4,6-1.4c2.3,0,4.3,0.5,5.9,1.4c1.6,0.9,2.9,2.2,3.7,3.8c0.9,1.6,1.3,3.4,1.3,5.5c0,0.6,0,1.2,0,1.7
		c0,0.6-0.1,1-0.1,1.5h-18.3v-4.4h15.6l-3,1.1c0-1.9-0.4-3.4-1.3-4.5c-0.9-1-2.1-1.6-3.7-1.6c-1.2,0-2.2,0.3-3,0.8
		c-0.8,0.6-1.5,1.4-1.9,2.5c-0.4,1.1-0.6,2.5-0.6,4.1c0,1.6,0.2,3,0.7,4c0.5,1.1,1.1,1.8,2,2.4c0.9,0.5,1.9,0.8,3.1,0.8
		c1.3,0,2.4-0.3,3.3-0.8c0.8-0.5,1.5-1.2,1.9-2.2l5,1.9c-0.5,1.2-1.2,2.2-2.2,3.1c-1,0.9-2.2,1.5-3.5,2
		C754.2,296.2,752.8,296.4,751.2,296.4z"/>
	<path class="st1" d="M773.5,262.9v33h-6.3v-33H773.5z M790.5,273l-10.6,11.1l-1.2,0.6l-6.9,7.4l-0.1-6.7l11.7-12.4H790.5z
		 M780.8,280.3l10.3,15.7H784l-7.5-12L780.8,280.3z"/>
	<path class="st1" d="M360.6,351.6c-2.7,0-4.9-0.6-6.7-1.7c-1.8-1.1-3.3-2.8-4.5-5.1l5.7-2.8c0.4,1.3,1,2.4,1.9,3.3
		c0.9,0.8,2.1,1.2,3.8,1.2c1.1,0,2.1-0.2,2.9-0.6c0.8-0.4,1.4-1,1.9-1.7c0.4-0.8,0.7-1.7,0.7-2.8c0-1.1-0.2-2-0.6-2.8
		c-0.4-0.8-1-1.3-1.8-1.7c-0.8-0.4-1.7-0.6-2.9-0.6c-0.8,0-1.5,0.1-2.2,0.2c-0.7,0.2-1.3,0.4-1.9,0.7c-0.6,0.3-1,0.7-1.5,1.3l-5-0.9
		l1.9-16.8h18.3v5.1h-13.6l-0.9,7.4l-0.1,0.6h0.1c0.6-0.7,1.5-1.3,2.6-1.7c1.1-0.4,2.4-0.6,3.8-0.6c2,0,3.7,0.4,5.1,1.2
		c1.4,0.8,2.5,1.9,3.3,3.3c0.8,1.4,1.1,3.1,1.1,4.9c0,1.7-0.3,3.3-0.9,4.6c-0.6,1.3-1.4,2.4-2.5,3.3c-1.1,0.9-2.3,1.5-3.7,2
		C363.7,351.4,362.2,351.6,360.6,351.6z"/>
	<path class="st1" d="M388.9,351.6c-3.9,0-6.9-1.3-9-4c-2.1-2.6-3.1-6.5-3.1-11.7c0-5.1,1-9,3.1-11.7c2.1-2.6,5.1-4,9-4
		c3.9,0,6.9,1.3,9,4c2.1,2.6,3.1,6.5,3.1,11.7c0,5.1-1,9-3.1,11.7C395.7,350.3,392.7,351.6,388.9,351.6z M388.9,346.5
		c1.3,0,2.4-0.4,3.2-1.1c0.8-0.8,1.5-1.9,1.9-3.4c0.4-1.5,0.6-3.5,0.6-6c0-2.4-0.2-4.4-0.6-6c-0.4-1.5-1.1-2.7-1.9-3.4
		c-0.8-0.8-1.9-1.1-3.2-1.1c-1.3,0-2.4,0.4-3.3,1.1c-0.9,0.8-1.5,1.9-1.9,3.4s-0.6,3.5-0.6,6c0,2.4,0.2,4.4,0.6,6s1,2.7,1.9,3.4
		C386.4,346.1,387.5,346.5,388.9,346.5z"/>
	<path class="st1" d="M422.7,318.1l-13.3,36.3h-5.8l13.3-36.3H422.7z"/>
	<path class="st1" d="M436.7,351.6c-2.7,0-4.9-0.6-6.7-1.7c-1.8-1.1-3.3-2.8-4.5-5.1l5.7-2.8c0.4,1.3,1,2.4,1.9,3.3
		c0.9,0.8,2.1,1.2,3.8,1.2c1.1,0,2.1-0.2,2.9-0.6c0.8-0.4,1.4-1,1.9-1.7c0.4-0.8,0.7-1.7,0.7-2.8c0-1.1-0.2-2-0.6-2.8
		c-0.4-0.8-1-1.3-1.8-1.7c-0.8-0.4-1.7-0.6-2.9-0.6c-0.8,0-1.5,0.1-2.2,0.2c-0.7,0.2-1.3,0.4-1.9,0.7c-0.6,0.3-1,0.7-1.5,1.3l-5-0.9
		l1.9-16.8h18.3v5.1h-13.6l-0.9,7.4l-0.1,0.6h0.1c0.6-0.7,1.5-1.3,2.6-1.7c1.1-0.4,2.4-0.6,3.8-0.6c2,0,3.7,0.4,5.1,1.2
		c1.4,0.8,2.5,1.9,3.3,3.3c0.8,1.4,1.1,3.1,1.1,4.9c0,1.7-0.3,3.3-0.9,4.6c-0.6,1.3-1.4,2.4-2.5,3.3c-1.1,0.9-2.3,1.5-3.7,2
		C439.8,351.4,438.3,351.6,436.7,351.6z"/>
	<path class="st1" d="M464.9,351.6c-3.9,0-6.9-1.3-9-4c-2.1-2.6-3.1-6.5-3.1-11.7c0-5.1,1-9,3.1-11.7c2.1-2.6,5.1-4,9-4
		c3.9,0,6.9,1.3,9,4c2.1,2.6,3.1,6.5,3.1,11.7c0,5.1-1,9-3.1,11.7C471.8,350.3,468.8,351.6,464.9,351.6z M464.9,346.5
		c1.3,0,2.4-0.4,3.2-1.1c0.8-0.8,1.5-1.9,1.9-3.4c0.4-1.5,0.6-3.5,0.6-6c0-2.4-0.2-4.4-0.6-6c-0.4-1.5-1.1-2.7-1.9-3.4
		c-0.8-0.8-1.9-1.1-3.2-1.1c-1.3,0-2.4,0.4-3.3,1.1c-0.9,0.8-1.5,1.9-1.9,3.4c-0.4,1.5-0.6,3.5-0.6,6c0,2.4,0.2,4.4,0.6,6
		c0.4,1.5,1,2.7,1.9,3.4C462.5,346.1,463.6,346.5,464.9,346.5z"/>
	<path class="st1" d="M508.6,320.3c2.8,0,5.2,0.5,7.3,1.4c2.1,1,3.9,2.4,5.3,4.2l-3.5,4.1c-1.3-1.6-2.6-2.8-4.1-3.5
		c-1.5-0.8-3.2-1.1-5.2-1.1c-1.3,0-2.4,0.2-3.2,0.5c-0.8,0.3-1.5,0.8-1.8,1.3c-0.4,0.6-0.6,1.2-0.6,1.8c0,0.8,0.3,1.5,1,2.1
		c0.6,0.6,1.7,1,3.3,1.4l5.7,1.3c3,0.7,5.2,1.7,6.5,3c1.3,1.3,2,3.1,2,5.2c0,2-0.5,3.7-1.6,5.1c-1,1.4-2.5,2.5-4.4,3.3
		c-1.9,0.8-4,1.1-6.4,1.1c-2.1,0-4.1-0.3-5.8-0.8c-1.8-0.5-3.3-1.2-4.7-2.1c-1.4-0.9-2.5-1.9-3.4-3.1l3.6-4.3c0.7,1,1.6,1.9,2.6,2.6
		c1,0.8,2.2,1.4,3.6,1.8c1.3,0.4,2.7,0.7,4.2,0.7c1.3,0,2.3-0.1,3.2-0.4s1.5-0.7,2-1.2c0.4-0.5,0.7-1.2,0.7-2c0-0.8-0.3-1.5-0.8-2
		c-0.5-0.6-1.5-1-3-1.3l-6.2-1.4c-1.8-0.4-3.3-1-4.6-1.7c-1.3-0.7-2.2-1.6-2.9-2.7c-0.7-1.1-1-2.4-1-3.9c0-1.8,0.5-3.4,1.5-4.9
		c1-1.4,2.4-2.6,4.2-3.4C503.8,320.8,506,320.3,508.6,320.3z"/>
	<path class="st1" d="M536.9,327.7c2.1,0,3.8,0.3,5.2,0.9c1.4,0.6,2.6,1.4,3.4,2.4c0.9,1,1.5,2.2,1.9,3.4l-5.9,2.1
		c-0.3-1.4-0.8-2.4-1.6-3.1c-0.7-0.7-1.7-1.1-3-1.1c-1.2,0-2.2,0.3-3,0.8c-0.8,0.5-1.5,1.3-1.9,2.4c-0.4,1.1-0.6,2.4-0.6,4.1
		s0.2,3,0.7,4c0.4,1.1,1.1,1.9,1.9,2.4c0.8,0.5,1.8,0.8,3,0.8c0.9,0,1.7-0.2,2.3-0.5c0.6-0.3,1.2-0.8,1.6-1.4
		c0.4-0.6,0.7-1.3,0.9-2.2l5.7,1.8c-0.3,1.4-1,2.6-1.9,3.6s-2.1,1.9-3.5,2.4c-1.4,0.6-3.1,0.9-5,0.9c-2.4,0-4.4-0.5-6.2-1.4
		c-1.8-0.9-3.2-2.3-4.2-4.1c-1-1.8-1.5-3.9-1.5-6.4s0.5-4.7,1.5-6.4c1-1.8,2.4-3.1,4.1-4.1C532.6,328.2,534.6,327.7,536.9,327.7z"/>
	<path class="st1" d="M552.4,351.1v-33h6.3v14c0.7-1.5,1.7-2.6,3-3.3c1.3-0.7,2.7-1.1,4.4-1.1c1.6,0,3,0.3,4.2,0.9
		c1.2,0.6,2.2,1.5,2.9,2.8c0.7,1.2,1.1,2.8,1.1,4.7v15.1h-6.3v-13.2c0-2-0.4-3.4-1.1-4.1c-0.8-0.8-1.7-1.1-2.9-1.1
		c-0.9,0-1.7,0.2-2.5,0.6c-0.8,0.4-1.5,1.1-2,2c-0.5,0.9-0.8,2.2-0.8,3.7v12.1H552.4z"/>
	<path class="st1" d="M591.3,327.7c2.3,0,4.4,0.5,6.1,1.4s3.1,2.3,4.1,4.1c1,1.8,1.5,3.9,1.5,6.4c0,2.5-0.5,4.6-1.5,6.4
		s-2.4,3.2-4.1,4.1c-1.8,1-3.8,1.4-6.1,1.4c-2.3,0-4.3-0.5-6.1-1.4c-1.8-0.9-3.2-2.3-4.2-4.1c-1-1.8-1.5-3.9-1.5-6.4
		c0-2.5,0.5-4.7,1.5-6.4c1-1.8,2.4-3.1,4.2-4.1C587,328.2,589,327.7,591.3,327.7z M591.3,332.4c-1.2,0-2.2,0.3-3,0.8
		c-0.8,0.5-1.4,1.3-1.9,2.4s-0.6,2.4-0.6,4s0.2,3,0.6,4c0.4,1.1,1,1.9,1.9,2.4c0.8,0.5,1.8,0.8,3,0.8c1.1,0,2.1-0.3,2.9-0.8
		c0.8-0.5,1.4-1.3,1.9-2.4c0.4-1.1,0.6-2.4,0.6-4s-0.2-3-0.6-4s-1-1.9-1.9-2.4C593.4,332.6,592.4,332.4,591.3,332.4z"/>
	<path class="st1" d="M614.6,318.1v26c0,1.1,0.2,1.8,0.6,2.3c0.4,0.4,1,0.6,1.8,0.6c0.5,0,0.9,0,1.3-0.1s0.8-0.2,1.3-0.3l-0.6,4.1
		c-0.5,0.3-1.2,0.5-2,0.7c-0.8,0.2-1.6,0.3-2.3,0.3c-2.2,0-3.9-0.5-4.9-1.6c-1-1.1-1.5-2.8-1.5-5.2v-26.7H614.6z"/>
	<path class="st1" d="M636.3,336.5c0-1.3-0.4-2.3-1.1-3.1c-0.8-0.7-1.7-1.1-3-1.1c-1.1,0-2.1,0.3-3,0.9c-0.9,0.6-1.5,1.5-1.9,2.9
		l-5.4-1.7c0.5-2,1.7-3.6,3.4-4.9c1.8-1.2,4.1-1.8,7.1-1.8c2,0,3.8,0.3,5.3,0.9c1.5,0.6,2.7,1.6,3.5,2.8c0.8,1.3,1.3,2.8,1.3,4.7
		v9.3c0,1.2,0.6,1.7,1.7,1.7c0.5,0,1-0.1,1.5-0.2l-0.4,3.9c-0.8,0.4-1.8,0.6-3,0.6c-1.1,0-2-0.2-2.9-0.6c-0.9-0.4-1.5-0.9-2-1.7
		c-0.5-0.8-0.7-1.7-0.7-2.8v-0.2l1.1-0.2c-0.2,1.2-0.7,2.2-1.5,3c-0.8,0.8-1.8,1.4-3,1.9c-1.2,0.4-2.4,0.6-3.7,0.6
		c-1.6,0-2.9-0.2-4-0.7c-1.1-0.5-2-1.2-2.6-2.1c-0.6-0.9-0.9-2.1-0.9-3.4c0-1.7,0.6-3.1,1.7-4.2c1.1-1.1,2.7-1.8,4.7-2.2l8.6-1.7
		l0,3.9l-5.5,1.1c-1,0.2-1.8,0.5-2.4,0.8c-0.5,0.4-0.8,0.9-0.8,1.7c0,0.8,0.3,1.3,0.8,1.7c0.6,0.4,1.2,0.6,2,0.6
		c0.6,0,1.3-0.1,1.9-0.2c0.6-0.2,1.2-0.4,1.7-0.7c0.5-0.3,0.9-0.8,1.1-1.4c0.3-0.6,0.4-1.3,0.4-2.1V336.5z"/>
	<path class="st1" d="M649.6,351.1v-23h5.5l0.4,4.5c0.6-1.6,1.5-2.8,2.7-3.7c1.2-0.9,2.7-1.3,4.4-1.3c0.5,0,1,0,1.4,0.1
		s0.8,0.2,1.1,0.4l-0.7,5.3c-0.3-0.1-0.7-0.2-1.1-0.3c-0.4-0.1-1-0.1-1.7-0.1c-0.9,0-1.8,0.2-2.7,0.7c-0.9,0.4-1.6,1.1-2.1,2
		s-0.8,2-0.8,3.4v11.9H649.6z"/>
	<path class="st1" d="M677.6,351.6c-2.3,0-4.4-0.4-6.4-1.2c-1.9-0.8-3.5-2-4.7-3.5l3.6-3.7c0.7,1.1,1.7,2,2.9,2.7
		c1.2,0.7,2.7,1.1,4.4,1.1c1.2,0,2.2-0.2,2.9-0.5c0.7-0.4,1.1-0.9,1.1-1.7c0-0.5-0.2-0.9-0.5-1.3s-1-0.6-2-0.9l-4-0.8
		c-2.7-0.6-4.6-1.4-5.7-2.5s-1.7-2.6-1.7-4.3c0-1.3,0.4-2.4,1.1-3.5c0.8-1.1,1.9-2,3.4-2.7c1.5-0.7,3.4-1,5.6-1c2.3,0,4.3,0.4,6,1.1
		s3,1.8,4,3.2l-3.8,3.7c-0.7-1.1-1.6-1.9-2.6-2.5c-1.1-0.6-2.2-0.9-3.4-0.9c-0.9,0-1.6,0.1-2.2,0.3c-0.6,0.2-1.1,0.4-1.4,0.8
		c-0.3,0.3-0.5,0.7-0.5,1.2s0.2,0.9,0.6,1.3c0.4,0.4,1.2,0.7,2.3,0.9l4.7,1c2.3,0.5,3.9,1.2,4.9,2.3c1,1.1,1.5,2.4,1.5,3.9
		c0,1.5-0.4,2.8-1.2,3.9c-0.8,1.1-1.9,2.1-3.4,2.7C681.7,351.2,679.8,351.6,677.6,351.6z"/>
	<path class="st1" d="M692.8,351.1v-33h6.3v14c0.7-1.5,1.7-2.6,3-3.3c1.3-0.7,2.7-1.1,4.4-1.1c1.6,0,3,0.3,4.2,0.9
		c1.2,0.6,2.2,1.5,2.9,2.8c0.7,1.2,1.1,2.8,1.1,4.7v15.1h-6.3v-13.2c0-2-0.4-3.4-1.1-4.1c-0.8-0.8-1.7-1.1-2.9-1.1
		c-0.9,0-1.7,0.2-2.5,0.6c-0.8,0.4-1.5,1.1-2,2c-0.5,0.9-0.8,2.2-0.8,3.7v12.1H692.8z"/>
	<path class="st1" d="M724.4,324.8c-1.3,0-2.3-0.3-2.9-0.9c-0.6-0.6-1-1.4-1-2.5c0-1.1,0.3-2,1-2.6c0.6-0.6,1.6-0.8,2.9-0.8
		s2.3,0.3,2.9,0.8c0.6,0.6,1,1.4,1,2.6c0,1.1-0.3,1.9-1,2.5C726.7,324.6,725.7,324.8,724.4,324.8z M727.5,328.1v23h-6.3v-23H727.5z"
		/>
	<path class="st1" d="M734.2,360.8v-32.6h5.7l0.4,7.3l-0.8-0.8c0.3-1.3,0.8-2.5,1.5-3.6c0.8-1,1.7-1.9,2.9-2.5
		c1.2-0.6,2.5-0.9,3.9-0.9c1.9,0,3.5,0.5,5,1.4c1.5,0.9,2.6,2.3,3.5,4.1c0.8,1.8,1.3,3.9,1.3,6.4s-0.4,4.7-1.3,6.5s-2,3.2-3.5,4.1
		c-1.5,1-3.2,1.4-5.1,1.4c-2,0-3.7-0.6-5-1.7c-1.3-1.1-2.2-2.6-2.7-4.3l0.6-1v16.1H734.2z M745.8,346.8c1.7,0,3-0.6,4-1.8
		c1-1.2,1.4-3,1.4-5.3s-0.5-4.1-1.4-5.3c-0.9-1.2-2.2-1.8-3.9-1.8c-1.1,0-2,0.3-2.8,0.8c-0.8,0.6-1.4,1.4-1.9,2.4
		c-0.5,1.1-0.7,2.3-0.7,3.8c0,1.5,0.2,2.7,0.6,3.8c0.4,1.1,1,1.9,1.9,2.5C743.8,346.5,744.8,346.8,745.8,346.8z"/>
</g>
</svg>
