<?xml version="1.0" encoding="utf-8"?>
<!-- Generator: Adobe Illustrator 24.0.1, SVG Export Plug-In . SVG Version: 6.00 Build 0)  -->
<svg version="1.1" id="Layer_1" xmlns="http://www.w3.org/2000/svg" xmlns:xlink="http://www.w3.org/1999/xlink" x="0px" y="0px"
	 viewBox="0 0 903.8 536.9" style="enable-background:new 0 0 903.8 536.9;" xml:space="preserve">
<style type="text/css">
	.st0{fill:#273F83;}
	.st1{enable-background:new    ;}
	.st2{fill:#FFFFFF;}
</style>
<path class="st0" d="M322.9,242.8C370,194.4,414,142.7,465.1,98.5s110.6-81.3,177-94s140.3,1.8,188.7,49
	c38.5,37.5,57.3,90.9,66.8,143.8c7,38.9,9.7,79.5-0.5,117.7C874.3,400.1,790.9,457.8,705,477.8s-175.5,9.7-263.5,3
	s-179.5-9.3-260.9,24.5c-37,15.4-75.1,38.6-114.3,29.7C22,525-4.1,474.2,0.5,428.9s32.6-84.8,64.2-117.7
	C128,245.4,214.6,195.9,306,198.6c26.2,0.8,59.4,14,57.6,40.2"/>
<g class="st1">
	<path class="st2" d="M370.1,272.6h-13.7v7.9h10.7v4.1h-10.7v12.5h-4.5v-28.5h18.2V272.6z M392.3,297.1h-13.7V293h4.5v-20.4h-4.5
		v-4.1h9V293h4.7V297.1z M399.5,291.2c0-1.2,0.3-2.2,1-3.1c0.6-0.9,1.5-1.6,2.5-2.2s2.2-1,3.6-1.3c1.3-0.3,2.7-0.4,4.1-0.4h2
		c0.6,0,1.1,0.1,1.7,0.1v-0.8c0-1.1-0.4-1.9-1.2-2.4c-0.8-0.5-1.9-0.8-3.2-0.8c-1.2,0-2.5,0.2-3.7,0.5s-2.5,0.8-3.6,1.5l-1.8-3.5
		c1.3-0.8,2.8-1.4,4.3-1.8s3.2-0.7,4.9-0.7c1.1,0,2.2,0.1,3.3,0.4c1.1,0.2,2,0.7,2.9,1.2c0.9,0.6,1.5,1.3,2,2.2s0.8,2,0.8,3.4v13.6
		h-4.5v-3c-0.7,1.1-1.8,2-3.2,2.6c-1.4,0.6-2.9,0.9-4.5,0.9c-1,0-1.9-0.1-2.8-0.4s-1.6-0.7-2.3-1.2c-0.6-0.5-1.2-1.2-1.5-2
		C399.7,293.2,399.5,292.2,399.5,291.2L399.5,291.2z M407.9,293.5c0.9,0,1.7-0.1,2.5-0.3s1.5-0.5,2.1-0.9s1.1-0.9,1.4-1.4
		c0.3-0.6,0.5-1.2,0.5-1.9v-0.8c-0.7-0.1-1.4-0.2-2-0.2h-1.7c-2.2,0-3.9,0.3-5,0.9s-1.7,1.3-1.7,2.2
		C404,292.7,405.3,293.5,407.9,293.5L407.9,293.5z M444.6,290.6c-0.2,2.1-1.1,3.8-2.5,5.1c-1.4,1.3-3.3,1.9-5.4,1.9
		c-1.2,0-2.3-0.2-3.3-0.6s-1.8-0.9-2.5-1.6s-1.2-1.5-1.6-2.5s-0.6-2.1-0.6-3.2v-8.8H424v-4.1h4.6v-8.1h4.5v8.1h8.5v4.1h-8.5v8.8
		c0,1.3,0.3,2.3,1,2.9s1.5,1,2.5,1c1.3,0,2.2-0.4,2.9-1.1s1-1.6,1.1-2.7L444.6,290.6L444.6,290.6z M465.5,297.1h-13.7V293h4.5v-12.2
		h-4.5v-4.1h9V293h4.6v4.1H465.5z M461.3,274.1h-5.5v-5.5h5.5V274.1z M492.6,281.5c-0.5-0.3-1.1-0.5-1.6-0.6
		c-0.6-0.1-1.2-0.2-1.9-0.2c-1,0-1.9,0.1-2.8,0.4s-1.6,0.7-2.3,1.3c-0.6,0.6-1.1,1.3-1.5,2.2c-0.4,0.9-0.5,2-0.5,3.2v5.1h4.6v4.1
		h-13.7v-4h4.6v-12.2h-4.6v-4.1h9.1v5.1c0.7-2,1.8-3.5,3.3-4.3s3.2-1.3,5.2-1.3c0.6,0,1.3,0.1,2,0.2s1.4,0.4,2,0.7L492.6,281.5
		L492.6,281.5z M518.1,286.9c0,1.6-0.3,3-0.8,4.3s-1.2,2.4-2.2,3.3c-0.9,0.9-2.1,1.7-3.4,2.2c-1.3,0.5-2.8,0.8-4.4,0.8
		s-3-0.3-4.3-0.8s-2.4-1.3-3.4-2.2c-0.9-0.9-1.7-2.1-2.2-3.3s-0.8-2.7-0.8-4.3c0-1.5,0.3-3,0.8-4.3s1.2-2.5,2.2-3.4
		c0.9-1,2.1-1.7,3.4-2.2s2.8-0.8,4.3-0.8c1.6,0,3.1,0.3,4.4,0.8c1.3,0.5,2.4,1.2,3.4,2.2s1.7,2.1,2.2,3.4S518.1,285.4,518.1,286.9z
		 M513.5,286.9c0-0.9-0.1-1.8-0.4-2.6c-0.3-0.8-0.7-1.5-1.2-2.1s-1.2-1-1.9-1.4c-0.8-0.3-1.6-0.5-2.6-0.5s-1.8,0.2-2.6,0.5
		s-1.4,0.8-1.9,1.4s-0.9,1.3-1.2,2.1c-0.3,0.8-0.4,1.7-0.4,2.6c0,1,0.1,1.8,0.4,2.6c0.3,0.8,0.7,1.5,1.2,2.1s1.2,1.1,1.9,1.4
		s1.6,0.5,2.6,0.5c0.9,0,1.8-0.2,2.6-0.5s1.4-0.8,1.9-1.4s0.9-1.3,1.2-2.1C513.4,288.8,513.5,287.9,513.5,286.9z M540.9,297.1h-4.5
		v-12.6c0-1.6-0.3-2.7-0.9-3.3s-1.5-0.9-2.6-0.9c-1.7,0-3,0.7-4.1,2c-1.1,1.4-1.6,3.2-1.6,5.6v9.1h-4.5v-20.3h4.5v5.1
		c0.5-1.8,1.3-3.1,2.5-4.1s2.7-1.5,4.5-1.5c2.1,0,3.7,0.7,4.9,2c1.2,1.4,1.8,3.4,1.8,6.2L540.9,297.1L540.9,297.1z M591.2,297.1
		h-9.6V293h1.8l-2.8-4.3l-2.7,4.3h1.7v4.1H570V293h2.9l4.6-6.3l-4.3-5.9h-2.7v-4.1h9.2v4.1h-1.4l2.5,4l2.5-4h-1.6v-4.1h9.3v4.1h-2.6
		l-4.3,5.9l4.6,6.3h2.9v4.1H591.2z M638.8,289.2c0,1.3-0.2,2.5-0.7,3.5c-0.4,1-1,1.9-1.8,2.6s-1.7,1.3-2.7,1.6
		c-1.1,0.4-2.2,0.6-3.4,0.6c-1.3,0-2.5-0.2-3.6-0.7s-2-1.3-2.8-2.4v2.6h-4.1v-9.3h4.1c0,0.9,0.2,1.8,0.5,2.5s0.8,1.3,1.3,1.8
		s1.2,0.9,1.9,1.1c0.7,0.3,1.5,0.4,2.3,0.4c1.4,0,2.4-0.3,3.3-0.9s1.2-1.6,1.2-3c0-0.7-0.1-1.3-0.4-1.8c-0.3-0.5-0.6-1-1.1-1.4
		s-1.1-0.8-1.7-1c-0.7-0.3-1.5-0.6-2.3-0.9c-1-0.3-2.1-0.7-3.1-1.2s-2-1-2.8-1.6s-1.5-1.4-2-2.4c-0.5-0.9-0.8-2.1-0.8-3.5
		c0-1.2,0.2-2.3,0.7-3.3c0.5-0.9,1.1-1.7,1.8-2.4c0.8-0.6,1.7-1.1,2.7-1.4s2.1-0.5,3.2-0.5c1.3,0,2.4,0.3,3.4,0.8
		c0.9,0.6,1.7,1.3,2.2,2.2v-2.6h4.1v8.9h-4.1c0-1.7-0.4-3-1.3-3.9c-0.9-0.9-2.1-1.4-3.5-1.4c-1.3,0-2.4,0.3-3.3,0.9
		c-0.9,0.6-1.3,1.5-1.3,2.6c0,0.6,0.1,1.1,0.3,1.5s0.6,0.8,1,1.1c0.4,0.3,1,0.6,1.6,0.9c0.7,0.3,1.4,0.6,2.3,0.9
		c1.1,0.4,2.1,0.8,3.2,1.3s2,1.1,2.9,1.8c0.8,0.7,1.5,1.5,2.1,2.5C638.6,286.6,638.8,287.8,638.8,289.2L638.8,289.2z M647.8,288.6
		c0.2,1.4,0.9,2.6,2,3.5s2.6,1.4,4.5,1.4c1.5,0,2.7-0.2,3.8-0.7s2-1.1,2.8-1.8l2.3,3.2c-1.3,1.3-2.7,2.2-4.2,2.7s-3.1,0.7-4.8,0.7
		c-1.6,0-3-0.3-4.4-0.8s-2.5-1.3-3.5-2.2c-1-0.9-1.8-2.1-2.3-3.3c-0.6-1.3-0.8-2.7-0.8-4.3c0-1.5,0.3-3,0.8-4.3s1.2-2.4,2.2-3.4
		s2.1-1.7,3.4-2.2s2.8-0.8,4.3-0.8c1.6,0,3.1,0.3,4.5,0.8s2.5,1.4,3.4,2.4s1.7,2.4,2.2,3.9s0.8,3.3,0.8,5.2L647.8,288.6L647.8,288.6
		z M659.7,284.6c-0.2-1.3-0.9-2.4-2-3.2c-1.1-0.8-2.4-1.2-3.8-1.2s-2.7,0.4-3.8,1.2c-1.1,0.8-1.8,1.8-2.1,3.2H659.7L659.7,284.6z
		 M667.9,291.2c0-1.2,0.3-2.2,1-3.1c0.6-0.9,1.5-1.6,2.5-2.2s2.2-1,3.6-1.3c1.3-0.3,2.7-0.4,4.1-0.4h2c0.6,0,1.1,0.1,1.7,0.1v-0.8
		c0-1.1-0.4-1.9-1.2-2.4s-1.9-0.8-3.2-0.8c-1.2,0-2.5,0.2-3.7,0.5c-1.3,0.3-2.5,0.8-3.6,1.5l-1.8-3.5c1.3-0.8,2.8-1.4,4.3-1.8
		s3.2-0.7,4.9-0.7c1.1,0,2.2,0.1,3.3,0.4s2,0.7,2.9,1.2c0.9,0.6,1.5,1.3,2,2.2c0.5,0.9,0.8,2,0.8,3.4v13.6H683v-3
		c-0.7,1.1-1.8,2-3.2,2.6s-2.9,0.9-4.5,0.9c-1,0-1.9-0.1-2.8-0.4c-0.9-0.3-1.6-0.7-2.3-1.2s-1.2-1.2-1.5-2
		C668.1,293.2,667.9,292.2,667.9,291.2L667.9,291.2z M676.3,293.5c0.9,0,1.7-0.1,2.5-0.3s1.5-0.5,2.1-0.9s1.1-0.9,1.4-1.4
		s0.5-1.2,0.5-1.9v-0.8c-0.7-0.1-1.4-0.2-2-0.2h-1.7c-2.2,0-3.9,0.3-5,0.9s-1.7,1.3-1.7,2.2C672.4,292.7,673.7,293.5,676.3,293.5
		L676.3,293.5z M713,290.6c-0.2,2.1-1.1,3.8-2.5,5.1c-1.4,1.3-3.3,1.9-5.4,1.9c-1.2,0-2.3-0.2-3.3-0.6s-1.8-0.9-2.5-1.6
		s-1.2-1.5-1.6-2.5c-0.4-1-0.6-2.1-0.6-3.2v-8.8h-4.6v-4.1h4.6v-8.1h4.5v8.1h8.5v4.1h-8.5v8.8c0,1.3,0.3,2.3,1,2.9
		c0.6,0.6,1.5,1,2.5,1c1.3,0,2.2-0.4,2.9-1.1c0.6-0.7,1-1.6,1.1-2.7L713,290.6L713,290.6z M738.3,282.9c0,1.9-0.2,3.8-0.6,5.5
		c-0.4,1.8-1,3.3-1.9,4.7c-0.9,1.4-2,2.4-3.4,3.2c-1.4,0.8-3.1,1.2-5.1,1.2s-3.7-0.4-5.1-1.2c-1.4-0.8-2.5-1.9-3.4-3.3
		s-1.5-2.9-1.9-4.7c-0.4-1.8-0.6-3.6-0.6-5.5s0.2-3.7,0.6-5.5c0.4-1.8,1-3.3,1.9-4.7s2-2.5,3.4-3.3s3.1-1.2,5.1-1.2
		c0.6,0,1.2,0.1,1.7,0.2c0.6,0.2,1.2,0.4,1.7,0.7c0.5,0.3,1,0.7,1.4,1.2s0.7,1,0.9,1.7v-3.4h4.1v10.1H733c0-0.9-0.1-1.7-0.4-2.5
		c-0.3-0.8-0.7-1.5-1.2-2.1s-1.1-1.1-1.8-1.4s-1.5-0.5-2.3-0.5c-1.3,0-2.3,0.3-3.1,1c-0.8,0.6-1.5,1.5-2,2.5s-0.8,2.2-1,3.4
		c-0.2,1.3-0.3,2.5-0.3,3.8s0.1,2.6,0.3,3.8c0.2,1.3,0.5,2.4,1,3.4s1.1,1.8,2,2.5c0.8,0.6,1.9,0.9,3.2,0.9c1.8,0,3.3-0.6,4.5-1.8
		c1.1-1.2,1.9-3,2.3-5.5h-6V282h10.1V282.9z M745.4,288.6c0.2,1.4,0.9,2.6,2,3.5s2.6,1.4,4.5,1.4c1.5,0,2.7-0.2,3.8-0.7
		s2-1.1,2.8-1.8l2.3,3.2c-1.3,1.3-2.7,2.2-4.2,2.7s-3.1,0.7-4.8,0.7c-1.6,0-3-0.3-4.4-0.8s-2.5-1.3-3.5-2.2c-1-0.9-1.8-2.1-2.3-3.3
		c-0.6-1.3-0.8-2.7-0.8-4.3c0-1.5,0.3-3,0.8-4.3s1.2-2.4,2.2-3.4s2.1-1.7,3.4-2.2s2.8-0.8,4.3-0.8c1.6,0,3.1,0.3,4.5,0.8
		c1.3,0.6,2.5,1.4,3.4,2.4c1,1.1,1.7,2.4,2.2,3.9s0.8,3.3,0.8,5.2L745.4,288.6L745.4,288.6z M757.3,284.6c-0.2-1.3-0.9-2.4-2-3.2
		c-1.1-0.8-2.4-1.2-3.8-1.2s-2.7,0.4-3.8,1.2c-1.1,0.8-1.8,1.8-2.1,3.2H757.3L757.3,284.6z M769.8,288.6c0.2,1.4,0.9,2.6,2,3.5
		s2.6,1.4,4.5,1.4c1.5,0,2.7-0.2,3.8-0.7s2-1.1,2.8-1.8l2.3,3.2c-1.3,1.3-2.7,2.2-4.2,2.7s-3.1,0.7-4.8,0.7c-1.6,0-3-0.3-4.4-0.8
		s-2.5-1.3-3.5-2.2c-1-0.9-1.8-2.1-2.3-3.3c-0.6-1.3-0.8-2.7-0.8-4.3c0-1.5,0.3-3,0.8-4.3s1.2-2.4,2.2-3.4s2.1-1.7,3.4-2.2
		s2.8-0.8,4.3-0.8c1.6,0,3.1,0.3,4.5,0.8c1.3,0.6,2.5,1.4,3.4,2.4c1,1.1,1.7,2.4,2.2,3.9s0.8,3.3,0.8,5.2L769.8,288.6L769.8,288.6z
		 M781.7,284.6c-0.2-1.3-0.9-2.4-2-3.2c-1.1-0.8-2.4-1.2-3.8-1.2s-2.7,0.4-3.8,1.2c-1.1,0.8-1.8,1.8-2.1,3.2H781.7L781.7,284.6z
		 M810.3,297.1h-5.8l-6.8-8.2l-2.1,2.1v6.1h-4.5v-28.5h4.5v16.8l8.1-8.6h6.2l-9.4,9.3L810.3,297.1L810.3,297.1z"/>
</g>
<g class="st1">
	<path class="st2" d="M371.4,341.2c0,1.4-0.3,2.7-0.9,3.9c-0.6,1.2-1.3,2.3-2.3,3.2s-2.1,1.6-3.4,2.1s-2.6,0.8-4,0.8
		s-2.6-0.2-3.8-0.6c-1.2-0.4-2.2-1-3.1-1.7c-0.9-0.8-1.6-1.7-2.1-2.8c-0.5-1.1-0.9-2.4-1-3.8l4.3-0.6c0.1,1.6,0.7,3,1.6,4
		s2.3,1.5,4.1,1.5c0.9,0,1.7-0.2,2.5-0.5c0.7-0.3,1.3-0.7,1.8-1.3c0.5-0.5,0.9-1.2,1.2-1.9s0.4-1.5,0.4-2.3c0-1.9-0.5-3.4-1.5-4.5
		s-2.3-1.6-3.9-1.6c-1,0-2,0.2-2.9,0.7s-1.6,1.1-2.1,2.1h-4.5v-15.6h17.8v4.1h-13.3v7.4c1.3-1.8,3.3-2.6,5.8-2.6
		c1.2,0,2.4,0.2,3.5,0.7s2.1,1.1,2.9,2s1.5,1.9,2,3.2C371.1,338.2,371.4,339.6,371.4,341.2L371.4,341.2z M374.5,336.5
		c0-1.9,0.2-3.7,0.6-5.5s1-3.3,1.9-4.7c0.9-1.4,2-2.4,3.4-3.3c1.4-0.8,3.1-1.2,5-1.2s3.6,0.4,5,1.2c1.4,0.8,2.5,1.9,3.4,3.3
		s1.5,2.9,1.9,4.7s0.6,3.6,0.6,5.5s-0.2,3.7-0.6,5.5s-1,3.3-1.9,4.7c-0.9,1.4-2,2.5-3.4,3.3s-3.1,1.2-5.1,1.2s-3.7-0.4-5.1-1.2
		c-1.4-0.8-2.5-1.9-3.4-3.3s-1.5-2.9-1.9-4.7C374.7,340.2,374.5,338.4,374.5,336.5z M379,336.5c0,1.3,0.1,2.6,0.3,3.9l11.2-11.2
		c-0.5-1-1.1-1.8-2-2.4c-0.8-0.6-1.8-0.9-3.1-0.9c-2.1,0-3.7,0.9-4.8,2.8S379,333.1,379,336.5L379,336.5z M385.4,347.2
		c1.3,0,2.3-0.3,3.2-0.9c0.8-0.6,1.5-1.4,1.9-2.5s0.8-2.2,1-3.4c0.2-1.3,0.3-2.6,0.3-3.8c0-1.2-0.1-2.4-0.3-3.6l-11.1,11
		c0.5,0.9,1.1,1.7,1.9,2.3S384.1,347.2,385.4,347.2z M416.6,320.9l3.4,1.7l-16.7,33.7l-3.4-1.7L416.6,320.9z M444.6,341.2
		c0,1.4-0.3,2.7-0.9,3.9c-0.6,1.2-1.3,2.3-2.3,3.2s-2.1,1.6-3.4,2.1s-2.6,0.8-4,0.8s-2.6-0.2-3.8-0.6c-1.2-0.4-2.2-1-3.1-1.7
		c-0.9-0.8-1.6-1.7-2.1-2.8c-0.5-1.1-0.9-2.4-1-3.8l4.3-0.6c0.1,1.6,0.7,3,1.6,4s2.3,1.5,4.1,1.5c0.9,0,1.7-0.2,2.5-0.5
		c0.7-0.3,1.3-0.7,1.8-1.3c0.5-0.5,0.9-1.2,1.2-1.9s0.4-1.5,0.4-2.3c0-1.9-0.5-3.4-1.5-4.5s-2.3-1.6-3.9-1.6c-1,0-2,0.2-2.9,0.7
		s-1.6,1.1-2.1,2.1H425v-15.6h17.8v4.1h-13.3v7.4c1.3-1.8,3.3-2.6,5.8-2.6c1.2,0,2.4,0.2,3.5,0.7s2.1,1.1,2.9,2s1.5,1.9,2,3.2
		C444.3,338.2,444.6,339.6,444.6,341.2L444.6,341.2z M447.7,336.5c0-1.9,0.2-3.7,0.6-5.5s1-3.3,1.9-4.7c0.9-1.4,2-2.4,3.4-3.3
		c1.4-0.8,3.1-1.2,5-1.2c2,0,3.6,0.4,5,1.2c1.4,0.8,2.5,1.9,3.4,3.3s1.5,2.9,1.9,4.7c0.4,1.8,0.6,3.6,0.6,5.5s-0.2,3.7-0.6,5.5
		s-1,3.3-1.9,4.7c-0.9,1.4-2,2.5-3.4,3.3s-3.1,1.2-5.1,1.2s-3.7-0.4-5.1-1.2c-1.4-0.8-2.5-1.9-3.4-3.3s-1.5-2.9-1.9-4.7
		C447.9,340.2,447.7,338.4,447.7,336.5z M452.2,336.5c0,1.3,0.1,2.6,0.3,3.9l11.2-11.2c-0.5-1-1.1-1.8-2-2.4
		c-0.8-0.6-1.8-0.9-3.1-0.9c-2.1,0-3.7,0.9-4.8,2.8C452.7,330.5,452.2,333.1,452.2,336.5L452.2,336.5z M458.6,347.2
		c1.3,0,2.3-0.3,3.2-0.9c0.8-0.6,1.5-1.4,1.9-2.5s0.8-2.2,1-3.4s0.3-2.6,0.3-3.8c0-1.2-0.1-2.4-0.3-3.6l-11.1,11
		c0.5,0.9,1.1,1.7,1.9,2.3S457.3,347.2,458.6,347.2z M516.8,342.9c0,1.3-0.2,2.5-0.7,3.5c-0.4,1-1,1.9-1.8,2.6s-1.7,1.3-2.7,1.6
		c-1.1,0.4-2.2,0.6-3.4,0.6c-1.3,0-2.5-0.2-3.6-0.7s-2-1.3-2.8-2.4v2.6h-4.1v-9.3h4.1c0,0.9,0.2,1.8,0.5,2.5s0.8,1.3,1.3,1.8
		s1.2,0.9,1.9,1.1s1.5,0.4,2.3,0.4c1.4,0,2.4-0.3,3.3-0.9s1.2-1.6,1.2-3c0-0.7-0.1-1.3-0.4-1.8c-0.3-0.5-0.6-1-1.1-1.4
		s-1.1-0.7-1.7-1c-0.7-0.3-1.5-0.6-2.3-0.9c-1-0.3-2.1-0.7-3.1-1.2s-2-1-2.8-1.6s-1.5-1.4-2-2.4c-0.5-0.9-0.8-2.1-0.8-3.5
		c0-1.3,0.2-2.3,0.7-3.3c0.5-0.9,1.1-1.7,1.8-2.4s1.7-1.1,2.7-1.5c1-0.3,2.1-0.5,3.2-0.5c1.3,0,2.4,0.3,3.4,0.8s1.7,1.3,2.2,2.2
		v-2.6h4.1v8.9h-4.1c0-1.7-0.4-3-1.3-3.9s-2.1-1.4-3.5-1.4c-1.3,0-2.4,0.3-3.3,0.9s-1.3,1.5-1.3,2.6c0,0.6,0.1,1.1,0.3,1.5
		c0.2,0.4,0.6,0.8,1,1.1c0.4,0.3,1,0.6,1.6,0.9c0.7,0.3,1.4,0.6,2.3,0.9c1.1,0.4,2.1,0.8,3.2,1.3s2,1.1,2.9,1.8s1.5,1.5,2.1,2.5
		C516.6,340.2,516.8,341.5,516.8,342.9L516.8,342.9z M541.2,347.8c-1.3,1.3-2.7,2.2-4.1,2.7c-1.4,0.5-3,0.7-4.7,0.7
		s-3.2-0.3-4.6-0.8c-1.4-0.5-2.6-1.2-3.5-2.2c-1-0.9-1.7-2-2.2-3.3s-0.8-2.8-0.8-4.4c0-1.5,0.3-3,0.8-4.3s1.2-2.4,2.1-3.4
		c0.9-0.9,1.9-1.7,3.1-2.2s2.5-0.8,3.8-0.8c1.4,0,2.6,0.3,3.6,0.9s1.8,1.4,2.2,2.6v-2.9h4.1v9.5h-4.1c0-1.8-0.5-3.2-1.5-4.3
		s-2.2-1.6-3.8-1.6c-0.6,0-1.3,0.1-2,0.4s-1.3,0.7-1.9,1.2c-0.6,0.5-1,1.2-1.4,2.1c-0.4,0.8-0.6,1.8-0.6,3c0,1.1,0.2,2.1,0.5,2.9
		c0.4,0.8,0.8,1.5,1.4,2c0.6,0.5,1.3,0.9,2.1,1.2c0.8,0.3,1.6,0.4,2.5,0.4c1.5,0,2.7-0.2,3.8-0.7s2-1.1,2.8-1.8L541.2,347.8
		L541.2,347.8z M565.3,350.7h-4.5v-12.5c0-1.6-0.3-2.7-0.9-3.3s-1.5-0.9-2.6-0.9c-1.7,0-3,0.7-4.1,2c-1.1,1.4-1.6,3.2-1.6,5.6v9.1
		h-4.5v-28.5h4.5v13.2c0.5-1.8,1.3-3.1,2.5-4.1s2.7-1.5,4.5-1.5c2.1,0,3.7,0.7,4.9,2c1.2,1.4,1.8,3.4,1.8,6.2L565.3,350.7
		L565.3,350.7z M591.3,340.6c0,1.6-0.3,3-0.8,4.3s-1.2,2.4-2.2,3.3s-2.1,1.7-3.4,2.2c-1.3,0.5-2.8,0.8-4.4,0.8c-1.6,0-3-0.3-4.3-0.8
		s-2.4-1.3-3.4-2.2s-1.7-2.1-2.2-3.3s-0.8-2.7-0.8-4.3c0-1.5,0.3-3,0.8-4.3s1.2-2.5,2.2-3.4s2.1-1.7,3.4-2.2s2.8-0.8,4.3-0.8
		c1.6,0,3.1,0.3,4.4,0.8s2.4,1.3,3.4,2.2s1.7,2.1,2.2,3.4S591.3,339,591.3,340.6z M586.8,340.6c0-0.9-0.1-1.8-0.4-2.6
		c-0.3-0.8-0.7-1.5-1.2-2.1s-1.2-1-1.9-1.4c-0.8-0.3-1.6-0.5-2.6-0.5s-1.8,0.2-2.6,0.5s-1.4,0.8-1.9,1.4s-0.9,1.3-1.2,2.1
		c-0.3,0.8-0.4,1.7-0.4,2.6c0,1,0.1,1.8,0.4,2.6c0.3,0.8,0.7,1.5,1.2,2.1s1.2,1.1,1.9,1.4s1.6,0.5,2.6,0.5c0.9,0,1.8-0.2,2.6-0.5
		s1.4-0.8,1.9-1.4s0.9-1.3,1.2-2.1C586.6,342.4,586.8,341.5,586.8,340.6z M611.9,350.7h-13.7v-4.1h4.5v-20.4h-4.5v-4.1h9v24.4h4.7
		V350.7z M619.1,344.9c0-1.2,0.3-2.2,1-3.1c0.6-0.9,1.5-1.6,2.5-2.2s2.2-1,3.6-1.3c1.3-0.3,2.7-0.4,4.1-0.4h2c0.6,0,1.1,0.1,1.7,0.1
		v-0.8c0-1.1-0.4-1.9-1.2-2.4s-1.9-0.8-3.2-0.8c-1.2,0-2.5,0.2-3.7,0.5c-1.3,0.3-2.5,0.8-3.6,1.5l-1.8-3.5c1.3-0.8,2.8-1.4,4.3-1.8
		s3.2-0.7,4.9-0.7c1.1,0,2.2,0.1,3.3,0.4c1.1,0.2,2,0.7,2.9,1.2s1.5,1.3,2,2.2c0.5,0.9,0.8,2,0.8,3.4v13.6H634v-3
		c-0.7,1.1-1.8,2-3.2,2.6s-2.9,0.9-4.5,0.9c-1,0-1.9-0.1-2.8-0.4c-0.9-0.3-1.6-0.7-2.3-1.2c-0.6-0.5-1.2-1.2-1.5-2
		C619.3,346.8,619.1,345.9,619.1,344.9L619.1,344.9z M627.5,347.2c0.9,0,1.7-0.1,2.5-0.3s1.5-0.5,2.1-0.9s1.1-0.9,1.4-1.4
		c0.3-0.6,0.5-1.2,0.5-1.9v-0.8c-0.7-0.1-1.4-0.2-2-0.2h-1.7c-2.2,0-3.9,0.3-5,0.9s-1.7,1.3-1.7,2.2
		C623.6,346.3,624.9,347.2,627.5,347.2L627.5,347.2z M663.4,335.2c-0.5-0.3-1.1-0.5-1.6-0.6c-0.6-0.1-1.2-0.2-1.9-0.2
		c-1,0-1.9,0.1-2.8,0.4c-0.9,0.3-1.6,0.7-2.3,1.3s-1.1,1.3-1.5,2.2c-0.4,0.9-0.5,2-0.5,3.2v5.1h4.6v4.1h-13.7v-4.1h4.6v-12.2h-4.6
		v-4.1h9.1v5.1c0.7-2,1.8-3.5,3.3-4.3c1.4-0.8,3.2-1.3,5.2-1.3c0.6,0,1.3,0.1,2,0.2s1.4,0.4,2,0.7L663.4,335.2L663.4,335.2z
		 M687.8,344.6c0,1.3-0.3,2.4-0.9,3.2s-1.4,1.5-2.3,2c-0.9,0.5-2,0.9-3.1,1.1c-1.2,0.2-2.3,0.3-3.4,0.3c-1.8,0-3.7-0.3-5.5-0.8
		s-3.4-1.2-4.8-2.1l1.9-3.7c1.6,0.9,3.1,1.6,4.4,2s2.7,0.6,4,0.6c1.8,0,3.1-0.2,4-0.6s1.2-0.9,1.2-1.6c0-0.3-0.1-0.6-0.3-0.8
		s-0.6-0.4-1.2-0.6c-0.5-0.2-1.2-0.4-2.1-0.5c-0.9-0.2-2-0.4-3.3-0.6l-3-0.6c-1-0.2-1.8-0.6-2.5-1.1s-1.3-1.1-1.7-1.8
		c-0.4-0.7-0.6-1.6-0.6-2.7s0.3-2,0.8-2.9s1.3-1.5,2.2-2s1.9-0.9,3.1-1.1c1.1-0.2,2.3-0.3,3.4-0.3c1.6,0,3.2,0.2,4.7,0.6
		s2.8,1,4,1.8l-1.8,3.5c-1.1-0.7-2.2-1.2-3.3-1.5s-2.2-0.4-3.5-0.4c-0.5,0-1.1,0-1.7,0.1c-0.6,0.1-1.1,0.2-1.6,0.3
		c-0.5,0.2-0.9,0.4-1.2,0.7c-0.3,0.3-0.5,0.6-0.5,1c0,0.5,0.5,1,1.4,1.3c1,0.3,2.6,0.7,4.9,1c1.2,0.2,2.4,0.4,3.4,0.7
		s1.9,0.6,2.7,1.1c0.7,0.5,1.3,1,1.7,1.8C687.6,342.7,687.8,343.6,687.8,344.6L687.8,344.6z M711.7,350.7h-4.5v-12.5
		c0-1.6-0.3-2.7-0.9-3.3s-1.5-0.9-2.6-0.9c-1.7,0-3,0.7-4.1,2c-1.1,1.4-1.6,3.2-1.6,5.6v9.1h-4.5v-28.5h4.5v13.2
		c0.5-1.8,1.3-3.1,2.5-4.1s2.7-1.5,4.5-1.5c2.1,0,3.7,0.7,4.9,2c1.2,1.4,1.8,3.4,1.8,6.2L711.7,350.7L711.7,350.7z M733.9,350.7
		h-13.7v-4.1h4.5v-12.2h-4.5v-4.1h9v16.3h4.6v4.1L733.9,350.7z M729.7,327.7h-5.5v-5.5h5.5V327.7z M742.3,330.4h4.5v1.8
		c0.9-0.8,1.7-1.3,2.6-1.7c0.9-0.4,1.9-0.6,3-0.6c1.3,0,2.5,0.3,3.6,0.8s2.1,1.3,2.9,2.2c0.8,0.9,1.4,2.1,1.9,3.4s0.7,2.7,0.7,4.3
		c0,1.6-0.2,3-0.7,4.3s-1.1,2.4-1.9,3.4c-0.8,0.9-1.8,1.7-2.9,2.2c-1.1,0.5-2.3,0.8-3.6,0.8c-1.1,0-2.1-0.2-3-0.6s-1.8-1-2.6-1.8v10
		h-4.5V330.4L742.3,330.4z M746.8,345.3c0.5,0.6,1.2,1.1,2.1,1.4s1.6,0.5,2.4,0.5c1.7,0,3.1-0.6,4.2-1.8s1.6-2.8,1.6-4.8
		s-0.5-3.6-1.6-4.8c-1.1-1.2-2.5-1.8-4.2-1.8c-0.8,0-1.6,0.2-2.4,0.5s-1.5,0.8-2.1,1.4V345.3L746.8,345.3z"/>
</g>
</svg>
