<svg id="Layer_1" xmlns="http://www.w3.org/2000/svg" viewBox="0 0 903.8 536.9"><style>.st1{enable-background:new}.st2{fill:#fff}.st3{fill:#606161}</style><path d="M322.9 242.8C370 194.4 414 142.7 465.1 98.5s110.6-81.3 177-94 140.3 1.8 188.7 49c38.5 37.5 57.3 90.9 66.8 143.8 7 38.9 9.7 79.5-.5 117.7-22.8 85.1-106.2 142.8-192.1 162.8s-175.5 9.7-263.5 3-179.5-9.3-260.9 24.5c-37 15.4-75.1 38.6-114.3 29.7C22 525-4.1 474.2.5 428.9s32.6-84.8 64.2-117.7C128 245.4 214.6 195.9 306 198.6c26.2.8 59.4 14 57.6 40.2" fill="#ccc6c8"/><g class="st1"><path class="st2" d="M370.1 272.6h-13.7v7.9h10.7v4.1h-10.7v12.5h-4.5v-28.5h18.2v4zM392.3 297.1h-13.7V293h4.5v-20.4h-4.5v-4.1h9V293h4.7v4.1zM399.5 291.2c0-1.2.3-2.2 1-3.1.6-.9 1.5-1.6 2.5-2.2 1-.6 2.2-1 3.6-1.3 1.3-.3 2.7-.4 4.1-.4h2c.6 0 1.1.1 1.7.1v-.8c0-1.1-.4-1.9-1.2-2.4-.8-.5-1.9-.8-3.2-.8-1.2 0-2.5.2-3.7.5s-2.5.8-3.6 1.5l-1.8-3.5c1.3-.8 2.8-1.4 4.3-1.8 1.5-.4 3.2-.7 4.9-.7 1.1 0 2.2.1 3.3.4 1.1.2 2 .7 2.9 1.2.9.6 1.5 1.3 2 2.2s.8 2 .8 3.4v13.6h-4.5v-3c-.7 1.1-1.8 2-3.2 2.6-1.4.6-2.9.9-4.5.9-1 0-1.9-.1-2.8-.4s-1.6-.7-2.3-1.2c-.6-.5-1.2-1.2-1.5-2-.6-.8-.8-1.8-.8-2.8zm8.4 2.3c.9 0 1.7-.1 2.5-.3s1.5-.5 2.1-.9c.6-.4 1.1-.9 1.4-1.4.3-.6.5-1.2.5-1.9v-.8c-.7-.1-1.4-.2-2-.2h-1.7c-2.2 0-3.9.3-5 .9-1.1.6-1.7 1.3-1.7 2.2 0 1.6 1.3 2.4 3.9 2.4zM444.6 290.6c-.2 2.1-1.1 3.8-2.5 5.1-1.4 1.3-3.3 1.9-5.4 1.9-1.2 0-2.3-.2-3.3-.6-1-.4-1.8-.9-2.5-1.6-.7-.7-1.2-1.5-1.6-2.5-.4-1-.6-2.1-.6-3.2v-8.8H424v-4.1h4.6v-8.1h4.5v8.1h8.5v4.1h-8.5v8.8c0 1.3.3 2.3 1 2.9s1.5 1 2.5 1c1.3 0 2.2-.4 2.9-1.1s1-1.6 1.1-2.7l4 .8zM465.5 297.1h-13.7V293h4.5v-12.2h-4.5v-4.1h9V293h4.6v4.1zm-4.2-23h-5.5v-5.5h5.5v5.5zM492.6 281.5c-.5-.3-1.1-.5-1.6-.6-.6-.1-1.2-.2-1.9-.2-1 0-1.9.1-2.8.4-.9.3-1.6.7-2.3 1.3-.6.6-1.1 1.3-1.5 2.2-.4.9-.5 2-.5 3.2v5.1h4.6v4.1h-13.7v-4h4.6v-12.2h-4.6v-4.1h9.1v5.1c.7-2 1.8-3.5 3.3-4.3s3.2-1.3 5.2-1.3c.6 0 1.3.1 2 .2s1.4.4 2 .7l-1.9 4.4zM518.1 286.9c0 1.6-.3 3-.8 4.3s-1.2 2.4-2.2 3.3c-.9.9-2.1 1.7-3.4 2.2-1.3.5-2.8.8-4.4.8-1.6 0-3-.3-4.3-.8-1.3-.5-2.4-1.3-3.4-2.2-.9-.9-1.7-2.1-2.2-3.3s-.8-2.7-.8-4.3c0-1.5.3-3 .8-4.3.5-1.3 1.2-2.5 2.2-3.4.9-1 2.1-1.7 3.4-2.2 1.3-.5 2.8-.8 4.3-.8 1.6 0 3.1.3 4.4.8 1.3.5 2.4 1.2 3.4 2.2s1.7 2.1 2.2 3.4c.5 1.3.8 2.8.8 4.3zm-4.6 0c0-.9-.1-1.8-.4-2.6-.3-.8-.7-1.5-1.2-2.1-.5-.6-1.2-1-1.9-1.4-.8-.3-1.6-.5-2.6-.5s-1.8.2-2.6.5-1.4.8-1.9 1.4c-.5.6-.9 1.3-1.2 2.1-.3.8-.4 1.7-.4 2.6 0 1 .1 1.8.4 2.6.3.8.7 1.5 1.2 2.1.5.6 1.2 1.1 1.9 1.4s1.6.5 2.6.5c.9 0 1.8-.2 2.6-.5s1.4-.8 1.9-1.4c.5-.6.9-1.3 1.2-2.1.3-.7.4-1.6.4-2.6zM540.9 297.1h-4.5v-12.6c0-1.6-.3-2.7-.9-3.3s-1.5-.9-2.6-.9c-1.7 0-3 .7-4.1 2-1.1 1.4-1.6 3.2-1.6 5.6v9.1h-4.5v-20.3h4.5v5.1c.5-1.8 1.3-3.1 2.5-4.1 1.2-1 2.7-1.5 4.5-1.5 2.1 0 3.7.7 4.9 2 1.2 1.4 1.8 3.4 1.8 6.2v12.7zM591.2 297.1h-9.6V293h1.8l-2.8-4.3-2.7 4.3h1.7v4.1H570V293h2.9l4.6-6.3-4.3-5.9h-2.7v-4.1h9.2v4.1h-1.4l2.5 4 2.5-4h-1.6v-4.1h9.3v4.1h-2.6l-4.3 5.9 4.6 6.3h2.9v4.1zM638.8 289.2c0 1.3-.2 2.5-.7 3.5-.4 1-1 1.9-1.8 2.6-.8.7-1.7 1.3-2.7 1.6-1.1.4-2.2.6-3.4.6-1.3 0-2.5-.2-3.6-.7-1.1-.5-2-1.3-2.8-2.4v2.6h-4.1v-9.3h4.1c0 .9.2 1.8.5 2.5s.8 1.3 1.3 1.8 1.2.9 1.9 1.1c.7.3 1.5.4 2.3.4 1.4 0 2.4-.3 3.3-.9s1.2-1.6 1.2-3c0-.7-.1-1.3-.4-1.8-.3-.5-.6-1-1.1-1.4-.5-.4-1.1-.8-1.7-1-.7-.3-1.5-.6-2.3-.9-1-.3-2.1-.7-3.1-1.2s-2-1-2.8-1.6c-.8-.6-1.5-1.4-2-2.4-.5-.9-.8-2.1-.8-3.5 0-1.2.2-2.3.7-3.3.5-.9 1.1-1.7 1.8-2.4.8-.6 1.7-1.1 2.7-1.4 1-.3 2.1-.5 3.2-.5 1.3 0 2.4.3 3.4.8.9.6 1.7 1.3 2.2 2.2v-2.6h4.1v8.9h-4.1c0-1.7-.4-3-1.3-3.9-.9-.9-2.1-1.4-3.5-1.4-1.3 0-2.4.3-3.3.9-.9.6-1.3 1.5-1.3 2.6 0 .6.1 1.1.3 1.5.2.4.6.8 1 1.1.4.3 1 .6 1.6.9.7.3 1.4.6 2.3.9 1.1.4 2.1.8 3.2 1.3s2 1.1 2.9 1.8c.8.7 1.5 1.5 2.1 2.5.5.9.7 2.1.7 3.5zM647.8 288.6c.2 1.4.9 2.6 2 3.5 1.1.9 2.6 1.4 4.5 1.4 1.5 0 2.7-.2 3.8-.7 1.1-.5 2-1.1 2.8-1.8l2.3 3.2c-1.3 1.3-2.7 2.2-4.2 2.7s-3.1.7-4.8.7c-1.6 0-3-.3-4.4-.8-1.4-.5-2.5-1.3-3.5-2.2-1-.9-1.8-2.1-2.3-3.3-.6-1.3-.8-2.7-.8-4.3 0-1.5.3-3 .8-4.3.5-1.3 1.2-2.4 2.2-3.4s2.1-1.7 3.4-2.2 2.8-.8 4.3-.8c1.6 0 3.1.3 4.5.8s2.5 1.4 3.4 2.4 1.7 2.4 2.2 3.9.8 3.3.8 5.2h-17zm11.9-4c-.2-1.3-.9-2.4-2-3.2-1.1-.8-2.4-1.2-3.8-1.2s-2.7.4-3.8 1.2c-1.1.8-1.8 1.8-2.1 3.2h11.7zM667.9 291.2c0-1.2.3-2.2 1-3.1.6-.9 1.5-1.6 2.5-2.2 1-.6 2.2-1 3.6-1.3 1.3-.3 2.7-.4 4.1-.4h2c.6 0 1.1.1 1.7.1v-.8c0-1.1-.4-1.9-1.2-2.4-.8-.5-1.9-.8-3.2-.8-1.2 0-2.5.2-3.7.5-1.3.3-2.5.8-3.6 1.5l-1.8-3.5c1.3-.8 2.8-1.4 4.3-1.8 1.5-.4 3.2-.7 4.9-.7 1.1 0 2.2.1 3.3.4s2 .7 2.9 1.2c.9.6 1.5 1.3 2 2.2.5.9.8 2 .8 3.4v13.6H683v-3c-.7 1.1-1.8 2-3.2 2.6-1.4.6-2.9.9-4.5.9-1 0-1.9-.1-2.8-.4-.9-.3-1.6-.7-2.3-1.2s-1.2-1.2-1.5-2c-.6-.8-.8-1.8-.8-2.8zm8.4 2.3c.9 0 1.7-.1 2.5-.3s1.5-.5 2.1-.9c.6-.4 1.1-.9 1.4-1.4s.5-1.2.5-1.9v-.8c-.7-.1-1.4-.2-2-.2h-1.7c-2.2 0-3.9.3-5 .9s-1.7 1.3-1.7 2.2c0 1.6 1.3 2.4 3.9 2.4zM713 290.6c-.2 2.1-1.1 3.8-2.5 5.1-1.4 1.3-3.3 1.9-5.4 1.9-1.2 0-2.3-.2-3.3-.6-1-.4-1.8-.9-2.5-1.6s-1.2-1.5-1.6-2.5c-.4-1-.6-2.1-.6-3.2v-8.8h-4.6v-4.1h4.6v-8.1h4.5v8.1h8.5v4.1h-8.5v8.8c0 1.3.3 2.3 1 2.9.6.6 1.5 1 2.5 1 1.3 0 2.2-.4 2.9-1.1.6-.7 1-1.6 1.1-2.7l3.9.8zM738.3 282.9c0 1.9-.2 3.8-.6 5.5-.4 1.8-1 3.3-1.9 4.7-.9 1.4-2 2.4-3.4 3.2-1.4.8-3.1 1.2-5.1 1.2-2 0-3.7-.4-5.1-1.2-1.4-.8-2.5-1.9-3.4-3.3s-1.5-2.9-1.9-4.7c-.4-1.8-.6-3.6-.6-5.5s.2-3.7.6-5.5c.4-1.8 1-3.3 1.9-4.7s2-2.5 3.4-3.3c1.4-.8 3.1-1.2 5.1-1.2.6 0 1.2.1 1.7.2.6.2 1.2.4 1.7.7.5.3 1 .7 1.4 1.2.4.5.7 1 .9 1.7v-3.4h4.1v10.1H733c0-.9-.1-1.7-.4-2.5-.3-.8-.7-1.5-1.2-2.1-.5-.6-1.1-1.1-1.8-1.4s-1.5-.5-2.3-.5c-1.3 0-2.3.3-3.1 1-.8.6-1.5 1.5-2 2.5s-.8 2.2-1 3.4c-.2 1.3-.3 2.5-.3 3.8 0 1.3.1 2.6.3 3.8.2 1.3.5 2.4 1 3.4s1.1 1.8 2 2.5c.8.6 1.9.9 3.2.9 1.8 0 3.3-.6 4.5-1.8 1.1-1.2 1.9-3 2.3-5.5h-6V282h10.1v.9zM745.4 288.6c.2 1.4.9 2.6 2 3.5 1.1.9 2.6 1.4 4.5 1.4 1.5 0 2.7-.2 3.8-.7 1.1-.5 2-1.1 2.8-1.8l2.3 3.2c-1.3 1.3-2.7 2.2-4.2 2.7s-3.1.7-4.8.7c-1.6 0-3-.3-4.4-.8-1.4-.5-2.5-1.3-3.5-2.2-1-.9-1.8-2.1-2.3-3.3-.6-1.3-.8-2.7-.8-4.3 0-1.5.3-3 .8-4.3.5-1.3 1.2-2.4 2.2-3.4s2.1-1.7 3.4-2.2 2.8-.8 4.3-.8c1.6 0 3.1.3 4.5.8 1.3.6 2.5 1.4 3.4 2.4 1 1.1 1.7 2.4 2.2 3.9.5 1.5.8 3.3.8 5.2h-17zm11.9-4c-.2-1.3-.9-2.4-2-3.2-1.1-.8-2.4-1.2-3.8-1.2s-2.7.4-3.8 1.2c-1.1.8-1.8 1.8-2.1 3.2h11.7zM769.8 288.6c.2 1.4.9 2.6 2 3.5 1.1.9 2.6 1.4 4.5 1.4 1.5 0 2.7-.2 3.8-.7 1.1-.5 2-1.1 2.8-1.8l2.3 3.2c-1.3 1.3-2.7 2.2-4.2 2.7s-3.1.7-4.8.7c-1.6 0-3-.3-4.4-.8-1.4-.5-2.5-1.3-3.5-2.2-1-.9-1.8-2.1-2.3-3.3-.6-1.3-.8-2.7-.8-4.3 0-1.5.3-3 .8-4.3.5-1.3 1.2-2.4 2.2-3.4s2.1-1.7 3.4-2.2 2.8-.8 4.3-.8c1.6 0 3.1.3 4.5.8 1.3.6 2.5 1.4 3.4 2.4 1 1.1 1.7 2.4 2.2 3.9.5 1.5.8 3.3.8 5.2h-17zm11.9-4c-.2-1.3-.9-2.4-2-3.2-1.1-.8-2.4-1.2-3.8-1.2s-2.7.4-3.8 1.2c-1.1.8-1.8 1.8-2.1 3.2h11.7zM810.3 297.1h-5.8l-6.8-8.2-2.1 2.1v6.1h-4.5v-28.5h4.5v16.8l8.1-8.6h6.2l-9.4 9.3 9.8 11z"/></g><g class="st1"><path class="st2" d="M371.4 341.2c0 1.4-.3 2.7-.9 3.9-.6 1.2-1.3 2.3-2.3 3.2s-2.1 1.6-3.4 2.1c-1.3.5-2.6.8-4 .8s-2.6-.2-3.8-.6c-1.2-.4-2.2-1-3.1-1.7-.9-.8-1.6-1.7-2.1-2.8-.5-1.1-.9-2.4-1-3.8l4.3-.6c.1 1.6.7 3 1.6 4 .9 1 2.3 1.5 4.1 1.5.9 0 1.7-.2 2.5-.5.7-.3 1.3-.7 1.8-1.3.5-.5.9-1.2 1.2-1.9s.4-1.5.4-2.3c0-1.9-.5-3.4-1.5-4.5s-2.3-1.6-3.9-1.6c-1 0-2 .2-2.9.7s-1.6 1.1-2.1 2.1h-4.5v-15.6h17.8v4.1h-13.3v7.4c1.3-1.8 3.3-2.6 5.8-2.6 1.2 0 2.4.2 3.5.7 1.1.5 2.1 1.1 2.9 2 .8.9 1.5 1.9 2 3.2.6 1.1.9 2.5.9 4.1zM374.5 336.5c0-1.9.2-3.7.6-5.5.4-1.8 1-3.3 1.9-4.7.9-1.4 2-2.4 3.4-3.3 1.4-.8 3.1-1.2 5-1.2s3.6.4 5 1.2c1.4.8 2.5 1.9 3.4 3.3.9 1.4 1.5 2.9 1.9 4.7s.6 3.6.6 5.5-.2 3.7-.6 5.5c-.4 1.8-1 3.3-1.9 4.7-.9 1.4-2 2.5-3.4 3.3-1.4.8-3.1 1.2-5.1 1.2-2 0-3.7-.4-5.1-1.2-1.4-.8-2.5-1.9-3.4-3.3-.9-1.4-1.5-2.9-1.9-4.7-.2-1.8-.4-3.6-.4-5.5zm4.5 0c0 1.3.1 2.6.3 3.9l11.2-11.2c-.5-1-1.1-1.8-2-2.4-.8-.6-1.8-.9-3.1-.9-2.1 0-3.7.9-4.8 2.8s-1.6 4.4-1.6 7.8zm6.4 10.7c1.3 0 2.3-.3 3.2-.9.8-.6 1.5-1.4 1.9-2.5s.8-2.2 1-3.4c.2-1.3.3-2.6.3-3.8 0-1.2-.1-2.4-.3-3.6l-11.1 11c.5.9 1.1 1.7 1.9 2.3s1.8.9 3.1.9zM416.6 320.9l3.4 1.7-16.7 33.7-3.4-1.7 16.7-33.7zM444.6 341.2c0 1.4-.3 2.7-.9 3.9-.6 1.2-1.3 2.3-2.3 3.2s-2.1 1.6-3.4 2.1c-1.3.5-2.6.8-4 .8s-2.6-.2-3.8-.6c-1.2-.4-2.2-1-3.1-1.7-.9-.8-1.6-1.7-2.1-2.8-.5-1.1-.9-2.4-1-3.8l4.3-.6c.1 1.6.7 3 1.6 4 .9 1 2.3 1.5 4.1 1.5.9 0 1.7-.2 2.5-.5.7-.3 1.3-.7 1.8-1.3.5-.5.9-1.2 1.2-1.9s.4-1.5.4-2.3c0-1.9-.5-3.4-1.5-4.5s-2.3-1.6-3.9-1.6c-1 0-2 .2-2.9.7s-1.6 1.1-2.1 2.1H425v-15.6h17.8v4.1h-13.3v7.4c1.3-1.8 3.3-2.6 5.8-2.6 1.2 0 2.4.2 3.5.7 1.1.5 2.1 1.1 2.9 2 .8.9 1.5 1.9 2 3.2.6 1.1.9 2.5.9 4.1zM447.7 336.5c0-1.9.2-3.7.6-5.5.4-1.8 1-3.3 1.9-4.7.9-1.4 2-2.4 3.4-3.3 1.4-.8 3.1-1.2 5-1.2 2 0 3.6.4 5 1.2 1.4.8 2.5 1.9 3.4 3.3.9 1.4 1.5 2.9 1.9 4.7.4 1.8.6 3.6.6 5.5s-.2 3.7-.6 5.5c-.4 1.8-1 3.3-1.9 4.7-.9 1.4-2 2.5-3.4 3.3-1.4.8-3.1 1.2-5.1 1.2s-3.7-.4-5.1-1.2c-1.4-.8-2.5-1.9-3.4-3.3-.9-1.4-1.5-2.9-1.9-4.7-.2-1.8-.4-3.6-.4-5.5zm4.5 0c0 1.3.1 2.6.3 3.9l11.2-11.2c-.5-1-1.1-1.8-2-2.4-.8-.6-1.8-.9-3.1-.9-2.1 0-3.7.9-4.8 2.8-1.1 1.8-1.6 4.4-1.6 7.8zm6.4 10.7c1.3 0 2.3-.3 3.2-.9.8-.6 1.5-1.4 1.9-2.5s.8-2.2 1-3.4.3-2.6.3-3.8c0-1.2-.1-2.4-.3-3.6l-11.1 11c.5.9 1.1 1.7 1.9 2.3s1.8.9 3.1.9zM516.8 342.9c0 1.3-.2 2.5-.7 3.5-.4 1-1 1.9-1.8 2.6-.8.7-1.7 1.3-2.7 1.6-1.1.4-2.2.6-3.4.6-1.3 0-2.5-.2-3.6-.7-1.1-.5-2-1.3-2.8-2.4v2.6h-4.1v-9.3h4.1c0 .9.2 1.8.5 2.5s.8 1.3 1.3 1.8 1.2.9 1.9 1.1 1.5.4 2.3.4c1.4 0 2.4-.3 3.3-.9s1.2-1.6 1.2-3c0-.7-.1-1.3-.4-1.8-.3-.5-.6-1-1.1-1.4s-1.1-.7-1.7-1c-.7-.3-1.5-.6-2.3-.9-1-.3-2.1-.7-3.1-1.2s-2-1-2.8-1.6c-.8-.6-1.5-1.4-2-2.4-.5-.9-.8-2.1-.8-3.5 0-1.3.2-2.3.7-3.3.5-.9 1.1-1.7 1.8-2.4s1.7-1.1 2.7-1.5c1-.3 2.1-.5 3.2-.5 1.3 0 2.4.3 3.4.8s1.7 1.3 2.2 2.2v-2.6h4.1v8.9h-4.1c0-1.7-.4-3-1.3-3.9-.9-.9-2.1-1.4-3.5-1.4-1.3 0-2.4.3-3.3.9-.9.6-1.3 1.5-1.3 2.6 0 .6.1 1.1.3 1.5.2.4.6.8 1 1.1.4.3 1 .6 1.6.9.7.3 1.4.6 2.3.9 1.1.4 2.1.8 3.2 1.3s2 1.1 2.9 1.8 1.5 1.5 2.1 2.5c.5.9.7 2.2.7 3.6zM541.2 347.8c-1.3 1.3-2.7 2.2-4.1 2.7-1.4.5-3 .7-4.7.7-1.7 0-3.2-.3-4.6-.8-1.4-.5-2.6-1.2-3.5-2.2-1-.9-1.7-2-2.2-3.3s-.8-2.8-.8-4.4c0-1.5.3-3 .8-4.3.5-1.3 1.2-2.4 2.1-3.4.9-.9 1.9-1.7 3.1-2.2s2.5-.8 3.8-.8c1.4 0 2.6.3 3.6.9 1 .6 1.8 1.4 2.2 2.6v-2.9h4.1v9.5h-4.1c0-1.8-.5-3.2-1.5-4.3s-2.2-1.6-3.8-1.6c-.6 0-1.3.1-2 .4s-1.3.7-1.9 1.2c-.6.5-1 1.2-1.4 2.1-.4.8-.6 1.8-.6 3 0 1.1.2 2.1.5 2.9.4.8.8 1.5 1.4 2 .6.5 1.3.9 2.1 1.2.8.3 1.6.4 2.5.4 1.5 0 2.7-.2 3.8-.7s2-1.1 2.8-1.8l2.4 3.1zM565.3 350.7h-4.5v-12.5c0-1.6-.3-2.7-.9-3.3s-1.5-.9-2.6-.9c-1.7 0-3 .7-4.1 2-1.1 1.4-1.6 3.2-1.6 5.6v9.1h-4.5v-28.5h4.5v13.2c.5-1.8 1.3-3.1 2.5-4.1 1.2-1 2.7-1.5 4.5-1.5 2.1 0 3.7.7 4.9 2 1.2 1.4 1.8 3.4 1.8 6.2v12.7zM591.3 340.6c0 1.6-.3 3-.8 4.3s-1.2 2.4-2.2 3.3-2.1 1.7-3.4 2.2c-1.3.5-2.8.8-4.4.8-1.6 0-3-.3-4.3-.8-1.3-.5-2.4-1.3-3.4-2.2s-1.7-2.1-2.2-3.3-.8-2.7-.8-4.3c0-1.5.3-3 .8-4.3.5-1.3 1.2-2.5 2.2-3.4s2.1-1.7 3.4-2.2 2.8-.8 4.3-.8c1.6 0 3.1.3 4.4.8s2.4 1.3 3.4 2.2 1.7 2.1 2.2 3.4c.5 1.3.8 2.7.8 4.3zm-4.5 0c0-.9-.1-1.8-.4-2.6-.3-.8-.7-1.5-1.2-2.1-.5-.6-1.2-1-1.9-1.4-.8-.3-1.6-.5-2.6-.5s-1.8.2-2.6.5-1.4.8-1.9 1.4c-.5.6-.9 1.3-1.2 2.1-.3.8-.4 1.7-.4 2.6 0 1 .1 1.8.4 2.6.3.8.7 1.5 1.2 2.1.5.6 1.2 1.1 1.9 1.4s1.6.5 2.6.5c.9 0 1.8-.2 2.6-.5s1.4-.8 1.9-1.4c.5-.6.9-1.3 1.2-2.1.2-.8.4-1.7.4-2.6zM611.9 350.7h-13.7v-4.1h4.5v-20.4h-4.5v-4.1h9v24.4h4.7v4.2zM619.1 344.9c0-1.2.3-2.2 1-3.1.6-.9 1.5-1.6 2.5-2.2s2.2-1 3.6-1.3c1.3-.3 2.7-.4 4.1-.4h2c.6 0 1.1.1 1.7.1v-.8c0-1.1-.4-1.9-1.2-2.4-.8-.5-1.9-.8-3.2-.8-1.2 0-2.5.2-3.7.5-1.3.3-2.5.8-3.6 1.5l-1.8-3.5c1.3-.8 2.8-1.4 4.3-1.8 1.5-.4 3.2-.7 4.9-.7 1.1 0 2.2.1 3.3.4 1.1.2 2 .7 2.9 1.2s1.5 1.3 2 2.2c.5.9.8 2 .8 3.4v13.6H634v-3c-.7 1.1-1.8 2-3.2 2.6-1.4.6-2.9.9-4.5.9-1 0-1.9-.1-2.8-.4-.9-.3-1.6-.7-2.3-1.2-.6-.5-1.2-1.2-1.5-2-.4-.9-.6-1.8-.6-2.8zm8.4 2.3c.9 0 1.7-.1 2.5-.3s1.5-.5 2.1-.9c.6-.4 1.1-.9 1.4-1.4.3-.6.5-1.2.5-1.9v-.8c-.7-.1-1.4-.2-2-.2h-1.7c-2.2 0-3.9.3-5 .9-1.1.6-1.7 1.3-1.7 2.2 0 1.5 1.3 2.4 3.9 2.4zM663.4 335.2c-.5-.3-1.1-.5-1.6-.6-.6-.1-1.2-.2-1.9-.2-1 0-1.9.1-2.8.4-.9.3-1.6.7-2.3 1.3s-1.1 1.3-1.5 2.2c-.4.9-.5 2-.5 3.2v5.1h4.6v4.1h-13.7v-4.1h4.6v-12.2h-4.6v-4.1h9.1v5.1c.7-2 1.8-3.5 3.3-4.3 1.4-.8 3.2-1.3 5.2-1.3.6 0 1.3.1 2 .2s1.4.4 2 .7l-1.9 4.5zM687.8 344.6c0 1.3-.3 2.4-.9 3.2s-1.4 1.5-2.3 2c-.9.5-2 .9-3.1 1.1-1.2.2-2.3.3-3.4.3-1.8 0-3.7-.3-5.5-.8-1.8-.5-3.4-1.2-4.8-2.1l1.9-3.7c1.6.9 3.1 1.6 4.4 2s2.7.6 4 .6c1.8 0 3.1-.2 4-.6s1.2-.9 1.2-1.6c0-.3-.1-.6-.3-.8s-.6-.4-1.2-.6c-.5-.2-1.2-.4-2.1-.5-.9-.2-2-.4-3.3-.6l-3-.6c-1-.2-1.8-.6-2.5-1.1-.7-.5-1.3-1.1-1.7-1.8-.4-.7-.6-1.6-.6-2.7s.3-2 .8-2.9 1.3-1.5 2.2-2 1.9-.9 3.1-1.1c1.1-.2 2.3-.3 3.4-.3 1.6 0 3.2.2 4.7.6s2.8 1 4 1.8l-1.8 3.5c-1.1-.7-2.2-1.2-3.3-1.5-1.1-.3-2.2-.4-3.5-.4-.5 0-1.1 0-1.7.1-.6.1-1.1.2-1.6.3-.5.2-.9.4-1.2.7-.3.3-.5.6-.5 1 0 .5.5 1 1.4 1.3 1 .3 2.6.7 4.9 1 1.2.2 2.4.4 3.4.7s1.9.6 2.7 1.1c.7.5 1.3 1 1.7 1.8.3.7.5 1.6.5 2.6zM711.7 350.7h-4.5v-12.5c0-1.6-.3-2.7-.9-3.3s-1.5-.9-2.6-.9c-1.7 0-3 .7-4.1 2-1.1 1.4-1.6 3.2-1.6 5.6v9.1h-4.5v-28.5h4.5v13.2c.5-1.8 1.3-3.1 2.5-4.1 1.2-1 2.7-1.5 4.5-1.5 2.1 0 3.7.7 4.9 2 1.2 1.4 1.8 3.4 1.8 6.2v12.7zM733.9 350.7h-13.7v-4.1h4.5v-12.2h-4.5v-4.1h9v16.3h4.6v4.1zm-4.2-23h-5.5v-5.5h5.5v5.5zM742.3 330.4h4.5v1.8c.9-.8 1.7-1.3 2.6-1.7.9-.4 1.9-.6 3-.6 1.3 0 2.5.3 3.6.8s2.1 1.3 2.9 2.2c.8.9 1.4 2.1 1.9 3.4.5 1.3.7 2.7.7 4.3 0 1.6-.2 3-.7 4.3-.5 1.3-1.1 2.4-1.9 3.4-.8.9-1.8 1.7-2.9 2.2-1.1.5-2.3.8-3.6.8-1.1 0-2.1-.2-3-.6-.9-.4-1.8-1-2.6-1.8v10h-4.5v-28.5zm4.5 14.9c.5.6 1.2 1.1 2.1 1.4s1.6.5 2.4.5c1.7 0 3.1-.6 4.2-1.8s1.6-2.8 1.6-4.8-.5-3.6-1.6-4.8c-1.1-1.2-2.5-1.8-4.2-1.8-.8 0-1.6.2-2.4.5s-1.5.8-2.1 1.4v9.4z"/></g><g class="st1"><path class="st3" d="M107 466.2l1.3 28.8-4.6.9-4.9-11.5v12.5l-4.6.9-10-27 4.6-.9 6.4 18.3L95 477l4.2-.9 4.2 10.4-1.2-19.3 4.8-1z"/></g><g class="st1"><path class="st3" d="M118.2 484.2c.6 1.3 1.5 2.3 2.8 2.9 1.3.6 2.9.7 4.7.2 1.4-.4 2.6-.9 3.5-1.6.9-.7 1.7-1.5 2.3-2.5l3 2.5c-.9 1.6-2.1 2.8-3.4 3.6-1.3.8-2.8 1.5-4.5 1.9-1.5.4-3 .5-4.4.3s-2.8-.6-4-1.2c-1.2-.7-2.2-1.5-3.1-2.7-.9-1.1-1.5-2.4-1.9-4-.4-1.5-.5-2.9-.3-4.3s.6-2.7 1.3-3.8c.7-1.2 1.6-2.2 2.7-3 1.1-.8 2.5-1.5 4-1.9 1.6-.4 3.1-.5 4.5-.3s2.7.7 3.9 1.5c1.2.8 2.2 1.9 3.1 3.2.9 1.4 1.6 3 2.1 4.8l-16.3 4.4zm10.6-6.9c-.6-1.2-1.5-2.1-2.8-2.5s-2.6-.6-4-.2c-1.4.4-2.5 1.1-3.4 2.1s-1.3 2.2-1.2 3.6l11.4-3z"/></g><g class="st1"><path class="st3" d="M152.9 453.2l4.6 28.5-4.4 1.4-6.2-10.9 1.4 12.4-4.4 1.4-13-25.7 4.5-1.4 8.4 17.4-1.4-11.1 4.1-1.3 5.3 9.9-3.4-19.1 4.5-1.5z"/></g><g class="st1"><path class="st3" d="M181.1 461.8c.6 1.5.9 2.9.9 4.3s-.2 2.7-.8 3.9c-.5 1.2-1.3 2.3-2.3 3.3-1 1-2.3 1.8-3.8 2.4-1.5.6-2.9.9-4.3.9s-2.7-.3-3.9-.8c-1.2-.5-2.3-1.3-3.2-2.3-.9-1-1.7-2.3-2.3-3.7-.6-1.4-.9-2.9-.9-4.3s.2-2.7.7-4c.5-1.2 1.3-2.3 2.3-3.3 1-1 2.3-1.7 3.8-2.3 1.5-.6 3-.9 4.4-.9 1.4 0 2.7.3 4 .8 1.2.5 2.3 1.3 3.3 2.4.8 1 1.6 2.2 2.1 3.6zm-4.2 1.7c-.3-.9-.8-1.6-1.4-2.3s-1.2-1.2-1.9-1.5c-.7-.3-1.5-.5-2.3-.6-.8 0-1.7.1-2.6.5-.9.4-1.6.8-2.2 1.4-.6.6-1 1.3-1.3 2-.3.7-.4 1.5-.3 2.4 0 .9.2 1.7.6 2.6.4.9.8 1.7 1.4 2.3.6.6 1.2 1.1 1.9 1.5.7.4 1.5.6 2.3.6.8 0 1.7-.1 2.6-.5.9-.3 1.6-.8 2.2-1.4.6-.6 1-1.3 1.3-2 .3-.8.4-1.6.4-2.4-.1-.8-.3-1.7-.7-2.6z"/></g><g class="st1"><path class="st3" d="M200.3 446.6c-.6 0-1.2.1-1.7.2-.6.1-1.2.3-1.8.7-.9.4-1.7 1-2.3 1.7-.7.7-1.1 1.4-1.4 2.2-.3.8-.4 1.7-.3 2.7.1 1 .4 2 .9 3.1l2.2 4.5 4.1-2 1.8 3.6-12.3 6.1-1.8-3.6 4.1-2-5.4-10.9-4.1 2-1.8-3.7 8.2-4 2.3 4.6c-.2-2.2.1-3.9 1-5.3s2.3-2.5 4.1-3.4c.6-.3 1.2-.5 1.8-.7.7-.2 1.4-.3 2.1-.3l.3 4.5z"/></g><g class="st1"><path class="st3" d="M229.8 447.6l-5 2.9-10-3.7-.7 2.8 3.1 5.3-3.9 2.3-14.2-24.5 3.9-2.3 8.4 14.4 2.7-11.5 5.3-3.1L216 443l13.8 4.6z"/></g></svg>