<svg id="Layer_1" xmlns="http://www.w3.org/2000/svg" viewBox="0 0 570.7 295.4"><style>.st1{enable-background:new}.st2{fill:#fff}</style><path d="M335.7 5.8C253 2.3 170.3 14.6 92.2 42 58.6 53.8 23.1 71.2 9 104c-6.8 15.7-7.7 33.2-8.5 50.3-2.1 43.2-.5 94.3 35.1 118.9 18.9 13.1 43 15.1 65.9 16.5 42.7 2.6 85.4 4.7 128.2 5.5 64.9 1.1 131.2-.9 192.5-22.2 37.2-13 71.7-32.6 105.9-52.1 12.6-7.2 25.7-14.8 34.3-26.5 8.6-11.7 11.7-28.9 3.2-40.7-5.2-7.2-13.5-11.3-21.5-15.3C469.7 101.8 400.4 55.2 338.4 0" fill="#606161"/><g class="st1"><path class="st2" d="M121.9 130.8h-4.1v-6.3H114v20.4h4.5v4.1H105v-4.1h4.5v-20.4h-3.9v6.3h-4v-10.4h20.3v10.4zM145.3 149h-4.5v-12.5c0-1.6-.3-2.7-.9-3.3s-1.5-.9-2.6-.9c-1.7 0-3 .7-4.1 2-1.1 1.4-1.6 3.2-1.6 5.6v9.1h-4.5v-28.5h4.5v13.2c.5-1.8 1.3-3.1 2.5-4.1 1.2-1 2.7-1.5 4.5-1.5 2.1 0 3.7.7 4.9 2 1.2 1.4 1.8 3.4 1.8 6.2V149zM154.6 140.5c.2 1.4.9 2.6 2 3.5 1.1.9 2.6 1.4 4.5 1.4 1.5 0 2.7-.2 3.8-.7 1.1-.5 2-1.1 2.8-1.8l2.3 3.2c-1.3 1.3-2.7 2.2-4.2 2.7s-3.1.7-4.8.7c-1.6 0-3-.3-4.4-.8-1.4-.5-2.5-1.3-3.5-2.2-1-.9-1.8-2.1-2.3-3.3s-.8-2.7-.8-4.3c0-1.5.3-3 .8-4.3.5-1.3 1.2-2.4 2.2-3.4s2.1-1.7 3.4-2.2 2.8-.8 4.3-.8c1.6 0 3.1.3 4.5.8 1.3.6 2.5 1.4 3.4 2.4 1 1.1 1.7 2.4 2.2 3.9.5 1.5.8 3.3.8 5.2h-17zm11.9-4c-.2-1.3-.9-2.4-2-3.2-1.1-.8-2.4-1.2-3.8-1.2s-2.7.4-3.8 1.2c-1.1.8-1.8 1.8-2.1 3.2h11.7zM218.5 138.8c0 1.6-.2 3.1-.5 4.4-.4 1.3-.9 2.4-1.7 3.3-.7.9-1.7 1.6-2.8 2.2-1.1.5-2.5.8-4.1.8-1.6 0-2.9-.3-4.1-.8-1.1-.5-2.1-1.2-2.8-2.2-.8-.9-1.3-2-1.7-3.4-.4-1.3-.5-2.8-.5-4.4v-18.3h4.5v18.4c0 .7.1 1.5.2 2.2.1.8.3 1.5.6 2.1.3.7.8 1.2 1.4 1.6.6.4 1.4.6 2.4.6s1.8-.2 2.4-.6c.6-.4 1.1-.9 1.4-1.6.3-.6.6-1.4.7-2.1.1-.8.2-1.5.2-2.2v-18.4h4.5v18.4zM224.7 128.6h4.5v1.8c.9-.8 1.7-1.3 2.6-1.7.9-.4 1.9-.6 3-.6 1.3 0 2.5.3 3.6.8s2.1 1.3 2.9 2.2 1.4 2.1 1.9 3.4c.5 1.3.7 2.7.7 4.3 0 1.6-.2 3-.7 4.3-.5 1.3-1.1 2.4-1.9 3.4s-1.8 1.7-2.9 2.2c-1.1.5-2.3.8-3.6.8-1.1 0-2.1-.2-3-.6-.9-.4-1.8-1-2.6-1.8v10h-4.5v-28.5zm4.5 14.9c.5.6 1.2 1.1 2.1 1.4s1.6.5 2.4.5c1.7 0 3.1-.6 4.2-1.8s1.6-2.8 1.6-4.8-.5-3.6-1.6-4.8c-1.1-1.2-2.5-1.8-4.2-1.8-.8 0-1.6.2-2.4.5s-1.5.8-2.1 1.4v9.4zM267.9 133.4c-.5-.3-1.1-.5-1.6-.6-.6-.1-1.2-.2-1.9-.2-1 0-1.9.1-2.8.4-.9.3-1.6.7-2.3 1.3-.6.6-1.1 1.3-1.5 2.2-.4.9-.5 2-.5 3.2v5.1h4.6v4.1H248v-4.1h4.6v-12.2H248v-4.1h9.1v5.1c.7-2 1.8-3.5 3.3-4.3 1.4-.8 3.2-1.3 5.2-1.3.6 0 1.3.1 2 .2s1.4.4 2 .7l-1.7 4.5zM289.5 149h-13.7v-4.1h4.5v-12.2h-4.5v-4.1h9v16.3h4.6v4.1zm-4.2-23h-5.5v-5.5h5.5v5.5zM316.6 142.9c0 1.3-.3 2.4-.9 3.2s-1.4 1.5-2.3 2c-.9.5-2 .9-3.1 1.1s-2.3.3-3.4.3c-1.8 0-3.7-.3-5.5-.8-1.8-.5-3.4-1.2-4.8-2.1l1.9-3.7c1.6.9 3.1 1.6 4.4 2 1.3.4 2.7.6 4 .6 1.8 0 3.1-.2 4-.6.8-.4 1.2-.9 1.2-1.6 0-.3-.1-.6-.3-.8-.2-.2-.6-.4-1.2-.6-.5-.2-1.2-.4-2.1-.5-.9-.2-2-.4-3.3-.6l-3-.6c-.9-.3-1.8-.6-2.5-1.1-.7-.5-1.3-1.1-1.7-1.8-.4-.7-.6-1.6-.6-2.7s.3-2 .8-2.9c.6-.8 1.3-1.5 2.2-2s1.9-.9 3.1-1.1c1.1-.2 2.3-.3 3.4-.3 1.6 0 3.2.2 4.7.6s2.8 1 4 1.8l-1.8 3.5c-1.1-.7-2.2-1.2-3.3-1.5-1.1-.3-2.2-.4-3.5-.4-.5 0-1.1 0-1.7.1-.6.1-1.1.2-1.6.3-.5.2-.9.4-1.2.7-.3.3-.5.6-.5 1 0 .5.5 1 1.4 1.3 1 .3 2.6.7 4.9 1 1.2.2 2.4.4 3.4.7 1 .3 1.9.6 2.7 1.1.7.5 1.3 1 1.7 1.8.3.6.5 1.5.5 2.6zM338.3 149h-13.7v-4.1h4.5v-12.2h-4.5v-4.1h9v16.3h4.6v4.1zm-4.2-23h-5.5v-5.5h5.5v5.5zM364.9 149h-4.5v-12.5c0-1.6-.3-2.7-.9-3.3s-1.5-.9-2.6-.9c-1.7 0-3 .7-4.1 2-1.1 1.4-1.6 3.2-1.6 5.6v9.1h-4.5v-20.3h4.5v5.1c.5-1.8 1.3-3.1 2.5-4.1 1.2-1 2.7-1.5 4.5-1.5 2.1 0 3.7.7 4.9 2 1.2 1.4 1.8 3.4 1.8 6.2V149zM389.3 148.7c0 1.4-.2 2.6-.7 3.7-.5 1.1-1.2 2-2 2.8-.9.8-1.9 1.3-3.1 1.7-1.2.4-2.5.6-3.9.6-3.5 0-6.6-1.1-9.1-3.2l2.1-3.5c2.1 1.8 4.4 2.7 6.9 2.7 1.6 0 2.8-.4 3.8-1.1 1-.8 1.4-2 1.4-3.6v-2.2c-.9.8-1.8 1.4-2.7 1.8-.9.4-1.9.6-3 .6-1.3 0-2.5-.3-3.6-.8-1.1-.6-2.1-1.3-2.9-2.3-.8-1-1.4-2.1-1.9-3.3s-.7-2.6-.7-4 .2-2.8.7-4 1.1-2.4 1.9-3.3c.8-.9 1.8-1.7 2.9-2.2 1.1-.5 2.3-.8 3.6-.8 1.1 0 2.1.2 3 .6.9.4 1.8 1 2.6 1.7v-1.8h4.5v19.9zm-4.5-14.7c-.5-.6-1.2-1.1-2.1-1.4-.9-.3-1.7-.5-2.5-.5-1.7 0-3.1.6-4.1 1.8-1.1 1.2-1.6 2.7-1.6 4.6 0 .9.1 1.8.4 2.5.3.8.7 1.5 1.2 2s1.1 1 1.8 1.3c.7.3 1.5.5 2.3.5.8 0 1.6-.2 2.5-.5.9-.3 1.5-.8 2.1-1.4V134z"/></g><g class="st1"><path class="st2" d="M122.4 193.9c-.3 1.4-.8 2.7-1.4 3.8-.6 1.1-1.3 2.1-2.1 2.9-.8.8-1.8 1.4-2.9 1.8-1.1.4-2.4.7-3.8.7-2 0-3.7-.4-5.1-1.2-1.4-.8-2.5-1.9-3.4-3.3s-1.5-2.9-1.9-4.7c-.4-1.8-.6-3.6-.6-5.5s.2-3.7.6-5.5 1-3.3 1.9-4.7c.9-1.4 2-2.4 3.3-3.3 1.3-.8 3-1.2 4.9-1.2.6 0 1.3.1 1.9.2.6.2 1.2.4 1.8.7s1 .7 1.5 1.2c.4.5.7 1 .9 1.7v-3.4h4.1v10.8H118c0-.9-.1-1.8-.3-2.6-.2-.9-.6-1.6-1-2.3-.5-.7-1.1-1.2-1.8-1.6s-1.6-.6-2.6-.6c-1.3 0-2.3.3-3.1.9-.8.6-1.5 1.4-2 2.5-.5 1-.8 2.2-1 3.4-.2 1.3-.3 2.5-.3 3.8 0 1.3.1 2.6.3 3.8.2 1.3.5 2.4 1 3.4s1.1 1.8 2 2.5c.8.6 1.9.9 3.2.9 1.8 0 3.3-.6 4.3-1.8s1.8-2.8 2.4-4.8l3.3 1.5zM145.9 187.1c-.5-.3-1.1-.5-1.6-.6-.6-.1-1.2-.2-1.9-.2-1 0-1.9.1-2.8.4-.9.3-1.6.7-2.3 1.3-.6.6-1.1 1.3-1.5 2.2-.4.9-.5 2-.5 3.2v5.1h4.6v4.1H126v-4.1h4.6v-12.2H126v-4.1h9.1v5.1c.7-2 1.8-3.5 3.3-4.3 1.4-.8 3.2-1.3 5.2-1.3.6 0 1.3.1 2 .2s1.4.4 2 .7l-1.7 4.5zM154.6 194.2c.2 1.4.9 2.6 2 3.5 1.1.9 2.6 1.4 4.5 1.4 1.5 0 2.7-.2 3.8-.7 1.1-.5 2-1.1 2.8-1.8l2.3 3.2c-1.3 1.3-2.7 2.2-4.2 2.7s-3.1.7-4.8.7c-1.6 0-3-.3-4.4-.8-1.4-.5-2.5-1.3-3.5-2.2-1-.9-1.8-2.1-2.3-3.3s-.8-2.7-.8-4.3c0-1.5.3-3 .8-4.3.5-1.3 1.2-2.4 2.2-3.4s2.1-1.7 3.4-2.2 2.8-.8 4.3-.8c1.6 0 3.1.3 4.5.8 1.3.6 2.5 1.4 3.4 2.4 1 1.1 1.7 2.4 2.2 3.9.5 1.5.8 3.3.8 5.2h-17zm11.9-4c-.2-1.3-.9-2.4-2-3.2-1.1-.8-2.4-1.2-3.8-1.2s-2.7.4-3.8 1.2c-1.1.8-1.8 1.8-2.1 3.2h11.7zM174.7 196.8c0-1.2.3-2.2 1-3.1.6-.9 1.5-1.6 2.5-2.2 1-.6 2.2-1 3.6-1.3 1.3-.3 2.7-.4 4.1-.4h2c.6 0 1.1.1 1.7.1v-.9c0-1.1-.4-1.9-1.2-2.4-.8-.5-1.9-.8-3.2-.8-1.2 0-2.5.2-3.7.5s-2.5.8-3.6 1.5l-1.8-3.5c1.3-.8 2.8-1.4 4.3-1.8 1.5-.4 3.2-.7 4.9-.7 1.1 0 2.2.1 3.3.4 1.1.2 2 .7 2.9 1.2.9.6 1.5 1.3 2 2.2.5.9.8 2 .8 3.4v13.6h-4.5v-3c-.7 1.1-1.8 2-3.2 2.6-1.4.6-2.9.9-4.5.9-1 0-1.9-.1-2.8-.4-.9-.3-1.6-.7-2.3-1.2-.6-.5-1.2-1.2-1.5-2-.6-.8-.8-1.7-.8-2.7zm8.4 2.3c.9 0 1.7-.1 2.5-.3s1.5-.5 2.1-.9c.6-.4 1.1-.9 1.4-1.4.3-.6.5-1.2.5-1.9v-.8c-.7-.1-1.4-.2-2-.2h-1.7c-2.2 0-3.9.3-5 .9-1.1.6-1.7 1.3-1.7 2.2 0 1.5 1.3 2.4 3.9 2.4zM219.8 196.1c-.2 2.1-1.1 3.8-2.5 5.1-1.4 1.3-3.3 1.9-5.4 1.9-1.2 0-2.3-.2-3.3-.6-1-.4-1.8-.9-2.5-1.6-.7-.7-1.2-1.5-1.6-2.5-.4-1-.6-2.1-.6-3.2v-8.8h-4.6v-4.1h4.6v-8.1h4.5v8.1h8.5v4.1h-8.5v8.8c0 1.3.3 2.3 1 2.9s1.5 1 2.5 1c1.3 0 2.2-.4 2.9-1.1s1-1.6 1.1-2.7l3.9.8zM240.7 202.6H227v-4.1h4.5v-12.2H227v-4.1h9v16.3h4.6v4.1zm-4.2-23H231v-5.5h5.5v5.5zM268.4 182.3l-7.5 20.3h-5.3l-7.5-20.3h4.8l5.4 15.4 5.3-15.4h4.8zM276.6 194.2c.2 1.4.9 2.6 2 3.5 1.1.9 2.6 1.4 4.5 1.4 1.5 0 2.7-.2 3.8-.7 1.1-.5 2-1.1 2.8-1.8l2.3 3.2c-1.3 1.3-2.7 2.2-4.2 2.7s-3.1.7-4.8.7c-1.6 0-3-.3-4.4-.8-1.4-.5-2.5-1.3-3.5-2.2-1-.9-1.8-2.1-2.3-3.3s-.8-2.7-.8-4.3c0-1.5.3-3 .8-4.3.5-1.3 1.2-2.4 2.2-3.4s2.1-1.7 3.4-2.2 2.8-.8 4.3-.8c1.6 0 3.1.3 4.5.8 1.3.6 2.5 1.4 3.4 2.4 1 1.1 1.7 2.4 2.2 3.9.5 1.5.8 3.3.8 5.2h-17zm11.9-4c-.2-1.3-.9-2.4-2-3.2-1.1-.8-2.4-1.2-3.8-1.2s-2.7.4-3.8 1.2c-1.1.8-1.8 1.8-2.1 3.2h11.7z"/></g></svg>