<?xml version="1.0" encoding="utf-8"?>
<!-- Generator: Adobe Illustrator 22.0.1, SVG Export Plug-In . SVG Version: 6.00 Build 0)  -->
<svg version="1.1" id="Layer_1" xmlns="http://www.w3.org/2000/svg" xmlns:xlink="http://www.w3.org/1999/xlink" x="0px" y="0px"
	 viewBox="0 0 570.7 295.4" style="enable-background:new 0 0 570.7 295.4;" xml:space="preserve">
<style type="text/css">
	.st0{fill:#606161;}
	.st1{enable-background:new    ;}
	.st2{fill:#FFFFFF;}
</style>
<title>TheUprisingCreative</title>
<path class="st0" d="M335.7,5.8C253,2.3,170.3,14.6,92.2,42C58.6,53.8,23.1,71.2,9,104c-6.8,15.7-7.7,33.2-8.5,50.3
	c-2.1,43.2-0.5,94.3,35.1,118.9c18.9,13.1,43,15.1,65.9,16.5c42.7,2.6,85.4,4.7,128.2,5.5c64.9,1.1,131.2-0.9,192.5-22.2
	c37.2-13,71.7-32.6,105.9-52.1c12.6-7.2,25.7-14.8,34.3-26.5c8.6-11.7,11.7-28.9,3.2-40.7c-5.2-7.2-13.5-11.3-21.5-15.3
	C469.7,101.8,400.4,55.2,338.4,0"/>
<g class="st1">
	<path class="st2" d="M121.9,130.8h-4.1v-6.3H114v20.4h4.5v4.1H105v-4.1h4.5v-20.4h-3.9v6.3h-4v-10.4h20.3V130.8z"/>
	<path class="st2" d="M145.3,149h-4.5v-12.5c0-1.6-0.3-2.7-0.9-3.3s-1.5-0.9-2.6-0.9c-1.7,0-3,0.7-4.1,2c-1.1,1.4-1.6,3.2-1.6,5.6
		v9.1h-4.5v-28.5h4.5v13.2c0.5-1.8,1.3-3.1,2.5-4.1c1.2-1,2.7-1.5,4.5-1.5c2.1,0,3.7,0.7,4.9,2c1.2,1.4,1.8,3.4,1.8,6.2V149z"/>
	<path class="st2" d="M154.6,140.5c0.2,1.4,0.9,2.6,2,3.5c1.1,0.9,2.6,1.4,4.5,1.4c1.5,0,2.7-0.2,3.8-0.7c1.1-0.5,2-1.1,2.8-1.8
		l2.3,3.2c-1.3,1.3-2.7,2.2-4.2,2.7c-1.5,0.5-3.1,0.7-4.8,0.7c-1.6,0-3-0.3-4.4-0.8c-1.4-0.5-2.5-1.3-3.5-2.2
		c-1-0.9-1.8-2.1-2.3-3.3s-0.8-2.7-0.8-4.3c0-1.5,0.3-3,0.8-4.3c0.5-1.3,1.2-2.4,2.2-3.4s2.1-1.7,3.4-2.2s2.8-0.8,4.3-0.8
		c1.6,0,3.1,0.3,4.5,0.8c1.3,0.6,2.5,1.4,3.4,2.4c1,1.1,1.7,2.4,2.2,3.9c0.5,1.5,0.8,3.3,0.8,5.2H154.6z M166.5,136.5
		c-0.2-1.3-0.9-2.4-2-3.2c-1.1-0.8-2.4-1.2-3.8-1.2c-1.4,0-2.7,0.4-3.8,1.2c-1.1,0.8-1.8,1.8-2.1,3.2H166.5z"/>
	<path class="st2" d="M218.5,138.8c0,1.6-0.2,3.1-0.5,4.4c-0.4,1.3-0.9,2.4-1.7,3.3c-0.7,0.9-1.7,1.6-2.8,2.2
		c-1.1,0.5-2.5,0.8-4.1,0.8c-1.6,0-2.9-0.3-4.1-0.8c-1.1-0.5-2.1-1.2-2.8-2.2c-0.8-0.9-1.3-2-1.7-3.4c-0.4-1.3-0.5-2.8-0.5-4.4
		v-18.3h4.5v18.4c0,0.7,0.1,1.5,0.2,2.2c0.1,0.8,0.3,1.5,0.6,2.1c0.3,0.7,0.8,1.2,1.4,1.6c0.6,0.4,1.4,0.6,2.4,0.6
		c1,0,1.8-0.2,2.4-0.6c0.6-0.4,1.1-0.9,1.4-1.6c0.3-0.6,0.6-1.4,0.7-2.1c0.1-0.8,0.2-1.5,0.2-2.2v-18.4h4.5V138.8z"/>
	<path class="st2" d="M224.7,128.6h4.5v1.8c0.9-0.8,1.7-1.3,2.6-1.7c0.9-0.4,1.9-0.6,3-0.6c1.3,0,2.5,0.3,3.6,0.8
		c1.1,0.5,2.1,1.3,2.9,2.2s1.4,2.1,1.9,3.4c0.5,1.3,0.7,2.7,0.7,4.3c0,1.6-0.2,3-0.7,4.3c-0.5,1.3-1.1,2.4-1.9,3.4s-1.8,1.7-2.9,2.2
		c-1.1,0.5-2.3,0.8-3.6,0.8c-1.1,0-2.1-0.2-3-0.6c-0.9-0.4-1.8-1-2.6-1.8v10h-4.5V128.6z M229.2,143.5c0.5,0.6,1.2,1.1,2.1,1.4
		s1.6,0.5,2.4,0.5c1.7,0,3.1-0.6,4.2-1.8s1.6-2.8,1.6-4.8c0-2-0.5-3.6-1.6-4.8c-1.1-1.2-2.5-1.8-4.2-1.8c-0.8,0-1.6,0.2-2.4,0.5
		s-1.5,0.8-2.1,1.4V143.5z"/>
	<path class="st2" d="M267.9,133.4c-0.5-0.3-1.1-0.5-1.6-0.6c-0.6-0.1-1.2-0.2-1.9-0.2c-1,0-1.9,0.1-2.8,0.4
		c-0.9,0.3-1.6,0.7-2.3,1.3c-0.6,0.6-1.1,1.3-1.5,2.2c-0.4,0.9-0.5,2-0.5,3.2v5.1h4.6v4.1H248v-4.1h4.6v-12.2H248v-4.1h9.1v5.1
		c0.7-2,1.8-3.5,3.3-4.3c1.4-0.8,3.2-1.3,5.2-1.3c0.6,0,1.3,0.1,2,0.2s1.4,0.4,2,0.7L267.9,133.4z"/>
	<path class="st2" d="M289.5,149h-13.7v-4.1h4.5v-12.2h-4.5v-4.1h9v16.3h4.6V149z M285.3,126h-5.5v-5.5h5.5V126z"/>
	<path class="st2" d="M316.6,142.9c0,1.3-0.3,2.4-0.9,3.2s-1.4,1.5-2.3,2c-0.9,0.5-2,0.9-3.1,1.1s-2.3,0.3-3.4,0.3
		c-1.8,0-3.7-0.3-5.5-0.8c-1.8-0.5-3.4-1.2-4.8-2.1l1.9-3.7c1.6,0.9,3.1,1.6,4.4,2c1.3,0.4,2.7,0.6,4,0.6c1.8,0,3.1-0.2,4-0.6
		c0.8-0.4,1.2-0.9,1.2-1.6c0-0.3-0.1-0.6-0.3-0.8c-0.2-0.2-0.6-0.4-1.2-0.6c-0.5-0.2-1.2-0.4-2.1-0.5c-0.9-0.2-2-0.4-3.3-0.6
		c-1-0.2-2-0.4-3-0.6c-0.9-0.3-1.8-0.6-2.5-1.1c-0.7-0.5-1.3-1.1-1.7-1.8c-0.4-0.7-0.6-1.6-0.6-2.7c0-1.1,0.3-2,0.8-2.9
		c0.6-0.8,1.3-1.5,2.2-2s1.9-0.9,3.1-1.1c1.1-0.2,2.3-0.3,3.4-0.3c1.6,0,3.2,0.2,4.7,0.6s2.8,1,4,1.8l-1.8,3.5
		c-1.1-0.7-2.2-1.2-3.3-1.5c-1.1-0.3-2.2-0.4-3.5-0.4c-0.5,0-1.1,0-1.7,0.1c-0.6,0.1-1.1,0.2-1.6,0.3c-0.5,0.2-0.9,0.4-1.2,0.7
		c-0.3,0.3-0.5,0.6-0.5,1c0,0.5,0.5,1,1.4,1.3c1,0.3,2.6,0.7,4.9,1c1.2,0.2,2.4,0.4,3.4,0.7c1,0.3,1.9,0.6,2.7,1.1
		c0.7,0.5,1.3,1,1.7,1.8C316.4,140.9,316.6,141.8,316.6,142.9z"/>
	<path class="st2" d="M338.3,149h-13.7v-4.1h4.5v-12.2h-4.5v-4.1h9v16.3h4.6V149z M334.1,126h-5.5v-5.5h5.5V126z"/>
	<path class="st2" d="M364.9,149h-4.5v-12.5c0-1.6-0.3-2.7-0.9-3.3s-1.5-0.9-2.6-0.9c-1.7,0-3,0.7-4.1,2c-1.1,1.4-1.6,3.2-1.6,5.6
		v9.1h-4.5v-20.3h4.5v5.1c0.5-1.8,1.3-3.1,2.5-4.1c1.2-1,2.7-1.5,4.5-1.5c2.1,0,3.7,0.7,4.9,2c1.2,1.4,1.8,3.4,1.8,6.2V149z"/>
	<path class="st2" d="M389.3,148.7c0,1.4-0.2,2.6-0.7,3.7c-0.5,1.1-1.2,2-2,2.8c-0.9,0.8-1.9,1.3-3.1,1.7c-1.2,0.4-2.5,0.6-3.9,0.6
		c-3.5,0-6.6-1.1-9.1-3.2l2.1-3.5c2.1,1.8,4.4,2.7,6.9,2.7c1.6,0,2.8-0.4,3.8-1.1c1-0.8,1.4-2,1.4-3.6v-2.2
		c-0.9,0.8-1.8,1.4-2.7,1.8c-0.9,0.4-1.9,0.6-3,0.6c-1.3,0-2.5-0.3-3.6-0.8c-1.1-0.6-2.1-1.3-2.9-2.3c-0.8-1-1.4-2.1-1.9-3.3
		s-0.7-2.6-0.7-4s0.2-2.8,0.7-4s1.1-2.4,1.9-3.3c0.8-0.9,1.8-1.7,2.9-2.2c1.1-0.5,2.3-0.8,3.6-0.8c1.1,0,2.1,0.2,3,0.6
		c0.9,0.4,1.8,1,2.6,1.7v-1.8h4.5V148.7z M384.8,134c-0.5-0.6-1.2-1.1-2.1-1.4c-0.9-0.3-1.7-0.5-2.5-0.5c-1.7,0-3.1,0.6-4.1,1.8
		c-1.1,1.2-1.6,2.7-1.6,4.6c0,0.9,0.1,1.8,0.4,2.5c0.3,0.8,0.7,1.5,1.2,2s1.1,1,1.8,1.3c0.7,0.3,1.5,0.5,2.3,0.5
		c0.8,0,1.6-0.2,2.5-0.5c0.9-0.3,1.5-0.8,2.1-1.4V134z"/>
</g>
<g class="st1">
	<path class="st2" d="M122.4,193.9c-0.3,1.4-0.8,2.7-1.4,3.8c-0.6,1.1-1.3,2.1-2.1,2.9c-0.8,0.8-1.8,1.4-2.9,1.8
		c-1.1,0.4-2.4,0.7-3.8,0.7c-2,0-3.7-0.4-5.1-1.2c-1.4-0.8-2.5-1.9-3.4-3.3s-1.5-2.9-1.9-4.7c-0.4-1.8-0.6-3.6-0.6-5.5
		c0-1.9,0.2-3.7,0.6-5.5s1-3.3,1.9-4.7c0.9-1.4,2-2.4,3.3-3.3c1.3-0.8,3-1.2,4.9-1.2c0.6,0,1.3,0.1,1.9,0.2c0.6,0.2,1.2,0.4,1.8,0.7
		s1,0.7,1.5,1.2c0.4,0.5,0.7,1,0.9,1.7v-3.4h4.1v10.8h-4.1c0-0.9-0.1-1.8-0.3-2.6c-0.2-0.9-0.6-1.6-1-2.3c-0.5-0.7-1.1-1.2-1.8-1.6
		s-1.6-0.6-2.6-0.6c-1.3,0-2.3,0.3-3.1,0.9c-0.8,0.6-1.5,1.4-2,2.5c-0.5,1-0.8,2.2-1,3.4c-0.2,1.3-0.3,2.5-0.3,3.8
		c0,1.3,0.1,2.6,0.3,3.8c0.2,1.3,0.5,2.4,1,3.4c0.5,1,1.1,1.8,2,2.5c0.8,0.6,1.9,0.9,3.2,0.9c1.8,0,3.3-0.6,4.3-1.8s1.8-2.8,2.4-4.8
		L122.4,193.9z"/>
	<path class="st2" d="M145.9,187.1c-0.5-0.3-1.1-0.5-1.6-0.6c-0.6-0.1-1.2-0.2-1.9-0.2c-1,0-1.9,0.1-2.8,0.4
		c-0.9,0.3-1.6,0.7-2.3,1.3c-0.6,0.6-1.1,1.3-1.5,2.2c-0.4,0.9-0.5,2-0.5,3.2v5.1h4.6v4.1H126v-4.1h4.6v-12.2H126v-4.1h9.1v5.1
		c0.7-2,1.8-3.5,3.3-4.3c1.4-0.8,3.2-1.3,5.2-1.3c0.6,0,1.3,0.1,2,0.2s1.4,0.4,2,0.7L145.9,187.1z"/>
	<path class="st2" d="M154.6,194.2c0.2,1.4,0.9,2.6,2,3.5c1.1,0.9,2.6,1.4,4.5,1.4c1.5,0,2.7-0.2,3.8-0.7c1.1-0.5,2-1.1,2.8-1.8
		l2.3,3.2c-1.3,1.3-2.7,2.2-4.2,2.7c-1.5,0.5-3.1,0.7-4.8,0.7c-1.6,0-3-0.3-4.4-0.8c-1.4-0.5-2.5-1.3-3.5-2.2
		c-1-0.9-1.8-2.1-2.3-3.3s-0.8-2.7-0.8-4.3c0-1.5,0.3-3,0.8-4.3c0.5-1.3,1.2-2.4,2.2-3.4s2.1-1.7,3.4-2.2s2.8-0.8,4.3-0.8
		c1.6,0,3.1,0.3,4.5,0.8c1.3,0.6,2.5,1.4,3.4,2.4c1,1.1,1.7,2.4,2.2,3.9c0.5,1.5,0.8,3.3,0.8,5.2H154.6z M166.5,190.2
		c-0.2-1.3-0.9-2.4-2-3.2c-1.1-0.8-2.4-1.2-3.8-1.2c-1.4,0-2.7,0.4-3.8,1.2c-1.1,0.8-1.8,1.8-2.1,3.2H166.5z"/>
	<path class="st2" d="M174.7,196.8c0-1.2,0.3-2.2,1-3.1c0.6-0.9,1.5-1.6,2.5-2.2c1-0.6,2.2-1,3.6-1.3c1.3-0.3,2.7-0.4,4.1-0.4
		c0.8,0,1.4,0,2,0c0.6,0,1.1,0.1,1.7,0.1V189c0-1.1-0.4-1.9-1.2-2.4c-0.8-0.5-1.9-0.8-3.2-0.8c-1.2,0-2.5,0.2-3.7,0.5
		s-2.5,0.8-3.6,1.5l-1.8-3.5c1.3-0.8,2.8-1.4,4.3-1.8c1.5-0.4,3.2-0.7,4.9-0.7c1.1,0,2.2,0.1,3.3,0.4c1.1,0.2,2,0.7,2.9,1.2
		c0.9,0.6,1.5,1.3,2,2.2c0.5,0.9,0.8,2,0.8,3.4v13.6h-4.5v-3c-0.7,1.1-1.8,2-3.2,2.6c-1.4,0.6-2.9,0.9-4.5,0.9c-1,0-1.9-0.1-2.8-0.4
		c-0.9-0.3-1.6-0.7-2.3-1.2c-0.6-0.5-1.2-1.2-1.5-2C174.9,198.7,174.7,197.8,174.7,196.8z M183.1,199.1c0.9,0,1.7-0.1,2.5-0.3
		s1.5-0.5,2.1-0.9c0.6-0.4,1.1-0.9,1.4-1.4c0.3-0.6,0.5-1.2,0.5-1.9v-0.8c-0.7-0.1-1.4-0.2-2-0.2c-0.6,0-1.2,0-1.7,0
		c-2.2,0-3.9,0.3-5,0.9c-1.1,0.6-1.7,1.3-1.7,2.2C179.2,198.2,180.5,199.1,183.1,199.1z"/>
	<path class="st2" d="M219.8,196.1c-0.2,2.1-1.1,3.8-2.5,5.1c-1.4,1.3-3.3,1.9-5.4,1.9c-1.2,0-2.3-0.2-3.3-0.6
		c-1-0.4-1.8-0.9-2.5-1.6c-0.7-0.7-1.2-1.5-1.6-2.5c-0.4-1-0.6-2.1-0.6-3.2v-8.8h-4.6v-4.1h4.6v-8.1h4.5v8.1h8.5v4.1h-8.5v8.8
		c0,1.3,0.3,2.3,1,2.9s1.5,1,2.5,1c1.3,0,2.2-0.4,2.9-1.1s1-1.6,1.1-2.7L219.8,196.1z"/>
	<path class="st2" d="M240.7,202.6H227v-4.1h4.5v-12.2H227v-4.1h9v16.3h4.6V202.6z M236.5,179.6H231v-5.5h5.5V179.6z"/>
	<path class="st2" d="M268.4,182.3l-7.5,20.3h-5.3l-7.5-20.3h4.8l5.4,15.4l5.3-15.4H268.4z"/>
	<path class="st2" d="M276.6,194.2c0.2,1.4,0.9,2.6,2,3.5c1.1,0.9,2.6,1.4,4.5,1.4c1.5,0,2.7-0.2,3.8-0.7c1.1-0.5,2-1.1,2.8-1.8
		l2.3,3.2c-1.3,1.3-2.7,2.2-4.2,2.7c-1.5,0.5-3.1,0.7-4.8,0.7c-1.6,0-3-0.3-4.4-0.8c-1.4-0.5-2.5-1.3-3.5-2.2
		c-1-0.9-1.8-2.1-2.3-3.3s-0.8-2.7-0.8-4.3c0-1.5,0.3-3,0.8-4.3c0.5-1.3,1.2-2.4,2.2-3.4s2.1-1.7,3.4-2.2s2.8-0.8,4.3-0.8
		c1.6,0,3.1,0.3,4.5,0.8c1.3,0.6,2.5,1.4,3.4,2.4c1,1.1,1.7,2.4,2.2,3.9c0.5,1.5,0.8,3.3,0.8,5.2H276.6z M288.5,190.2
		c-0.2-1.3-0.9-2.4-2-3.2c-1.1-0.8-2.4-1.2-3.8-1.2c-1.4,0-2.7,0.4-3.8,1.2c-1.1,0.8-1.8,1.8-2.1,3.2H288.5z"/>
</g>
</svg>
