<?xml version="1.0" encoding="utf-8"?>
<!-- Generator: Adobe Illustrator 24.1.2, SVG Export Plug-In . SVG Version: 6.00 Build 0)  -->
<svg version="1.1" id="Layer_1" xmlns="http://www.w3.org/2000/svg" xmlns:xlink="http://www.w3.org/1999/xlink" x="0px" y="0px"
	 viewBox="0 0 570.7 295.4" style="enable-background:new 0 0 570.7 295.4;" xml:space="preserve">
<style type="text/css">
	.st0{fill:#BF271B;}
	.st1{fill:#FFFFFF;}
</style>
<path class="st0" d="M335.7,5.8C253,2.3,170.3,14.6,92.2,42C58.6,53.8,23.1,71.2,9,104c-6.8,15.7-7.7,33.2-8.5,50.3
	c-2.1,43.2-0.5,94.3,35.1,118.9c18.9,13.1,43,15.1,65.9,16.5c42.7,2.6,85.4,4.7,128.2,5.5c64.9,1.1,131.2-0.9,192.5-22.2
	c37.2-13,71.7-32.6,105.9-52.1c12.6-7.2,25.7-14.8,34.3-26.5s11.7-28.9,3.2-40.7c-5.2-7.2-13.5-11.3-21.5-15.3
	C469.7,101.8,400.4,55.2,338.4,0"/>
<g>
	<path class="st1" d="M90.6,110v6.1H78.4v30.4h-7.7v-30.4H58.4V110C58.4,110,90.6,110,90.6,110z"/>
	<path class="st1" d="M95.4,146.5v-39.8h7.5v16.8c0.9-1.7,2.1-3,3.7-4s3.3-1.3,5.3-1.3s3.6,0.4,5.2,1.1c1.5,0.8,2.6,1.9,3.6,3.3
		s1.3,3.3,1.3,5.6v18.1h-7.5v-16c0-2.4-0.4-4.1-1.3-4.9c-0.9-0.9-2.1-1.3-3.6-1.3c-1.1,0-2.1,0.3-3,0.8c-0.9,0.5-1.7,1.3-2.4,2.4
		c-0.7,1.2-0.9,2.6-0.9,4.5v14.7h-7.8V146.5z"/>
	<path class="st1" d="M142.5,147c-2.9,0-5.4-0.5-7.7-1.7c-2.1-1.2-3.8-2.8-5-4.9c-1.2-2.1-1.7-4.8-1.7-7.8c0-3,0.5-5.6,1.7-7.8
		c1.2-2.1,2.8-3.8,4.9-4.9c2.1-1.2,4.5-1.7,7.3-1.7c2.8,0,5.2,0.5,7.1,1.7c2,1.2,3.4,2.6,4.5,4.6c1.1,2,1.6,4.1,1.6,6.6
		c0,0.8,0,1.5,0,2.1s-0.1,1.2-0.1,1.7h-22.1v-5.3h18.8L148,131c0-2.4-0.5-4.1-1.6-5.4c-1.1-1.2-2.5-1.9-4.5-1.9
		c-1.5,0-2.6,0.4-3.6,1.1c-1.1,0.7-1.7,1.6-2.2,2.9s-0.8,2.9-0.8,4.9s0.3,3.6,0.8,4.9c0.5,1.3,1.3,2.2,2.4,2.9
		c1.1,0.7,2.4,0.9,3.8,0.9c1.6,0,2.9-0.3,4-0.9s1.7-1.5,2.4-2.6l6.1,2.4c-0.5,1.5-1.5,2.6-2.6,3.7c-1.2,1.1-2.6,1.9-4.2,2.4
		C146.2,146.8,144.3,147,142.5,147z"/>
	<path class="st1" d="M209.9,110v22.1c0,5-1.3,8.7-4,11.2s-6.5,3.7-11.6,3.7s-9-1.2-11.6-3.7c-2.6-2.5-4-6.2-4-11.2V110h7.7v21.8
		c0,3,0.7,5.3,2,6.7c1.3,1.5,3.3,2.2,5.9,2.2c2.6,0,4.6-0.8,5.9-2.2c1.3-1.5,2-3.7,2-6.7V110H209.9z"/>
	<path class="st1" d="M217.8,158.1v-39.3h6.7l0.5,8.9l-0.9-1.1c0.4-1.6,0.9-3,1.9-4.4c0.9-1.2,2.1-2.2,3.4-2.9
		c1.5-0.7,2.9-1.1,4.8-1.1c2.2,0,4.2,0.5,6.1,1.7c1.7,1.2,3.2,2.8,4.2,4.9c1.1,2.1,1.6,4.8,1.6,7.7s-0.5,5.6-1.6,7.8
		c-1.1,2.1-2.4,3.8-4.2,4.9c-1.9,1.2-3.8,1.7-6.1,1.7c-2.4,0-4.5-0.7-6.1-2c-1.6-1.3-2.6-3-3.3-5.2l0.7-1.2v19.4H217.8z
		 M231.8,141.2c2,0,3.6-0.8,4.8-2.2c1.2-1.5,1.7-3.6,1.7-6.3s-0.5-4.9-1.7-6.3c-1.2-1.5-2.6-2.2-4.8-2.2c-1.3,0-2.4,0.4-3.4,1.1
		c-0.9,0.7-1.7,1.7-2.2,2.9c-0.5,1.3-0.8,2.8-0.8,4.6c0,1.7,0.3,3.3,0.8,4.6c0.5,1.3,1.3,2.2,2.2,2.9
		C229.3,141,230.5,141.2,231.8,141.2z"/>
	<path class="st1" d="M252.4,146.5v-27.6h6.6l0.5,5.4c0.8-2,1.9-3.4,3.2-4.4c1.5-1.1,3.2-1.6,5.3-1.6c0.7,0,1.2,0,1.7,0.1
		c0.5,0.1,0.9,0.3,1.3,0.4l-0.9,6.3c-0.4-0.1-0.8-0.3-1.3-0.4c-0.5-0.1-1.2-0.1-2.1-0.1c-1.1,0-2.1,0.3-3.2,0.8
		c-1.1,0.5-1.9,1.3-2.5,2.4c-0.7,1.1-1.1,2.5-1.1,4.1v14.3h-7.5V146.5z"/>
	<path class="st1" d="M279.6,114.8c-1.6,0-2.8-0.4-3.6-1.1c-0.8-0.7-1.2-1.7-1.2-3s0.4-2.4,1.2-3c0.8-0.7,2-1.1,3.6-1.1
		s2.8,0.4,3.6,1.1c0.8,0.7,1.2,1.7,1.2,3s-0.4,2.4-1.2,3C282.4,114.5,281.2,114.8,279.6,114.8z M283.3,118.9v27.6h-7.5v-27.6H283.3z
		"/>
	<path class="st1" d="M302.5,147c-2.8,0-5.4-0.5-7.7-1.5c-2.2-1.1-4.2-2.4-5.6-4.2l4.4-4.4c0.9,1.3,2.1,2.4,3.6,3.3
		c1.5,0.8,3.2,1.3,5.3,1.3c1.5,0,2.6-0.3,3.4-0.7c0.9-0.4,1.3-1.1,1.3-2c0-0.5-0.3-1.1-0.7-1.6c-0.4-0.4-1.2-0.8-2.4-1.1l-4.9-1.1
		c-3.2-0.7-5.6-1.7-6.9-3s-2-3-2-5.3c0-1.5,0.4-2.9,1.3-4.2c0.9-1.3,2.2-2.4,4.1-3.2c1.9-0.8,4.1-1.2,6.7-1.2c2.8,0,5.2,0.4,7.3,1.3
		c2,0.9,3.7,2.1,4.9,3.8l-4.5,4.4c-0.8-1.3-1.9-2.2-3.2-2.9s-2.6-1.1-4.1-1.1c-1.1,0-2,0.1-2.6,0.4c-0.8,0.3-1.3,0.5-1.7,0.9
		c-0.4,0.4-0.5,0.9-0.5,1.5c0,0.5,0.3,1.1,0.8,1.6c0.5,0.4,1.5,0.8,2.8,1.1l5.7,1.2c2.8,0.5,4.6,1.5,5.8,2.8s1.7,2.9,1.7,4.8
		c0,1.7-0.5,3.3-1.5,4.8c-0.9,1.3-2.4,2.5-4.1,3.3C307.4,146.6,305.1,147,302.5,147z"/>
	<path class="st1" d="M324.6,114.8c-1.6,0-2.8-0.4-3.6-1.1c-0.8-0.7-1.2-1.7-1.2-3s0.4-2.4,1.2-3c0.8-0.7,2-1.1,3.6-1.1
		s2.8,0.4,3.6,1.1c0.8,0.7,1.2,1.7,1.2,3s-0.4,2.4-1.2,3C327.4,114.5,326.2,114.8,324.6,114.8z M328.3,118.9v27.6h-7.5v-27.6H328.3z
		"/>
	<path class="st1" d="M336.3,146.5v-27.6h6.7l0.4,8.3l-0.9-0.9c0.4-1.9,1.2-3.3,2.1-4.5c0.9-1.2,2.1-2.1,3.6-2.6
		c1.3-0.5,2.9-0.8,4.6-0.8c2,0,3.6,0.4,5.2,1.1c1.5,0.8,2.6,1.9,3.6,3.3c0.9,1.5,1.3,3.3,1.3,5.6v18.1h-7.5v-16c0-2.4-0.4-4-1.3-4.9
		c-0.9-0.9-2.1-1.3-3.6-1.3c-1.1,0-2,0.3-3,0.8c-0.9,0.5-1.7,1.3-2.4,2.4c-0.7,1.1-0.9,2.6-0.9,4.4v14.7h-7.8V146.5z"/>
	<path class="st1" d="M387.1,141.3c3,0,5.3,0.7,6.9,2s2.4,3,2.4,5.4c0,2.1-0.7,3.8-1.9,5.3s-2.9,2.5-5.2,3.3
		c-2.2,0.8-4.8,1.1-7.7,1.1c-4.8,0-8.2-0.7-10.4-2c-2.2-1.3-3.3-3-3.3-5.2c0-1.5,0.5-2.8,1.7-3.8s3-1.6,5.8-1.7l-0.3,0.9
		c-2-0.4-3.4-0.9-4.4-1.9c-1.1-0.9-1.6-2.2-1.6-4c0-1.7,0.7-3,2-4.2c1.3-1.1,3-1.7,5.3-1.9l3.3,1.6H379c-1.6,0.1-2.6,0.4-3.3,0.9
		c-0.7,0.5-0.9,1.2-0.9,1.9c0,0.8,0.3,1.3,0.9,1.7c0.7,0.4,1.5,0.5,2.6,0.5L387.1,141.3L387.1,141.3z M381.9,118.2
		c2.6,0,4.8,0.4,6.7,1.2c1.9,0.8,3.3,1.9,4.4,3.2c1.1,1.5,1.6,3,1.6,5c0,2-0.5,3.6-1.6,5c-1.1,1.5-2.5,2.5-4.4,3.2
		c-1.9,0.8-4.1,1.2-6.7,1.2c-4.1,0-7.3-0.8-9.4-2.5c-2.1-1.7-3.2-4-3.2-6.9c0-2,0.5-3.6,1.6-5c1.1-1.5,2.5-2.5,4.4-3.2
		C377,118.6,379.3,118.2,381.9,118.2z M381.9,153.2c2,0,3.4-0.1,4.8-0.5c1.2-0.4,2.1-0.8,2.8-1.3c0.7-0.5,0.9-1.1,0.9-1.7
		s-0.3-1.3-0.8-1.7c-0.5-0.4-1.6-0.7-3-0.7h-9.4c-0.9,0-1.6,0.3-2.2,0.7c-0.5,0.4-0.8,1.1-0.8,1.9c0,1.1,0.7,1.9,2.1,2.4
		S379.4,153.2,381.9,153.2z M381.9,123c-1.5,0-2.6,0.4-3.7,1.2c-0.9,0.8-1.5,2-1.5,3.4s0.5,2.5,1.5,3.4c0.9,0.9,2.1,1.2,3.7,1.2
		c1.5,0,2.6-0.4,3.6-1.2c0.9-0.8,1.5-2,1.5-3.4s-0.5-2.5-1.5-3.4C384.6,123.4,383.4,123,381.9,123z M396.1,112.3l0.9,5.4
		c-0.1,0-0.3,0-0.5,0c-0.1,0-0.4,0-0.5,0c-1.7,0-2.9,0.4-3.8,1.2c-0.8,0.8-1.3,1.9-1.3,3.2l-3-1.3c0-1.5,0.3-2.9,0.9-4.1
		c0.5-1.3,1.5-2.2,2.6-3c1.2-0.8,2.5-1.2,4.2-1.2c0.1,0,0.1,0,0.3,0S395.9,112.3,396.1,112.3z"/>
	<path class="st1" d="M93,202.8c-0.7,2.4-1.9,4.4-3.3,5.9s-3.3,2.8-5.4,3.6c-2.1,0.8-4.4,1.2-6.7,1.2c-3.6,0-6.7-0.8-9.4-2.2
		c-2.6-1.5-4.6-3.7-6.1-6.5c-1.5-2.8-2.1-6.2-2.1-10c0-4,0.7-7.3,2.1-10c1.5-2.8,3.4-5,6.1-6.5c2.6-1.5,5.7-2.2,9.3-2.2
		c2.5,0,4.8,0.4,6.7,1.1c2,0.7,3.7,1.7,5.2,3.2c1.5,1.5,2.5,3.2,3.2,5.3l-6.9,2.9c-0.7-2.2-1.6-3.8-2.9-4.8c-1.3-0.9-2.9-1.5-5-1.5
		c-2,0-3.7,0.5-5.3,1.5c-1.5,0.9-2.6,2.4-3.4,4.2c-0.8,1.9-1.2,4.1-1.2,6.9c0,2.6,0.4,5,1.2,6.9c0.8,1.9,1.9,3.3,3.3,4.2
		c1.5,0.9,3.3,1.5,5.4,1.5c2,0,3.7-0.5,5.2-1.6c1.5-1.1,2.5-2.6,3-4.9L93,202.8z"/>
	<path class="st1" d="M98.7,212.8v-27.6h6.6l0.5,5.4c0.8-2,1.9-3.4,3.2-4.4c1.5-1.1,3.2-1.6,5.3-1.6c0.7,0,1.2,0,1.7,0.1
		c0.5,0.1,0.9,0.3,1.3,0.4l-0.9,6.3c-0.4-0.1-0.8-0.3-1.3-0.4s-1.2-0.1-2.1-0.1c-1.1,0-2.1,0.3-3.2,0.8c-1.1,0.5-1.9,1.3-2.5,2.4
		c-0.7,1.1-1.1,2.5-1.1,4.1v14.5H98.7z"/>
	<path class="st1" d="M134.4,213.4c-2.9,0-5.4-0.5-7.7-1.7c-2.1-1.2-3.8-2.8-5-4.9c-1.2-2.1-1.7-4.8-1.7-7.8s0.5-5.6,1.7-7.8
		c1.2-2.1,2.8-3.8,4.9-4.9c2.1-1.2,4.5-1.7,7.3-1.7c2.8,0,5.2,0.5,7.1,1.7c2,1.2,3.4,2.6,4.5,4.6c1.1,2,1.6,4.1,1.6,6.6
		c0,0.8,0,1.5,0,2.1s-0.1,1.2-0.1,1.7h-22.1v-5.3h18.8l-3.7,1.3c0-2.4-0.5-4.1-1.6-5.4c-1.1-1.2-2.5-1.9-4.5-1.9
		c-1.5,0-2.6,0.4-3.6,1.1c-1.1,0.7-1.7,1.6-2.2,2.9c-0.5,1.3-0.8,2.9-0.8,4.9s0.3,3.6,0.8,4.9c0.5,1.3,1.3,2.2,2.4,2.9
		c1.1,0.7,2.4,0.9,3.8,0.9c1.6,0,2.9-0.3,4-0.9c1.1-0.7,1.7-1.5,2.4-2.6l6.1,2.4c-0.5,1.5-1.5,2.6-2.6,3.7c-1.2,1.1-2.6,1.9-4.2,2.4
		C138,213.1,136.2,213.4,134.4,213.4z"/>
	<path class="st1" d="M169.3,195.3c0-1.6-0.4-2.8-1.3-3.7c-0.9-0.9-2.1-1.3-3.6-1.3c-1.3,0-2.5,0.4-3.6,1.1
		c-1.1,0.7-1.9,1.9-2.2,3.4l-6.5-2c0.7-2.4,2-4.4,4.1-5.8c2.1-1.5,5-2.2,8.6-2.2c2.4,0,4.5,0.4,6.3,1.2c1.9,0.8,3.2,1.9,4.2,3.4
		c1.1,1.5,1.6,3.4,1.6,5.7v11.2c0,1.5,0.7,2.1,2,2.1c0.7,0,1.2-0.1,1.7-0.3l-0.4,4.8c-0.9,0.5-2.1,0.7-3.6,0.7
		c-1.3,0-2.5-0.3-3.4-0.7c-1.1-0.4-1.9-1.1-2.4-2c-0.5-0.9-0.9-2-0.9-3.4v-0.3l1.3-0.3c-0.3,1.5-0.8,2.6-1.9,3.6
		c-1.1,0.9-2.2,1.7-3.6,2.2c-1.5,0.5-2.9,0.8-4.4,0.8c-1.9,0-3.6-0.3-4.9-0.8c-1.3-0.5-2.4-1.5-3.2-2.5c-0.8-1.1-1.1-2.5-1.1-4.1
		c0-2.1,0.7-3.7,2-5s3.2-2.2,5.7-2.6l10.4-2.1v4.8l-6.6,1.3c-1.2,0.3-2.2,0.7-2.9,1.1s-0.9,1.1-0.9,2.1c0,0.9,0.4,1.6,1.1,2.1
		c0.7,0.5,1.5,0.7,2.5,0.7c0.8,0,1.6-0.1,2.2-0.3c0.8-0.1,1.5-0.5,2-0.9c0.5-0.4,1.1-0.9,1.3-1.7c0.4-0.7,0.5-1.6,0.5-2.5v-7.7
		H169.3z"/>
	<path class="st1" d="M202.9,185.2v5.7h-21.5v-5.7H202.9z M194,176.8v27.1c0,1.3,0.4,2.2,1.1,2.9s1.6,0.9,2.8,0.9
		c0.9,0,1.7-0.1,2.4-0.4c0.7-0.3,1.3-0.7,1.9-1.2l1.2,5c-0.9,0.7-2,1.2-3.3,1.7c-1.3,0.4-2.8,0.7-4.2,0.7c-1.9,0-3.4-0.3-4.9-0.8
		c-1.5-0.5-2.5-1.5-3.3-2.6s-1.2-2.8-1.2-4.9V179L194,176.8z"/>
	<path class="st1" d="M211.8,181.3c-1.6,0-2.8-0.4-3.6-1.1c-0.8-0.7-1.2-1.7-1.2-3s0.4-2.4,1.2-3c0.8-0.7,2-1.1,3.6-1.1
		c1.6,0,2.8,0.4,3.6,1.1c0.8,0.7,1.2,1.7,1.2,3s-0.4,2.4-1.2,3C214.6,180.9,213.4,181.3,211.8,181.3z M215.5,185.2v27.6H208v-27.6
		H215.5z"/>
	<path class="st1" d="M241.7,185.2h7.8l-10.6,27.6h-8.7l-10.6-27.6h8.1l6.9,21.8L241.7,185.2z"/>
	<path class="st1" d="M266.3,213.4c-2.9,0-5.4-0.5-7.7-1.7c-2.1-1.2-3.8-2.8-5-4.9c-1.2-2.1-1.7-4.8-1.7-7.8s0.5-5.6,1.7-7.8
		c1.2-2.1,2.8-3.8,4.9-4.9c2.1-1.2,4.5-1.7,7.3-1.7c2.8,0,5.2,0.5,7.1,1.7c2,1.2,3.4,2.6,4.5,4.6c1.1,2,1.6,4.1,1.6,6.6
		c0,0.8,0,1.5,0,2.1s-0.1,1.2-0.1,1.7h-22.1v-5.3h18.8l-3.7,1.3c0-2.4-0.5-4.1-1.6-5.4c-1.1-1.2-2.5-1.9-4.5-1.9
		c-1.5,0-2.6,0.4-3.6,1.1c-1.1,0.7-1.7,1.6-2.2,2.9c-0.5,1.3-0.8,2.9-0.8,4.9s0.3,3.6,0.8,4.9c0.5,1.3,1.3,2.2,2.4,2.9
		c1.1,0.7,2.4,0.9,3.8,0.9c1.6,0,2.9-0.3,4-0.9c1.1-0.7,1.7-1.5,2.4-2.6l6.1,2.4c-0.5,1.5-1.5,2.6-2.6,3.7c-1.2,1.1-2.6,1.9-4.2,2.4
		C270,213.1,268.1,213.4,266.3,213.4z"/>
</g>
</svg>
