<?xml version="1.0" encoding="utf-8"?>
<!-- Generator: Adobe Illustrator 23.0.3, SVG Export Plug-In . SVG Version: 6.00 Build 0)  -->
<svg version="1.1" id="Layer_1" xmlns="http://www.w3.org/2000/svg" xmlns:xlink="http://www.w3.org/1999/xlink" x="0px" y="0px"
	 viewBox="0 0 562.3 571.9" style="enable-background:new 0 0 562.3 571.9;" xml:space="preserve">
<style type="text/css">
	.st0{fill:#A56779;}
	.st1{fill:#FFFFFF;}
</style>
<title>UXUICourse</title>
<path class="st0" d="M347,37.3C277.9,34.8,209.3,51,148.6,84.1C65.2,129.8-3,215.7,0.1,310.7c2.9,89.4,67.8,167,145.2,212
	c67.4,39.2,148,58.9,224.6,44.6s147.8-65.5,176.7-138c33.2-83.4,8.2-177.8-22.6-262.1C499.8,100.8,465.5,28.8,399.1,4.3
	c-9.2-3.4-19.3-5.7-28.8-3.2c-17.1,4.5-26.8,24.1-25.8,41.8s10.2,33.8,19.7,48.8"/>
<g>
	<path class="st1" d="M169.8,270.5c0,1.7-0.2,3.2-0.6,4.6s-1,2.5-1.7,3.5c-0.8,1-1.8,1.7-3,2.2s-2.6,0.8-4.3,0.8
		c-1.7,0-3.1-0.3-4.3-0.8s-2.2-1.3-2.9-2.2c-0.8-1-1.4-2.1-1.7-3.5s-0.6-2.9-0.6-4.6v-19.1h4.7v19.2c0,0.7,0.1,1.5,0.2,2.3
		c0.1,0.8,0.3,1.5,0.7,2.2c0.3,0.7,0.8,1.2,1.4,1.7s1.5,0.7,2.5,0.7c1,0,1.8-0.2,2.5-0.7s1.1-1,1.5-1.7c0.3-0.7,0.6-1.4,0.7-2.2
		s0.2-1.6,0.2-2.3v-19.2h4.7V270.5z"/>
	<path class="st1" d="M193,281.1h-14.3v-4.2h4.7v-21.3h-4.7v-4.2H193v4.2h-4.9v21.3h4.9V281.1z"/>
	<path class="st1" d="M171.9,322.3c0,2-0.2,3.9-0.6,5.7c-0.4,1.8-1.1,3.4-2,4.7c-0.9,1.4-2.1,2.4-3.6,3.2c-1.5,0.8-3.2,1.2-5.3,1.2
		h-9.7v-29.8h9.7c2,0,3.8,0.4,5.2,1.2s2.6,1.9,3.6,3.2c0.9,1.4,1.6,2.9,2,4.7C171.7,318.4,171.9,320.3,171.9,322.3z M167.2,322.3
		c0-3.4-0.6-6.1-1.8-7.9c-1.2-1.8-2.8-2.7-5-2.7h-4.9V333h4.9c2.1,0,3.8-0.9,5-2.8C166.6,328.3,167.2,325.7,167.2,322.3z"/>
	<path class="st1" d="M179.5,328.4c0.2,1.5,0.9,2.7,2.1,3.7c1.2,1,2.7,1.5,4.7,1.5c1.5,0,2.9-0.2,4-0.7c1.1-0.5,2.1-1.1,2.9-1.9
		l2.4,3.3c-1.4,1.4-2.8,2.3-4.3,2.8c-1.5,0.5-3.2,0.7-5,0.7c-1.6,0-3.2-0.3-4.6-0.8c-1.4-0.5-2.6-1.3-3.7-2.3c-1-1-1.8-2.1-2.4-3.5
		c-0.6-1.4-0.9-2.9-0.9-4.5c0-1.6,0.3-3.1,0.8-4.5c0.5-1.4,1.3-2.5,2.3-3.5c1-1,2.2-1.8,3.5-2.3c1.4-0.6,2.9-0.8,4.5-0.8
		c1.7,0,3.3,0.3,4.7,0.9c1.4,0.6,2.6,1.4,3.6,2.5c1,1.1,1.8,2.5,2.3,4.1c0.6,1.6,0.8,3.4,0.8,5.4H179.5z M192,324.2
		c-0.2-1.4-1-2.5-2.1-3.3c-1.2-0.8-2.5-1.2-4-1.2c-1.5,0-2.8,0.4-4,1.2c-1.2,0.8-1.9,1.9-2.1,3.3H192z"/>
	<path class="st1" d="M221.3,330.8c0,1.4-0.3,2.5-0.9,3.4c-0.6,0.9-1.4,1.6-2.4,2.1c-1,0.5-2.1,0.9-3.3,1.1s-2.4,0.3-3.5,0.3
		c-1.9,0-3.9-0.3-5.8-0.8c-1.9-0.6-3.6-1.3-5-2.2l2-3.9c1.7,1,3.2,1.7,4.6,2.1c1.4,0.4,2.8,0.6,4.2,0.6c1.9,0,3.3-0.2,4.2-0.6
		s1.3-1,1.3-1.7c0-0.3-0.1-0.6-0.4-0.9c-0.2-0.2-0.6-0.4-1.2-0.6s-1.3-0.4-2.2-0.6c-0.9-0.2-2.1-0.4-3.4-0.6
		c-1.1-0.2-2.1-0.4-3.1-0.7c-1-0.3-1.8-0.6-2.6-1.1c-0.7-0.5-1.3-1.1-1.8-1.9c-0.4-0.7-0.7-1.7-0.7-2.8c0-1.1,0.3-2.1,0.9-3
		c0.6-0.8,1.4-1.5,2.3-2.1c1-0.5,2-0.9,3.2-1.2c1.2-0.2,2.4-0.4,3.6-0.4c1.7,0,3.3,0.2,4.9,0.7s3,1.1,4.1,1.9l-1.9,3.6
		c-1.2-0.7-2.3-1.3-3.5-1.5c-1.1-0.3-2.3-0.4-3.7-0.4c-0.6,0-1.1,0-1.8,0.1c-0.6,0.1-1.2,0.2-1.7,0.4s-0.9,0.4-1.3,0.7
		s-0.5,0.7-0.5,1.1c0,0.6,0.5,1,1.5,1.4s2.7,0.7,5.1,1.1c1.3,0.2,2.5,0.4,3.6,0.7s2,0.7,2.8,1.1c0.8,0.5,1.4,1.1,1.8,1.8
		C221.1,328.8,221.3,329.7,221.3,330.8z"/>
	<path class="st1" d="M244,337.2h-14.3V333h4.7v-12.8h-4.7v-4.2h9.4v17h4.9V337.2z M239.7,313.2h-5.7v-5.7h5.7V313.2z"/>
	<path class="st1" d="M271.8,337c0,1.5-0.3,2.8-0.8,3.9c-0.5,1.1-1.2,2.1-2.1,2.9c-0.9,0.8-2,1.4-3.2,1.8s-2.6,0.6-4.1,0.6
		c-3.7,0-6.9-1.1-9.5-3.4l2.2-3.6c2.2,1.9,4.6,2.8,7.2,2.8c1.6,0,2.9-0.4,3.9-1.2c1-0.8,1.5-2,1.5-3.8v-2.3c-1,0.8-1.9,1.5-2.8,1.9
		c-0.9,0.4-1.9,0.6-3.1,0.6c-1.4,0-2.6-0.3-3.8-0.9c-1.2-0.6-2.2-1.4-3-2.4s-1.5-2.2-2-3.5s-0.7-2.7-0.7-4.2s0.2-2.9,0.7-4.2
		c0.5-1.3,1.1-2.5,2-3.5c0.8-1,1.9-1.8,3-2.3c1.2-0.6,2.4-0.9,3.8-0.9c1.2,0,2.2,0.2,3.2,0.6c0.9,0.4,1.8,1,2.8,1.8v-1.9h4.7V337z
		 M267.1,321.6c-0.6-0.6-1.3-1.1-2.2-1.4s-1.8-0.5-2.6-0.5c-1.8,0-3.2,0.6-4.3,1.9s-1.7,2.8-1.7,4.8c0,1,0.1,1.8,0.4,2.7
		c0.3,0.8,0.7,1.5,1.2,2.1c0.5,0.6,1.2,1.1,1.9,1.4s1.5,0.5,2.4,0.5c0.8,0,1.7-0.2,2.6-0.5s1.6-0.8,2.2-1.4V321.6z"/>
	<path class="st1" d="M297.3,337.2h-4.7v-13.1c0-1.7-0.3-2.8-0.9-3.4c-0.6-0.6-1.5-1-2.7-1c-1.7,0-3.2,0.7-4.3,2.1s-1.7,3.4-1.7,5.9
		v9.5h-4.7v-21.3h4.7v5.3c0.5-1.8,1.3-3.3,2.6-4.3s2.9-1.5,4.7-1.5c2.2,0,3.9,0.7,5.1,2.1c1.2,1.4,1.8,3.6,1.8,6.5V337.2z"/>
</g>
</svg>
