<svg version="1.1" id="Layer_1" xmlns="http://www.w3.org/2000/svg" x="0" y="0" viewBox="0 0 562.3 571.9" xml:space="preserve"><style>.st1{fill:#fff}</style><path d="M347 37.3C277.9 34.8 209.3 51 148.6 84.1 65.2 129.8-3 215.7.1 310.7c2.9 89.4 67.8 167 145.2 212 67.4 39.2 148 58.9 224.6 44.6s147.8-65.5 176.7-138c33.2-83.4 8.2-177.8-22.6-262.1-24.2-66.4-58.5-138.4-124.9-162.9-9.2-3.4-19.3-5.7-28.8-3.2-17.1 4.5-26.8 24.1-25.8 41.8s10.2 33.8 19.7 48.8" fill="#a56779"/><path class="st1" d="M239.8 270.5c0 1.7-.2 3.2-.6 4.6s-1 2.5-1.7 3.5c-.8 1-1.8 1.7-3 2.2s-2.6.8-4.3.8-3.1-.3-4.3-.8-2.2-1.3-2.9-2.2c-.8-1-1.4-2.1-1.7-3.5s-.6-2.9-.6-4.6v-19.1h4.7v19.2c0 .7.1 1.5.2 2.3.1.8.3 1.5.7 2.2.3.7.8 1.2 1.4 1.7s1.5.7 2.5.7 1.8-.2 2.5-.7 1.1-1 1.5-1.7c.3-.7.6-1.4.7-2.2s.2-1.6.2-2.3v-19.2h4.7v19.1zM263 281.1h-14.3v-4.2h4.7v-21.3h-4.7v-4.2H263v4.2h-4.9v21.3h4.9v4.2zM241.9 322.3c0 2-.2 3.9-.6 5.7-.4 1.8-1.1 3.4-2 4.7-.9 1.4-2.1 2.4-3.6 3.2-1.5.8-3.2 1.2-5.3 1.2h-9.7v-29.8h9.7c2 0 3.8.4 5.2 1.2s2.6 1.9 3.6 3.2c.9 1.4 1.6 2.9 2 4.7.5 2 .7 3.9.7 5.9zm-4.7 0c0-3.4-.6-6.1-1.8-7.9s-2.8-2.7-5-2.7h-4.9V333h4.9c2.1 0 3.8-.9 5-2.8 1.2-1.9 1.8-4.5 1.8-7.9zM249.5 328.4c.2 1.5.9 2.7 2.1 3.7 1.2 1 2.7 1.5 4.7 1.5 1.5 0 2.9-.2 4-.7s2.1-1.1 2.9-1.9l2.4 3.3c-1.4 1.4-2.8 2.3-4.3 2.8s-3.2.7-5 .7c-1.6 0-3.2-.3-4.6-.8-1.4-.5-2.6-1.3-3.7-2.3-1-1-1.8-2.1-2.4-3.5-.6-1.4-.9-2.9-.9-4.5s.3-3.1.8-4.5 1.3-2.5 2.3-3.5 2.2-1.8 3.5-2.3c1.4-.6 2.9-.8 4.5-.8 1.7 0 3.3.3 4.7.9s2.6 1.4 3.6 2.5 1.8 2.5 2.3 4.1c.6 1.6.8 3.4.8 5.4h-17.7v-.1zm12.5-4.2c-.2-1.4-1-2.5-2.1-3.3-1.2-.8-2.5-1.2-4-1.2s-2.8.4-4 1.2c-1.2.8-1.9 1.9-2.1 3.3H262zM291.3 330.8c0 1.4-.3 2.5-.9 3.4-.6.9-1.4 1.6-2.4 2.1s-2.1.9-3.3 1.1c-1.2.2-2.4.3-3.5.3-1.9 0-3.9-.3-5.8-.8-1.9-.6-3.6-1.3-5-2.2l2-3.9c1.7 1 3.2 1.7 4.6 2.1 1.4.4 2.8.6 4.2.6 1.9 0 3.3-.2 4.2-.6s1.3-1 1.3-1.7c0-.3-.1-.6-.4-.9-.2-.2-.6-.4-1.2-.6-.6-.2-1.3-.4-2.2-.6s-2.1-.4-3.4-.6c-1.1-.2-2.1-.4-3.1-.7-1-.3-1.8-.6-2.6-1.1-.7-.5-1.3-1.1-1.8-1.9-.4-.7-.7-1.7-.7-2.8 0-1.1.3-2.1.9-3 .6-.8 1.4-1.5 2.3-2.1 1-.5 2-.9 3.2-1.2 1.2-.2 2.4-.4 3.6-.4 1.7 0 3.3.2 4.9.7 1.6.5 3 1.1 4.1 1.9l-1.9 3.6c-1.2-.7-2.3-1.3-3.5-1.5-1.1-.3-2.3-.4-3.7-.4-.6 0-1.1 0-1.8.1-.6.1-1.2.2-1.7.4s-.9.4-1.3.7c-.4.3-.5.7-.5 1.1 0 .6.5 1 1.5 1.4s2.7.7 5.1 1.1c1.3.2 2.5.4 3.6.7s2 .7 2.8 1.1c.8.5 1.4 1.1 1.8 1.8.4.8.6 1.7.6 2.8zM314 337.2h-14.3V333h4.7v-12.8h-4.7V316h9.4v17h4.9v4.2zm-4.3-24H304v-5.7h5.7v5.7zM341.8 337c0 1.5-.3 2.8-.8 3.9s-1.2 2.1-2.1 2.9-2 1.4-3.2 1.8-2.6.6-4.1.6c-3.7 0-6.9-1.1-9.5-3.4l2.2-3.6c2.2 1.9 4.6 2.8 7.2 2.8 1.6 0 2.9-.4 3.9-1.2 1-.8 1.5-2 1.5-3.8v-2.3c-1 .8-1.9 1.5-2.8 1.9s-1.9.6-3.1.6c-1.4 0-2.6-.3-3.8-.9s-2.2-1.4-3-2.4c-.8-1-1.5-2.2-2-3.5s-.7-2.7-.7-4.2.2-2.9.7-4.2c.5-1.3 1.1-2.5 2-3.5.8-1 1.9-1.8 3-2.3 1.2-.6 2.4-.9 3.8-.9 1.2 0 2.2.2 3.2.6.9.4 1.8 1 2.8 1.8v-1.9h4.7V337h.1zm-4.7-15.4c-.6-.6-1.3-1.1-2.2-1.4s-1.8-.5-2.6-.5c-1.8 0-3.2.6-4.3 1.9s-1.7 2.8-1.7 4.8c0 1 .1 1.8.4 2.7.3.8.7 1.5 1.2 2.1s1.2 1.1 1.9 1.4 1.5.5 2.4.5c.8 0 1.7-.2 2.6-.5s1.6-.8 2.2-1.4v-9.6h.1zM367.3 337.2h-4.7v-13.1c0-1.7-.3-2.8-.9-3.4s-1.5-1-2.7-1c-1.7 0-3.2.7-4.3 2.1s-1.7 3.4-1.7 5.9v9.5h-4.7v-21.3h4.7v5.3c.5-1.8 1.3-3.3 2.6-4.3s2.9-1.5 4.7-1.5c2.2 0 3.9.7 5.1 2.1s1.8 3.6 1.8 6.5v13.2h.1z"/></svg>