<?xml version="1.0" encoding="utf-8"?>
<!-- Generator: Adobe Illustrator 23.1.1, SVG Export Plug-In . SVG Version: 6.00 Build 0)  -->
<svg version="1.1" id="Layer_1" xmlns="http://www.w3.org/2000/svg" xmlns:xlink="http://www.w3.org/1999/xlink" x="0px" y="0px"
	 viewBox="0 0 562.3 571.9" style="enable-background:new 0 0 562.3 571.9;" xml:space="preserve">
<style type="text/css">
	.st0{fill:#A56779;}
	.st1{fill:#FFFFFF;}
</style>
<title>UXUICourse</title>
<path class="st0" d="M347,37.3C277.9,34.8,209.3,51,148.6,84.1C65.2,129.8-3,215.7,0.1,310.7c2.9,89.4,67.8,167,145.2,212
	c67.4,39.2,148,58.9,224.6,44.6s147.8-65.5,176.7-138c33.2-83.4,8.2-177.8-22.6-262.1C499.8,100.8,465.5,28.8,399.1,4.3
	c-9.2-3.4-19.3-5.7-28.8-3.2c-17.1,4.5-26.8,24.1-25.8,41.8s10.2,33.8,19.7,48.8"/>
<g>
	<path class="st1" d="M186.1,282.9c0,2-0.2,3.8-0.7,5.4c-0.4,1.6-1.1,3-2,4.1c-0.9,1.1-2.1,2-3.5,2.7c-1.4,0.6-3.1,0.9-5,0.9
		c-2,0-3.6-0.3-5-0.9c-1.4-0.6-2.5-1.5-3.5-2.7c-0.9-1.1-1.6-2.5-2-4.2c-0.4-1.6-0.7-3.4-0.7-5.4v-22.5h5.6v22.6
		c0,0.9,0.1,1.8,0.2,2.7c0.1,0.9,0.4,1.8,0.8,2.6c0.4,0.8,1,1.5,1.7,2s1.7,0.8,3,0.8c1.2,0,2.2-0.3,2.9-0.8s1.3-1.2,1.7-2
		s0.7-1.7,0.8-2.6s0.2-1.9,0.2-2.8v-22.6h5.6V282.9z"/>
	<path class="st1" d="M213.5,295.4h-16.8v-5h5.5v-25.1h-5.5v-5h16.8v5h-5.7v25.1h5.7V295.4z"/>
	<path class="st1" d="M277.6,285.7c0,3.2-1.1,5.6-3.3,7.2s-5.3,2.4-9.3,2.4h-11.2v-35.1h10.6c1.5,0,2.9,0.1,4.3,0.4s2.7,0.7,3.8,1.4
		c1.1,0.7,2,1.6,2.7,2.8c0.7,1.2,1,2.7,1,4.6c0,1.8-0.5,3.4-1.4,4.9c-0.9,1.5-2.3,2.5-4.1,3.2c2.2,0.7,3.9,1.7,5,2.9
		C277.1,281.6,277.6,283.4,277.6,285.7z M270.9,270.1c0-1-0.2-1.9-0.6-2.5c-0.4-0.6-0.9-1.1-1.5-1.5c-0.6-0.4-1.3-0.6-2-0.7
		c-0.8-0.1-1.5-0.2-2.3-0.2h-5v9.7h5c0.8,0,1.5-0.1,2.3-0.2c0.8-0.1,1.4-0.3,2-0.7s1.1-0.9,1.5-1.5
		C270.7,272,270.9,271.2,270.9,270.1z M272.1,285.2c0-1.8-0.6-3.1-1.8-3.9c-1.2-0.8-2.9-1.3-5.2-1.3h-5.6v10.4h5.6
		c2.2,0,3.9-0.4,5.2-1.3C271.5,288.2,272.1,286.9,272.1,285.2z"/>
	<path class="st1" d="M307.1,276.2c-0.7-0.3-1.3-0.6-2-0.7s-1.5-0.3-2.4-0.3c-1.2,0-2.4,0.2-3.5,0.6c-1.1,0.4-2,0.9-2.8,1.7
		c-0.8,0.7-1.4,1.7-1.8,2.8c-0.4,1.1-0.7,2.4-0.7,3.9v6.2h5.6v5h-16.9v-5h5.7v-15h-5.7v-5h11.2v6.3c0.9-2.5,2.3-4.3,4-5.3
		c1.8-1,3.9-1.6,6.4-1.6c0.8,0,1.6,0.1,2.4,0.2c0.8,0.2,1.7,0.4,2.5,0.9L307.1,276.2z"/>
	<path class="st1" d="M312.6,288.2c0-1.5,0.4-2.8,1.2-3.9s1.8-2,3.1-2.8c1.3-0.7,2.8-1.3,4.4-1.7c1.7-0.4,3.3-0.6,5.1-0.6
		c1,0,1.8,0,2.4,0.1c0.7,0,1.4,0.1,2.1,0.2v-1c0-1.3-0.5-2.3-1.5-2.9c-1-0.6-2.3-1-4-1c-1.5,0-3,0.2-4.6,0.6s-3,1-4.4,1.8l-2.3-4.4
		c1.7-1,3.4-1.7,5.3-2.2s3.9-0.8,6-0.8c1.4,0,2.7,0.2,4,0.5s2.5,0.8,3.6,1.5c1,0.7,1.9,1.6,2.5,2.7c0.6,1.1,0.9,2.5,0.9,4.2v16.8
		h-5.5v-3.7c-0.9,1.4-2.2,2.4-3.9,3.2c-1.7,0.8-3.6,1.1-5.5,1.1c-1.2,0-2.4-0.2-3.5-0.5c-1.1-0.3-2-0.8-2.8-1.5
		c-0.8-0.7-1.4-1.5-1.9-2.5C312.9,290.6,312.6,289.4,312.6,288.2z M322.9,291c1.1,0,2.1-0.1,3.1-0.4c1-0.3,1.8-0.7,2.5-1.2
		c0.7-0.5,1.3-1.1,1.7-1.8c0.4-0.7,0.6-1.5,0.6-2.3v-0.9c-0.9-0.1-1.7-0.2-2.5-0.2c-0.8,0-1.5,0-2,0c-2.7,0-4.8,0.4-6.2,1.1
		c-1.4,0.7-2.1,1.6-2.1,2.7C318.2,289.9,319.8,291,322.9,291z"/>
	<path class="st1" d="M366.6,295.4H361v-15.5c0-2-0.4-3.3-1.1-4.1c-0.7-0.8-1.8-1.1-3.2-1.1c-2.1,0-3.7,0.8-5,2.5
		c-1.3,1.7-2,4-2,6.9v11.2h-5.6v-25.1h5.6v6.3c0.6-2.2,1.6-3.9,3.1-5.1s3.4-1.8,5.6-1.8c2.6,0,4.6,0.8,6,2.5s2.2,4.2,2.2,7.7V295.4z
		"/>
	<path class="st1" d="M396.7,295.4h-5.6v-2.3c-1.1,0.9-2.2,1.7-3.3,2.2c-1.1,0.5-2.3,0.7-3.7,0.7c-1.6,0-3.1-0.3-4.5-1
		c-1.4-0.6-2.6-1.5-3.6-2.7c-1-1.2-1.8-2.5-2.3-4.2c-0.6-1.6-0.8-3.4-0.8-5.3c0-1.9,0.3-3.7,0.8-5.3c0.6-1.6,1.3-3,2.3-4.2
		c1-1.2,2.2-2.1,3.6-2.7c1.4-0.7,2.9-1,4.5-1c1.4,0,2.6,0.2,3.7,0.7c1.1,0.5,2.2,1.2,3.3,2.1v-7.3h-4.8v-5h10.4V295.4z M391.1,277
		c-0.7-0.7-1.5-1.3-2.6-1.7c-1-0.4-2-0.6-3-0.6c-2.1,0-3.8,0.8-5.1,2.3s-2,3.5-2,5.9c0,2.4,0.7,4.4,2,5.9c1.3,1.5,3,2.2,5.1,2.2
		c1,0,2-0.2,3-0.6c1-0.4,1.9-0.9,2.6-1.7V277z"/>
	<path class="st1" d="M188.6,343.9c0,2.4-0.2,4.6-0.7,6.7c-0.5,2.1-1.3,4-2.4,5.6s-2.5,2.9-4.2,3.8c-1.7,1-3.8,1.4-6.2,1.4h-11.4
		v-35.1h11.4c2.4,0,4.4,0.5,6.1,1.4c1.7,1,3.1,2.2,4.2,3.8s1.9,3.5,2.4,5.6C188.3,339.3,188.6,341.6,188.6,343.9z M183,343.9
		c0-4.1-0.7-7.2-2.1-9.3c-1.4-2.1-3.3-3.2-5.9-3.2h-5.8v25.1h5.8c2.5,0,4.5-1.1,5.9-3.3C182.3,351,183,347.9,183,343.9z"/>
	<path class="st1" d="M197.5,351.1c0.3,1.7,1.1,3.2,2.5,4.3c1.4,1.1,3.2,1.7,5.5,1.7c1.8,0,3.4-0.3,4.7-0.8c1.3-0.6,2.5-1.3,3.5-2.2
		l2.9,3.9c-1.6,1.6-3.3,2.7-5.1,3.3c-1.8,0.6-3.8,0.9-5.9,0.9c-1.9,0-3.7-0.3-5.4-1s-3.1-1.5-4.3-2.7c-1.2-1.2-2.2-2.5-2.9-4.1
		c-0.7-1.6-1-3.4-1-5.3c0-1.9,0.3-3.7,1-5.3c0.6-1.6,1.5-3,2.7-4.2s2.5-2.1,4.2-2.7c1.6-0.7,3.4-1,5.4-1c2,0,3.9,0.3,5.5,1
		c1.7,0.7,3.1,1.7,4.2,3s2.1,2.9,2.8,4.8c0.7,1.9,1,4,1,6.4H197.5z M212.2,346.2c-0.3-1.6-1.1-2.9-2.5-3.9c-1.4-1-3-1.5-4.7-1.5
		c-1.8,0-3.3,0.5-4.7,1.5c-1.4,1-2.2,2.3-2.5,3.9H212.2z"/>
	<path class="st1" d="M246.9,354c0,1.6-0.4,3-1.1,4c-0.7,1-1.7,1.8-2.8,2.5c-1.2,0.6-2.4,1.1-3.9,1.3s-2.8,0.4-4.2,0.4
		c-2.3,0-4.5-0.3-6.8-1c-2.3-0.7-4.2-1.5-5.9-2.6l2.3-4.6c2,1.1,3.8,2,5.4,2.4c1.6,0.5,3.3,0.7,4.9,0.7c2.2,0,3.9-0.2,4.9-0.7
		c1-0.5,1.5-1.1,1.5-2c0-0.4-0.1-0.8-0.4-1c-0.3-0.3-0.8-0.5-1.4-0.7s-1.5-0.4-2.6-0.7s-2.4-0.5-4-0.7c-1.3-0.2-2.5-0.5-3.7-0.8
		s-2.2-0.8-3.1-1.3c-0.9-0.6-1.6-1.3-2.1-2.2c-0.5-0.9-0.8-2-0.8-3.3c0-1.3,0.3-2.5,1-3.5c0.7-1,1.6-1.8,2.7-2.5
		c1.1-0.6,2.4-1.1,3.8-1.4c1.4-0.3,2.8-0.4,4.2-0.4c2,0,3.9,0.3,5.7,0.8c1.9,0.5,3.5,1.2,4.9,2.2l-2.2,4.3c-1.4-0.9-2.8-1.5-4.1-1.8
		s-2.8-0.5-4.3-0.5c-0.7,0-1.4,0-2.1,0.1c-0.7,0.1-1.4,0.2-2,0.4c-0.6,0.2-1.1,0.5-1.5,0.8s-0.6,0.8-0.6,1.3c0,0.7,0.6,1.2,1.8,1.6
		s3.2,0.8,6,1.3c1.5,0.2,2.9,0.5,4.2,0.8c1.3,0.3,2.4,0.8,3.3,1.3c0.9,0.6,1.6,1.3,2.1,2.2C246.6,351.6,246.9,352.7,246.9,354z"/>
	<path class="st1" d="M273.6,361.5h-16.8v-5h5.5v-15.1h-5.5v-5h11.1v20.1h5.7V361.5z M268.5,333.2h-6.8v-6.8h6.8V333.2z"/>
	<path class="st1" d="M306.4,361.2c0,1.7-0.3,3.3-0.9,4.6s-1.4,2.5-2.5,3.4c-1.1,0.9-2.3,1.6-3.8,2.1c-1.4,0.5-3.1,0.7-4.8,0.7
		c-4.4,0-8.1-1.3-11.2-4l2.6-4.3c2.6,2.2,5.4,3.3,8.5,3.3c1.9,0,3.5-0.5,4.6-1.4c1.2-0.9,1.8-2.4,1.8-4.4v-2.7
		c-1.1,1-2.3,1.7-3.3,2.2s-2.3,0.7-3.7,0.7c-1.6,0-3.1-0.3-4.5-1c-1.4-0.7-2.6-1.6-3.6-2.8c-1-1.2-1.8-2.5-2.3-4.1
		c-0.6-1.6-0.8-3.2-0.8-5s0.3-3.4,0.8-5c0.6-1.6,1.3-2.9,2.3-4.1c1-1.2,2.2-2.1,3.6-2.7c1.4-0.7,2.9-1,4.5-1c1.4,0,2.6,0.2,3.7,0.7
		c1.1,0.5,2.2,1.2,3.3,2.1v-2.3h5.6V361.2z M300.9,343.1c-0.7-0.7-1.5-1.3-2.6-1.7c-1-0.4-2.1-0.6-3.1-0.6c-2.1,0-3.8,0.7-5.1,2.2
		s-2,3.3-2,5.6c0,1.1,0.2,2.2,0.5,3.1s0.8,1.8,1.5,2.5c0.6,0.7,1.4,1.3,2.2,1.7s1.8,0.6,2.8,0.6c1,0,2-0.2,3.1-0.6
		c1-0.4,1.9-1,2.6-1.7V343.1z"/>
	<path class="st1" d="M336.5,361.5h-5.6V346c0-2-0.4-3.3-1.1-4.1c-0.7-0.8-1.8-1.1-3.2-1.1c-2.1,0-3.7,0.8-5,2.5c-1.3,1.7-2,4-2,6.9
		v11.2h-5.6v-25.1h5.6v6.3c0.6-2.2,1.6-3.9,3.1-5.1s3.4-1.8,5.6-1.8c2.6,0,4.6,0.8,6,2.5s2.2,4.2,2.2,7.7V361.5z"/>
</g>
</svg>
