<?xml version="1.0" encoding="utf-8"?>
<!-- Generator: Adobe Illustrator 24.0.1, SVG Export Plug-In . SVG Version: 6.00 Build 0)  -->
<svg version="1.1" id="Layer_1" xmlns="http://www.w3.org/2000/svg" xmlns:xlink="http://www.w3.org/1999/xlink" x="0px" y="0px"
	 viewBox="0 0 494 530.8" style="enable-background:new 0 0 494 530.8;" xml:space="preserve">
<style type="text/css">
	.st0{fill:#A56779;}
	.st1{fill:#FFFFFF;}
</style>
<title>FlatironSchoolStyleGuide</title>
<path class="st0" d="M236.2,61.5c-23.7-51.1-90.9-74-143.8-54.6S4.2,81.3,0.4,137.5c-3.1,46.5,12.6,92,17.2,138.3
	c4.5,45.5-1.2,93.8,19.2,134.8c17.6,35.4,51.9,59.1,85.7,79.6c28.9,17.6,59.4,34.4,93,39.2c31.7,4.5,63.7-1.9,95-8.4
	c59.9-12.4,125.5-28.9,160.3-79.2c27.1-39.2,28.7-92.1,13.8-137.4s-44.5-84.3-76.4-119.8C355.8,126,295.8,74.2,229.4,32.2"/>
<g>
	<path class="st1" d="M92.4,234.7c0,1.9-0.2,3.6-0.6,5.1s-1.1,2.8-1.9,3.9c-0.9,1.1-2,1.9-3.3,2.5s-2.9,0.9-4.7,0.9
		c-1.8,0-3.4-0.3-4.7-0.9c-1.3-0.6-2.4-1.4-3.3-2.5c-0.9-1.1-1.5-2.4-1.9-3.9c-0.4-1.5-0.6-3.2-0.6-5.1v-21.2h5.2v21.3
		c0,0.8,0.1,1.7,0.2,2.6c0.1,0.9,0.4,1.7,0.7,2.5c0.4,0.8,0.9,1.4,1.6,1.9c0.7,0.5,1.6,0.7,2.8,0.7c1.1,0,2.1-0.2,2.8-0.7
		s1.3-1.1,1.6-1.8c0.4-0.7,0.6-1.6,0.8-2.5c0.1-0.9,0.2-1.8,0.2-2.6v-21.3h5.2V234.7z"/>
	<path class="st1" d="M118.1,246.4h-15.9v-4.7h5.2v-23.6h-5.2v-4.7h15.9v4.7h-5.4v23.6h5.4V246.4z"/>
	<path class="st1" d="M179.7,229.9c0,2.2-0.2,4.3-0.7,6.3c-0.5,2-1.2,3.8-2.2,5.3c-1,1.5-2.3,2.7-4,3.6c-1.6,0.9-3.6,1.3-5.8,1.3
		h-10.7v-33.1H167c2.2,0,4.2,0.5,5.8,1.4c1.6,0.9,2.9,2.1,4,3.6c1,1.5,1.8,3.3,2.3,5.2S179.7,227.7,179.7,229.9z M174.5,229.9
		c0-3.8-0.7-6.7-2-8.8c-1.3-2-3.1-3-5.5-3h-5.5v23.6h5.5c2.4,0,4.2-1,5.5-3.1C173.8,236.6,174.5,233.7,174.5,229.9z"/>
	<path class="st1" d="M188.1,236.6c0.3,1.6,1,3,2.3,4.1c1.3,1.1,3,1.6,5.2,1.6c1.7,0,3.2-0.3,4.4-0.8s2.3-1.2,3.3-2.1l2.7,3.7
		c-1.5,1.5-3.1,2.5-4.8,3.1c-1.7,0.6-3.6,0.8-5.6,0.8c-1.8,0-3.5-0.3-5.1-0.9c-1.6-0.6-2.9-1.5-4.1-2.5c-1.1-1.1-2-2.4-2.7-3.9
		c-0.6-1.5-1-3.2-1-5c0-1.8,0.3-3.4,0.9-5c0.6-1.5,1.4-2.8,2.5-3.9c1.1-1.1,2.4-2,3.9-2.6c1.5-0.6,3.2-0.9,5-0.9
		c1.9,0,3.6,0.3,5.2,1c1.6,0.7,2.9,1.6,4,2.8c1.1,1.2,2,2.7,2.6,4.5c0.6,1.8,0.9,3.8,0.9,6H188.1z M202,232
		c-0.3-1.5-1.1-2.7-2.4-3.7c-1.3-0.9-2.8-1.4-4.4-1.4s-3.1,0.5-4.5,1.4c-1.3,0.9-2.1,2.1-2.4,3.7H202z"/>
	<path class="st1" d="M234.7,239.4c0,1.5-0.3,2.8-1,3.8c-0.7,1-1.6,1.7-2.7,2.3s-2.3,1-3.6,1.2s-2.7,0.3-3.9,0.3
		c-2.1,0-4.3-0.3-6.4-0.9c-2.1-0.6-4-1.4-5.5-2.4l2.2-4.3c1.9,1.1,3.6,1.8,5.1,2.3c1.5,0.4,3.1,0.7,4.7,0.7c2.1,0,3.6-0.2,4.6-0.7
		c1-0.4,1.4-1.1,1.4-1.9c0-0.4-0.1-0.7-0.4-1c-0.3-0.3-0.7-0.5-1.3-0.7c-0.6-0.2-1.4-0.4-2.5-0.6c-1-0.2-2.3-0.4-3.8-0.7
		c-1.2-0.2-2.4-0.5-3.5-0.7s-2-0.7-2.9-1.3c-0.8-0.5-1.5-1.2-2-2.1c-0.5-0.8-0.7-1.9-0.7-3.1c0-1.3,0.3-2.4,1-3.3
		c0.7-0.9,1.5-1.7,2.6-2.3c1.1-0.6,2.3-1,3.6-1.3s2.6-0.4,4-0.4c1.9,0,3.7,0.2,5.4,0.7s3.3,1.2,4.6,2.1l-2.1,4.1
		c-1.3-0.8-2.6-1.4-3.8-1.7c-1.2-0.3-2.6-0.4-4.1-0.4c-0.6,0-1.3,0-2,0.1c-0.7,0.1-1.3,0.2-1.9,0.4c-0.6,0.2-1.1,0.5-1.4,0.8
		c-0.4,0.3-0.6,0.7-0.6,1.2c0,0.6,0.6,1.1,1.7,1.5c1.1,0.4,3,0.8,5.7,1.2c1.5,0.2,2.8,0.5,4,0.8c1.2,0.3,2.2,0.7,3.1,1.3
		s1.5,1.2,2,2.1C234.4,237.1,234.7,238.1,234.7,239.4z"/>
	<path class="st1" d="M259.8,246.4H244v-4.7h5.2v-14.2H244v-4.7h10.5v18.9h5.4V246.4z M255,219.8h-6.4v-6.4h6.4V219.8z"/>
	<path class="st1" d="M290.7,246.2c0,1.6-0.3,3.1-0.8,4.3s-1.3,2.3-2.3,3.2c-1,0.9-2.2,1.5-3.5,2c-1.4,0.5-2.9,0.7-4.5,0.7
		c-4.1,0-7.6-1.2-10.5-3.7l2.5-4.1c2.4,2.1,5.1,3.1,8,3.1c1.8,0,3.3-0.4,4.4-1.3c1.1-0.9,1.7-2.3,1.7-4.2v-2.5
		c-1.1,0.9-2.1,1.6-3.1,2.1c-1,0.4-2.2,0.7-3.5,0.7c-1.5,0-2.9-0.3-4.2-1c-1.3-0.6-2.4-1.5-3.4-2.6c-0.9-1.1-1.7-2.4-2.2-3.9
		c-0.5-1.5-0.8-3-0.8-4.7c0-1.7,0.3-3.2,0.8-4.7s1.3-2.8,2.2-3.9c0.9-1.1,2.1-2,3.4-2.6c1.3-0.6,2.7-1,4.2-1c1.3,0,2.5,0.2,3.5,0.7
		c1,0.4,2.1,1.1,3.1,2v-2.1h5.2V246.2z M285.5,229.1c-0.6-0.7-1.4-1.2-2.4-1.6s-1.9-0.5-2.9-0.5c-2,0-3.6,0.7-4.8,2.1
		c-1.2,1.4-1.8,3.2-1.8,5.3c0,1.1,0.2,2,0.5,3c0.3,0.9,0.8,1.7,1.4,2.3c0.6,0.7,1.3,1.2,2.1,1.6c0.8,0.4,1.7,0.6,2.7,0.6
		c0.9,0,1.9-0.2,2.9-0.6c1-0.4,1.8-0.9,2.4-1.6V229.1z"/>
	<path class="st1" d="M319,246.4h-5.2v-14.6c0-1.8-0.3-3.1-1-3.8c-0.7-0.7-1.7-1.1-3-1.1c-1.9,0-3.5,0.8-4.8,2.4
		c-1.2,1.6-1.8,3.7-1.8,6.5v10.6h-5.2v-23.6h5.2v5.9c0.5-2,1.5-3.6,2.9-4.8c1.4-1.1,3.2-1.7,5.2-1.7c2.4,0,4.3,0.8,5.7,2.4
		s2.1,4,2.1,7.2V246.4z"/>
	<path class="st1" d="M92.4,296.9c0,1.9-0.2,3.6-0.6,5.1s-1.1,2.8-1.9,3.9c-0.9,1.1-2,1.9-3.3,2.5c-1.3,0.6-2.9,0.9-4.7,0.9
		c-1.8,0-3.4-0.3-4.7-0.9c-1.3-0.6-2.4-1.4-3.3-2.5c-0.9-1.1-1.5-2.4-1.9-3.9c-0.4-1.5-0.6-3.2-0.6-5.1v-21.2h5.2V297
		c0,0.8,0.1,1.7,0.2,2.6s0.4,1.7,0.7,2.5c0.4,0.8,0.9,1.4,1.6,1.9c0.7,0.5,1.6,0.7,2.8,0.7c1.1,0,2.1-0.2,2.8-0.7
		c0.7-0.5,1.3-1.1,1.6-1.8c0.4-0.7,0.6-1.6,0.8-2.5c0.1-0.9,0.2-1.8,0.2-2.6v-21.3h5.2V296.9z"/>
	<path class="st1" d="M120.7,308.7h-5.2v-2.2c-1,0.9-2,1.6-3.1,2c-1,0.5-2.2,0.7-3.5,0.7c-1.5,0-2.9-0.3-4.2-0.9
		c-1.3-0.6-2.4-1.5-3.4-2.5c-0.9-1.1-1.7-2.4-2.2-3.9s-0.8-3.2-0.8-5c0-1.8,0.3-3.5,0.8-5c0.5-1.5,1.3-2.8,2.2-3.9
		c0.9-1.1,2.1-1.9,3.4-2.6c1.3-0.6,2.7-0.9,4.2-0.9c1.3,0,2.5,0.2,3.5,0.7c1,0.4,2.1,1.1,3.1,2v-6.9h-4.6v-4.7h9.8V308.7z
		 M115.5,291.4c-0.6-0.7-1.4-1.2-2.4-1.6c-1-0.4-1.9-0.5-2.8-0.5c-2,0-3.6,0.7-4.8,2.1s-1.9,3.3-1.9,5.6c0,2.3,0.6,4.1,1.9,5.5
		c1.2,1.4,2.9,2.1,4.8,2.1c0.9,0,1.8-0.2,2.8-0.5c1-0.4,1.8-0.9,2.4-1.6V291.4z"/>
	<path class="st1" d="M131.5,298.9c0.3,1.6,1,3,2.3,4.1c1.3,1.1,3,1.6,5.2,1.6c1.7,0,3.2-0.3,4.4-0.8s2.3-1.2,3.3-2.1l2.7,3.7
		c-1.5,1.5-3.1,2.5-4.8,3.1c-1.7,0.6-3.6,0.8-5.6,0.8c-1.8,0-3.5-0.3-5.1-0.9c-1.6-0.6-2.9-1.5-4.1-2.5c-1.1-1.1-2-2.4-2.7-3.9
		c-0.6-1.5-1-3.2-1-5c0-1.8,0.3-3.4,0.9-5c0.6-1.5,1.4-2.8,2.5-3.9s2.4-2,3.9-2.6c1.5-0.6,3.2-0.9,5-0.9c1.9,0,3.6,0.3,5.2,1
		c1.6,0.7,2.9,1.6,4,2.8c1.1,1.2,2,2.7,2.6,4.5c0.6,1.8,0.9,3.8,0.9,6H131.5z M145.3,294.3c-0.3-1.5-1.1-2.7-2.4-3.7
		c-1.3-0.9-2.8-1.4-4.4-1.4s-3.1,0.5-4.5,1.4c-1.3,0.9-2.1,2.1-2.4,3.7H145.3z"/>
	<path class="st1" d="M178.6,308.7h-5.2v-16.2c0-1.1-0.1-1.9-0.3-2.5s-0.6-0.8-1.2-0.8c-1,0-1.7,0.6-2,1.8c-0.3,1.2-0.4,2.9-0.4,5.1
		v12.6h-5.2v-16.2c0-1.1-0.1-1.9-0.4-2.5c-0.2-0.5-0.7-0.8-1.2-0.8c-1,0-1.7,0.6-1.9,1.8c-0.3,1.2-0.4,2.9-0.4,5.1v12.6H155v-23.6
		h5.3v3.4c0.4-1.3,0.9-2.3,1.6-3s1.7-1,2.9-1c1,0,1.9,0.3,2.5,0.9c0.7,0.6,1.2,1.5,1.4,2.5c0.6-1.2,1.2-2.1,1.8-2.6
		c0.6-0.6,1.6-0.8,2.9-0.8c1.6,0,2.9,0.6,3.7,1.8s1.3,3,1.3,5.4V308.7z"/>
	<path class="st1" d="M206.7,285.1l-10.2,28.2c-0.8,2-1.9,3.4-3.3,4.2c-1.5,0.8-3.2,1.1-5.2,1.1c-0.7,0-1.4-0.1-2.2-0.2
		c-0.8-0.1-1.6-0.4-2.5-0.7l1.1-4.8c0.7,0.3,1.4,0.5,2,0.6c0.6,0.1,1.1,0.2,1.6,0.2c1.6,0,2.6-0.7,3.2-2.1l0.9-2.3l-9-24.3h5.4
		l6.5,17.9l6-17.9H206.7z"/>
	<path class="st1" d="M264.2,298.6c-0.4,1.6-0.9,3.1-1.6,4.4c-0.7,1.3-1.5,2.4-2.5,3.4c-1,0.9-2.1,1.6-3.4,2.1
		c-1.3,0.5-2.8,0.8-4.4,0.8c-2.3,0-4.3-0.5-5.9-1.4c-1.6-1-2.9-2.2-4-3.8c-1-1.6-1.8-3.4-2.2-5.5c-0.4-2.1-0.7-4.2-0.7-6.4
		s0.2-4.4,0.7-6.4c0.4-2.1,1.2-3.9,2.2-5.4c1-1.6,2.3-2.8,3.8-3.8c1.6-1,3.5-1.4,5.7-1.4c0.7,0,1.5,0.1,2.2,0.3
		c0.7,0.2,1.4,0.5,2.1,0.8c0.6,0.4,1.2,0.8,1.7,1.4s0.8,1.2,1,1.9v-3.9h4.7v12.5h-4.7c0-1-0.1-2-0.4-3.1c-0.3-1-0.7-1.9-1.2-2.7
		c-0.6-0.8-1.3-1.4-2.1-1.9c-0.8-0.5-1.8-0.7-3-0.7c-1.5,0-2.7,0.4-3.6,1.1c-0.9,0.7-1.7,1.7-2.3,2.9c-0.6,1.2-1,2.5-1.2,4
		c-0.2,1.5-0.3,3-0.3,4.4s0.1,3,0.3,4.5c0.2,1.5,0.6,2.8,1.2,4c0.6,1.2,1.3,2.1,2.3,2.9c1,0.7,2.2,1.1,3.7,1.1c2.1,0,3.8-0.7,5-2.1
		s2.1-3.2,2.8-5.5L264.2,298.6z"/>
	<path class="st1" d="M292.6,296.9c0,1.8-0.3,3.5-0.9,5s-1.4,2.8-2.5,3.9c-1.1,1.1-2.4,1.9-3.9,2.5c-1.5,0.6-3.2,0.9-5.1,0.9
		c-1.8,0-3.5-0.3-5-0.9c-1.5-0.6-2.8-1.5-3.9-2.5c-1.1-1.1-1.9-2.4-2.5-3.9s-0.9-3.2-0.9-5c0-1.8,0.3-3.5,0.9-5
		c0.6-1.5,1.4-2.8,2.5-4c1.1-1.1,2.4-2,3.9-2.6s3.2-0.9,5-0.9c1.9,0,3.6,0.3,5.1,0.9c1.5,0.6,2.8,1.5,3.9,2.6s1.9,2.4,2.5,4
		C292.3,293.5,292.6,295.2,292.6,296.9z M287.3,297c0-1.1-0.2-2.1-0.5-3s-0.8-1.8-1.4-2.4s-1.4-1.2-2.3-1.6c-0.9-0.4-1.9-0.6-3-0.6
		c-1.1,0-2.1,0.2-3,0.6c-0.9,0.4-1.6,0.9-2.2,1.6c-0.6,0.7-1.1,1.5-1.4,2.4s-0.5,2-0.5,3c0,1.1,0.2,2.1,0.5,3s0.8,1.7,1.4,2.4
		c0.6,0.7,1.3,1.2,2.2,1.6c0.9,0.4,1.9,0.6,3,0.6c1.1,0,2.1-0.2,3-0.6s1.6-0.9,2.3-1.6c0.6-0.7,1.1-1.5,1.4-2.4
		S287.3,298.1,287.3,297z"/>
	<path class="st1" d="M297.9,285.1h5.2v14.6c0,1.8,0.3,3.1,1,3.8c0.7,0.7,1.7,1.1,3,1.1c1.9,0,3.5-0.8,4.7-2.4
		c1.2-1.6,1.8-3.7,1.8-6.5v-10.6h5.2v23.6h-5.2v-5.9c-0.5,2-1.5,3.6-2.9,4.8c-1.4,1.1-3.2,1.7-5.2,1.7c-2.4,0-4.3-0.8-5.7-2.4
		c-1.4-1.6-2.1-4-2.1-7.2V285.1z"/>
	<path class="st1" d="M348,290.7c-0.6-0.3-1.3-0.5-1.9-0.7c-0.7-0.2-1.4-0.2-2.2-0.2c-1.2,0-2.3,0.2-3.3,0.5c-1,0.3-1.9,0.9-2.6,1.6
		c-0.7,0.7-1.3,1.6-1.7,2.6s-0.6,2.3-0.6,3.7v5.9h5.3v4.7H325V304h5.3v-14.2H325v-4.7h10.6v5.9c0.9-2.4,2.1-4,3.8-5
		c1.7-1,3.7-1.5,6-1.5c0.7,0,1.5,0.1,2.3,0.2s1.6,0.4,2.3,0.8L348,290.7z"/>
	<path class="st1" d="M376.3,301.7c0,1.5-0.3,2.8-1,3.8c-0.7,1-1.6,1.7-2.7,2.3c-1.1,0.6-2.3,1-3.6,1.2c-1.3,0.2-2.7,0.3-3.9,0.3
		c-2.1,0-4.3-0.3-6.4-0.9c-2.1-0.6-4-1.4-5.5-2.4l2.2-4.3c1.9,1.1,3.6,1.8,5.1,2.3c1.5,0.4,3.1,0.7,4.7,0.7c2.1,0,3.6-0.2,4.6-0.7
		s1.4-1.1,1.4-1.9c0-0.4-0.1-0.7-0.4-1c-0.3-0.3-0.7-0.5-1.3-0.7c-0.6-0.2-1.4-0.4-2.5-0.6c-1-0.2-2.3-0.4-3.8-0.7
		c-1.2-0.2-2.4-0.5-3.5-0.7s-2-0.7-2.9-1.3c-0.8-0.5-1.5-1.2-2-2.1s-0.7-1.9-0.7-3.1c0-1.3,0.3-2.4,1-3.3c0.7-0.9,1.5-1.7,2.6-2.3
		c1.1-0.6,2.3-1,3.6-1.3c1.3-0.3,2.6-0.4,4-0.4c1.9,0,3.7,0.2,5.4,0.7s3.3,1.2,4.6,2.1l-2.1,4.1c-1.3-0.8-2.6-1.4-3.8-1.7
		c-1.2-0.3-2.6-0.4-4.1-0.4c-0.6,0-1.3,0-2,0.1c-0.7,0.1-1.3,0.2-1.9,0.4c-0.6,0.2-1.1,0.5-1.4,0.8c-0.4,0.3-0.6,0.7-0.6,1.2
		c0,0.6,0.6,1.1,1.7,1.5c1.1,0.4,3,0.8,5.7,1.2c1.5,0.2,2.8,0.5,4,0.8c1.2,0.3,2.2,0.7,3.1,1.3c0.9,0.5,1.5,1.2,2,2.1
		C376.1,299.4,376.3,300.4,376.3,301.7z"/>
	<path class="st1" d="M386.5,298.9c0.3,1.6,1,3,2.3,4.1c1.3,1.1,3,1.6,5.2,1.6c1.7,0,3.2-0.3,4.4-0.8c1.3-0.5,2.3-1.2,3.3-2.1
		l2.7,3.7c-1.5,1.5-3.1,2.5-4.8,3.1c-1.7,0.6-3.6,0.8-5.6,0.8c-1.8,0-3.5-0.3-5.1-0.9c-1.6-0.6-2.9-1.5-4.1-2.5
		c-1.1-1.1-2-2.4-2.7-3.9s-1-3.2-1-5c0-1.8,0.3-3.4,0.9-5c0.6-1.5,1.4-2.8,2.5-3.9s2.4-2,3.9-2.6c1.5-0.6,3.2-0.9,5-0.9
		c1.9,0,3.6,0.3,5.2,1s2.9,1.6,4,2.8s2,2.7,2.6,4.5c0.6,1.8,0.9,3.8,0.9,6H386.5z M400.3,294.3c-0.3-1.5-1.1-2.7-2.4-3.7
		c-1.3-0.9-2.8-1.4-4.4-1.4s-3.1,0.5-4.5,1.4c-1.3,0.9-2.1,2.1-2.4,3.7H400.3z"/>
</g>
</svg>
