<svg id="Layer_1" xmlns="http://www.w3.org/2000/svg" viewBox="0 0 562.3 571.9"><style>.st1{enable-background:new}.st2{fill:#fff}.st3{fill:#893756}</style><path d="M347 37.3C277.9 34.8 209.3 51 148.6 84.1 65.2 129.8-3 215.7.1 310.7c2.9 89.4 67.8 167 145.2 212 67.4 39.2 148 58.9 224.6 44.6s147.8-65.5 176.7-138c33.2-83.4 8.2-177.8-22.6-262.1-24.2-66.4-58.5-138.4-124.9-162.9-9.2-3.4-19.3-5.7-28.8-3.2-17.1 4.5-26.8 24.1-25.8 41.8s10.2 33.8 19.7 48.8" fill="#a56779"/><g class="st1"><path class="st2" d="M216.2 290.5c0 1.6-.2 3.1-.5 4.4-.4 1.3-.9 2.4-1.7 3.3-.7.9-1.7 1.6-2.8 2.2-1.1.5-2.5.8-4.1.8-1.6 0-2.9-.3-4.1-.8-1.1-.5-2.1-1.2-2.8-2.2-.8-.9-1.3-2-1.7-3.4-.4-1.3-.5-2.8-.5-4.4v-18.3h4.5v18.4c0 .7.1 1.5.2 2.2.1.8.3 1.5.6 2.1.3.7.8 1.2 1.4 1.6.6.4 1.4.6 2.4.6s1.8-.2 2.4-.6c.6-.4 1.1-.9 1.4-1.6.3-.6.6-1.4.7-2.1.1-.8.2-1.5.2-2.2v-18.4h4.5v18.4zM242.1 300.7h-9.3v-4.1h1.6l-3-6.4-3 6.4h1.6v4.1h-9.2v-4.1h2.5l5.5-10.3-5.5-10h-2.1v-4.1h9v4.1h-1.8l2.9 6.3 2.9-6.3h-1.8v-4.1h9.1v4.1h-2.2l-5.4 10 5.5 10.3h2.5v4.1zM262.7 270.9l3.4 1.7-16.7 33.7-3.4-1.7 16.7-33.7zM289.4 290.5c0 1.6-.2 3.1-.5 4.4s-.9 2.4-1.7 3.3c-.8.9-1.7 1.6-2.8 2.2-1.1.5-2.5.8-4.1.8-1.6 0-2.9-.3-4.1-.8-1.1-.5-2.1-1.2-2.8-2.2-.8-.9-1.3-2-1.7-3.4-.4-1.3-.5-2.8-.5-4.4v-18.3h4.5v18.4c0 .7.1 1.5.2 2.2.1.8.3 1.5.6 2.1.3.7.8 1.2 1.4 1.6.6.4 1.4.6 2.4.6s1.8-.2 2.4-.6c.6-.4 1.1-.9 1.4-1.6s.6-1.4.7-2.1c.1-.8.2-1.5.2-2.2v-18.4h4.5v18.4zM311.6 300.7H298v-4.1h4.5v-20.4H298v-4.1h13.7v4.1H307v20.4h4.6v4.1z"/></g><g class="st1"><path class="st2" d="M217.7 345.6c-.3 1.4-.8 2.7-1.4 3.8-.6 1.1-1.3 2.1-2.1 2.9-.8.8-1.8 1.4-2.9 1.8-1.1.4-2.4.7-3.8.7-2 0-3.7-.4-5.1-1.2-1.4-.8-2.5-1.9-3.4-3.3s-1.5-2.9-1.9-4.7c-.4-1.8-.6-3.6-.6-5.5s.2-3.7.6-5.5 1-3.3 1.9-4.7c.9-1.4 2-2.4 3.3-3.3 1.3-.8 3-1.2 4.9-1.2.6 0 1.3.1 1.9.2.6.2 1.2.4 1.8.7s1 .7 1.5 1.2c.4.5.7 1 .9 1.7v-3.4h4.1v10.8h-4.1c0-.9-.1-1.8-.3-2.6-.2-.9-.6-1.6-1-2.3-.5-.7-1.1-1.2-1.8-1.6s-1.6-.6-2.6-.6c-1.3 0-2.3.3-3.1.9-.8.6-1.5 1.4-2 2.5-.5 1-.8 2.2-1 3.4-.2 1.3-.3 2.5-.3 3.8 0 1.3.1 2.6.3 3.8.2 1.3.5 2.4 1 3.4s1.1 1.8 2 2.5c.8.6 1.9.9 3.2.9 1.8 0 3.3-.6 4.3-1.8s1.8-2.8 2.4-4.8l3.3 1.5zM242.2 344.2c0 1.6-.3 3-.8 4.3s-1.2 2.4-2.2 3.3-2.1 1.7-3.4 2.2c-1.3.5-2.8.8-4.4.8-1.6 0-3-.3-4.3-.8-1.3-.5-2.4-1.3-3.4-2.2-.9-.9-1.7-2.1-2.2-3.3s-.8-2.7-.8-4.3c0-1.5.3-3 .8-4.3.5-1.3 1.2-2.5 2.2-3.4.9-1 2.1-1.7 3.4-2.2s2.8-.8 4.3-.8c1.6 0 3.1.3 4.4.8s2.4 1.3 3.4 2.2 1.7 2.1 2.2 3.4c.6 1.3.8 2.7.8 4.3zm-4.5 0c0-.9-.1-1.8-.4-2.6s-.7-1.5-1.2-2.1-1.2-1-1.9-1.4c-.8-.3-1.6-.5-2.6-.5s-1.8.2-2.6.5-1.4.8-1.9 1.4c-.5.6-.9 1.3-1.2 2.1s-.4 1.7-.4 2.6c0 1 .1 1.8.4 2.6s.7 1.5 1.2 2.1c.5.6 1.2 1.1 1.9 1.4s1.6.5 2.6.5c.9 0 1.8-.2 2.6-.5s1.4-.8 1.9-1.4.9-1.3 1.2-2.1.4-1.7.4-2.6zM246.8 334h4.5v12.6c0 1.6.3 2.7.9 3.3.6.6 1.5.9 2.6.9 1.7 0 3-.7 4.1-2 1.1-1.4 1.6-3.2 1.6-5.6V334h4.5v20.3h-4.5v-5.1c-.5 1.7-1.3 3.1-2.5 4.1s-2.7 1.5-4.5 1.5c-2.1 0-3.7-.7-4.9-2-1.2-1.4-1.8-3.4-1.8-6.2V334zM290 338.8c-.5-.3-1.1-.5-1.6-.6-.6-.1-1.2-.2-1.9-.2-1 0-1.9.1-2.8.4-.9.3-1.6.7-2.3 1.3-.6.6-1.1 1.3-1.5 2.2-.4.9-.5 2-.5 3.2v5.1h4.6v4.1h-13.7v-4.1h4.6V338h-4.6v-4h9.1v5.1c.7-2 1.8-3.5 3.3-4.3 1.4-.8 3.2-1.3 5.2-1.3.6 0 1.3.1 2 .2s1.4.4 2 .7l-1.9 4.4zM314.3 348.2c0 1.3-.3 2.4-.9 3.2s-1.4 1.5-2.3 2c-.9.5-2 .9-3.1 1.1-1.2.2-2.3.3-3.4.3-1.8 0-3.7-.3-5.5-.8-1.8-.5-3.4-1.2-4.8-2.1l1.9-3.7c1.6.9 3.1 1.6 4.4 2s2.7.6 4 .6c1.8 0 3.1-.2 4-.6s1.2-.9 1.2-1.6c0-.3-.1-.6-.3-.8s-.6-.4-1.2-.6c-.5-.2-1.2-.4-2.1-.5-.9-.2-2-.4-3.3-.6l-3-.6c-1-.2-1.8-.6-2.5-1.1-.7-.5-1.3-1.1-1.7-1.8-.4-.7-.6-1.6-.6-2.7s.3-2 .8-2.9 1.3-1.5 2.2-2 1.9-.9 3.1-1.1c1.1-.2 2.3-.3 3.4-.3 1.6 0 3.2.2 4.7.6s2.8 1 4 1.8l-1.8 3.5c-1.1-.7-2.2-1.2-3.3-1.5-1.1-.3-2.2-.4-3.5-.4-.5 0-1.1 0-1.7.1-.6.1-1.1.2-1.6.3-.5.2-.9.4-1.2.7-.3.3-.5.6-.5 1 0 .5.5 1 1.4 1.3 1 .3 2.6.7 4.9 1 1.2.2 2.4.4 3.4.7s1.9.6 2.7 1.1c.7.5 1.3 1 1.7 1.8.3.7.5 1.6.5 2.6zM323.1 345.9c.2 1.4.9 2.6 2 3.5 1.1.9 2.6 1.4 4.5 1.4 1.5 0 2.7-.2 3.8-.7s2-1.1 2.8-1.8l2.3 3.2c-1.3 1.3-2.7 2.2-4.2 2.7s-3.1.7-4.8.7c-1.6 0-3-.3-4.4-.8-1.4-.5-2.5-1.3-3.5-2.2s-1.8-2.1-2.3-3.3c-.6-1.3-.8-2.7-.8-4.3 0-1.5.3-3 .8-4.3.5-1.3 1.2-2.4 2.2-3.4s2.1-1.7 3.4-2.2 2.8-.8 4.3-.8c1.6 0 3.1.3 4.5.8 1.3.6 2.5 1.4 3.4 2.4 1 1.1 1.7 2.4 2.2 3.9s.8 3.3.8 5.2h-17zm11.9-4c-.2-1.3-.9-2.4-2-3.2-1.1-.8-2.4-1.2-3.8-1.2s-2.7.4-3.8 1.2c-1.1.8-1.8 1.8-2.1 3.2H335z"/></g><g class="st1"><path class="st2" d="M217.2 400.2c0 2.6-.9 4.5-2.6 5.8s-4.3 2-7.5 2H198v-28.5h8.6c1.2 0 2.4.1 3.5.3s2.2.6 3.1 1.1c.9.5 1.6 1.3 2.2 2.3s.9 2.2.9 3.8c0 1.4-.4 2.8-1.1 4s-1.8 2.1-3.3 2.6c1.8.6 3.2 1.4 4.1 2.4s1.2 2.3 1.2 4.2zm-5.4-12.7c0-.8-.2-1.5-.5-2s-.7-.9-1.2-1.2c-.5-.3-1-.5-1.7-.6-.6-.1-1.2-.1-1.9-.1h-4.1v7.9h4.1c.6 0 1.2 0 1.9-.1.6-.1 1.2-.3 1.7-.6s.9-.7 1.2-1.2c.3-.6.5-1.3.5-2.1zm1 12.2c0-1.4-.5-2.5-1.5-3.2-1-.7-2.4-1-4.2-1h-4.6v8.4h4.6c1.8 0 3.2-.3 4.2-1s1.5-1.8 1.5-3.2zM241.2 392.4c-.5-.3-1.1-.5-1.6-.6-.6-.1-1.2-.2-1.9-.2-1 0-1.9.1-2.8.4-.9.3-1.6.7-2.3 1.3-.6.6-1.1 1.3-1.5 2.2-.4.9-.5 2-.5 3.2v5.1h4.6v4.1h-13.7v-4.1h4.6v-12.2h-4.6v-4.1h9.1v5.1c.7-2 1.8-3.5 3.3-4.3 1.4-.8 3.2-1.3 5.2-1.3.6 0 1.3.1 2 .2s1.4.4 2 .7l-1.9 4.5zM245.7 402.1c0-1.2.3-2.2 1-3.1.6-.9 1.5-1.6 2.5-2.2 1-.6 2.2-1 3.6-1.3 1.3-.3 2.7-.4 4.1-.4h2c.6 0 1.1.1 1.7.1v-.8c0-1.1-.4-1.9-1.2-2.4-.8-.5-1.9-.8-3.2-.8-1.2 0-2.5.2-3.7.5s-2.5.8-3.6 1.5l-1.8-3.5c1.3-.8 2.8-1.4 4.3-1.8 1.5-.4 3.2-.7 4.9-.7 1.1 0 2.2.1 3.3.4 1.1.2 2 .7 2.9 1.2.9.6 1.5 1.3 2 2.2.5.9.8 2 .8 3.4V408h-4.5v-3c-.7 1.1-1.8 2-3.2 2.6-1.4.6-2.9.9-4.5.9-1 0-1.9-.1-2.8-.4-.9-.3-1.6-.7-2.3-1.2-.6-.5-1.2-1.2-1.5-2-.7-.8-.8-1.8-.8-2.8zm8.3 2.3c.9 0 1.7-.1 2.5-.3s1.5-.5 2.1-.9c.6-.4 1.1-.9 1.4-1.4.3-.6.5-1.2.5-1.9v-.8c-.7-.1-1.4-.2-2-.2h-1.7c-2.2 0-3.9.3-5 .9-1.1.6-1.7 1.3-1.7 2.2 0 1.6 1.3 2.4 3.9 2.4zM289.4 408h-4.5v-12.5c0-1.6-.3-2.7-.9-3.3s-1.5-.9-2.6-.9c-1.7 0-3 .7-4.1 2-1.1 1.4-1.6 3.2-1.6 5.6v9.1h-4.5v-20.3h4.5v5.1c.5-1.8 1.3-3.1 2.5-4.1 1.2-1 2.7-1.5 4.5-1.5 2.1 0 3.7.7 4.9 2 1.2 1.4 1.8 3.4 1.8 6.2V408zM313.8 408h-4.5v-1.9c-.9.8-1.8 1.4-2.6 1.8-.9.4-1.9.6-3 .6-1.3 0-2.5-.3-3.6-.8s-2.1-1.3-2.9-2.2c-.8-.9-1.4-2.1-1.9-3.4s-.7-2.7-.7-4.3c0-1.5.2-3 .7-4.3.5-1.3 1.1-2.4 1.9-3.4.8-.9 1.8-1.7 2.9-2.2 1.1-.5 2.3-.8 3.6-.8 1.1 0 2.1.2 3 .6.9.4 1.8 1 2.6 1.7v-5.9h-3.9v-4.1h8.4V408zm-4.5-15c-.5-.6-1.2-1.1-2.1-1.4s-1.7-.5-2.4-.5c-1.7 0-3.1.6-4.2 1.8-1.1 1.2-1.6 2.8-1.6 4.8s.5 3.6 1.6 4.8 2.5 1.8 4.2 1.8c.8 0 1.6-.2 2.4-.5s1.5-.8 2.1-1.4V393zM336 408h-13.7v-4.1h4.5v-12.2h-4.5v-4.1h9v16.3h4.6v4.1zm-4.1-23h-5.5v-5.5h5.5v5.5zM362.6 408h-4.5v-12.5c0-1.6-.3-2.7-.9-3.3s-1.5-.9-2.6-.9c-1.7 0-3 .7-4.1 2-1.1 1.4-1.6 3.2-1.6 5.6v9.1h-4.5v-20.3h4.5v5.1c.5-1.8 1.3-3.1 2.5-4.1 1.2-1 2.7-1.5 4.5-1.5 2.1 0 3.7.7 4.9 2 1.2 1.4 1.8 3.4 1.8 6.2V408zM387 407.7c0 1.4-.2 2.6-.7 3.7-.5 1.1-1.2 2-2 2.8-.9.8-1.9 1.3-3.1 1.7-1.2.4-2.5.6-3.9.6-3.5 0-6.6-1.1-9.1-3.2l2.1-3.5c2.1 1.8 4.4 2.7 6.9 2.7 1.6 0 2.8-.4 3.8-1.1 1-.8 1.4-2 1.4-3.6v-2.2c-.9.8-1.8 1.4-2.7 1.8-.9.4-1.9.6-3 .6-1.3 0-2.5-.3-3.6-.8-1.1-.6-2.1-1.3-2.9-2.3-.8-1-1.4-2.1-1.9-3.3s-.7-2.6-.7-4 .2-2.8.7-4 1.1-2.4 1.9-3.3c.8-.9 1.8-1.7 2.9-2.2 1.1-.5 2.3-.8 3.6-.8 1.1 0 2.1.2 3 .6.9.4 1.8 1 2.6 1.7v-1.8h4.5v19.9zm-4.5-14.7c-.5-.6-1.2-1.1-2.1-1.4-.9-.3-1.7-.5-2.5-.5-1.7 0-3.1.6-4.1 1.8-1.1 1.2-1.6 2.7-1.6 4.6 0 .9.1 1.8.4 2.5.3.8.7 1.5 1.2 2s1.1 1 1.8 1.3c.7.3 1.5.5 2.3.5.8 0 1.6-.2 2.5-.5.9-.3 1.5-.8 2.1-1.4V393z"/></g><g class="st1"><path class="st3" d="M417.7 474.7l5.6 21-3.2 1.4-5.5-7.7 2 9.2-3.2 1.4-11.7-18.3 3.2-1.4 7.6 12.4-1.9-8.2 3-1.3 4.7 7-4-14 3.4-1.5z"/></g><g class="st1"><path class="st3" d="M429.1 485.8c.7.8 1.5 1.4 2.6 1.5 1.1.2 2.2-.1 3.5-.8 1-.5 1.7-1.2 2.2-1.9.5-.7.9-1.5 1.2-2.2l2.7 1.2c-.4 1.3-.9 2.4-1.7 3.3-.8.9-1.7 1.6-2.9 2.3-1 .6-2.1 1-3.2 1.1s-2.1.1-3.1-.1-1.9-.7-2.8-1.3c-.8-.6-1.6-1.5-2.2-2.5-.6-1-.9-2-1.1-3.1-.1-1-.1-2.1.2-3 .3-1 .7-1.9 1.4-2.7s1.5-1.5 2.5-2.1c1.1-.6 2.2-1 3.2-1.1 1.1-.1 2.1 0 3.2.3 1 .3 2 .9 2.9 1.7.9.8 1.7 1.8 2.5 3.1l-11.1 6.3zm6.3-7.1c-.6-.8-1.5-1.2-2.5-1.3-1-.1-2 .1-2.9.6-.9.5-1.6 1.3-2.1 2.2s-.5 1.9-.2 2.8l7.7-4.3z"/></g><g class="st1"><path class="st3" d="M447.5 456l9.8 19.3-2.8 2-6.9-6.4 3.9 8.6-2.8 2-15.2-15.5 2.9-2.1 10 10.6-3.6-7.7 2.6-1.9 6.1 5.9-6.8-12.9 2.8-1.9z"/></g><g class="st1"><path class="st3" d="M469.4 455c.8.9 1.4 1.8 1.8 2.8.4 1 .5 2 .5 3s-.3 2-.8 2.9c-.5 1-1.1 1.8-2 2.7-.9.8-1.8 1.4-2.8 1.8-1 .4-2 .5-3 .5s-2-.3-2.9-.8-1.8-1.1-2.6-2c-.8-.9-1.4-1.8-1.7-2.8-.4-1-.6-2-.5-3 0-1 .3-2 .8-2.9.5-.9 1.1-1.8 2-2.6.9-.8 1.8-1.4 2.8-1.8 1-.4 2-.5 3-.5 1 .1 2 .3 2.9.8.9.4 1.8 1.1 2.5 1.9zm-2.5 2.3c-.5-.5-1-.9-1.6-1.2-.6-.3-1.2-.5-1.7-.6-.6-.1-1.2 0-1.8.2-.6.2-1.2.5-1.7 1s-.9 1-1.2 1.6c-.2.6-.4 1.2-.4 1.7 0 .6.1 1.2.4 1.8s.6 1.2 1.1 1.7c.5.5 1 1 1.6 1.2.6.3 1.1.5 1.7.5s1.2 0 1.8-.2c.6-.2 1.1-.5 1.7-1 .5-.5.9-1 1.2-1.6.3-.6.4-1.2.4-1.8 0-.6-.1-1.2-.4-1.8-.2-.4-.6-1-1.1-1.5z"/></g><g class="st1"><path class="st3" d="M478.9 438.8l-1.2.6c-.4.2-.7.6-1.1 1-.5.6-.9 1.2-1.2 1.8-.3.6-.4 1.3-.4 2s.2 1.3.5 2c.3.6.8 1.3 1.5 1.9l2.9 2.5 2.3-2.6 2.3 2-6.8 7.7-2.3-2 2.3-2.6-6.9-6.1-2.3 2.6-2.3-2 4.5-5.2 2.9 2.5c-.8-1.4-1.1-2.8-.8-4 .2-1.2.9-2.4 1.9-3.5.3-.4.7-.7 1.1-1 .4-.3.9-.6 1.4-.8l1.7 3.2z"/></g><g class="st1"><path class="st3" d="M499.5 429.8l-2.5 3.6-8 .8.4 2.2 3.8 2.6-1.9 2.8-17.8-12 1.9-2.8 10.6 7-1.9-8.7 2.6-3.9 1.9 9.8 10.9-1.4z"/></g></svg>